<svg xmlns="http://www.w3.org/2000/svg" width="226" height="99" viewBox="0 0 226 99" fill="none">
  <path d="M10.6422 68.708L6.8192 77.7561H3.82286L0 68.708H3.28056L5.43737 73.9946L7.64588 68.708H10.6422Z" fill="white"/>
  <path d="M13.0069 68.7075H16.055V77.7556H13.0069V68.7075Z" fill="white"/>
  <path d="M19.5941 68.7075H22.6421V77.7556H19.5941V68.7075Z" fill="white"/>
  <path d="M26.1813 68.7075H29.2294V77.7556H26.1813V68.7075Z" fill="white"/>
  <path d="M9.31379 39.0386H0V39.6388C1.55227 39.6388 2.646 41.7221 2.646 43.9112V59.0587C2.646 61.4596 1.51713 63.2958 0 63.2958V63.896H9.31379C16.3346 63.896 24.0959 61.8834 24.0959 51.5732C24.0959 41.263 16.3344 39.0386 9.31379 39.0386ZM3.98758 62.3945L5.74219 59.3531L7.49664 62.3945H3.98758ZM5.74203 43.5815L3.98758 40.5401H7.49664L5.74203 43.5815ZM10.8619 63.2958H9.30961V39.6388H10.8619C14.3192 39.6388 16.3739 40.5568 16.3739 51.5732C16.3739 62.5896 14.3192 63.2958 10.8619 63.2958ZM18.6754 51.4672L21.7143 49.7113V53.2233L18.6754 51.4672Z" fill="white"/>
  <path d="M67.6106 39.0386V39.6388C74.3615 39.6388 71.7694 47.901 71.7694 47.901L68.8368 55.2525L64.2153 43.7347C64.2153 43.7347 62.8747 39.6388 65.7676 39.6388V39.0386H53.0006V39.6388C53.9179 39.6388 55.1879 39.6741 56.3521 42.4988C56.3521 42.4988 56.7402 43.0992 65.3837 63.896H65.9834L72.3338 48.0776C75.8971 39.6388 77.5198 39.6388 79.1427 39.6388V39.0386H67.6106ZM60.1053 43.5815L58.3508 40.5401H61.8599L60.1053 43.5815Z" fill="white"/>
  <path d="M48.4811 56.1987C46.9995 63.2958 39.1985 63.2958 39.1985 63.2958H37.9284V51.6438H39.1985C39.1985 51.6438 44.5609 51.6438 44.9137 55.3159H45.5135V47.3714H44.9137C44.5609 51.0435 39.1985 51.0435 39.1985 51.0435H37.9284V39.6388H39.1985C39.1985 39.6388 47.2111 39.6388 48.0225 45.7472H48.6222V39.0386H29.2185V39.6388C30.7708 39.6388 31.2648 41.7221 31.2648 43.9112V59.0587C31.2648 61.4596 30.7004 63.2958 29.2185 63.2958V63.896H49.0809V56.1987H48.4811ZM32.6065 62.3945L34.3611 59.3531L36.1156 62.3945H32.6065ZM34.361 43.5815L32.6065 40.5401H36.1156L34.361 43.5815Z" fill="white"/>
  <path d="M175.187 68.7031H178.239V77.7637H175.187V68.7031Z" fill="white"/>
  <path d="M191.224 68.7031V77.7637H188.715L185.275 73.6477V77.7637H182.3V68.7031H184.809L188.249 72.8192V68.7031H191.224Z" fill="white"/>
  <path d="M195.286 68.7031H199.748C202.774 68.7031 204.856 70.4246 204.856 73.2335C204.856 76.0424 202.774 77.7639 199.748 77.7639H195.286V68.7031ZM199.618 75.382C200.899 75.382 201.778 74.6183 201.778 73.2333C201.778 71.8484 200.899 71.0847 199.618 71.0847H198.338V75.382H199.618Z" fill="white"/>
  <path d="M208.556 68.7031H211.608V77.7637H208.556V68.7031Z" fill="white"/>
  <path d="M221.839 76.1846H218.399L217.791 77.7637H214.687L218.644 68.7031H221.645L225.602 77.7637H222.446L221.839 76.1846ZM220.998 73.9842L220.119 71.7061L219.239 73.9842H220.998Z" fill="white"/>
  <path d="M168.973 56.4814C168.055 60.3301 165.162 63.6138 160.929 63.6138C157.74 63.6138 156.585 61.1776 156.585 51.4676C156.585 41.7577 157.74 39.3214 160.929 39.3214C164.951 39.3214 166.997 41.6518 168.973 46.4185H169.572L170.066 40.875C167.844 39.0743 164.562 38.7212 160.929 38.7212C153.379 38.7212 148.687 44.4412 148.687 51.4676C148.687 58.494 153.379 64.214 160.929 64.214C164.704 64.214 167.456 63.7551 170.066 62.0249L169.572 56.4814H168.973ZM151.252 53.2235V49.7115L154.291 51.4676L151.252 53.2235Z" fill="white"/>
  <path d="M185.131 38.7207C177.369 38.7207 172.959 44.6525 172.959 51.6438C172.959 58.6702 177.369 64.2135 185.131 64.2135C192.892 64.2135 197.302 58.6702 197.302 51.6438C197.302 44.6525 192.892 38.7207 185.131 38.7207ZM175.633 53.2232V49.7112L178.672 51.4673L175.633 53.2232ZM185.131 63.6133C180.932 63.6133 180.54 61.3535 180.54 51.6438C180.54 41.934 180.932 39.3209 185.131 39.3209C189.294 39.3209 189.651 41.9691 189.651 51.6438C189.651 61.3184 189.293 63.6133 185.131 63.6133ZM192.087 51.4673L195.126 49.7112V53.2232L192.087 51.4673Z" fill="white"/>
  <path d="M214.912 39.0387V39.639C219.781 39.6036 219.746 48.0071 219.746 48.0071V54.6763L207.076 39.0386H196.885V39.6388C197.802 39.7095 198.825 39.321 201.083 42.1457L202.459 43.8759V54.8923C202.459 54.8923 202.494 63.2958 197.167 63.2958V63.896H207.892V63.2958C203.023 63.2958 203.058 54.8923 203.058 54.8923V44.5114L218.475 63.896H220.345V48.0071C220.345 48.0071 220.275 39.6036 225.602 39.639V39.0387H214.912ZM204.813 43.5817L203.058 40.5402H206.568L204.813 43.5817Z" fill="white"/>
  <path d="M116.056 41.3272C116.103 41.0652 116.384 39.2526 115.237 38.2889C114.345 37.5396 113.589 37.4042 112.801 35.9546C112.013 37.4043 111.257 37.5396 110.365 38.2889C109.205 39.2639 109.506 41.1089 109.548 41.337C110.557 40.9251 111.659 40.6963 112.814 40.6963C113.96 40.6963 115.053 40.9217 116.056 41.3274V41.3272Z" fill="white"/>
  <path d="M109.548 57.4224C109.506 57.6504 109.204 59.4954 110.365 60.4704C111.257 61.2197 112.013 61.3551 112.801 62.8047C113.589 61.355 114.345 61.2197 115.237 60.4704C116.384 59.5067 116.103 57.6941 116.055 57.4321C115.053 57.8377 113.96 58.0632 112.814 58.0632C111.659 58.0632 110.557 57.8342 109.548 57.4224Z" fill="white"/>
  <path d="M123.883 46.9414C122.929 45.8037 121.141 46.0697 120.854 46.1211C121.263 47.1281 121.491 48.2275 121.491 49.3796C121.491 50.5317 121.263 51.6312 120.854 52.6381C121.141 52.6894 122.929 52.9556 123.883 51.8179C124.632 50.9253 124.767 50.1679 126.215 49.3798C124.767 48.5915 124.632 47.8341 123.883 46.9417V46.9414Z" fill="white"/>
  <path d="M104.772 46.1256C104.588 46.0902 102.707 45.7636 101.719 46.9415C100.971 47.834 100.836 48.5914 99.387 49.3796C100.836 50.1679 100.971 50.9252 101.719 51.8177C102.707 52.9953 104.588 52.6689 104.772 52.6336C104.365 51.6279 104.138 50.53 104.138 49.3796C104.138 48.2291 104.365 47.1313 104.772 46.1256Z" fill="white"/>
  <path d="M120.799 45.9835C121.042 45.814 122.488 44.7383 122.36 43.2609C122.258 42.1 121.819 41.4688 122.286 39.8862C120.705 40.354 120.074 39.9141 118.914 39.8128C117.426 39.6829 116.346 41.1549 116.19 41.3803C118.258 42.2579 119.918 43.9162 120.799 45.9833L120.799 45.9835Z" fill="white"/>
  <path d="M104.823 52.7617C104.657 52.8745 103.109 53.9721 103.242 55.4981C103.344 56.659 103.783 57.2902 103.316 58.8728C104.897 58.405 105.528 58.8449 106.688 58.9462C108.195 59.0778 109.285 57.5643 109.418 57.3697C107.355 56.488 105.7 54.8289 104.823 52.7619L104.823 52.7617Z" fill="white"/>
  <path d="M116.19 57.3791C116.347 57.6044 117.427 59.0764 118.914 58.9466C120.074 58.8453 120.705 58.4055 122.286 58.8731C121.819 57.2906 122.258 56.6595 122.36 55.4984C122.489 54.0211 121.042 52.9455 120.799 52.7759C119.918 54.8432 118.258 56.5015 116.191 57.3789L116.19 57.3791Z" fill="white"/>
  <path d="M109.418 41.3898C109.285 41.1952 108.195 39.6816 106.688 39.8133C105.528 39.9146 104.897 40.3543 103.316 39.8867C103.783 41.4693 103.344 42.1003 103.242 43.2614C103.109 44.7874 104.657 45.885 104.823 45.9978C105.7 43.9308 107.355 42.2717 109.418 41.3899L109.418 41.3898Z" fill="white"/>
  <path d="M112.814 42.4517C108.997 42.4517 105.892 45.5596 105.892 49.3799C105.892 53.2002 108.997 56.3081 112.814 56.3081C116.632 56.3081 119.737 53.2002 119.737 49.3799C119.737 45.5596 116.631 42.4517 112.814 42.4517ZM112.802 53.3748C110.598 53.3748 108.811 51.5862 108.811 49.3799C108.811 47.1735 110.598 45.3849 112.802 45.3849C115.007 45.3849 116.794 47.1735 116.794 49.3799C116.794 51.5862 115.007 53.3748 112.802 53.3748Z" fill="white"/>
  <path d="M115.055 49.3797C115.055 47.1734 114.385 45.3848 112.826 45.3848C111.267 45.3848 110.598 47.1734 110.598 49.3797C110.598 51.586 111.267 53.3746 112.826 53.3746C114.385 53.3746 115.055 51.586 115.055 49.3797Z" fill="white"/>
  <path d="M112.801 74.6656L83.8706 56.2246L112.801 98.52L141.731 56.2246L112.801 74.6656ZM112.801 89.1032L106.666 78.4687C108.665 78.7837 109.809 79.0886 112.801 79.0886C115.856 79.0886 116.937 78.7837 118.936 78.4687L112.801 89.1032Z" fill="white"/>
  <path d="M112.801 0L83.8706 50.2666L112.801 68.7075L141.731 50.2666L112.801 0ZM122.478 29.8876C121.742 32.2188 121.852 34.332 122.724 34.6077C120.395 33.8713 119.103 31.3843 119.839 29.0533C120.574 26.722 123.059 25.429 125.389 26.1654C124.517 25.8899 123.214 27.5565 122.478 29.8878L122.478 29.8876ZM112.801 10.3785L119.747 22.4193C117.484 22.0628 116.261 21.7175 112.801 21.7175C109.413 21.7175 108.118 22.0628 105.855 22.4193L112.801 10.3785ZM117.118 28.6565C117.118 31.0249 115.2 32.9449 112.833 32.9449C110.467 32.9449 108.548 31.0249 108.548 28.6565C108.548 26.2881 110.467 24.368 112.833 24.368C115.2 24.368 117.118 26.288 117.118 28.6565ZM105.764 29.0532C106.499 31.3843 105.207 33.8711 102.878 34.6075C103.75 34.3319 103.86 32.2187 103.124 29.8875C102.388 27.5561 101.086 25.8896 100.214 26.1651C102.543 25.4288 105.028 26.7218 105.764 29.053L105.764 29.0532ZM88.826 49.5269C93.7191 41.3947 102.625 35.9545 112.801 35.9545C122.977 35.9545 131.883 41.3946 136.776 49.5269L112.801 64.8092L88.826 49.5269Z" fill="white"/>
</svg>
