<svg preserveAspectRatio="none" width="100%" height="100%" overflow="visible" style="display: block;" viewBox="0 0 16 16.0022" fill="none" xmlns="http://www.w3.org/2000/svg">
<g id="Group">
<path id="Vector" d="M8.0022 6.14H7.99998C6.97273 6.14 6.13998 6.97276 6.13998 8V8.00222C6.13998 9.02947 6.97273 9.86222 7.99998 9.86222H8.0022C9.02944 9.86222 9.8622 9.02947 9.8622 8.00222V8C9.8622 6.97276 9.02944 6.14 8.0022 6.14Z" fill="var(--fill-0, #00FFB6)"/>
<path id="Vector_2" d="M4.35111 6.27778C4.35111 5.17333 5.24667 4.27778 6.35111 4.27778H10.2133L14.4911 0H3.82667L0 3.82667V10.1222H4.35111V6.27556V6.27778Z" fill="var(--fill-0, black)"/>
<path id="Vector_3" d="M11.6489 5.86222V9.57556C11.6489 10.68 10.7533 11.5756 9.64889 11.5756H5.93556L1.5089 16.0022H12.1733L16 12.1756V5.86444H11.6489V5.86222Z" fill="var(--fill-0, black)"/>
</g>
</svg>
