<svg width="16" height="18" viewBox="0 0 16 18" fill="none" xmlns="http://www.w3.org/2000/svg">
<path d="M6.30875 15.5588C2.981 14.7915 0.5 11.8103 0.5 8.25C0.5 4.10775 3.85775 0.75 8 0.75C12.1422 0.75 15.5 4.10775 15.5 8.25C15.5 11.8103 13.019 14.7915 9.69125 15.5588L8 17.25L6.30875 15.5588V15.5588ZM4.259 12.9427C4.95785 13.5016 5.77349 13.8961 6.6455 14.097L7.0655 14.1937L8 15.129L8.93525 14.1937L9.35525 14.0963C10.2842 13.8821 11.1483 13.4485 11.8752 12.8317C11.3869 12.3304 10.8029 11.9321 10.1579 11.6604C9.51285 11.3888 8.8199 11.2492 8.12 11.25C6.593 11.25 5.2175 11.9025 4.259 12.9427V12.9427ZM3.212 11.865C3.84234 11.1961 4.603 10.6633 5.4471 10.2995C6.29121 9.93579 7.20086 9.74877 8.12 9.75C9.00624 9.74885 9.88398 9.92277 10.7028 10.2618C11.5216 10.6008 12.2654 11.0982 12.8915 11.7255C13.5336 10.8218 13.9127 9.75798 13.9869 8.65193C14.0611 7.54589 13.8275 6.44091 13.3119 5.45959C12.7963 4.47827 12.0189 3.65897 11.066 3.09258C10.1131 2.5262 9.02187 2.23488 7.91345 2.25094C6.80504 2.267 5.72275 2.58981 4.78664 3.18357C3.85053 3.77732 3.09722 4.6188 2.61027 5.61465C2.12332 6.6105 1.92177 7.72178 2.02799 8.82521C2.1342 9.92864 2.54403 10.9811 3.212 11.8657V11.865ZM8 9C7.20435 9 6.44129 8.68393 5.87868 8.12132C5.31607 7.55871 5 6.79565 5 6C5 5.20435 5.31607 4.44129 5.87868 3.87868C6.44129 3.31607 7.20435 3 8 3C8.79565 3 9.55871 3.31607 10.1213 3.87868C10.6839 4.44129 11 5.20435 11 6C11 6.79565 10.6839 7.55871 10.1213 8.12132C9.55871 8.68393 8.79565 9 8 9ZM8 7.5C8.39782 7.5 8.77936 7.34196 9.06066 7.06066C9.34196 6.77936 9.5 6.39782 9.5 6C9.5 5.60218 9.34196 5.22064 9.06066 4.93934C8.77936 4.65804 8.39782 4.5 8 4.5C7.60218 4.5 7.22064 4.65804 6.93934 4.93934C6.65804 5.22064 6.5 5.60218 6.5 6C6.5 6.39782 6.65804 6.77936 6.93934 7.06066C7.22064 7.34196 7.60218 7.5 8 7.5Z" fill="black"/>
</svg>
