<svg width="16" height="18" viewBox="0 0 16 18" fill="none" xmlns="http://www.w3.org/2000/svg">
<path d="M9.692 15.558L8 17.25L6.308 15.558C2.9825 14.79 0.5 11.808 0.5 8.25C0.5 4.11 3.86 0.75 8 0.75C12.14 0.75 15.5 4.11 15.5 8.25C15.5 11.808 13.0175 14.79 9.692 15.558ZM3.51725 10.812C4.61825 12.4545 6.27125 13.5 8.12 13.5C9.968 13.5 11.6217 12.4553 12.722 10.812C11.4738 9.64545 9.82846 8.99761 8.12 9C6.41128 8.99742 4.76563 9.64527 3.51725 10.812V10.812ZM8 7.5C8.59674 7.5 9.16903 7.26295 9.59099 6.84099C10.0129 6.41903 10.25 5.84674 10.25 5.25C10.25 4.65326 10.0129 4.08097 9.59099 3.65901C9.16903 3.23705 8.59674 3 8 3C7.40326 3 6.83097 3.23705 6.40901 3.65901C5.98705 4.08097 5.75 4.65326 5.75 5.25C5.75 5.84674 5.98705 6.41903 6.40901 6.84099C6.83097 7.26295 7.40326 7.5 8 7.5V7.5Z" fill="black"/>
</svg>
