<svg width="19" height="18" viewBox="0 0 19 18" fill="none" xmlns="http://www.w3.org/2000/svg">
<path d="M17.475 0.900391C17.7137 0.900391 17.9426 0.995212 18.1114 1.16399C18.2802 1.33278 18.375 1.5617 18.375 1.80039V6.75039C17.7783 6.75039 17.206 6.98744 16.784 7.4094C16.3621 7.83136 16.125 8.40365 16.125 9.00039C16.125 9.59713 16.3621 10.1694 16.784 10.5914C17.206 11.0133 17.7783 11.2504 18.375 11.2504V16.2004C18.375 16.4391 18.2802 16.668 18.1114 16.8368C17.9426 17.0056 17.7137 17.1004 17.475 17.1004H1.275C1.03631 17.1004 0.807387 17.0056 0.638604 16.8368C0.469821 16.668 0.375 16.4391 0.375 16.2004V11.2504C0.971737 11.2504 1.54403 11.0133 1.96599 10.5914C2.38795 10.1694 2.625 9.59713 2.625 9.00039C2.625 8.40365 2.38795 7.83136 1.96599 7.4094C1.54403 6.98744 0.971737 6.75039 0.375 6.75039V1.80039C0.375 1.5617 0.469821 1.33278 0.638604 1.16399C0.807387 0.995212 1.03631 0.900391 1.275 0.900391H17.475ZM12.975 6.30039H5.775V11.7004H12.975V6.30039Z" fill="#7D52F4"/>
</svg>
