<svg width="19" height="18" viewBox="0 0 19 18" fill="none" xmlns="http://www.w3.org/2000/svg">
<path d="M17.475 0.900391C17.7137 0.900391 17.9426 0.995212 18.1114 1.16399C18.2802 1.33278 18.375 1.5617 18.375 1.80039V6.75039C17.7783 6.75039 17.206 6.98744 16.784 7.4094C16.3621 7.83136 16.125 8.40365 16.125 9.00039C16.125 9.59713 16.3621 10.1694 16.784 10.5914C17.206 11.0133 17.7783 11.2504 18.375 11.2504V16.2004C18.375 16.4391 18.2802 16.668 18.1114 16.8368C17.9426 17.0056 17.7137 17.1004 17.475 17.1004H1.275C1.03631 17.1004 0.807387 17.0056 0.638604 16.8368C0.469821 16.668 0.375 16.4391 0.375 16.2004V11.2504C0.971737 11.2504 1.54403 11.0133 1.96599 10.5914C2.38795 10.1694 2.625 9.59713 2.625 9.00039C2.625 8.40365 2.38795 7.83136 1.96599 7.4094C1.54403 6.98744 0.971737 6.75039 0.375 6.75039V1.80039C0.375 1.5617 0.469821 1.33278 0.638604 1.16399C0.807387 0.995212 1.03631 0.900391 1.275 0.900391H17.475ZM16.575 2.70039H2.175V5.37159L2.3154 5.44449C2.92589 5.77753 3.44033 6.26216 3.80919 6.8517C4.17805 7.44124 4.38889 8.11583 4.4214 8.81049L4.425 9.00039C4.42511 9.72781 4.22927 10.4418 3.85805 11.0674C3.48682 11.693 2.95394 12.207 2.3154 12.5554L2.175 12.6292V15.3004H16.575V12.6283L16.4346 12.5563C15.8241 12.2232 15.3097 11.7386 14.9408 11.1491C14.572 10.5595 14.3611 9.88495 14.3286 9.19029L14.325 9.00039C14.325 7.46679 15.1773 6.13209 16.4346 5.44539L16.575 5.37069V2.70039ZM12.975 6.30039V11.7004H5.775V6.30039H12.975Z" fill="#525866"/>
</svg>
