<svg width="13" height="12" viewBox="0 0 13 12" fill="none" xmlns="http://www.w3.org/2000/svg">
<path d="M0.5 1C0.5 0.654825 0.779825 0.375 1.125 0.375H12.375C12.7202 0.375 13 0.654825 13 1V11C13 11.3452 12.7202 11.625 12.375 11.625H1.125C0.779825 11.625 0.5 11.3452 0.5 11V1ZM1.75 1.625V10.375H11.75V1.625H1.75ZM3 2.875H4.25V4.125H3V2.875ZM4.25 5.375H3V6.625H4.25V5.375ZM3 7.875H4.25V9.125H3V7.875ZM10.5 2.875H5.5V4.125H10.5V2.875ZM5.5 7.875H10.5V9.125H5.5V7.875ZM10.5 5.375H5.5V6.625H10.5V5.375Z" fill="#A897FF"/>
</svg>
