<svg width="14" height="17" viewBox="0 0 14 17" fill="none" xmlns="http://www.w3.org/2000/svg">
<path d="M7 16.7959L2.227 12.0229C1.28301 11.0789 0.64014 9.8762 0.379696 8.56683C0.119253 7.25746 0.25293 5.90026 0.763824 4.66687C1.27472 3.43347 2.13988 2.37927 3.24991 1.63757C4.35994 0.895878 5.66498 0.5 7 0.5C8.33502 0.5 9.64006 0.895878 10.7501 1.63757C11.8601 2.37927 12.7253 3.43347 13.2362 4.66687C13.7471 5.90026 13.8808 7.25746 13.6203 8.56683C13.3599 9.8762 12.717 11.0789 11.773 12.0229L7 16.7959ZM10.7125 10.9624C11.4467 10.2282 11.9466 9.29273 12.1492 8.27435C12.3517 7.25596 12.2477 6.20039 11.8503 5.24111C11.4529 4.28183 10.78 3.46192 9.91669 2.88507C9.05334 2.30821 8.03833 2.00032 7 2.00032C5.96167 2.00032 4.94666 2.30821 4.08331 2.88507C3.21997 3.46192 2.54706 4.28183 2.14969 5.24111C1.75231 6.20039 1.64831 7.25596 1.85084 8.27435C2.05337 9.29273 2.55333 10.2282 3.2875 10.9624L7 14.6749L10.7125 10.9624ZM7 8.74994C6.60218 8.74994 6.22065 8.59191 5.93934 8.3106C5.65804 8.0293 5.5 7.64777 5.5 7.24994C5.5 6.85212 5.65804 6.47059 5.93934 6.18928C6.22065 5.90798 6.60218 5.74994 7 5.74994C7.39783 5.74994 7.77936 5.90798 8.06066 6.18928C8.34197 6.47059 8.5 6.85212 8.5 7.24994C8.5 7.64777 8.34197 8.0293 8.06066 8.3106C7.77936 8.59191 7.39783 8.74994 7 8.74994Z" fill="black"/>
</svg>
