<svg width="14" height="17" viewBox="0 0 14 17" fill="none" xmlns="http://www.w3.org/2000/svg">
<path d="M11.773 12.0229L7 16.7959L2.227 12.0229C1.28301 11.0789 0.64014 9.8762 0.379696 8.56683C0.119253 7.25746 0.25293 5.90026 0.763824 4.66687C1.27472 3.43347 2.13988 2.37927 3.24991 1.63757C4.35994 0.895878 5.66498 0.5 7 0.5C8.33502 0.5 9.64006 0.895878 10.7501 1.63757C11.8601 2.37927 12.7253 3.43347 13.2362 4.66687C13.7471 5.90026 13.8808 7.25746 13.6203 8.56683C13.3599 9.8762 12.717 11.0789 11.773 12.0229ZM7 8.74994C7.39783 8.74994 7.77936 8.59191 8.06066 8.3106C8.34197 8.0293 8.5 7.64777 8.5 7.24994C8.5 6.85212 8.34197 6.47059 8.06066 6.18928C7.77936 5.90798 7.39783 5.74994 7 5.74994C6.60218 5.74994 6.22065 5.90798 5.93934 6.18928C5.65804 6.47059 5.5 6.85212 5.5 7.24994C5.5 7.64777 5.65804 8.0293 5.93934 8.3106C6.22065 8.59191 6.60218 8.74994 7 8.74994Z" fill="black"/>
</svg>
