<svg width="22" height="22" viewBox="0 0 22 22" fill="none" xmlns="http://www.w3.org/2000/svg">
<path d="M15.8001 17.0012V15.8012H12.2001V12.2012H15.8001V14.6012H18.2001V17.0012H17.0001V19.4012H14.6001V21.8012H12.2001V18.2012H14.6001V17.0012H15.8001ZM21.8001 21.8012H17.0001V19.4012H19.4001V17.0012H21.8001V21.8012ZM0.200073 0.201172H9.80007V9.80117H0.200073V0.201172ZM2.60007 2.60117V7.40117H7.40007V2.60117H2.60007ZM12.2001 0.201172H21.8001V9.80117H12.2001V0.201172ZM14.6001 2.60117V7.40117H19.4001V2.60117H14.6001ZM0.200073 12.2012H9.80007V21.8012H0.200073V12.2012ZM2.60007 14.6012V19.4012H7.40007V14.6012H2.60007ZM18.2001 12.2012H21.8001V14.6012H18.2001V12.2012ZM3.80007 3.80117H6.20007V6.20117H3.80007V3.80117ZM3.80007 15.8012H6.20007V18.2012H3.80007V15.8012ZM15.8001 3.80117H18.2001V6.20117H15.8001V3.80117Z" fill="#181B25"/>
</svg>
