<svg width="16" height="14" viewBox="0 0 16 14" fill="none" xmlns="http://www.w3.org/2000/svg">
<path d="M6.272 7.75H4.54946C4.2279 8.6245 3.36078 9.25 2.34146 9.25C1.0482 9.25 0 8.24275 0 7C0 5.75725 1.0482 4.75 2.34146 4.75C3.36078 4.75 4.22868 5.37625 4.55024 6.25H6.272L8.97561 1.75H11.4498C11.7713 0.87625 12.6392 0.25 13.6585 0.25C14.9518 0.25 16 1.25725 16 2.5C16 3.74275 14.9518 4.75 13.6585 4.75C12.6392 4.75 11.7721 4.1245 11.4505 3.25H9.87629L7.6238 6.99925L9.87707 10.75H11.4505C11.7713 9.87625 12.6392 9.25 13.6585 9.25C14.9518 9.25 16 10.2573 16 11.5C16 12.7428 14.9518 13.75 13.6585 13.75C12.6392 13.75 11.7721 13.1245 11.4505 12.25H8.97561L6.272 7.75ZM13.6585 10.75C13.2277 10.75 12.878 11.086 12.878 11.5C12.878 11.914 13.2277 12.25 13.6585 12.25C14.0894 12.25 14.439 11.914 14.439 11.5C14.439 11.086 14.0894 10.75 13.6585 10.75ZM2.34146 6.25C1.91063 6.25 1.56098 6.586 1.56098 7C1.56098 7.414 1.91063 7.75 2.34146 7.75C2.77229 7.75 3.12195 7.414 3.12195 7C3.12195 6.586 2.77229 6.25 2.34146 6.25ZM13.6585 1.75C13.2277 1.75 12.878 2.086 12.878 2.5C12.878 2.914 13.2277 3.25 13.6585 3.25C14.0894 3.25 14.439 2.914 14.439 2.5C14.439 2.086 14.0894 1.75 13.6585 1.75Z" fill="black"/>
</svg>
