<svg width="16" height="15" viewBox="0 0 16 15" fill="none" xmlns="http://www.w3.org/2000/svg">
<path d="M5.90005 0.0136719C8.7473 0.0136719 11.0982 2.13861 11.4536 4.88913L13.029 7.36626C13.1327 7.52936 13.1118 7.77296 12.8716 7.87586L11.5 8.46337V10.5137C11.5 11.2869 10.8733 11.9137 10.1 11.9137H8.70075L8.70005 14.0137H2.40005L2.40022 11.4279C2.40028 10.6013 2.09451 9.81976 1.5289 9.11444C0.759998 8.15558 0.300049 6.93835 0.300049 5.61367C0.300049 2.52088 2.80725 0.0136719 5.90005 0.0136719ZM14.4075 11.2854L13.2426 10.5087C13.9106 9.50861 14.3 8.30664 14.3 7.01374C14.3 5.72077 13.9106 4.5188 13.2426 3.51873L14.4075 2.74207C15.224 3.96437 15.7 5.43345 15.7 7.01374C15.7 8.59399 15.224 10.063 14.4075 11.2854Z" fill="black"/>
</svg>
