<svg width="16" height="15" viewBox="0 0 16 15" fill="none" xmlns="http://www.w3.org/2000/svg">
<path d="M11.4536 4.88913C11.0982 2.13861 8.7473 0.0136719 5.90005 0.0136719C2.80725 0.0136719 0.300049 2.52088 0.300049 5.61367C0.300049 6.93835 0.759998 8.15558 1.5289 9.11444C2.09451 9.81976 2.40028 10.6013 2.40022 11.4279L2.40005 14.0137H8.70005L8.70075 11.9137H10.1C10.8733 11.9137 11.5 11.2869 11.5 10.5137V8.46337L12.8716 7.87586C13.1118 7.77296 13.1327 7.52936 13.029 7.36626L11.4536 4.88913ZM1.70005 5.61367C1.70005 3.29407 3.58045 1.41367 5.90005 1.41367C8.01706 1.41367 9.7966 2.98966 10.0651 5.0685L10.1051 5.37751L11.1848 7.07534L10.1 7.54V10.5137H7.30124L7.30054 12.6137H3.80014L3.80022 11.4281C3.8003 10.2807 3.3868 9.19347 2.62109 8.2386C2.02777 7.4987 1.70005 6.5831 1.70005 5.61367ZM14.4075 11.2854L13.2426 10.5087C13.9106 9.50861 14.3 8.30664 14.3 7.01374C14.3 5.72077 13.9106 4.5188 13.2426 3.51873L14.4075 2.74207C15.224 3.96437 15.7 5.43345 15.7 7.01374C15.7 8.59399 15.224 10.063 14.4075 11.2854Z" fill="black"/>
</svg>
