<svg viewBox="0 0 31 31" fill="none" xmlns="http://www.w3.org/2000/svg">
<path d="M25.9 12.19V13.71H27.43V22.86H25.9V24.38H28.95V13.71H30.48V9.14H28.95V12.19H25.9Z" fill="url(#paint0_linear_1620_1097)"/>
<path d="M28.95 1.52H27.43V6.1H28.95V1.52Z" fill="url(#paint1_linear_1620_1097)"/>
<path d="M1.52 7.62V9.14H4.57V7.62H9.14V9.14H4.57V10.67H6.1V13.71H4.57V15.24H6.1V24.38H4.57V25.91H7.62V27.43H10.67V18.29H13.71V16.76H10.67V13.71H13.71V12.19H10.67V10.67H19.81V12.19H16.76V13.71H19.81V16.76H16.76V18.29H19.81V25.91H18.29V27.43H16.76V28.95H19.81V27.43H22.86V25.91H25.9V24.38H24.38V15.24H25.9V13.71H24.38V10.67H25.9V9.14H21.33V7.62H25.9V9.14H28.95V7.62H27.43V6.1L25.9 6.1V3.05H22.86V4.57H19.81V6.1H18.29V3.05H16.76V6.1H13.71V3.05H12.19V7.62H10.67V4.57H7.62V3.05H4.57V6.1H3.05V7.62H1.52ZM13.71 7.62H16.76V9.14H13.71V7.62Z" fill="url(#paint2_linear_1620_1097)"/>
<path d="M27.43 0H21.33V1.52H27.43V0Z" fill="url(#paint3_linear_1620_1097)"/>
<path d="M21.33 1.52H18.29V3.05H21.33V1.52Z" fill="url(#paint4_linear_1620_1097)"/>
<path d="M16.76 1.52H13.71L13.71 3.05H16.76V1.52Z" fill="url(#paint5_linear_1620_1097)"/>
<path d="M16.76 28.95H13.71V30.48H16.76V28.95Z" fill="url(#paint6_linear_1620_1097)"/>
<path d="M16.76 18.29H13.71L13.71 19.81H16.76V18.29Z" fill="url(#paint7_linear_1620_1097)"/>
<path d="M16.76 13.71H13.71L13.71 15.24H16.76V13.71Z" fill="url(#paint8_linear_1620_1097)"/>
<path d="M13.71 27.43H10.67V28.95H13.71V27.43Z" fill="url(#paint9_linear_1620_1097)"/>
<path d="M12.19 1.52H9.14V3.05H12.19L12.19 1.52Z" fill="url(#paint10_linear_1620_1097)"/>
<path d="M9.14 0H3.05V1.52H9.14V0Z" fill="url(#paint11_linear_1620_1097)"/>
<path d="M3.05 22.86V13.71H4.57V12.19H1.52V9.14H0V13.71H1.52V24.38H4.57V22.86H3.05Z" fill="url(#paint12_linear_1620_1097)"/>
<path d="M3.05 1.52H1.52V6.1L3.05 6.1V1.52Z" fill="url(#paint13_linear_1620_1097)"/>
<defs>
<linearGradient id="paint0_linear_1620_1097" x1="4.5684" y1="3.33375" x2="28.9545" y2="30.2675" gradientUnits="userSpaceOnUse">
<stop stop-color="#F6B613"/>
<stop offset="0.330638" stop-color="#FF85A6"/>
<stop offset="0.65175" stop-color="#9894FF"/>
<stop offset="1" stop-color="#8855CC"/>
</linearGradient>
<linearGradient id="paint1_linear_1620_1097" x1="4.5684" y1="3.33375" x2="28.9545" y2="30.2675" gradientUnits="userSpaceOnUse">
<stop stop-color="#F6B613"/>
<stop offset="0.330638" stop-color="#FF85A6"/>
<stop offset="0.65175" stop-color="#9894FF"/>
<stop offset="1" stop-color="#8855CC"/>
</linearGradient>
<linearGradient id="paint2_linear_1620_1097" x1="4.5684" y1="3.33375" x2="28.9545" y2="30.2675" gradientUnits="userSpaceOnUse">
<stop stop-color="#F6B613"/>
<stop offset="0.330638" stop-color="#FF85A6"/>
<stop offset="0.65175" stop-color="#9894FF"/>
<stop offset="1" stop-color="#8855CC"/>
</linearGradient>
<linearGradient id="paint3_linear_1620_1097" x1="4.5684" y1="3.33375" x2="28.9545" y2="30.2675" gradientUnits="userSpaceOnUse">
<stop stop-color="#F6B613"/>
<stop offset="0.330638" stop-color="#FF85A6"/>
<stop offset="0.65175" stop-color="#9894FF"/>
<stop offset="1" stop-color="#8855CC"/>
</linearGradient>
<linearGradient id="paint4_linear_1620_1097" x1="4.5684" y1="3.33375" x2="28.9545" y2="30.2675" gradientUnits="userSpaceOnUse">
<stop stop-color="#F6B613"/>
<stop offset="0.330638" stop-color="#FF85A6"/>
<stop offset="0.65175" stop-color="#9894FF"/>
<stop offset="1" stop-color="#8855CC"/>
</linearGradient>
<linearGradient id="paint5_linear_1620_1097" x1="4.5684" y1="3.33375" x2="28.9545" y2="30.2675" gradientUnits="userSpaceOnUse">
<stop stop-color="#F6B613"/>
<stop offset="0.330638" stop-color="#FF85A6"/>
<stop offset="0.65175" stop-color="#9894FF"/>
<stop offset="1" stop-color="#8855CC"/>
</linearGradient>
<linearGradient id="paint6_linear_1620_1097" x1="4.5684" y1="3.33375" x2="28.9545" y2="30.2675" gradientUnits="userSpaceOnUse">
<stop stop-color="#F6B613"/>
<stop offset="0.330638" stop-color="#FF85A6"/>
<stop offset="0.65175" stop-color="#9894FF"/>
<stop offset="1" stop-color="#8855CC"/>
</linearGradient>
<linearGradient id="paint7_linear_1620_1097" x1="4.5684" y1="3.33375" x2="28.9545" y2="30.2675" gradientUnits="userSpaceOnUse">
<stop stop-color="#F6B613"/>
<stop offset="0.330638" stop-color="#FF85A6"/>
<stop offset="0.65175" stop-color="#9894FF"/>
<stop offset="1" stop-color="#8855CC"/>
</linearGradient>
<linearGradient id="paint8_linear_1620_1097" x1="4.5684" y1="3.33375" x2="28.9545" y2="30.2675" gradientUnits="userSpaceOnUse">
<stop stop-color="#F6B613"/>
<stop offset="0.330638" stop-color="#FF85A6"/>
<stop offset="0.65175" stop-color="#9894FF"/>
<stop offset="1" stop-color="#8855CC"/>
</linearGradient>
<linearGradient id="paint9_linear_1620_1097" x1="4.5684" y1="3.33375" x2="28.9545" y2="30.2675" gradientUnits="userSpaceOnUse">
<stop stop-color="#F6B613"/>
<stop offset="0.330638" stop-color="#FF85A6"/>
<stop offset="0.65175" stop-color="#9894FF"/>
<stop offset="1" stop-color="#8855CC"/>
</linearGradient>
<linearGradient id="paint10_linear_1620_1097" x1="4.5684" y1="3.33375" x2="28.9545" y2="30.2675" gradientUnits="userSpaceOnUse">
<stop stop-color="#F6B613"/>
<stop offset="0.330638" stop-color="#FF85A6"/>
<stop offset="0.65175" stop-color="#9894FF"/>
<stop offset="1" stop-color="#8855CC"/>
</linearGradient>
<linearGradient id="paint11_linear_1620_1097" x1="4.5684" y1="3.33375" x2="28.9545" y2="30.2675" gradientUnits="userSpaceOnUse">
<stop stop-color="#F6B613"/>
<stop offset="0.330638" stop-color="#FF85A6"/>
<stop offset="0.65175" stop-color="#9894FF"/>
<stop offset="1" stop-color="#8855CC"/>
</linearGradient>
<linearGradient id="paint12_linear_1620_1097" x1="4.5684" y1="3.33375" x2="28.9545" y2="30.2675" gradientUnits="userSpaceOnUse">
<stop stop-color="#F6B613"/>
<stop offset="0.330638" stop-color="#FF85A6"/>
<stop offset="0.65175" stop-color="#9894FF"/>
<stop offset="1" stop-color="#8855CC"/>
</linearGradient>
<linearGradient id="paint13_linear_1620_1097" x1="4.5684" y1="3.33375" x2="28.9545" y2="30.2675" gradientUnits="userSpaceOnUse">
<stop stop-color="#F6B613"/>
<stop offset="0.330638" stop-color="#FF85A6"/>
<stop offset="0.65175" stop-color="#9894FF"/>
<stop offset="1" stop-color="#8855CC"/>
</linearGradient>
</defs>
</svg>
