<svg viewBox="0 0 24 24" fill="none" xmlns="http://www.w3.org/2000/svg">
<g clip-path="url(#clip0_1439_65741)">
<path d="M22.2825 22.86H1.7175V24H22.2825V22.86Z" fill="url(#paint0_linear_1439_65741)"/>
<path d="M5.14476 4.5752H6.28539V2.28711H17.7151V4.5752H18.8547V2.28711H22.2825V3.42773H23.4299V22.8604H22.2825V6.85547H1.71703V22.8604H0.569569V3.42773H1.71703V2.28711H5.14476V4.5752ZM9.71215 18.2852H12.0002V19.4248H6.28539V18.2852H8.5725V13.7178H6.28539V12.5703H8.5725V11.4297H9.71215V18.2852ZM17.7151 12.5703H14.2873V14.8574H17.7151V19.4248H13.1399V18.2852H16.5676V15.9971H13.1399V11.4297H17.7151V12.5703ZM6.28539 0V2.28711H5.14476V0H6.28539ZM18.8547 2.28711H17.7151V0H18.8547V2.28711Z" fill="url(#paint1_linear_1439_65741)"/>
</g>
<defs>
<linearGradient id="paint0_linear_1439_65741" x1="4.79982" y1="22.9847" x2="4.8916" y2="24.8132" gradientUnits="userSpaceOnUse">
<stop stop-color="#F6B613"/>
<stop offset="0.330638" stop-color="#FF85A6"/>
<stop offset="0.65175" stop-color="#9894FF"/>
<stop offset="1" stop-color="#8855CC"/>
</linearGradient>
<linearGradient id="paint1_linear_1439_65741" x1="3.99592" y1="2.50035" x2="22.2858" y2="22.701" gradientUnits="userSpaceOnUse">
<stop stop-color="#F6B613"/>
<stop offset="0.330638" stop-color="#FF85A6"/>
<stop offset="0.65175" stop-color="#9894FF"/>
<stop offset="1" stop-color="#8855CC"/>
</linearGradient>
<clipPath id="clip0_1439_65741">
<rect width="24" height="24" fill="white"/>
</clipPath>
</defs>
</svg>
