<svg viewBox="0 0 24 24" fill="none" xmlns="http://www.w3.org/2000/svg">
<path d="M24 18.285H22.8525V22.86H24V18.285Z" fill="url(#paint0_linear_1680_8144)"/>
<path d="M24 9.1425H22.8525V13.7175H24V9.1425Z" fill="url(#paint1_linear_1680_8144)"/>
<path d="M22.8525 17.145H21.7125V18.285H22.8525L22.8525 17.145Z" fill="url(#paint2_linear_1680_8144)"/>
<path d="M22.8525 13.7175H21.7125V14.8575H22.8525L22.8525 13.7175Z" fill="url(#paint3_linear_1680_8144)"/>
<path d="M18.285 22.86V19.425H17.1375V22.86H1.14V24H22.8525V22.86L18.285 22.86Z" fill="url(#paint4_linear_1680_8144)"/>
<path d="M21.7125 14.8575H20.565V17.145H21.7125V14.8575Z" fill="url(#paint5_linear_1680_8144)"/>
<path d="M20.565 2.2875H19.425V4.575H20.565V2.2875Z" fill="url(#paint6_linear_1680_8144)"/>
<path d="M19.425 4.575H18.285V6.855H19.425V4.575Z" fill="url(#paint7_linear_1680_8144)"/>
<path d="M19.425 1.14H18.285V2.2875H19.425V1.14Z" fill="url(#paint8_linear_1680_8144)"/>
<path d="M18.285 14.8575H17.1375V17.145H18.285V14.8575Z" fill="url(#paint9_linear_1680_8144)"/>
<path d="M18.285 0H15.9975V1.14H18.285V0Z" fill="url(#paint10_linear_1680_8144)"/>
<path d="M15.9975 1.14H13.71V2.2875H15.9975L15.9975 1.14Z" fill="url(#paint11_linear_1680_8144)"/>
<path d="M14.85 12.57H5.7075V13.7175H10.2825V14.8575H9.1425V15.9975H7.995V17.145H6.855V18.285H5.7075V19.425H14.85V18.285H15.9975V13.7175H14.85V12.57Z" fill="url(#paint12_linear_1680_8144)"/>
<path d="M14.85 4.575H13.71V6.855H14.85V4.575Z" fill="url(#paint13_linear_1680_8144)"/>
<path d="M12.57 4.575H13.71V2.2875H11.4225V3.4275H12.57V4.575Z" fill="url(#paint14_linear_1680_8144)"/>
<path d="M11.4225 3.4275L9.1425 3.4275V4.575H11.4225V3.4275Z" fill="url(#paint15_linear_1680_8144)"/>
<path d="M9.1425 4.575H6.855V5.715H9.1425V4.575Z" fill="url(#paint16_linear_1680_8144)"/>
<path d="M6.855 5.715L4.5675 5.715V6.855H6.855V5.715Z" fill="url(#paint17_linear_1680_8144)"/>
<path d="M5.7075 13.7175H4.5675V18.285H5.7075V13.7175Z" fill="url(#paint18_linear_1680_8144)"/>
<path d="M3.4275 14.8575H2.28V17.145H3.4275V14.8575Z" fill="url(#paint19_linear_1680_8144)"/>
<path d="M17.1375 9.1425V12.57H18.285V9.1425H22.8525V8.0025H20.565V6.855L19.425 6.855V8.0025H15.9975V6.855L14.85 6.855L14.85 8.0025H12.57V5.715H10.2825V6.855H7.995V8.0025H4.5675V6.855H2.28V8.0025H1.14V9.1425H17.1375Z" fill="url(#paint20_linear_1680_8144)"/>
<path d="M2.28 17.145H1.14V18.285H2.28V17.145Z" fill="url(#paint21_linear_1680_8144)"/>
<path d="M2.28 13.7175H1.14V14.8575H2.28V13.7175Z" fill="url(#paint22_linear_1680_8144)"/>
<path d="M1.14 18.285H0V22.86L1.14 22.86V18.285Z" fill="url(#paint23_linear_1680_8144)"/>
<path d="M1.14 9.1425H0V13.7175H1.14V9.1425Z" fill="url(#paint24_linear_1680_8144)"/>
<defs>
<linearGradient id="paint0_linear_1680_8144" x1="3.59717" y1="2.625" x2="22.7988" y2="23.8327" gradientUnits="userSpaceOnUse">
<stop stop-color="#F6B613"/>
<stop offset="0.330638" stop-color="#FF85A6"/>
<stop offset="0.65175" stop-color="#9894FF"/>
<stop offset="1" stop-color="#8855CC"/>
</linearGradient>
<linearGradient id="paint1_linear_1680_8144" x1="3.59717" y1="2.625" x2="22.7988" y2="23.8327" gradientUnits="userSpaceOnUse">
<stop stop-color="#F6B613"/>
<stop offset="0.330638" stop-color="#FF85A6"/>
<stop offset="0.65175" stop-color="#9894FF"/>
<stop offset="1" stop-color="#8855CC"/>
</linearGradient>
<linearGradient id="paint2_linear_1680_8144" x1="3.59717" y1="2.625" x2="22.7988" y2="23.8327" gradientUnits="userSpaceOnUse">
<stop stop-color="#F6B613"/>
<stop offset="0.330638" stop-color="#FF85A6"/>
<stop offset="0.65175" stop-color="#9894FF"/>
<stop offset="1" stop-color="#8855CC"/>
</linearGradient>
<linearGradient id="paint3_linear_1680_8144" x1="3.59717" y1="2.625" x2="22.7988" y2="23.8327" gradientUnits="userSpaceOnUse">
<stop stop-color="#F6B613"/>
<stop offset="0.330638" stop-color="#FF85A6"/>
<stop offset="0.65175" stop-color="#9894FF"/>
<stop offset="1" stop-color="#8855CC"/>
</linearGradient>
<linearGradient id="paint4_linear_1680_8144" x1="3.59717" y1="2.625" x2="22.7988" y2="23.8327" gradientUnits="userSpaceOnUse">
<stop stop-color="#F6B613"/>
<stop offset="0.330638" stop-color="#FF85A6"/>
<stop offset="0.65175" stop-color="#9894FF"/>
<stop offset="1" stop-color="#8855CC"/>
</linearGradient>
<linearGradient id="paint5_linear_1680_8144" x1="3.59717" y1="2.625" x2="22.7988" y2="23.8327" gradientUnits="userSpaceOnUse">
<stop stop-color="#F6B613"/>
<stop offset="0.330638" stop-color="#FF85A6"/>
<stop offset="0.65175" stop-color="#9894FF"/>
<stop offset="1" stop-color="#8855CC"/>
</linearGradient>
<linearGradient id="paint6_linear_1680_8144" x1="3.59717" y1="2.625" x2="22.7988" y2="23.8327" gradientUnits="userSpaceOnUse">
<stop stop-color="#F6B613"/>
<stop offset="0.330638" stop-color="#FF85A6"/>
<stop offset="0.65175" stop-color="#9894FF"/>
<stop offset="1" stop-color="#8855CC"/>
</linearGradient>
<linearGradient id="paint7_linear_1680_8144" x1="3.59717" y1="2.625" x2="22.7988" y2="23.8327" gradientUnits="userSpaceOnUse">
<stop stop-color="#F6B613"/>
<stop offset="0.330638" stop-color="#FF85A6"/>
<stop offset="0.65175" stop-color="#9894FF"/>
<stop offset="1" stop-color="#8855CC"/>
</linearGradient>
<linearGradient id="paint8_linear_1680_8144" x1="3.59717" y1="2.625" x2="22.7988" y2="23.8327" gradientUnits="userSpaceOnUse">
<stop stop-color="#F6B613"/>
<stop offset="0.330638" stop-color="#FF85A6"/>
<stop offset="0.65175" stop-color="#9894FF"/>
<stop offset="1" stop-color="#8855CC"/>
</linearGradient>
<linearGradient id="paint9_linear_1680_8144" x1="3.59717" y1="2.625" x2="22.7988" y2="23.8327" gradientUnits="userSpaceOnUse">
<stop stop-color="#F6B613"/>
<stop offset="0.330638" stop-color="#FF85A6"/>
<stop offset="0.65175" stop-color="#9894FF"/>
<stop offset="1" stop-color="#8855CC"/>
</linearGradient>
<linearGradient id="paint10_linear_1680_8144" x1="3.59717" y1="2.625" x2="22.7988" y2="23.8327" gradientUnits="userSpaceOnUse">
<stop stop-color="#F6B613"/>
<stop offset="0.330638" stop-color="#FF85A6"/>
<stop offset="0.65175" stop-color="#9894FF"/>
<stop offset="1" stop-color="#8855CC"/>
</linearGradient>
<linearGradient id="paint11_linear_1680_8144" x1="3.59717" y1="2.625" x2="22.7988" y2="23.8327" gradientUnits="userSpaceOnUse">
<stop stop-color="#F6B613"/>
<stop offset="0.330638" stop-color="#FF85A6"/>
<stop offset="0.65175" stop-color="#9894FF"/>
<stop offset="1" stop-color="#8855CC"/>
</linearGradient>
<linearGradient id="paint12_linear_1680_8144" x1="3.59717" y1="2.625" x2="22.7988" y2="23.8327" gradientUnits="userSpaceOnUse">
<stop stop-color="#F6B613"/>
<stop offset="0.330638" stop-color="#FF85A6"/>
<stop offset="0.65175" stop-color="#9894FF"/>
<stop offset="1" stop-color="#8855CC"/>
</linearGradient>
<linearGradient id="paint13_linear_1680_8144" x1="3.59717" y1="2.625" x2="22.7988" y2="23.8327" gradientUnits="userSpaceOnUse">
<stop stop-color="#F6B613"/>
<stop offset="0.330638" stop-color="#FF85A6"/>
<stop offset="0.65175" stop-color="#9894FF"/>
<stop offset="1" stop-color="#8855CC"/>
</linearGradient>
<linearGradient id="paint14_linear_1680_8144" x1="3.59717" y1="2.625" x2="22.7988" y2="23.8327" gradientUnits="userSpaceOnUse">
<stop stop-color="#F6B613"/>
<stop offset="0.330638" stop-color="#FF85A6"/>
<stop offset="0.65175" stop-color="#9894FF"/>
<stop offset="1" stop-color="#8855CC"/>
</linearGradient>
<linearGradient id="paint15_linear_1680_8144" x1="3.59717" y1="2.625" x2="22.7988" y2="23.8327" gradientUnits="userSpaceOnUse">
<stop stop-color="#F6B613"/>
<stop offset="0.330638" stop-color="#FF85A6"/>
<stop offset="0.65175" stop-color="#9894FF"/>
<stop offset="1" stop-color="#8855CC"/>
</linearGradient>
<linearGradient id="paint16_linear_1680_8144" x1="3.59717" y1="2.625" x2="22.7988" y2="23.8327" gradientUnits="userSpaceOnUse">
<stop stop-color="#F6B613"/>
<stop offset="0.330638" stop-color="#FF85A6"/>
<stop offset="0.65175" stop-color="#9894FF"/>
<stop offset="1" stop-color="#8855CC"/>
</linearGradient>
<linearGradient id="paint17_linear_1680_8144" x1="3.59717" y1="2.625" x2="22.7988" y2="23.8327" gradientUnits="userSpaceOnUse">
<stop stop-color="#F6B613"/>
<stop offset="0.330638" stop-color="#FF85A6"/>
<stop offset="0.65175" stop-color="#9894FF"/>
<stop offset="1" stop-color="#8855CC"/>
</linearGradient>
<linearGradient id="paint18_linear_1680_8144" x1="3.59717" y1="2.625" x2="22.7988" y2="23.8327" gradientUnits="userSpaceOnUse">
<stop stop-color="#F6B613"/>
<stop offset="0.330638" stop-color="#FF85A6"/>
<stop offset="0.65175" stop-color="#9894FF"/>
<stop offset="1" stop-color="#8855CC"/>
</linearGradient>
<linearGradient id="paint19_linear_1680_8144" x1="3.59717" y1="2.625" x2="22.7988" y2="23.8327" gradientUnits="userSpaceOnUse">
<stop stop-color="#F6B613"/>
<stop offset="0.330638" stop-color="#FF85A6"/>
<stop offset="0.65175" stop-color="#9894FF"/>
<stop offset="1" stop-color="#8855CC"/>
</linearGradient>
<linearGradient id="paint20_linear_1680_8144" x1="3.59717" y1="2.625" x2="22.7988" y2="23.8327" gradientUnits="userSpaceOnUse">
<stop stop-color="#F6B613"/>
<stop offset="0.330638" stop-color="#FF85A6"/>
<stop offset="0.65175" stop-color="#9894FF"/>
<stop offset="1" stop-color="#8855CC"/>
</linearGradient>
<linearGradient id="paint21_linear_1680_8144" x1="3.59717" y1="2.625" x2="22.7988" y2="23.8327" gradientUnits="userSpaceOnUse">
<stop stop-color="#F6B613"/>
<stop offset="0.330638" stop-color="#FF85A6"/>
<stop offset="0.65175" stop-color="#9894FF"/>
<stop offset="1" stop-color="#8855CC"/>
</linearGradient>
<linearGradient id="paint22_linear_1680_8144" x1="3.59717" y1="2.625" x2="22.7988" y2="23.8327" gradientUnits="userSpaceOnUse">
<stop stop-color="#F6B613"/>
<stop offset="0.330638" stop-color="#FF85A6"/>
<stop offset="0.65175" stop-color="#9894FF"/>
<stop offset="1" stop-color="#8855CC"/>
</linearGradient>
<linearGradient id="paint23_linear_1680_8144" x1="3.59717" y1="2.625" x2="22.7988" y2="23.8327" gradientUnits="userSpaceOnUse">
<stop stop-color="#F6B613"/>
<stop offset="0.330638" stop-color="#FF85A6"/>
<stop offset="0.65175" stop-color="#9894FF"/>
<stop offset="1" stop-color="#8855CC"/>
</linearGradient>
<linearGradient id="paint24_linear_1680_8144" x1="3.59717" y1="2.625" x2="22.7988" y2="23.8327" gradientUnits="userSpaceOnUse">
<stop stop-color="#F6B613"/>
<stop offset="0.330638" stop-color="#FF85A6"/>
<stop offset="0.65175" stop-color="#9894FF"/>
<stop offset="1" stop-color="#8855CC"/>
</linearGradient>
</defs>
</svg>
