<svg viewBox="0 0 23 32" fill="none" xmlns="http://www.w3.org/2000/svg">
<path d="M21.34 10.67H1.53V7.62H0V12.19H1.53V21.33H3.05V27.43H4.58V25.91H18.29V27.43H19.81V21.33H21.34V12.19H22.86V7.62H21.34V10.67ZM18.29 24.38H4.58V22.86H18.29V24.38ZM18.29 19.81H16.77V21.33H15.24V19.81H13.72V21.33H12.19V19.81H10.67V21.33H9.15V19.81H7.62V21.33H6.1V19.81H4.58V18.29H6.1V19.81H7.62V18.29H9.15V19.81H10.67V18.29H12.19V19.81H13.72V18.29H15.24V19.81H16.77V18.29H18.29V19.81ZM19.81 16.76H3.05V15.24H19.81V16.76ZM19.81 13.72H3.05V12.19H19.81V13.72Z" fill="url(#paint0_linear_1620_530)"/>
<path d="M19.81 0H15.24V1.52H19.81V0Z" fill="url(#paint1_linear_1620_530)"/>
<path d="M16.77 30.48H6.1V27.43H4.58V32H18.29V27.43H16.77V30.48Z" fill="url(#paint2_linear_1620_530)"/>
<path d="M15.24 1.52H13.72V3.05H15.24V1.52Z" fill="url(#paint3_linear_1620_530)"/>
<path d="M13.72 3.05H3.05V4.57H13.72V3.05Z" fill="url(#paint4_linear_1620_530)"/>
<path d="M21.34 7.62V1.52H19.81L19.81 6.1H3.05V4.57H1.53V7.62H21.34Z" fill="url(#paint5_linear_1620_530)"/>
<defs>
<linearGradient id="paint0_linear_1620_530" x1="3.4263" y1="3.5" x2="28.4491" y2="23.2432" gradientUnits="userSpaceOnUse">
<stop stop-color="#F6B613"/>
<stop offset="0.330638" stop-color="#FF85A6"/>
<stop offset="0.65175" stop-color="#9894FF"/>
<stop offset="1" stop-color="#8855CC"/>
</linearGradient>
<linearGradient id="paint1_linear_1620_530" x1="3.4263" y1="3.5" x2="28.4491" y2="23.2432" gradientUnits="userSpaceOnUse">
<stop stop-color="#F6B613"/>
<stop offset="0.330638" stop-color="#FF85A6"/>
<stop offset="0.65175" stop-color="#9894FF"/>
<stop offset="1" stop-color="#8855CC"/>
</linearGradient>
<linearGradient id="paint2_linear_1620_530" x1="3.4263" y1="3.5" x2="28.4491" y2="23.2432" gradientUnits="userSpaceOnUse">
<stop stop-color="#F6B613"/>
<stop offset="0.330638" stop-color="#FF85A6"/>
<stop offset="0.65175" stop-color="#9894FF"/>
<stop offset="1" stop-color="#8855CC"/>
</linearGradient>
<linearGradient id="paint3_linear_1620_530" x1="3.4263" y1="3.5" x2="28.4491" y2="23.2432" gradientUnits="userSpaceOnUse">
<stop stop-color="#F6B613"/>
<stop offset="0.330638" stop-color="#FF85A6"/>
<stop offset="0.65175" stop-color="#9894FF"/>
<stop offset="1" stop-color="#8855CC"/>
</linearGradient>
<linearGradient id="paint4_linear_1620_530" x1="3.4263" y1="3.5" x2="28.4491" y2="23.2432" gradientUnits="userSpaceOnUse">
<stop stop-color="#F6B613"/>
<stop offset="0.330638" stop-color="#FF85A6"/>
<stop offset="0.65175" stop-color="#9894FF"/>
<stop offset="1" stop-color="#8855CC"/>
</linearGradient>
<linearGradient id="paint5_linear_1620_530" x1="3.4263" y1="3.5" x2="28.4491" y2="23.2432" gradientUnits="userSpaceOnUse">
<stop stop-color="#F6B613"/>
<stop offset="0.330638" stop-color="#FF85A6"/>
<stop offset="0.65175" stop-color="#9894FF"/>
<stop offset="1" stop-color="#8855CC"/>
</linearGradient>
</defs>
</svg>
