<svg viewBox="0 0 23 32" fill="none" xmlns="http://www.w3.org/2000/svg">
<path d="M21.33 10.67H19.8V3.05H18.28V16.76H4.57V3.05H3.04V10.67H1.525V9.14H0V21.33H1.525V12.19H3.045V19.81H4.575V21.33H6.095V22.86H9.145V24.38H4.57V25.9H9.14V27.43H3.04V28.95H19.8V27.43H13.71V25.9H18.28V24.38H13.71V22.86H16.76V21.33H18.28V19.81H19.8V12.19H21.33V21.33H22.85V9.14H21.33V10.67ZM12.19 27.43H10.66V22.86H12.19V27.43Z" fill="url(#paint0_linear_1620_514)"/>
<path d="M21.33 21.33H19.8V22.86H21.33L21.33 21.33Z" fill="url(#paint1_linear_1620_514)"/>
<path d="M3.04 30.48V28.95H1.52V30.48H0V32H22.85V30.48H21.33V28.95H19.8V30.48H3.04Z" fill="url(#paint2_linear_1620_514)"/>
<path d="M19.8 22.86H18.28V24.38H19.8V22.86Z" fill="url(#paint3_linear_1620_514)"/>
<path d="M18.28 1.52H16.76V3.05H18.28V1.52Z" fill="url(#paint4_linear_1620_514)"/>
<path d="M16.76 10.67H15.23V12.19H16.76V10.67Z" fill="url(#paint5_linear_1620_514)"/>
<path d="M16.76 4.57H15.23V6.1H16.76V4.57Z" fill="url(#paint6_linear_1620_514)"/>
<path d="M15.23 13.71H13.71V15.24H15.23V13.71Z" fill="url(#paint7_linear_1620_514)"/>
<path d="M15.23 7.62H13.71V9.14H15.23V7.62Z" fill="url(#paint8_linear_1620_514)"/>
<path d="M12.19 10.67H10.66V12.19H12.19V10.67Z" fill="url(#paint9_linear_1620_514)"/>
<path d="M12.19 4.57H10.66V6.1H12.19V4.57Z" fill="url(#paint10_linear_1620_514)"/>
<path d="M9.14 13.71H7.61V15.24H9.14V13.71Z" fill="url(#paint11_linear_1620_514)"/>
<path d="M9.14 7.62H7.61V9.14H9.14V7.62Z" fill="url(#paint12_linear_1620_514)"/>
<path d="M16.76 0H6.09V1.52H16.76V0Z" fill="url(#paint13_linear_1620_514)"/>
<path d="M7.61 10.67H6.09V12.19H7.61V10.67Z" fill="url(#paint14_linear_1620_514)"/>
<path d="M7.61 4.57H6.09V6.1H7.61V4.57Z" fill="url(#paint15_linear_1620_514)"/>
<path d="M6.09 1.52H4.57V3.05H6.09V1.52Z" fill="url(#paint16_linear_1620_514)"/>
<path d="M4.57 22.86H3.04V24.38H4.57V22.86Z" fill="url(#paint17_linear_1620_514)"/>
<path d="M3.04 21.33H1.52V22.86H3.04V21.33Z" fill="url(#paint18_linear_1620_514)"/>
<defs>
<linearGradient id="paint0_linear_1620_514" x1="3.4248" y1="3.5" x2="28.4451" y2="23.2325" gradientUnits="userSpaceOnUse">
<stop stop-color="#F6B613"/>
<stop offset="0.330638" stop-color="#FF85A6"/>
<stop offset="0.65175" stop-color="#9894FF"/>
<stop offset="1" stop-color="#8855CC"/>
</linearGradient>
<linearGradient id="paint1_linear_1620_514" x1="3.4248" y1="3.5" x2="28.4451" y2="23.2325" gradientUnits="userSpaceOnUse">
<stop stop-color="#F6B613"/>
<stop offset="0.330638" stop-color="#FF85A6"/>
<stop offset="0.65175" stop-color="#9894FF"/>
<stop offset="1" stop-color="#8855CC"/>
</linearGradient>
<linearGradient id="paint2_linear_1620_514" x1="3.4248" y1="3.5" x2="28.4451" y2="23.2325" gradientUnits="userSpaceOnUse">
<stop stop-color="#F6B613"/>
<stop offset="0.330638" stop-color="#FF85A6"/>
<stop offset="0.65175" stop-color="#9894FF"/>
<stop offset="1" stop-color="#8855CC"/>
</linearGradient>
<linearGradient id="paint3_linear_1620_514" x1="3.4248" y1="3.5" x2="28.4451" y2="23.2325" gradientUnits="userSpaceOnUse">
<stop stop-color="#F6B613"/>
<stop offset="0.330638" stop-color="#FF85A6"/>
<stop offset="0.65175" stop-color="#9894FF"/>
<stop offset="1" stop-color="#8855CC"/>
</linearGradient>
<linearGradient id="paint4_linear_1620_514" x1="3.4248" y1="3.5" x2="28.4451" y2="23.2325" gradientUnits="userSpaceOnUse">
<stop stop-color="#F6B613"/>
<stop offset="0.330638" stop-color="#FF85A6"/>
<stop offset="0.65175" stop-color="#9894FF"/>
<stop offset="1" stop-color="#8855CC"/>
</linearGradient>
<linearGradient id="paint5_linear_1620_514" x1="3.4248" y1="3.5" x2="28.4451" y2="23.2325" gradientUnits="userSpaceOnUse">
<stop stop-color="#F6B613"/>
<stop offset="0.330638" stop-color="#FF85A6"/>
<stop offset="0.65175" stop-color="#9894FF"/>
<stop offset="1" stop-color="#8855CC"/>
</linearGradient>
<linearGradient id="paint6_linear_1620_514" x1="3.4248" y1="3.5" x2="28.4451" y2="23.2325" gradientUnits="userSpaceOnUse">
<stop stop-color="#F6B613"/>
<stop offset="0.330638" stop-color="#FF85A6"/>
<stop offset="0.65175" stop-color="#9894FF"/>
<stop offset="1" stop-color="#8855CC"/>
</linearGradient>
<linearGradient id="paint7_linear_1620_514" x1="3.4248" y1="3.5" x2="28.4451" y2="23.2325" gradientUnits="userSpaceOnUse">
<stop stop-color="#F6B613"/>
<stop offset="0.330638" stop-color="#FF85A6"/>
<stop offset="0.65175" stop-color="#9894FF"/>
<stop offset="1" stop-color="#8855CC"/>
</linearGradient>
<linearGradient id="paint8_linear_1620_514" x1="3.4248" y1="3.5" x2="28.4451" y2="23.2325" gradientUnits="userSpaceOnUse">
<stop stop-color="#F6B613"/>
<stop offset="0.330638" stop-color="#FF85A6"/>
<stop offset="0.65175" stop-color="#9894FF"/>
<stop offset="1" stop-color="#8855CC"/>
</linearGradient>
<linearGradient id="paint9_linear_1620_514" x1="3.4248" y1="3.5" x2="28.4451" y2="23.2325" gradientUnits="userSpaceOnUse">
<stop stop-color="#F6B613"/>
<stop offset="0.330638" stop-color="#FF85A6"/>
<stop offset="0.65175" stop-color="#9894FF"/>
<stop offset="1" stop-color="#8855CC"/>
</linearGradient>
<linearGradient id="paint10_linear_1620_514" x1="3.4248" y1="3.5" x2="28.4451" y2="23.2325" gradientUnits="userSpaceOnUse">
<stop stop-color="#F6B613"/>
<stop offset="0.330638" stop-color="#FF85A6"/>
<stop offset="0.65175" stop-color="#9894FF"/>
<stop offset="1" stop-color="#8855CC"/>
</linearGradient>
<linearGradient id="paint11_linear_1620_514" x1="3.4248" y1="3.5" x2="28.4451" y2="23.2325" gradientUnits="userSpaceOnUse">
<stop stop-color="#F6B613"/>
<stop offset="0.330638" stop-color="#FF85A6"/>
<stop offset="0.65175" stop-color="#9894FF"/>
<stop offset="1" stop-color="#8855CC"/>
</linearGradient>
<linearGradient id="paint12_linear_1620_514" x1="3.4248" y1="3.5" x2="28.4451" y2="23.2325" gradientUnits="userSpaceOnUse">
<stop stop-color="#F6B613"/>
<stop offset="0.330638" stop-color="#FF85A6"/>
<stop offset="0.65175" stop-color="#9894FF"/>
<stop offset="1" stop-color="#8855CC"/>
</linearGradient>
<linearGradient id="paint13_linear_1620_514" x1="3.4248" y1="3.5" x2="28.4451" y2="23.2325" gradientUnits="userSpaceOnUse">
<stop stop-color="#F6B613"/>
<stop offset="0.330638" stop-color="#FF85A6"/>
<stop offset="0.65175" stop-color="#9894FF"/>
<stop offset="1" stop-color="#8855CC"/>
</linearGradient>
<linearGradient id="paint14_linear_1620_514" x1="3.4248" y1="3.5" x2="28.4451" y2="23.2325" gradientUnits="userSpaceOnUse">
<stop stop-color="#F6B613"/>
<stop offset="0.330638" stop-color="#FF85A6"/>
<stop offset="0.65175" stop-color="#9894FF"/>
<stop offset="1" stop-color="#8855CC"/>
</linearGradient>
<linearGradient id="paint15_linear_1620_514" x1="3.4248" y1="3.5" x2="28.4451" y2="23.2325" gradientUnits="userSpaceOnUse">
<stop stop-color="#F6B613"/>
<stop offset="0.330638" stop-color="#FF85A6"/>
<stop offset="0.65175" stop-color="#9894FF"/>
<stop offset="1" stop-color="#8855CC"/>
</linearGradient>
<linearGradient id="paint16_linear_1620_514" x1="3.4248" y1="3.5" x2="28.4451" y2="23.2325" gradientUnits="userSpaceOnUse">
<stop stop-color="#F6B613"/>
<stop offset="0.330638" stop-color="#FF85A6"/>
<stop offset="0.65175" stop-color="#9894FF"/>
<stop offset="1" stop-color="#8855CC"/>
</linearGradient>
<linearGradient id="paint17_linear_1620_514" x1="3.4248" y1="3.5" x2="28.4451" y2="23.2325" gradientUnits="userSpaceOnUse">
<stop stop-color="#F6B613"/>
<stop offset="0.330638" stop-color="#FF85A6"/>
<stop offset="0.65175" stop-color="#9894FF"/>
<stop offset="1" stop-color="#8855CC"/>
</linearGradient>
<linearGradient id="paint18_linear_1620_514" x1="3.4248" y1="3.5" x2="28.4451" y2="23.2325" gradientUnits="userSpaceOnUse">
<stop stop-color="#F6B613"/>
<stop offset="0.330638" stop-color="#FF85A6"/>
<stop offset="0.65175" stop-color="#9894FF"/>
<stop offset="1" stop-color="#8855CC"/>
</linearGradient>
</defs>
</svg>
