<svg viewBox="0 0 31 32" fill="none" xmlns="http://www.w3.org/2000/svg">
<path d="M30.48 24.38H28.95V25.9H30.48V24.38Z" fill="url(#paint0_linear_1620_34)"/>
<path d="M28.95 22.85H27.43V24.38H28.95V22.85Z" fill="url(#paint1_linear_1620_34)"/>
<path d="M28.95 25.9H27.43V27.43H28.95V25.9Z" fill="url(#paint2_linear_1620_34)"/>
<path d="M27.43 21.33H25.9V22.85H27.43V21.33Z" fill="url(#paint3_linear_1620_34)"/>
<path d="M27.43 27.43H25.9V28.95H27.43V27.43Z" fill="url(#paint4_linear_1620_34)"/>
<path d="M25.9 19.81H24.38V21.33H25.9V19.81Z" fill="url(#paint5_linear_1620_34)"/>
<path d="M25.9 25.9H24.38V27.43H25.9V25.9Z" fill="url(#paint6_linear_1620_34)"/>
<path d="M24.38 18.28H22.86V19.81H24.38V18.28Z" fill="url(#paint7_linear_1620_34)"/>
<path d="M24.38 24.38H22.86V25.9H24.38V24.38Z" fill="url(#paint8_linear_1620_34)"/>
<path d="M22.86 16.76H21.33V18.28H22.86V16.76Z" fill="url(#paint9_linear_1620_34)"/>
<path d="M22.86 22.85H21.33V24.38H22.86V22.85Z" fill="url(#paint10_linear_1620_34)"/>
<path d="M19.81 21.33V19.81H18.29V21.33H19.8V22.85H21.33V21.33H19.81Z" fill="url(#paint11_linear_1620_34)"/>
<path d="M1.52 1.52H0V30.47H1.52V32H19.8V30.47H21.33V25.9H19.8V28.95H1.52V3.04H6.09V4.57H15.23V3.04H19.8V12.19H21.33V1.52H19.8V0H1.52V1.52ZM10.66 1.52H13.71V3.04H10.66V1.52ZM7.61 1.52H9.14V3.04H7.61V1.52Z" fill="url(#paint12_linear_1620_34)"/>
<path d="M18.29 18.28H16.76V19.81H18.29V18.28Z" fill="url(#paint13_linear_1620_34)"/>
<path d="M18.29 7.62H15.24V10.66H18.29V7.62Z" fill="url(#paint14_linear_1620_34)"/>
<path d="M19.8 15.23V16.76H21.33V15.23H19.81V13.71H15.24V18.28H16.76V15.23H19.8Z" fill="url(#paint15_linear_1620_34)"/>
<path d="M12.19 7.62H9.14V10.66H12.19V7.62Z" fill="url(#paint16_linear_1620_34)"/>
<path d="M12.19 24.38V22.85H13.71V21.33H12.19V19.81H10.67V21.33H9.14V22.85H10.67V24.38H12.19Z" fill="url(#paint17_linear_1620_34)"/>
<path d="M12.19 13.71H9.14V16.76H12.19V13.71Z" fill="url(#paint18_linear_1620_34)"/>
<path d="M6.1 7.62H3.05V10.66H6.1V7.62Z" fill="url(#paint19_linear_1620_34)"/>
<path d="M6.1 13.71H3.05V16.76H6.1V13.71Z" fill="url(#paint20_linear_1620_34)"/>
<path d="M6.1 19.81H3.05V22.85H6.1V19.81Z" fill="url(#paint21_linear_1620_34)"/>
<defs>
<linearGradient id="paint0_linear_1620_34" x1="4.5684" y1="3.5" x2="30.2641" y2="30.5321" gradientUnits="userSpaceOnUse">
<stop stop-color="#F6B613"/>
<stop offset="0.330638" stop-color="#FF85A6"/>
<stop offset="0.65175" stop-color="#9894FF"/>
<stop offset="1" stop-color="#8855CC"/>
</linearGradient>
<linearGradient id="paint1_linear_1620_34" x1="4.5684" y1="3.5" x2="30.2641" y2="30.5321" gradientUnits="userSpaceOnUse">
<stop stop-color="#F6B613"/>
<stop offset="0.330638" stop-color="#FF85A6"/>
<stop offset="0.65175" stop-color="#9894FF"/>
<stop offset="1" stop-color="#8855CC"/>
</linearGradient>
<linearGradient id="paint2_linear_1620_34" x1="4.5684" y1="3.5" x2="30.2641" y2="30.5321" gradientUnits="userSpaceOnUse">
<stop stop-color="#F6B613"/>
<stop offset="0.330638" stop-color="#FF85A6"/>
<stop offset="0.65175" stop-color="#9894FF"/>
<stop offset="1" stop-color="#8855CC"/>
</linearGradient>
<linearGradient id="paint3_linear_1620_34" x1="4.5684" y1="3.5" x2="30.2641" y2="30.5321" gradientUnits="userSpaceOnUse">
<stop stop-color="#F6B613"/>
<stop offset="0.330638" stop-color="#FF85A6"/>
<stop offset="0.65175" stop-color="#9894FF"/>
<stop offset="1" stop-color="#8855CC"/>
</linearGradient>
<linearGradient id="paint4_linear_1620_34" x1="4.5684" y1="3.5" x2="30.2641" y2="30.5321" gradientUnits="userSpaceOnUse">
<stop stop-color="#F6B613"/>
<stop offset="0.330638" stop-color="#FF85A6"/>
<stop offset="0.65175" stop-color="#9894FF"/>
<stop offset="1" stop-color="#8855CC"/>
</linearGradient>
<linearGradient id="paint5_linear_1620_34" x1="4.5684" y1="3.5" x2="30.2641" y2="30.5321" gradientUnits="userSpaceOnUse">
<stop stop-color="#F6B613"/>
<stop offset="0.330638" stop-color="#FF85A6"/>
<stop offset="0.65175" stop-color="#9894FF"/>
<stop offset="1" stop-color="#8855CC"/>
</linearGradient>
<linearGradient id="paint6_linear_1620_34" x1="4.5684" y1="3.5" x2="30.2641" y2="30.5321" gradientUnits="userSpaceOnUse">
<stop stop-color="#F6B613"/>
<stop offset="0.330638" stop-color="#FF85A6"/>
<stop offset="0.65175" stop-color="#9894FF"/>
<stop offset="1" stop-color="#8855CC"/>
</linearGradient>
<linearGradient id="paint7_linear_1620_34" x1="4.5684" y1="3.5" x2="30.2641" y2="30.5321" gradientUnits="userSpaceOnUse">
<stop stop-color="#F6B613"/>
<stop offset="0.330638" stop-color="#FF85A6"/>
<stop offset="0.65175" stop-color="#9894FF"/>
<stop offset="1" stop-color="#8855CC"/>
</linearGradient>
<linearGradient id="paint8_linear_1620_34" x1="4.5684" y1="3.5" x2="30.2641" y2="30.5321" gradientUnits="userSpaceOnUse">
<stop stop-color="#F6B613"/>
<stop offset="0.330638" stop-color="#FF85A6"/>
<stop offset="0.65175" stop-color="#9894FF"/>
<stop offset="1" stop-color="#8855CC"/>
</linearGradient>
<linearGradient id="paint9_linear_1620_34" x1="4.5684" y1="3.5" x2="30.2641" y2="30.5321" gradientUnits="userSpaceOnUse">
<stop stop-color="#F6B613"/>
<stop offset="0.330638" stop-color="#FF85A6"/>
<stop offset="0.65175" stop-color="#9894FF"/>
<stop offset="1" stop-color="#8855CC"/>
</linearGradient>
<linearGradient id="paint10_linear_1620_34" x1="4.5684" y1="3.5" x2="30.2641" y2="30.5321" gradientUnits="userSpaceOnUse">
<stop stop-color="#F6B613"/>
<stop offset="0.330638" stop-color="#FF85A6"/>
<stop offset="0.65175" stop-color="#9894FF"/>
<stop offset="1" stop-color="#8855CC"/>
</linearGradient>
<linearGradient id="paint11_linear_1620_34" x1="4.5684" y1="3.5" x2="30.2641" y2="30.5321" gradientUnits="userSpaceOnUse">
<stop stop-color="#F6B613"/>
<stop offset="0.330638" stop-color="#FF85A6"/>
<stop offset="0.65175" stop-color="#9894FF"/>
<stop offset="1" stop-color="#8855CC"/>
</linearGradient>
<linearGradient id="paint12_linear_1620_34" x1="4.5684" y1="3.5" x2="30.2641" y2="30.5321" gradientUnits="userSpaceOnUse">
<stop stop-color="#F6B613"/>
<stop offset="0.330638" stop-color="#FF85A6"/>
<stop offset="0.65175" stop-color="#9894FF"/>
<stop offset="1" stop-color="#8855CC"/>
</linearGradient>
<linearGradient id="paint13_linear_1620_34" x1="4.5684" y1="3.5" x2="30.2641" y2="30.5321" gradientUnits="userSpaceOnUse">
<stop stop-color="#F6B613"/>
<stop offset="0.330638" stop-color="#FF85A6"/>
<stop offset="0.65175" stop-color="#9894FF"/>
<stop offset="1" stop-color="#8855CC"/>
</linearGradient>
<linearGradient id="paint14_linear_1620_34" x1="4.5684" y1="3.5" x2="30.2641" y2="30.5321" gradientUnits="userSpaceOnUse">
<stop stop-color="#F6B613"/>
<stop offset="0.330638" stop-color="#FF85A6"/>
<stop offset="0.65175" stop-color="#9894FF"/>
<stop offset="1" stop-color="#8855CC"/>
</linearGradient>
<linearGradient id="paint15_linear_1620_34" x1="4.5684" y1="3.5" x2="30.2641" y2="30.5321" gradientUnits="userSpaceOnUse">
<stop stop-color="#F6B613"/>
<stop offset="0.330638" stop-color="#FF85A6"/>
<stop offset="0.65175" stop-color="#9894FF"/>
<stop offset="1" stop-color="#8855CC"/>
</linearGradient>
<linearGradient id="paint16_linear_1620_34" x1="4.5684" y1="3.5" x2="30.2641" y2="30.5321" gradientUnits="userSpaceOnUse">
<stop stop-color="#F6B613"/>
<stop offset="0.330638" stop-color="#FF85A6"/>
<stop offset="0.65175" stop-color="#9894FF"/>
<stop offset="1" stop-color="#8855CC"/>
</linearGradient>
<linearGradient id="paint17_linear_1620_34" x1="4.5684" y1="3.5" x2="30.2641" y2="30.5321" gradientUnits="userSpaceOnUse">
<stop stop-color="#F6B613"/>
<stop offset="0.330638" stop-color="#FF85A6"/>
<stop offset="0.65175" stop-color="#9894FF"/>
<stop offset="1" stop-color="#8855CC"/>
</linearGradient>
<linearGradient id="paint18_linear_1620_34" x1="4.5684" y1="3.5" x2="30.2641" y2="30.5321" gradientUnits="userSpaceOnUse">
<stop stop-color="#F6B613"/>
<stop offset="0.330638" stop-color="#FF85A6"/>
<stop offset="0.65175" stop-color="#9894FF"/>
<stop offset="1" stop-color="#8855CC"/>
</linearGradient>
<linearGradient id="paint19_linear_1620_34" x1="4.5684" y1="3.5" x2="30.2641" y2="30.5321" gradientUnits="userSpaceOnUse">
<stop stop-color="#F6B613"/>
<stop offset="0.330638" stop-color="#FF85A6"/>
<stop offset="0.65175" stop-color="#9894FF"/>
<stop offset="1" stop-color="#8855CC"/>
</linearGradient>
<linearGradient id="paint20_linear_1620_34" x1="4.5684" y1="3.5" x2="30.2641" y2="30.5321" gradientUnits="userSpaceOnUse">
<stop stop-color="#F6B613"/>
<stop offset="0.330638" stop-color="#FF85A6"/>
<stop offset="0.65175" stop-color="#9894FF"/>
<stop offset="1" stop-color="#8855CC"/>
</linearGradient>
<linearGradient id="paint21_linear_1620_34" x1="4.5684" y1="3.5" x2="30.2641" y2="30.5321" gradientUnits="userSpaceOnUse">
<stop stop-color="#F6B613"/>
<stop offset="0.330638" stop-color="#FF85A6"/>
<stop offset="0.65175" stop-color="#9894FF"/>
<stop offset="1" stop-color="#8855CC"/>
</linearGradient>
</defs>
</svg>
