<svg viewBox="0 0 24 24" fill="none" xmlns="http://www.w3.org/2000/svg">
<path d="M19.4283 24H4.5709V22.8525H19.4283V24ZM4.5709 22.8525H2.28379V21.7129H4.5709V22.8525ZM21.7164 22.8525H19.4283V21.7129H21.7164V22.8525ZM2.28379 19.4248V21.7129H1.14414V19.4248H2.28379ZM12.5738 21.7129H11.4264V20.5654H12.5738V21.7129ZM22.8561 21.7129H21.7164V19.4248H22.8561V21.7129ZM11.4264 20.5654H10.2857V19.4248H11.4264V20.5654ZM13.7135 20.5654H12.5738V19.4248H13.7135V20.5654ZM4.5709 19.4248H2.28379V18.2852H4.5709V19.4248ZM10.2857 19.4248H9.1461V18.2852H10.2857V19.4248ZM14.8609 19.4248H13.7135V18.2852H14.8609V19.4248ZM19.4293 18.2852H21.7164V19.4248H19.4283V18.2852H17.1412V17.1377H19.4293V18.2852ZM6.85899 18.2852H4.5709V17.1377H6.85899V18.2852ZM9.1461 18.2852H7.99863V15.9971H9.1461V18.2852ZM16.0016 18.2852H14.8609V15.9971H16.0016V18.2852ZM7.99863 15.9971H6.85899V13.71H7.99863V15.9971ZM17.1412 15.9971H16.0016V13.71H17.1412V15.9971ZM6.85899 13.71H5.71152V10.2822H6.85899V13.71ZM18.2887 13.71H17.1412V10.2822H18.2887V13.71ZM13.7135 4.56738H12.5738V5.70703H13.7135V7.99512H14.8609V5.70703H16.0016V9.14258H14.8609V10.2822H13.7135V11.4229H10.2867V10.2822H9.1461V9.14258H7.99863V5.70703H9.1461V4.56738H10.2867V3.42773H13.7135V4.56738ZM5.71152 10.2822H4.5709V4.56738H5.71152V10.2822ZM19.4283 10.2822H18.2887V4.56738H19.4283V10.2822ZM14.8609 5.70703H13.7135V4.56738H14.8609V5.70703ZM6.85899 4.56738H5.71152V2.28027H6.85899V4.56738ZM18.2887 4.56738H17.1412V2.28027H18.2887V4.56738ZM9.1461 2.28027H6.85899V1.13965H9.1461V2.28027ZM17.1412 2.28027H14.8609V1.13965H17.1412V2.28027ZM14.8609 1.13965H9.1461V0H14.8609V1.13965Z" fill="url(#paint0_linear_1439_65745)"/>
<defs>
<linearGradient id="paint0_linear_1439_65745" x1="4.39837" y1="2.625" x2="23.6949" y2="21.9056" gradientUnits="userSpaceOnUse">
<stop stop-color="#F6B613"/>
<stop offset="0.330638" stop-color="#FF85A6"/>
<stop offset="0.65175" stop-color="#9894FF"/>
<stop offset="1" stop-color="#8855CC"/>
</linearGradient>
</defs>
</svg>
