<svg viewBox="0 0 32 32" fill="none" xmlns="http://www.w3.org/2000/svg">
<path d="M32 28.95H28.95V30.48H32V28.95Z" fill="url(#paint0_linear_1620_1051)"/>
<path d="M28.95 30.48H27.43V32H28.95V30.48Z" fill="url(#paint1_linear_1620_1051)"/>
<path d="M27.43 19.81H25.9V21.33H27.43V22.86H28.95V15.24H27.43V19.81Z" fill="url(#paint2_linear_1620_1051)"/>
<path d="M27.43 28.95H24.38V30.48H27.43V28.95Z" fill="url(#paint3_linear_1620_1051)"/>
<path d="M27.43 13.72H25.9V15.24H27.43V13.72Z" fill="url(#paint4_linear_1620_1051)"/>
<path d="M24.38 27.43H21.33V28.95H24.38V27.43Z" fill="url(#paint5_linear_1620_1051)"/>
<path d="M22.86 21.33H24.38V19.81H25.9V18.29H24.38V13.72H25.9V12.19H24.38V7.62H22.86V21.33Z" fill="url(#paint6_linear_1620_1051)"/>
<path d="M21.33 30.48H19.81V32H21.33V30.48Z" fill="url(#paint7_linear_1620_1051)"/>
<path d="M21.33 18.29H19.81V19.81H21.33V18.29Z" fill="url(#paint8_linear_1620_1051)"/>
<path d="M21.33 15.24H19.81V16.76H21.33V15.24Z" fill="url(#paint9_linear_1620_1051)"/>
<path d="M19.81 27.43H18.28V30.48H19.81V27.43Z" fill="url(#paint10_linear_1620_1051)"/>
<path d="M19.81 24.38H13.71V25.91H19.81V24.38Z" fill="url(#paint11_linear_1620_1051)"/>
<path d="M19.81 1.52H18.28V3.05H19.81V1.52Z" fill="url(#paint12_linear_1620_1051)"/>
<path d="M18.28 0H15.24V1.52H18.28V0Z" fill="url(#paint13_linear_1620_1051)"/>
<path d="M19.81 9.14H18.28V7.62H15.24V9.14H16.76V10.67H15.24V9.14H13.71V12.19H15.24V13.72H18.28V12.19H19.81V9.14Z" fill="url(#paint14_linear_1620_1051)"/>
<path d="M15.24 27.43H13.71V30.48H15.24V27.43Z" fill="url(#paint15_linear_1620_1051)"/>
<path d="M10.66 22.86H12.19V24.38H13.71V22.86H19.81V24.38H21.33V22.86H22.86V21.33H10.66V22.86Z" fill="url(#paint16_linear_1620_1051)"/>
<path d="M15.24 1.52H13.71V3.05H15.24V1.52Z" fill="url(#paint17_linear_1620_1051)"/>
<path d="M13.71 30.48H12.19V32H13.71V30.48Z" fill="url(#paint18_linear_1620_1051)"/>
<path d="M12.19 27.43H9.14V28.95H12.19V27.43Z" fill="url(#paint19_linear_1620_1051)"/>
<path d="M13.71 4.57V3.05H12.19V4.57H10.66V7.62H12.19V6.1H21.33V7.62H22.86V4.57H21.33V3.05H19.81V4.57H13.71Z" fill="url(#paint20_linear_1620_1051)"/>
<path d="M10.66 7.62H9.14V12.19H7.62V13.72H9.14V18.29H7.62V19.81H9.14V21.33H10.66V7.62Z" fill="url(#paint21_linear_1620_1051)"/>
<path d="M9.14 28.95H6.09V30.48H9.14V28.95Z" fill="url(#paint22_linear_1620_1051)"/>
<path d="M7.62 13.72H6.09V15.24H7.62V13.72Z" fill="url(#paint23_linear_1620_1051)"/>
<path d="M6.09 30.48H4.57V32H6.09V30.48Z" fill="url(#paint24_linear_1620_1051)"/>
<path d="M6.09 15.24H4.57V22.86H6.09V21.33H7.62V19.81H6.09V15.24Z" fill="url(#paint25_linear_1620_1051)"/>
<path d="M4.57 28.95H1.52V30.48H4.57V28.95Z" fill="url(#paint26_linear_1620_1051)"/>
<path d="M1.52 30.48H0V32H1.52V30.48Z" fill="url(#paint27_linear_1620_1051)"/>
<defs>
<linearGradient id="paint0_linear_1620_1051" x1="4.79622" y1="3.5" x2="30.3985" y2="31.7769" gradientUnits="userSpaceOnUse">
<stop stop-color="#F6B613"/>
<stop offset="0.330638" stop-color="#FF85A6"/>
<stop offset="0.65175" stop-color="#9894FF"/>
<stop offset="1" stop-color="#8855CC"/>
</linearGradient>
<linearGradient id="paint1_linear_1620_1051" x1="4.79622" y1="3.5" x2="30.3985" y2="31.7769" gradientUnits="userSpaceOnUse">
<stop stop-color="#F6B613"/>
<stop offset="0.330638" stop-color="#FF85A6"/>
<stop offset="0.65175" stop-color="#9894FF"/>
<stop offset="1" stop-color="#8855CC"/>
</linearGradient>
<linearGradient id="paint2_linear_1620_1051" x1="4.79622" y1="3.5" x2="30.3985" y2="31.7769" gradientUnits="userSpaceOnUse">
<stop stop-color="#F6B613"/>
<stop offset="0.330638" stop-color="#FF85A6"/>
<stop offset="0.65175" stop-color="#9894FF"/>
<stop offset="1" stop-color="#8855CC"/>
</linearGradient>
<linearGradient id="paint3_linear_1620_1051" x1="4.79622" y1="3.5" x2="30.3985" y2="31.7769" gradientUnits="userSpaceOnUse">
<stop stop-color="#F6B613"/>
<stop offset="0.330638" stop-color="#FF85A6"/>
<stop offset="0.65175" stop-color="#9894FF"/>
<stop offset="1" stop-color="#8855CC"/>
</linearGradient>
<linearGradient id="paint4_linear_1620_1051" x1="4.79622" y1="3.5" x2="30.3985" y2="31.7769" gradientUnits="userSpaceOnUse">
<stop stop-color="#F6B613"/>
<stop offset="0.330638" stop-color="#FF85A6"/>
<stop offset="0.65175" stop-color="#9894FF"/>
<stop offset="1" stop-color="#8855CC"/>
</linearGradient>
<linearGradient id="paint5_linear_1620_1051" x1="4.79622" y1="3.5" x2="30.3985" y2="31.7769" gradientUnits="userSpaceOnUse">
<stop stop-color="#F6B613"/>
<stop offset="0.330638" stop-color="#FF85A6"/>
<stop offset="0.65175" stop-color="#9894FF"/>
<stop offset="1" stop-color="#8855CC"/>
</linearGradient>
<linearGradient id="paint6_linear_1620_1051" x1="4.79622" y1="3.5" x2="30.3985" y2="31.7769" gradientUnits="userSpaceOnUse">
<stop stop-color="#F6B613"/>
<stop offset="0.330638" stop-color="#FF85A6"/>
<stop offset="0.65175" stop-color="#9894FF"/>
<stop offset="1" stop-color="#8855CC"/>
</linearGradient>
<linearGradient id="paint7_linear_1620_1051" x1="4.79622" y1="3.5" x2="30.3985" y2="31.7769" gradientUnits="userSpaceOnUse">
<stop stop-color="#F6B613"/>
<stop offset="0.330638" stop-color="#FF85A6"/>
<stop offset="0.65175" stop-color="#9894FF"/>
<stop offset="1" stop-color="#8855CC"/>
</linearGradient>
<linearGradient id="paint8_linear_1620_1051" x1="4.79622" y1="3.5" x2="30.3985" y2="31.7769" gradientUnits="userSpaceOnUse">
<stop stop-color="#F6B613"/>
<stop offset="0.330638" stop-color="#FF85A6"/>
<stop offset="0.65175" stop-color="#9894FF"/>
<stop offset="1" stop-color="#8855CC"/>
</linearGradient>
<linearGradient id="paint9_linear_1620_1051" x1="4.79622" y1="3.5" x2="30.3985" y2="31.7769" gradientUnits="userSpaceOnUse">
<stop stop-color="#F6B613"/>
<stop offset="0.330638" stop-color="#FF85A6"/>
<stop offset="0.65175" stop-color="#9894FF"/>
<stop offset="1" stop-color="#8855CC"/>
</linearGradient>
<linearGradient id="paint10_linear_1620_1051" x1="4.79622" y1="3.5" x2="30.3985" y2="31.7769" gradientUnits="userSpaceOnUse">
<stop stop-color="#F6B613"/>
<stop offset="0.330638" stop-color="#FF85A6"/>
<stop offset="0.65175" stop-color="#9894FF"/>
<stop offset="1" stop-color="#8855CC"/>
</linearGradient>
<linearGradient id="paint11_linear_1620_1051" x1="4.79622" y1="3.5" x2="30.3985" y2="31.7769" gradientUnits="userSpaceOnUse">
<stop stop-color="#F6B613"/>
<stop offset="0.330638" stop-color="#FF85A6"/>
<stop offset="0.65175" stop-color="#9894FF"/>
<stop offset="1" stop-color="#8855CC"/>
</linearGradient>
<linearGradient id="paint12_linear_1620_1051" x1="4.79622" y1="3.5" x2="30.3985" y2="31.7769" gradientUnits="userSpaceOnUse">
<stop stop-color="#F6B613"/>
<stop offset="0.330638" stop-color="#FF85A6"/>
<stop offset="0.65175" stop-color="#9894FF"/>
<stop offset="1" stop-color="#8855CC"/>
</linearGradient>
<linearGradient id="paint13_linear_1620_1051" x1="4.79622" y1="3.5" x2="30.3985" y2="31.7769" gradientUnits="userSpaceOnUse">
<stop stop-color="#F6B613"/>
<stop offset="0.330638" stop-color="#FF85A6"/>
<stop offset="0.65175" stop-color="#9894FF"/>
<stop offset="1" stop-color="#8855CC"/>
</linearGradient>
<linearGradient id="paint14_linear_1620_1051" x1="4.79622" y1="3.5" x2="30.3985" y2="31.7769" gradientUnits="userSpaceOnUse">
<stop stop-color="#F6B613"/>
<stop offset="0.330638" stop-color="#FF85A6"/>
<stop offset="0.65175" stop-color="#9894FF"/>
<stop offset="1" stop-color="#8855CC"/>
</linearGradient>
<linearGradient id="paint15_linear_1620_1051" x1="4.79622" y1="3.5" x2="30.3985" y2="31.7769" gradientUnits="userSpaceOnUse">
<stop stop-color="#F6B613"/>
<stop offset="0.330638" stop-color="#FF85A6"/>
<stop offset="0.65175" stop-color="#9894FF"/>
<stop offset="1" stop-color="#8855CC"/>
</linearGradient>
<linearGradient id="paint16_linear_1620_1051" x1="4.79622" y1="3.5" x2="30.3985" y2="31.7769" gradientUnits="userSpaceOnUse">
<stop stop-color="#F6B613"/>
<stop offset="0.330638" stop-color="#FF85A6"/>
<stop offset="0.65175" stop-color="#9894FF"/>
<stop offset="1" stop-color="#8855CC"/>
</linearGradient>
<linearGradient id="paint17_linear_1620_1051" x1="4.79622" y1="3.5" x2="30.3985" y2="31.7769" gradientUnits="userSpaceOnUse">
<stop stop-color="#F6B613"/>
<stop offset="0.330638" stop-color="#FF85A6"/>
<stop offset="0.65175" stop-color="#9894FF"/>
<stop offset="1" stop-color="#8855CC"/>
</linearGradient>
<linearGradient id="paint18_linear_1620_1051" x1="4.79622" y1="3.5" x2="30.3985" y2="31.7769" gradientUnits="userSpaceOnUse">
<stop stop-color="#F6B613"/>
<stop offset="0.330638" stop-color="#FF85A6"/>
<stop offset="0.65175" stop-color="#9894FF"/>
<stop offset="1" stop-color="#8855CC"/>
</linearGradient>
<linearGradient id="paint19_linear_1620_1051" x1="4.79622" y1="3.5" x2="30.3985" y2="31.7769" gradientUnits="userSpaceOnUse">
<stop stop-color="#F6B613"/>
<stop offset="0.330638" stop-color="#FF85A6"/>
<stop offset="0.65175" stop-color="#9894FF"/>
<stop offset="1" stop-color="#8855CC"/>
</linearGradient>
<linearGradient id="paint20_linear_1620_1051" x1="4.79622" y1="3.5" x2="30.3985" y2="31.7769" gradientUnits="userSpaceOnUse">
<stop stop-color="#F6B613"/>
<stop offset="0.330638" stop-color="#FF85A6"/>
<stop offset="0.65175" stop-color="#9894FF"/>
<stop offset="1" stop-color="#8855CC"/>
</linearGradient>
<linearGradient id="paint21_linear_1620_1051" x1="4.79622" y1="3.5" x2="30.3985" y2="31.7769" gradientUnits="userSpaceOnUse">
<stop stop-color="#F6B613"/>
<stop offset="0.330638" stop-color="#FF85A6"/>
<stop offset="0.65175" stop-color="#9894FF"/>
<stop offset="1" stop-color="#8855CC"/>
</linearGradient>
<linearGradient id="paint22_linear_1620_1051" x1="4.79622" y1="3.5" x2="30.3985" y2="31.7769" gradientUnits="userSpaceOnUse">
<stop stop-color="#F6B613"/>
<stop offset="0.330638" stop-color="#FF85A6"/>
<stop offset="0.65175" stop-color="#9894FF"/>
<stop offset="1" stop-color="#8855CC"/>
</linearGradient>
<linearGradient id="paint23_linear_1620_1051" x1="4.79622" y1="3.5" x2="30.3985" y2="31.7769" gradientUnits="userSpaceOnUse">
<stop stop-color="#F6B613"/>
<stop offset="0.330638" stop-color="#FF85A6"/>
<stop offset="0.65175" stop-color="#9894FF"/>
<stop offset="1" stop-color="#8855CC"/>
</linearGradient>
<linearGradient id="paint24_linear_1620_1051" x1="4.79622" y1="3.5" x2="30.3985" y2="31.7769" gradientUnits="userSpaceOnUse">
<stop stop-color="#F6B613"/>
<stop offset="0.330638" stop-color="#FF85A6"/>
<stop offset="0.65175" stop-color="#9894FF"/>
<stop offset="1" stop-color="#8855CC"/>
</linearGradient>
<linearGradient id="paint25_linear_1620_1051" x1="4.79622" y1="3.5" x2="30.3985" y2="31.7769" gradientUnits="userSpaceOnUse">
<stop stop-color="#F6B613"/>
<stop offset="0.330638" stop-color="#FF85A6"/>
<stop offset="0.65175" stop-color="#9894FF"/>
<stop offset="1" stop-color="#8855CC"/>
</linearGradient>
<linearGradient id="paint26_linear_1620_1051" x1="4.79622" y1="3.5" x2="30.3985" y2="31.7769" gradientUnits="userSpaceOnUse">
<stop stop-color="#F6B613"/>
<stop offset="0.330638" stop-color="#FF85A6"/>
<stop offset="0.65175" stop-color="#9894FF"/>
<stop offset="1" stop-color="#8855CC"/>
</linearGradient>
<linearGradient id="paint27_linear_1620_1051" x1="4.79622" y1="3.5" x2="30.3985" y2="31.7769" gradientUnits="userSpaceOnUse">
<stop stop-color="#F6B613"/>
<stop offset="0.330638" stop-color="#FF85A6"/>
<stop offset="0.65175" stop-color="#9894FF"/>
<stop offset="1" stop-color="#8855CC"/>
</linearGradient>
</defs>
</svg>
