<svg width="1024" height="722" viewBox="0 0 1024 722" fill="none" xmlns="http://www.w3.org/2000/svg">
<g opacity="0.2" clip-path="url(#clip0_4509_4102)">
<path d="M686.681 288.824C689.24 274.747 704.327 177.384 642.759 125.619C594.887 85.3687 554.28 78.1005 512 0.231445C469.72 78.1005 429.112 85.3687 381.24 125.619C318.954 177.988 335.133 277.096 337.41 289.345C391.56 267.226 450.714 254.932 512.702 254.932C574.194 254.932 632.897 267.043 686.681 288.824Z" fill="#DECFFB"/>
<path d="M1106.81 590.4C1055.58 529.286 959.642 543.585 944.258 546.339C966.204 600.422 978.403 659.478 978.403 721.365C978.403 783.252 966.204 842.307 944.258 896.39C959.65 899.145 1055.58 913.444 1106.81 852.33C1147 804.383 1154.25 763.712 1232 721.365C1154.25 679.018 1147 638.347 1106.81 590.4Z" fill="#DECFFB"/>
<path d="M81.056 546.576C71.1486 544.679 -29.7894 527.136 -82.8096 590.399C-122.997 638.347 -130.253 679.018 -208 721.365C-130.253 763.711 -122.997 804.382 -82.8096 852.33C-29.7894 915.593 71.1486 898.05 81.056 896.153C59.1711 842.131 47.0026 783.16 47.0026 721.365C47.0026 659.57 59.1711 600.598 81.056 546.576Z" fill="#DECFFB"/>
<path d="M941.286 538.949C954.317 529.845 1031.96 472.067 1025.05 392.714C1019.62 330.353 996.032 296.452 1021.12 211.445C936.244 236.57 902.397 212.944 840.134 207.497C760.272 200.52 702.302 279.59 693.922 291.693C804.912 338.829 893.987 427.907 941.286 538.949Z" fill="#DECFFB"/>
<path d="M330.412 292.184C323.247 281.733 264.773 200.436 183.864 207.506C121.601 212.945 87.7541 236.571 2.88052 211.453C27.9584 296.461 4.3776 330.361 -1.05352 392.722C-8.1957 474.692 74.898 533.641 83.7894 539.7C130.844 428.673 219.682 339.55 330.42 292.192L330.412 292.184Z" fill="#DECFFB"/>
<path d="M512.713 316.694C289.923 316.694 108.672 498.231 108.672 721.364C108.672 944.497 289.923 1126.03 512.713 1126.03C735.503 1126.03 916.747 944.497 916.747 721.364C916.747 498.231 735.496 316.694 512.713 316.694ZM512.003 981.863C368.365 981.863 251.913 865.236 251.913 721.364C251.913 577.492 368.357 460.865 512.003 460.865C655.649 460.865 772.092 577.492 772.092 721.364C772.092 865.236 655.649 981.863 512.003 981.863Z" fill="#DECFFB"/>
<path d="M513.413 981.863C614.988 981.863 697.33 865.234 697.33 721.364C697.33 577.494 614.988 460.865 513.413 460.865C411.839 460.865 329.496 577.494 329.496 721.364C329.496 865.234 411.839 981.863 513.413 981.863Z" fill="#DECFFB"/>
</g>
<defs>
<clipPath id="clip0_4509_4102">
<rect width="1440" height="722" fill="white" transform="translate(-208)"/>
</clipPath>
</defs>
</svg>
