<svg width="176" height="49" viewBox="0 0 176 49" fill="none" xmlns="http://www.w3.org/2000/svg">
<path d="M161.173 0.5C161.75 0.5 162.338 0.5 162.916 0.502904C163.313 0.505808 163.719 0.511615 164.119 0.517422L164.384 0.521778C165.238 0.540652 166.356 0.58566 167.457 0.76424C168.456 0.921042 169.368 1.19109 170.237 1.58455C171.107 1.98671 171.896 2.50358 172.585 3.12498C173.268 3.73476 173.844 4.44618 174.295 5.23309C174.732 6.01565 175.027 6.8316 175.198 7.74337C175.387 8.65805 175.445 9.61338 175.481 10.4889C175.487 10.9302 175.487 11.373 175.487 11.8333C175.5 12.3531 175.5 12.8728 175.5 13.3984V35.1009C175.5 35.6294 175.5 36.1477 175.487 36.6893C175.487 37.1365 175.487 37.5691 175.481 37.9945C175.445 38.8903 175.387 39.8456 175.195 40.7763C175.026 41.6794 174.73 42.4953 174.299 43.2633C173.841 44.0604 173.265 44.7689 172.579 45.3773C171.896 45.9972 171.11 46.5126 170.241 46.9104C169.384 47.3024 168.47 47.5725 167.45 47.7395C166.393 47.9122 165.306 47.9587 164.387 47.9819C163.903 47.9921 163.408 47.9979 162.917 47.9979C162.339 48.0008 161.752 48.0008 161.174 48.0008H14.8355C14.2465 48.0008 13.6639 48.0008 13.0684 47.9979C12.5826 47.9979 12.1001 47.9921 11.6143 47.9834C10.6912 47.9601 9.60515 47.9137 8.53842 47.7409C7.51688 47.5754 6.6083 47.3039 5.75944 46.9119C4.8896 46.5155 4.10206 45.9987 3.40812 45.3686C2.72709 44.766 2.15419 44.0604 1.70555 43.2677C1.27305 42.5084 0.974491 41.691 0.795358 40.7647C0.595245 39.776 0.545217 38.7698 0.522624 38.0003C0.512941 37.6983 0.5081 37.4036 0.504872 37.106L0.500031 36.6893V35.1009V13.3984V11.8289L0.506486 11.3948C0.509713 11.0986 0.514555 10.8025 0.524238 10.5019C0.545217 9.73534 0.596859 8.72919 0.798585 7.73321C0.976105 6.81853 1.27305 6.00258 1.70877 5.23454C2.15257 4.44618 2.72548 3.73622 3.41619 3.12208C4.10367 2.50213 4.89444 1.98526 5.76105 1.586C6.62606 1.18964 7.53302 0.921042 8.53842 0.762788C9.64227 0.584208 10.7623 0.540652 11.603 0.520326L11.9226 0.515971C12.3083 0.510163 12.6908 0.504356 13.0748 0.502904C13.6623 0.5 14.2465 0.5 14.8355 0.5H161.173Z" fill="black" stroke="#747775"/>
<path d="M50.9177 19.8632H19.5V14.9364C19.5 12.2618 21.8059 10.0095 24.5441 10.0095H45.8736C48.6118 10.0095 50.9177 12.2618 50.9177 14.9364V19.8632Z" fill="#34A853"/>
<path d="M50.9177 24.4092H19.5V19.1729C19.5 16.3304 21.8059 13.9366 24.5441 13.9366H45.8736C48.6118 13.9366 50.9177 16.3304 50.9177 19.1729V24.4092Z" fill="#FBBC04"/>
<path d="M50.9177 28.7728H19.5V23.5365C19.5 20.694 21.8059 18.3002 24.5441 18.3002H45.8736C48.6118 18.3002 50.9177 20.694 50.9177 23.5365V28.7728Z" fill="#EA4335"/>
<path d="M19.5 21.1286L39.4409 25.6332C41.7363 26.1963 44.3186 25.6332 46.1835 24.2255L50.9177 20.847V31.4046C50.9177 34.0792 48.6224 36.1907 45.8967 36.1907H24.5211C21.7954 36.1907 19.5 34.0792 19.5 31.4046V21.1286Z" fill="url(#paint0_linear_3167_6553)"/>
<path d="M61.5605 17.8639L64.6237 9.74066H66.0418L69.1164 17.8639H67.7436L66.9948 15.7763H63.682L62.9332 17.8639H61.5605ZM64.9981 12.1345L64.1018 14.6191H66.5751L65.6788 12.1345L65.3725 11.2042H65.3044L64.9981 12.1345ZM72.3117 18.0454C71.7898 18.0454 71.3171 17.9169 70.8935 17.6597C70.4776 17.395 70.1447 17.0319 69.8951 16.5705C69.6531 16.1016 69.5321 15.5684 69.5321 14.9708C69.5321 14.3733 69.6531 13.8439 69.8951 13.3825C70.1447 12.9211 70.4776 12.558 70.8935 12.2933C71.3171 12.0287 71.7898 11.8963 72.3117 11.8963C72.758 11.8963 73.1399 11.9946 73.4576 12.1912C73.7828 12.3879 74.0211 12.611 74.1723 12.8606H74.2404L74.1723 12.0551V9.74066H75.3862V17.8639H74.2404V17.0924H74.1723C74.0211 17.342 73.7828 17.5651 73.4576 17.7618C73.1399 17.9509 72.758 18.0454 72.3117 18.0454ZM72.4932 16.9222C72.7958 16.9222 73.0794 16.8428 73.3441 16.684C73.6164 16.5251 73.8319 16.302 73.9908 16.0146C74.1572 15.7196 74.2404 15.3717 74.2404 14.9708C74.2404 14.57 74.1572 14.2258 73.9908 13.9384C73.8319 13.6434 73.6164 13.4165 73.3441 13.2577C73.0794 13.0989 72.7958 13.0194 72.4932 13.0194C72.1907 13.0194 71.9071 13.0989 71.6423 13.2577C71.3776 13.4165 71.1621 13.6434 70.9956 13.9384C70.8293 14.2258 70.746 14.57 70.746 14.9708C70.746 15.3717 70.8293 15.7196 70.9956 16.0146C71.1621 16.302 71.3776 16.5251 71.6423 16.684C71.9071 16.8428 72.1907 16.9222 72.4932 16.9222ZM79.2474 18.0454C78.7255 18.0454 78.2528 17.9169 77.8292 17.6597C77.4132 17.395 77.0804 17.0319 76.8308 16.5705C76.5888 16.1016 76.4678 15.5684 76.4678 14.9708C76.4678 14.3733 76.5888 13.8439 76.8308 13.3825C77.0804 12.9211 77.4132 12.558 77.8292 12.2933C78.2528 12.0287 78.7255 11.8963 79.2474 11.8963C79.6936 11.8963 80.0756 11.9946 80.3933 12.1912C80.7185 12.3879 80.9568 12.611 81.108 12.8606H81.1761L81.108 12.0551V9.74066H82.322V17.8639H81.1761V17.0924H81.108C80.9568 17.342 80.7185 17.5651 80.3933 17.7618C80.0756 17.9509 79.6936 18.0454 79.2474 18.0454ZM79.4289 16.9222C79.7315 16.9222 80.0151 16.8428 80.2798 16.684C80.5521 16.5251 80.7677 16.302 80.9265 16.0146C81.0929 15.7196 81.1761 15.3717 81.1761 14.9708C81.1761 14.57 81.0929 14.2258 80.9265 13.9384C80.7677 13.6434 80.5521 13.4165 80.2798 13.2577C80.0151 13.0989 79.7315 13.0194 79.4289 13.0194C79.1263 13.0194 78.8427 13.0989 78.578 13.2577C78.3133 13.4165 78.0978 13.6434 77.9313 13.9384C77.7649 14.2258 77.6817 14.57 77.6817 14.9708C77.6817 15.3717 77.7649 15.7196 77.9313 16.0146C78.0978 16.302 78.3133 16.5251 78.578 16.684C78.8427 16.8428 79.1263 16.9222 79.4289 16.9222ZM87.0258 16.1848V13.1442H86.0161V12.0778H87.0258V10.4441H88.2511V12.0778H89.6697V13.1442H88.2511V15.9238C88.2511 16.2112 88.3078 16.4306 88.4213 16.5819C88.5421 16.7331 88.7429 16.8088 89.023 16.8088C89.1661 16.8088 89.2874 16.7898 89.3861 16.752C89.4917 16.7143 89.5973 16.6613 89.7037 16.5932V17.7845C89.5746 17.8374 89.4384 17.879 89.2953 17.9093C89.1513 17.9395 88.9811 17.9546 88.7848 17.9546C88.2473 17.9546 87.82 17.7996 87.5023 17.4895C87.1846 17.1718 87.0258 16.7369 87.0258 16.1848ZM93.3464 18.0454C92.7486 18.0454 92.2232 17.9093 91.7694 17.637C91.3156 17.3647 90.9596 16.9979 90.703 16.5365C90.4455 16.0751 90.3172 15.5532 90.3172 14.9708C90.3172 14.396 90.4455 13.8779 90.703 13.4165C90.9596 12.9476 91.3156 12.577 91.7694 12.3047C92.2232 12.0324 92.7486 11.8963 93.3464 11.8963C93.9364 11.8963 94.4583 12.0324 94.9121 12.3047C95.3659 12.577 95.7211 12.9476 95.9785 13.4165C96.2351 13.8779 96.3643 14.396 96.3643 14.9708C96.3643 15.5532 96.2351 16.0751 95.9785 16.5365C95.7211 16.9979 95.3659 17.3647 94.9121 17.637C94.4583 17.9093 93.9364 18.0454 93.3464 18.0454ZM93.3464 16.9222C93.6641 16.9222 93.9591 16.8466 94.2314 16.6953C94.5036 16.5365 94.7227 16.3133 94.8894 16.0259C95.0631 15.731 95.1503 15.3793 95.1503 14.9708C95.1503 14.5624 95.0631 14.2145 94.8894 13.9271C94.7227 13.6321 94.5036 13.4089 94.2314 13.2577C93.9591 13.0989 93.6641 13.0194 93.3464 13.0194C93.0288 13.0194 92.7294 13.0989 92.4501 13.2577C92.1779 13.4089 91.9544 13.6321 91.7808 13.9271C91.6141 14.2145 91.5312 14.5624 91.5312 14.9708C91.5312 15.3793 91.6141 15.731 91.7808 16.0259C91.9544 16.3133 92.1779 16.5365 92.4501 16.6953C92.7294 16.8466 93.0288 16.9222 93.3464 16.9222Z" fill="white"/>
<path d="M67.6214 35.5555C66.8598 35.5555 66.1428 35.417 65.4702 35.1401C64.8076 34.8632 64.219 34.4774 63.7047 33.9829C63.1904 33.4784 62.7849 32.89 62.4881 32.2174C62.2013 31.5349 62.0579 30.7981 62.0579 30.0068C62.0579 29.2155 62.2013 28.4836 62.4881 27.811C62.7849 27.1286 63.1854 26.5401 63.6899 26.0455C64.2042 25.5411 64.7976 25.1504 65.4702 24.8735C66.1428 24.5966 66.8598 24.4581 67.6214 24.4581C68.4325 24.4581 69.1792 24.6015 69.8617 24.8883C70.554 25.1752 71.1326 25.5758 71.5975 26.09L70.47 27.2028C70.1238 26.817 69.7084 26.5203 69.2237 26.3126C68.749 26.1049 68.2149 26.001 67.6214 26.001C66.9192 26.001 66.2714 26.1692 65.6779 26.5055C65.0845 26.8319 64.6047 27.2967 64.2388 27.9001C63.8827 28.4935 63.7047 29.1958 63.7047 30.0068C63.7047 30.8178 63.8877 31.525 64.2536 32.1283C64.6196 32.7218 65.0993 33.1867 65.6927 33.5229C66.2862 33.8493 66.934 34.0125 67.6363 34.0125C68.2792 34.0125 68.8627 33.8938 69.3869 33.6565C69.9112 33.4092 70.3315 33.063 70.648 32.6179C70.9744 32.1729 71.1723 31.6388 71.2415 31.0156H67.6066V29.5765H72.7696C72.8289 29.8436 72.8586 30.1255 72.8586 30.4222V30.437C72.8586 31.4657 72.6311 32.3657 72.1761 33.1372C71.7311 33.8988 71.1129 34.4923 70.3216 34.9175C69.5303 35.3428 68.6303 35.5555 67.6214 35.5555ZM77.6357 35.5555C76.8543 35.5555 76.167 35.3775 75.5735 35.0214C74.9801 34.6653 74.5152 34.1856 74.1789 33.5823C73.8426 32.979 73.6745 32.2965 73.6745 31.5349C73.6745 30.7832 73.8426 30.1057 74.1789 29.5024C74.5152 28.8891 74.9801 28.4045 75.5735 28.0484C76.167 27.6923 76.8543 27.5143 77.6357 27.5143C78.4072 27.5143 79.0897 27.6923 79.6831 28.0484C80.2766 28.4045 80.7414 28.8891 81.0777 29.5024C81.414 30.1057 81.5822 30.7832 81.5822 31.5349C81.5822 32.2965 81.414 32.979 81.0777 33.5823C80.7414 34.1856 80.2766 34.6653 79.6831 35.0214C79.0897 35.3775 78.4072 35.5555 77.6357 35.5555ZM77.6357 34.0867C78.0512 34.0867 78.4369 33.9878 78.793 33.79C79.149 33.5823 79.4358 33.2905 79.6535 32.9147C79.8809 32.5289 79.9947 32.069 79.9947 31.5349C79.9947 31.0008 79.8809 30.5459 79.6535 30.17C79.4358 29.7842 79.149 29.4925 78.793 29.2946C78.4369 29.0869 78.0512 28.9831 77.6357 28.9831C77.2203 28.9831 76.8296 29.0869 76.4637 29.2946C76.1076 29.4925 75.8158 29.7842 75.5884 30.17C75.3707 30.5459 75.262 31.0008 75.262 31.5349C75.262 32.069 75.3707 32.5289 75.5884 32.9147C75.8158 33.2905 76.1076 33.5823 76.4637 33.79C76.8296 33.9878 77.2203 34.0867 77.6357 34.0867ZM86.6185 35.5555C85.8372 35.5555 85.1497 35.3775 84.5563 35.0214C83.9628 34.6653 83.498 34.1856 83.1617 33.5823C82.8254 32.979 82.6572 32.2965 82.6572 31.5349C82.6572 30.7832 82.8254 30.1057 83.1617 29.5024C83.498 28.8891 83.9628 28.4045 84.5563 28.0484C85.1497 27.6923 85.8372 27.5143 86.6185 27.5143C87.39 27.5143 88.0724 27.6923 88.6661 28.0484C89.2595 28.4045 89.7247 28.8891 90.0606 29.5024C90.3966 30.1057 90.5651 30.7832 90.5651 31.5349C90.5651 32.2965 90.3966 32.979 90.0606 33.5823C89.7247 34.1856 89.2595 34.6653 88.6661 35.0214C88.0724 35.3775 87.39 35.5555 86.6185 35.5555ZM86.6185 34.0867C87.0339 34.0867 87.4196 33.9878 87.7757 33.79C88.1318 33.5823 88.4186 33.2905 88.6364 32.9147C88.8642 32.5289 88.9776 32.069 88.9776 31.5349C88.9776 31.0008 88.8642 30.5459 88.6364 30.17C88.4186 29.7842 88.1318 29.4925 87.7757 29.2946C87.4196 29.0869 87.0339 28.9831 86.6185 28.9831C86.2031 28.9831 85.8125 29.0869 85.4464 29.2946C85.0904 29.4925 84.7986 29.7842 84.5711 30.17C84.3535 30.5459 84.2447 31.0008 84.2447 31.5349C84.2447 32.069 84.3535 32.5289 84.5711 32.9147C84.7986 33.2905 85.0904 33.5823 85.4464 33.79C85.8125 33.9878 86.2031 34.0867 86.6185 34.0867ZM95.4531 38.7601C94.7899 38.7601 94.2165 38.6513 93.7322 38.4337C93.2574 38.226 92.8717 37.954 92.5749 37.6177C92.2782 37.2913 92.0653 36.9551 91.937 36.6089L93.4206 35.9857C93.5786 36.3813 93.8308 36.7028 94.1772 36.9501C94.5333 37.2073 94.9583 37.3358 95.4531 37.3358C96.1452 37.3358 96.6889 37.1281 97.0851 36.7127C97.4901 36.2973 97.6934 35.7088 97.6934 34.9472V34.2202H97.6044C97.367 34.5763 97.0354 34.8632 96.6104 35.0807C96.195 35.2884 95.7202 35.3923 95.1861 35.3923C94.5429 35.3923 93.9547 35.2291 93.4206 34.9027C92.8865 34.5763 92.4563 34.1214 92.1299 33.5378C91.8035 32.9443 91.6403 32.252 91.6403 31.4607C91.6403 30.6596 91.8035 29.9672 92.1299 29.3837C92.4563 28.7902 92.8865 28.3303 93.4206 28.0039C93.9547 27.6775 94.5429 27.5143 95.1861 27.5143C95.7202 27.5143 96.195 27.6231 96.6104 27.8407C97.0354 28.0583 97.367 28.3451 97.6044 28.7012H97.6934V27.7517H99.2215V34.9175C99.2215 35.7385 99.0583 36.4358 98.7319 37.0094C98.4151 37.5831 97.9753 38.0183 97.4115 38.315C96.8477 38.6117 96.195 38.7601 95.4531 38.7601ZM95.468 33.9384C95.8633 33.9384 96.229 33.8444 96.5659 33.6565C96.9019 33.4586 97.1741 33.1767 97.3818 32.8108C97.5896 32.4349 97.6934 31.985 97.6934 31.4607C97.6934 30.9168 97.5896 30.4617 97.3818 30.0958C97.1741 29.7199 96.9019 29.438 96.5659 29.2501C96.229 29.0622 95.8633 28.9683 95.468 28.9683C95.0718 28.9683 94.7009 29.0671 94.3553 29.265C94.0184 29.4529 93.747 29.7299 93.5393 30.0958C93.3316 30.4617 93.2277 30.9168 93.2277 31.4607C93.2277 31.9948 93.3316 32.4498 93.5393 32.8256C93.747 33.1916 94.0184 33.4686 94.3553 33.6565C94.7009 33.8444 95.0718 33.9384 95.468 33.9384ZM101.111 35.3181V24.6954H102.713V35.3181H101.111ZM107.986 35.5555C107.244 35.5555 106.582 35.3824 105.998 35.0362C105.415 34.69 104.955 34.2153 104.618 33.612C104.292 33.0087 104.129 32.3212 104.129 31.5497C104.129 30.8277 104.288 30.1601 104.604 29.5469C104.92 28.9336 105.36 28.444 105.924 28.0781C106.498 27.7022 107.155 27.5143 107.897 27.5143C108.679 27.5143 109.342 27.6825 109.885 28.0187C110.439 28.355 110.86 28.8149 111.146 29.3985C111.433 29.9821 111.577 30.6398 111.577 31.3717C111.577 31.4805 111.572 31.5794 111.562 31.6684C111.562 31.7574 111.557 31.8267 111.547 31.8761H105.701C105.781 32.6278 106.043 33.1916 106.488 33.5675C106.943 33.9433 107.457 34.1312 108.031 34.1312C108.546 34.1312 108.971 34.0175 109.307 33.79C109.643 33.5526 109.911 33.2609 110.108 32.9147L111.428 33.5526C111.102 34.1461 110.657 34.6307 110.093 35.0066C109.529 35.3725 108.827 35.5555 107.986 35.5555ZM107.912 28.8792C107.378 28.8792 106.923 29.0424 106.547 29.3688C106.172 29.6952 105.92 30.1304 105.79 30.6744H109.989C109.97 30.4172 109.885 30.1502 109.737 29.8733C109.588 29.5963 109.362 29.3639 109.054 29.176C108.758 28.9781 108.377 28.8792 107.912 28.8792ZM118.098 35.3181L115.25 24.6954H117.06L118.751 31.5942L118.929 32.5141H119.018L119.241 31.5942L121.377 24.6954H123.009L125.056 31.5942L125.279 32.4993H125.368L125.546 31.5942L127.237 24.6954H129.033L126.229 35.3181H124.508L122.475 28.271L122.238 27.2769H122.149L121.896 28.271L119.775 35.3181H118.098ZM132.012 35.5555C131.468 35.5555 130.983 35.4516 130.558 35.2439C130.133 35.0264 129.801 34.7247 129.564 34.3389C129.327 33.9532 129.208 33.5131 129.208 33.0185C129.208 32.4844 129.347 32.0295 129.623 31.6536C129.91 31.2679 130.291 30.9761 130.766 30.7783C131.241 30.5804 131.765 30.4815 132.338 30.4815C132.813 30.4815 133.229 30.526 133.585 30.6151C133.95 30.7041 134.228 30.7981 134.415 30.8969V30.4964C134.415 30.0018 134.237 29.6062 133.881 29.3095C133.525 29.0128 133.065 28.8644 132.502 28.8644C132.116 28.8644 131.75 28.9534 131.404 29.1314C131.057 29.2996 130.781 29.532 130.573 29.8287L129.475 28.9831C129.801 28.5281 130.232 28.1721 130.766 27.9149C131.309 27.6478 131.903 27.5143 132.546 27.5143C133.644 27.5143 134.49 27.7863 135.083 28.3303C135.677 28.8644 135.973 29.6161 135.973 30.5854V35.3181H134.415V34.3834H134.326C134.128 34.69 133.832 34.962 133.436 35.1994C133.041 35.4368 132.566 35.5555 132.012 35.5555ZM132.294 34.2499C132.709 34.2499 133.075 34.151 133.392 33.9532C133.709 33.7553 133.956 33.4982 134.134 33.1817C134.321 32.8553 134.415 32.5042 134.415 32.1283C134.188 31.9998 133.921 31.8959 133.614 31.8168C133.308 31.7278 132.982 31.6833 132.635 31.6833C131.982 31.6833 131.517 31.8168 131.241 32.0838C130.964 32.341 130.825 32.6575 130.825 33.0334C130.825 33.3894 130.959 33.6812 131.226 33.9087C131.493 34.1362 131.849 34.2499 132.294 34.2499ZM137.752 35.3181V24.6954H139.354V35.3181H137.752ZM141.258 35.3181V24.6954H142.861V35.3181H141.258ZM148.134 35.5555C147.392 35.5555 146.729 35.3824 146.146 35.0362C145.563 34.69 145.103 34.2153 144.766 33.612C144.439 33.0087 144.276 32.3212 144.276 31.5497C144.276 30.8277 144.435 30.1601 144.751 29.5469C145.068 28.9336 145.508 28.444 146.071 28.0781C146.646 27.7022 147.303 27.5143 148.045 27.5143C148.827 27.5143 149.489 27.6825 150.033 28.0187C150.587 28.355 151.007 28.8149 151.294 29.3985C151.581 29.9821 151.724 30.6398 151.724 31.3717C151.724 31.4805 151.72 31.5794 151.709 31.6684C151.709 31.7574 151.705 31.8267 151.694 31.8761H145.849C145.928 32.6278 146.19 33.1916 146.635 33.5675C147.091 33.9433 147.605 34.1312 148.178 34.1312C148.693 34.1312 149.118 34.0175 149.454 33.79C149.791 33.5526 150.058 33.2609 150.255 32.9147L151.576 33.5526C151.249 34.1461 150.804 34.6307 150.24 35.0066C149.677 35.3725 148.975 35.5555 148.134 35.5555ZM148.059 28.8792C147.525 28.8792 147.071 29.0424 146.695 29.3688C146.319 29.6952 146.067 30.1304 145.938 30.6744H150.137C150.117 30.4172 150.033 30.1502 149.884 29.8733C149.736 29.5963 149.509 29.3639 149.202 29.176C148.905 28.9781 148.525 28.8792 148.059 28.8792ZM153.795 33.1224V29.1463H152.475V27.7517H153.795V25.6153H155.397V27.7517H157.252V29.1463H155.397V32.7811C155.397 33.157 155.471 33.4438 155.62 33.6416C155.778 33.8395 156.04 33.9384 156.406 33.9384C156.594 33.9384 156.752 33.9137 156.881 33.8642C157.019 33.8147 157.157 33.7455 157.296 33.6565V35.2143C157.128 35.2835 156.95 35.3379 156.762 35.3775C156.574 35.417 156.351 35.4368 156.095 35.4368C155.392 35.4368 154.833 35.2341 154.418 34.8285C154.003 34.4131 153.795 33.8444 153.795 33.1224Z" fill="white"/>
<defs>
<linearGradient id="paint0_linear_3167_6553" x1="33.7116" y1="28.8119" x2="17.5646" y2="47.7305" gradientUnits="userSpaceOnUse">
<stop stop-color="#4285F4"/>
<stop offset="1" stop-color="#1B74E8"/>
</linearGradient>
</defs>
</svg>
