<svg width="174" height="48" viewBox="0 0 174 48" fill="none" xmlns="http://www.w3.org/2000/svg">
<g clip-path="url(#clip0_2883_422)">
<path d="M149.67 0.436371H23.9997C10.986 0.436371 0.436401 10.986 0.436401 23.9996C0.436401 37.0133 10.986 47.5629 23.9997 47.5629H149.67C162.684 47.5629 173.234 37.0133 173.234 23.9996C173.234 10.986 162.684 0.436371 149.67 0.436371Z" fill="#1F1F1F"/>
<path d="M49.7447 20.7627H18.327V15.8359C18.327 13.1613 20.6329 10.909 23.3711 10.909H44.7006C47.4388 10.909 49.7447 13.1613 49.7447 15.8359V20.7627Z" fill="#34A853"/>
<path d="M49.7447 25.3087H18.327V20.0724C18.327 17.2299 20.6329 14.8361 23.3711 14.8361H44.7006C47.4388 14.8361 49.7447 17.2299 49.7447 20.0724V25.3087Z" fill="#FBBC04"/>
<path d="M49.7447 29.6723H18.327V24.436C18.327 21.5935 20.6329 19.1997 23.3711 19.1997H44.7006C47.4388 19.1997 49.7447 21.5935 49.7447 24.436V29.6723Z" fill="#EA4335"/>
<path d="M18.327 22.0281L38.2679 26.5327C40.5633 27.0958 43.1456 26.5327 45.0105 25.125L49.7447 21.7466V32.3041C49.7447 34.9787 47.4494 37.0903 44.7236 37.0903H23.3481C20.6224 37.0903 18.327 34.9787 18.327 32.3041V22.0281Z" fill="url(#paint0_linear_2883_422)"/>
<path d="M60.3875 18.7634L63.4507 10.6401H64.8688L67.9434 18.7634H66.5706L65.8218 16.6758H62.509L61.7602 18.7634H60.3875ZM63.8251 13.034L62.9288 15.5186H65.4021L64.5058 13.034L64.1995 12.1037H64.1314L63.8251 13.034ZM71.1387 18.9449C70.6168 18.9449 70.1441 18.8163 69.7205 18.5591C69.3046 18.2944 68.9717 17.9314 68.7221 17.47C68.4801 17.0011 68.3591 16.4679 68.3591 15.8703C68.3591 15.2728 68.4801 14.7434 68.7221 14.282C68.9717 13.8206 69.3046 13.4575 69.7205 13.1928C70.1441 12.9281 70.6168 12.7957 71.1387 12.7957C71.585 12.7957 71.9669 12.8941 72.2845 13.0907C72.6098 13.2873 72.8481 13.5105 72.9993 13.7601H73.0674L72.9993 12.9546V10.6401H74.2132V18.7634H73.0674V17.9919H72.9993C72.8481 18.2415 72.6098 18.4646 72.2845 18.6612C71.9669 18.8504 71.585 18.9449 71.1387 18.9449ZM71.3202 17.8217C71.6228 17.8217 71.9064 17.7423 72.1711 17.5834C72.4434 17.4246 72.6589 17.2015 72.8178 16.9141C72.9842 16.6191 73.0674 16.2711 73.0674 15.8703C73.0674 15.4695 72.9842 15.1253 72.8178 14.8379C72.6589 14.5429 72.4434 14.316 72.1711 14.1572C71.9064 13.9983 71.6228 13.9189 71.3202 13.9189C71.0177 13.9189 70.7341 13.9983 70.4693 14.1572C70.2046 14.316 69.989 14.5429 69.8226 14.8379C69.6563 15.1253 69.573 15.4695 69.573 15.8703C69.573 16.2711 69.6563 16.6191 69.8226 16.9141C69.989 17.2015 70.2046 17.4246 70.4693 17.5834C70.7341 17.7423 71.0177 17.8217 71.3202 17.8217ZM78.0744 18.9449C77.5525 18.9449 77.0798 18.8163 76.6562 18.5591C76.2402 18.2944 75.9074 17.9314 75.6578 17.47C75.4158 17.0011 75.2948 16.4679 75.2948 15.8703C75.2948 15.2728 75.4158 14.7434 75.6578 14.282C75.9074 13.8206 76.2402 13.4575 76.6562 13.1928C77.0798 12.9281 77.5525 12.7957 78.0744 12.7957C78.5206 12.7957 78.9026 12.8941 79.2203 13.0907C79.5455 13.2873 79.7838 13.5105 79.935 13.7601H80.0031L79.935 12.9546V10.6401H81.149V18.7634H80.0031V17.9919H79.935C79.7838 18.2415 79.5455 18.4646 79.2203 18.6612C78.9026 18.8504 78.5206 18.9449 78.0744 18.9449ZM78.2559 17.8217C78.5585 17.8217 78.8421 17.7423 79.1068 17.5834C79.3791 17.4246 79.5947 17.2015 79.7535 16.9141C79.9199 16.6191 80.0031 16.2711 80.0031 15.8703C80.0031 15.4695 79.9199 15.1253 79.7535 14.8379C79.5947 14.5429 79.3791 14.316 79.1068 14.1572C78.8421 13.9983 78.5585 13.9189 78.2559 13.9189C77.9533 13.9189 77.6697 13.9983 77.405 14.1572C77.1403 14.316 76.9248 14.5429 76.7583 14.8379C76.5919 15.1253 76.5087 15.4695 76.5087 15.8703C76.5087 16.2711 76.5919 16.6191 76.7583 16.9141C76.9248 17.2015 77.1403 17.4246 77.405 17.5834C77.6697 17.7423 77.9533 17.8217 78.2559 17.8217ZM85.8528 17.0843V14.0437H84.8431V12.9773H85.8528V11.3435H87.0781V12.9773H88.4967V14.0437H87.0781V16.8233C87.0781 17.1107 87.1348 17.3301 87.2483 17.4813C87.3691 17.6326 87.5699 17.7082 87.85 17.7082C87.9931 17.7082 88.1144 17.6893 88.2131 17.6515C88.3187 17.6137 88.4242 17.5608 88.5307 17.4927V18.6839C88.4016 18.7369 88.2654 18.7785 88.1223 18.8087C87.9783 18.839 87.8081 18.8541 87.6117 18.8541C87.0743 18.8541 86.647 18.699 86.3293 18.389C86.0116 18.0713 85.8528 17.6364 85.8528 17.0843ZM92.1734 18.9449C91.5756 18.9449 91.0502 18.8087 90.5964 18.5364C90.1426 18.2642 89.7866 17.8974 89.53 17.436C89.2725 16.9746 89.1442 16.4527 89.1442 15.8703C89.1442 15.2955 89.2725 14.7774 89.53 14.316C89.7866 13.8471 90.1426 13.4765 90.5964 13.2042C91.0502 12.9319 91.5756 12.7957 92.1734 12.7957C92.7634 12.7957 93.2853 12.9319 93.7391 13.2042C94.1929 13.4765 94.5481 13.8471 94.8055 14.316C95.0621 14.7774 95.1913 15.2955 95.1913 15.8703C95.1913 16.4527 95.0621 16.9746 94.8055 17.436C94.5481 17.8974 94.1929 18.2642 93.7391 18.5364C93.2853 18.8087 92.7634 18.9449 92.1734 18.9449ZM92.1734 17.8217C92.4911 17.8217 92.7861 17.746 93.0584 17.5948C93.3306 17.436 93.5497 17.2128 93.7164 16.9254C93.8901 16.6304 93.9773 16.2787 93.9773 15.8703C93.9773 15.4619 93.8901 15.1139 93.7164 14.8265C93.5497 14.5316 93.3306 14.3084 93.0584 14.1572C92.7861 13.9983 92.4911 13.9189 92.1734 13.9189C91.8558 13.9189 91.5564 13.9983 91.2771 14.1572C91.0049 14.3084 90.7814 14.5316 90.6078 14.8265C90.4411 15.1139 90.3582 15.4619 90.3582 15.8703C90.3582 16.2787 90.4411 16.6304 90.6078 16.9254C90.7814 17.2128 91.0049 17.436 91.2771 17.5948C91.5564 17.746 91.8558 17.8217 92.1734 17.8217Z" fill="white"/>
<path d="M66.4484 36.455C65.6868 36.455 64.9698 36.3165 64.2972 36.0396C63.6345 35.7627 63.046 35.3769 62.5317 34.8824C62.0174 34.3779 61.6119 33.7895 61.3151 33.1169C61.0283 32.4344 60.8849 31.6976 60.8849 30.9063C60.8849 30.115 61.0283 29.3831 61.3151 28.7105C61.6119 28.0281 62.0124 27.4396 62.5169 26.945C63.0312 26.4406 63.6246 26.0499 64.2972 25.773C64.9698 25.4961 65.6868 25.3576 66.4484 25.3576C67.2594 25.3576 68.0062 25.501 68.6887 25.7878C69.381 26.0747 69.9596 26.4753 70.4245 26.9895L69.297 28.1023C68.9508 27.7165 68.5354 27.4198 68.0507 27.2121C67.576 27.0044 67.0419 26.9005 66.4484 26.9005C65.7462 26.9005 65.0984 27.0687 64.5049 27.405C63.9115 27.7314 63.4317 28.1962 63.0658 28.7996C62.7097 29.393 62.5317 30.0953 62.5317 30.9063C62.5317 31.7173 62.7147 32.4245 63.0806 33.0279C63.4466 33.6213 63.9263 34.0862 64.5197 34.4225C65.1132 34.7488 65.761 34.912 66.4633 34.912C67.1062 34.912 67.6897 34.7934 68.2139 34.556C68.7382 34.3087 69.1585 33.9625 69.475 33.5174C69.8014 33.0724 69.9992 32.5383 70.0685 31.9151H66.4336V30.476H71.5966C71.6559 30.7431 71.6856 31.025 71.6856 31.3217V31.3365C71.6856 32.3652 71.4581 33.2652 71.0031 34.0367C70.558 34.7983 69.9399 35.3918 69.1486 35.817C68.3573 36.2423 67.4573 36.455 66.4484 36.455ZM76.4627 36.455C75.6813 36.455 74.994 36.277 74.4005 35.9209C73.8071 35.5648 73.3422 35.0851 73.0059 34.4818C72.6696 33.8785 72.5015 33.196 72.5015 32.4344C72.5015 31.6827 72.6696 31.0052 73.0059 30.4019C73.3422 29.7886 73.8071 29.304 74.4005 28.9479C74.994 28.5918 75.6813 28.4138 76.4627 28.4138C77.2342 28.4138 77.9167 28.5918 78.5101 28.9479C79.1036 29.304 79.5684 29.7886 79.9047 30.4019C80.241 31.0052 80.4092 31.6827 80.4092 32.4344C80.4092 33.196 80.241 33.8785 79.9047 34.4818C79.5684 35.0851 79.1036 35.5648 78.5101 35.9209C77.9167 36.277 77.2342 36.455 76.4627 36.455ZM76.4627 34.9862C76.8781 34.9862 77.2639 34.8873 77.62 34.6895C77.976 34.4818 78.2628 34.19 78.4805 33.8142C78.7079 33.4284 78.8217 32.9685 78.8217 32.4344C78.8217 31.9003 78.7079 31.4454 78.4805 31.0695C78.2628 30.6837 77.976 30.392 77.62 30.1942C77.2639 29.9864 76.8781 29.8826 76.4627 29.8826C76.0473 29.8826 75.6566 29.9864 75.2907 30.1942C74.9346 30.392 74.6428 30.6837 74.4153 31.0695C74.1977 31.4454 74.089 31.9003 74.089 32.4344C74.089 32.9685 74.1977 33.4284 74.4153 33.8142C74.6428 34.19 74.9346 34.4818 75.2907 34.6895C75.6566 34.8873 76.0473 34.9862 76.4627 34.9862ZM85.4455 36.455C84.6642 36.455 83.9767 36.277 83.3833 35.9209C82.7898 35.5648 82.325 35.0851 81.9887 34.4818C81.6524 33.8785 81.4842 33.196 81.4842 32.4344C81.4842 31.6827 81.6524 31.0052 81.9887 30.4019C82.325 29.7886 82.7898 29.304 83.3833 28.9479C83.9767 28.5918 84.6642 28.4138 85.4455 28.4138C86.217 28.4138 86.8994 28.5918 87.493 28.9479C88.0865 29.304 88.5517 29.7886 88.8876 30.4019C89.2236 31.0052 89.3921 31.6827 89.3921 32.4344C89.3921 33.196 89.2236 33.8785 88.8876 34.4818C88.5517 35.0851 88.0865 35.5648 87.493 35.9209C86.8994 36.277 86.217 36.455 85.4455 36.455ZM85.4455 34.9862C85.8609 34.9862 86.2466 34.8873 86.6027 34.6895C86.9588 34.4818 87.2456 34.19 87.4634 33.8142C87.6912 33.4284 87.8046 32.9685 87.8046 32.4344C87.8046 31.9003 87.6912 31.4454 87.4634 31.0695C87.2456 30.6837 86.9588 30.392 86.6027 30.1942C86.2466 29.9864 85.8609 29.8826 85.4455 29.8826C85.0301 29.8826 84.6395 29.9864 84.2734 30.1942C83.9174 30.392 83.6256 30.6837 83.3981 31.0695C83.1805 31.4454 83.0717 31.9003 83.0717 32.4344C83.0717 32.9685 83.1805 33.4284 83.3981 33.8142C83.6256 34.19 83.9174 34.4818 84.2734 34.6895C84.6395 34.8873 85.0301 34.9862 85.4455 34.9862ZM94.2801 39.6596C93.6169 39.6596 93.0435 39.5508 92.5592 39.3332C92.0844 39.1255 91.6987 38.8535 91.4019 38.5172C91.1052 38.1908 90.8923 37.8546 90.764 37.5084L92.2476 36.8852C92.4056 37.2808 92.6578 37.6024 93.0042 37.8496C93.3603 38.1068 93.7853 38.2353 94.2801 38.2353C94.9722 38.2353 95.5159 38.0276 95.9121 37.6122C96.3171 37.1968 96.5204 36.6083 96.5204 35.8467V35.1197H96.4314C96.194 35.4758 95.8624 35.7627 95.4374 35.9802C95.022 36.1879 94.5472 36.2918 94.0131 36.2918C93.3699 36.2918 92.7817 36.1286 92.2476 35.8022C91.7135 35.4758 91.2832 35.0209 90.9569 34.4373C90.6305 33.8438 90.4673 33.1515 90.4673 32.3602C90.4673 31.5591 90.6305 30.8668 90.9569 30.2832C91.2832 29.6897 91.7135 29.2298 92.2476 28.9034C92.7817 28.577 93.3699 28.4138 94.0131 28.4138C94.5472 28.4138 95.022 28.5226 95.4374 28.7402C95.8624 28.9578 96.194 29.2446 96.4314 29.6007H96.5204V28.6512H98.0485V35.817C98.0485 36.638 97.8853 37.3353 97.5589 37.9089C97.2421 38.4826 96.8023 38.9178 96.2385 39.2145C95.6747 39.5112 95.0219 39.6596 94.2801 39.6596ZM94.295 34.8379C94.6903 34.8379 95.056 34.7439 95.3929 34.556C95.7289 34.3581 96.0011 34.0762 96.2088 33.7103C96.4165 33.3344 96.5204 32.8845 96.5204 32.3602C96.5204 31.8163 96.4165 31.3612 96.2088 30.9953C96.0011 30.6194 95.7289 30.3375 95.3929 30.1496C95.056 29.9617 94.6903 29.8678 94.295 29.8678C93.8988 29.8678 93.5279 29.9666 93.1823 30.1645C92.8454 30.3524 92.574 30.6294 92.3663 30.9953C92.1586 31.3612 92.0547 31.8163 92.0547 32.3602C92.0547 32.8943 92.1586 33.3493 92.3663 33.7252C92.574 34.0911 92.8454 34.3681 93.1823 34.556C93.5279 34.7439 93.8988 34.8379 94.295 34.8379ZM99.9379 36.2176V25.595H101.54V36.2176H99.9379ZM106.813 36.455C106.071 36.455 105.409 36.2819 104.825 35.9357C104.242 35.5895 103.782 35.1148 103.445 34.5115C103.119 33.9082 102.956 33.2207 102.956 32.4492C102.956 31.7272 103.115 31.0596 103.431 30.4464C103.747 29.8331 104.187 29.3435 104.751 28.9776C105.325 28.6017 105.982 28.4138 106.724 28.4138C107.506 28.4138 108.169 28.582 108.712 28.9182C109.266 29.2545 109.687 29.7144 109.973 30.298C110.26 30.8816 110.404 31.5393 110.404 32.2712C110.404 32.38 110.399 32.4789 110.389 32.5679C110.389 32.657 110.384 32.7262 110.374 32.7756H104.528C104.608 33.5273 104.87 34.0911 105.315 34.467C105.77 34.8428 106.284 35.0307 106.858 35.0307C107.373 35.0307 107.798 34.917 108.134 34.6895C108.47 34.4521 108.738 34.1604 108.935 33.8142L110.255 34.4521C109.929 35.0456 109.484 35.5302 108.92 35.9061C108.356 36.272 107.654 36.455 106.813 36.455ZM106.739 29.7787C106.205 29.7787 105.75 29.9419 105.374 30.2683C104.999 30.5947 104.747 31.03 104.617 31.5739H108.816C108.797 31.3167 108.712 31.0497 108.564 30.7728C108.415 30.4959 108.189 30.2634 107.881 30.0755C107.585 29.8776 107.204 29.7787 106.739 29.7787ZM116.925 36.2176L114.077 25.595H115.887L117.578 32.4938L117.756 33.4136H117.845L118.068 32.4938L120.204 25.595H121.836L123.883 32.4938L124.106 33.3988H124.195L124.373 32.4938L126.064 25.595H127.86L125.056 36.2176H123.335L121.302 29.1705L121.065 28.1764H120.976L120.723 29.1705L118.602 36.2176H116.925ZM130.839 36.455C130.295 36.455 129.81 36.3511 129.385 36.1434C128.96 35.9259 128.628 35.6242 128.391 35.2384C128.154 34.8527 128.035 34.4126 128.035 33.918C128.035 33.3839 128.174 32.929 128.45 32.5531C128.737 32.1674 129.118 31.8756 129.593 31.6778C130.068 31.4799 130.592 31.381 131.165 31.381C131.64 31.381 132.056 31.4256 132.412 31.5146C132.777 31.6036 133.055 31.6976 133.242 31.7965V31.3959C133.242 30.9013 133.064 30.5057 132.708 30.209C132.352 29.9123 131.892 29.7639 131.329 29.7639C130.943 29.7639 130.577 29.8529 130.231 30.031C129.884 30.1991 129.608 30.4315 129.4 30.7283L128.302 29.8826C128.628 29.4276 129.059 29.0716 129.593 28.8144C130.136 28.5473 130.73 28.4138 131.373 28.4138C132.471 28.4138 133.317 28.6858 133.91 29.2298C134.504 29.7639 134.8 30.5156 134.8 31.4849V36.2176H133.242V35.2829H133.153C132.955 35.5895 132.659 35.8616 132.263 36.0989C131.868 36.3363 131.393 36.455 130.839 36.455ZM131.121 35.1494C131.536 35.1494 131.902 35.0505 132.219 34.8527C132.536 34.6549 132.783 34.3977 132.961 34.0812C133.148 33.7548 133.242 33.4037 133.242 33.0279C133.015 32.8993 132.748 32.7954 132.441 32.7163C132.135 32.6273 131.809 32.5828 131.462 32.5828C130.809 32.5828 130.344 32.7163 130.068 32.9833C129.791 33.2405 129.652 33.557 129.652 33.9329C129.652 34.2889 129.786 34.5807 130.053 34.8082C130.32 35.0357 130.676 35.1494 131.121 35.1494ZM136.579 36.2176V25.595H138.181V36.2176H136.579ZM140.085 36.2176V25.595H141.688V36.2176H140.085ZM146.961 36.455C146.219 36.455 145.556 36.2819 144.973 35.9357C144.39 35.5895 143.93 35.1148 143.593 34.5115C143.266 33.9082 143.103 33.2207 143.103 32.4492C143.103 31.7272 143.262 31.0596 143.578 30.4464C143.895 29.8331 144.335 29.3435 144.898 28.9776C145.473 28.6017 146.13 28.4138 146.872 28.4138C147.654 28.4138 148.316 28.582 148.86 28.9182C149.414 29.2545 149.834 29.7144 150.121 30.298C150.408 30.8816 150.551 31.5393 150.551 32.2712C150.551 32.38 150.547 32.4789 150.536 32.5679C150.536 32.657 150.532 32.7262 150.521 32.7756H144.676C144.755 33.5273 145.017 34.0911 145.462 34.467C145.918 34.8428 146.432 35.0307 147.005 35.0307C147.52 35.0307 147.945 34.917 148.281 34.6895C148.618 34.4521 148.885 34.1604 149.082 33.8142L150.403 34.4521C150.076 35.0456 149.631 35.5302 149.067 35.9061C148.504 36.272 147.802 36.455 146.961 36.455ZM146.886 29.7787C146.352 29.7787 145.898 29.9419 145.522 30.2683C145.146 30.5947 144.894 31.03 144.765 31.5739H148.964C148.944 31.3167 148.86 31.0497 148.711 30.7728C148.563 30.4959 148.336 30.2634 148.029 30.0755C147.732 29.8776 147.352 29.7787 146.886 29.7787ZM152.622 34.0219V30.0458H151.302V28.6512H152.622V26.5148H154.224V28.6512H156.079V30.0458H154.224V33.6806C154.224 34.0565 154.298 34.3433 154.447 34.5411C154.605 34.739 154.867 34.8379 155.233 34.8379C155.421 34.8379 155.579 34.8132 155.708 34.7637C155.846 34.7142 155.984 34.645 156.123 34.556V36.1138C155.955 36.183 155.777 36.2374 155.589 36.277C155.401 36.3165 155.178 36.3363 154.922 36.3363C154.219 36.3363 153.66 36.1336 153.245 35.728C152.83 35.3126 152.622 34.7439 152.622 34.0219Z" fill="white"/>
<path d="M149.67 0.436371H23.9997C10.986 0.436371 0.436401 10.986 0.436401 23.9996C0.436401 37.0133 10.986 47.5629 23.9997 47.5629H149.67C162.684 47.5629 173.234 37.0133 173.234 23.9996C173.234 10.986 162.684 0.436371 149.67 0.436371Z" stroke="#747775"/>
</g>
<defs>
<linearGradient id="paint0_linear_2883_422" x1="32.5386" y1="29.7114" x2="16.3916" y2="48.63" gradientUnits="userSpaceOnUse">
<stop stop-color="#4285F4"/>
<stop offset="1" stop-color="#1B74E8"/>
</linearGradient>
<clipPath id="clip0_2883_422">
<rect width="173.67" height="47.9992" fill="white"/>
</clipPath>
</defs>
</svg>
