<svg preserveAspectRatio="none" width="100%" height="100%" overflow="visible" style="display: block;" viewBox="0 0 228.452 159.048" fill="none" xmlns="http://www.w3.org/2000/svg">
<g id="bottom">
<path id="Union" d="M181.662 0.133893C181.971 -0.044551 182.353 -0.0446776 182.662 0.133893C182.971 0.312509 183.162 0.64291 183.162 1.0001V13.4962L205.288 26.2716C205.294 26.2749 205.301 26.2779 205.307 26.2814L227.952 39.3556C228.261 39.5342 228.452 39.8646 228.452 40.2218C228.452 40.579 228.261 40.9094 227.952 41.088L205.31 54.1593C205.308 54.1602 205.307 54.1623 205.306 54.1632L183.162 66.9483V79.4454C183.162 79.4717 183.158 79.4976 183.156 79.5235C183.158 79.5498 183.162 79.576 183.162 79.6026V92.0987L205.306 104.885L227.952 117.959C228.261 118.138 228.452 118.468 228.452 118.825C228.452 119.182 228.261 119.513 227.952 119.692L205.306 132.766L183.162 145.551V158.048C183.162 158.405 182.971 158.735 182.662 158.914C182.353 159.093 181.971 159.093 181.662 158.914L160.517 146.705V158.048C160.517 158.405 160.326 158.736 160.017 158.914C159.707 159.093 159.326 159.093 159.017 158.914L136.87 146.128L114.725 158.914C114.415 159.093 114.034 159.093 113.725 158.914C113.415 158.736 113.225 158.405 113.225 158.048V146.705L92.0811 158.914L91.9619 158.973C91.6775 159.09 91.3518 159.07 91.0811 158.914L69.9355 146.705V158.048C69.9355 158.405 69.7448 158.736 69.4355 158.914C69.1262 159.093 68.7449 159.093 68.4355 158.914L46.29 146.128L24.1445 158.914C23.8351 159.093 23.4539 159.093 23.1445 158.914C22.8352 158.736 22.6446 158.405 22.6445 158.048V146.705L1.5 158.914C1.19062 159.093 0.809385 159.093 0.5 158.914C0.190662 158.736 2.71407e-05 158.405 0 158.048V131.9C0 131.542 0.190621 131.212 0.5 131.033L21.6436 118.825L0.5 106.617C0.190647 106.439 5.6296e-05 106.108 0 105.751V79.6026C1.09013e-05 79.5761 0.00279169 79.5498 0.00488281 79.5235C0.00284343 79.4976 9.17496e-06 79.4717 0 79.4454V53.297C4.88366e-05 52.9398 0.190641 52.6094 0.5 52.4308L21.6436 40.2228L0.5 28.0148C0.190726 27.8362 0.000153246 27.5056 0 27.1485V1.0001C4.94712e-05 0.642891 0.190638 0.312503 0.5 0.133893C0.809329 -0.0446312 1.19067 -0.0446311 1.5 0.133893L22.6445 12.3419V1.0001C22.6446 0.642893 22.8352 0.312503 23.1445 0.133893C23.4539 -0.044631 23.8352 -0.0446313 24.1445 0.133893L46.29 12.919L68.4355 0.133893C68.7449 -0.0445763 69.1262 -0.0446315 69.4355 0.133893C69.7449 0.312513 69.9355 0.64292 69.9355 1.0001V12.3419L91.0811 0.133893C91.3904 -0.0446312 91.7717 -0.0446311 92.0811 0.133893L113.225 12.3409V1.0001C113.225 0.642893 113.415 0.312503 113.725 0.133893C114.034 -0.044631 114.415 -0.0446313 114.725 0.133893L136.87 12.919L159.017 0.133893C159.326 -0.0445758 159.707 -0.0446078 160.017 0.133893C160.326 0.312513 160.517 0.64292 160.517 1.0001V12.3419L181.662 0.133893ZM2 145.551V156.317L22.6445 144.397V133.631L2 145.551ZM24.6445 145.551V156.317L45.29 144.397V133.631L24.6445 145.551ZM47.29 144.397L67.9355 156.317V145.551L47.29 133.631V144.397ZM69.9355 144.397L90.5811 156.317V145.551L69.9355 133.631V144.397ZM92.5811 145.551V156.317L113.225 144.397V133.632L92.5811 145.551ZM115.225 145.551V156.317L135.87 144.397V133.631L115.225 145.551ZM137.871 144.397L158.517 156.317V145.551L137.871 133.631V144.397ZM160.517 144.397L181.162 156.317V145.551L160.517 133.631V144.397ZM2 132.477V143.242L22.6445 131.321V120.557L2 132.477ZM24.6445 132.477V143.242L45.29 131.321V120.557L24.6445 132.477ZM47.29 131.321L67.9355 143.242V132.477L47.29 120.557V131.321ZM69.9355 131.321L90.5811 143.242V132.477L69.9355 120.557V131.321ZM92.5811 132.477V143.242L113.226 131.321V120.557L92.5811 132.477ZM137.871 131.321L158.517 143.242V132.477L137.871 120.557V131.321ZM115.226 132.476V143.241L135.87 131.321V120.557L115.226 132.476ZM160.517 131.321L181.161 143.241V132.476L160.517 120.557V131.321ZM183.162 132.476V143.241L203.806 131.321V120.557L183.162 132.476ZM70.9355 118.825L91.5801 130.744L112.225 118.825L91.5801 106.905L70.9355 118.825ZM161.517 118.825L182.161 130.744L202.805 118.824L182.161 106.905L161.517 118.825ZM24.6445 130.167L44.2891 118.824L24.6445 107.483V130.167ZM48.29 118.824L67.9355 130.167V107.483L48.29 118.824ZM138.871 118.824L158.517 130.167V107.483L138.871 118.824ZM205.807 130.167L225.451 118.825L205.807 107.483V130.167ZM115.226 130.166L134.87 118.824L115.226 107.484V130.166ZM2 105.173L22.6445 117.093V106.328L2 94.4083V105.173ZM24.6445 105.173L45.29 117.093V106.328L24.6445 94.4083V105.173ZM47.29 106.328V117.093L67.9355 105.173V94.4083L47.29 106.328ZM69.9355 106.328V117.093L90.5811 105.173V94.4083L69.9355 106.328ZM92.5811 105.173L113.226 117.093V106.328L92.5811 94.4083V105.173ZM115.226 105.173L135.87 117.093V106.328L115.226 94.4083V105.173ZM137.871 106.328V117.093L158.517 105.173V94.4083L137.871 106.328ZM160.517 106.328V117.093L181.161 105.173V94.4083L160.517 106.328ZM183.162 105.173L203.806 117.093V106.328L183.162 94.4083V105.173ZM2 92.0987L22.6445 104.019V93.254L2 81.3341V92.0987ZM24.6445 92.0987L45.29 104.019V93.254L24.6445 81.3341V92.0987ZM47.29 93.254V104.019L67.9355 92.0987V81.3341L47.29 93.254ZM69.9355 93.254V104.019L90.5811 92.0987V81.3341L69.9355 93.254ZM137.871 93.254V104.019L158.517 92.0987V81.3341L137.871 93.254ZM160.517 93.254V104.019L181.162 92.0987V81.3341L160.517 93.254ZM92.5811 92.0987L104.679 99.0841L113.225 104.018V93.253L92.5811 81.3341V92.0987ZM115.225 92.0987L119.225 94.4083L135.87 104.018V93.254L115.225 81.3341V92.0987ZM25.5078 79.5235L46.2891 91.5216L67.0713 79.5235L46.29 67.5255L25.5078 79.5235ZM116.088 79.5235L136.87 91.5216L157.652 79.5235L136.87 67.5255L116.088 79.5235ZM2.86328 79.5235L22.6445 90.9444V79.6026C22.6445 79.5761 22.6473 79.5498 22.6494 79.5235C22.6474 79.4976 22.6445 79.4717 22.6445 79.4454V68.1026L2.86328 79.5235ZM160.517 79.4454C160.517 79.4717 160.513 79.4976 160.511 79.5235C160.513 79.5498 160.517 79.576 160.517 79.6026V90.9444L180.298 79.5235L160.517 68.1026V79.4454ZM69.9355 79.4454C69.9355 79.4717 69.9317 79.4976 69.9297 79.5235C69.9318 79.5498 69.9355 79.576 69.9355 79.6026V90.9444L89.7168 79.5235L69.9355 68.1026V79.4454ZM93.4443 79.5235L113.225 90.9435V79.6026C113.225 79.5761 113.227 79.5498 113.229 79.5235C113.227 79.4976 113.225 79.4717 113.225 79.4454V68.1036L93.4443 79.5235ZM2 66.9483V77.714L22.6445 65.794V55.0284L2 66.9483ZM24.6445 66.9483V77.714L45.29 65.794V55.0284L24.6445 66.9483ZM47.29 65.794L67.9355 77.714V66.9483L47.29 55.0284V65.794ZM69.9355 65.794L90.5811 77.714V66.9483L69.9355 55.0284V65.794ZM92.5811 66.9483V77.714L113.225 65.794V55.0294L92.5811 66.9483ZM115.225 66.9483V77.714L135.87 65.794V55.0284L115.225 66.9483ZM137.871 65.794L158.517 77.714V66.9483L137.871 55.0284V65.794ZM160.517 65.794L181.162 77.714V66.9483L160.517 55.0284V65.794ZM2 53.8741V64.6398L22.6445 52.7189V41.9542L2 53.8741ZM24.6445 53.8741V64.6398L45.29 52.7189V41.9542L24.6445 53.8741ZM47.29 52.7189L67.9355 64.6398V53.8741L47.29 41.9542V52.7189ZM69.9355 52.7189L90.5811 64.6398V53.8741L69.9355 41.9542V52.7189ZM92.5811 53.8741V64.6398L113.226 52.7189V41.9542L92.5811 53.8741ZM137.871 52.7189L158.517 64.6398V53.8741L137.871 41.9542V52.7189ZM115.226 53.8732V64.6388L135.87 52.7189V41.9542L115.226 53.8732ZM160.517 52.7189L181.161 64.6388V53.8732L160.517 41.9542V52.7189ZM183.162 53.8732V64.6388L203.806 52.7189V41.9542L183.162 53.8732ZM70.9355 40.2228L91.5801 52.1417L112.225 40.2228L91.5801 28.3028L70.9355 40.2228ZM161.517 40.2228L182.161 52.1417L202.805 40.2218L182.161 28.3028L161.517 40.2228ZM24.6445 51.5646L44.2891 40.2218L24.6445 28.88V51.5646ZM48.29 40.2218L67.9355 51.5646V28.88L48.29 40.2218ZM138.871 40.2218L158.517 51.5646V28.88L138.871 40.2218ZM115.226 51.5636L134.87 40.2218L115.226 28.881V51.5636ZM205.807 51.5636L225.451 40.2218L205.807 28.879V51.5636ZM2 26.5704L22.6445 38.4903V27.7257L2 15.8058V26.5704ZM24.6445 26.5704L45.29 38.4903V27.7257L24.6445 15.8058V26.5704ZM47.29 27.7257V38.4903L67.9355 26.5704V15.8058L47.29 27.7257ZM69.9355 27.7257V38.4903L90.5811 26.5704V15.8058L69.9355 27.7257ZM92.5811 26.5704L113.226 38.4903V27.7257L92.5811 15.8058V26.5704ZM115.226 26.5704L135.87 38.4903V27.7257L115.226 15.8058V26.5704ZM137.871 27.7257V38.4903L158.517 26.5704V15.8058L137.871 27.7257ZM160.517 27.7257V38.4903L181.161 26.5704V15.8058L160.517 27.7257ZM183.162 26.5704L203.806 38.4903V27.7257L183.162 15.8058V26.5704ZM2 13.4962L22.6445 25.4161V14.6515L2 2.73155V13.4962ZM24.6445 13.4962L45.29 25.4161V14.6515L24.6445 2.73155V13.4962ZM47.29 14.6515V25.4161L67.9355 13.4962V2.73155L47.29 14.6515ZM69.9355 14.6515V25.4161L90.5811 13.4962V2.73155L69.9355 14.6515ZM137.871 14.6515V25.4161L158.517 13.4962V2.73155L137.871 14.6515ZM160.517 14.6515V25.4161L181.162 13.4962V2.73155L160.517 14.6515ZM92.5811 13.4962L104.679 20.4815L113.225 25.4151V14.6505L92.5811 2.73155V13.4962ZM115.225 13.4962L119.225 15.8058L135.87 25.4151V14.6515L115.225 2.73155V13.4962Z" fill="var(--fill-0, white)"/>
</g>
</svg>
