<svg preserveAspectRatio="none" width="100%" height="100%" overflow="visible" style="display: block;" viewBox="0 0 150 34" fill="none" xmlns="http://www.w3.org/2000/svg">
<g id="Powered by Stripe - black 1" clip-path="url(#clip0_0_17)">
<path id="Vector" d="M146 0H3.73C2.74074 0 1.792 0.392981 1.09249 1.09249C0.392981 1.792 0 2.74074 0 3.73L0 30.27C0 31.2593 0.392981 32.208 1.09249 32.9075C1.792 33.607 2.74074 34 3.73 34H146C147.061 34 148.078 33.5786 148.828 32.8284C149.579 32.0783 150 31.0609 150 30V4C150 2.93913 149.579 1.92172 148.828 1.17157C148.078 0.421427 147.061 0 146 0ZM149 30C149 30.7956 148.684 31.5587 148.121 32.1213C147.559 32.6839 146.796 33 146 33H3.73C3.00677 32.9974 2.31391 32.7089 1.80251 32.1975C1.2911 31.6861 1.00263 30.9932 1 30.27V3.73C1.00263 3.00677 1.2911 2.31391 1.80251 1.80251C2.31391 1.2911 3.00677 1.00263 3.73 1H146C146.796 1 147.559 1.31607 148.121 1.87868C148.684 2.44129 149 3.20435 149 4V30Z" fill="var(--fill-0, black)"/>
<path id="Vector_2" d="M17.0695 11.2402H12.7695V22.0002H14.6895V17.8402H17.0695C19.4695 17.8402 20.9695 16.6802 20.9695 14.5402C20.9695 12.4002 19.4695 11.2402 17.0695 11.2402ZM16.9695 16.2402H14.6895V12.9402H16.9995C18.3795 12.9402 19.1095 13.5302 19.1095 14.5902C19.1095 15.6502 18.3495 16.1902 16.9995 16.1902L16.9695 16.2402Z" fill="var(--fill-0, black)"/>
<path id="Vector_3" d="M25.1 14C24.5743 13.9939 24.0531 14.0979 23.5699 14.3052C23.0868 14.5124 22.6523 14.8185 22.2945 15.2037C21.9366 15.5888 21.6633 16.0446 21.492 16.5417C21.3207 17.0387 21.2553 17.5661 21.3 18.09C21.2531 18.6167 21.3164 19.1474 21.4858 19.6484C21.6552 20.1493 21.9271 20.6095 22.284 20.9996C22.641 21.3898 23.0753 21.7014 23.5592 21.9145C24.0432 22.1277 24.5662 22.2377 25.095 22.2377C25.6238 22.2377 26.1468 22.1277 26.6308 21.9145C27.1147 21.7014 27.549 21.3898 27.906 20.9996C28.2629 20.6095 28.5348 20.1493 28.7042 19.6484C28.8736 19.1474 28.9369 18.6167 28.89 18.09C28.9361 17.5667 28.8721 17.0395 28.702 16.5424C28.5319 16.0453 28.2596 15.5894 27.9025 15.2041C27.5454 14.8187 27.1115 14.5125 26.6288 14.3051C26.1461 14.0977 25.6253 13.9938 25.1 14ZM25.1 20.67C23.88 20.67 23.1 19.67 23.1 18.09C23.1 16.51 23.86 15.51 25.1 15.51C26.34 15.51 27.1 16.51 27.1 18.09C27.1 19.67 26.31 20.66 25.1 20.66V20.67Z" fill="var(--fill-0, black)"/>
<path id="Vector_4" d="M36.7807 19.3499L35.3707 14.1299H33.8907L32.4907 19.3499L31.0707 14.1299H29.2207L31.5907 22.0099H33.1507L34.5907 16.8499L36.0307 22.0099H37.5907L39.9607 14.1299H38.1807L36.7807 19.3499Z" fill="var(--fill-0, black)"/>
<path id="Vector_5" d="M44 14C43.4812 14.0096 42.9697 14.1246 42.4966 14.3379C42.0236 14.5513 41.5988 14.8585 41.2481 15.241C40.8974 15.6235 40.6281 16.0733 40.4565 16.563C40.2849 17.0528 40.2147 17.5723 40.25 18.09C40.2082 18.6157 40.2766 19.1444 40.4508 19.6422C40.625 20.14 40.9012 20.596 41.2617 20.9809C41.6221 21.3659 42.059 21.6714 42.5443 21.8778C43.0296 22.0843 43.5527 22.1872 44.08 22.18C44.805 22.2191 45.524 22.0297 46.1357 21.6386C46.7475 21.2476 47.2211 20.6744 47.49 20L46 19.38C45.8831 19.7664 45.6383 20.1016 45.3057 20.3306C44.9732 20.5595 44.5727 20.6686 44.17 20.64C43.8832 20.6468 43.5979 20.5954 43.3315 20.4888C43.0652 20.3821 42.8232 20.2226 42.6203 20.0197C42.4174 19.8168 42.2579 19.5748 42.1512 19.3085C42.0446 19.0421 41.9932 18.7568 42 18.47H47.52V17.87C47.54 15.71 46.32 14 44 14ZM42.07 17.13C42.1401 16.6708 42.3743 16.2526 42.7292 15.9529C43.084 15.6532 43.5356 15.4923 44 15.5C44.2207 15.4813 44.4428 15.5099 44.6516 15.5837C44.8604 15.6576 45.051 15.775 45.2109 15.9283C45.3708 16.0815 45.4962 16.2671 45.5788 16.4726C45.6614 16.678 45.6993 16.8987 45.69 17.12L42.07 17.13Z" fill="var(--fill-0, black)"/>
<path id="Vector_6" d="M50.6906 15.3V14.13H48.8906V22H50.6906V17.87C50.6746 17.6031 50.7153 17.3359 50.8102 17.086C50.905 16.8361 51.0518 16.6091 51.2408 16.4201C51.4298 16.2311 51.6568 16.0843 51.9067 15.9895C52.1566 15.8947 52.4238 15.8539 52.6906 15.87C52.9104 15.8544 53.1309 15.8544 53.3506 15.87V14.07C53.2106 14.07 53.0506 14.07 52.8406 14.07C52.402 14.0472 51.9662 14.1511 51.585 14.3692C51.2038 14.5873 50.8933 14.9104 50.6906 15.3Z" fill="var(--fill-0, black)"/>
<path id="Vector_7" d="M57.4807 14C56.9618 14.0096 56.4504 14.1246 55.9773 14.3379C55.5042 14.5513 55.0795 14.8585 54.7288 15.241C54.3781 15.6235 54.1088 16.0733 53.9372 16.563C53.7656 17.0528 53.6954 17.5723 53.7307 18.09C53.6889 18.6157 53.7573 19.1444 53.9315 19.6422C54.1057 20.14 54.3818 20.596 54.7423 20.9809C55.1028 21.3659 55.5397 21.6714 56.025 21.8778C56.5103 22.0843 57.0333 22.1872 57.5607 22.18C58.279 22.2106 58.9891 22.0172 59.5928 21.6267C60.1965 21.2361 60.664 20.6677 60.9307 20L59.3907 19.41C59.2737 19.7964 59.0289 20.1316 58.6964 20.3606C58.3639 20.5895 57.9634 20.6986 57.5607 20.67C57.2797 20.6674 57.002 20.609 56.7438 20.4982C56.4856 20.3874 56.252 20.2263 56.0566 20.0244C55.8612 19.8225 55.7079 19.5837 55.6056 19.322C55.5033 19.0603 55.454 18.7809 55.4607 18.5H61.0007V17.9C61.0007 15.71 59.7607 14 57.4807 14ZM55.5507 17.13C55.6227 16.6744 55.8564 16.2599 56.209 15.9624C56.5615 15.6649 57.0094 15.5043 57.4707 15.51C57.6913 15.4913 57.9135 15.5199 58.1222 15.5937C58.331 15.6676 58.5217 15.785 58.6816 15.9383C58.8414 16.0915 58.9668 16.2771 59.0495 16.4826C59.1321 16.688 59.17 16.9087 59.1607 17.13H55.5507Z" fill="var(--fill-0, black)"/>
<path id="Vector_8" d="M67.5581 15.0002C67.2806 14.6746 66.9334 14.4156 66.5422 14.2425C66.1509 14.0694 65.7257 13.9866 65.2981 14.0002C63.0881 14.0002 61.8281 15.8502 61.8281 18.0902C61.8281 20.3302 63.0881 22.1802 65.2981 22.1802C65.726 22.1961 66.1519 22.1143 66.5435 21.941C66.9351 21.7677 67.2821 21.5076 67.5581 21.1802V22.0002H69.3581V11.2402H67.5581V15.0002ZM67.5581 18.3502C67.5985 18.6354 67.5767 18.9258 67.4944 19.2018C67.4122 19.4778 67.2713 19.7327 67.0814 19.9492C66.8915 20.1657 66.657 20.3386 66.3941 20.4562C66.1313 20.5737 65.8461 20.6331 65.5581 20.6302C64.2481 20.6302 63.5581 19.6302 63.5581 18.1102C63.5581 16.5902 64.2581 15.5902 65.5581 15.5902C66.6681 15.5902 67.5581 16.4002 67.5581 17.8802V18.3502Z" fill="var(--fill-0, black)"/>
<path id="Vector_9" d="M79.3092 14.0002C78.8736 13.9812 78.4393 14.0613 78.0392 14.2345C77.639 14.4077 77.2834 14.6696 76.9992 15.0002V11.2402H75.1992V22.0002H76.9992V21.1702C77.2782 21.4966 77.6272 21.756 78.0202 21.9291C78.4131 22.1023 78.84 22.1847 79.2692 22.1702C81.4692 22.1702 82.7292 20.3102 82.7292 18.0802C82.7292 15.8502 81.5092 14.0002 79.3092 14.0002ZM78.9992 20.6002C78.7113 20.6031 78.4261 20.5437 78.1632 20.4262C77.9003 20.3086 77.6659 20.1357 77.476 19.9192C77.2861 19.7027 77.1452 19.4478 77.0629 19.1718C76.9806 18.8958 76.9589 18.6054 76.9992 18.3202V17.8502C76.9992 16.3702 77.8392 15.5602 78.9992 15.5602C80.2992 15.5602 80.9992 16.5602 80.9992 18.0802C80.9992 19.6002 80.2492 20.6002 78.9992 20.6002Z" fill="var(--fill-0, black)"/>
<path id="Vector_10" d="M86.9316 19.6599L85.0016 14.1299H83.1016L86.0016 21.7199L85.7016 22.4599C85.6506 22.7134 85.5033 22.9373 85.2908 23.0846C85.0782 23.2319 84.8169 23.2912 84.5616 23.2499C84.3618 23.2645 84.1613 23.2645 83.9616 23.2499V24.7599C84.2032 24.7958 84.4473 24.8125 84.6916 24.8099C85.3159 24.8553 85.9363 24.6799 86.4445 24.3143C86.9526 23.9487 87.3161 23.4163 87.4716 22.8099L90.7116 14.1899H88.8216L86.9316 19.6599Z" fill="var(--fill-0, black)"/>
<path id="Vector_11" d="M125 12.43C124.605 12.4277 124.214 12.5034 123.848 12.6527C123.483 12.802 123.15 13.022 122.87 13.3L122.73 12.61H120.34V25.53L123.06 24.94V21.81C123.601 22.2631 124.284 22.5109 124.99 22.51C126.93 22.51 128.71 20.92 128.71 17.4C128.71 14.18 126.91 12.43 125 12.43ZM124.35 20.06C124.111 20.0738 123.873 20.0342 123.651 19.9443C123.43 19.8543 123.231 19.7162 123.07 19.54V15.43C123.232 15.2473 123.433 15.1031 123.658 15.008C123.883 14.9128 124.126 14.8691 124.37 14.88C125.37 14.88 126.05 16.01 126.05 17.46C126.05 18.91 125.36 20.06 124.35 20.06Z" fill="var(--fill-0, black)"/>
<path id="Vector_12" d="M133.73 12.4302C131.11 12.4302 129.52 14.6902 129.52 17.5402C129.52 20.9102 131.4 22.6202 134.08 22.6202C135.125 22.6372 136.158 22.3859 137.08 21.8902V19.6402C136.243 20.0623 135.316 20.275 134.38 20.2602C133.3 20.2602 132.38 19.8702 132.24 18.5602H137.62C137.62 18.4102 137.62 17.8202 137.62 17.5602C137.71 14.6902 136.35 12.4302 133.73 12.4302ZM132.26 16.5002C132.26 15.2402 133.03 14.7102 133.71 14.7102C134.39 14.7102 135.11 15.2402 135.11 16.5002H132.26Z" fill="var(--fill-0, black)"/>
<path id="Vector_13" d="M113.002 13.36L112.832 12.54H110.512V22.25H113.192V15.67C113.434 15.3762 113.76 15.1632 114.126 15.0595C114.492 14.9559 114.882 14.9665 115.242 15.09V12.54C114.833 12.3798 114.379 12.3747 113.966 12.5257C113.554 12.6768 113.211 12.9735 113.002 13.36Z" fill="var(--fill-0, black)"/>
<path id="Vector_14" d="M99.4609 15.4601C99.4609 15.0201 99.8209 14.8501 100.391 14.8501C101.336 14.8704 102.262 15.1174 103.091 15.5701V12.9401C102.233 12.5934 101.316 12.4201 100.391 12.4301C98.1809 12.4301 96.7109 13.6101 96.7109 15.5901C96.7109 18.6901 100.851 18.1901 100.851 19.5201C100.851 20.0401 100.411 20.2101 99.8509 20.2101C98.7944 20.1484 97.767 19.8401 96.8509 19.3101V22.0001C97.7951 22.4212 98.8171 22.6392 99.8509 22.6401C102.111 22.6401 103.671 21.4901 103.671 19.4801C103.621 16.1201 99.4609 16.7201 99.4609 15.4601Z" fill="var(--fill-0, black)"/>
<path id="Vector_15" d="M107.281 10.2402L104.631 10.8202V19.7502C104.617 20.1266 104.68 20.5017 104.817 20.8528C104.953 21.2039 105.159 21.5235 105.423 21.7921C105.687 22.0607 106.003 22.2727 106.352 22.4151C106.7 22.5575 107.074 22.6273 107.451 22.6202C108.108 22.6496 108.762 22.5228 109.361 22.2502V20.0002C109.011 20.1502 107.301 20.6602 107.301 19.0002V15.0002H109.361V12.6602H107.301L107.281 10.2402Z" fill="var(--fill-0, black)"/>
<path id="Vector_16" d="M116.25 11.7L118.98 11.13V8.97L116.25 9.54V11.7Z" fill="var(--fill-0, black)"/>
<path id="Vector_17" d="M118.98 12.61H116.25V22.25H118.98V12.61Z" fill="var(--fill-0, black)"/>
</g>
<defs>
<clipPath id="clip0_0_17">
<rect width="150" height="34" fill="white"/>
</clipPath>
</defs>
</svg>
