<svg width="140" height="140" viewBox="0 0 140 140" fill="none" xmlns="http://www.w3.org/2000/svg">
<g opacity="0.5">
<path d="M140 96.0386L140 140L96.0387 140L96.0387 96.0386L140 96.0386Z" fill="#8855CC"/>
<path d="M91.9807 96.0386L91.9807 140L48.0193 140L48.0193 96.0386L91.9807 96.0386Z" fill="#8855CC"/>
<path d="M43.9614 1.14525e-06L43.9614 43.9614L5.24234e-07 43.9614L0 1.66948e-06L43.9614 1.14525e-06Z" fill="#8855CC"/>
<path d="M43.9614 48.0193L43.9614 91.9807L1.09686e-06 91.9807L5.72625e-07 48.0193L43.9614 48.0193Z" fill="#8855CC"/>
<path d="M43.9614 96.0386L43.9614 140L1.66948e-06 140L1.14525e-06 96.0386L43.9614 96.0386Z" fill="#8855CC"/>
</g>
</svg>
