<svg width="156" height="157" viewBox="0 0 156 157" fill="none" xmlns="http://www.w3.org/2000/svg">
<g opacity="0.5">
<path d="M48.9855 156.32L0 156.32L4.28245e-06 107.334L48.9855 107.334L48.9855 156.32Z" fill="#74ACDF"/>
<path d="M102.493 102.813L53.5073 102.813L53.5073 53.8271L102.493 53.8271L102.493 102.813Z" fill="#74ACDF"/>
<path d="M48.9855 102.813L4.67775e-06 102.813L8.9602e-06 53.8271L48.9855 53.8271L48.9855 102.813Z" fill="#74ACDF"/>
<path d="M156 49.3053L107.015 49.3053L107.015 0.31982L156 0.319824L156 49.3053Z" fill="#74ACDF"/>
<path d="M102.493 49.3053L53.5073 49.3053L53.5073 0.319815L102.493 0.31982L102.493 49.3053Z" fill="#74ACDF"/>
<path d="M48.9855 49.3053L9.3555e-06 49.3053L1.3638e-05 0.319811L48.9855 0.319815L48.9855 49.3053Z" fill="#74ACDF"/>
</g>
</svg>
