<svg preserveAspectRatio="none" width="100%" height="100%" overflow="visible" style="display: block;" viewBox="0 0 16 16" fill="none" xmlns="http://www.w3.org/2000/svg">
<g id="Award star" clip-path="url(#clip0_1013_2786)">
<path id="Vector" d="M8.00013 15.5333L5.7668 13.3333H2.6668V10.2333L0.466797 7.99997L2.6668 5.76664V2.66664H5.7668L8.00013 0.466637L10.2335 2.66664H13.3335V5.76664L15.5335 7.99997L13.3335 10.2333V13.3333H10.2335L8.00013 15.5333ZM8.00013 13.6666L9.6668 12H12.0001V9.66664L13.6668 7.99997L12.0001 6.3333V3.99997H9.6668L8.00013 2.3333L6.33346 3.99997H4.00013V6.3333L2.33346 7.99997L4.00013 9.66664V12H6.33346L8.00013 13.6666ZM6.05013 10.8333L8.00013 9.64997L9.95013 10.8333L9.43346 8.61664L11.1668 7.11664L8.88346 6.9333L8.00013 4.8333L7.1168 6.9333L4.83346 7.11664L6.5668 8.61664L6.05013 10.8333Z" fill="var(--fill-0, #36364C)"/>
</g>
<defs>
<clipPath id="clip0_1013_2786">
<rect width="16" height="16" fill="white"/>
</clipPath>
</defs>
</svg>
