<svg preserveAspectRatio="none" width="100%" height="100%" overflow="visible" style="display: block;" viewBox="0 0 48 48" fill="none" xmlns="http://www.w3.org/2000/svg">
<g id="content-files-open-book-bookmark--Streamline-Pixel">
<path id="Rectangle 294" d="M2.14118 6.86434L6.78588 6.84303V4.55098H41.15V6.82171H45.7196V41.1379L29.7189 41.147V43.43H18.2984V41.1379H2.14118V6.86434Z" fill="var(--fill-0, #F6B40E)"/>
<rect id="Icon Background" x="6.82366" y="4.56696" width="34.7051" height="32.0083" fill="var(--fill-0, white)"/>
<g id="Group">
<path id="Vector" d="M48 6.8625H45.72V41.1375H48V6.8625Z" fill="var(--fill-0, #20202B)"/>
<path id="Vector_2" d="M45.72 41.1375H29.715V43.4325H45.72V41.1375Z" fill="var(--fill-0, #20202B)"/>
<path id="Vector_3" d="M38.8643 6.86283H36.5843V9.14283H38.8643V6.86283Z" fill="var(--fill-0, #20202B)"/>
<path id="Vector_4" d="M38.8657 20.5721H34.2907V22.8521H38.8657V20.5721Z" fill="var(--fill-0, #20202B)"/>
<path id="Vector_5" d="M38.865 29.7075H27.435V32.0025H38.865V29.7075Z" fill="var(--fill-0, #20202B)"/>
<path id="Vector_6" d="M38.865 25.1475H27.435V27.4275H38.865V25.1475Z" fill="var(--fill-0, #20202B)"/>
<path id="Vector_7" d="M32.01 20.5725H27.435V22.8525H32.01V20.5725Z" fill="var(--fill-0, #20202B)"/>
<path id="Vector_8" d="M36.585 15.9975H27.435V18.2925H36.585V15.9975Z" fill="var(--fill-0, #20202B)"/>
<path id="Vector_9" d="M38.865 11.4225H27.435V13.7175H38.865V11.4225Z" fill="var(--fill-0, #20202B)"/>
<path id="Vector_10" d="M34.29 6.8625H27.435V9.1425H34.29V6.8625Z" fill="var(--fill-0, #20202B)"/>
<path id="Vector_11" d="M41.145 2.2875H25.155V4.5675H41.145V2.2875Z" fill="var(--fill-0, #20202B)"/>
<path id="Vector_12" d="M29.715 43.4325H18.3V45.7125H29.715V43.4325Z" fill="var(--fill-0, #20202B)"/>
<path id="Vector_13" d="M20.58 20.5725H18.3V22.8525H20.58V20.5725Z" fill="var(--fill-0, #20202B)"/>
<path id="Vector_14" d="M20.58 15.9975H18.3V18.2925H20.58V15.9975Z" fill="var(--fill-0, #20202B)"/>
<path id="Vector_15" d="M20.58 11.4225H18.3V13.7175H20.58V11.4225Z" fill="var(--fill-0, #20202B)"/>
<path id="Vector_16" d="M20.58 6.8625H18.3V9.1425H20.58V6.8625Z" fill="var(--fill-0, #20202B)"/>
<path id="Vector_17" d="M18.3 41.1375H2.295V43.4325H18.3V41.1375Z" fill="var(--fill-0, #20202B)"/>
<path id="Vector_18" d="M20.5793 29.7077H13.7243V32.0027H20.5793V29.7077Z" fill="var(--fill-0, #20202B)"/>
<path id="Vector_19" d="M20.5808 25.1474H11.4308V27.4274H20.5808V25.1474Z" fill="var(--fill-0, #20202B)"/>
<path id="Vector_20" d="M11.4307 29.7077H9.15067V32.0027H11.4307V29.7077Z" fill="var(--fill-0, #20202B)"/>
<path id="Vector_21" d="M9.15054 22.8525H11.4305V20.5725H13.7255V22.8525H16.0055V4.5675H22.8605V2.2875H6.87054V4.5675H9.15054V22.8525Z" fill="var(--fill-0, #20202B)"/>
<path id="Vector_22" d="M4.575 38.8575H20.58V41.1375H27.435V38.8575H43.44V6.8625H45.72V4.5675H41.145V36.5775H25.155V4.5675H22.86V36.5775H6.87V4.5675H2.295V6.8625H4.575V38.8575Z" fill="var(--fill-0, #20202B)"/>
<path id="Vector_23" d="M2.295 6.8625H0V41.1375H2.295V6.8625Z" fill="var(--fill-0, #20202B)"/>
</g>
</g>
</svg>
