<svg preserveAspectRatio="none" width="100%" height="100%" overflow="visible" style="display: block;" viewBox="0 0 16 15" fill="none" xmlns="http://www.w3.org/2000/svg">
<path id="Union" d="M13.0645 2.08203H16L15.3848 4.16406H14.8643V12.585C14.9895 12.5851 15.1096 12.6352 15.1982 12.7236C15.287 12.8124 15.3369 12.9331 15.3369 13.0586V13.626H15.4316C15.5572 13.626 15.6778 13.6759 15.7666 13.7646C15.8554 13.8534 15.9053 13.9741 15.9053 14.0996V14.667H10.6035V14.0996C10.6035 13.9741 10.6534 13.8534 10.7422 13.7646C10.831 13.6759 10.9516 13.626 11.0771 13.626H11.1719V13.0586C11.1719 12.9331 11.2218 12.8124 11.3105 12.7236C11.3765 12.6578 11.4598 12.6132 11.5498 12.5947V7.94824H11.5352C11.3676 6.0917 9.80642 4.63676 7.90527 4.63672C6.0041 4.63672 4.443 6.09169 4.27539 7.94824H4.25977V12.585H4.35547C4.48074 12.5851 4.60081 12.6352 4.68945 12.7236C4.77823 12.8124 4.82812 12.9331 4.82812 13.0586V13.626H4.92285C5.0484 13.626 5.16904 13.6759 5.25781 13.7646C5.34658 13.8534 5.39648 13.9741 5.39648 14.0996V14.667H0.0947266V14.0996C0.0947266 13.9741 0.144624 13.8534 0.233398 13.7646C0.322168 13.676 0.442836 13.626 0.568359 13.626H0.663086V13.0586C0.663086 12.9331 0.712983 12.8124 0.801758 12.7236C0.890422 12.6352 1.01046 12.5851 1.13574 12.585V4.16406H0.615234L0 2.08203H2.74512V0H13.0645V2.08203Z" fill="var(--fill-0, #353548)"/>
</svg>
