<svg width="32" height="32" viewBox="0 0 32 32" fill="none" xmlns="http://www.w3.org/2000/svg">
<path d="M11.8066 30.2028V23.9819L20.1161 23.9121V30.0807L19.6726 30.668H12.4492L11.8066 30.2028Z" fill="#F6B40E"/>
<path d="M9.35845 1.10828H15.3882L22.5312 1.19922L24.0625 2.73438L25.6133 4.29297L27.0586 5.70312L27.7148 6.40385V18.0078L26.1562 19.5547L24.7148 20.9883L23.0508 22.6797L22.6504 23.043H9.32419L7.70309 21.4141L6.19919 19.9219L4.74216 18.4453L4.39476 18.1358L3.25778 11.9883L4.40231 6.27344L5.78122 4.875L7.48044 3.17188L8.87399 2.01952L9.35845 1.10828Z" fill="white"/>
<path d="M28.95 6.09998H27.43V18.29H28.95V6.09998Z" fill="#20202B"/>
<path d="M27.43 18.29H25.9V19.81H27.43V18.29Z" fill="#20202B"/>
<path d="M27.43 4.56995H25.9V6.09995H27.43V4.56995Z" fill="#20202B"/>
<path d="M25.9 19.8101H24.38V21.3301H25.9V19.8101Z" fill="#20202B"/>
<path d="M25.9 3.05005H24.38V4.57005H25.9V3.05005Z" fill="#20202B"/>
<path d="M24.38 21.33H22.85V22.86H24.38V21.33Z" fill="#20202B"/>
<path d="M24.38 1.52002H22.85V3.05002H24.38V1.52002Z" fill="#20202B"/>
<path d="M18.28 22.86V16.76H16.76V22.86H15.24V16.76H13.71V22.86H9.13998V24.38H10.66V30.48H12.19V28.95H19.81V30.48H21.33V24.38H22.85V22.86H18.28ZM19.81 25.9H12.19V24.38H19.81V25.9Z" fill="#20202B"/>
<path d="M21.33 10.67H19.81V13.71H21.33V10.67Z" fill="#20202B"/>
<path d="M19.81 13.71H18.28V16.76H19.81V13.71Z" fill="#20202B"/>
<path d="M19.81 30.48H12.19V32H19.81V30.48Z" fill="#20202B"/>
<path d="M13.71 13.71H12.19V16.76H13.71V13.71Z" fill="#20202B"/>
<path d="M12.19 10.67H10.66V13.71H12.19V10.67Z" fill="#20202B"/>
<path d="M22.85 0H9.13998V1.52H22.85V0Z" fill="#20202B"/>
<path d="M9.14 21.33H7.62V22.86H9.14V21.33Z" fill="#20202B"/>
<path d="M9.14 1.52002H7.62V3.05002H9.14V1.52002Z" fill="#20202B"/>
<path d="M7.62 19.8101H6.09V21.3301H7.62V19.8101Z" fill="#20202B"/>
<path d="M7.62 3.05005H6.09V4.57005H7.62V3.05005Z" fill="#20202B"/>
<path d="M6.08998 18.29H4.56998V19.81H6.08998V18.29Z" fill="#20202B"/>
<path d="M6.08998 4.56995H4.56998V6.09995H6.08998V4.56995Z" fill="#20202B"/>
<path d="M4.56999 6.09998H3.04999V18.29H4.56999V6.09998Z" fill="#20202B"/>
</svg>
