<svg width="16" height="16" viewBox="0 0 16 16" fill="none" xmlns="http://www.w3.org/2000/svg">
<path d="M15.5 0.5V15.5H0.5V0.5H15.5Z" fill="white" stroke="#1B6FAE"/>
<g clip-path="url(#clip0_1412_104377)">
<path d="M7.99961 13.6501L6.32461 12.0001H3.99961V9.6751L2.34961 8.0001L3.99961 6.3251V4.0001H6.32461L7.99961 2.3501L9.67461 4.0001H11.9996V6.3251L13.6496 8.0001L11.9996 9.6751V12.0001H9.67461L7.99961 13.6501ZM7.99961 12.2501L9.24961 11.0001H10.9996V9.2501L12.2496 8.0001L10.9996 6.7501V5.0001H9.24961L7.99961 3.7501L6.74961 5.0001H4.99961V6.7501L3.74961 8.0001L4.99961 9.2501V11.0001H6.74961L7.99961 12.2501ZM6.53711 10.1251L7.99961 9.2376L9.46211 10.1251L9.07461 8.4626L10.3746 7.3376L8.66211 7.2001L7.99961 5.6251L7.33711 7.2001L5.62461 7.3376L6.92461 8.4626L6.53711 10.1251Z" fill="#1B6FAE"/>
</g>
<defs>
<clipPath id="clip0_1412_104377">
<rect width="12" height="12" fill="white" transform="translate(2 2)"/>
</clipPath>
</defs>
</svg>
