<svg width="22" height="22" viewBox="0 0 22 22" fill="none" xmlns="http://www.w3.org/2000/svg">
<g filter="url(#filter0_d_1412_104373)">
<rect x="3" y="2" width="16" height="16" fill="#1B6FAE" shape-rendering="crispEdges"/>
<rect x="3.5" y="2.5" width="15" height="15" stroke="white" shape-rendering="crispEdges"/>
<g clip-path="url(#clip0_1412_104373)">
<path d="M10.9996 15.6501L9.32461 14.0001H6.99961V11.6751L5.34961 10.0001L6.99961 8.3251V6.0001H9.32461L10.9996 4.3501L12.6746 6.0001H14.9996V8.3251L16.6496 10.0001L14.9996 11.6751V14.0001H12.6746L10.9996 15.6501ZM10.9996 14.2501L12.2496 13.0001H13.9996V11.2501L15.2496 10.0001L13.9996 8.7501V7.0001H12.2496L10.9996 5.7501L9.74961 7.0001H7.99961V8.7501L6.74961 10.0001L7.99961 11.2501V13.0001H9.74961L10.9996 14.2501ZM9.53711 12.1251L10.9996 11.2376L12.4621 12.1251L12.0746 10.4626L13.3746 9.3376L11.6621 9.2001L10.9996 7.6251L10.3371 9.2001L8.62461 9.3376L9.92461 10.4626L9.53711 12.1251Z" fill="white"/>
</g>
</g>
<defs>
<filter id="filter0_d_1412_104373" x="0" y="0" width="22" height="22" filterUnits="userSpaceOnUse" color-interpolation-filters="sRGB">
<feFlood flood-opacity="0" result="BackgroundImageFix"/>
<feColorMatrix in="SourceAlpha" type="matrix" values="0 0 0 0 0 0 0 0 0 0 0 0 0 0 0 0 0 0 127 0" result="hardAlpha"/>
<feOffset dy="1"/>
<feGaussianBlur stdDeviation="1.5"/>
<feComposite in2="hardAlpha" operator="out"/>
<feColorMatrix type="matrix" values="0 0 0 0 0.294118 0 0 0 0 0.294118 0 0 0 0 0.4 0 0 0 0.4 0"/>
<feBlend mode="normal" in2="BackgroundImageFix" result="effect1_dropShadow_1412_104373"/>
<feBlend mode="normal" in="SourceGraphic" in2="effect1_dropShadow_1412_104373" result="shape"/>
</filter>
<clipPath id="clip0_1412_104373">
<rect width="12" height="12" fill="white" transform="translate(5 4)"/>
</clipPath>
</defs>
</svg>
