<svg preserveAspectRatio="none" width="100%" height="100%" overflow="visible" style="display: block;" viewBox="0 0 1312 104.353" fill="none" xmlns="http://www.w3.org/2000/svg">
<g id="Hero Title" style="mix-blend-mode:overlay">
<path d="M0 102.696V9.93835H39.2565C58.9676 9.93835 73.0469 15.9014 73.0469 31.3058C73.0469 42.4036 58.9676 52.342 46.5446 52.342C68.409 52.342 71.3905 64.268 78.8443 83.9791C84.6416 99.2179 90.7703 102.696 90.7703 102.696C90.7703 102.696 84.6416 104.353 72.053 102.696C41.0785 98.5553 59.4645 52.6733 25.0115 52.6733V102.696H0ZM25.0115 51.3481H33.7904C43.7287 51.3481 46.5446 43.2318 46.5446 31.8027C46.5446 20.0423 43.0662 11.0978 33.1278 11.0978H25.0115V51.3481Z" fill="var(--fill-0, black)" fill-opacity="0.6"/>
<path d="M124.71 104.353C104.502 104.353 88.1039 88.617 88.1039 68.9059C88.1039 49.3605 104.502 33.6248 124.71 33.6248C144.918 33.6248 161.316 49.3605 161.316 68.9059C161.316 88.617 144.918 104.353 124.71 104.353ZM124.71 102.696C133.986 102.696 137.133 88.12 137.133 68.9059C137.133 49.6918 133.323 35.1155 124.71 35.1155C115.6 35.1155 112.287 49.6918 112.287 68.9059C112.287 88.12 115.6 102.696 124.71 102.696Z" fill="var(--fill-0, black)" fill-opacity="0.6"/>
<path d="M186.8 104.353C175.37 104.353 166.923 97.3958 166.923 88.4513C166.923 71.3905 185.474 70.231 208.498 59.2988V47.3728C208.498 39.5878 203.695 35.4468 197.566 35.4468C191.603 35.4468 186.303 38.097 186.303 45.8821C186.303 53.6671 191.603 54.9922 191.603 54.9922C191.603 58.1394 187.628 62.7772 182.327 63.2742C173.714 64.1024 169.904 57.8081 169.904 51.6794C169.904 41.5754 182.327 33.6248 197.732 33.6248C208.333 33.6248 217.112 36.4406 223.571 41.7411C229.203 46.379 232.682 52.8389 232.682 61.1209V88.617C232.682 91.5985 233.179 94.2487 235.332 94.2487C236.491 94.2487 237.32 93.4205 237.651 88.617L238.976 88.7826C238.976 97.3958 232.019 104.353 223.406 104.353C215.621 104.353 209.492 98.721 208.664 91.2672C204.854 97.5615 195.744 104.353 186.8 104.353ZM197.897 94.9113C202.37 94.9113 205.682 93.0892 208.498 89.6108V60.7896C197.069 67.4151 189.947 73.2125 189.947 84.9729C189.947 90.1077 193.26 94.9113 197.897 94.9113Z" fill="var(--fill-0, black)" fill-opacity="0.6"/>
<path d="M272.603 104.353C257.198 104.353 244.61 89.4452 244.61 69.7341C244.61 49.8574 257.198 33.7904 272.603 33.7904C279.228 33.7904 285.191 36.7719 289.995 41.7411V0H314.178V102.696H289.995V97.5615C285.191 102.531 279.228 104.353 272.603 104.353ZM280.388 101.04C284.363 101.04 287.676 97.8928 289.995 92.7579V46.5446C287.676 41.4098 284.363 38.2626 280.388 38.2626C271.94 38.2626 268.959 51.8451 268.959 69.7341C268.959 87.4575 272.437 101.04 280.388 101.04Z" fill="var(--fill-0, black)" fill-opacity="0.6"/>
<path d="M372.742 104.353C364.294 104.353 357.834 97.7271 357.834 89.4452V36.7719H350.712V35.1155H359.159C372.411 34.7842 380.361 25.3428 380.361 11.5947H382.018V35.1155H388.312V36.7719H382.018V88.617C382.018 91.5985 382.515 94.2487 384.668 94.2487C385.827 94.2487 386.656 93.4205 386.987 88.617L388.312 88.7826C388.312 97.3958 381.355 104.353 372.742 104.353Z" fill="var(--fill-0, black)" fill-opacity="0.6"/>
<path d="M430.486 104.353C410.278 104.353 393.88 88.617 393.88 68.9059C393.88 49.3605 410.278 33.6248 430.486 33.6248C450.694 33.6248 467.092 49.3605 467.092 68.9059C467.092 88.617 450.694 104.353 430.486 104.353ZM430.486 102.696C439.762 102.696 442.909 88.12 442.909 68.9059C442.909 49.6918 439.099 35.1155 430.486 35.1155C421.376 35.1155 418.063 49.6918 418.063 68.9059C418.063 88.12 421.376 102.696 430.486 102.696Z" fill="var(--fill-0, black)" fill-opacity="0.6"/>
<path d="M507.779 102.696V9.93835H546.704C573.869 9.93835 595.733 30.6432 595.733 56.3173C595.733 81.9914 573.869 102.696 546.704 102.696H507.779ZM532.79 101.04H546.704C565.255 101.04 569.231 79.0099 569.231 56.3173C569.231 35.1155 564.593 11.5947 546.704 11.5947H532.79V101.04Z" fill="var(--fill-0, black)" fill-opacity="0.6"/>
<path d="M638.154 104.353C617.946 104.353 601.382 88.4513 601.382 68.7403C601.382 49.1948 617.946 33.2935 638.154 33.2935C655.877 33.2935 668.3 43.2318 668.3 60.6239H625.234C626.062 81.6601 635.173 93.4205 647.761 93.4205C657.037 93.4205 664.988 86.1324 668.466 75.6971L670.288 76.0284C666.81 92.0954 655.877 104.353 638.154 104.353ZM625.234 58.9676H646.105C646.105 45.5508 643.62 35.1155 637.16 35.1155C630.7 35.1155 625.4 45.5508 625.234 58.9676Z" fill="var(--fill-0, black)" fill-opacity="0.6"/>
<path d="M704.113 104.353L669.163 35.1155H694.34L714.382 76.8566L733.431 35.1155H735.253L704.113 104.353Z" fill="var(--fill-0, black)" fill-opacity="0.6"/>
<path d="M772.661 104.353C752.453 104.353 735.889 88.4513 735.889 68.7403C735.889 49.5261 751.956 33.7904 771.667 33.2935C787.237 33.2935 799.66 41.2442 799.66 51.3481C799.66 57.1455 796.347 62.9429 788.728 62.9429C782.765 62.9429 777.961 58.1394 777.961 54.6609C777.961 54.6609 783.262 53.3358 783.262 45.5508C783.262 39.0908 779.286 35.1155 772.826 35.1155C763.551 35.1155 759.741 45.0539 759.741 58.9676C759.741 81.6601 769.182 93.4205 782.268 93.4205C791.544 93.4205 799.494 86.1324 802.973 75.6971L804.795 76.0284C801.316 92.0954 790.384 104.353 772.661 104.353Z" fill="var(--fill-0, black)" fill-opacity="0.6"/>
<path d="M846.947 104.353C826.739 104.353 810.34 88.617 810.34 68.9059C810.34 49.3605 826.739 33.6248 846.947 33.6248C867.155 33.6248 883.553 49.3605 883.553 68.9059C883.553 88.617 867.155 104.353 846.947 104.353ZM846.947 102.696C856.223 102.696 859.37 88.12 859.37 68.9059C859.37 49.6918 855.56 35.1155 846.947 35.1155C837.837 35.1155 834.524 49.6918 834.524 68.9059C834.524 88.12 837.837 102.696 846.947 102.696Z" fill="var(--fill-0, black)" fill-opacity="0.6"/>
<path d="M893.3 102.696V35.1155H917.484V47.7041C922.453 41.2442 931.729 32.4653 942.827 32.4653C954.256 32.4653 961.875 39.5878 961.875 47.0415V102.696H937.692V46.5446C937.692 37.4345 931.563 36.4406 925.434 41.7411C924.109 42.9005 919.471 47.7041 917.484 50.5199V102.696H893.3Z" fill="var(--fill-0, black)" fill-opacity="0.6"/>
<path d="M1006.62 102.696V9.93835H1028.65V102.696H1006.62Z" fill="var(--fill-0, black)" fill-opacity="0.6"/>
<path d="M1042.57 102.696V35.1155H1066.75V47.7041C1071.72 41.2442 1081 32.4653 1092.1 32.4653C1103.53 32.4653 1111.15 39.5878 1111.15 47.0415V102.696H1086.96V46.5446C1086.96 37.4345 1080.83 36.4406 1074.7 41.7411C1073.38 42.9005 1068.74 47.7041 1066.75 50.5199V102.696H1042.57Z" fill="var(--fill-0, black)" fill-opacity="0.6"/>
<path d="M1148.8 104.353C1133.4 104.353 1120.81 89.4452 1120.81 69.7341C1120.81 49.8574 1133.4 33.7904 1148.8 33.7904C1155.43 33.7904 1161.39 36.7719 1166.19 41.7411V0H1190.38V102.696H1166.19V97.5615C1161.39 102.531 1155.43 104.353 1148.8 104.353ZM1156.59 101.04C1160.56 101.04 1163.87 97.8928 1166.19 92.7579V46.5446C1163.87 41.4098 1160.56 38.2626 1156.59 38.2626C1148.14 38.2626 1145.16 51.8451 1145.16 69.7341C1145.16 87.4575 1148.63 101.04 1156.59 101.04Z" fill="var(--fill-0, black)" fill-opacity="0.6"/>
<path d="M1217.17 26.0053C1210.05 26.0053 1204.25 20.208 1204.25 12.9198C1204.25 5.79737 1210.05 0 1217.17 0C1224.46 0 1230.26 5.79737 1230.26 12.9198C1230.26 20.208 1224.46 26.0053 1217.17 26.0053ZM1205.08 102.696V35.1155L1229.26 35.2811V102.696H1205.08Z" fill="var(--fill-0, black)" fill-opacity="0.6"/>
<path d="M1259.82 104.353C1248.39 104.353 1239.95 97.3958 1239.95 88.4513C1239.95 71.3905 1258.5 70.231 1281.52 59.2988V47.3728C1281.52 39.5878 1276.72 35.4468 1270.59 35.4468C1264.63 35.4468 1259.33 38.097 1259.33 45.8821C1259.33 53.6671 1264.63 54.9922 1264.63 54.9922C1264.63 58.1394 1260.65 62.7772 1255.35 63.2742C1246.74 64.1024 1242.93 57.8081 1242.93 51.6794C1242.93 41.5754 1255.35 33.6248 1270.76 33.6248C1281.36 33.6248 1290.14 36.4406 1296.6 41.7411C1302.23 46.379 1305.71 52.8389 1305.71 61.1209V88.617C1305.71 91.5985 1306.2 94.2487 1308.36 94.2487C1309.52 94.2487 1310.34 93.4205 1310.67 88.617L1312 88.7826C1312 97.3958 1305.04 104.353 1296.43 104.353C1288.64 104.353 1282.52 98.721 1281.69 91.2672C1277.88 97.5615 1268.77 104.353 1259.82 104.353ZM1270.92 94.9113C1275.39 94.9113 1278.71 93.0892 1281.52 89.6108V60.7896C1270.09 67.4151 1262.97 73.2125 1262.97 84.9729C1262.97 90.1077 1266.28 94.9113 1270.92 94.9113Z" fill="var(--fill-0, black)" fill-opacity="0.6"/>
</g>
</svg>
