<svg preserveAspectRatio="none" width="100%" height="100%" overflow="visible" style="display: block;" viewBox="0 0 271 376" fill="none" xmlns="http://www.w3.org/2000/svg">
<path id="Union" opacity="0.15" d="M108.639 0.000129113C108.792 0.000145171 108.946 0.0298022 109.091 0.089476C109.139 0.109285 109.186 0.132739 109.232 0.159097L134.313 14.6646V1.18833C134.313 0.763882 134.539 0.371324 134.906 0.159097C135.273 -0.0530322 135.726 -0.0530325 136.093 0.159097L162.363 15.3516L188.636 0.159097C189.002 -0.0529463 189.455 -0.0530536 189.822 0.159097C190.189 0.371336 190.415 0.763914 190.415 1.18833V14.6635L215.497 0.159097C215.864 -0.0529782 216.317 -0.0530646 216.683 0.159097C217.05 0.371328 217.277 0.763892 217.277 1.18833V16.0373L243.516 31.2124C243.525 31.2173 243.535 31.2211 243.544 31.2263L270.407 46.761C270.774 46.9733 271 47.3659 271 47.7903C271 48.2147 270.774 48.6073 270.407 48.8195L243.571 64.338C243.561 64.3437 243.553 64.3512 243.544 64.3566L217.277 79.5467V94.3946C217.277 94.4261 217.273 94.4574 217.271 94.4885C217.273 94.5205 217.277 94.5525 217.277 94.5849V109.434L243.544 124.625L270.407 140.16C270.774 140.372 271 140.765 271 141.189C271 141.614 270.774 142.006 270.407 142.218L243.544 157.753L217.277 172.943V202.584L243.544 217.776L270.407 233.31C270.774 233.523 271 233.915 271 234.34C271 234.764 270.774 235.157 270.407 235.369L243.544 250.904L217.277 266.094V280.944C217.277 281.057 217.26 281.168 217.229 281.273C217.26 281.379 217.277 281.49 217.277 281.603V296.452L243.544 311.643L270.407 327.178C270.774 327.39 271 327.783 271 328.207C271 328.632 270.774 329.024 270.407 329.237L243.544 344.771L217.277 359.961V374.812C217.277 375.236 217.05 375.629 216.683 375.841C216.316 376.053 215.864 376.053 215.497 375.841L190.415 361.335V374.812C190.415 375.236 190.189 375.629 189.822 375.841C189.455 376.053 189.003 376.053 188.636 375.841L162.363 360.647L136.093 375.841C135.726 376.053 135.273 376.053 134.906 375.841C134.539 375.629 134.313 375.236 134.313 374.812V361.334L109.239 375.835C109.236 375.837 109.235 375.839 109.232 375.841C109.048 375.947 108.843 376 108.638 376C108.433 376 108.228 375.947 108.045 375.841C108.042 375.839 108.039 375.837 108.036 375.835L82.9634 361.335V374.812C82.9634 375.236 82.737 375.629 82.3703 375.841C82.0033 376.053 81.551 376.053 81.184 375.841L54.9143 360.648L28.6457 375.841C28.2787 376.053 27.8265 376.053 27.4595 375.841C27.0926 375.629 26.8663 375.236 26.8663 374.812V361.332L1.77935 375.841C1.41233 376.053 0.96014 376.053 0.593117 375.841C0.226255 375.629 0 375.236 0 374.812V343.742C0.000154448 343.318 0.226223 342.925 0.593117 342.713L25.6743 328.207L0.593117 313.702C0.226237 313.49 3.45934e-05 313.097 0 312.673V281.603C4.11383e-05 281.49 0.0158474 281.379 0.0463373 281.273C0.0159517 281.168 0 281.057 0 280.944V249.874C0.000154448 249.45 0.226223 249.057 0.593117 248.845L25.6743 234.34L0.593117 219.834C0.226237 219.622 3.45934e-05 219.229 0 218.805V156.724C5.14956e-05 156.299 0.22614 155.907 0.593117 155.695L25.6743 141.189L0.593117 126.684C0.226163 126.471 3.45974e-05 126.079 0 125.654V94.5849C3.9262e-06 94.5525 0.00319796 94.5205 0.00579216 94.4885C0.00345059 94.4582 0 94.4276 0 94.3969V63.3274C5.14956e-05 62.9029 0.22614 62.5104 0.593117 62.2981L25.6743 47.7926L0.593117 33.2871C0.226163 33.0748 3.45974e-05 32.6823 0 32.2578V1.18833C5.14943e-05 0.763879 0.226135 0.371324 0.593117 0.159097C0.960058 -0.0530324 1.41241 -0.0530322 1.77935 0.159097L26.8663 14.6669V1.18833C26.8664 0.763882 27.0925 0.371324 27.4595 0.159097C27.8264 -0.0530322 28.2788 -0.0530325 28.6457 0.159097L54.9143 15.3504L81.184 0.159097C81.551 -0.0529463 82.0034 -0.0530536 82.3703 0.159097C82.7372 0.371336 82.9633 0.763914 82.9634 1.18833V14.6635L108.036 0.163738C108.039 0.162172 108.042 0.160645 108.045 0.159097C108.228 0.0528323 108.434 -7.12574e-05 108.639 0.000129113ZM2.37247 359.963V372.754L26.8617 358.591V345.799L2.37247 359.963ZM29.2388 359.963V372.754L53.7281 358.591V345.799L29.2388 359.963ZM56.1017 358.591L80.5909 372.754V359.963L56.1017 345.801V358.591ZM136.686 359.963V372.754L161.176 358.591V345.799L136.686 359.963ZM163.552 358.591L188.042 372.754V359.963L163.552 345.799V358.591ZM190.415 358.591L214.904 372.754V359.963L190.415 345.801V358.591ZM82.9634 358.591L107.451 372.753V359.961L82.9634 345.801V358.591ZM109.825 359.961V372.753L134.313 358.591V345.799L109.825 359.961ZM2.37247 344.428V357.22L26.8617 343.055V330.265L2.37247 344.428ZM29.2388 344.428V357.22L53.7281 343.055V330.265L29.2388 344.428ZM136.686 344.428V357.22L161.176 343.055V330.265L136.686 344.428ZM56.1017 343.055L80.5898 357.218V344.427L56.1017 330.265V343.055ZM82.9622 343.055L107.451 357.218V344.427L82.9622 330.265V343.055ZM109.825 344.427V357.218L134.313 343.055V330.265L109.825 344.427ZM163.552 343.055L188.041 357.218V344.427L163.552 330.265V343.055ZM190.414 343.055L214.903 357.218V344.427L190.414 330.265V343.055ZM217.277 344.427V357.218L241.765 343.055V330.265L217.277 344.427ZM84.1485 328.207L108.638 342.369L133.126 328.207L108.638 314.044L84.1485 328.207ZM191.6 328.207L216.089 342.369L240.577 328.206L216.089 314.044L191.6 328.207ZM29.2342 341.686L52.5418 328.206L29.2342 314.728V341.686ZM136.686 341.684L159.989 328.206L136.686 314.73V341.684ZM244.137 341.684L267.44 328.207L244.137 314.73V341.684ZM57.2868 328.206L80.5898 341.682V314.731L57.2868 328.206ZM164.738 328.206L188.041 341.682V314.731L164.738 328.206ZM2.37247 311.986L26.8617 326.149V313.358L2.37247 299.195V311.986ZM82.9622 313.358V326.149L107.451 311.986V299.196L82.9622 313.358ZM109.825 311.986L134.313 326.149V313.358L109.825 299.195V311.986ZM136.686 311.986L161.176 326.149V313.358L136.686 299.195V311.986ZM163.552 313.358V326.149L188.041 311.986V299.195L163.552 313.358ZM190.414 313.358V326.149L214.903 311.986V299.195L190.414 313.358ZM217.277 311.986L241.765 326.149V313.358L217.277 299.195V311.986ZM29.2388 311.986L53.7281 326.148V313.357L29.2388 299.195V311.986ZM56.1017 313.357V326.148L80.5898 311.986V299.195L56.1017 313.357ZM109.825 296.451L134.313 310.614V297.824L109.825 283.66V296.451ZM163.552 297.824V310.614L188.042 296.451V283.66L163.552 297.824ZM2.37247 296.451L18.5395 305.801L26.8617 310.613V297.824L2.37247 283.66V296.451ZM29.2388 296.451L53.7281 310.613V297.822L29.2388 283.66V296.451ZM56.1017 297.822V310.613L75.846 299.195L80.5909 296.451V283.66L56.1017 297.822ZM82.9634 297.822V310.613L102.708 299.195L107.451 296.451V283.66L82.9634 297.822ZM136.686 296.451L141.431 299.195L161.176 310.613V297.824L136.686 283.66V296.451ZM190.415 297.822V310.613L210.159 299.195L214.904 296.451V283.66L190.415 297.822ZM137.302 281.272L162.363 295.766L187.425 281.272L162.363 266.78L137.302 281.272ZM29.8551 281.272L54.9143 295.765L79.9735 281.272L54.9143 266.781L29.8551 281.272ZM2.98875 281.272L26.8663 295.082V281.603C26.8664 281.49 26.8822 281.379 26.9127 281.273C26.8823 281.168 26.8663 281.057 26.8663 280.944V267.464L2.98875 281.272ZM110.439 281.272L134.313 295.079V281.603C134.313 281.49 134.329 281.379 134.36 281.273C134.329 281.168 134.313 281.057 134.313 280.944V267.466L110.439 281.272ZM82.9634 280.944C82.9634 281.057 82.9464 281.168 82.9159 281.273C82.9464 281.379 82.9633 281.49 82.9634 281.603V295.078L106.836 281.272L82.9634 267.468V280.944ZM190.415 280.944C190.415 281.057 190.398 281.168 190.367 281.273C190.398 281.379 190.415 281.49 190.415 281.603V295.078L214.287 281.272L190.415 267.468V280.944ZM2.37247 266.095V278.887L26.8617 264.723V251.932L2.37247 266.095ZM29.2388 266.095V278.887L53.7281 264.723V251.932L29.2388 266.095ZM56.1017 264.723L80.5909 278.887V266.095L56.1017 251.933V264.723ZM136.686 266.095V278.887L161.176 264.723V251.932L136.686 266.095ZM163.552 264.723L188.042 278.887V266.095L163.552 251.932V264.723ZM190.415 264.723L214.904 278.887V266.095L190.415 251.933V264.723ZM82.9634 264.723L107.451 278.885V266.094L82.9634 251.933V264.723ZM109.825 266.094V278.885L134.313 264.723V251.932L109.825 266.094ZM2.37247 250.56V263.352L26.8617 249.187V236.397L2.37247 250.56ZM29.2388 250.56V263.352L53.7281 249.187V236.397L29.2388 250.56ZM136.686 250.56V263.352L161.176 249.187V236.397L136.686 250.56ZM56.1017 249.187L80.5898 263.351V250.559L56.1017 236.397V249.187ZM82.9622 249.187L107.451 263.351V250.559L82.9622 236.397V249.187ZM109.825 250.559V263.351L134.313 249.187V236.397L109.825 250.559ZM163.552 249.187L188.041 263.351V250.559L163.552 236.397V249.187ZM190.414 249.187L214.903 263.351V250.559L190.414 236.397V249.187ZM217.277 250.559V263.351L241.765 249.187V236.397L217.277 250.559ZM84.1485 234.34L108.638 248.502L133.126 234.34L108.638 220.176L84.1485 234.34ZM191.6 234.34L216.089 248.502L240.577 234.339L216.089 220.176L191.6 234.34ZM29.2342 247.818L52.5418 234.339L29.2342 220.86V247.818ZM136.686 247.816L159.989 234.339L136.686 220.862V247.816ZM244.137 247.816L267.44 234.34L244.137 220.862V247.816ZM57.2868 234.339L80.5898 247.815V220.863L57.2868 234.339ZM164.738 234.339L188.041 247.815V220.863L164.738 234.339ZM2.37247 218.118L26.8617 232.281V219.491L2.37247 205.327V218.118ZM82.9622 219.491V232.281L107.451 218.118V205.329L82.9622 219.491ZM109.825 218.118L134.313 232.281V219.491L109.825 205.327V218.118ZM136.686 218.118L161.176 232.281V219.491L136.686 205.327V218.118ZM163.552 219.491V232.281L188.041 218.118V205.327L163.552 219.491ZM190.414 219.491V232.281L214.903 218.118V205.327L190.414 219.491ZM217.277 218.118L241.765 232.281V219.491L217.277 205.327V218.118ZM29.2388 218.118L53.7281 232.28V219.49L29.2388 205.327V218.118ZM56.1017 219.49V232.28L80.5898 218.118V205.327L56.1017 219.49ZM109.825 202.583L134.313 216.746V203.956L109.825 189.793V202.583ZM163.552 203.956V216.746L188.042 202.583V189.793L163.552 203.956ZM2.37247 202.583L18.5395 211.933L26.8617 216.745V203.956L2.37247 189.793V202.583ZM29.2388 202.583L53.7281 216.745V203.955L29.2388 189.793V202.583ZM56.1017 203.955V216.745L75.846 205.327L80.5909 202.583V189.793L56.1017 203.955ZM82.9634 203.955V216.745L102.708 205.327L107.451 202.583V189.793L82.9634 203.955ZM136.686 202.583L141.431 205.327L161.176 216.745V203.956L136.686 189.793V202.583ZM190.415 203.955V216.745L210.159 205.327L214.904 202.583V189.793L190.415 203.955ZM137.922 187.763L162.363 201.899L186.805 187.763L162.363 173.629L137.922 187.763ZM30.4749 187.763L54.9143 201.897L79.3537 187.763L54.9143 173.63L30.4749 187.763ZM3.60851 187.763L26.8663 201.214V174.314L3.60851 187.763ZM111.059 187.763L134.313 201.212V174.316L111.059 187.763ZM82.9634 201.211L106.217 187.763L82.9634 174.317V201.211ZM190.415 201.211L213.667 187.763L190.415 174.317V201.211ZM2.37247 172.944V185.736L26.8617 171.573V158.781L2.37247 172.944ZM29.2388 172.944V185.736L53.7281 171.573V158.781L29.2388 172.944ZM56.1017 171.573L80.5909 185.736V172.944L56.1017 158.782V171.573ZM136.686 172.944V185.736L161.176 171.573V158.781L136.686 172.944ZM163.552 171.573L188.042 185.736V172.944L163.552 158.781V171.573ZM190.415 171.573L214.904 185.736V172.944L190.415 158.782V171.573ZM82.9634 171.573L107.451 185.735V172.943L82.9634 158.782V171.573ZM109.825 172.943V185.735L134.313 171.573V158.781L109.825 172.943ZM2.37247 157.41V170.201L26.8617 156.037V143.246L2.37247 157.41ZM29.2388 157.41V170.201L53.7281 156.037V143.246L29.2388 157.41ZM136.686 157.41V170.201L161.176 156.037V143.246L136.686 157.41ZM56.1017 156.037L80.5898 170.2V157.408L56.1017 143.246V156.037ZM82.9622 156.037L107.451 170.2V157.408L82.9622 143.246V156.037ZM109.825 157.408V170.2L134.313 156.037V143.246L109.825 157.408ZM163.552 156.037L188.041 170.2V157.408L163.552 143.246V156.037ZM190.414 156.037L214.903 170.2V157.408L190.414 143.246V156.037ZM217.277 157.408V170.2L241.765 156.037V143.246L217.277 157.408ZM84.1485 141.189L108.638 155.351L133.126 141.189L108.638 127.026L84.1485 141.189ZM191.6 141.189L216.089 155.351L240.577 141.188L216.089 127.026L191.6 141.189ZM29.2342 154.668L52.5418 141.188L29.2342 127.709V154.668ZM136.686 154.665L159.989 141.188L136.686 127.712V154.665ZM244.137 154.665L267.44 141.189L244.137 127.712V154.665ZM57.2868 141.188L80.5898 154.664V127.713L57.2868 141.188ZM164.738 141.188L188.041 154.664V127.713L164.738 141.188ZM2.37247 124.967L26.8617 139.131V126.34L2.37247 112.177V124.967ZM82.9622 126.34V139.131L107.451 124.967V112.178L82.9622 126.34ZM109.825 124.967L134.313 139.131V126.34L109.825 112.177V124.967ZM136.686 124.967L161.176 139.131V126.34L136.686 112.177V124.967ZM163.552 126.34V139.131L188.041 124.967V112.177L163.552 126.34ZM190.414 126.34V139.131L214.903 124.967V112.177L190.414 126.34ZM217.277 124.967L241.765 139.131V126.34L217.277 112.177V124.967ZM29.2388 124.967L53.7281 139.13V126.339L29.2388 112.177V124.967ZM56.1017 126.339V139.13L80.5898 124.967V112.177L56.1017 126.339ZM109.825 109.433L134.313 123.596V110.805L109.825 96.6422V109.433ZM163.552 110.805V123.596L188.042 109.433V96.6422L163.552 110.805ZM2.37247 109.433L18.5395 118.783L26.8617 123.595V110.805L2.37247 96.6422V109.433ZM29.2388 109.433L53.7281 123.595V110.804L29.2388 96.6422V109.433ZM56.1017 110.804V123.595L75.846 112.177L80.5909 109.433V96.6422L56.1017 110.804ZM82.9634 110.804V123.595L102.708 112.177L107.451 109.433V96.6422L82.9634 110.804ZM136.686 109.433L141.431 112.177L161.176 123.595V110.805L136.686 96.6422V109.433ZM190.415 110.804V123.595L210.159 112.177L214.904 109.433V96.6422L190.415 110.804ZM137.71 94.4897L162.363 108.748L187.02 94.4885L162.366 80.2313L137.71 94.4897ZM30.2617 94.4897L54.9143 108.747L79.568 94.4885L54.9166 80.2325L30.2617 94.4897ZM3.39536 94.4897L26.8663 108.063V94.5849C26.8663 94.5525 26.8695 94.5205 26.8721 94.4885C26.8698 94.4582 26.8663 94.4276 26.8663 94.3969V80.9171L3.39536 94.4897ZM110.847 94.4897L134.313 108.061V94.5849C134.313 94.5525 134.316 94.5205 134.319 94.4885C134.317 94.4582 134.313 94.4276 134.313 94.3969V80.9194L110.847 94.4897ZM82.9634 94.3946C82.9634 94.4261 82.9601 94.4574 82.9576 94.4885C82.9602 94.5205 82.9634 94.5525 82.9634 94.5849V108.06L106.431 94.4885L82.9634 80.9183V94.3946ZM190.415 94.3946C190.415 94.4265 190.41 94.4582 190.408 94.4897C190.41 94.5213 190.415 94.5529 190.415 94.5849V108.06L213.881 94.4885L190.415 80.9183V94.3946ZM2.37247 79.5479V92.3396L26.8617 78.1764V65.3847L2.37247 79.5479ZM29.2388 79.5479V92.3396L53.7281 78.1764V65.3847L29.2388 79.5479ZM136.686 79.5479V92.3396L161.176 78.1764V65.3847L136.686 79.5479ZM109.825 79.5467V92.3384L134.313 78.1764V65.3847L109.825 79.5467ZM56.1017 78.174L80.5909 92.3373V79.5479L56.1017 65.3858V78.174ZM163.552 78.174L188.042 92.3373V79.5479L163.552 65.3847V78.174ZM190.415 78.174L214.904 92.3373V79.5479L190.415 65.3858V78.174ZM82.9634 78.174L107.451 92.3361V79.5467L82.9634 65.3858V78.174ZM2.37247 64.0131V76.8048L26.8617 62.6404V49.8499L2.37247 64.0131ZM29.2388 64.0131V76.8048L53.7281 62.6404V49.8499L29.2388 64.0131ZM136.686 64.0131V76.8048L161.176 62.6404V49.8499L136.686 64.0131ZM109.825 64.012V76.8037L134.313 62.6404V49.8499L109.825 64.012ZM217.277 64.012V76.8037L241.765 62.6404V49.8499L217.277 64.012ZM56.1017 62.6393L80.5898 76.8013V64.012L56.1017 49.8499V62.6393ZM82.9622 62.6381L107.451 76.8013V64.012L82.9622 49.8499V62.6381ZM163.552 62.6381L188.041 76.8013V64.012L163.552 49.8499V62.6381ZM190.414 62.6381L214.903 76.8013V64.012L190.414 49.8499V62.6381ZM84.1485 47.7926L108.638 61.9547L133.126 47.7926L108.638 33.6294L84.1485 47.7926ZM191.6 47.7926L216.089 61.9547L240.577 47.7914L216.089 33.6294L191.6 47.7926ZM29.2342 61.2712L52.5418 47.7914L29.2342 34.3128V61.2712ZM136.686 61.2689L159.989 47.7914L136.686 34.3151V61.2689ZM57.2868 47.7914L80.5898 61.2677V34.3163L57.2868 47.7914ZM164.738 47.7914L188.041 61.2677V34.3163L164.738 47.7914ZM244.137 61.2666L267.44 47.7903L244.137 34.3128V61.2666ZM2.37247 31.5709L26.8617 45.7341V32.9436L2.37247 18.7804V31.5709ZM82.9622 32.9436V45.7341L107.451 31.5709V18.7815L82.9622 32.9436ZM109.825 31.5709L134.313 45.7341V32.9436L109.825 18.7804V31.5709ZM136.686 31.5709L161.176 45.7341V32.9436L136.686 18.7804V31.5709ZM163.552 32.9436V45.7341L188.041 31.5709V18.7804L163.552 32.9436ZM190.414 32.9436V45.7341L214.903 31.5709V18.7804L190.414 32.9436ZM217.277 31.5709L241.765 45.7341V32.9436L217.277 18.7804V31.5709ZM29.2388 31.5709L53.7281 45.733V32.9425L29.2388 18.7804V31.5709ZM56.1017 32.9425V45.733L80.5898 31.5709V18.7804L56.1017 32.9425ZM109.825 16.0362L134.313 30.1994V17.4089L109.825 3.24563V16.0362ZM163.552 17.4089V30.1994L188.042 16.0362V3.24563L163.552 17.4089ZM2.37247 16.0362L18.5395 25.3863L26.8617 30.1982V17.4089L2.37247 3.24563V16.0362ZM29.2388 16.0362L53.7281 30.1982V17.4077L29.2388 3.24563V16.0362ZM56.1017 17.4077V30.1982L75.846 18.7804L80.5909 16.0362V3.24563L56.1017 17.4077ZM82.9634 17.4077V30.1982L102.708 18.7804L107.451 16.0362V3.24563L82.9634 17.4077ZM136.686 16.0362L141.431 18.7804L161.176 30.1982V17.4089L136.686 3.24563V16.0362ZM190.415 17.4077V30.1982L210.159 18.7804L214.904 16.0362V3.24563L190.415 17.4077Z" fill="var(--fill-0, #FF6600)"/>
</svg>
