<svg preserveAspectRatio="none" width="100%" height="100%" overflow="visible" style="display: block;" viewBox="0 0 1440 1442.27" fill="none" xmlns="http://www.w3.org/2000/svg">
<g id="DC8-Moon-Element">
<g id="Group">
<path id="Vector" d="M894.682 288.593C897.241 274.516 912.327 177.153 850.76 125.388C802.888 85.1373 762.281 77.8691 720.001 7.4285e-06C677.72 77.8691 637.113 85.1373 589.241 125.388C526.955 177.757 543.134 276.864 545.41 289.113C599.561 266.995 658.715 254.7 720.703 254.7C782.195 254.7 840.898 266.811 894.682 288.593Z" fill="var(--fill-0, #DECFFB)"/>
<path id="Vector_2" d="M545.418 1153.15C543.142 1165.41 526.963 1264.51 589.249 1316.88C637.121 1357.13 677.728 1364.4 720.008 1442.27C762.288 1364.4 802.896 1357.13 850.767 1316.88C912.335 1265.11 897.249 1167.75 894.69 1153.67C840.898 1175.46 782.21 1187.57 720.719 1187.57C658.723 1187.57 599.569 1175.27 545.426 1153.15H545.418Z" fill="var(--fill-0, #DECFFB)"/>
<path id="Vector_3" d="M1314.81 590.168C1263.59 529.054 1167.64 543.353 1152.26 546.108C1174.2 600.191 1186.4 659.247 1186.4 721.133C1186.4 783.02 1174.2 842.076 1152.26 896.159C1167.65 898.913 1263.59 913.212 1314.81 852.098C1355 804.151 1362.25 763.48 1440 721.133C1362.25 678.787 1355 638.115 1314.81 590.168Z" fill="var(--fill-0, #DECFFB)"/>
<path id="Vector_4" d="M289.056 546.345C279.149 544.447 178.211 526.904 125.19 590.168C85.0032 638.115 77.7467 678.786 0 721.133C77.7467 763.48 85.0032 804.151 125.19 852.098C178.211 915.362 279.149 897.819 289.056 895.921C267.171 841.9 255.003 782.928 255.003 721.133C255.003 659.338 267.171 600.366 289.056 546.345Z" fill="var(--fill-0, #DECFFB)"/>
<path id="Vector_5" d="M1149.29 538.718C1162.32 529.613 1239.97 471.835 1233.05 392.482C1227.62 330.121 1204.03 296.221 1229.12 211.213C1144.24 236.338 1110.4 212.713 1048.13 207.266C968.272 200.288 910.302 279.358 901.923 291.462C1012.91 338.598 1101.99 427.675 1149.29 538.718Z" fill="var(--fill-0, #DECFFB)"/>
<path id="Vector_6" d="M291.789 902.807C282.898 908.866 199.804 967.815 206.946 1049.78C212.377 1112.15 235.966 1146.05 210.88 1231.05C295.754 1205.93 329.601 1229.55 391.864 1235C472.773 1242.07 531.247 1160.77 538.412 1150.32C427.674 1102.96 338.844 1013.84 291.782 902.814L291.789 902.807Z" fill="var(--fill-0, #DECFFB)"/>
<path id="Vector_7" d="M901.93 1150.81C910.31 1162.91 968.28 1241.98 1048.14 1235C1110.41 1229.56 1144.25 1205.94 1229.13 1231.05C1204.05 1146.05 1227.63 1112.15 1233.06 1049.78C1239.97 970.432 1162.32 912.654 1149.29 903.549C1102 1014.59 1012.92 1103.67 901.93 1150.81Z" fill="var(--fill-0, #DECFFB)"/>
<path id="Vector_8" d="M538.412 291.952C531.247 281.502 472.773 200.205 391.864 207.274C329.601 212.714 295.754 236.339 210.88 211.222C235.958 296.229 212.377 330.129 206.946 392.49C199.804 474.46 282.898 533.409 291.789 539.469C338.844 428.441 427.682 339.318 538.42 291.96L538.412 291.952Z" fill="var(--fill-0, #DECFFB)"/>
</g>
<path id="Vector_9" d="M720.711 316.463C497.921 316.463 316.67 498 316.67 721.133C316.67 944.266 497.921 1125.8 720.711 1125.8C943.502 1125.8 1124.74 944.266 1124.74 721.133C1124.74 498 943.494 316.463 720.711 316.463ZM720.001 981.632C576.363 981.632 459.911 865.005 459.911 721.133C459.911 577.261 576.356 460.633 720.001 460.633C863.647 460.633 980.091 577.261 980.091 721.133C980.091 865.005 863.647 981.632 720.001 981.632Z" fill="var(--fill-0, #DECFFB)"/>
<path id="Vector_10" d="M721.412 981.632C822.986 981.632 905.328 865.003 905.328 721.133C905.328 577.263 822.986 460.633 721.412 460.633C619.837 460.633 537.495 577.263 537.495 721.133C537.495 865.003 619.837 981.632 721.412 981.632Z" fill="var(--fill-0, #DECFFB)"/>
</g>
</svg>
