<svg preserveAspectRatio="none" width="100%" height="100%" overflow="visible" style="display: block;" viewBox="0 0 710.044 599.216" fill="none" xmlns="http://www.w3.org/2000/svg">
<g id="Group 75">
<path id="Subtract" d="M93.8408 0C61.0648 1.93583e-05 29.519 5.2701 0.00292969 15.0088C119.403 54.406 205.583 166.936 205.583 299.607C205.583 432.279 119.401 544.809 0 584.205C29.5169 593.944 61.0636 599.216 93.8408 599.216C259.207 599.216 393.263 465.076 393.263 299.607C393.263 134.139 259.207 0 93.8408 0Z" fill="var(--fill-0, #FF6600)"/>
<path id="Subtract_2" d="M276.099 0C254.324 3.30727e-05 233.092 2.32627 212.638 6.74316C347.521 35.8702 448.597 155.928 448.597 299.607C448.597 443.287 347.521 563.345 212.638 592.472C233.092 596.889 254.324 599.216 276.099 599.216C441.465 599.216 575.521 465.076 575.521 299.607C575.52 134.139 441.465 0 276.099 0Z" fill="var(--fill-0, #FF6600)"/>
<path id="Subtract_3" d="M410.622 0C396.448 1.17144e-05 382.504 0.984457 368.855 2.89062C514.449 23.2244 626.509 148.322 626.509 299.607C626.509 450.893 514.449 575.989 368.855 596.323C382.505 598.229 396.448 599.216 410.622 599.216C575.988 599.216 710.044 465.076 710.044 299.607C710.044 134.139 575.988 0 410.622 0Z" fill="var(--fill-0, #FF6600)"/>
</g>
</svg>
