<svg preserveAspectRatio="none" width="100%" height="100%" overflow="visible" style="display: block;" viewBox="0 0 381.979 381.98" fill="none" xmlns="http://www.w3.org/2000/svg">
<g id="Group">
<g id="Group_2">
<path id="Vector" d="M237.327 76.4328C238.006 72.7045 242.007 46.9182 225.676 33.2085C212.977 22.5483 202.206 20.6233 190.99 0C179.775 20.6233 169.003 22.5483 156.304 33.2085C139.782 47.0783 144.074 73.3265 144.678 76.5706C159.042 70.7126 174.733 67.4565 191.177 67.4565C207.488 67.4565 223.06 70.664 237.327 76.4328Z" fill="var(--fill-0, #7235ED)"/>
<path id="Vector_2" d="M144.678 305.409C144.074 308.655 139.782 334.901 156.305 348.771C169.003 359.431 179.775 361.356 190.99 381.98C202.206 361.356 212.977 359.431 225.676 348.771C242.007 335.061 238.006 309.275 237.327 305.547C223.058 311.316 207.49 314.523 191.179 314.523C174.733 314.523 159.042 311.267 144.68 305.409H144.678Z" fill="var(--fill-0, #7235ED)"/>
<path id="Vector_3" d="M348.77 156.304C335.182 140.119 309.732 143.906 305.651 144.635C311.473 158.959 314.709 174.6 314.709 190.99C314.709 207.381 311.473 223.021 305.651 237.345C309.734 238.074 335.182 241.861 348.77 225.676C359.431 212.977 361.356 202.205 381.979 190.99C361.356 179.775 359.431 169.003 348.77 156.304Z" fill="var(--fill-0, #7235ED)"/>
<path id="Vector_4" d="M76.676 144.698C74.0479 144.195 47.2728 139.549 33.2085 156.304C22.5483 169.003 20.6234 179.774 3.45367e-05 190.99C20.6234 202.205 22.5483 212.977 33.2085 225.675C47.2728 242.43 74.0479 237.784 76.676 237.282C70.8707 222.974 67.6429 207.356 67.6429 190.99C67.6429 174.624 70.8707 159.005 76.676 144.698Z" fill="var(--fill-0, #7235ED)"/>
<path id="Vector_5" d="M304.862 142.677C308.318 140.266 328.915 124.963 327.082 103.947C325.641 87.4307 319.384 78.4523 326.038 55.9384C303.524 62.5927 294.546 56.3356 278.03 54.8929C256.845 53.0449 241.468 73.9864 239.245 77.1919C268.687 89.6757 292.315 113.268 304.862 142.677Z" fill="var(--fill-0, #7235ED)"/>
<path id="Vector_6" d="M77.4002 239.105C75.0416 240.71 52.9999 256.323 54.8945 278.032C56.3351 294.548 62.5923 303.526 55.938 326.04C78.4519 319.386 87.4302 325.643 103.946 327.086C125.409 328.958 140.92 307.427 142.82 304.659C113.445 292.115 89.882 268.513 77.3982 239.107L77.4002 239.105Z" fill="var(--fill-0, #7235ED)"/>
<path id="Vector_7" d="M239.249 304.787C241.471 307.993 256.849 328.934 278.033 327.086C294.549 325.646 303.528 319.389 326.042 326.041C319.389 303.527 325.644 294.548 327.085 278.032C328.919 257.016 308.32 241.714 304.865 239.302C292.32 268.712 268.69 292.303 239.249 304.787Z" fill="var(--fill-0, #7235ED)"/>
<path id="Vector_8" d="M142.82 77.322C140.92 74.5541 125.409 53.023 103.946 54.8953C87.4302 56.336 78.4519 62.5931 55.938 55.9408C62.5903 78.4547 56.3351 87.433 54.8945 103.949C52.9999 125.659 75.0416 141.271 77.4002 142.876C89.882 113.471 113.448 89.8666 142.822 77.324L142.82 77.322Z" fill="var(--fill-0, #7235ED)"/>
</g>
<path id="Vector_9" d="M191.179 83.8155C132.081 83.8155 84.0015 131.895 84.0015 190.991C84.0015 250.087 132.081 298.166 191.179 298.166C250.277 298.166 298.354 250.087 298.354 190.991C298.354 131.895 250.275 83.8155 191.179 83.8155ZM190.99 259.983C152.889 259.983 121.998 229.095 121.998 190.991C121.998 152.887 152.886 121.998 190.99 121.998C229.094 121.998 259.983 152.887 259.983 190.991C259.983 229.095 229.094 259.983 190.99 259.983Z" fill="var(--fill-0, #7235ED)"/>
<path id="Vector_10" d="M191.364 259.981C218.308 259.981 240.15 229.092 240.15 190.989C240.15 152.886 218.308 121.997 191.364 121.997C164.42 121.997 142.577 152.886 142.577 190.989C142.577 229.092 164.42 259.981 191.364 259.981Z" fill="var(--fill-0, #7235ED)"/>
</g>
</svg>
