<svg preserveAspectRatio="none" width="100%" height="100%" overflow="visible" style="display: block;" viewBox="0 0 836 180" fill="none" xmlns="http://www.w3.org/2000/svg">
<g id="Hero Title" style="mix-blend-mode:overlay">
<path d="M59.2305 177.143V20C26.0385 20 2.86138 40.5714 2.86138 70.2857H0V17.1429H161.668V70.2857H158.806C158.806 40.5714 135.629 20 102.437 20V177.143H59.2305Z" fill="var(--fill-0, #221144)"/>
<path d="M199.328 44.8571C187.024 44.8571 177.009 34.8571 177.009 22.2857C177.009 9.99999 187.024 0 199.328 0C211.918 0 221.933 9.99999 221.933 22.2857C221.933 34.8571 211.918 44.8571 199.328 44.8571ZM178.44 177.143V60.5714L220.216 60.8571V177.143H178.44Z" fill="var(--fill-0, #221144)"/>
<path d="M303.69 180C268.781 180 240.167 152.571 240.167 118.571C240.167 85.4286 267.922 58.2857 301.973 57.4286C328.87 57.4286 350.33 71.1429 350.33 88.5714C350.33 98.5714 344.607 108.571 331.445 108.571C321.144 108.571 312.846 100.286 312.846 94.2857C312.846 94.2857 322.002 92 322.002 78.5714C322.002 67.4286 315.135 60.5714 303.976 60.5714C287.952 60.5714 281.371 77.7143 281.371 101.714C281.371 140.857 297.681 161.143 320.286 161.143C336.309 161.143 350.044 148.571 356.053 130.571L359.2 131.143C353.191 158.857 334.306 180 303.69 180Z" fill="var(--fill-0, #221144)"/>
<path d="M377.43 177.143V0H419.206V107.143L471.283 60.5714H475.289L424.07 106.857C434.944 100.286 450.681 96.2857 462.699 99.7143C484.445 106 488.738 125.714 500.183 149.143C508.767 166.571 520.213 177.143 520.213 177.143C520.213 177.143 507.05 179.714 487.021 177.143C457.835 173.429 451.826 148 444.1 121.143C441.525 112 435.802 109.429 428.649 109.429C425.215 109.429 421.781 110.571 419.206 112V177.143H377.43Z" fill="var(--fill-0, #221144)"/>
<path d="M583.469 180C548.56 180 519.946 152.571 519.946 118.571C519.946 84.8571 548.56 57.4286 583.469 57.4286C614.086 57.4286 635.546 74.5714 635.546 104.571H561.15C562.581 140.857 578.318 161.143 600.065 161.143C616.088 161.143 629.823 148.571 635.832 130.571L638.979 131.143C632.971 158.857 614.086 180 583.469 180ZM561.15 101.714H597.203C597.203 78.5714 592.911 60.5714 581.752 60.5714C570.593 60.5714 561.436 78.5714 561.15 101.714Z" fill="var(--fill-0, #221144)"/>
<path d="M680.959 180C666.365 180 655.206 168.571 655.206 154.286V63.4286H642.902V60.5714H657.495C680.386 60 694.121 43.7143 694.121 20H696.982V60.5714H707.855V63.4286H696.982V152.857C696.982 158 697.841 162.571 701.56 162.571C703.563 162.571 704.994 161.143 705.566 152.857L707.855 153.143C707.855 168 695.838 180 680.959 180Z" fill="var(--fill-0, #221144)"/>
<path d="M777.628 180C749.586 180 720.4 165.714 720.4 145.143C720.4 133.143 729.271 126 740.144 126C752.448 126 763.607 135.143 763.607 145.143C757.598 145.143 754.737 149.714 754.737 157.429C754.737 171.714 766.182 177.143 776.197 177.143C784.495 177.143 797.658 174.286 797.658 160.571C797.658 132.286 723.548 121.429 723.548 88.5714C723.548 66.5714 753.878 58 780.489 58C806.814 58 829.419 70 829.419 86.2857C829.419 99.4286 818.832 104 810.82 104C800.519 104 791.649 96.5714 791.649 88.5714C791.649 88.5714 800.233 87.4286 800.233 75.7143C800.233 66.5714 791.649 60.8571 781.062 60.8571C771.905 60.8571 758.743 65.4286 758.743 77.7143C758.743 104 836 113.714 836 145.143C836 165.143 805.956 180 777.628 180Z" fill="var(--fill-0, #221144)"/>
</g>
</svg>
