<svg preserveAspectRatio="none" width="100%" height="100%" overflow="visible" style="display: block;" viewBox="0 0 768 90" fill="none" xmlns="http://www.w3.org/2000/svg">
<path id="Union" opacity="0.15" d="M728.721 0C729.07 2.96515e-05 729.392 0.185334 729.567 0.486071L742.334 22.5007L754.819 44.0274H767.023C767.372 44.0274 767.695 44.2128 767.869 44.5135C768.044 44.8142 768.044 45.1848 767.869 45.4856L755.948 66.0411H767.023C767.372 66.0411 767.695 66.2265 767.869 66.5271C768.044 66.8279 768.044 67.1985 767.869 67.4993L755.102 89.5139C754.927 89.8144 754.605 90 754.256 90H703.186C702.837 89.9999 702.514 89.8146 702.34 89.5139L690.418 68.9575L678.497 89.5139C678.322 89.8145 678 90 677.651 90H626.583C626.234 90 625.911 89.8146 625.737 89.5139L613.815 68.9575L601.894 89.5139C601.719 89.8145 601.397 89.9999 601.048 90H549.978C549.629 90 549.306 89.8145 549.132 89.5139L537.209 68.9565L525.288 89.5139C525.113 89.8145 524.791 90 524.442 90H473.372C473.023 89.9999 472.7 89.8146 472.526 89.5139L460.604 68.9575L448.683 89.5139C448.508 89.8146 448.186 90 447.837 90H396.767C396.418 90 396.096 89.8146 395.921 89.5139L383.999 68.9565L372.077 89.5139C371.902 89.8144 371.58 90 371.231 90H320.163C319.814 89.9998 319.491 89.8146 319.317 89.5139L307.395 68.9575L295.474 89.5139C295.299 89.8145 294.977 90 294.628 90H243.558C243.209 89.9999 242.887 89.8146 242.712 89.5139L230.791 68.9575L218.869 89.5139C218.694 89.8145 218.372 89.9999 218.023 90H166.953C166.604 90 166.282 89.8145 166.107 89.5139L154.185 68.9565L142.263 89.5139C142.089 89.8145 141.766 90 141.417 90H90.3472C89.9984 89.9999 89.6757 89.8146 89.5013 89.5139L77.5797 68.9575L65.6581 89.5139C65.4836 89.8145 65.1609 90 64.8122 90H13.7441C13.3953 90 13.0727 89.8146 12.8982 89.5139L0.130729 67.4993C-0.0435477 67.1986 -0.0435668 66.8278 0.130729 66.5271C0.30518 66.2264 0.627761 66.0411 0.976618 66.0411H12.0523L0.130729 45.4856C-0.0435746 45.1849 -0.0435778 44.8141 0.130729 44.5135C0.305174 44.2127 0.627744 44.0274 0.976618 44.0274H13.1805L25.6524 22.5225C25.6563 22.5153 25.6597 22.5078 25.6638 22.5007L38.4313 0.486071C38.6058 0.185353 38.9283 1.51797e-08 39.2772 0C39.626 3.36815e-05 39.9486 0.185338 40.1231 0.486071L52.8782 22.4798C52.8825 22.4869 52.8883 22.4935 52.8925 22.5007L65.3777 44.0274H89.7836L102.269 22.5007L115.036 0.486071C115.211 0.185453 115.533 0.000122654 115.882 0C116.231 2.96515e-05 116.554 0.185334 116.728 0.486071L129.496 22.5007L141.981 44.0274H166.389L178.875 22.5007L191.642 0.486071C191.817 0.185353 192.139 1.51797e-08 192.488 0C192.837 0.000118089 193.16 0.185406 193.334 0.486071L206.101 22.5007L218.587 44.0274H242.994L255.48 22.5007L268.247 0.486071C268.422 0.185418 268.744 8.04433e-05 269.093 0C269.442 2.96515e-05 269.764 0.185334 269.939 0.486071L282.706 22.5007L295.192 44.0274H319.599L332.071 22.5225C332.075 22.5153 332.079 22.5078 332.083 22.5007L344.85 0.486071C345.025 0.185487 345.347 0.000164853 345.696 0C346.045 2.96508e-05 346.368 0.185347 346.542 0.486071L359.296 22.4779C359.301 22.4857 359.307 22.4928 359.311 22.5007L371.797 44.0274H396.203L408.689 22.5007L421.456 0.486071C421.631 0.185353 421.953 1.51797e-08 422.302 0C422.651 6.92899e-05 422.973 0.185367 423.148 0.486071L435.915 22.5007L448.401 44.0274H472.808L485.294 22.5007L498.061 0.486071C498.235 0.185402 498.558 6.06535e-05 498.907 0C499.256 2.96515e-05 499.578 0.185334 499.753 0.486071L512.52 22.5007L525.005 44.0274H549.414L561.899 22.5007L574.667 0.486071C574.841 0.185353 575.164 1.51797e-08 575.513 0C575.862 0.000118089 576.184 0.185406 576.359 0.486071L589.126 22.5007L601.611 44.0274H626.019L638.491 22.5225C638.495 22.5153 638.498 22.5078 638.502 22.5007L651.27 0.486071C651.444 0.185353 651.767 1.51797e-08 652.116 0C652.465 3.36815e-05 652.787 0.185338 652.962 0.486071L665.716 22.4779C665.721 22.4856 665.727 22.4929 665.731 22.5007L678.216 44.0274H702.622L715.107 22.5007L727.875 0.486071C728.049 0.185464 728.372 0.000137161 728.721 0ZM14.3077 88.0557H24.8198L13.1795 67.9854H2.66744L14.3077 88.0557ZM27.0752 88.0557H37.5873L25.948 67.9863H15.4368L27.0752 88.0557ZM40.9699 88.0557H51.4811L63.1204 67.9863H52.6092L40.9699 88.0557ZM53.7384 88.0557H64.2486L75.8888 67.9854H65.3777L53.7384 88.0557ZM90.9108 88.0557H101.423L89.7826 67.9854H79.2705L90.9108 88.0557ZM103.678 88.0557H114.19L102.551 67.9863H92.0399L103.678 88.0557ZM117.573 88.0557H128.085L139.725 67.9863H129.212L117.573 88.0557ZM130.341 88.0557H140.854L152.494 67.9854H141.981L130.341 88.0557ZM167.517 88.0557H178.029L166.389 67.9854H155.876L167.517 88.0557ZM180.284 88.0557H190.796L179.157 67.9863H168.646L180.284 88.0557ZM194.179 88.0557H204.691L216.331 67.9863H205.818L194.179 88.0557ZM206.947 88.0557H217.459L229.1 67.9854H218.587L206.947 88.0557ZM244.122 88.0557H254.634L242.993 67.9854H232.481L244.122 88.0557ZM256.889 88.0557H267.401L255.762 67.9863H245.251L256.889 88.0557ZM270.784 88.0557H281.296L292.936 67.9863H282.423L270.784 88.0557ZM283.552 88.0557H294.064L305.705 67.9854H295.192L283.552 88.0557ZM320.727 88.0557H331.239L319.598 67.9854H309.086L320.727 88.0557ZM333.494 88.0557H344.006L332.367 67.9863H321.856L333.494 88.0557ZM347.389 88.0557H357.9L369.539 67.9863H359.028L347.389 88.0557ZM360.157 88.0557H370.667L382.308 67.9854H371.797L360.157 88.0557ZM397.331 88.0557H407.843L396.202 67.9854H385.69L397.331 88.0557ZM410.098 88.0557H420.61L408.971 67.9863H398.46L410.098 88.0557ZM423.993 88.0557H434.505L446.145 67.9863H435.632L423.993 88.0557ZM436.761 88.0557H447.273L458.914 67.9854H448.401L436.761 88.0557ZM473.936 88.0557H484.448L472.807 67.9854H462.295L473.936 88.0557ZM486.703 88.0557H497.215L485.576 67.9863H475.065L486.703 88.0557ZM500.598 88.0557H511.11L522.75 67.9863H512.237L500.598 88.0557ZM513.366 88.0557H523.878L535.519 67.9854H525.005L513.366 88.0557ZM550.541 88.0557H561.054L549.413 67.9854H538.901L550.541 88.0557ZM563.309 88.0557H573.821L562.182 67.9863H551.671L563.309 88.0557ZM577.204 88.0557H587.716L599.356 67.9863H588.843L577.204 88.0557ZM589.972 88.0557H600.484L612.124 67.9854H601.611L589.972 88.0557ZM627.146 88.0557H637.658L626.018 67.9854H615.506L627.146 88.0557ZM639.914 88.0557H650.426L638.787 67.9863H628.276L639.914 88.0557ZM653.809 88.0557H664.32L675.959 67.9863H665.448L653.809 88.0557ZM666.577 88.0557H677.087L688.728 67.9854H678.216L666.577 88.0557ZM703.749 88.0557H714.262L702.621 67.9854H692.109L703.749 88.0557ZM716.517 88.0557H727.029L715.39 67.9863H704.879L716.517 88.0557ZM730.412 88.0557H740.924L752.564 67.9863H742.051L730.412 88.0557ZM743.18 88.0557H753.692L765.332 67.9854H754.819L743.18 88.0557ZM39.2791 87.0826L50.3548 67.9863H28.2034L39.2791 87.0826ZM115.882 87.0826L126.958 67.9863H104.806L115.882 87.0826ZM192.488 87.0826L203.564 67.9863H181.412L192.488 87.0826ZM269.093 87.0826L280.169 67.9863H258.017L269.093 87.0826ZM345.698 87.0826L356.774 67.9863H334.622L345.698 87.0826ZM422.302 87.0826L433.378 67.9863H411.226L422.302 87.0826ZM498.907 87.0826L509.983 67.9863H487.831L498.907 87.0826ZM575.513 87.0826L586.589 67.9863H564.437L575.513 87.0826ZM652.118 87.0826L663.193 67.9863H641.042L652.118 87.0826ZM728.721 87.0826L739.797 67.9863H717.645L728.721 87.0826ZM27.0752 66.042H37.5873L25.948 45.9726H15.4368L27.0752 66.042ZM40.9699 66.042H51.4811L63.1204 45.9726H52.6092L40.9699 66.042ZM103.678 66.042H114.19L102.551 45.9726H92.0399L103.678 66.042ZM117.573 66.042H128.085L139.725 45.9726H129.212L117.573 66.042ZM180.284 66.042H190.796L179.157 45.9726H168.646L180.284 66.042ZM194.179 66.042H204.691L216.331 45.9726H205.818L194.179 66.042ZM256.889 66.042H267.401L255.762 45.9726H245.251L256.889 66.042ZM270.784 66.042H281.296L292.936 45.9726H282.423L270.784 66.042ZM333.494 66.042H344.006L332.367 45.9726H321.856L333.494 66.042ZM347.389 66.042H357.9L369.539 45.9726H359.028L347.389 66.042ZM410.098 66.042H420.61L408.971 45.9726H398.46L410.098 66.042ZM423.993 66.042H434.505L446.145 45.9726H435.632L423.993 66.042ZM486.703 66.042H497.215L485.576 45.9726H475.065L486.703 66.042ZM500.598 66.042H511.11L522.75 45.9726H512.237L500.598 66.042ZM563.309 66.042H573.821L562.182 45.9726H551.671L563.309 66.042ZM577.204 66.042H587.716L599.356 45.9726H588.843L577.204 66.042ZM639.914 66.042H650.426L638.787 45.9726H628.276L639.914 66.042ZM653.809 66.042H664.32L675.959 45.9726H665.448L653.809 66.042ZM716.517 66.042H727.029L715.39 45.9726H704.879L716.517 66.042ZM730.412 66.042H740.924L752.564 45.9726H742.051L730.412 66.042ZM14.3068 66.0411H24.8189L13.1795 45.9717H2.66744L14.3068 66.0411ZM53.7384 66.0411H64.2495L75.8888 45.9717H65.3777L53.7384 66.0411ZM66.504 66.0411H88.6554L77.5787 46.9438L66.504 66.0411ZM90.9098 66.0411H101.422L89.7826 45.9717H79.2705L90.9098 66.0411ZM130.341 66.0411H140.854L152.494 45.9717H141.981L130.341 66.0411ZM143.109 66.0411H165.261L154.185 46.9429L143.109 66.0411ZM167.516 66.0411H178.028L166.389 45.9717H155.876L167.516 66.0411ZM206.947 66.0411H217.46L229.1 45.9717H218.587L206.947 66.0411ZM219.715 66.0411H241.866L230.79 46.9438L219.715 66.0411ZM244.121 66.0411H254.633L242.993 45.9717H232.481L244.121 66.0411ZM283.552 66.0411H294.065L305.705 45.9717H295.192L283.552 66.0411ZM296.32 66.0411H318.471L307.395 46.9438L296.32 66.0411ZM320.726 66.0411H331.238L319.598 45.9717H309.086L320.726 66.0411ZM360.157 66.0411H370.668L382.308 45.9717H371.797L360.157 66.0411ZM372.923 66.0411H395.075L383.999 46.9429L372.923 66.0411ZM397.33 66.0411H407.842L396.202 45.9717H385.69L397.33 66.0411ZM436.761 66.0411H447.274L458.914 45.9717H448.401L436.761 66.0411ZM449.529 66.0411H471.68L460.603 46.9438L449.529 66.0411ZM473.935 66.0411H484.447L472.807 45.9717H462.295L473.935 66.0411ZM513.366 66.0411H523.879L535.519 45.9717H525.005L513.366 66.0411ZM526.134 66.0411H548.286L537.209 46.9429L526.134 66.0411ZM550.54 66.0411H561.053L549.413 45.9717H538.901L550.54 66.0411ZM589.972 66.0411H600.485L612.124 45.9717H601.611L589.972 66.0411ZM602.74 66.0411H624.891L613.814 46.9438L602.74 66.0411ZM627.145 66.0411H637.658L626.018 45.9717H615.506L627.145 66.0411ZM666.577 66.0411H677.088L688.728 45.9717H678.216L666.577 66.0411ZM679.343 66.0411H701.494L690.417 46.9438L679.343 66.0411ZM703.748 66.0411H714.261L702.621 45.9717H692.109L703.748 66.0411ZM743.18 66.0411H753.693L765.332 45.9717H754.819L743.18 66.0411ZM27.6388 44.9995L39.2791 65.0689L50.9184 44.9995L39.2781 24.9311L27.6388 44.9995ZM104.242 44.9995L115.882 65.0689L127.521 44.9995L115.881 24.9311L104.242 44.9995ZM180.848 44.9995L192.488 65.0689L204.127 44.9995L192.487 24.9311L180.848 44.9995ZM257.453 44.9995L269.093 65.0689L280.732 44.9995L269.092 24.9311L257.453 44.9995ZM334.058 44.9995L345.698 65.0689L357.337 44.9995L345.697 24.9311L334.058 44.9995ZM410.662 44.9995L422.302 65.0689L433.941 44.9995L422.301 24.9311L410.662 44.9995ZM487.267 44.9995L498.907 65.0689L510.546 44.9995L498.906 24.9311L487.267 44.9995ZM563.873 44.9995L575.513 65.0689L587.152 44.9995L575.512 24.9311L563.873 44.9995ZM640.477 44.9995L652.118 65.0689L663.757 44.9995L652.117 24.9311L640.477 44.9995ZM717.081 44.9995L728.721 65.0689L740.36 44.9995L728.72 24.9311L717.081 44.9995ZM15.4359 44.0274H25.948L37.5873 23.9589H27.0752L15.4359 44.0274ZM52.6092 44.0274H63.1223L51.482 23.9589H40.9699L52.6092 44.0274ZM92.0389 44.0274H102.551L114.19 23.9589H103.678L92.0389 44.0274ZM129.212 44.0274H139.725L128.085 23.9589H117.573L129.212 44.0274ZM168.645 44.0274H179.157L190.796 23.9589H180.284L168.645 44.0274ZM205.818 44.0274H216.331L204.691 23.9589H194.179L205.818 44.0274ZM245.25 44.0274H255.762L267.401 23.9589H256.889L245.25 44.0274ZM282.423 44.0274H292.936L281.296 23.9589H270.784L282.423 44.0274ZM321.855 44.0274H332.367L344.006 23.9589H333.494L321.855 44.0274ZM359.028 44.0274H369.541L357.901 23.9589H347.389L359.028 44.0274ZM398.459 44.0274H408.971L420.61 23.9589H410.098L398.459 44.0274ZM435.632 44.0274H446.145L434.505 23.9589H423.993L435.632 44.0274ZM475.064 44.0274H485.576L497.215 23.9589H486.703L475.064 44.0274ZM512.237 44.0274H522.75L511.11 23.9589H500.598L512.237 44.0274ZM551.67 44.0274H562.182L573.821 23.9589H563.309L551.67 44.0274ZM588.843 44.0274H599.356L587.716 23.9589H577.204L588.843 44.0274ZM628.275 44.0274H638.787L650.426 23.9589H639.914L628.275 44.0274ZM665.448 44.0274H675.961L664.321 23.9589H653.809L665.448 44.0274ZM704.878 44.0274H715.39L727.029 23.9589H716.517L704.878 44.0274ZM742.051 44.0274H752.564L740.924 23.9589H730.412L742.051 44.0274ZM28.2005 22.0146H50.3529L39.2772 2.91737L28.2005 22.0146ZM104.805 22.0146H126.958L115.882 2.91737L104.805 22.0146ZM181.411 22.0146H203.564L192.488 2.91737L181.411 22.0146ZM258.016 22.0146H280.169L269.093 2.91737L258.016 22.0146ZM334.619 22.0146H356.772L345.696 2.91737L334.619 22.0146ZM411.225 22.0146H433.378L422.302 2.91737L411.225 22.0146ZM487.83 22.0146H509.983L498.907 2.91737L487.83 22.0146ZM564.436 22.0146H586.589L575.513 2.91737L564.436 22.0146ZM641.039 22.0146H663.192L652.116 2.91737L641.039 22.0146ZM717.644 22.0146H739.797L728.721 2.91737L717.644 22.0146Z" fill="var(--fill-0, #FF6600)"/>
</svg>
