<svg width="26" height="27" viewBox="0 0 26 27" fill="none" xmlns="http://www.w3.org/2000/svg">
<path d="M11.7876 1.46474C11.9855 0.263322 13.713 0.263327 13.9109 1.46475L15.3106 9.96233C15.3856 10.4174 15.7422 10.7741 16.1974 10.8491L24.6949 12.2488C25.8964 12.4467 25.8963 14.1741 24.6949 14.372L16.1973 15.7717C15.7422 15.8467 15.3856 16.2034 15.3106 16.6585L13.9109 25.1561C13.713 26.3575 11.9855 26.3575 11.7876 25.156L10.388 16.6585C10.313 16.2034 9.95631 15.8467 9.5012 15.7717L1.00362 14.372C-0.197799 14.1741 -0.197794 12.4467 1.00363 12.2488L9.5012 10.8491C9.95631 10.7741 10.313 10.4174 10.388 9.96232L11.7876 1.46474Z" fill="#27252A"/>
</svg>
