<svg preserveAspectRatio="none" width="100%" height="100%" overflow="visible" style="display: block;" viewBox="0 0 205.807 52.175" fill="none" xmlns="http://www.w3.org/2000/svg">
<g id="Group 1171273800">
<path id="Vector" d="M24.4997 0V5.12222H5.60334V17.4513H23.6652V22.5735H5.60334V35.379H24.4997V40.5013H0V0H24.4997Z" fill="var(--fill-0, #DE9E67)"/>
<path id="Vector_2" d="M31.0871 38.5952C29.0812 36.9275 27.9963 34.685 27.8383 31.8648H33.3225C33.4804 33.2555 34.0676 34.3663 35.0809 35.2002C36.0943 36.034 37.3163 36.451 38.747 36.451C40.1776 36.451 41.3489 36.1323 42.1447 35.498C42.9405 34.8637 43.3369 34.0894 43.3369 33.1751C43.3369 32.0226 42.8601 31.159 41.9063 30.5842C40.9525 30.0095 39.4623 29.4228 37.4356 28.8272C35.5668 28.2703 34.0288 27.7045 32.8158 27.1297C31.6027 26.555 30.5714 25.7092 29.716 24.5984C28.8606 23.4876 28.4344 22.0164 28.4344 20.1909C28.4344 18.8002 28.813 17.4809 29.567 16.2301C30.3211 14.9794 31.4239 13.9668 32.8754 13.1925C34.3269 12.4182 36.0645 12.0311 38.0913 12.0311C40.9525 12.0311 43.2952 12.8054 45.1252 14.354C46.9523 15.9025 48.0074 18.0676 48.2846 20.8461H42.8005C42.6008 19.5357 42.0941 18.5143 41.2804 17.7787C40.4667 17.0431 39.4027 16.6768 38.0913 16.6768C36.8991 16.6768 35.9036 16.9955 35.1108 17.6298C34.315 18.2641 33.9186 19.1188 33.9186 20.1909C33.9186 21.263 34.3835 22.1356 35.3194 22.6925C36.2523 23.2494 37.7336 23.845 39.7603 24.4793C41.6291 24.9945 43.176 25.5424 44.4099 26.1172C45.6409 26.692 46.6841 27.5467 47.5395 28.6783C48.3949 29.81 48.8211 31.3079 48.8211 33.1751C48.8211 34.685 48.3829 36.043 47.5096 37.255C46.6334 38.4671 45.4322 39.4082 43.9032 40.0842C42.3742 40.7602 40.6545 41.0967 38.747 41.0967C35.6473 41.0967 33.093 40.2629 31.0871 38.5952Z" fill="var(--fill-0, #DE9E67)"/>
<path id="Vector_3" d="M74.885 13.7584C76.9326 14.9109 78.5718 16.5875 79.8028 18.7912C81.0337 20.995 81.6507 23.5859 81.6507 26.5639C81.6507 29.5419 81.0337 32.1328 79.8028 34.3366C78.5718 36.5403 76.9326 38.2169 74.885 39.3694C72.8374 40.5219 70.6228 41.0967 68.2384 41.0967C66.2504 41.0967 64.4323 40.7096 62.7841 39.9353C61.1359 39.161 59.8126 38.0383 58.8201 36.5701V52.175H53.3359V12.6267H58.1643L58.6412 16.8555C59.6337 15.3069 60.975 14.1157 62.6649 13.2819C64.3549 12.448 66.2117 12.0311 68.2384 12.0311C70.6228 12.0311 72.8374 12.6059 74.885 13.7584ZM71.8449 34.962C73.1742 34.2085 74.2292 33.1066 75.0042 31.6563C75.7791 30.206 76.1666 28.5086 76.1666 26.5639C76.1666 24.6192 75.7791 22.9218 75.0042 21.4715C74.2292 20.0212 73.1771 18.9193 71.8449 18.1659C70.5126 17.4124 69.0521 17.0342 67.4635 17.0342C65.8749 17.0342 64.4622 17.4213 63.112 18.1956C61.7618 18.9699 60.6769 20.0807 59.8632 21.531C59.0496 22.9813 58.6412 24.658 58.6412 26.5639C58.6412 28.4698 59.0496 30.1465 59.8632 31.5968C60.6769 33.0471 61.7618 34.1579 63.112 34.9322C64.4622 35.7065 65.9136 36.0936 67.4635 36.0936C69.0134 36.0936 70.5126 35.7154 71.8449 34.962Z" fill="var(--fill-0, #DE9E67)"/>
<path id="Vector_4" d="M85.5791 22.8711C85.5791 19.497 86.5328 16.8466 88.4404 14.9198C90.3479 12.993 92.8515 12.0311 95.9512 12.0311C96.9437 12.0311 97.9571 12.1711 98.9913 12.448V17.4511C98.6337 17.4124 97.9184 17.3916 96.8454 17.3916C94.9766 17.3916 93.546 17.9068 92.5535 18.9401C91.5609 19.9735 91.0632 21.7186 91.0632 24.1815V40.5011H85.5791V22.8711Z" fill="var(--fill-0, #DE9E67)"/>
<path id="Vector_5" d="M127.521 28.7081H105.882C106.279 30.9714 107.244 32.7672 108.773 34.0983C110.302 35.4295 112.141 36.0936 114.287 36.0936C117.745 36.0936 120.087 34.7833 121.321 32.1626H126.925C126.09 34.8637 124.531 37.0257 122.245 38.6547C119.959 40.2837 117.306 41.0967 114.287 41.0967C111.623 41.0967 109.22 40.4803 107.074 39.2503C104.928 38.0204 103.25 36.3021 102.037 34.0983C100.824 31.8946 100.219 29.3841 100.219 26.5639C100.219 23.7437 100.815 21.2332 102.008 19.0295C103.2 16.8257 104.869 15.1074 107.015 13.8775C109.161 12.6476 111.584 12.0311 114.287 12.0311C116.71 12.0311 118.946 12.6654 120.993 13.937C123.041 15.2087 124.659 16.9538 125.852 19.1784C127.044 21.403 127.64 23.8628 127.64 26.5639C127.64 27.4365 127.601 28.1512 127.521 28.7081ZM108.833 18.9699C107.343 20.2594 106.38 21.9986 105.942 24.1815H121.977C121.777 22.2368 120.964 20.5572 119.533 19.1486C118.102 17.74 116.353 17.0342 114.287 17.0342C112.222 17.0342 110.323 17.6804 108.833 18.9699Z" fill="var(--fill-0, #DE9E67)"/>
<path id="Vector_6" d="M133.34 38.5952C131.334 36.9275 130.249 34.685 130.091 31.8648H135.575C135.733 33.2555 136.32 34.3663 137.334 35.2002C138.347 36.034 139.569 36.451 141 36.451C142.43 36.451 143.601 36.1323 144.397 35.498C145.193 34.8637 145.589 34.0894 145.589 33.1751C145.589 32.0226 145.113 31.159 144.159 30.5842C143.205 30.0095 141.715 29.4228 139.688 28.8272C137.819 28.2703 136.281 27.7045 135.068 27.1297C133.855 26.555 132.824 25.7092 131.969 24.5984C131.113 23.4876 130.687 22.0164 130.687 20.1909C130.687 18.8002 131.066 17.4809 131.82 16.2301C132.574 14.9794 133.676 13.9668 135.128 13.1925C136.579 12.4182 138.317 12.0311 140.344 12.0311C143.205 12.0311 145.548 12.8054 147.378 14.354C149.205 15.9025 150.26 18.0676 150.537 20.8461H145.053C144.853 19.5357 144.347 18.5143 143.533 17.7787C142.719 17.0431 141.655 16.6768 140.344 16.6768C139.152 16.6768 138.156 16.9955 137.363 17.6298C136.568 18.2641 136.171 19.1188 136.171 20.1909C136.171 21.263 136.636 22.1356 137.572 22.6925C138.505 23.2494 139.986 23.845 142.013 24.4793C143.882 24.9945 145.429 25.5424 146.662 26.1172C147.893 26.692 148.937 27.5467 149.792 28.6783C150.647 29.81 151.074 31.3079 151.074 33.1751C151.074 34.685 150.635 36.043 149.762 37.255C148.886 38.4671 147.685 39.4082 146.156 40.0842C144.627 40.7602 142.907 41.0967 141 41.0967C137.9 41.0967 135.346 40.2629 133.34 38.5952Z" fill="var(--fill-0, #DE9E67)"/>
<path id="Vector_7" d="M157.058 38.5952C155.052 36.9275 153.967 34.685 153.809 31.8648H159.293C159.451 33.2555 160.038 34.3663 161.052 35.2002C162.065 36.034 163.287 36.451 164.718 36.451C166.149 36.451 167.32 36.1323 168.116 35.498C168.911 34.8637 169.308 34.0894 169.308 33.1751C169.308 32.0226 168.831 31.159 167.877 30.5842C166.923 30.0095 165.433 29.4228 163.406 28.8272C161.538 28.2703 160 27.7045 158.787 27.1297C157.574 26.555 156.542 25.7092 155.687 24.5984C154.832 23.4876 154.405 22.0164 154.405 20.1909C154.405 18.8002 154.784 17.4809 155.538 16.2301C156.292 14.9794 157.395 13.9668 158.846 13.1925C160.298 12.4182 162.035 12.0311 164.062 12.0311C166.923 12.0311 169.266 12.8054 171.096 14.354C172.923 15.9025 173.978 18.0676 174.256 20.8461H168.771C168.572 19.5357 168.065 18.5143 167.251 17.7787C166.438 17.0431 165.374 16.6768 164.062 16.6768C162.87 16.6768 161.874 16.9955 161.082 17.6298C160.286 18.2641 159.889 19.1188 159.889 20.1909C159.889 21.263 160.354 22.1356 161.29 22.6925C162.223 23.2494 163.704 23.845 165.731 24.4793C167.6 24.9945 169.147 25.5424 170.381 26.1172C171.612 26.692 172.655 27.5467 173.51 28.6783C174.366 29.81 174.792 31.3079 174.792 33.1751C174.792 34.685 174.354 36.043 173.481 37.255C172.604 38.4671 171.403 39.4082 169.874 40.0842C168.345 40.7602 166.625 41.0967 164.718 41.0967C161.618 41.0967 159.064 40.2629 157.058 38.5952Z" fill="var(--fill-0, #DE9E67)"/>
<path id="Vector_8" d="M184.02 39.161C181.814 37.8715 180.085 36.1234 178.834 33.9196C177.582 31.7159 176.956 29.265 176.956 26.5639C176.956 23.8628 177.582 21.4119 178.834 19.2082C180.085 17.0044 181.814 15.2563 184.02 13.9668C186.225 12.6773 188.678 12.0311 191.381 12.0311C194.085 12.0311 196.538 12.6773 198.743 13.9668C200.949 15.2563 202.678 17.0044 203.929 19.2082C205.181 21.4119 205.807 23.8628 205.807 26.5639C205.807 29.265 205.181 31.7159 203.929 33.9196C202.678 36.1234 200.949 37.8715 198.743 39.161C196.538 40.4505 194.085 41.0967 191.381 41.0967C188.678 41.0967 186.225 40.4505 184.02 39.161ZM195.971 34.8726C197.322 34.0596 198.386 32.928 199.161 31.4777C199.935 30.0274 200.323 28.3894 200.323 26.5639C200.323 24.7384 199.935 23.1004 199.161 21.6501C198.386 20.1998 197.322 19.0682 195.971 18.2552C194.621 17.4422 193.089 17.0342 191.381 17.0342C189.674 17.0342 188.142 17.4422 186.791 18.2552C185.438 19.0682 184.377 20.1998 183.602 21.6501C182.827 23.1004 182.44 24.7384 182.44 26.5639C182.44 28.3894 182.827 30.0274 183.602 31.4777C184.377 32.928 185.441 34.0596 186.791 34.8726C188.142 35.6856 189.674 36.0936 191.381 36.0936C193.089 36.0936 194.621 35.6856 195.971 34.8726Z" fill="var(--fill-0, #DE9E67)"/>
</g>
</svg>
