<svg preserveAspectRatio="none" width="100%" height="100%" overflow="visible" style="display: block;" viewBox="0 0 94.0557 96" fill="none" xmlns="http://www.w3.org/2000/svg">
<g id="Group 1171273799">
<path id="Vector" d="M60.5608 30.3971C61.6814 30.3971 62.7753 30.5073 63.8393 30.7068V2.98433H57.2822V30.7068C58.3463 30.5073 59.4401 30.3971 60.5608 30.3971Z" fill="var(--fill-0, #DE9E67)"/>
<path id="Vector_2" d="M50.745 33.3863L23.9891 5.95265L18.5109 11.4263L45.9673 38.1601C47.237 36.278 48.8613 34.6549 50.745 33.3863Z" fill="var(--fill-0, #DE9E67)"/>
<path id="Vector_3" d="M45.9059 38.2559L7.43059 21.4628L4.23549 29.167L43.3218 44.477C43.7778 42.2167 44.669 40.1142 45.9029 38.2559H45.9059Z" fill="var(--fill-0, #DE9E67)"/>
<path id="Vector_4" d="M77.6479 43.8216L93.1167 37.0704L91.2926 32.6689L75.5794 38.8245C76.5123 40.3522 77.2157 42.0348 77.6479 43.8216Z" fill="var(--fill-0, #DE9E67)"/>
<path id="Vector_5" d="M70.0748 33.1933L78.6765 12.0492L73.1685 9.77105L64.2896 30.796C66.3819 31.2486 68.3312 32.0706 70.0718 33.1933H70.0748Z" fill="var(--fill-0, #DE9E67)"/>
<path id="Vector_6" d="M74.8906 37.7885L88.2492 24.0895L84.455 20.2985L70.7447 33.646C72.3452 34.7866 73.749 36.1863 74.8876 37.7855L74.8906 37.7885Z" fill="var(--fill-0, #DE9E67)"/>
<path id="Vector_7" d="M57.0559 30.7452L44.5467 0L37.9389 2.73384L50.8534 33.3153C52.7043 32.0883 54.8026 31.2009 57.0559 30.7452Z" fill="var(--fill-0, #DE9E67)"/>
<path id="Vector_8" d="M60.5608 65.5379C59.4401 65.5379 58.3463 65.4277 57.2822 65.2281V93.0221H63.8393V65.2281C62.7753 65.4277 61.6814 65.5379 60.5608 65.5379Z" fill="var(--fill-0, #DE9E67)"/>
<path id="Vector_9" d="M64.2896 65.1363L73.1924 86.2178L78.7003 83.9396L70.0748 62.742C68.3341 63.8647 66.3819 64.6866 64.2896 65.1393V65.1363Z" fill="var(--fill-0, #DE9E67)"/>
<path id="Vector_10" d="M70.7453 62.2861L84.4824 75.6634L88.2766 71.8724L74.8882 58.1466C73.7466 59.7488 72.3458 61.1485 70.7423 62.2891L70.7453 62.2861Z" fill="var(--fill-0, #DE9E67)"/>
<path id="Vector_11" d="M43.3249 51.4569L4.20578 66.7789L7.40088 74.4831L45.909 57.678C44.675 55.8227 43.7839 53.7202 43.3278 51.4599L43.3249 51.4569Z" fill="var(--fill-0, #DE9E67)"/>
<path id="Vector_12" d="M50.8535 62.6163L37.9092 93.2662L44.5169 96L57.0559 65.1863C54.8026 64.7307 52.7044 63.8432 50.8535 62.6163Z" fill="var(--fill-0, #DE9E67)"/>
<path id="Vector_13" d="M45.9685 57.7736L18.4674 84.5491L23.9456 90.0227L50.7433 62.5444C48.8596 61.2758 47.2352 59.6528 45.9655 57.7706L45.9685 57.7736Z" fill="var(--fill-0, #DE9E67)"/>
<path id="Vector_14" d="M94.0557 50.0637L0 52.4104L0.00297886 43.4763L94.0557 45.8944V50.0637Z" fill="var(--fill-0, #DE9E67)"/>
</g>
</svg>
