<svg width="165" height="264" viewBox="0 0 165 264" fill="none" xmlns="http://www.w3.org/2000/svg">
<path d="M0 143.367L82.4997 264L165 143.368L82.4997 0L0 143.367Z" fill="white"/>
<path d="M18.6348 148.813L82.5007 242.199L146.366 148.813L82.5007 189.53L18.6348 148.813Z" fill="url(#paint0_linear_4709_393)"/>
<path d="M146.366 135.659L82.5007 24.6734L18.6348 135.659L82.5007 176.375L146.366 135.659Z" fill="url(#paint1_linear_4709_393)"/>
<path d="M135.427 134.026C124.625 116.07 104.965 104.059 82.5007 104.059C60.0363 104.059 40.376 116.07 29.5742 134.026L82.501 167.768L135.428 134.026H135.427Z" fill="url(#paint2_linear_4709_393)"/>
<path d="M95.1732 70.8408L82.5006 48.8693L69.8281 70.8408C73.9572 70.1901 76.32 69.56 82.5006 69.56C88.8125 69.56 91.0441 70.1901 95.1732 70.8408Z" fill="#FFAA55"/>
<path d="M89.685 115.921C89.7903 115.343 90.4106 111.341 87.8785 109.213C85.9097 107.559 84.2396 107.26 82.5007 104.059C80.7619 107.26 79.0917 107.559 77.1229 109.213C74.5611 111.366 75.2265 115.439 75.3202 115.943C77.5474 115.034 79.9803 114.528 82.5298 114.528C85.0587 114.528 87.4729 115.026 89.685 115.922V115.921Z" fill="#06038D"/>
<path d="M75.3202 151.459C75.2265 151.962 74.5611 156.036 77.1229 158.189C79.0917 159.843 80.7619 160.142 82.5007 163.343C84.2396 160.142 85.9097 159.843 87.8785 158.189C90.4106 156.061 89.7903 152.059 89.685 151.48C87.4729 152.376 85.0587 152.874 82.5298 152.874C79.98 152.874 77.547 152.368 75.3202 151.459Z" fill="#06038D"/>
<path d="M106.965 128.318C104.858 125.806 100.912 126.393 100.279 126.507C101.182 128.73 101.684 131.157 101.684 133.701C101.684 136.245 101.182 138.673 100.279 140.896C100.912 141.009 104.858 141.597 106.965 139.085C108.618 137.114 108.916 135.442 112.114 133.702C108.916 131.961 108.618 130.289 106.965 128.318V128.318Z" fill="#06038D"/>
<path d="M64.7772 126.516C64.3698 126.438 60.2182 125.717 58.0375 128.318C56.3848 130.289 56.0864 131.961 52.8887 133.701C56.0864 135.442 56.3848 137.114 58.0375 139.084C60.2182 141.684 64.3695 140.964 64.7772 140.886C63.877 138.665 63.3767 136.241 63.3767 133.701C63.3767 131.161 63.877 128.737 64.7772 126.516Z" fill="#06038D"/>
<path d="M100.158 126.203C100.694 125.829 103.888 123.454 103.604 120.192C103.38 117.628 102.41 116.235 103.442 112.741C99.9509 113.773 98.5589 112.802 95.9978 112.578C92.7133 112.292 90.3292 115.542 89.9844 116.039C94.5492 117.977 98.2131 121.638 100.158 126.203L100.158 126.203Z" fill="#06038D"/>
<path d="M64.89 141.168C64.5243 141.418 61.1068 143.841 61.4007 147.21C61.6242 149.773 62.5941 151.167 61.5627 154.661C65.0534 153.628 66.4453 154.6 69.0064 154.823C72.3341 155.114 74.739 151.772 75.0339 151.343C70.4794 149.396 66.8257 145.733 64.8903 141.169L64.89 141.168Z" fill="#06038D"/>
<path d="M89.9844 151.362C90.3292 151.86 92.7133 155.11 95.9978 154.823C98.5586 154.6 99.9509 153.629 103.442 154.661C102.41 151.167 103.38 149.774 103.604 147.21C103.888 143.948 100.694 141.574 100.158 141.199C98.2131 145.763 94.5495 149.425 89.9847 151.362L89.9844 151.362Z" fill="#06038D"/>
<path d="M75.0339 116.06C74.7393 115.63 72.3343 112.288 69.0064 112.579C66.4456 112.802 65.0533 113.773 61.5627 112.741C62.5941 116.235 61.6242 117.628 61.4007 120.192C61.1071 123.561 64.5243 125.985 64.89 126.234C66.8253 121.67 70.479 118.007 75.0335 116.06L75.0339 116.06Z" fill="#06038D"/>
<path d="M82.5298 118.404C74.1033 118.404 67.248 125.266 67.248 133.701C67.248 142.136 74.1033 148.998 82.5298 148.998C90.9564 148.998 97.8113 142.136 97.8113 133.701C97.8113 125.266 90.9561 118.404 82.5298 118.404ZM82.5032 142.521C77.6366 142.521 73.6914 138.572 73.6914 133.701C73.6914 128.83 77.6366 124.88 82.5032 124.88C87.3697 124.88 91.3149 128.83 91.3149 133.701C91.3149 138.572 87.3697 142.521 82.5032 142.521Z" fill="#06038D"/>
<path d="M87.477 133.701C87.477 128.83 85.9993 124.88 82.5579 124.88C79.1164 124.88 77.6387 128.83 77.6387 133.701C77.6387 138.572 79.1164 142.521 82.5579 142.521C85.9993 142.521 87.477 138.572 87.477 133.701Z" fill="#06038D"/>
<path d="M85.8621 94.871C90.2497 93.0517 92.3333 88.0165 90.5159 83.6244C88.6985 79.2324 83.6682 77.1467 79.2805 78.966C74.8929 80.7852 72.8093 85.8205 74.6267 90.2125C76.4441 94.6046 81.4744 96.6902 85.8621 94.871Z" fill="#FFAA55"/>
<path d="M103.87 90.7427C105.347 86.0635 107.961 82.7182 109.711 83.2714C105.036 81.7932 100.049 84.3886 98.5727 89.0678C97.0964 93.7469 99.6886 98.7387 104.363 100.217C102.614 99.6634 102.393 95.4214 103.87 90.7427Z" fill="#FFAA55"/>
<path d="M55.3711 83.4359C58.3563 82.4719 61.9837 85.4382 63.4737 90.0612C64.9637 94.6839 63.7515 99.2132 60.7663 100.177C65.9808 98.4935 69.0002 93.3805 67.5105 88.7578C66.0204 84.1348 60.5855 81.7521 55.3711 83.4359Z" fill="#FFAA55"/>
<path d="M93.6934 198.254L82.501 217.66L71.3086 198.254C74.9554 198.829 77.0422 199.385 82.501 199.385C88.0756 199.385 90.0465 198.829 93.6934 198.254Z" fill="#FFAA55"/>
<path opacity="0.2" d="M82.5007 24.6734V176.375L18.6348 135.659L82.5007 24.6734Z" fill="white"/>
<path opacity="0.2" d="M82.5007 189.53V242.199L18.6348 148.813L82.5007 189.53Z" fill="white"/>
<defs>
<linearGradient id="paint0_linear_4709_393" x1="82.5007" y1="148.813" x2="82.5007" y2="242.199" gradientUnits="userSpaceOnUse">
<stop offset="0.41" stop-color="#06038D"/>
<stop offset="1" stop-color="#644F96"/>
</linearGradient>
<linearGradient id="paint1_linear_4709_393" x1="82.5007" y1="176.375" x2="82.5007" y2="24.6734" gradientUnits="userSpaceOnUse">
<stop offset="0.41" stop-color="#06038D"/>
<stop offset="1" stop-color="#644F96"/>
</linearGradient>
<linearGradient id="paint2_linear_4709_393" x1="82.5007" y1="104.059" x2="82.5007" y2="167.768" gradientUnits="userSpaceOnUse">
<stop stop-color="#FFAA55"/>
<stop offset="1" stop-color="#A2FF9E"/>
</linearGradient>
</defs>
</svg>
