<svg width="86" height="86" viewBox="0 0 86 86" fill="none" xmlns="http://www.w3.org/2000/svg">
<g clip-path="url(#clip0_2313_62100)">
<path d="M64.5 39.4167C64.5 41.8176 64.5 44.1826 64.5 46.5834C68.8 46.5834 74.39 46.5834 78.8333 46.5834C78.8333 44.1826 78.8333 41.8176 78.8333 39.4167C74.39 39.4167 68.8 39.4167 64.5 39.4167Z" fill="#FF85A6"/>
<path d="M57.3333 63.1024C60.7733 65.6466 65.2525 69.0149 68.8 71.6666C70.2333 69.7674 71.6667 67.8324 73.1 65.9332C69.5525 63.2816 65.0733 59.9133 61.6333 57.3333C60.2 59.2683 58.7667 61.2033 57.3333 63.1024Z" fill="#FF85A6"/>
<path d="M73.1 20.0667C71.6667 18.1675 70.2333 16.2325 68.8 14.3334C65.2525 16.985 60.7733 20.3534 57.3333 22.9334C58.7667 24.8325 60.2 26.7675 61.6333 28.6667C65.0733 26.0867 69.5525 22.7542 73.1 20.0667Z" fill="#FF85A6"/>
<path d="M28.6667 32.25H7.16666V53.75H17.9167V68.0833H25.0833V53.75H28.6667L46.5833 64.5V21.5L28.6667 32.25Z" fill="#FF85A6"/>
<path d="M55.5417 43C55.5417 38.2342 53.4633 33.9342 50.1667 30.9958V54.9683C53.4633 52.0658 55.5417 47.7658 55.5417 43Z" fill="#FF85A6"/>
</g>
<defs>
<clipPath id="clip0_2313_62100">
<rect width="86" height="86" fill="white"/>
</clipPath>
</defs>
</svg>
