<svg width="28" height="28" viewBox="0 0 28 28" fill="none" xmlns="http://www.w3.org/2000/svg">
<path d="M13.987 0.666626C6.62699 0.666626 0.666992 6.63996 0.666992 14C0.666992 21.36 6.62699 27.3333 13.987 27.3333C21.3603 27.3333 27.3337 21.36 27.3337 14C27.3337 6.63996 21.3603 0.666626 13.987 0.666626ZM14.0003 24.6666C8.10699 24.6666 3.33366 19.8933 3.33366 14C3.33366 8.10663 8.10699 3.33329 14.0003 3.33329C19.8937 3.33329 24.667 8.10663 24.667 14C24.667 19.8933 19.8937 24.6666 14.0003 24.6666ZM14.667 7.33329H12.667V15.3333L19.667 19.5333L20.667 17.8933L14.667 14.3333V7.33329Z" fill="#323232"/>
</svg>
