<svg width="28" height="28" viewBox="0 0 28 28" fill="none" xmlns="http://www.w3.org/2000/svg">
<path d="M14.0003 0.666626C6.64033 0.666626 0.666992 6.63996 0.666992 14C0.666992 21.36 6.64033 27.3333 14.0003 27.3333C21.3603 27.3333 27.3337 21.36 27.3337 14C27.3337 6.63996 21.3603 0.666626 14.0003 0.666626ZM14.0003 24.6666C8.12033 24.6666 3.33366 19.88 3.33366 14C3.33366 8.11996 8.12033 3.33329 14.0003 3.33329C19.8803 3.33329 24.667 8.11996 24.667 14C24.667 19.88 19.8803 24.6666 14.0003 24.6666ZM14.4137 12.8533C12.0537 12.2533 11.2937 11.6 11.2937 10.6266C11.2937 9.50663 12.347 8.71996 14.0937 8.71996C15.9337 8.71996 16.627 9.59996 16.6803 10.9066H18.9603C18.8937 9.11996 17.8003 7.47996 15.6403 6.94663V4.66663H12.5337V6.91996C10.5203 7.34663 8.90699 8.65329 8.90699 10.6666C8.90699 13.0533 10.8937 14.2533 13.787 14.9466C16.387 15.56 16.907 16.48 16.907 17.44C16.907 18.1466 16.387 19.2933 14.107 19.2933C11.9737 19.2933 11.1337 18.3333 11.0137 17.1066H8.72033C8.85366 19.3733 10.5337 20.6533 12.5337 21.0666V23.3333H15.6537V21.1066C17.6803 20.72 19.2803 19.56 19.2937 17.4133C19.2803 14.48 16.7603 13.4666 14.4137 12.8533Z" fill="#323232"/>
</svg>
