<svg width="16" height="16" viewBox="0 0 16 16" fill="none" xmlns="http://www.w3.org/2000/svg">
<path d="M7.33398 10H8.66732V11.3333H7.33398V10ZM7.33398 4.66668H8.66732V8.66668H7.33398V4.66668ZM7.99398 1.33334C4.31398 1.33334 1.33398 4.32001 1.33398 8.00001C1.33398 11.68 4.31398 14.6667 7.99398 14.6667C11.6807 14.6667 14.6673 11.68 14.6673 8.00001C14.6673 4.32001 11.6807 1.33334 7.99398 1.33334ZM8.00065 13.3333C5.05398 13.3333 2.66732 10.9467 2.66732 8.00001C2.66732 5.05334 5.05398 2.66668 8.00065 2.66668C10.9473 2.66668 13.334 5.05334 13.334 8.00001C13.334 10.9467 10.9473 13.3333 8.00065 13.3333Z" fill="#FF4E26"/>
</svg>
