<svg width="24" height="20" viewBox="0 0 24 20" fill="none" xmlns="http://www.w3.org/2000/svg">
<path d="M24 2.60005C23.1 3.00005 22.2 3.30005 21.2 3.40005C22.2 2.80005 23 1.80005 23.4 0.700049C22.4 1.30005 21.4 1.70005 20.3 1.90005C19.4 0.900049 18.1 0.300049 16.7 0.300049C14 0.300049 11.8 2.50005 11.8 5.20005C11.8 5.60005 11.8 6.00005 11.9 6.30005C7.7 6.10005 4.1 4.10005 1.7 1.10005C1.2 1.90005 1 2.70005 1 3.60005C1 5.30005 1.9 6.80005 3.2 7.70005C2.4 7.70005 1.6 7.50005 1 7.10005C1 7.10005 1 7.10005 1 7.20005C1 9.60005 2.7 11.6 4.9 12C4.5 12.1 4.1 12.2 3.6 12.2C3.3 12.2 3 12.2 2.7 12.1C3.3 14.1 5.1 15.5 7.3 15.5C5.6 16.8 3.5 17.6 1.2 17.6C0.8 17.6 0.4 17.6 0 17.5C2.2 18.9 4.8 19.7001 7.5 19.7001C16.6 19.7001 21.5 12.2 21.5 5.70005C21.5 5.50005 21.5 5.30005 21.5 5.10005C22.5 4.40005 23.3 3.50005 24 2.60005Z" fill="white"/>
</svg>
