<svg width="72" height="72" viewBox="0 0 72 72" fill="none" xmlns="http://www.w3.org/2000/svg">
<path d="M36 0.166748C16.22 0.166748 0.166664 16.2201 0.166664 36.0001C0.166664 55.7801 16.22 71.8334 36 71.8334C55.78 71.8334 71.8333 55.7801 71.8333 36.0001C71.8333 16.2201 55.78 0.166748 36 0.166748ZM32.4167 64.4159C18.2625 62.6601 7.33333 50.6201 7.33333 36.0001C7.33333 33.7784 7.62 31.6642 8.08583 29.5859L25.25 46.7501V50.3334C25.25 54.2751 28.475 57.5001 32.4167 57.5001V64.4159ZM57.1417 55.3142C56.21 52.4117 53.5583 50.3334 50.3333 50.3334H46.75V39.5834C46.75 37.6126 45.1375 36.0001 43.1667 36.0001H21.6667V28.8334H28.8333C30.8042 28.8334 32.4167 27.2209 32.4167 25.2501V18.0834H39.5833C43.525 18.0834 46.75 14.8584 46.75 10.9167V9.44758C57.2492 13.7117 64.6667 23.9959 64.6667 36.0001C64.6667 43.4534 61.8 50.2259 57.1417 55.3142Z" fill="#FF85A6"/>
</svg>
