<svg preserveAspectRatio="none" width="100%" height="100%" overflow="visible" style="display: block;" viewBox="0 0 93.1419 160" fill="none" xmlns="http://www.w3.org/2000/svg">
<g id="Devcon 7 Ether Prism">
<path id="Vector" d="M0.000239826 91.3108L46.5709 160L93.1419 91.3108L46.5709 121.259L0.000239826 91.3108Z" fill="var(--fill-0, white)"/>
<path id="Vector_2" d="M53.6907 70.1651V70.1674C54.183 71.3126 54.6548 72.5264 55.088 73.7907C55.5281 75.0778 55.9273 76.4222 56.2585 77.8079C58.5313 76.065 61.2964 74.4961 64.6353 73.3647C65.7876 68.0076 65.3589 61.3657 65.0277 58.0493C62.519 59.2632 60.4503 60.7336 58.7604 62.2566C57.7691 63.1499 56.9072 64.0614 56.1655 64.95C54.8612 66.5075 53.9176 67.9939 53.2598 69.1894C53.4049 69.5101 53.5478 69.8353 53.6907 70.1651Z" fill="var(--fill-0, white)"/>
<path id="Vector_3" d="M36.885 77.8056C37.2162 76.4222 37.6131 75.0778 38.0554 73.7884C38.4864 72.5218 38.9605 71.3103 39.4527 70.1651C39.5933 69.8353 39.7362 69.5101 39.8814 69.1894C39.2259 67.9939 38.2823 66.5075 36.978 64.9523C36.2363 64.0637 35.3743 63.1521 34.383 62.2589C32.6932 60.7336 30.6267 59.2632 28.118 58.0493C27.7868 61.368 27.3581 68.0122 28.5104 73.367C31.8493 74.4961 34.6121 76.065 36.885 77.8056Z" fill="var(--fill-0, white)"/>
<path id="Vector_4" d="M60.6194 78.6684C59.3106 79.4471 58.0812 80.3403 56.9334 81.3504C55.9013 82.255 54.935 83.2559 54.0368 84.3484C53.7351 84.7126 53.4425 85.0882 53.1567 85.4752C52.9321 85.7776 52.7166 86.0822 52.5102 86.3845C52.204 86.8357 51.9182 87.2846 51.6528 87.7289C50.0242 90.4406 49.101 92.9875 48.6133 94.6434C48.9535 94.6273 49.2893 94.609 49.6227 94.5838C58.7912 93.9379 65.8229 90.3101 70.55 83.7758C73.0633 80.3037 74.2882 76.8316 74.8416 74.7817C72.1378 74.8825 69.6087 75.2513 67.261 75.888C65.9 76.2544 64.6003 76.7102 63.3595 77.2576C62.4114 77.6744 61.4972 78.1462 60.6194 78.6684Z" fill="var(--fill-0, white)"/>
<path id="Vector_5" d="M45.3019 59.7164L46.5721 58.0101L47.8401 59.7164C48.0011 59.934 49.6774 62.2128 51.5714 65.7605C52.4697 64.3703 53.6424 62.8198 55.1418 61.2692C52.8099 54.0753 48.6794 46.8929 46.5721 43.4734C44.4649 46.8952 40.332 54.0799 37.9979 61.2715C39.4996 62.822 40.67 64.3703 41.5682 65.7605C43.4645 62.2128 45.1408 59.9317 45.3019 59.7164Z" fill="var(--fill-0, white)"/>
<path id="Vector_6" d="M40.6292 86.3848C40.425 86.0825 40.2095 85.7779 39.985 85.4756C39.6992 85.0885 39.4066 84.7129 39.1049 84.3487C38.2066 83.2563 37.2403 82.2577 36.2082 81.3507C35.0605 80.3407 33.8311 79.4475 32.52 78.6665C31.6444 78.1466 30.7326 77.6771 29.7844 77.2602C28.5436 76.7128 27.2416 76.2548 25.8807 75.8906C23.5307 75.2539 21.0038 74.8852 18.3045 74.7821C18.8693 76.8594 20.1169 80.3979 22.671 83.8884C27.4004 90.354 34.4049 93.9429 43.5212 94.5842C43.8547 94.6094 44.1904 94.6277 44.5306 94.6437C44.0407 92.9878 43.1175 90.4387 41.4866 87.727C41.2212 87.2826 40.9354 86.8337 40.6292 86.3848Z" fill="var(--fill-0, white)"/>
<path id="Vector_7" d="M93.1419 81.6347L46.5709 0L0 81.6347L46.5709 111.584L93.1419 81.6347ZM20.0262 85.668C15.6574 79.6284 14.7773 73.6278 14.741 73.3758L14.4892 71.5665L16.2993 71.5482C19.5589 71.5161 22.4873 71.839 25.1117 72.4208C23.8823 64.7322 25.1502 55.9671 25.2228 55.4839L25.5177 53.4982L27.3709 54.2288C30.61 55.5068 33.2662 57.1558 35.4347 58.9193C36.5848 55.6488 38.159 52.1079 40.1437 48.322C42.7886 43.281 45.1589 39.7517 45.2587 39.6051L46.5721 37.6583L47.8832 39.6051C48.203 40.0769 54.273 49.1511 57.7072 58.9193C59.8757 57.1558 62.5318 55.5068 65.771 54.2288L67.6242 53.4982L67.9191 55.4839C67.9916 55.9671 69.2619 64.7322 68.0279 72.4208C70.5344 71.8642 73.3176 71.5459 76.4002 71.5459C76.5477 71.5459 76.6951 71.5482 76.8426 71.5482L78.6527 71.5665L78.4009 73.3758C78.3646 73.6278 77.4868 79.6284 73.1157 85.668C69.2551 91.0044 61.8718 97.3165 48.4389 97.8547L46.5721 97.8983L44.703 97.8547C31.2701 97.3165 23.8868 91.0044 20.0262 85.668Z" fill="var(--fill-0, white)"/>
<path id="Vector_8" d="M50.3771 83.8812C50.4247 83.8125 50.4769 83.7415 50.5268 83.6728C51.2776 82.6467 52.1554 81.5863 53.1784 80.5396C53.2873 80.4251 53.4007 80.3106 53.5164 80.1961C53.319 79.17 53.0764 78.1623 52.7974 77.1774C52.7883 77.1385 52.7769 77.1019 52.7656 77.0629C52.4027 75.7849 51.983 74.5459 51.5316 73.3618C50.9577 71.8548 50.3272 70.4348 49.6989 69.143C48.5534 66.7886 47.4079 64.8487 46.5709 63.5317C45.7339 64.851 44.5861 66.7909 43.4406 69.1476C42.8123 70.4393 42.184 71.8547 41.6078 73.3595C41.1542 74.5459 40.7345 75.7895 40.3716 77.0698C40.3603 77.1064 40.3512 77.1408 40.3421 77.1774C40.0631 78.1623 39.8204 79.1723 39.623 80.1984C39.7387 80.3129 39.8521 80.4274 39.961 80.5419C40.984 81.5863 41.8619 82.6467 42.6127 83.6728C42.6649 83.7438 42.7147 83.8125 42.7646 83.8835C44.5384 86.341 45.7497 88.7848 46.5709 90.83C47.3897 88.7825 48.6055 86.3387 50.3771 83.8812Z" fill="var(--fill-0, white)"/>
</g>
</svg>
