<svg preserveAspectRatio="none" width="100%" height="100%" overflow="visible" style="display: block;" viewBox="0 0 197.769 76.3283" fill="none" xmlns="http://www.w3.org/2000/svg">
<g id="SEA">
<path id="Vector" d="M116.358 54.2927L108.637 72.7448L107.774 74.8077H64.6699V27.8585C65.2286 27.2548 65.753 26.6007 66.2489 25.8989C68.7823 22.3001 70.154 16.9905 70.3246 10.1186C70.3745 8.06352 70.3089 6.17538 70.217 4.68187H114.976C114.976 4.68187 122.705 4.68187 124.57 0C124.57 0 125.653 11.9245 122.008 18.5953C118.456 25.0861 115.021 25.1733 114.801 25.1733H90.0475V30.3705H112.946V49.134H90.0475V54.3163H115.763C115.763 54.3163 115.983 54.3163 116.358 54.2924L116.358 54.2927Z" fill="var(--fill-0, white)"/>
<path id="Vector_2" d="M62.4021 15.0207C61.9745 17.9257 61.1643 20.7566 59.706 22.8302C58.8983 23.9795 58.0327 24.872 57.1567 25.563C54.9038 27.3346 52.5486 27.7771 50.7678 27.7771C49.0053 27.7771 47.799 27.3454 47.799 27.3454C41.4992 24.9039 37.9979 23.8419 32.8418 23.8419C26.702 23.8419 26.036 25.5234 26.036 26.2437C26.036 27.6843 31.5357 28.7912 35.5538 29.5988C42.4018 30.9785 51.4868 32.8085 57.1571 38.4012V66.3896C56.2548 67.4275 55.2399 68.3943 54.1226 69.2868C48.4155 73.8468 40.1882 76.278 30.319 76.3254C30.2194 76.3282 30.1171 76.3282 30.0148 76.3282C27.4734 76.3282 24.898 76.1797 22.3566 75.8992C19.0886 75.4782 16.0201 74.787 12.6945 73.8548C11.7557 73.5608 8.91239 73.0005 7.9402 72.9073C5.45754 72.6691 1.92308 72.5851 0.375641 75.2409C0.375641 75.2409 -0.112287 73.8042 0.024265 69.3262C0.0741677 67.5624 0.220936 65.669 0.533054 63.8313C0.98422 61.1724 2.30346 58.6222 3.64629 56.7157C4.02124 56.1834 4.40686 55.7068 4.80018 55.2804C7.43867 52.4124 10.4285 51.7688 12.5843 51.7688C12.781 51.7688 12.9724 51.7741 13.1534 51.7847C14.601 51.8614 15.5478 52.2003 15.5478 52.2003C19.9672 53.911 23.0094 54.9464 26.2118 55.4127C26.2275 55.4153 26.2433 55.4153 26.2617 55.4153C27.6018 55.5689 28.9238 55.6484 30.2035 55.6484C32.9836 55.6484 34.977 55.3809 36.1283 54.8567C37.0096 54.454 37.0096 54.086 37.0096 53.8159C37.0096 52.1926 31.612 51.0593 27.2741 50.1457C21.9395 49.0283 15.2988 47.6325 10.0588 44.4653C3.75903 40.6652 0.567306 34.916 0.567306 27.382C0.567306 20.5365 3.53629 14.406 8.92577 10.1265C14.6668 5.57177 23.0019 3.15914 33.0285 3.15914C39.7556 3.15914 44.8071 4.05695 50.6582 5.69361C51.8044 6.05113 52.9898 6.22061 54.1595 6.22061C55.1875 6.22061 56.1999 6.08823 57.1573 5.83149C59.4154 5.22753 61.3641 3.93281 62.4499 2.06575C62.4499 2.06575 62.5838 3.07463 62.6913 4.68221C62.8619 7.19789 62.9694 11.173 62.4028 15.0207H62.4021Z" fill="var(--fill-0, white)"/>
<g id="Group">
<path id="Vector_3" d="M161.276 39.7916C161.284 39.3478 161.282 38.4101 161.27 38.1827C161.16 36.0424 159.739 33.409 158.095 30.3596C157.668 29.5688 157.214 28.7267 156.754 27.8398C156.294 28.7264 155.84 29.5686 155.414 30.3592C153.769 33.409 152.349 36.0428 152.237 38.1831C152.225 38.409 152.223 39.3432 152.232 39.7891C152.246 39.8006 152.259 39.8127 152.273 39.8244C153.185 40.5619 154.007 41.3981 154.73 42.3392C155.522 43.3709 156.142 44.4566 156.63 45.5458C156.675 45.6274 156.718 45.7103 156.755 45.7962C156.794 45.7041 156.839 45.6161 156.885 45.5298C157.372 44.446 157.99 43.3659 158.778 42.3392C159.511 41.3839 160.347 40.5369 161.276 39.7916H161.276Z" fill="var(--fill-0, white)"/>
<path id="Vector_4" d="M161.303 44.2829C158.791 47.5413 158.365 51.6238 158.346 53.8736C160.362 53.4025 163.83 52.2014 166.304 49.2504C168.37 46.7862 169.389 43.5358 169.341 39.5708C165.853 40.3026 163.154 41.8833 161.303 44.2829Z" fill="var(--fill-0, white)"/>
<path id="Vector_5" d="M144.168 39.5708C144.12 43.5358 145.138 46.7862 147.204 49.2504C149.678 52.2012 153.146 53.4025 155.163 53.8736C155.144 51.6238 154.718 47.5413 152.205 44.2829C150.354 41.8833 147.656 40.3026 144.168 39.5708Z" fill="var(--fill-0, white)"/>
<path id="Vector_6" d="M168.428 4.68236H145.08L115.738 74.8066H136.537C139.444 74.8066 142.05 72.9375 143.095 70.1041L144.486 66.332H168.655L170.048 70.1062C171.093 72.9384 173.699 74.8064 176.605 74.8064H197.769L168.428 4.68213V4.68236ZM168.703 51.3526C164.155 56.7486 157.252 57.3349 156.96 57.3572H156.548C156.256 57.3347 149.353 56.7484 144.805 51.3526C141.861 47.8599 140.61 43.2206 141.087 37.5633L141.227 35.904L142.864 36.1083C145.179 36.3971 147.254 36.9751 149.081 37.8336C149.286 35.0238 150.834 32.1465 152.624 28.8257C153.517 27.1712 154.439 25.4604 155.314 23.561L156.753 20.4342L158.193 23.561C159.068 25.4604 159.991 27.1712 160.883 28.826C162.675 32.1472 164.223 35.0245 164.426 37.8336C166.254 36.9751 168.328 36.3971 170.643 36.108L172.28 35.9037L172.42 37.5631C172.897 43.2204 171.646 47.8599 168.702 51.3524L168.703 51.3526Z" fill="var(--fill-0, white)"/>
</g>
</g>
</svg>
