<svg preserveAspectRatio="none" width="100%" height="100%" overflow="visible" style="display: block;" viewBox="0 0 213.272 76.3275" fill="none" xmlns="http://www.w3.org/2000/svg">
<g id="DC7">
<path id="Vector" d="M202.928 4.69004H213.272L173.336 74.8079H155.67L155.644 72.8323C155.644 72.6603 155.307 66.7375 154.457 61.7856C154.426 61.6028 154.394 61.4203 154.36 61.2403L174.449 25.9838H149.834C149.711 25.9838 148.358 25.9575 146.559 24.8451C146.43 24.7656 146.299 24.6809 146.166 24.5883C144.749 23.6163 143.11 21.9771 141.591 19.1992C140.052 16.3869 139.331 12.6636 139.013 9.24732C138.806 7.00967 138.775 4.90167 138.801 3.26775C138.832 1.30289 138.948 0.0209961 138.948 0.0209961C139.929 2.48126 142.481 3.68871 144.747 4.2819H144.749C145.505 4.47773 146.229 4.60759 146.85 4.68981H202.929L202.928 4.69004Z" fill="var(--fill-0, white)"/>
<path id="Vector_2" d="M148.025 70.6502C148.119 72.0432 148.133 72.9037 148.133 72.9037C147.87 72.5727 147.579 72.2681 147.262 71.9901C145.971 70.8408 144.28 70.1152 142.439 69.8264C141.838 69.7337 141.222 69.686 140.598 69.686C138.775 69.686 136.892 70.0912 135.169 70.912C129.205 74.4817 121.982 76.3275 113.77 76.3275C103.03 76.3275 93.2603 72.6994 86.2579 66.1161C79.1792 59.4533 75.2793 50.0894 75.2793 39.7431C75.2793 29.3968 79.1792 20.0328 86.2579 13.3728C93.2606 6.78678 103.03 3.15869 113.77 3.15869C120.285 3.15869 126.175 4.32126 131.31 6.58272C131.483 11.2222 132.255 17.2256 134.73 21.7565C136.443 24.8867 138.536 27.3124 140.949 28.9676C140.988 28.9939 141.028 29.0205 141.064 29.0443C138.405 31.3933 135.698 32.0499 133.5 32.0499C132.577 32.0499 131.743 31.9333 131.043 31.7771C131.027 31.7744 131.014 31.7691 130.998 31.7691C129.621 31.4567 128.772 31.0012 128.772 31.0012C126.162 29.5182 124.027 28.3611 122.029 27.4606C121.287 27.1216 120.544 26.8303 119.813 26.5655C119.789 26.5577 119.768 26.5497 119.747 26.5417C119.432 26.4279 119.123 26.3218 118.813 26.2185C118.803 26.216 118.79 26.2133 118.779 26.2107C117.549 25.8267 116.251 25.599 114.9 25.599C110.846 25.599 107.893 26.7297 105.472 29.3091C103.001 31.9468 101.929 35.2438 101.929 39.7429C101.929 44.242 103.001 47.5391 105.472 50.1794C107.893 52.7613 110.846 53.8867 114.9 53.8867C116.254 53.8867 117.531 53.6962 118.717 53.3783C119.818 53.0182 120.901 52.5865 122.029 52.0753C124.028 51.175 126.162 50.0177 128.772 48.5347C128.772 48.5347 129.64 48.0714 131.043 47.759C131.743 47.6025 132.577 47.4887 133.501 47.4887C135.966 47.4887 139.074 48.3123 142.032 51.4239C144.485 54.0058 145.953 58.1609 146.829 62.1277C147.561 65.4354 147.884 68.6132 148.025 70.6496L148.025 70.6502Z" fill="var(--fill-0, white)"/>
<g id="Group">
<path id="Vector_3" d="M43.2311 44.2835C40.7183 47.5419 40.2923 51.6244 40.2734 53.8742C42.29 53.4031 45.758 52.202 48.2318 49.251C50.2977 46.7868 51.3162 43.5364 51.2683 39.5714C47.7804 40.3031 45.0818 41.8839 43.2311 44.2835Z" fill="var(--fill-0, white)"/>
<path id="Vector_4" d="M43.2013 39.7917C43.2095 39.3479 43.2077 38.4102 43.1961 38.1828C43.0859 36.0425 41.6652 33.4091 40.0205 30.3597C39.5938 29.5689 39.1395 28.7267 38.6795 27.8399C38.2197 28.7265 37.7658 29.5687 37.3393 30.3593C35.6948 33.4091 34.2744 36.0429 34.1626 38.1832C34.151 38.4091 34.1492 39.3433 34.1574 39.7892C34.1717 39.8007 34.1848 39.8128 34.1989 39.8245C35.111 40.562 35.933 41.3982 36.6555 42.3393C37.4478 43.371 38.0675 44.4566 38.5556 45.5459C38.6007 45.6275 38.6434 45.7104 38.6804 45.7963C38.7198 45.7042 38.7643 45.6162 38.8108 45.5299C39.2978 44.4461 39.9155 43.366 40.7039 42.3393C41.4373 41.384 42.2729 40.537 43.2018 39.7917H43.2013Z" fill="var(--fill-0, white)"/>
<path id="Vector_5" d="M67.7665 39.7438C67.7665 33.3352 69.083 27.2498 71.5877 21.7945C69.9039 18.895 67.7586 16.2891 65.1779 14.0221C58.212 7.91291 48.5238 4.68196 37.1596 4.68196H9.71024C9.17016 4.67417 1.94448 4.50721 0.150483 9.42349e-05C0.150483 9.42349e-05 -0.93263 11.9246 2.71276 18.5929C4.88692 22.5677 7.31287 24.1407 8.91815 24.7658V74.8078H37.1592C48.5234 74.8078 58.2117 71.5771 65.1775 65.4677C67.7608 63.2035 69.9035 60.595 71.5899 57.6927C69.0853 52.2402 67.7661 46.1495 67.7661 39.7435L67.7665 39.7438ZM50.6288 51.3529C46.0809 56.7489 39.1777 57.3352 38.886 57.3574H38.4737C38.1822 57.335 31.2788 56.7487 26.7309 51.3529C23.7871 47.8602 22.5366 43.2209 23.0136 37.5636L23.1536 35.9043L24.7904 36.1086C27.1054 36.3974 29.1797 36.9754 31.0066 37.8338C31.2119 35.0241 32.7598 32.1468 34.5504 28.826C35.4428 27.1715 36.3653 25.4606 37.2397 23.5613L38.6796 20.4345L40.1195 23.5613C40.994 25.4606 41.9169 27.1715 42.8095 28.8263C44.6008 32.1475 46.1494 35.0248 46.3526 37.8338C48.1797 36.9754 50.2541 36.3974 52.5691 36.1083L54.2059 35.904L54.3459 37.5634C54.8231 43.2207 53.5724 47.8602 50.6286 51.3527L50.6288 51.3529Z" fill="var(--fill-0, white)"/>
<path id="Vector_6" d="M26.0915 39.5714C26.0436 43.5364 27.0618 46.7868 29.128 49.251C31.6018 52.2018 35.0698 53.4031 37.0864 53.8742C37.0675 51.6244 36.6415 47.5419 34.1287 44.2835C32.2782 41.8839 29.5794 40.3031 26.0915 39.5714Z" fill="var(--fill-0, white)"/>
</g>
</g>
</svg>
