<svg preserveAspectRatio="none" width="100%" height="100%" overflow="visible" style="display: block;" viewBox="0 0 1770.84 810" fill="none" xmlns="http://www.w3.org/2000/svg">
<g id="Group 3542" opacity="0.04">
<g id="Group 3540">
<path id="Union" d="M618.059 137.736C766.231 -10.4338 1006.48 -10.455 1154.66 137.706C1302.83 285.881 1302.83 526.153 1154.66 674.328C1006.48 822.49 766.231 822.468 618.059 674.298C469.901 526.126 469.9 285.908 618.059 137.736ZM1092.54 199.818C978.67 85.9605 794.039 85.9812 680.171 199.848C566.316 313.716 566.316 498.317 680.171 612.186C794.04 726.054 978.67 726.075 1092.54 612.217C1206.42 498.345 1206.42 313.69 1092.54 199.818Z" fill="var(--fill-0, #FF6600)"/>
<path id="Vector" d="M1296.36 69.4944C1389.02 69.4944 1464.13 219.707 1464.12 405.007C1464.12 590.3 1389.01 740.512 1296.35 740.512C1481.65 740.512 1631.88 590.3 1631.87 405C1631.87 219.706 1481.65 69.4876 1296.36 69.4876L1296.36 69.4944Z" fill="var(--fill-0, #FF6600)"/>
<path id="Vector_2" d="M474.484 69.492C381.829 69.492 306.719 219.704 306.726 405.004C306.726 590.297 381.835 740.509 474.49 740.509C289.194 740.509 138.968 590.298 138.974 404.998C138.974 219.704 289.188 69.492 474.484 69.492Z" fill="var(--fill-0, #FF6600)"/>
</g>
<path id="Ellipse 361" d="M896.795 723.214C1072.54 723.214 1215.01 580.745 1215.01 405C1215.01 229.256 1072.54 86.7865 896.795 86.7865V723.214Z" fill="var(--fill-0, #FF6600)"/>
</g>
</svg>
