<svg preserveAspectRatio="none" width="100%" height="100%" overflow="visible" style="display: block;" viewBox="0 0 1438 1438" fill="none" xmlns="http://www.w3.org/2000/svg">
<g id="Group" opacity="0.5">
<g id="Group_2">
<path id="Vector" d="M893.439 287.739C895.995 273.703 911.06 176.628 849.578 125.017C801.773 84.8854 761.222 77.6387 719.001 0C676.779 77.6387 636.228 84.8854 588.423 125.017C526.223 177.231 542.38 276.045 544.653 288.258C598.728 266.205 657.8 253.947 719.702 253.947C781.108 253.947 839.73 266.022 893.439 287.739Z" fill="var(--fill-0, #DECFFB)"/>
<path id="Vector_2" d="M544.66 1149.74C542.387 1161.96 526.231 1260.77 588.431 1312.98C636.236 1353.11 676.787 1360.36 719.008 1438C761.23 1360.36 801.78 1353.11 849.586 1312.98C911.068 1261.37 896.003 1164.3 893.447 1150.26C839.73 1171.98 781.124 1184.05 719.718 1184.05C657.808 1184.05 598.736 1171.8 544.668 1149.74H544.66Z" fill="var(--fill-0, #DECFFB)"/>
<path id="Vector_3" d="M1312.98 588.422C1261.83 527.489 1166.02 541.746 1150.66 544.492C1172.57 598.415 1184.76 657.296 1184.76 719C1184.76 780.703 1172.57 839.584 1150.66 893.507C1166.03 896.254 1261.83 910.51 1312.98 849.577C1353.12 801.772 1360.36 761.221 1438 719C1360.36 676.778 1353.12 636.227 1312.98 588.422Z" fill="var(--fill-0, #DECFFB)"/>
<path id="Vector_4" d="M288.654 544.728C278.761 542.836 177.963 525.345 125.017 588.422C84.8852 636.227 77.6387 676.778 0 719C77.6387 761.221 84.8852 801.772 125.017 849.577C177.963 912.654 278.761 895.162 288.654 893.271C266.8 839.409 254.648 780.612 254.648 719C254.648 657.388 266.8 598.59 288.654 544.728Z" fill="var(--fill-0, #DECFFB)"/>
<path id="Vector_5" d="M1147.69 537.124C1160.7 528.047 1238.24 470.439 1231.34 391.321C1225.92 329.144 1202.36 295.344 1227.41 210.589C1142.66 235.639 1108.86 212.084 1046.68 206.652C966.927 199.696 909.038 278.532 900.67 290.6C1011.51 337.596 1100.46 426.41 1147.69 537.124Z" fill="var(--fill-0, #DECFFB)"/>
<path id="Vector_6" d="M291.384 900.136C282.505 906.177 199.527 964.952 206.659 1046.68C212.082 1108.86 235.638 1142.66 210.587 1227.41C295.343 1202.36 329.143 1225.92 391.32 1231.35C472.116 1238.4 530.509 1157.34 537.664 1146.92C427.08 1099.69 338.373 1010.84 291.376 900.143L291.384 900.136Z" fill="var(--fill-0, #DECFFB)"/>
<path id="Vector_7" d="M900.678 1147.4C909.046 1159.47 966.936 1238.3 1046.69 1231.35C1108.86 1225.92 1142.66 1202.37 1227.42 1227.41C1202.38 1142.66 1225.92 1108.86 1231.35 1046.68C1238.25 967.561 1160.7 909.953 1147.7 900.876C1100.47 1011.59 1011.51 1100.4 900.678 1147.4Z" fill="var(--fill-0, #DECFFB)"/>
<path id="Vector_8" d="M537.664 291.089C530.509 280.669 472.116 199.613 391.32 206.661C329.143 212.085 295.343 235.64 210.587 210.597C235.63 295.353 212.082 329.153 206.659 391.329C199.527 473.057 282.505 531.831 291.384 537.872C338.373 427.174 427.088 338.314 537.672 291.096L537.664 291.089Z" fill="var(--fill-0, #DECFFB)"/>
</g>
<path id="Vector_9" d="M719.71 315.527C497.23 315.527 316.23 496.526 316.23 718.999C316.23 941.473 497.23 1122.47 719.71 1122.47C942.191 1122.47 1123.18 941.473 1123.18 718.999C1123.18 496.526 942.184 315.527 719.71 315.527ZM719.001 978.728C575.563 978.728 459.272 862.446 459.272 718.999C459.272 575.553 575.555 459.271 719.001 459.271C862.447 459.271 978.73 575.553 978.73 718.999C978.73 862.446 862.447 978.728 719.001 978.728Z" fill="var(--fill-0, #DECFFB)"/>
<path id="Vector_10" d="M720.41 978.728C821.843 978.728 904.071 862.444 904.071 718.999C904.071 575.555 821.843 459.271 720.41 459.271C618.976 459.271 536.748 575.555 536.748 718.999C536.748 862.444 618.976 978.728 720.41 978.728Z" fill="var(--fill-0, #DECFFB)"/>
</g>
</svg>
