<svg preserveAspectRatio="none" width="100%" height="100%" overflow="visible" style="display: block;" viewBox="0 0 677.057 597.215" fill="none" xmlns="http://www.w3.org/2000/svg">
<g id="Group 75">
<path id="Subtract" d="M89.4805 0C58.2264 0 28.1453 5.25248 0 14.959C113.854 54.2242 196.031 166.379 196.031 298.607C196.031 430.836 113.854 542.99 0 582.255C28.1454 591.961 58.2263 597.215 89.4805 597.215C247.164 597.215 374.992 463.524 374.992 298.607C374.992 133.691 247.164 7.64096e-05 89.4805 0Z" fill="var(--fill-0, #FF6600)"/>
<path id="Subtract_2" d="M263.272 0C242.509 1.6641e-05 222.263 2.31846 202.759 6.7207C331.377 35.7503 427.757 155.407 427.757 298.607C427.757 441.808 331.377 561.464 202.759 590.493C222.263 594.895 242.509 597.215 263.272 597.215C420.956 597.215 548.785 463.524 548.785 298.607C548.785 133.691 420.956 0 263.272 0Z" fill="var(--fill-0, #FF6600)"/>
<path id="Subtract_3" d="M391.545 0C378.029 0 364.733 0.981991 351.718 2.88184C490.549 23.1475 597.402 147.827 597.402 298.607C597.402 449.388 490.548 574.066 351.718 594.332C364.733 596.232 378.029 597.215 391.545 597.215C549.229 597.215 677.057 463.524 677.057 298.607C677.057 133.691 549.229 0.000200378 391.545 0Z" fill="var(--fill-0, #FF6600)"/>
</g>
</svg>
