<svg preserveAspectRatio="none" width="100%" height="100%" overflow="visible" style="display: block;" viewBox="0 0 710.041 599.216" fill="none" xmlns="http://www.w3.org/2000/svg">
<g id="Group 75">
<path id="Subtract" d="M93.8408 0C61.0648 1.93583e-05 29.519 5.2701 0.00292969 15.0088C119.403 54.406 205.583 166.936 205.583 299.607C205.583 432.279 119.401 544.809 0 584.205C29.5169 593.944 61.0636 599.216 93.8408 599.216C259.207 599.216 393.263 465.076 393.263 299.607C393.263 134.139 259.207 0 93.8408 0Z" fill="var(--fill-0, #FF6600)"/>
<path id="Subtract_2" d="M276.098 0C254.323 3.30727e-05 233.091 2.32627 212.637 6.74316C347.52 35.8702 448.596 155.928 448.596 299.607C448.596 443.287 347.52 563.345 212.637 592.472C233.091 596.889 254.323 599.216 276.098 599.216C441.464 599.216 575.52 465.076 575.52 299.607C575.519 134.139 441.464 0 276.098 0Z" fill="var(--fill-0, #FF6600)"/>
<path id="Subtract_3" d="M410.619 0C396.445 1.17144e-05 382.502 0.984457 368.853 2.89062C514.447 23.2243 626.506 148.322 626.506 299.607C626.506 450.893 514.447 575.99 368.853 596.323C382.502 598.229 396.445 599.216 410.619 599.216C575.985 599.216 710.041 465.076 710.041 299.607C710.041 134.139 575.985 0 410.619 0Z" fill="var(--fill-0, #FF6600)"/>
</g>
</svg>
