<svg width="25" height="21" viewBox="0 0 25 21" fill="none" xmlns="http://www.w3.org/2000/svg">
<path d="M12.2 14.3996H9.79995C7.83147 14.3989 5.90023 14.9362 4.215 15.9535C2.52977 16.9708 1.15467 18.4294 0.238353 20.1716C0.212597 19.8483 0.199786 19.524 0.199953 19.1996C0.199953 12.572 5.57235 7.19961 12.2 7.19961V0.599609L24.8 10.7996L12.2 20.9996V14.3996ZM9.79995 11.9996H14.6V15.9692L20.9852 10.7996L14.6 5.63001V9.59961H12.2C10.8203 9.59806 9.4565 9.89459 8.20202 10.4689C6.94754 11.0432 5.83194 11.8818 4.93155 12.9272C6.48113 12.3131 8.13311 11.9983 9.79995 11.9996Z" fill="white"/>
</svg>
