<svg width="22" height="22" viewBox="0 0 22 22" fill="none" xmlns="http://www.w3.org/2000/svg">
<path d="M16.0385 2.42311H20.1923C20.4677 2.42311 20.7319 2.53252 20.9266 2.72727C21.1214 2.92202 21.2308 3.18616 21.2308 3.46158V20.077C21.2308 20.3524 21.1214 20.6165 20.9266 20.8113C20.7319 21.006 20.4677 21.1154 20.1923 21.1154H1.50001C1.22459 21.1154 0.960455 21.006 0.765706 20.8113C0.570957 20.6165 0.461548 20.3524 0.461548 20.077V3.46158C0.461548 3.18616 0.570957 2.92202 0.765706 2.72727C0.960455 2.53252 1.22459 2.42311 1.50001 2.42311H5.65386V0.346191H7.73078V2.42311H13.9615V0.346191H16.0385V2.42311ZM2.53847 8.65388V19.0385H19.1539V8.65388H2.53847ZM4.61539 10.7308H6.69232V12.8077H4.61539V10.7308ZM4.61539 14.8847H6.69232V16.9616H4.61539V14.8847ZM8.76924 10.7308H17.0769V12.8077H8.76924V10.7308ZM8.76924 14.8847H13.9615V16.9616H8.76924V14.8847Z" fill="#525866"/>
</svg>
