<svg width="17" height="17" viewBox="0 0 17 17" fill="none" xmlns="http://www.w3.org/2000/svg">
<path d="M0.425049 2.9875L5.93755 0.625L10.6625 2.9875L15.6262 0.860463C15.6861 0.834777 15.7514 0.824371 15.8164 0.830177C15.8813 0.835984 15.9438 0.857821 15.9982 0.89373C16.0526 0.929639 16.0972 0.978496 16.1281 1.03592C16.159 1.09334 16.1751 1.15752 16.175 1.22271V14.0125L10.6625 16.375L5.93755 14.0125L0.973937 16.1395C0.914018 16.1652 0.84866 16.1756 0.783728 16.1698C0.718796 16.164 0.656321 16.1422 0.601911 16.1063C0.547501 16.0704 0.502858 16.0215 0.471989 15.9641C0.44112 15.9067 0.424991 15.8425 0.425049 15.7773V2.9875ZM11.45 14.3236L14.6 12.9738V3.01349L11.45 4.36326V14.3236ZM9.87505 14.2204V4.3546L6.72505 2.7796V12.6454L9.87505 14.2204ZM5.15005 12.6367V2.67644L2.00005 4.02621V13.9865L5.15005 12.6367Z" fill="white"/>
</svg>
