<svg width="17" height="15" viewBox="0 0 17 15" fill="none" xmlns="http://www.w3.org/2000/svg">
<path fill-rule="evenodd" clip-rule="evenodd" d="M6.09017 15H0.967912V14.4194C0.967912 14.1521 1.17683 13.9355 1.43452 13.9355H1.52783V13.3548C1.52783 13.0876 1.73672 12.871 1.99441 12.871V4.25806H1.48117L0.874603 2.12902H3.58083V0H13.7525V2.12902H16.4587L15.8522 4.25806H15.3389V12.871C15.5966 12.871 15.8055 13.0876 15.8055 13.3548V13.9355H15.8988C16.1565 13.9355 16.3654 14.1521 16.3654 14.4194V15H11.2489V14.4194C11.2489 14.1521 11.4578 13.9355 11.7155 13.9355H11.8088V13.3548C11.8088 13.0932 12.0091 12.88 12.2594 12.8713V8.12904C12.0944 6.23006 10.5408 4.74193 8.66666 4.74193C6.79255 4.74193 5.23895 6.23006 5.07392 8.12904V12.8711C5.32686 12.8768 5.53026 13.0912 5.53026 13.3548V13.6452V13.9355H5.62357C5.88126 13.9355 6.09017 14.1521 6.09017 14.4194V15Z" fill="#7D52F4"/>
</svg>
