<svg width="22" height="19" viewBox="0 0 22 19" fill="none" xmlns="http://www.w3.org/2000/svg">
<path d="M17.3077 4.34623H20.4231C20.6985 4.34623 20.9626 4.45564 21.1574 4.65039C21.3521 4.84514 21.4616 5.10927 21.4616 5.38469V17.8462C21.4616 18.1216 21.3521 18.3858 21.1574 18.5805C20.9626 18.7753 20.6985 18.8847 20.4231 18.8847H1.73078C1.45537 18.8847 1.19123 18.7753 0.99648 18.5805C0.801731 18.3858 0.692322 18.1216 0.692322 17.8462V1.23084C0.692322 0.955427 0.801731 0.69129 0.99648 0.496541C1.19123 0.301792 1.45537 0.192383 1.73078 0.192383H17.3077V4.34623ZM2.76924 6.42315V16.8078H19.3846V6.42315H2.76924ZM2.76924 2.26931V4.34623H15.2308V2.26931H2.76924ZM14.1923 10.577H17.3077V12.6539H14.1923V10.577Z" fill="#525866"/>
</svg>
