<svg width="15" height="17" viewBox="0 0 15 17" fill="none" xmlns="http://www.w3.org/2000/svg">
<path d="M14.9875 0.625V16.375H13.4125V10.8625H10.2625V5.35C10.2625 4.09685 10.7603 2.89503 11.6464 2.00892C12.5325 1.12281 13.7344 0.625 14.9875 0.625V0.625ZM13.4125 2.61738C12.7589 2.9875 11.8375 3.90888 11.8375 5.35V9.2875H13.4125V2.61738V2.61738ZM5.5375 9.99625V16.375H3.9625V9.99625C3.07326 9.81443 2.27409 9.33111 1.70013 8.628C1.12616 7.92489 0.812611 7.04514 0.8125 6.1375V1.4125H2.3875V6.925H3.9625V1.4125H5.5375V6.925H7.1125V1.4125H8.6875V6.1375C8.68739 7.04514 8.37384 7.92489 7.79987 8.628C7.22591 9.33111 6.42674 9.81443 5.5375 9.99625V9.99625Z" fill="white"/>
</svg>
