<svg width="18" height="18" viewBox="0 0 18 18" fill="none" xmlns="http://www.w3.org/2000/svg">
<path d="M16.4187 2.48167C18.4545 4.52287 18.5247 7.77367 16.6311 9.89407L8.9991 17.5369L1.3689 9.89407C-0.524702 7.77367 -0.453602 4.51747 1.5813 2.48167C3.6198 0.444073 6.8805 0.375672 9.0009 2.27647C11.115 0.378372 14.382 0.441373 16.4187 2.48167V2.48167ZM2.8548 3.75517C1.5138 5.09617 1.4463 7.24267 2.682 8.66107L9 14.989L15.318 8.66197C16.5546 7.24267 16.4871 5.09887 15.1443 3.75337C13.806 2.41237 11.6514 2.34757 10.2366 3.58597L6.4548 7.36867L5.1813 6.09607L7.7238 3.55177L7.65 3.48967C6.2325 2.35117 4.1607 2.44837 2.8548 3.75517V3.75517Z" fill="#0E121B"/>
</svg>
