<svg width="16" height="16" viewBox="0 0 16 16" fill="none" xmlns="http://www.w3.org/2000/svg">
<path d="M8 -0.000183105C3.58333 -0.000183105 0 3.58315 0 7.99982C0 12.4165 3.58333 15.9998 8 15.9998C12.4167 15.9998 16 12.4165 16 7.99982C16 3.58315 12.4167 -0.000183105 8 -0.000183105ZM8.435 12.5832H7.17625C7.14792 12.583 7.12079 12.5717 7.1008 12.5516C7.08081 12.5316 7.06958 12.5044 7.06958 12.4761V11.2177C7.06958 11.1894 7.08081 11.1622 7.1008 11.1422C7.12079 11.1221 7.14792 11.1108 7.17625 11.1107H8.435C8.46333 11.1108 8.49046 11.1221 8.51045 11.1422C8.53044 11.1622 8.54167 11.1894 8.54167 11.2177V12.4761C8.54167 12.5044 8.53044 12.5316 8.51045 12.5516C8.49046 12.5717 8.46333 12.583 8.435 12.5832ZM9.14333 8.45815C8.46792 8.91148 8.375 9.3269 8.375 9.70815V10.1665C8.375 10.1996 8.36183 10.2314 8.33839 10.2549C8.31495 10.2783 8.28315 10.2915 8.25 10.2915H7.33333C7.30018 10.2915 7.26839 10.2783 7.24495 10.2549C7.2215 10.2314 7.20833 10.1996 7.20833 10.1665V9.70815C7.20833 8.79523 7.62833 8.0694 8.4925 7.48898C9.29583 6.94982 9.75 6.60815 9.75 5.8569C9.75 5.34607 9.45833 4.95815 8.85458 4.67107C8.7125 4.60357 8.39625 4.53773 8.00708 4.54232C7.51875 4.54857 7.13958 4.66523 6.8475 4.90023C6.29667 5.34357 6.25 5.82648 6.25 5.83315C6.22713 5.97479 6.21542 6.11801 6.215 6.26148C6.215 6.29464 6.20183 6.32643 6.17839 6.34987C6.15495 6.37331 6.12315 6.38648 6.09 6.38648H5.20458C5.17355 6.38665 5.14357 6.37527 5.12047 6.35455C5.09736 6.33384 5.08279 6.30527 5.07958 6.2744C5.06458 6.10801 5.06584 5.94055 5.08333 5.7744C5.0925 5.67315 5.15833 4.76107 6.11542 3.99107C6.61167 3.5919 7.24292 3.3844 7.99042 3.37523C8.51958 3.36898 9.01667 3.45857 9.35375 3.61773C10.3625 4.09732 10.9167 4.89273 10.9167 5.8569C10.9167 7.26648 9.97458 7.8994 9.14333 8.45815Z" fill="black"/>
</svg>
