<svg width="21" height="14" viewBox="0 0 21 14" fill="none" xmlns="http://www.w3.org/2000/svg">
<path d="M6.5568 3.9161C6.81917 1.70704 8.38668 0.662484 10.0377 0.537587C11.0504 0.460762 11.9826 0.718194 12.7877 1.35661C13.6 2.00041 13.999 2.86975 14.1104 3.90217C14.3629 3.74134 14.5835 3.5769 14.8247 3.45155C16.0198 2.83021 17.2148 2.87784 18.347 3.5769C19.7038 4.41479 20.428 5.63501 20.3233 7.26631C20.2699 8.10375 19.8974 8.81674 19.3332 9.42595C17.5828 11.3151 15.4164 12.4891 12.9351 13.1077C12.019 13.3364 11.0904 13.5125 10.1415 13.4694C8.47204 13.3935 6.88207 12.9707 5.36039 12.2919C3.84006 11.6135 2.50663 10.6691 1.36413 9.45246C0.0208144 8.02198 -0.0164762 5.91401 1.2927 4.44175C2.14047 3.4884 3.18053 2.96724 4.47892 3.04407C5.15463 3.08405 5.7544 3.33744 6.30027 3.72831C6.37799 3.78401 6.45437 3.84152 6.55545 3.91565L6.5568 3.9161ZM11.5778 8.63389C11.5976 8.63883 11.6174 8.64422 11.6372 8.64917C11.6574 8.73588 11.6695 8.82573 11.6996 8.90884C11.8047 9.19862 12.0074 9.38103 12.3147 9.43314C12.6206 9.48481 12.8771 9.38732 13.073 9.14786C13.2887 8.88413 13.29 8.53146 13.0986 8.18282C13.064 8.11948 13.0515 8.02738 13.0694 7.95954C13.0775 7.92809 13.1853 7.90293 13.2451 7.90787C13.7357 7.95055 14.1926 8.09477 14.5179 8.48204C14.6765 8.67073 14.7829 8.90884 14.8845 9.13752C14.9757 9.34329 15.0965 9.44887 15.2614 9.40035C15.4834 9.33475 15.4663 9.16313 15.4223 8.9996C15.38 8.84235 15.3239 8.68466 15.247 8.54179C14.7569 7.62842 13.6005 7.1522 12.5249 7.4303C11.6776 7.64909 11.0657 8.13251 10.8424 9.01802C10.784 9.24939 10.8532 9.38462 11.0392 9.41337C11.2422 9.44482 11.3321 9.32846 11.3842 9.14471C11.4336 8.97039 11.5127 8.80416 11.5783 8.63434L11.5778 8.63389ZM5.98892 8.61098C6.01049 8.61547 6.0316 8.61951 6.05317 8.62401C6.06305 8.67702 6.07294 8.72958 6.08327 8.7826C6.13044 9.02161 6.24995 9.21255 6.46245 9.33745C6.77515 9.52165 7.18937 9.46864 7.43423 9.21525C7.70334 8.93715 7.73524 8.52427 7.51419 8.18507C7.39109 7.99683 7.40502 7.9483 7.58473 7.93752C8.24471 7.89843 8.98556 8.37421 9.21783 8.98881C9.24658 9.06519 9.25602 9.1501 9.28971 9.22378C9.35845 9.37474 9.47436 9.46549 9.64733 9.42056C9.8239 9.37474 9.86568 9.22828 9.81042 9.08406C9.70439 8.80866 9.61858 8.5054 9.43932 8.28256C8.80225 7.49274 7.9464 7.2425 6.97193 7.44377C6.09675 7.62438 5.47585 8.12262 5.22561 9.01667C5.17574 9.19503 5.17709 9.34958 5.37971 9.42011C5.56571 9.48526 5.6933 9.38372 5.76833 9.15819C5.83033 8.97174 5.91524 8.79293 5.99027 8.61053L5.98892 8.61098ZM10.3406 11.4895C10.8599 11.4652 11.3227 11.3012 11.6704 10.9009C11.7306 10.8313 11.7576 10.648 11.7104 10.5905C11.6484 10.5145 11.4983 10.488 11.3851 10.4849C11.3191 10.4831 11.2454 10.5622 11.1843 10.6152C10.9098 10.8542 10.5904 10.9427 10.2318 10.9211C9.91061 10.9023 9.64913 10.7652 9.41371 10.5532C9.27803 10.431 9.11495 10.4036 8.97522 10.5536C8.83999 10.6992 8.92041 10.8268 9.03273 10.9427C9.39035 11.312 9.83692 11.467 10.3406 11.4886V11.4895Z" fill="#7D52F4"/>
</svg>
