<svg width="10" height="9" viewBox="0 0 10 9" fill="none" xmlns="http://www.w3.org/2000/svg">
<path d="M6.8 0.900391C6.91935 0.900391 7.03381 0.947801 7.1182 1.03219C7.20259 1.11658 7.25 1.23104 7.25 1.35039V3.24039L9.59585 1.59789C9.62958 1.57425 9.66916 1.56031 9.71026 1.55762C9.75136 1.55492 9.79242 1.56356 9.82896 1.58259C9.86549 1.60162 9.89609 1.63032 9.91744 1.66555C9.93878 1.70078 9.95005 1.7412 9.95 1.78239V7.21839C9.95005 7.25958 9.93878 7.3 9.91744 7.33523C9.89609 7.37046 9.86549 7.39916 9.82896 7.41819C9.79242 7.43723 9.75136 7.44586 9.71026 7.44317C9.66916 7.44047 9.62958 7.42654 9.59585 7.40289L7.25 5.76039V7.65039C7.25 7.76974 7.20259 7.8842 7.1182 7.96859C7.03381 8.05298 6.91935 8.10039 6.8 8.10039H0.499999C0.380652 8.10039 0.266193 8.05298 0.181801 7.96859C0.0974098 7.8842 0.0499992 7.76974 0.0499992 7.65039V1.35039C0.0499992 1.23104 0.0974098 1.11658 0.181801 1.03219C0.266193 0.947801 0.380652 0.900391 0.499999 0.900391H6.8ZM2.93 3.07344C2.8885 3.07343 2.84828 3.08776 2.81613 3.114C2.78399 3.14024 2.7619 3.17678 2.7536 3.21744L2.75 3.25299V5.74689C2.75 5.77604 2.75707 5.80476 2.77062 5.83057C2.78416 5.85638 2.80378 5.87851 2.82777 5.89507C2.85176 5.91162 2.87942 5.9221 2.90835 5.92561C2.93729 5.92911 2.96665 5.92554 2.9939 5.91519L3.02675 5.89899L4.9865 4.65159C5.00937 4.63696 5.02863 4.61735 5.04284 4.59422C5.05706 4.5711 5.06586 4.54506 5.06858 4.51805C5.07131 4.49104 5.06789 4.46376 5.05859 4.43826C5.04928 4.41276 5.03433 4.3897 5.01485 4.37079L4.9865 4.34829L3.02675 3.10089C2.99771 3.08289 2.96416 3.07353 2.93 3.07389V3.07344Z" fill="#FB3748"/>
</svg>
