<svg width="16" height="16" viewBox="0 0 16 16" fill="none" xmlns="http://www.w3.org/2000/svg">
<path d="M12.5232 11.4627L15.7355 14.6742L14.6742 15.7355L11.4627 12.5232C10.2678 13.4812 8.7815 14.0022 7.25 14C3.524 14 0.5 10.976 0.5 7.25C0.5 3.524 3.524 0.5 7.25 0.5C10.976 0.5 14 3.524 14 7.25C14.0022 8.7815 13.4812 10.2678 12.5232 11.4627ZM11.0187 10.9062C11.9706 9.92741 12.5021 8.61532 12.5 7.25C12.5 4.349 10.1502 2 7.25 2C4.349 2 2 4.349 2 7.25C2 10.1502 4.349 12.5 7.25 12.5C8.61532 12.5021 9.92741 11.9706 10.9062 11.0187L11.0187 10.9062Z" fill="#99A0AE"/>
</svg>
