<svg width="16" height="16" viewBox="0 0 16 16" fill="none" xmlns="http://www.w3.org/2000/svg">
<path d="M8 15.5C3.85775 15.5 0.5 12.1423 0.5 8C0.5 3.85775 3.85775 0.5 8 0.5C12.1423 0.5 15.5 3.85775 15.5 8C15.5 12.1423 12.1423 15.5 8 15.5ZM4.25975 12.692C5.32141 13.5408 6.64076 14.0022 8 14C9.4775 14 10.8298 13.466 11.8752 12.581C11.3868 12.0798 10.8028 11.6817 10.1578 11.4101C9.51276 11.1385 8.81984 10.9991 8.12 11C7.39444 10.9992 6.67663 11.1491 6.0121 11.4404C5.34757 11.7317 4.75084 12.1579 4.25975 12.692ZM3.212 11.615C3.84234 10.9461 4.603 10.4133 5.4471 10.0495C6.29121 9.68579 7.20086 9.49877 8.12 9.5C9.00624 9.49885 9.88398 9.67277 10.7028 10.0118C11.5216 10.3508 12.2654 10.8482 12.8915 11.4755C13.5336 10.5718 13.9127 9.50798 13.9869 8.40193C14.0611 7.29589 13.8275 6.19091 13.3119 5.20959C12.7963 4.22827 12.0189 3.40897 11.066 2.84258C10.1131 2.2762 9.02187 1.98488 7.91345 2.00094C6.80504 2.017 5.72274 2.33981 4.78664 2.93357C3.85053 3.52732 3.09722 4.3688 2.61027 5.36465C2.12332 6.3605 1.92177 7.47178 2.02799 8.57521C2.1342 9.67864 2.54403 10.7311 3.212 11.6157V11.615ZM8 8.75C7.20435 8.75 6.44129 8.43393 5.87868 7.87132C5.31607 7.30871 5 6.54565 5 5.75C5 4.95435 5.31607 4.19129 5.87868 3.62868C6.44129 3.06607 7.20435 2.75 8 2.75C8.79565 2.75 9.55871 3.06607 10.1213 3.62868C10.6839 4.19129 11 4.95435 11 5.75C11 6.54565 10.6839 7.30871 10.1213 7.87132C9.55871 8.43393 8.79565 8.75 8 8.75ZM8 7.25C8.39782 7.25 8.77936 7.09196 9.06066 6.81066C9.34196 6.52936 9.5 6.14782 9.5 5.75C9.5 5.35218 9.34196 4.97064 9.06066 4.68934C8.77936 4.40804 8.39782 4.25 8 4.25C7.60218 4.25 7.22064 4.40804 6.93934 4.68934C6.65804 4.97064 6.5 5.35218 6.5 5.75C6.5 6.14782 6.65804 6.52936 6.93934 6.81066C7.22064 7.09196 7.60218 7.25 8 7.25Z" fill="#525866"/>
</svg>
