<svg width="14" height="13" viewBox="0 0 14 13" fill="none" xmlns="http://www.w3.org/2000/svg">
<path d="M3.57299 7.8L0.899994 9.9V0.6C0.899994 0.44087 0.963208 0.288258 1.07573 0.175736C1.18825 0.0632141 1.34086 0 1.49999 0H10.5C10.6591 0 10.8117 0.0632141 10.9243 0.175736C11.0368 0.288258 11.1 0.44087 11.1 0.6V7.8H3.57299ZM3.15779 6.6H9.89999V1.2H2.09999V7.431L3.15779 6.6ZM5.09999 9H11.2422L12.3 9.831V3.6H12.9C13.0591 3.6 13.2117 3.66321 13.3243 3.77574C13.4368 3.88826 13.5 4.04087 13.5 4.2V12.3L10.827 10.2H5.69999C5.54086 10.2 5.38825 10.1368 5.27573 10.0243C5.16321 9.91174 5.09999 9.75913 5.09999 9.6V9Z" fill="#7D52F4"/>
</svg>
