<?xml version="1.0" encoding="UTF-8"?>
<svg xmlns="http://www.w3.org/2000/svg" xmlns:xlink="http://www.w3.org/1999/xlink" width="21px" height="21px" viewBox="0 0 21 21" version="1.1">
<g id="surface1">
<path d="M 96 94 L 68 94 L 68 132 L 124 132 L 124 94 Z M 96 94 " transform="matrix(0.109375,0,0,0.109375,0,0)"/>
<path d="M 5.6875 3.0625 C 5.566406 3.0625 5.46875 3.160156 5.46875 3.28125 L 5.46875 17.71875 C 5.46875 17.839844 5.566406 17.9375 5.6875 17.9375 L 15.3125 17.9375 C 15.433594 17.9375 15.53125 17.839844 15.53125 17.71875 L 15.53125 6.78125 L 12.46875 6.78125 C 12.105469 6.78125 11.8125 6.488281 11.8125 6.125 L 11.8125 3.0625 Z M 13.125 3.992188 L 14.601562 5.46875 L 13.125 5.46875 Z M 4.15625 3.28125 C 4.15625 2.4375 4.84375 1.75 5.6875 1.75 L 12.46875 1.75 C 12.644531 1.75 12.808594 1.820312 12.933594 1.941406 L 16.652344 5.660156 C 16.773438 5.785156 16.84375 5.949219 16.84375 6.125 L 16.84375 17.71875 C 16.84375 18.5625 16.15625 19.25 15.3125 19.25 L 5.6875 19.25 C 4.84375 19.25 4.15625 18.5625 4.15625 17.71875 Z M 4.15625 3.28125 "/>
</g>
</svg>
