<svg width="12" height="10" viewBox="0 0 12 10" fill="none" xmlns="http://www.w3.org/2000/svg">
<path d="M8.46685 3.48247C8.213 1.51781 6.53375 0 4.5 0C2.29086 0 0.5 1.79086 0.5 4C0.5 4.9462 0.828535 5.81565 1.37775 6.50055C1.78176 7.00435 2.00016 7.5626 2.00012 8.15305L2 10H6.5L6.5005 8.5H7.5C8.0523 8.5 8.5 8.0523 8.5 7.5V6.0355L9.47965 5.61585C9.65125 5.54235 9.6662 5.36835 9.5921 5.25185L8.46685 3.48247ZM1.5 4C1.5 2.34315 2.84315 1 4.5 1C6.01215 1 7.28325 2.12571 7.47505 3.61059L7.5036 3.83131L8.27485 5.04405L7.5 5.37595V7.5H5.50085L5.50035 9H3.00007L3.00012 8.15315C3.00018 7.3336 2.70483 6.557 2.15789 5.87495C1.73409 5.34645 1.5 4.69245 1.5 4ZM10.5767 8.0512L9.74465 7.49645C10.2218 6.7821 10.5 5.92355 10.5 5.00005C10.5 4.0765 10.2218 3.21795 9.74465 2.50361L10.5767 1.94885C11.16 2.82193 11.5 3.87127 11.5 5.00005C11.5 6.1288 11.16 7.1781 10.5767 8.0512Z" fill="#99A0AE"/>
</svg>
