<svg width="24" height="23" viewBox="0 0 24 23" fill="none" xmlns="http://www.w3.org/2000/svg">
<path d="M0.65387 22.3845C0.65387 20.1812 1.52914 18.0681 3.08714 16.5101C4.64513 14.9521 6.75823 14.0768 8.96156 14.0768C11.1649 14.0768 13.278 14.9521 14.836 16.5101C16.394 18.0681 17.2693 20.1812 17.2693 22.3845H15.1923C15.1923 20.732 14.5359 19.1472 13.3674 17.9787C12.1989 16.8102 10.6141 16.1538 8.96156 16.1538C7.30906 16.1538 5.72424 16.8102 4.55574 17.9787C3.38725 19.1472 2.73079 20.732 2.73079 22.3845H0.65387ZM8.96156 13.0384C5.51906 13.0384 2.73079 10.2501 2.73079 6.80762C2.73079 3.36512 5.51906 0.576847 8.96156 0.576847C12.4041 0.576847 15.1923 3.36512 15.1923 6.80762C15.1923 10.2501 12.4041 13.0384 8.96156 13.0384ZM8.96156 10.9615C11.2566 10.9615 13.1154 9.10262 13.1154 6.80762C13.1154 4.51262 11.2566 2.65377 8.96156 2.65377C6.66656 2.65377 4.80772 4.51262 4.80772 6.80762C4.80772 9.10262 6.66656 10.9615 8.96156 10.9615ZM21.9922 0.352539C22.9872 2.35867 23.5034 4.56827 23.5 6.80762C23.5 9.1265 22.9569 11.3187 21.9922 13.2627L20.2839 12.0207C21.037 10.3861 21.4257 8.60734 21.4231 6.80762C21.4231 4.94669 21.015 3.18027 20.2839 1.59454L21.9922 0.352539ZM18.5632 2.84485C19.0818 4.10155 19.3479 5.4481 19.3462 6.80762C19.3479 8.16714 19.0818 9.51368 18.5632 10.7704L16.8217 9.50346C17.1188 8.63576 17.2701 7.72479 17.2693 6.80762C17.2704 5.8905 17.1195 4.97953 16.8227 4.11177L18.5632 2.84485Z" fill="#525866"/>
</svg>
