<svg width="22" height="20" viewBox="0 0 22 20" fill="none" xmlns="http://www.w3.org/2000/svg">
<path d="M20.4231 0.42334C20.6985 0.42334 20.9626 0.532749 21.1574 0.727498C21.3521 0.922247 21.4616 1.18638 21.4616 1.4618V7.17334C20.773 7.17334 20.1127 7.44686 19.6258 7.93374C19.1389 8.42061 18.8654 9.08095 18.8654 9.76949C18.8654 10.458 19.1389 11.1184 19.6258 11.6053C20.1127 12.0921 20.773 12.3656 21.4616 12.3656V18.0772C21.4616 18.3526 21.3521 18.6167 21.1574 18.8115C20.9626 19.0062 20.6985 19.1156 20.4231 19.1156H1.73078C1.45537 19.1156 1.19123 19.0062 0.99648 18.8115C0.801731 18.6167 0.692322 18.3526 0.692322 18.0772V12.3656C1.38086 12.3656 2.04121 12.0921 2.52808 11.6053C3.01495 11.1184 3.28848 10.458 3.28848 9.76949C3.28848 9.08095 3.01495 8.42061 2.52808 7.93374C2.04121 7.44686 1.38086 7.17334 0.692322 7.17334V1.4618C0.692322 1.18638 0.801731 0.922247 0.99648 0.727498C1.19123 0.532749 1.45537 0.42334 1.73078 0.42334H20.4231ZM19.3846 2.50026H2.76924V5.58242L2.93124 5.66653C3.63565 6.05081 4.22925 6.61 4.65485 7.29024C5.08045 7.97048 5.32373 8.74885 5.36124 9.55038L5.3654 9.76949C5.36553 10.6088 5.13955 11.4327 4.71122 12.1545C4.28289 12.8763 3.66802 13.4694 2.93124 13.8714L2.76924 13.9566V17.0387H19.3846V13.9555L19.2226 13.8725C18.5182 13.4882 17.9246 12.929 17.499 12.2488C17.0734 11.5685 16.8301 10.7901 16.7926 9.98861L16.7885 9.76949C16.7885 7.99996 17.7719 6.45992 19.2226 5.66757L19.3846 5.58138V2.50026ZM15.2308 6.65411V12.8849H6.92309V6.65411H15.2308Z" fill="#525866"/>
</svg>
