<svg width="16" height="18" viewBox="0 0 16 18" fill="none" xmlns="http://www.w3.org/2000/svg">
<path d="M6.32419 16.1742C2.83006 15.3686 0.225006 12.2383 0.225006 8.5C0.225006 4.15064 3.75064 0.625 8.10001 0.625C12.4494 0.625 15.975 4.15064 15.975 8.5C15.975 12.2383 13.37 15.3686 9.87582 16.1742L8.10001 17.95L6.32419 16.1742V16.1742ZM4.17196 13.4274C4.90575 14.0142 5.76217 14.4284 6.67778 14.6394L7.11878 14.7409L8.10001 15.723L9.08202 14.7409L9.52302 14.6386C10.4984 14.4137 11.4057 13.9584 12.169 13.3108C11.6562 12.7844 11.043 12.3662 10.3658 12.081C9.6885 11.7957 8.9609 11.6492 8.22601 11.65C6.62266 11.65 5.17838 12.3351 4.17196 13.4274V13.4274ZM3.07261 12.2958C3.73446 11.5934 4.53316 11.034 5.41947 10.652C6.30577 10.2701 7.26091 10.0737 8.22601 10.075C9.15656 10.0738 10.0782 10.2564 10.938 10.6124C11.7977 10.9683 12.5787 11.4906 13.2361 12.1493C13.9102 11.2004 14.3084 10.0834 14.3863 8.92203C14.4642 7.76069 14.2188 6.60046 13.6775 5.57007C13.1361 4.53968 12.3198 3.67942 11.3193 3.08471C10.3187 2.49001 9.17297 2.18412 8.00913 2.20099C6.8453 2.21785 5.70889 2.5568 4.72598 3.18025C3.74307 3.80369 2.95209 4.68724 2.44079 5.73288C1.92949 6.77853 1.71787 7.94537 1.82939 9.10397C1.94092 10.2626 2.37124 11.3676 3.07261 12.2965V12.2958ZM8.10001 9.2875C7.26457 9.2875 6.46336 8.95563 5.87262 8.36489C5.28188 7.77415 4.95001 6.97293 4.95001 6.1375C4.95001 5.30207 5.28188 4.50085 5.87262 3.91011C6.46336 3.31937 7.26457 2.9875 8.10001 2.9875C8.93544 2.9875 9.73665 3.31937 10.3274 3.91011C10.9181 4.50085 11.25 5.30207 11.25 6.1375C11.25 6.97293 10.9181 7.77415 10.3274 8.36489C9.73665 8.95563 8.93544 9.2875 8.10001 9.2875ZM8.10001 7.7125C8.51772 7.7125 8.91833 7.54656 9.2137 7.25119C9.50907 6.95582 9.67501 6.55522 9.67501 6.1375C9.67501 5.71978 9.50907 5.31918 9.2137 5.02381C8.91833 4.72844 8.51772 4.5625 8.10001 4.5625C7.68229 4.5625 7.28168 4.72844 6.98631 5.02381C6.69094 5.31918 6.52501 5.71978 6.52501 6.1375C6.52501 6.55522 6.69094 6.95582 6.98631 7.25119C7.28168 7.54656 7.68229 7.7125 8.10001 7.7125Z" fill="white"/>
</svg>
