<svg width="39" height="38" viewBox="0 0 39 38" fill="none" xmlns="http://www.w3.org/2000/svg">
<path d="M19.5 37.75C9.14438 37.75 0.75 29.3556 0.75 19C0.75 8.64438 9.14438 0.25 19.5 0.25C29.8556 0.25 38.25 8.64438 38.25 19C38.25 29.3556 29.8556 37.75 19.5 37.75ZM19.5 34C23.4782 34 27.2936 32.4196 30.1066 29.6066C32.9196 26.7936 34.5 22.9782 34.5 19C34.5 15.0218 32.9196 11.2064 30.1066 8.3934C27.2936 5.58035 23.4782 4 19.5 4C15.5218 4 11.7064 5.58035 8.8934 8.3934C6.08035 11.2064 4.5 15.0218 4.5 19C4.5 22.9782 6.08035 26.7936 8.8934 29.6066C11.7064 32.4196 15.5218 34 19.5 34ZM16.9163 12.2781L26.0644 18.3756C26.1673 18.4441 26.2516 18.5369 26.31 18.6458C26.3683 18.7548 26.3989 18.8764 26.3989 19C26.3989 19.1236 26.3683 19.2452 26.31 19.3542C26.2516 19.4631 26.1673 19.5559 26.0644 19.6244L16.9144 25.7219C16.8016 25.7967 16.6706 25.8395 16.5354 25.8459C16.4002 25.8523 16.2658 25.822 16.1464 25.7582C16.027 25.6943 15.9271 25.5994 15.8574 25.4834C15.7876 25.3674 15.7505 25.2347 15.75 25.0994V12.9006C15.7503 12.765 15.7873 12.6319 15.8572 12.5157C15.9271 12.3994 16.0272 12.3042 16.1468 12.2404C16.2665 12.1765 16.4013 12.1463 16.5368 12.1529C16.6723 12.1596 16.8034 12.2028 16.9163 12.2781Z" fill="#7D52F4"/>
</svg>
