<svg width="127" height="126" viewBox="0 0 127 126" fill="none" xmlns="http://www.w3.org/2000/svg">
<g filter="url(#filter0_g_86_2817)">
<path d="M124.208 63C124.208 29.7402 97.028 2.77778 63.5 2.77778C29.972 2.77778 2.79211 29.7402 2.79211 63C2.79211 96.2598 29.972 123.222 63.5 123.222V125C28.9822 125 1 97.2417 1 63C1 28.7583 28.9822 1 63.5 1C98.0178 1 126 28.7583 126 63C126 97.2417 98.0178 125 63.5 125V123.222C97.028 123.222 124.208 96.2598 124.208 63Z" fill="url(#paint0_radial_86_2817)" fill-opacity="0.8"/>
<path d="M19.9999 44.2205L18.8111 46.6723L11.1765 43.0295L12.4029 40.5001C12.7627 39.758 13.2246 39.1936 13.7885 38.807C14.3499 38.4191 14.9839 38.2192 15.6904 38.2073C16.3957 38.1916 17.1448 38.373 17.9375 38.7512C18.7328 39.1307 19.3463 39.601 19.7781 40.1622C20.211 40.7209 20.4501 41.345 20.4952 42.0344C20.5379 42.7226 20.3728 43.4513 19.9999 44.2205ZM18.3586 45.0493L18.9629 43.8031C19.2426 43.2262 19.3657 42.6945 19.3323 42.2081C19.2964 41.7204 19.1157 41.282 18.7903 40.893C18.4623 40.5028 17.9964 40.1636 17.3925 39.8754C16.7935 39.5897 16.2393 39.4421 15.7297 39.4327C15.2213 39.4208 14.7688 39.5495 14.3721 39.8186C13.9754 40.0877 13.6431 40.4983 13.3754 41.0506L12.7371 42.3671L18.3586 45.0493Z" fill="url(#paint1_radial_86_2817)" fill-opacity="0.8"/>
<path d="M23.7259 36.9932L17.0578 31.8093L20.3341 27.6622L21.2002 28.3355L18.7123 31.4846L20.744 33.064L23.0609 30.1313L23.9237 30.8021L21.6068 33.7348L23.6483 35.3219L26.1668 32.134L27.0328 32.8073L23.7259 36.9932Z" fill="url(#paint2_radial_86_2817)" fill-opacity="0.8"/>
<path d="M24.8862 22.7486L31.1275 26.4885L31.2004 26.4278L28.5715 19.681L29.6299 18.8L32.74 27.1819L31.6087 28.1235L23.8278 23.6296L24.8862 22.7486Z" fill="url(#paint3_radial_86_2817)" fill-opacity="0.8"/>
<path d="M41.3955 15.0411L40.2477 15.6266C40.0775 15.4059 39.8844 15.2337 39.6683 15.1101C39.4523 14.9865 39.2238 14.9046 38.9829 14.8645C38.7419 14.8244 38.4965 14.8265 38.2466 14.8709C37.9992 14.9141 37.7553 14.997 37.515 15.1196C37.0809 15.341 36.7483 15.6476 36.5172 16.0392C36.2885 16.4297 36.1833 16.8848 36.2016 17.4045C36.2223 17.9231 36.389 18.484 36.7018 19.0874C37.0171 19.6956 37.3813 20.1589 37.7944 20.4773C38.2099 20.7944 38.6449 20.9724 39.0992 21.0114C39.5536 21.0503 39.9953 20.9603 40.4245 20.7414C40.6624 20.62 40.8716 20.4733 41.0522 20.3012C41.234 20.1254 41.3791 19.9299 41.4877 19.7145C41.5962 19.4992 41.6633 19.2697 41.6889 19.0259C41.7157 18.7784 41.6906 18.5236 41.6136 18.2614L42.7632 17.6796C42.8923 18.0782 42.9487 18.4771 42.9323 18.8761C42.9171 19.2715 42.8301 19.6511 42.6715 20.0151C42.514 20.3753 42.2914 20.7057 42.0038 21.0063C41.7161 21.3068 41.3651 21.5628 40.9506 21.7742C40.2982 22.107 39.6376 22.2502 38.9685 22.2039C38.2982 22.1552 37.6671 21.9188 37.0752 21.4947C36.4857 21.0695 35.9848 20.459 35.5724 19.6635C35.1588 18.8655 34.9509 18.1056 34.9488 17.3837C34.9455 16.6595 35.1194 16.0139 35.4707 15.4472C35.8206 14.878 36.3205 14.4276 36.9705 14.0961C37.3702 13.8922 37.7726 13.7592 38.1777 13.6971C38.584 13.6314 38.9824 13.6373 39.3731 13.7149C39.7624 13.7901 40.1292 13.9383 40.4734 14.1595C40.8163 14.3784 41.1237 14.6722 41.3955 15.0411Z" fill="url(#paint4_radial_86_2817)" fill-opacity="0.8"/>
<path d="M53.8636 12.651C54.0755 13.5233 54.0969 14.3118 53.9276 15.0164C53.7578 15.7183 53.4337 16.3051 52.9554 16.7768C52.4792 17.2452 51.8858 17.5644 51.1754 17.7342C50.4622 17.9047 49.7848 17.8894 49.143 17.6882C48.5033 17.4838 47.9464 17.1062 47.4722 16.5554C46.998 16.0047 46.6552 15.2945 46.444 14.4248C46.232 13.5525 46.211 12.7654 46.3809 12.0635C46.5501 11.3589 46.8729 10.7724 47.3491 10.304C47.8274 9.83227 48.4231 9.51116 49.1362 9.34067C49.8467 9.17082 50.5218 9.18812 51.1615 9.39257C51.8032 9.59371 52.3612 9.96966 52.8354 10.5204C53.3089 11.0685 53.6517 11.7787 53.8636 12.651ZM52.633 12.9452C52.4715 12.2803 52.2269 11.7464 51.8993 11.3436C51.5737 10.9374 51.1948 10.6622 50.7626 10.5179C50.3324 10.3703 49.8814 10.3529 49.4095 10.4657C48.935 10.5791 48.5402 10.7987 48.225 11.1245C47.9092 11.4476 47.6983 11.8639 47.5923 12.3733C47.4883 12.8793 47.517 13.4648 47.6786 14.1297C47.8401 14.7946 48.0836 15.3301 48.4093 15.7362C48.7369 16.1391 49.1158 16.4144 49.546 16.562C49.9755 16.7069 50.4275 16.7227 50.9021 16.6092C51.3739 16.4964 51.7677 16.2784 52.0835 15.9553C52.4014 15.6289 52.6123 15.2126 52.7163 14.7066C52.8223 14.1972 52.7946 13.6101 52.633 12.9452Z" fill="url(#paint5_radial_86_2817)" fill-opacity="0.8"/>
<path d="M65.7489 7.60563L65.731 16.0096L64.5562 16.0072L60.2631 9.83471L60.1845 9.83455L60.1714 15.998L58.8932 15.9954L58.911 7.59136L60.0941 7.59383L64.3914 13.7745L64.47 13.7747L64.4831 7.60299L65.7489 7.60563Z" fill="url(#paint6_radial_86_2817)" fill-opacity="0.8"/>
<path d="M78.7401 9.6568L76.7513 17.826L75.6094 17.5524L72.882 10.5583L72.8056 10.54L71.3471 16.5313L70.1046 16.2336L72.0933 8.06444L73.2434 8.33995L75.9728 15.343L76.0492 15.3613L77.5097 9.36202L78.7401 9.6568Z" fill="url(#paint7_radial_86_2817)" fill-opacity="0.8"/>
<path d="M80.9593 19.0406L84.6906 11.4955L89.4591 13.8161L88.9745 14.7961L85.3535 13.034L84.2167 15.3328L87.5888 16.9739L87.106 17.9502L83.7338 16.3091L82.5915 18.619L86.257 20.4029L85.7724 21.3829L80.9593 19.0406Z" fill="url(#paint8_radial_86_2817)" fill-opacity="0.8"/>
<path d="M98.5036 23.3051L97.4945 22.507C97.6276 22.2624 97.7066 22.017 97.7316 21.7709C97.7566 21.5248 97.7381 21.2845 97.6761 21.05C97.6141 20.8156 97.5115 20.5944 97.3681 20.3866C97.2269 20.1805 97.0507 19.9938 96.8394 19.8267C96.4577 19.5248 96.0394 19.3497 95.5845 19.3014C95.1318 19.2547 94.6703 19.3462 94.1999 19.576C93.7317 19.8075 93.2844 20.1885 92.8581 20.719C92.4283 21.2538 92.1518 21.7733 92.0286 22.2777C91.9076 22.7837 91.9224 23.2503 92.073 23.6772C92.2236 24.1042 92.4875 24.467 92.8649 24.7654C93.0741 24.9308 93.2948 25.0599 93.5271 25.1527C93.7633 25.245 94.0026 25.2961 94.2451 25.3059C94.4876 25.3158 94.7261 25.2823 94.9607 25.2054C95.1992 25.1281 95.4232 25.0008 95.6326 24.8236L96.6392 25.6249C96.3257 25.9053 95.9821 26.1199 95.6086 26.2688C95.2389 26.4172 94.8542 26.4944 94.4545 26.5001C94.0587 26.5055 93.6636 26.4397 93.2693 26.3028C92.875 26.1659 92.4957 25.9533 92.1312 25.6651C91.5577 25.2115 91.1549 24.6725 90.923 24.0483C90.6928 23.4219 90.6512 22.754 90.7982 22.0445C90.9473 21.3368 91.3029 20.6331 91.8651 19.9337C92.429 19.232 93.0423 18.7322 93.705 18.4342C94.3695 18.134 95.0343 18.0265 95.6995 18.1117C96.3663 18.1948 96.9854 18.4623 97.5569 18.9142C97.9083 19.1922 98.1957 19.5017 98.4189 19.8427C98.6461 20.1832 98.8041 20.5461 98.893 20.9313C98.9837 21.3144 98.9979 21.7071 98.9357 22.1092C98.8752 22.5092 98.7312 22.9078 98.5036 23.3051Z" fill="url(#paint9_radial_86_2817)" fill-opacity="0.8"/>
<path d="M103.472 25.5129L104.332 24.8317L108.423 29.914L107.563 30.5952L105.914 28.5462L100.154 33.1094L99.3585 32.1218L105.119 27.5586L103.472 25.5129Z" fill="url(#paint10_radial_86_2817)" fill-opacity="0.8"/>
<path d="M106.779 43.2872L114.75 40.4397L115.773 43.2581C115.996 43.8733 116.069 44.4232 115.99 44.908C115.91 45.3927 115.712 45.8054 115.393 46.1462C115.076 46.486 114.674 46.743 114.186 46.9172C113.696 47.0924 113.218 47.1483 112.752 47.085C112.29 47.0232 111.871 46.8298 111.495 46.5047C111.123 46.1812 110.826 45.7132 110.603 45.1006L109.9 43.1625L110.919 42.7982L111.584 44.6283C111.725 45.0169 111.907 45.3081 112.129 45.5019C112.355 45.6947 112.606 45.8055 112.883 45.8345C113.16 45.8634 113.45 45.824 113.751 45.7165C114.052 45.609 114.298 45.4569 114.491 45.2602C114.683 45.0636 114.801 44.8193 114.845 44.5275C114.889 44.2383 114.839 43.8955 114.695 43.4991L114.152 42.0012L107.212 44.4802L106.779 43.2872Z" fill="url(#paint11_radial_86_2817)" fill-opacity="0.8"/>
<path d="M109.974 52.661L118.37 51.5414L118.773 54.5103C118.86 55.1556 118.821 55.706 118.654 56.1616C118.488 56.6198 118.221 56.9811 117.854 57.2455C117.489 57.5094 117.048 57.6758 116.531 57.7447C116.017 57.8133 115.551 57.7665 115.131 57.6044C114.714 57.4447 114.369 57.165 114.095 56.7654C113.821 56.3685 113.64 55.8475 113.553 55.2022L113.248 52.9531L114.339 52.8077L114.628 54.9429C114.683 55.3496 114.787 55.6725 114.939 55.9117C115.091 56.1536 115.288 56.3192 115.528 56.4087C115.768 56.4981 116.046 56.5218 116.36 56.4799C116.677 56.4376 116.943 56.34 117.159 56.187C117.375 56.0367 117.527 55.8246 117.616 55.5506C117.707 55.279 117.724 54.9358 117.668 54.5209L117.454 52.943L110.144 53.9177L109.974 52.661ZM114.319 56.2676L110.81 58.8306L110.616 57.399L114.131 54.8767L114.319 56.2676Z" fill="url(#paint12_radial_86_2817)" fill-opacity="0.8"/>
<path d="M114.647 70.202C113.746 70.1197 112.987 69.8855 112.369 69.4994C111.754 69.1135 111.299 68.62 111.003 68.0188C110.709 67.4205 110.596 66.7605 110.663 66.0386C110.731 65.3139 110.964 64.6828 111.362 64.145C111.764 63.6102 112.304 63.209 112.982 62.9413C113.661 62.6736 114.449 62.5808 115.347 62.6628C116.248 62.7451 117.005 62.9792 117.62 63.3651C118.238 63.7512 118.694 64.2433 118.987 64.8416C119.283 65.4428 119.397 66.1057 119.33 66.8303C119.263 67.5522 119.029 68.1806 118.627 68.7153C118.229 69.2531 117.69 69.6558 117.012 69.9235C116.336 70.1914 115.548 70.2842 114.647 70.202ZM114.763 68.9516C115.45 69.0143 116.038 68.9568 116.528 68.779C117.02 68.6042 117.405 68.3372 117.682 67.9779C117.962 67.6216 118.124 67.2037 118.168 66.7242C118.213 66.242 118.131 65.8004 117.922 65.3995C117.715 64.9987 117.386 64.6665 116.934 64.4026C116.485 64.1418 115.917 63.98 115.23 63.9173C114.544 63.8546 113.954 63.9106 113.462 64.0854C112.972 64.2632 112.587 64.5302 112.307 64.8865C112.03 65.2431 111.87 65.6625 111.825 66.1447C111.78 66.6241 111.861 67.0642 112.068 67.465C112.277 67.8687 112.606 68.2009 113.055 68.4618C113.507 68.7256 114.076 68.8889 114.763 68.9516Z" fill="url(#paint13_radial_86_2817)" fill-opacity="0.8"/>
<path d="M111.436 82.1189C110.581 81.8262 109.9 81.4195 109.393 80.8986C108.888 80.3786 108.564 79.7917 108.421 79.1379C108.28 78.4875 108.328 77.8197 108.566 77.1344C108.806 76.4465 109.184 75.8885 109.7 75.4604C110.218 75.0358 110.839 74.7736 111.562 74.6739C112.285 74.5741 113.073 74.6701 113.925 74.9618C114.781 75.2545 115.46 75.6608 115.965 76.1808C116.472 76.7017 116.797 77.2873 116.938 77.9376C117.081 78.5914 117.033 79.2623 116.794 79.9502C116.556 80.6355 116.177 81.1905 115.659 81.6151C115.143 82.0432 114.523 82.3071 113.8 82.4069C113.079 82.5075 112.291 82.4115 111.436 82.1189ZM111.849 80.9319C112.501 81.1549 113.086 81.238 113.605 81.1811C114.125 81.1276 114.563 80.9592 114.918 80.6756C115.275 80.3956 115.533 80.028 115.691 79.5728C115.85 79.1151 115.877 78.6667 115.77 78.2279C115.665 77.7899 115.425 77.3894 115.05 77.0265C114.676 76.667 114.163 76.3758 113.511 76.1527C112.86 75.9297 112.273 75.8449 111.753 75.8983C111.235 75.9552 110.797 76.1237 110.44 76.4037C110.085 76.6847 109.828 77.054 109.669 77.5118C109.511 77.9669 109.484 78.4135 109.588 78.8515C109.694 79.293 109.934 79.6934 110.308 80.0529C110.684 80.4158 111.197 80.7088 111.849 80.9319Z" fill="url(#paint14_radial_86_2817)" fill-opacity="0.8"/>
<path d="M105.901 84.532L113.114 88.9402L110.359 93.3772L109.422 92.8047L111.507 89.4472L109.309 88.1041L107.422 91.1436L106.488 90.5732L108.376 87.5337L105.231 85.6116L105.901 84.532Z" fill="url(#paint15_radial_86_2817)" fill-opacity="0.8"/>
<path d="M94.0209 104.344C93.4511 103.647 93.0897 102.945 92.9368 102.236C92.7855 101.53 92.8234 100.862 93.0504 100.232C93.277 99.6061 93.6741 99.0647 94.2417 98.608C94.8114 98.1496 95.4295 97.8742 96.0961 97.7817C96.7622 97.6931 97.4287 97.7961 98.0957 98.0907C98.7627 98.3854 99.3803 98.88 99.9483 99.5748C100.518 100.272 100.879 100.973 101.03 101.679C101.183 102.387 101.146 103.055 100.919 103.681C100.692 104.311 100.294 104.855 99.7244 105.313C99.1568 105.77 98.5399 106.043 97.8738 106.131C97.2073 106.224 96.5405 106.123 95.8735 105.828C95.2083 105.536 94.5907 105.041 94.0209 104.344ZM95.004 103.553C95.4383 104.084 95.8908 104.462 96.3613 104.685C96.8314 104.913 97.2929 105 97.7456 104.945C98.1979 104.895 98.6126 104.718 98.9895 104.415C99.3686 104.11 99.6297 103.743 99.7728 103.314C99.9176 102.888 99.9274 102.422 99.8021 101.917C99.6764 101.416 99.3964 100.9 98.9621 100.368C98.5277 99.8372 98.0755 99.4579 97.6054 99.2303C97.1348 99.0066 96.6734 98.9199 96.2211 98.9704C95.7705 99.0229 95.3556 99.2017 94.9765 99.5068C94.5996 99.8101 94.3387 100.175 94.1939 100.601C94.0486 101.032 94.0389 101.498 94.1646 101.999C94.2899 102.504 94.5697 103.022 95.004 103.553Z" fill="url(#paint16_radial_86_2817)" fill-opacity="0.8"/>
<path d="M88.0377 103.491L91.8246 111.008L87.1251 113.338L86.6333 112.361L90.1893 110.599L89.0355 108.308L85.8162 109.904L85.3262 108.931L88.5455 107.335L86.8943 104.057L88.0377 103.491Z" fill="url(#paint17_radial_86_2817)" fill-opacity="0.8"/>
<path d="M74.1839 109.041L75.3727 117.362L72.3829 117.782C71.7303 117.874 71.1728 117.832 70.7105 117.657C70.2481 117.482 69.8812 117.204 69.6098 116.825C69.3388 116.449 69.1669 116.006 69.0942 115.497C69.021 114.985 69.0631 114.509 69.2204 114.07C69.3753 113.634 69.6514 113.266 70.0488 112.967C70.4438 112.671 70.9662 112.478 71.6161 112.386L73.6721 112.097L73.8242 113.162L71.8829 113.435C71.4706 113.493 71.1461 113.61 70.9096 113.787C70.6734 113.967 70.5129 114.188 70.428 114.452C70.3431 114.715 70.323 115.004 70.3679 115.318C70.4128 115.632 70.5127 115.903 70.6677 116.13C70.8227 116.356 71.0397 116.521 71.3189 116.622C71.5953 116.724 71.9437 116.746 72.3642 116.687L73.9533 116.463L72.9183 109.219L74.1839 109.041Z" fill="url(#paint18_radial_86_2817)" fill-opacity="0.8"/>
<path d="M58.1641 118.166L56.886 118.062L57.3383 112.553C57.3865 111.967 57.5679 111.459 57.8827 111.028C58.1973 110.601 58.6167 110.278 59.141 110.06C59.665 109.844 60.2651 109.763 60.9413 109.818C61.6147 109.873 62.1924 110.048 62.6744 110.345C63.1561 110.645 63.5173 111.031 63.758 111.503C63.9984 111.978 64.0946 112.509 64.0464 113.095L63.594 118.604L62.32 118.501L62.764 113.094C62.7951 112.715 62.739 112.372 62.5955 112.064C62.4492 111.756 62.2278 111.504 61.931 111.31C61.6341 111.119 61.2726 111.006 60.8466 110.971C60.4178 110.937 60.0413 110.99 59.717 111.131C59.3898 111.275 59.1316 111.488 58.9425 111.769C58.7507 112.05 58.6392 112.38 58.6081 112.759L58.1641 118.166Z" fill="url(#paint19_radial_86_2817)" fill-opacity="0.8"/>
<path d="M53.2313 109.131L50.7005 117.151L47.8187 116.256C47.1923 116.062 46.7063 115.794 46.3607 115.451C46.0124 115.108 45.7953 114.715 45.7095 114.273C45.6229 113.833 45.6574 113.367 45.8131 112.873C45.968 112.382 46.2083 111.983 46.534 111.674C46.8563 111.367 47.2578 111.175 47.7388 111.098C48.217 111.02 48.7694 111.078 49.3957 111.272L51.5788 111.95L51.2501 112.992L49.1776 112.348C48.7828 112.226 48.444 112.182 48.1612 112.218C47.8757 112.252 47.6413 112.359 47.458 112.537C47.2746 112.715 47.1356 112.954 47.0408 113.254C46.9453 113.557 46.9217 113.838 46.9701 114.097C47.0159 114.355 47.1452 114.581 47.3582 114.776C47.5677 114.973 47.8738 115.134 48.2764 115.259L49.8082 115.735L52.0115 108.752L53.2313 109.131ZM48.0984 111.51L47.2426 107.271L48.6322 107.703L49.4485 111.929L48.0984 111.51Z" fill="url(#paint20_radial_86_2817)" fill-opacity="0.8"/>
<path d="M34.7681 107.377L35.8851 108.019C35.7899 108.28 35.7483 108.534 35.7602 108.781C35.7722 109.029 35.8263 109.263 35.9225 109.486C36.0188 109.709 36.1533 109.913 36.326 110.097C36.4963 110.28 36.6985 110.439 36.9324 110.573C37.3548 110.816 37.7946 110.928 38.2517 110.909C38.7064 110.889 39.1493 110.73 39.5802 110.434C40.0088 110.137 40.3943 109.694 40.7369 109.107C41.0823 108.515 41.2783 107.961 41.325 107.444C41.3693 106.926 41.2852 106.466 41.0726 106.066C40.86 105.666 40.5449 105.346 40.1272 105.106C39.8957 104.973 39.6581 104.878 39.4146 104.82C39.1672 104.764 38.9229 104.748 38.6816 104.774C38.4403 104.8 38.2094 104.868 37.9888 104.978C37.7645 105.09 37.562 105.248 37.3812 105.454L36.2663 104.81C36.5346 104.486 36.8423 104.224 37.1896 104.022C37.5332 103.821 37.9021 103.688 38.2966 103.624C38.6872 103.56 39.0877 103.567 39.4981 103.645C39.9085 103.723 40.3154 103.877 40.7187 104.109C41.3536 104.473 41.8322 104.947 42.1546 105.531C42.4756 106.116 42.6163 106.771 42.5767 107.494C42.5347 108.216 42.2878 108.964 41.8361 109.738C41.3829 110.515 40.8508 111.099 40.2398 111.491C39.6273 111.885 38.9858 112.089 38.3153 112.102C37.6434 112.118 36.9912 111.944 36.3587 111.581C35.9697 111.358 35.6394 111.094 35.3678 110.789C35.0924 110.486 34.882 110.15 34.7367 109.782C34.5899 109.416 34.5173 109.03 34.5189 108.623C34.5191 108.219 34.6022 107.804 34.7681 107.377Z" fill="url(#paint21_radial_86_2817)" fill-opacity="0.8"/>
<path d="M34.2447 100.274L28.4 106.358L27.4747 105.483L30.0146 102.839L26.9572 99.9488L24.4173 102.593L23.489 101.715L29.3336 95.6312L30.2619 96.5089L27.7134 99.1616L30.7709 102.052L33.3194 99.3993L34.2447 100.274Z" fill="url(#paint22_radial_86_2817)" fill-opacity="0.8"/>
<path d="M25.9163 91.8955L26.664 93.0187L17.9146 95.1263L17.1008 93.9039L22.4901 86.7489L23.2378 87.8721L18.7724 93.6448L18.8089 93.6995L25.9163 91.8955ZM23.0226 93.5208L20.5971 89.8775L21.4946 89.2895L23.9201 92.9329L23.0226 93.5208Z" fill="url(#paint23_radial_86_2817)" fill-opacity="0.8"/>
<path d="M13.148 81.5359C12.7981 81.7157 12.58 81.992 12.4936 82.3647C12.4046 82.7383 12.4469 83.15 12.6206 83.5996C12.7449 83.9214 12.904 84.1803 13.0978 84.3762C13.289 84.573 13.4986 84.7028 13.7266 84.7656C13.951 84.8268 14.1753 84.8148 14.3993 84.7296C14.5873 84.6581 14.7328 84.5531 14.8357 84.4143C14.9377 84.273 15.0074 84.1132 15.0448 83.935C15.0787 83.7551 15.0945 83.5704 15.0922 83.3808C15.0873 83.1923 15.0745 83.014 15.0539 82.8461L14.9588 82.0033C14.9239 81.7295 14.9084 81.4409 14.9124 81.1377C14.9163 80.8344 14.9612 80.5376 15.0469 80.2472C15.1326 79.9568 15.2763 79.6942 15.4779 79.4594C15.6786 79.222 15.9566 79.0357 16.312 78.9007C16.7601 78.7303 17.2024 78.6941 17.6388 78.7918C18.0743 78.8871 18.4763 79.1137 18.8449 79.4716C19.2125 79.827 19.5148 80.3112 19.7516 80.9243C19.9785 81.5119 20.0809 82.0559 20.0586 82.5566C20.0364 83.0572 19.8996 83.4944 19.6483 83.8683C19.3944 84.2431 19.0342 84.5338 18.5676 84.7405L18.1088 83.5526C18.3858 83.4209 18.5884 83.2384 18.7168 83.0051C18.8417 82.7701 18.9016 82.5086 18.8966 82.2204C18.8881 81.9307 18.8251 81.6339 18.7077 81.3299C18.5785 80.9952 18.4107 80.7177 18.2045 80.4972C17.9947 80.2752 17.7654 80.1251 17.5166 80.0468C17.2653 79.9695 17.0108 79.9797 16.7533 80.0776C16.519 80.1667 16.3528 80.306 16.2547 80.4956C16.1557 80.6827 16.1007 80.9072 16.0896 81.1692C16.0776 81.4287 16.0885 81.7131 16.1224 82.0225L16.2256 83.0467C16.2958 83.7407 16.2346 84.3353 16.0419 84.8304C15.8482 85.3229 15.4758 85.6739 14.9247 85.8834C14.4689 86.0566 14.0237 86.0853 13.589 85.9692C13.1544 85.8532 12.7622 85.6214 12.4123 85.2739C12.06 84.9274 11.7821 84.491 11.5789 83.9648C11.3736 83.4334 11.2866 82.9289 11.3177 82.4513C11.3478 81.9711 11.4823 81.5508 11.7211 81.1905C11.9574 80.8312 12.286 80.5657 12.707 80.3939L13.148 81.5359Z" fill="url(#paint24_radial_86_2817)" fill-opacity="0.8"/>
<path d="M17.2283 74.2488L8.86201 75.571L8.02639 70.3677L9.11303 70.196L9.74756 74.1471L12.2967 73.7442L11.7057 70.0646L12.7883 69.8935L13.3792 73.5732L15.9406 73.1684L15.2983 69.1686L16.3849 68.9969L17.2283 74.2488Z" fill="url(#paint25_radial_86_2817)" fill-opacity="0.8"/>
<path d="M13.8571 56.8589C13.8158 57.1874 13.6974 57.4774 13.5018 57.7289C13.3035 57.98 13.0572 58.1701 12.7631 58.2991C12.4693 58.4254 12.1568 58.4681 11.8257 58.4271C11.4919 58.3858 11.1995 58.2683 10.9488 58.0746C10.6956 57.8779 10.5053 57.6338 10.378 57.3423C10.248 57.0505 10.2036 56.7404 10.2449 56.4119C10.2865 56.0808 10.4063 55.791 10.6043 55.5425C10.7999 55.291 11.0446 55.1021 11.3384 54.9758C11.6298 54.8465 11.9424 54.8025 12.2763 54.8438C12.6074 54.8847 12.8996 55.0036 13.1527 55.2003C13.4063 55.3944 13.598 55.6373 13.7281 55.9291C13.8558 56.2178 13.8988 56.5277 13.8571 56.8589Z" fill="url(#paint26_radial_86_2817)" fill-opacity="0.8"/>
<path d="M88.0724 44.0339L51.3183 34.5585C49.8301 34.1747 48.2275 34.6043 47.1364 35.6795L34.9958 47.6469C33.9048 48.7223 33.474 50.2971 33.8716 51.7567L43.6847 87.7806C44.0824 89.2405 45.2545 90.3858 46.7437 90.7696L63.3174 95.0402C64.0616 95.2319 64.8338 95.2205 65.5567 95.0267C66.2799 94.8329 66.9532 94.4565 67.4987 93.9188L94.4302 67.3716C95.5216 66.296 95.9522 64.7213 95.5546 63.2617L91.131 47.0224C90.7334 45.5628 89.5612 44.418 88.0724 44.0339ZM69.8842 43.7964L73.9665 58.7824C74.1489 59.452 73.9529 60.1686 73.4523 60.6619L62.2772 71.6772C61.3767 72.5648 59.8409 72.1688 59.5128 70.9641L56.0525 58.2613C55.4934 56.2089 56.0942 54.0129 57.6285 52.5005L67.1692 43.0958C68.0535 42.2241 69.5616 42.6131 69.8839 43.796L69.8842 43.7964ZM64.0698 91.4041C64.3492 92.4298 63.3906 93.3749 62.3442 93.1051L46.5947 89.0428C45.9826 88.885 45.5047 88.418 45.3412 87.8178L35.7342 52.5508C35.4585 51.5385 36.4045 50.6058 37.4372 50.8722L51.3535 54.4618C53.1191 54.9171 54.4972 56.2641 54.9688 57.9951L64.0698 91.4041ZM51.3928 53.4857L37.5526 49.9159C36.5773 49.6643 36.2516 48.4688 36.9664 47.7638L47.8736 37.0125C48.7908 36.1085 50.1265 35.7504 51.3779 36.0731L66.2647 39.913C67.24 40.1646 67.5657 41.3601 66.8509 42.065L56.711 52.06C55.3191 53.4321 53.2917 53.9756 51.3928 53.4857ZM77.1898 82.0751L67.699 91.4307C66.7841 92.3324 65.224 91.9301 64.8907 90.7063L61.4323 78.0106C61.099 76.787 62.2423 75.6598 63.4905 75.9816L76.4397 79.3218C77.6879 79.6437 78.1046 81.1732 77.1898 82.0751ZM92.7067 66.7797L80.7621 78.5539C80.3136 78.996 79.6599 79.1712 79.0478 79.0134L62.8975 74.8478C62.0244 74.6227 61.7329 73.5526 62.3729 72.9219L74.2099 61.2538C74.6586 60.8116 75.3124 60.6364 75.9242 60.7943L92.2213 64.9978C93.029 65.2061 93.2987 66.1962 92.7067 66.7797ZM93.542 61.8058C93.8742 63.0255 92.7343 64.1491 91.4904 63.8281L76.13 59.8662C75.5525 59.7172 75.1019 59.2769 74.9477 58.7108L70.7209 43.1946C70.4426 42.1729 71.3976 41.2318 72.4392 41.5007L88.2544 45.5799C88.8318 45.7289 89.2825 46.1694 89.4367 46.7353L93.542 61.8058Z" fill="url(#paint27_radial_86_2817)" fill-opacity="0.8"/>
<path d="M81.6639 61.5911L72.9396 53.0466L69.7411 64.7872L76.7167 66.9122L81.6639 61.5911ZM75.2124 59.6699L74.0408 55.369L79.5673 60.7757L75.2124 59.6699ZM80.2313 61.8373L76.8036 65.5113L75.4805 60.6541L80.2313 61.8373ZM74.3391 59.904L71.1544 63.0078L73.1675 55.6031L74.3391 59.904ZM74.6072 60.8884L75.9304 65.7456L71.1039 64.2843L74.6072 60.8884Z" fill="url(#paint28_radial_86_2817)" fill-opacity="0.8"/>
<path d="M77.0432 68.1107L70.0676 65.9856L78.3547 72.9252L81.9904 62.7895L77.0432 68.1107ZM76.7828 68.961L76.8105 68.9766L77.3409 70.9238L73.9946 68.1013L76.7828 68.961ZM79.694 66.5735L78.2143 70.6897L77.6839 68.7425L77.6999 68.7152L79.694 66.5735Z" fill="url(#paint29_radial_86_2817)" fill-opacity="0.8"/>
</g>
<defs>
<filter id="filter0_g_86_2817" x="0.7" y="0.7" width="125.6" height="124.6" filterUnits="userSpaceOnUse" color-interpolation-filters="sRGB">
<feFlood flood-opacity="0" result="BackgroundImageFix"/>
<feBlend mode="normal" in="SourceGraphic" in2="BackgroundImageFix" result="shape"/>
<feTurbulence type="fractalNoise" baseFrequency="0.58823525905609131 0.58823525905609131" numOctaves="3" seed="5647" />
<feDisplacementMap in="shape" scale="0.60000002384185791" xChannelSelector="R" yChannelSelector="G" result="displacedImage" width="100%" height="100%" />
<feMerge result="effect1_texture_86_2817">
<feMergeNode in="displacedImage"/>
</feMerge>
</filter>
<radialGradient id="paint0_radial_86_2817" cx="0" cy="0" r="1" gradientUnits="userSpaceOnUse" gradientTransform="translate(64.0952 63) rotate(136.444) scale(64.8873 110.945)">
<stop stop-color="#A80A0A"/>
<stop offset="0.425777" stop-color="#A80A0A" stop-opacity="0.8"/>
<stop offset="1" stop-color="#A80A0A" stop-opacity="0.6"/>
</radialGradient>
<radialGradient id="paint1_radial_86_2817" cx="0" cy="0" r="1" gradientUnits="userSpaceOnUse" gradientTransform="translate(64.0952 63) rotate(136.444) scale(64.8873 110.945)">
<stop stop-color="#A80A0A"/>
<stop offset="0.425777" stop-color="#A80A0A" stop-opacity="0.8"/>
<stop offset="1" stop-color="#A80A0A" stop-opacity="0.6"/>
</radialGradient>
<radialGradient id="paint2_radial_86_2817" cx="0" cy="0" r="1" gradientUnits="userSpaceOnUse" gradientTransform="translate(64.0952 63) rotate(136.444) scale(64.8873 110.945)">
<stop stop-color="#A80A0A"/>
<stop offset="0.425777" stop-color="#A80A0A" stop-opacity="0.8"/>
<stop offset="1" stop-color="#A80A0A" stop-opacity="0.6"/>
</radialGradient>
<radialGradient id="paint3_radial_86_2817" cx="0" cy="0" r="1" gradientUnits="userSpaceOnUse" gradientTransform="translate(64.0952 63) rotate(136.444) scale(64.8873 110.945)">
<stop stop-color="#A80A0A"/>
<stop offset="0.425777" stop-color="#A80A0A" stop-opacity="0.8"/>
<stop offset="1" stop-color="#A80A0A" stop-opacity="0.6"/>
</radialGradient>
<radialGradient id="paint4_radial_86_2817" cx="0" cy="0" r="1" gradientUnits="userSpaceOnUse" gradientTransform="translate(64.0952 63) rotate(136.444) scale(64.8873 110.945)">
<stop stop-color="#A80A0A"/>
<stop offset="0.425777" stop-color="#A80A0A" stop-opacity="0.8"/>
<stop offset="1" stop-color="#A80A0A" stop-opacity="0.6"/>
</radialGradient>
<radialGradient id="paint5_radial_86_2817" cx="0" cy="0" r="1" gradientUnits="userSpaceOnUse" gradientTransform="translate(64.0952 63) rotate(136.444) scale(64.8873 110.945)">
<stop stop-color="#A80A0A"/>
<stop offset="0.425777" stop-color="#A80A0A" stop-opacity="0.8"/>
<stop offset="1" stop-color="#A80A0A" stop-opacity="0.6"/>
</radialGradient>
<radialGradient id="paint6_radial_86_2817" cx="0" cy="0" r="1" gradientUnits="userSpaceOnUse" gradientTransform="translate(64.0952 63) rotate(136.444) scale(64.8873 110.945)">
<stop stop-color="#A80A0A"/>
<stop offset="0.425777" stop-color="#A80A0A" stop-opacity="0.8"/>
<stop offset="1" stop-color="#A80A0A" stop-opacity="0.6"/>
</radialGradient>
<radialGradient id="paint7_radial_86_2817" cx="0" cy="0" r="1" gradientUnits="userSpaceOnUse" gradientTransform="translate(64.0952 63) rotate(136.444) scale(64.8873 110.945)">
<stop stop-color="#A80A0A"/>
<stop offset="0.425777" stop-color="#A80A0A" stop-opacity="0.8"/>
<stop offset="1" stop-color="#A80A0A" stop-opacity="0.6"/>
</radialGradient>
<radialGradient id="paint8_radial_86_2817" cx="0" cy="0" r="1" gradientUnits="userSpaceOnUse" gradientTransform="translate(64.0952 63) rotate(136.444) scale(64.8873 110.945)">
<stop stop-color="#A80A0A"/>
<stop offset="0.425777" stop-color="#A80A0A" stop-opacity="0.8"/>
<stop offset="1" stop-color="#A80A0A" stop-opacity="0.6"/>
</radialGradient>
<radialGradient id="paint9_radial_86_2817" cx="0" cy="0" r="1" gradientUnits="userSpaceOnUse" gradientTransform="translate(64.0952 63) rotate(136.444) scale(64.8873 110.945)">
<stop stop-color="#A80A0A"/>
<stop offset="0.425777" stop-color="#A80A0A" stop-opacity="0.8"/>
<stop offset="1" stop-color="#A80A0A" stop-opacity="0.6"/>
</radialGradient>
<radialGradient id="paint10_radial_86_2817" cx="0" cy="0" r="1" gradientUnits="userSpaceOnUse" gradientTransform="translate(64.0952 63) rotate(136.444) scale(64.8873 110.945)">
<stop stop-color="#A80A0A"/>
<stop offset="0.425777" stop-color="#A80A0A" stop-opacity="0.8"/>
<stop offset="1" stop-color="#A80A0A" stop-opacity="0.6"/>
</radialGradient>
<radialGradient id="paint11_radial_86_2817" cx="0" cy="0" r="1" gradientUnits="userSpaceOnUse" gradientTransform="translate(64.0952 63) rotate(136.444) scale(64.8873 110.945)">
<stop stop-color="#A80A0A"/>
<stop offset="0.425777" stop-color="#A80A0A" stop-opacity="0.8"/>
<stop offset="1" stop-color="#A80A0A" stop-opacity="0.6"/>
</radialGradient>
<radialGradient id="paint12_radial_86_2817" cx="0" cy="0" r="1" gradientUnits="userSpaceOnUse" gradientTransform="translate(64.0952 63) rotate(136.444) scale(64.8873 110.945)">
<stop stop-color="#A80A0A"/>
<stop offset="0.425777" stop-color="#A80A0A" stop-opacity="0.8"/>
<stop offset="1" stop-color="#A80A0A" stop-opacity="0.6"/>
</radialGradient>
<radialGradient id="paint13_radial_86_2817" cx="0" cy="0" r="1" gradientUnits="userSpaceOnUse" gradientTransform="translate(64.0952 63) rotate(136.444) scale(64.8873 110.945)">
<stop stop-color="#A80A0A"/>
<stop offset="0.425777" stop-color="#A80A0A" stop-opacity="0.8"/>
<stop offset="1" stop-color="#A80A0A" stop-opacity="0.6"/>
</radialGradient>
<radialGradient id="paint14_radial_86_2817" cx="0" cy="0" r="1" gradientUnits="userSpaceOnUse" gradientTransform="translate(64.0952 63) rotate(136.444) scale(64.8873 110.945)">
<stop stop-color="#A80A0A"/>
<stop offset="0.425777" stop-color="#A80A0A" stop-opacity="0.8"/>
<stop offset="1" stop-color="#A80A0A" stop-opacity="0.6"/>
</radialGradient>
<radialGradient id="paint15_radial_86_2817" cx="0" cy="0" r="1" gradientUnits="userSpaceOnUse" gradientTransform="translate(64.0952 63) rotate(136.444) scale(64.8873 110.945)">
<stop stop-color="#A80A0A"/>
<stop offset="0.425777" stop-color="#A80A0A" stop-opacity="0.8"/>
<stop offset="1" stop-color="#A80A0A" stop-opacity="0.6"/>
</radialGradient>
<radialGradient id="paint16_radial_86_2817" cx="0" cy="0" r="1" gradientUnits="userSpaceOnUse" gradientTransform="translate(64.0952 63) rotate(136.444) scale(64.8873 110.945)">
<stop stop-color="#A80A0A"/>
<stop offset="0.425777" stop-color="#A80A0A" stop-opacity="0.8"/>
<stop offset="1" stop-color="#A80A0A" stop-opacity="0.6"/>
</radialGradient>
<radialGradient id="paint17_radial_86_2817" cx="0" cy="0" r="1" gradientUnits="userSpaceOnUse" gradientTransform="translate(64.0952 63) rotate(136.444) scale(64.8873 110.945)">
<stop stop-color="#A80A0A"/>
<stop offset="0.425777" stop-color="#A80A0A" stop-opacity="0.8"/>
<stop offset="1" stop-color="#A80A0A" stop-opacity="0.6"/>
</radialGradient>
<radialGradient id="paint18_radial_86_2817" cx="0" cy="0" r="1" gradientUnits="userSpaceOnUse" gradientTransform="translate(64.0952 63) rotate(136.444) scale(64.8873 110.945)">
<stop stop-color="#A80A0A"/>
<stop offset="0.425777" stop-color="#A80A0A" stop-opacity="0.8"/>
<stop offset="1" stop-color="#A80A0A" stop-opacity="0.6"/>
</radialGradient>
<radialGradient id="paint19_radial_86_2817" cx="0" cy="0" r="1" gradientUnits="userSpaceOnUse" gradientTransform="translate(64.0952 63) rotate(136.444) scale(64.8873 110.945)">
<stop stop-color="#A80A0A"/>
<stop offset="0.425777" stop-color="#A80A0A" stop-opacity="0.8"/>
<stop offset="1" stop-color="#A80A0A" stop-opacity="0.6"/>
</radialGradient>
<radialGradient id="paint20_radial_86_2817" cx="0" cy="0" r="1" gradientUnits="userSpaceOnUse" gradientTransform="translate(64.0952 63) rotate(136.444) scale(64.8873 110.945)">
<stop stop-color="#A80A0A"/>
<stop offset="0.425777" stop-color="#A80A0A" stop-opacity="0.8"/>
<stop offset="1" stop-color="#A80A0A" stop-opacity="0.6"/>
</radialGradient>
<radialGradient id="paint21_radial_86_2817" cx="0" cy="0" r="1" gradientUnits="userSpaceOnUse" gradientTransform="translate(64.0952 63) rotate(136.444) scale(64.8873 110.945)">
<stop stop-color="#A80A0A"/>
<stop offset="0.425777" stop-color="#A80A0A" stop-opacity="0.8"/>
<stop offset="1" stop-color="#A80A0A" stop-opacity="0.6"/>
</radialGradient>
<radialGradient id="paint22_radial_86_2817" cx="0" cy="0" r="1" gradientUnits="userSpaceOnUse" gradientTransform="translate(64.0952 63) rotate(136.444) scale(64.8873 110.945)">
<stop stop-color="#A80A0A"/>
<stop offset="0.425777" stop-color="#A80A0A" stop-opacity="0.8"/>
<stop offset="1" stop-color="#A80A0A" stop-opacity="0.6"/>
</radialGradient>
<radialGradient id="paint23_radial_86_2817" cx="0" cy="0" r="1" gradientUnits="userSpaceOnUse" gradientTransform="translate(64.0952 63) rotate(136.444) scale(64.8873 110.945)">
<stop stop-color="#A80A0A"/>
<stop offset="0.425777" stop-color="#A80A0A" stop-opacity="0.8"/>
<stop offset="1" stop-color="#A80A0A" stop-opacity="0.6"/>
</radialGradient>
<radialGradient id="paint24_radial_86_2817" cx="0" cy="0" r="1" gradientUnits="userSpaceOnUse" gradientTransform="translate(64.0952 63) rotate(136.444) scale(64.8873 110.945)">
<stop stop-color="#A80A0A"/>
<stop offset="0.425777" stop-color="#A80A0A" stop-opacity="0.8"/>
<stop offset="1" stop-color="#A80A0A" stop-opacity="0.6"/>
</radialGradient>
<radialGradient id="paint25_radial_86_2817" cx="0" cy="0" r="1" gradientUnits="userSpaceOnUse" gradientTransform="translate(64.0952 63) rotate(136.444) scale(64.8873 110.945)">
<stop stop-color="#A80A0A"/>
<stop offset="0.425777" stop-color="#A80A0A" stop-opacity="0.8"/>
<stop offset="1" stop-color="#A80A0A" stop-opacity="0.6"/>
</radialGradient>
<radialGradient id="paint26_radial_86_2817" cx="0" cy="0" r="1" gradientUnits="userSpaceOnUse" gradientTransform="translate(64.0952 63) rotate(136.444) scale(64.8873 110.945)">
<stop stop-color="#A80A0A"/>
<stop offset="0.425777" stop-color="#A80A0A" stop-opacity="0.8"/>
<stop offset="1" stop-color="#A80A0A" stop-opacity="0.6"/>
</radialGradient>
<radialGradient id="paint27_radial_86_2817" cx="0" cy="0" r="1" gradientUnits="userSpaceOnUse" gradientTransform="translate(64.0952 63) rotate(136.444) scale(64.8873 110.945)">
<stop stop-color="#A80A0A"/>
<stop offset="0.425777" stop-color="#A80A0A" stop-opacity="0.8"/>
<stop offset="1" stop-color="#A80A0A" stop-opacity="0.6"/>
</radialGradient>
<radialGradient id="paint28_radial_86_2817" cx="0" cy="0" r="1" gradientUnits="userSpaceOnUse" gradientTransform="translate(64.0952 63) rotate(136.444) scale(64.8873 110.945)">
<stop stop-color="#A80A0A"/>
<stop offset="0.425777" stop-color="#A80A0A" stop-opacity="0.8"/>
<stop offset="1" stop-color="#A80A0A" stop-opacity="0.6"/>
</radialGradient>
<radialGradient id="paint29_radial_86_2817" cx="0" cy="0" r="1" gradientUnits="userSpaceOnUse" gradientTransform="translate(64.0952 63) rotate(136.444) scale(64.8873 110.945)">
<stop stop-color="#A80A0A"/>
<stop offset="0.425777" stop-color="#A80A0A" stop-opacity="0.8"/>
<stop offset="1" stop-color="#A80A0A" stop-opacity="0.6"/>
</radialGradient>
</defs>
</svg>
