<svg width="69" height="78" viewBox="0 0 69 78" fill="none" xmlns="http://www.w3.org/2000/svg">
<path d="M41.7009 68.0309C42.0311 67.8402 42.3052 67.566 42.4959 67.2357C42.6865 66.9055 42.7868 66.5309 42.7868 66.1496C42.7868 65.7683 42.6865 65.3937 42.4959 65.0635C42.3052 64.7332 42.0311 64.459 41.7009 64.2683L34.1879 59.9307L26.675 55.5931C26.3447 55.4024 25.9701 55.302 25.5888 55.302C25.2075 55.302 24.8328 55.4024 24.5026 55.5931C24.1723 55.7837 23.8981 56.058 23.7074 56.3882C23.5167 56.7185 23.4164 57.0931 23.4164 57.4745V74.825C23.4166 75.2062 23.5172 75.5807 23.708 75.9107C23.8988 76.2407 24.1731 76.5148 24.5033 76.7053C24.8335 76.8958 25.208 76.996 25.5892 76.9959C25.9704 76.9959 26.3449 76.8955 26.675 76.7049L41.7009 68.0309Z" fill="#0085FF"/>
<path d="M20.4324 0.62837L3.16465 10.5978C2.90655 10.7468 2.6922 10.9612 2.54319 11.2193C2.39418 11.4775 2.31573 11.7703 2.31573 12.0683C2.31573 12.3664 2.39418 12.6592 2.54319 12.9173C2.6922 13.1755 2.90655 13.3898 3.16465 13.5389L19.2245 22.8117C20.3071 23.4369 21.5351 23.766 22.7853 23.766C24.0354 23.766 25.2635 23.4369 26.3461 22.8117L42.3994 13.5433C42.6575 13.3942 42.8719 13.1799 43.0209 12.9218C43.17 12.6637 43.2484 12.3709 43.2484 12.0729C43.2484 11.7748 43.17 11.482 43.0209 11.2239C42.8719 10.9658 42.6575 10.7515 42.3994 10.6025L25.1242 0.62837C24.4109 0.21671 23.6018 0 22.7783 0C21.9547 0 21.1457 0.21671 20.4324 0.62837Z" fill="#FF2A00"/>
<path d="M3.63651e-08 39.1036V64.4713C-3.05824e-05 64.8742 0.106023 65.27 0.307492 65.619C0.50896 65.9679 0.798751 66.2577 1.14772 66.4591L19.4228 77.0102C19.6997 77.1701 20.0137 77.2543 20.3334 77.2543C20.6531 77.2543 20.9671 77.1702 21.244 77.0104C21.5209 76.8506 21.7508 76.6207 21.9106 76.3438C22.0705 76.067 22.1547 75.7529 22.1547 75.4332V29.7748C22.1546 28.6125 21.8486 27.4706 21.2674 26.464C20.6862 25.4574 19.8502 24.6215 18.8436 24.0403L2.6957 14.7172C2.42247 14.5595 2.11257 14.4764 1.79708 14.4764C1.48159 14.4765 1.17167 14.5595 0.898464 14.7173C0.625256 14.8751 0.398347 15.102 0.240642 15.3752C0.0829376 15.6485 -6.34261e-05 15.9584 3.63651e-08 16.2739V39.1036Z" fill="#FF9B00"/>
<path d="M69 47.7982V27.2021C69 26.822 68.8999 26.4486 68.7098 26.1195C68.5198 25.7903 68.2465 25.517 67.9173 25.3269L49.566 14.7318C49.2903 14.5727 48.9775 14.4889 48.6592 14.489C48.3408 14.489 48.0281 14.5728 47.7524 14.732C47.4767 14.8912 47.2478 15.1201 47.0886 15.3958C46.9295 15.6715 46.8457 15.9843 46.8457 16.3026V37.5078C46.8456 37.8879 46.9456 38.2613 47.1357 38.5904C47.3257 38.9196 47.5989 39.1929 47.9281 39.383L65.7517 49.6734C66.0809 49.8634 66.4543 49.9635 66.8344 49.9635C67.2145 49.9635 67.5879 49.8635 67.9171 49.6734C68.2463 49.4834 68.5197 49.21 68.7098 48.8809C68.8999 48.5517 68.9999 48.1783 69 47.7982Z" fill="white"/>
<path d="M26.6228 49.698L44.3149 39.4838C44.7043 39.259 45.0277 38.9356 45.2524 38.5461C45.4771 38.1567 45.5953 37.7149 45.595 37.2652V16.7837C45.595 16.4151 45.4979 16.053 45.3135 15.7338C45.1292 15.4145 44.8641 15.1494 44.5448 14.9651C44.2256 14.7808 43.8635 14.6838 43.4948 14.6838C43.1262 14.6838 42.764 14.7808 42.4447 14.9651L27.3409 23.6856C26.1474 24.3746 25.1562 25.3657 24.4672 26.5592C23.7781 27.7528 23.4153 29.1066 23.4154 30.4848V47.8441C23.4151 48.2196 23.5136 48.5886 23.7012 48.9139C23.8887 49.2393 24.1586 49.5095 24.4837 49.6974C24.8088 49.8853 25.1776 49.9843 25.5531 49.9844C25.9287 49.9845 26.2976 49.8858 26.6228 49.698Z" fill="white"/>
<path d="M26.3202 53.9464L45.0601 64.766C45.4091 64.9674 45.805 65.0734 46.208 65.0734C46.611 65.0734 47.0069 64.9674 47.3559 64.766L66.2666 53.8477C66.4806 53.7245 66.6584 53.5471 66.782 53.3333C66.9056 53.1196 66.9707 52.877 66.9707 52.6301C66.9707 52.3831 66.9056 52.1406 66.782 51.9268C66.6584 51.713 66.4806 51.5356 66.2666 51.4124L47.3559 40.4948C47.007 40.2932 46.6111 40.1871 46.2082 40.1871C45.8052 40.1871 45.4094 40.2932 45.0605 40.4948L26.3202 51.3141C26.0892 51.4475 25.8974 51.6393 25.7641 51.8704C25.6307 52.1014 25.5605 52.3635 25.5605 52.6302C25.5605 52.897 25.6307 53.1591 25.7641 53.3901C25.8974 53.6211 26.0892 53.813 26.3202 53.9464Z" fill="white"/>
</svg>
