<svg width="191" height="72" viewBox="0 0 191 72" fill="none" xmlns="http://www.w3.org/2000/svg">
<path d="M1.99037 12.1301H8.79078C11.1129 12.1301 12.9263 12.4176 14.2311 12.9926C15.5359 13.5675 16.4537 14.4743 16.9845 15.7127C17.5373 16.9291 17.8138 18.5656 17.8138 20.6223V30.3751C17.8138 32.4539 17.5373 34.1125 16.9845 35.351C16.4537 36.5894 15.5359 37.5072 14.2311 38.1043C12.9484 38.7014 11.1571 39 8.85713 39H1.99037V12.1301ZM8.85713 34.8866C9.71962 34.8866 10.3499 34.7649 10.748 34.5217C11.1682 34.2563 11.4335 33.8914 11.5441 33.427C11.6547 32.9404 11.71 32.2328 11.71 31.3039V19.5939C11.71 18.7314 11.6436 18.079 11.5109 17.6367C11.4004 17.1723 11.135 16.8295 10.7148 16.6084C10.3167 16.3872 9.68645 16.2767 8.82396 16.2767H7.92829V34.8866H8.85713ZM23.0862 12.1301H35.1611V16.1771H29.0241V22.8449H33.7015V26.9583H29.0241V34.9861H35.2274V39H23.0862V12.1301ZM38.3213 12.1301H43.3967L46.2827 30.3751L48.9697 12.1301H54.3437L49.4342 39H43.1645L38.3213 12.1301ZM66.0737 39.3981C63.1545 39.3981 61.0756 38.6351 59.8372 37.1092C58.6209 35.5611 58.0127 33.3385 58.0127 30.4414V20.755C58.0127 17.7915 58.6209 15.5579 59.8372 14.0541C61.0535 12.5281 63.1323 11.7652 66.0737 11.7652C68.8823 11.7652 70.8727 12.4397 72.0448 13.7887C73.2169 15.1377 73.8029 17.0507 73.8029 19.5276V21.8497H67.9977V19.1627C67.9977 18.1233 67.8871 17.3271 67.666 16.7742C67.4448 16.2214 66.914 15.9449 66.0737 15.9449C65.2333 15.9449 64.6804 16.2435 64.415 16.8406C64.1496 17.4156 64.017 18.2228 64.017 19.2622V31.901C64.017 32.9626 64.1496 33.7808 64.415 34.3558C64.7025 34.9087 65.2554 35.1851 66.0737 35.1851C66.8919 35.1851 67.4116 34.9087 67.6328 34.3558C67.8761 33.7808 67.9977 32.9626 67.9977 31.901V29.0813H73.8029V31.4034C73.8029 33.9246 73.2169 35.8928 72.0448 37.3082C70.8727 38.7014 68.8823 39.3981 66.0737 39.3981ZM86.4244 39.3981C83.5273 39.3981 81.4595 38.6572 80.2211 37.1755C78.9826 35.6717 78.3634 33.4601 78.3634 30.5409V20.5559C78.3634 17.6367 78.9826 15.4473 80.2211 13.9877C81.4595 12.506 83.5273 11.7652 86.4244 11.7652C89.3436 11.7652 91.4224 12.506 92.6609 13.9877C93.9214 15.4695 94.5517 17.6589 94.5517 20.5559V30.5409C94.5517 33.4601 93.9214 35.6717 92.6609 37.1755C91.4224 38.6572 89.3436 39.3981 86.4244 39.3981ZM86.4244 35.1851C87.2648 35.1851 87.8176 34.9087 88.083 34.3558C88.3484 33.7808 88.4811 33.0068 88.4811 32.0337V19.0963C88.4811 18.1012 88.3484 17.3271 88.083 16.7742C87.8176 16.2214 87.2648 15.9449 86.4244 15.9449C85.6282 15.9449 85.0975 16.2324 84.8321 16.8074C84.5667 17.3603 84.434 18.1233 84.434 19.0963V32.0337C84.434 33.0068 84.5556 33.7808 84.7989 34.3558C85.0422 34.9087 85.584 35.1851 86.4244 35.1851ZM99.8241 12.1301H104.004L109.511 25.0674V12.1301H114.42V39H110.406L104.9 25.0674V39H99.8241V12.1301ZM120.078 12.1301H124.257L129.764 25.0674V12.1301H134.674V39H130.66L125.153 25.0674V39H120.078V12.1301ZM140.331 12.1301H152.406V16.1771H146.269V22.8449H150.946V26.9583H146.269V34.9861H152.472V39H140.331V12.1301ZM164.523 39.3981C161.604 39.3981 159.525 38.6351 158.286 37.1092C157.07 35.5611 156.462 33.3385 156.462 30.4414V20.755C156.462 17.7915 157.07 15.5579 158.286 14.0541C159.503 12.5281 161.582 11.7652 164.523 11.7652C167.332 11.7652 169.322 12.4397 170.494 13.7887C171.666 15.1377 172.252 17.0507 172.252 19.5276V21.8497H166.447V19.1627C166.447 18.1233 166.336 17.3271 166.115 16.7742C165.894 16.2214 165.363 15.9449 164.523 15.9449C163.683 15.9449 163.13 16.2435 162.864 16.8406C162.599 17.4156 162.466 18.2228 162.466 19.2622V31.901C162.466 32.9626 162.599 33.7808 162.864 34.3558C163.152 34.9087 163.705 35.1851 164.523 35.1851C165.341 35.1851 165.861 34.9087 166.082 34.3558C166.325 33.7808 166.447 32.9626 166.447 31.901V29.0813H172.252V31.4034C172.252 33.9246 171.666 35.8928 170.494 37.3082C169.322 38.7014 167.332 39.3981 164.523 39.3981ZM179.599 16.542H175.552V12.1301H189.584V16.542H185.57V39H179.599V16.542Z" fill="white"/>
<path fill-rule="evenodd" clip-rule="evenodd" d="M190.122 46.8566H139.118V71.7361H190.122V46.8566ZM153.691 51.1126H149.631L146.585 67.2346H149.949L150.506 63.831H152.875L153.412 67.2346H156.696L153.691 51.1126ZM151.681 55.4118L152.537 61.7013H150.825L151.681 55.4118ZM163.36 51.1126H159.538L159.26 67.2346H161.827L162.066 56.4269L164.056 67.2346H166.306L168.176 56.5065L168.475 67.2346H171.003L170.724 51.1126H167.042L165.131 60.4872L163.36 51.1126ZM174.931 66.2593C175.688 67.0687 176.836 67.4734 178.375 67.4734C179.211 67.4734 179.947 67.2943 180.584 66.936C181.221 66.5777 181.712 66.0934 182.057 65.483C182.415 64.8594 182.594 64.1694 182.594 63.4131C182.594 62.3781 182.375 61.4824 181.938 60.7261C181.5 59.9697 180.883 59.2532 180.087 58.5765L178.753 57.4022C178.209 56.9245 177.811 56.4999 177.559 56.1283C177.32 55.7568 177.2 55.299 177.2 54.755C177.2 54.4365 177.28 54.1512 177.439 53.8991C177.612 53.6337 177.851 53.501 178.156 53.501C178.58 53.501 178.852 53.6868 178.972 54.0583C179.105 54.4166 179.184 55.0137 179.211 55.8497L182.276 55.4715C182.236 54.1977 181.938 53.1162 181.38 52.2272C180.836 51.3382 179.801 50.8937 178.275 50.8937C176.869 50.8937 175.761 51.2586 174.951 51.9884C174.155 52.7182 173.757 53.7598 173.757 55.1132C173.757 56.0155 173.943 56.7984 174.314 57.4619C174.699 58.112 175.237 58.7291 175.927 59.3129L177.32 60.527C177.93 61.0445 178.375 61.5288 178.653 61.98C178.945 62.4311 179.091 62.9685 179.091 63.5922C179.091 64.3751 178.793 64.7665 178.196 64.7665C177.731 64.7665 177.38 64.5476 177.141 64.1097C176.915 63.6585 176.796 62.9221 176.782 61.9004L173.737 62.3582C173.79 64.1362 174.188 65.4366 174.931 66.2593Z" fill="white"/>
</svg>
