<svg width="111" height="59" viewBox="0 0 111 59" fill="none" xmlns="http://www.w3.org/2000/svg">
<path d="M42.4756 45.3544V44.0383C42.4756 42.6045 41.8387 42.3617 41.1098 42.7833C39.9715 43.4416 39.6077 44.2631 39.6077 45.5313V54.1275C39.6077 55.3957 39.972 55.7969 41.1098 55.1424C41.5583 54.9062 41.9271 54.5428 42.17 54.0978C42.413 53.6529 42.5193 53.1462 42.4756 52.6411V50.5961L45.298 48.9703V50.9228C45.2508 52.3168 44.8392 53.6742 44.1044 54.8597C43.3696 56.0453 42.3372 57.0178 41.1098 57.6803C38.1508 59.3796 36.7848 58.2157 36.7848 55.8221V47.0926C36.7848 44.6989 38.1508 41.96 41.1098 40.2455C43.9326 38.6107 45.298 39.9368 45.298 42.4774V43.7219L42.4756 45.3544Z" fill="white"/>
<path d="M48.1678 40.513C48.1678 38.1112 49.5333 35.3661 52.4928 33.6521C55.4522 31.9381 56.8176 33.1058 56.8176 35.5132V44.291C56.8176 46.6989 55.4518 49.4421 52.4928 51.1414C49.5338 52.8407 48.1678 51.6707 48.1678 49.2695V40.513ZM50.9903 47.5763C50.9903 48.8488 51.3545 49.2519 52.4928 48.5974C53.631 47.9429 53.9952 47.1206 53.9952 45.8467V37.2149C53.9952 35.9414 53.6305 35.5388 52.4928 36.1971C51.355 36.8554 50.9903 37.6792 50.9903 38.9517V47.5763Z" fill="white"/>
<path d="M59.5508 46.8521V29.7996L62.1684 28.2819L65.6059 36.0633L65.6534 36.0373V26.2686L68.2026 24.7917V41.8884L65.7444 43.3003L62.1475 34.705L62.1001 34.7311V45.3923L59.5508 46.8521Z" fill="white"/>
<path d="M70.9339 40.3166V23.2067L73.5514 21.689L76.989 29.5022L77.0365 29.4761V19.6728L79.5857 18.1964V35.3485L77.1275 36.7605L73.5306 28.1287L73.4831 28.1547V38.8506L70.9339 40.3166Z" fill="white"/>
<path d="M82.3165 33.7793V16.6134L89.874 12.2363V14.8093L85.1394 17.5482V21.9741L88.7813 19.8717V22.4441L85.1394 24.5442V29.5886L90.1928 26.6827V29.2566L82.3165 33.7793Z" fill="white"/>
<path d="M98.115 13.2184V11.881C98.115 10.4245 97.4781 10.1736 96.7492 10.5933C95.6109 11.2516 95.2471 12.083 95.2471 13.3716V22.1054C95.2471 23.394 95.6114 23.8052 96.7492 23.1488C97.2001 22.9081 97.5702 22.5399 97.8132 22.0902C98.0561 21.6404 98.161 21.1291 98.115 20.62V18.5422L100.938 16.9163V18.9002C100.897 20.3048 100.488 21.6743 99.7534 22.872C99.0186 24.0698 97.9828 25.0541 96.7492 25.7269C93.7902 27.4262 92.4242 26.2316 92.4242 23.7995V14.9334C92.4242 12.5013 93.7902 9.73157 96.7492 8.01707C99.572 6.38225 100.938 7.742 100.938 10.3235V11.5902L98.115 13.2184Z" fill="white"/>
<path d="M105.446 5.80131L102.715 7.3816V4.79917L111 0V2.58859L108.269 4.16839V18.8747L105.446 20.4953V5.80131Z" fill="white"/>
<path d="M0 21.3669L4.26001 23.8332C7.22328 25.5481 8.79734 28.0675 8.79734 31.469V38.0396C8.79734 41.4396 7.22328 42.1401 4.26001 40.4318L0 37.976V21.3669ZM2.87077 37.2841L3.86679 37.8579C5.39443 38.7396 5.92703 38.4721 5.92703 36.7254V29.4628C5.92703 27.7161 5.39443 26.833 3.86679 25.9494L2.87077 25.3736V37.2841Z" fill="white"/>
<path d="M12.7352 45.3159V28.7372L20.4213 33.1859V35.663L15.606 32.8776V37.146L19.3101 39.2864V41.7641L15.606 39.6251V44.4911L20.7453 47.4558V49.9349L12.7352 45.3159Z" fill="white"/>
<path d="M30.0297 38.7467L32.854 40.3815L29.3586 54.8995L26.4873 53.2443L22.9919 34.6736L25.8162 36.3084L27.8997 48.9943L27.9471 49.0213L30.0297 38.7467Z" fill="white"/>
</svg>
