<svg width="140" height="45" viewBox="0 0 140 45" fill="none" xmlns="http://www.w3.org/2000/svg">
<path d="M1.4571 21V1.32918H6.43552C8.15165 1.32918 9.48733 1.54774 10.4425 1.98487C11.3977 2.40581 12.0696 3.07769 12.4582 4.00052C12.8467 4.90716 13.041 6.08903 13.041 7.54613V14.6859C13.041 16.1592 12.8467 17.3653 12.4582 18.3044C12.0696 19.2272 11.3977 19.9072 10.4425 20.3443C9.50352 20.7814 8.18403 21 6.48409 21H1.4571ZM5.80411 17.9887H6.48409C7.14788 17.9887 7.62548 17.8915 7.9169 17.6972C8.20832 17.503 8.38641 17.2115 8.45117 16.823C8.53212 16.4344 8.57259 15.9487 8.57259 15.3659V6.79329C8.57259 6.21045 8.52402 5.74095 8.42688 5.38477C8.34593 5.02859 8.15975 4.76955 7.86833 4.60765C7.57691 4.44575 7.1074 4.3648 6.4598 4.3648H5.80411V17.9887ZM16.9008 21V1.32918H25.7405V4.29194H21.2478V9.17322H24.672V12.1846H21.2478V18.0615H25.7891V21H16.9008ZM31.5997 21L28.0541 1.32918H31.7697L33.8825 14.6859L35.8495 1.32918H39.7837L36.1895 21H31.5997ZM48.3709 21.2914C46.8814 21.2914 45.6996 21.0243 44.8253 20.49C43.9672 19.9396 43.3601 19.1786 43.0039 18.2072C42.6478 17.2196 42.4697 16.0621 42.4697 14.7345V7.64327C42.4697 6.28331 42.6478 5.11763 43.0039 4.14623C43.3601 3.15864 43.9672 2.39772 44.8253 1.86345C45.6996 1.32918 46.8814 1.06204 48.3709 1.06204C49.828 1.06204 50.9613 1.30489 51.7708 1.79059C52.5965 2.2601 53.1793 2.92389 53.5193 3.78196C53.8593 4.64003 54.0293 5.62762 54.0293 6.74472V8.44467H49.7794V6.47759C49.7794 6.08903 49.7552 5.71666 49.7066 5.36048C49.6742 5.0043 49.5609 4.71288 49.3666 4.48622C49.1723 4.24337 48.8404 4.12195 48.3709 4.12195C47.9176 4.12195 47.5776 4.24337 47.3509 4.48622C47.1405 4.72907 47.0029 5.03668 46.9381 5.40905C46.8895 5.76523 46.8652 6.1457 46.8652 6.55044V15.803C46.8652 16.2401 46.8976 16.6449 46.9624 17.0173C47.0433 17.3734 47.189 17.6649 47.3995 17.8915C47.6262 18.102 47.95 18.2072 48.3709 18.2072C48.8242 18.2072 49.148 18.0939 49.3423 17.8672C49.5366 17.6244 49.658 17.3168 49.7066 16.9444C49.7552 16.572 49.7794 16.1916 49.7794 15.803V13.7388H54.0293V15.4387C54.0293 16.5559 53.8593 17.5596 53.5193 18.4501C53.1955 19.3243 52.6208 20.0205 51.7951 20.5386C50.9856 21.0405 49.8442 21.2914 48.3709 21.2914ZM63.2692 21.2914C61.7959 21.2914 60.6302 21.0324 59.7721 20.5143C58.9141 19.9962 58.2988 19.2515 57.9265 18.2801C57.5541 17.3087 57.3679 16.1511 57.3679 14.8073V7.49756C57.3679 6.1376 57.5541 4.98002 57.9265 4.02481C58.2988 3.0696 58.9141 2.34105 59.7721 1.83916C60.6302 1.32108 61.7959 1.06204 63.2692 1.06204C64.7586 1.06204 65.9324 1.32108 66.7905 1.83916C67.6647 2.34105 68.2881 3.0696 68.6604 4.02481C69.0328 4.98002 69.219 6.1376 69.219 7.49756V14.8073C69.219 16.1511 69.0328 17.3087 68.6604 18.2801C68.2881 19.2515 67.6647 19.9962 66.7905 20.5143C65.9324 21.0324 64.7586 21.2914 63.2692 21.2914ZM63.2692 18.2072C63.7225 18.2072 64.0544 18.0939 64.2648 17.8672C64.4753 17.6406 64.6129 17.3492 64.6777 16.993C64.7425 16.6368 64.7748 16.2725 64.7748 15.9002V6.42902C64.7748 6.04046 64.7425 5.67619 64.6777 5.3362C64.6129 4.98002 64.4753 4.6886 64.2648 4.46194C64.0544 4.23528 63.7225 4.12195 63.2692 4.12195C62.8482 4.12195 62.5325 4.23528 62.3221 4.46194C62.1116 4.6886 61.974 4.98002 61.9092 5.3362C61.8444 5.67619 61.8121 6.04046 61.8121 6.42902V15.9002C61.8121 16.2725 61.8364 16.6368 61.8849 16.993C61.9497 17.3492 62.0792 17.6406 62.2735 17.8672C62.484 18.0939 62.8158 18.2072 63.2692 18.2072ZM73.0788 21V1.32918H76.1387L80.17 10.8003V1.32918H83.7642V21H80.8257L76.7944 10.8003V21H73.0788ZM87.9059 21V1.32918H90.9658L94.9971 10.8003V1.32918H98.5913V21H95.6528L91.6215 10.8003V21H87.9059ZM102.733 21V1.32918H111.573V4.29194H107.08V9.17322H110.504V12.1846H107.08V18.0615H111.621V21H102.733ZM120.443 21.2914C118.954 21.2914 117.772 21.0243 116.898 20.49C116.04 19.9396 115.432 19.1786 115.076 18.2072C114.72 17.2196 114.542 16.0621 114.542 14.7345V7.64327C114.542 6.28331 114.72 5.11763 115.076 4.14623C115.432 3.15864 116.04 2.39772 116.898 1.86345C117.772 1.32918 118.954 1.06204 120.443 1.06204C121.9 1.06204 123.034 1.30489 123.843 1.79059C124.669 2.2601 125.252 2.92389 125.592 3.78196C125.932 4.64003 126.102 5.62762 126.102 6.74472V8.44467H121.852V6.47759C121.852 6.08903 121.827 5.71666 121.779 5.36048C121.746 5.0043 121.633 4.71288 121.439 4.48622C121.245 4.24337 120.913 4.12195 120.443 4.12195C119.99 4.12195 119.65 4.24337 119.423 4.48622C119.213 4.72907 119.075 5.03668 119.01 5.40905C118.962 5.76523 118.938 6.1457 118.938 6.55044V15.803C118.938 16.2401 118.97 16.6449 119.035 17.0173C119.116 17.3734 119.261 17.6649 119.472 17.8915C119.698 18.102 120.022 18.2072 120.443 18.2072C120.897 18.2072 121.22 18.0939 121.415 17.8672C121.609 17.6244 121.73 17.3168 121.779 16.9444C121.827 16.572 121.852 16.1916 121.852 15.803V13.7388H126.102V15.4387C126.102 16.5559 125.932 17.5596 125.592 18.4501C125.268 19.3243 124.693 20.0205 123.867 20.5386C123.058 21.0405 121.916 21.2914 120.443 21.2914ZM131.48 21V4.55908H128.517V1.32918H138.79V4.55908H135.851V21H131.48Z" fill="white"/>
<path fill-rule="evenodd" clip-rule="evenodd" d="M139.184 26.3025H101.846V44.5162H139.184V26.3025ZM111.41 30.605V42.4075H114.018V30.605H111.41ZM117.789 42.1889C118.284 42.4512 118.901 42.5823 119.64 42.5823C120.271 42.5823 120.815 42.4512 121.271 42.1889C121.738 41.9267 122.097 41.5721 122.35 41.1252C122.602 40.6687 122.729 40.1636 122.729 39.6099C122.729 38.7939 122.549 38.1091 122.189 37.5554C121.84 37.0017 121.407 36.5062 120.893 36.0691L119.916 35.2094C119.576 34.9083 119.3 34.6217 119.086 34.3497C118.882 34.068 118.78 33.7086 118.78 33.2715C118.78 33.0675 118.833 32.8635 118.94 32.6595C119.057 32.4555 119.236 32.3535 119.479 32.3535C119.703 32.3535 119.868 32.4264 119.975 32.5721C120.082 32.7081 120.15 32.9072 120.179 33.1695C120.218 33.4221 120.242 33.7232 120.252 34.0729L122.495 33.796C122.486 33.4463 122.442 33.0821 122.364 32.7032C122.296 32.3147 122.16 31.9504 121.956 31.6104C121.762 31.2607 121.471 30.979 121.082 30.7653C120.703 30.5516 120.198 30.4447 119.567 30.4447C118.547 30.4447 117.74 30.7119 117.148 31.2461C116.555 31.7707 116.259 32.5332 116.259 33.5338C116.259 34.2429 116.41 34.8403 116.711 35.326C117.022 35.802 117.4 36.2294 117.847 36.6082L118.867 37.4971C119.266 37.8371 119.581 38.1771 119.814 38.517C120.048 38.8473 120.164 39.2553 120.164 39.741C120.164 39.945 120.12 40.1393 120.033 40.3238C119.955 40.5084 119.78 40.6007 119.508 40.6007C119.295 40.6007 119.11 40.5327 118.955 40.3967C118.809 40.2607 118.692 40.0373 118.605 39.7264C118.527 39.4156 118.484 39.0076 118.474 38.5025L116.244 38.8376C116.274 39.7119 116.414 40.4258 116.667 40.9795C116.92 41.5235 117.294 41.9267 117.789 42.1889ZM125.784 32.5429V42.4075H128.406V32.5429H130.17V30.605H124.006V32.5429H125.784Z" fill="white"/>
</svg>
