<svg width="36" height="40" viewBox="0 0 36 40" fill="none" xmlns="http://www.w3.org/2000/svg">
<path d="M21.5913 35.2846C21.7623 35.1883 21.9042 35.0499 22.0029 34.8831C22.1016 34.7164 22.1536 34.5272 22.1536 34.3347C22.1536 34.1422 22.1016 33.953 22.0029 33.7863C21.9042 33.6195 21.7623 33.4811 21.5913 33.3848L17.7013 31.1945L13.8113 29.0043C13.6403 28.908 13.4463 28.8573 13.2489 28.8573C13.0515 28.8573 12.8575 28.908 12.6865 29.0043C12.5155 29.1006 12.3735 29.239 12.2748 29.4058C12.176 29.5725 12.1241 29.7617 12.1241 29.9543V38.7153C12.1242 38.9078 12.1763 39.0968 12.2751 39.2635C12.3739 39.4301 12.5159 39.5685 12.6868 39.6647C12.8578 39.7609 13.0517 39.8115 13.2491 39.8115C13.4465 39.8114 13.6404 39.7607 13.8113 39.6645L21.5913 35.2846Z" fill="white"/>
<path d="M10.5791 1.25039L1.63828 6.28435C1.50464 6.35961 1.39366 6.46785 1.3165 6.59819C1.23935 6.72853 1.19873 6.87638 1.19873 7.02688C1.19873 7.17738 1.23935 7.32523 1.3165 7.45557C1.39366 7.58591 1.50464 7.69415 1.63828 7.76942L9.95363 12.4516C10.5142 12.7673 11.15 12.9335 11.7973 12.9335C12.4446 12.9335 13.0805 12.7673 13.641 12.4516L21.953 7.77163C22.0866 7.69638 22.1976 7.58816 22.2748 7.45783C22.3519 7.3275 22.3926 7.17966 22.3926 7.02917C22.3926 6.87868 22.3519 6.73084 22.2748 6.60051C22.1976 6.47018 22.0866 6.36196 21.953 6.28671L13.0083 1.25039C12.639 1.04253 12.2201 0.933105 11.7937 0.933105C11.3673 0.933105 10.9484 1.04253 10.5791 1.25039Z" fill="white"/>
<path d="M1.88289e-08 20.6781V33.4872C-1.58347e-05 33.6906 0.0548959 33.8905 0.159211 34.0667C0.263526 34.2429 0.413572 34.3892 0.594258 34.4909L10.0566 39.8186C10.2 39.8993 10.3626 39.9418 10.5281 39.9418C10.6936 39.9418 10.8562 39.8994 10.9996 39.8187C11.1429 39.738 11.262 39.6219 11.3447 39.4821C11.4275 39.3423 11.4711 39.1837 11.4711 39.0223V15.9676C11.4711 15.3807 11.3126 14.8041 11.0117 14.2959C10.7107 13.7876 10.2779 13.3655 9.7567 13.072L1.39576 8.36443C1.25429 8.28478 1.09383 8.24285 0.93048 8.24286C0.767127 8.24287 0.60666 8.28481 0.4652 8.36448C0.323741 8.44415 0.206253 8.55872 0.124598 8.6967C0.0429429 8.83467 -3.28403e-05 8.99118 1.88289e-08 9.15048V20.6781Z" fill="white"/>
<path d="M35.7264 25.0685V14.6688C35.7264 14.4768 35.6746 14.2883 35.5762 14.1221C35.4777 13.9559 35.3362 13.8179 35.1658 13.7219L25.664 8.37203C25.5212 8.29167 25.3593 8.24938 25.1945 8.24939C25.0296 8.2494 24.8677 8.29172 24.725 8.3721C24.5822 8.45248 24.4637 8.56809 24.3813 8.7073C24.2989 8.84652 24.2555 9.00443 24.2555 9.16518V19.8725C24.2555 20.0644 24.3072 20.253 24.4056 20.4192C24.504 20.5854 24.6455 20.7234 24.8159 20.8194L34.0445 26.0154C34.215 26.1113 34.4083 26.1619 34.6051 26.1619C34.8019 26.1619 34.9953 26.1114 35.1657 26.0154C35.3361 25.9194 35.4777 25.7814 35.5761 25.6152C35.6745 25.449 35.7264 25.2605 35.7264 25.0685Z" fill="white"/>
<path d="M13.7842 26.0277L22.9447 20.8701C23.1463 20.7566 23.3137 20.5933 23.4301 20.3966C23.5464 20.2 23.6076 19.9769 23.6075 19.7499V9.40795C23.6075 9.22182 23.5572 9.03896 23.4617 8.87777C23.3663 8.71658 23.229 8.58273 23.0637 8.48966C22.8984 8.3966 22.7109 8.3476 22.52 8.3476C22.3292 8.34759 22.1417 8.39658 21.9763 8.48963L14.156 12.893C13.538 13.2409 13.0248 13.7413 12.668 14.344C12.3113 14.9466 12.1234 15.6303 12.1235 16.3262V25.0916C12.1233 25.2812 12.1743 25.4675 12.2714 25.6318C12.3685 25.796 12.5083 25.9325 12.6766 26.0274C12.8449 26.1223 13.0359 26.1722 13.2303 26.1723C13.4248 26.1724 13.6158 26.1225 13.7842 26.0277Z" fill="white"/>
<path d="M13.6283 28.1726L23.3313 33.6358C23.512 33.7375 23.717 33.7911 23.9257 33.7911C24.1343 33.7911 24.3393 33.7375 24.52 33.6358L34.3115 28.1228C34.4223 28.0606 34.5143 27.971 34.5783 27.8631C34.6423 27.7551 34.676 27.6326 34.676 27.5079C34.676 27.3833 34.6423 27.2608 34.5783 27.1528C34.5143 27.0449 34.4223 26.9553 34.3115 26.8931L24.52 21.3804C24.3393 21.2786 24.1344 21.225 23.9257 21.225C23.7171 21.225 23.5122 21.2786 23.3315 21.3804L13.6283 26.8435C13.5087 26.9108 13.4094 27.0077 13.3403 27.1243C13.2713 27.241 13.2349 27.3733 13.2349 27.508C13.2349 27.6427 13.2713 27.775 13.3403 27.8917C13.4094 28.0084 13.5087 28.1052 13.6283 28.1726Z" fill="white"/>
</svg>
