<svg width="798" height="622" viewBox="0 0 798 622" fill="none" xmlns="http://www.w3.org/2000/svg">
<g opacity="0.05">
<path d="M482.278 725.756C486.097 723.55 489.268 720.379 491.473 716.56C493.678 712.741 494.838 708.408 494.838 703.998C494.838 699.589 493.678 695.256 491.473 691.437C489.268 687.618 486.097 684.446 482.278 682.241L395.389 632.075L308.501 581.91C304.682 579.705 300.349 578.544 295.939 578.544C291.529 578.544 287.196 579.705 283.377 581.91C279.557 584.115 276.385 587.287 274.18 591.106C271.975 594.926 270.814 599.259 270.815 603.669V804.332C270.818 808.74 271.981 813.071 274.187 816.888C276.394 820.705 279.566 823.874 283.385 826.077C287.204 828.28 291.535 829.439 295.943 829.439C300.352 829.438 304.683 828.277 308.501 826.073L482.278 725.756Z" fill="white"/>
<path d="M236.304 -53.7682L36.5987 61.5302C33.6137 63.2541 31.1348 65.7333 29.4114 68.7187C27.688 71.704 26.7808 75.0904 26.7808 78.5375C26.7808 81.9845 27.688 85.3708 29.4114 88.3561C31.1348 91.3415 33.6137 93.8207 36.5987 95.5446L222.334 202.787C234.855 210.017 249.057 213.823 263.515 213.823C277.973 213.823 292.177 210.017 304.697 202.787L490.357 95.5952C493.342 93.8718 495.822 91.3929 497.545 88.4078C499.269 85.4228 500.176 82.0367 500.176 78.5898C500.176 75.1429 499.269 71.7567 497.545 68.7717C495.822 65.7866 493.342 63.3078 490.357 61.5844L290.565 -53.7682C282.316 -58.5292 272.959 -61.0355 263.434 -61.0355C253.91 -61.0355 244.553 -58.5292 236.304 -53.7682Z" fill="white"/>
<path d="M4.2057e-07 391.205V684.588C-0.000353692 689.248 1.22618 693.826 3.55621 697.861C5.88623 701.897 9.23772 705.248 13.2736 707.578L224.629 829.604C227.831 831.452 231.463 832.426 235.16 832.426C238.857 832.427 242.489 831.454 245.691 829.605C248.893 827.757 251.552 825.098 253.401 821.896C255.25 818.694 256.224 815.062 256.224 811.365V283.316C256.223 269.873 252.684 256.667 245.962 245.026C239.24 233.384 229.572 223.717 217.93 216.995L31.1763 109.171C28.0164 107.347 24.4323 106.387 20.7836 106.387C17.1349 106.387 13.5506 107.348 10.3909 109.172C7.23122 110.997 4.60697 113.621 2.78308 116.782C0.959191 119.942 -0.000733536 123.526 4.2057e-07 127.175V391.205Z" fill="white"/>
<path d="M798 491.762V253.564C798 249.168 796.843 244.85 794.644 241.043C792.446 237.236 789.285 234.075 785.478 231.877L573.242 109.343C570.053 107.502 566.436 106.534 562.754 106.534C559.072 106.534 555.456 107.503 552.267 109.344C549.079 111.185 546.431 113.833 544.59 117.022C542.75 120.21 541.781 123.827 541.781 127.509V372.752C541.78 377.147 542.937 381.466 545.134 385.273C547.332 389.079 550.492 392.241 554.299 394.439L760.433 513.449C764.24 515.647 768.559 516.804 772.955 516.804C777.351 516.804 781.669 515.647 785.476 513.45C789.283 511.252 792.445 508.091 794.644 504.284C796.842 500.477 797.999 496.158 798 491.762Z" fill="white"/>
<path d="M307.899 513.732L512.512 395.603C517.015 393.003 520.755 389.262 523.354 384.758C525.953 380.254 527.319 375.144 527.317 369.944V133.072C527.316 128.808 526.193 124.62 524.061 120.928C521.929 117.236 518.863 114.17 515.17 112.039C511.478 109.907 507.29 108.785 503.027 108.785C498.764 108.785 494.575 109.907 490.883 112.038L316.204 212.893C302.4 220.862 290.937 232.324 282.968 246.127C274.999 259.93 270.804 275.588 270.804 291.527V492.291C270.8 496.634 271.94 500.901 274.109 504.664C276.278 508.426 279.399 511.552 283.159 513.725C286.919 515.898 291.185 517.043 295.528 517.044C299.871 517.046 304.137 515.903 307.899 513.732Z" fill="white"/>
<path d="M304.399 562.865L521.13 687.995C525.166 690.325 529.745 691.551 534.405 691.551C539.066 691.551 543.644 690.325 547.681 687.995L766.387 561.724C768.862 560.299 770.918 558.247 772.348 555.775C773.777 553.302 774.53 550.497 774.53 547.641C774.53 544.785 773.777 541.98 772.348 539.508C770.918 537.035 768.862 534.984 766.387 533.559L547.681 407.294C543.645 404.963 539.067 403.736 534.407 403.736C529.747 403.736 525.17 404.963 521.134 407.294L304.399 532.421C301.727 533.964 299.509 536.183 297.967 538.855C296.425 541.527 295.612 544.558 295.612 547.643C295.612 550.728 296.425 553.759 297.967 556.431C299.509 559.103 301.727 561.322 304.399 562.865Z" fill="white"/>
</g>
</svg>
