<svg width="39" height="45" viewBox="0 0 39 45" fill="none" xmlns="http://www.w3.org/2000/svg">
<path d="M37.5049 13.5377L14.7421 0.399112C14.2875 0.137619 13.7722 0 13.2477 0C12.7231 0 12.2078 0.137619 11.7532 0.399112L1.49458 6.32193C1.04069 6.58493 0.663775 6.96245 0.401502 7.41676C0.139229 7.87106 0.000788598 8.38625 0 8.91082V35.1873C0.000827035 35.712 0.139343 36.2272 0.401705 36.6816C0.664068 37.1359 1.04107 37.5134 1.49506 37.7764L11.76 43.6997C12.2146 43.9611 12.7299 44.0986 13.2543 44.0986C13.7788 44.0986 14.294 43.9611 14.7486 43.6997L37.5053 30.5611C37.9592 30.2981 38.3361 29.9206 38.5984 29.4663C38.8607 29.012 38.9992 28.4968 39 27.9722V16.1268C38.9991 15.6021 38.8605 15.0869 38.5982 14.6326C38.3358 14.1782 37.9588 13.8007 37.5049 13.5377Z" fill="#36364C"/>
<path d="M23.3534 37.4142C23.5296 37.3124 23.6759 37.1661 23.7777 36.9898C23.8794 36.8136 23.933 36.6136 23.933 36.4101C23.933 36.2066 23.8794 36.0067 23.7777 35.8304C23.6759 35.6542 23.5296 35.5078 23.3534 35.406L19.3435 33.0909L15.3337 30.7758C15.1574 30.6741 14.9575 30.6205 14.754 30.6205C14.5504 30.6205 14.3505 30.6741 14.1742 30.7758C13.998 30.8776 13.8516 31.024 13.7498 31.2002C13.648 31.3765 13.5945 31.5765 13.5945 31.78V41.0404C13.5946 41.2439 13.6483 41.4437 13.7501 41.6199C13.852 41.796 13.9983 41.9423 14.1746 42.0439C14.3508 42.1456 14.5507 42.1991 14.7542 42.1991C14.9576 42.199 15.1575 42.1455 15.3337 42.0437L23.3534 37.4142Z" fill="#A564A8"/>
<path d="M12.002 1.43981L2.78573 6.76073C2.64797 6.84029 2.53357 6.9547 2.45404 7.09247C2.37451 7.23024 2.33264 7.38652 2.33264 7.5456C2.33264 7.70468 2.37451 7.86095 2.45404 7.99872C2.53357 8.13649 2.64797 8.25091 2.78573 8.33046L11.3573 13.2796C11.9351 13.6133 12.5905 13.7889 13.2577 13.7889C13.925 13.7889 14.5804 13.6133 15.1582 13.2796L23.7263 8.3328C23.864 8.25327 23.9785 8.13887 24.058 8.00111C24.1375 7.86335 24.1794 7.70709 24.1794 7.54802C24.1794 7.38894 24.1375 7.23268 24.058 7.09492C23.9785 6.95716 23.864 6.84276 23.7263 6.76323L14.5061 1.43981C14.1254 1.22009 13.6935 1.10443 13.254 1.10443C12.8144 1.10443 12.3827 1.22009 12.002 1.43981Z" fill="#5FC2A9"/>
<path d="M1.09674 21.9749V35.5142C1.09672 35.7293 1.15333 35.9405 1.26086 36.1268C1.36839 36.313 1.52305 36.4677 1.70931 36.5752L11.4632 42.2066C11.6109 42.2919 11.7785 42.3368 11.9492 42.3368C12.1198 42.3368 12.2874 42.292 12.4352 42.2066C12.5829 42.1213 12.7057 41.9986 12.791 41.8509C12.8763 41.7031 12.9212 41.5355 12.9213 41.3649V16.9959C12.9212 16.3755 12.7579 15.7661 12.4477 15.2288C12.1375 14.6916 11.6913 14.2454 11.154 13.9352L2.5355 8.95925C2.38967 8.87506 2.22427 8.83074 2.05589 8.83075C1.8875 8.83076 1.72209 8.8751 1.57627 8.9593C1.43046 9.04351 1.30935 9.16462 1.22518 9.31046C1.14101 9.4563 1.09671 9.62173 1.09674 9.79011V21.9749Z" fill="#FF4E26"/>
<path d="M37.9237 26.6155V15.6229C37.9237 15.42 37.8703 15.2207 37.7689 15.045C37.6674 14.8693 37.5215 14.7234 37.3458 14.622L27.5513 8.96716C27.4042 8.88222 27.2372 8.83751 27.0673 8.83752C26.8974 8.83754 26.7305 8.88227 26.5834 8.96723C26.4362 9.05219 26.314 9.17439 26.2291 9.32154C26.1441 9.46869 26.0994 9.63561 26.0994 9.80552V21.1232C26.0994 21.3261 26.1528 21.5254 26.2542 21.7011C26.3556 21.8768 26.5014 22.0227 26.6771 22.1241L36.19 27.6163C36.3657 27.7177 36.565 27.7711 36.7679 27.7712C36.9708 27.7712 37.1701 27.7178 37.3458 27.6163C37.5215 27.5149 37.6674 27.369 37.7688 27.1933C37.8703 27.0176 37.9237 26.8184 37.9237 26.6155Z" fill="white"/>
<path d="M15.3059 27.6295L24.7486 22.1779C24.9565 22.0579 25.1291 21.8853 25.249 21.6774C25.3689 21.4696 25.432 21.2338 25.4319 20.9938V10.0623C25.4318 9.86558 25.38 9.67231 25.2816 9.50193C25.1832 9.33155 25.0417 9.19006 24.8713 9.09169C24.7009 8.99333 24.5077 8.94153 24.3109 8.94153C24.1142 8.94152 23.9209 8.9933 23.7505 9.09166L15.6892 13.746C15.0522 14.1138 14.5232 14.6427 14.1554 15.2798C13.7876 15.9168 13.594 16.6394 13.5941 17.3749V26.64C13.5939 26.8404 13.6465 27.0374 13.7466 27.211C13.8467 27.3846 13.9907 27.5289 14.1642 27.6292C14.3377 27.7295 14.5346 27.7823 14.735 27.7824C14.9354 27.7824 15.1323 27.7297 15.3059 27.6295Z" fill="white"/>
<path d="M15.1445 29.8969L25.1465 35.6716C25.3327 35.7791 25.544 35.8357 25.7591 35.8357C25.9742 35.8357 26.1855 35.7791 26.3717 35.6716L36.4649 29.8443C36.5791 29.7785 36.674 29.6838 36.7399 29.5697C36.8059 29.4556 36.8407 29.3262 36.8407 29.1944C36.8407 29.0626 36.8059 28.9331 36.7399 28.819C36.674 28.7049 36.5791 28.6102 36.4649 28.5445L26.3717 22.7175C26.1855 22.6099 25.9742 22.5533 25.7592 22.5533C25.5441 22.5533 25.3329 22.6099 25.1467 22.7175L15.1445 28.492C15.0212 28.5632 14.9189 28.6656 14.8477 28.7889C14.7765 28.9122 14.739 29.0521 14.739 29.1945C14.739 29.3368 14.7765 29.4767 14.8477 29.6C14.9189 29.7233 15.0212 29.8257 15.1445 29.8969Z" fill="white"/>
<path d="M30.0508 24.305L25.79 16.9063L21.5291 24.305L25.79 27.0213L30.0508 24.305ZM26.1014 21.8235V18.6863L28.801 23.3689L26.1014 21.8235ZM29.051 24.2114L26.1014 26.0842V22.5414L29.051 24.2114ZM25.4767 21.8235L22.7922 23.353L25.4767 18.6872V21.8235ZM25.4767 22.5414V26.0842L22.5272 24.2114L25.4767 22.5414Z" fill="#36364C"/>
<path d="M25.7893 27.8947L21.5284 25.1785L25.7893 31.406L30.0501 25.1785L25.7893 27.8947ZM25.4615 28.4255L25.477 28.441V29.8614L23.7607 27.3328L25.4615 28.4255ZM27.8338 27.3328L26.1008 29.8614V28.441L26.1163 28.4255L27.8338 27.3328Z" fill="#36364C"/>
</svg>
