<svg width="100" height="605" viewBox="0 0 100 605" fill="none" xmlns="http://www.w3.org/2000/svg">
<g clip-path="url(#clip0_1320_21519)">
<mask id="mask0_1320_21519" style="mask-type:alpha" maskUnits="userSpaceOnUse" x="-38" y="1" width="964" height="604">
<rect x="-37.9219" y="1.3306" width="963.349" height="602.758" fill="url(#paint0_linear_1320_21519)"/>
</mask>
<g mask="url(#mask0_1320_21519)">
<g opacity="0.3">
<path d="M77.0967 152.584L90.6711 129.073L63.5236 129.073L49.9482 105.563L36.3745 129.074L9.22696 129.074L22.8011 152.585L9.22673 176.096L36.3742 176.096L49.9483 199.607L63.5234 176.095L90.6708 176.095L77.0967 152.584ZM54.3241 155.11L72.7214 155.11L81.9194 171.042L63.5228 171.041L54.3243 155.109L54.3241 155.11ZM72.7215 150.057L54.3242 150.058L63.5234 134.126L81.9201 134.126L72.7219 150.058L72.7215 150.057ZM49.9481 115.667L59.1462 131.599L49.9477 147.53L40.7496 131.599L49.9477 115.666L49.9481 115.667ZM36.3742 134.125L45.5727 150.057L27.176 150.057L17.9779 134.125L36.3742 134.125ZM27.1758 155.109L45.5725 155.11L36.3743 171.042L17.9777 171.041L27.1758 155.109ZM49.9486 189.5L40.7505 173.568L49.9487 157.636L59.1471 173.569L49.9486 189.5Z" fill="white"/>
<path d="M77.097 545.377L90.6708 521.866L63.5233 521.867L49.9488 498.355L36.3738 521.867L9.22629 521.867L22.8004 545.378L9.22604 568.889L36.3735 568.889L49.9477 592.4L63.5227 568.888L90.6701 568.888L77.096 545.377L77.097 545.377ZM54.3244 547.904L72.7217 547.903L81.9198 563.835L63.5231 563.835L54.3246 547.903L54.3244 547.904ZM72.7218 542.851L54.3246 542.851L63.5237 526.919L81.9203 526.919L72.7228 542.851L72.7218 542.851ZM49.9484 508.461L59.1468 524.393L49.9483 540.324L40.7502 524.393L49.9484 508.461ZM36.3743 526.919L45.5723 542.851L27.1757 542.85L17.9776 526.919L36.3743 526.919ZM27.1755 547.903L45.5721 547.903L36.374 563.835L17.9773 563.835L27.1755 547.903ZM49.9482 582.294L40.7502 566.362L49.9484 550.43L59.1468 566.362L49.9482 582.294Z" fill="white"/>
<path d="M75.1752 415.748L63.4718 395.477L63.4713 389.391L86.7353 349.097L63.4715 308.803L63.471 302.715L75.1744 282.445L52.9 243.865L60.319 231.013L49.9783 213.103L39.637 231.014L47.0574 243.866L24.7829 282.446L36.4856 302.715L36.4853 308.804L13.2222 349.097L36.4847 389.392L36.4845 395.478L24.7821 415.749L47.0568 454.33L39.6365 467.182L49.9775 485.093L60.3189 467.182L52.8989 454.331L75.174 415.749L75.1752 415.748ZM45.4794 231.013L49.9793 223.219L54.479 231.013L49.979 238.807L45.479 231.013L45.4794 231.013ZM30.6251 415.748L41.5442 396.833L41.5438 388.035L19.0641 349.097L41.5443 310.158L41.5439 301.36L30.6236 282.446L49.979 248.923L69.3327 282.445L58.4125 301.359L58.4127 310.158L80.8932 349.096L58.4124 388.035L58.4129 396.833L69.3332 415.747L49.9792 449.27L30.6251 415.748ZM54.4785 467.181L49.9792 474.975L45.4792 467.181L49.9788 459.388L54.4785 467.181Z" fill="white"/>
<path d="M61.4167 349.097L49.9797 329.287L38.5421 349.097L49.9799 368.908L61.417 349.097L61.4167 349.097ZM49.9796 339.404L55.5756 349.096L49.9792 358.79L44.3825 349.096L49.9796 339.404Z" fill="white"/>
<path d="M52.5089 398.415L52.5089 386.453L74.0757 349.096L52.5083 311.741L52.5083 299.778L62.5156 282.446L49.9797 260.733L37.4435 282.447L47.45 299.778L47.4503 311.74L25.8817 349.097L47.4499 386.454L47.4506 398.416L37.4437 415.748L49.9796 437.461L62.5157 415.748L52.5089 398.415ZM49.9796 270.85L56.6745 282.446L49.9794 294.042L43.2845 282.446L49.9793 270.849L49.9796 270.85ZM49.9798 317.476L68.2357 349.096L49.98 380.717L31.7237 349.096L49.9798 317.476ZM43.285 415.748L49.9798 404.151L56.6747 415.747L49.9799 427.344L43.285 415.748Z" fill="white"/>
<path d="M59.4381 454.33L71.9737 476.042L84.5105 454.33L71.9746 432.617L59.4381 454.33ZM71.974 465.925L65.2794 454.329L71.9736 442.733L78.6685 454.329L71.974 465.925Z" fill="white"/>
<path d="M28.8032 432.616L16.2671 454.329L28.8027 476.042L41.3395 454.329L28.8036 432.617L28.8032 432.616ZM22.1084 454.329L28.8032 442.732L35.4981 454.328L28.8032 465.923L22.1087 454.328L22.1084 454.329Z" fill="white"/>
<path d="M71.9738 265.578L84.5099 243.865L71.974 222.152L59.4375 243.865L71.9734 265.578L71.9738 265.578ZM78.6686 243.865L71.9738 255.462L65.2789 243.866L71.974 232.27L78.6689 243.866L78.6686 243.865Z" fill="white"/>
<path d="M41.3391 243.865L28.8032 222.152L16.2668 243.865L28.8027 265.577L41.3391 243.865ZM28.8029 232.269L35.4978 243.865L28.8031 255.462L22.1082 243.866L28.8033 232.27L28.8029 232.269Z" fill="white"/>
<path d="M49.949 193.756L-2.36851 223.962L-2.36889 474.232L49.9487 504.438L102.266 474.233L102.266 223.962L49.9494 193.757L49.949 193.756ZM97.2071 338.615L78.6244 306.428L97.2073 274.242L97.2071 338.615ZM2.69011 274.242L21.2732 306.429L2.69027 338.615L2.69011 274.242ZM2.69003 359.657L21.2727 391.843L2.68983 424.03L2.69003 359.657ZM49.949 498.596L2.68964 471.313L2.6892 434.148L27.1141 391.843L2.6896 349.539L2.68926 348.733L27.1141 306.428L2.68929 264.122L2.68893 226.881L49.9477 199.596L97.2061 226.881L97.2065 264.123L72.7829 306.427L97.2074 348.732L97.2064 349.538L72.7825 391.842L97.207 434.146L97.2061 471.312L49.948 498.596L49.949 498.596ZM97.2072 359.657L97.2077 424.03L78.6249 391.843L97.2076 359.658L97.2072 359.657Z" fill="white"/>
</g>
</g>
<rect width="958.026" height="161.667" transform="translate(-37.9219 442.422)" fill="url(#paint1_linear_1320_21519)"/>
</g>
<defs>
<linearGradient id="paint0_linear_1320_21519" x1="443.752" y1="230.525" x2="443.752" y2="604.089" gradientUnits="userSpaceOnUse">
<stop stop-color="white" stop-opacity="0"/>
<stop offset="1"/>
</linearGradient>
<linearGradient id="paint1_linear_1320_21519" x1="479.013" y1="0" x2="478.573" y2="161.667" gradientUnits="userSpaceOnUse">
<stop stop-color="white" stop-opacity="0"/>
<stop offset="0.4375" stop-color="white" stop-opacity="0.4"/>
<stop offset="1" stop-color="white"/>
</linearGradient>
<clipPath id="clip0_1320_21519">
<rect width="99.7944" height="604.089" fill="white"/>
</clipPath>
</defs>
</svg>
