<svg width="149" height="64" viewBox="0 0 149 64" fill="none" xmlns="http://www.w3.org/2000/svg">
<path d="M7.0287 44.6338L4.50377 50.5115H2.52483L0 44.6338H2.16666L3.59114 48.0681L5.04976 44.6338H7.0287Z" fill="white"/>
<path d="M8.58984 44.6335H10.6029V50.5113H8.58984V44.6335Z" fill="white"/>
<path d="M12.9414 44.6335H14.9545V50.5113H12.9414V44.6335Z" fill="white"/>
<path d="M17.291 44.6335H19.3041V50.5113H17.291V44.6335Z" fill="white"/>
<path d="M6.15134 25.3601H0V25.75C1.02521 25.75 1.74756 27.1034 1.74756 28.5254V38.3655C1.74756 39.9251 1.002 41.1179 0 41.1179V41.5079H6.15134C10.7882 41.5079 15.9143 40.2004 15.9143 33.5028C15.9143 26.8051 10.7881 25.3601 6.15134 25.3601ZM2.63362 40.5325L3.79246 38.5567L4.95119 40.5325H2.63362ZM3.79235 28.3113L2.63362 26.3355H4.95119L3.79235 28.3113ZM7.17379 41.1179H6.14858V25.75H7.17379C9.45721 25.75 10.8142 26.3464 10.8142 33.5028C10.8142 40.6592 9.45721 41.1179 7.17379 41.1179ZM12.3343 33.4339L14.3413 32.2933V34.5747L12.3343 33.4339Z" fill="white"/>
<path d="M44.6531 25.3601V25.75C49.1118 25.75 47.3998 31.1173 47.3998 31.1173L45.463 35.8929L42.4107 28.4108C42.4107 28.4108 41.5253 25.75 43.4359 25.75V25.3601H35.0039V25.75C35.6097 25.75 36.4485 25.773 37.2174 27.6079C37.2174 27.6079 37.4737 27.9979 43.1823 41.5079H43.5784L47.7726 31.232C50.126 25.75 51.1977 25.75 52.2695 25.75V25.3601H44.6531ZM39.6962 28.3113L38.5375 26.3355H40.8551L39.6962 28.3113Z" fill="white"/>
<path d="M32.019 36.5076C31.0404 41.1179 25.8882 41.1179 25.8882 41.1179H25.0494V33.5487H25.8882C25.8882 33.5487 29.4298 33.5487 29.6628 35.9341H30.0589V30.7733H29.6628C29.4298 33.1587 25.8882 33.1587 25.8882 33.1587H25.0494V25.75H25.8882C25.8882 25.75 31.1801 25.75 31.716 29.7181H32.1121V25.3601H19.2969V25.75C20.3221 25.75 20.6483 27.1034 20.6483 28.5254V38.3655C20.6483 39.9251 20.2756 41.1179 19.2969 41.1179V41.5079H32.4151V36.5076H32.019ZM21.5345 40.5325L22.6933 38.5567L23.8521 40.5325H21.5345ZM22.6932 28.3113L21.5345 26.3355H23.8521L22.6932 28.3113Z" fill="white"/>
<path d="M115.703 44.6306H117.719V50.5165H115.703V44.6306Z" fill="white"/>
<path d="M126.296 44.6306V50.5165H124.639L122.367 47.8427V50.5165H120.402V44.6306H122.059L124.332 47.3045V44.6306H126.296Z" fill="white"/>
<path d="M128.979 44.6306H131.925C133.924 44.6306 135.299 45.7489 135.299 47.5736C135.299 49.3983 133.924 50.5166 131.925 50.5166H128.979V44.6306ZM131.84 48.9693C132.686 48.9693 133.266 48.4732 133.266 47.5735C133.266 46.6738 132.686 46.1777 131.84 46.1777H130.994V48.9693H131.84Z" fill="white"/>
<path d="M137.742 44.6306H139.758V50.5165H137.742V44.6306Z" fill="white"/>
<path d="M146.515 49.4907H144.243L143.841 50.5165H141.791L144.405 44.6306H146.387L149 50.5165H146.916L146.515 49.4907ZM145.959 48.0613L145.379 46.5814L144.798 48.0613H145.959Z" fill="white"/>
<path d="M111.599 36.6911C110.993 39.1912 109.083 41.3244 106.286 41.3244C104.18 41.3244 103.418 39.7418 103.418 33.4341C103.418 27.1263 104.18 25.5437 106.286 25.5437C108.943 25.5437 110.294 27.0576 111.599 30.1541H111.995L112.321 26.5529C110.853 25.3832 108.686 25.1538 106.286 25.1538C101.3 25.1538 98.2012 28.8696 98.2012 33.4341C98.2012 37.9985 101.3 41.7143 106.286 41.7143C108.78 41.7143 110.597 41.4162 112.321 40.2922L111.995 36.6911H111.599ZM99.8954 34.5747V32.2933L101.902 33.4341L99.8954 34.5747Z" fill="white"/>
<path d="M122.271 25.1536C117.145 25.1536 114.232 29.0069 114.232 33.5486C114.232 38.113 117.145 41.7141 122.271 41.7141C127.397 41.7141 130.31 38.113 130.31 33.5486C130.31 29.0069 127.397 25.1536 122.271 25.1536ZM115.998 34.5746V32.2932L118.005 33.4339L115.998 34.5746ZM122.271 41.3242C119.498 41.3242 119.239 39.8562 119.239 33.5486C119.239 27.2409 119.498 25.5435 122.271 25.5435C125.021 25.5435 125.256 27.2638 125.256 33.5486C125.256 39.8333 125.02 41.3242 122.271 41.3242ZM126.865 33.4339L128.873 32.2932V34.5746L126.865 33.4339Z" fill="white"/>
<path d="M141.94 25.36V25.7499C145.155 25.7269 145.132 31.186 145.132 31.186V35.5183L136.764 25.3599H130.033V25.7498C130.639 25.7957 131.315 25.5433 132.806 27.3783L133.715 28.5023V35.6587C133.715 35.6587 133.738 41.1177 130.22 41.1177V41.5076H137.303V41.1177C134.088 41.1177 134.111 35.6587 134.111 35.6587V28.9151L144.293 41.5076H145.528V31.186C145.528 31.186 145.481 25.7269 149 25.7499V25.36H141.94ZM135.27 28.3111L134.111 26.3354H136.428L135.27 28.3111Z" fill="white"/>
<path d="M76.65 26.8468C76.6815 26.6766 76.8671 25.4991 76.1096 24.8731C75.5205 24.3863 75.0209 24.2984 74.5006 23.3567C73.9804 24.2985 73.4807 24.3863 72.8917 24.8731C72.1253 25.5065 72.3244 26.705 72.3524 26.8532C73.0187 26.5856 73.7466 26.437 74.5093 26.437C75.2659 26.437 75.9882 26.5834 76.65 26.8469V26.8468Z" fill="white"/>
<path d="M72.3524 37.3026C72.3244 37.4508 72.1253 38.6493 72.8917 39.2827C73.4807 39.7694 73.9804 39.8574 74.5006 40.7991C75.0209 39.8573 75.5205 39.7694 76.1096 39.2827C76.8671 38.6567 76.6815 37.4792 76.65 37.309C75.9882 37.5725 75.2659 37.7189 74.5093 37.7189C73.7465 37.7189 73.0186 37.5701 72.3524 37.3026Z" fill="white"/>
<path d="M81.8186 30.494C81.1882 29.7549 80.0077 29.9278 79.8184 29.9612C80.0884 30.6153 80.2386 31.3295 80.2386 32.0779C80.2386 32.8264 80.0885 33.5406 79.8184 34.1947C80.0077 34.228 81.1882 34.4009 81.8186 33.6619C82.313 33.082 82.4023 32.5901 83.359 32.078C82.4023 31.5659 82.313 31.074 81.8186 30.4942V30.494Z" fill="white"/>
<path d="M69.1974 29.9641C69.0755 29.9411 67.8335 29.7289 67.181 30.4941C66.6866 31.0739 66.5973 31.5659 65.6406 32.0779C66.5973 32.59 66.6866 33.082 67.181 33.6617C67.8335 34.4268 69.0754 34.2147 69.1974 34.1917C68.9281 33.5384 68.7784 32.8252 68.7784 32.0779C68.7784 31.3306 68.9281 30.6174 69.1974 29.9641Z" fill="white"/>
<path d="M79.7821 29.8717C79.9424 29.7616 80.8979 29.0628 80.8128 28.1031C80.746 27.349 80.4558 26.9389 80.7644 25.9109C79.72 26.2147 79.3036 25.929 78.5374 25.8632C77.5547 25.7788 76.8414 26.735 76.7383 26.8814C78.104 27.4515 79.2001 28.5288 79.782 29.8716L79.7821 29.8717Z" fill="white"/>
<path d="M69.2309 34.275C69.1215 34.3483 68.0991 35.0613 68.187 36.0526C68.2539 36.8068 68.544 37.2168 68.2355 38.2449C69.2798 37.941 69.6962 38.2267 70.4624 38.2926C71.458 38.378 72.1775 37.3949 72.2657 37.2685C70.9031 36.6957 69.81 35.6179 69.231 34.2751L69.2309 34.275Z" fill="white"/>
<path d="M76.7383 37.2742C76.8414 37.4206 77.5547 38.3769 78.5374 38.2925C79.3035 38.2267 79.72 37.941 80.7644 38.2448C80.4558 37.2168 80.746 36.8068 80.8128 36.0526C80.8979 35.0929 79.9424 34.3941 79.7821 34.2839C79.2001 35.6269 78.1041 36.7042 76.7384 37.2741L76.7383 37.2742Z" fill="white"/>
<path d="M72.2657 26.8873C72.1776 26.7609 71.4581 25.7776 70.4624 25.8632C69.6963 25.929 69.2798 26.2146 68.2354 25.9109C68.544 26.9389 68.2539 27.3489 68.187 28.1031C68.0992 29.0944 69.1215 29.8074 69.2309 29.8807C69.8099 28.5379 70.903 27.4602 72.2656 26.8874L72.2657 26.8873Z" fill="white"/>
<path d="M74.5095 27.5771C71.9884 27.5771 69.9375 29.5961 69.9375 32.0778C69.9375 34.5595 71.9884 36.5785 74.5095 36.5785C77.0305 36.5785 79.0813 34.5595 79.0813 32.0778C79.0813 29.5961 77.0304 27.5771 74.5095 27.5771ZM74.5014 34.673C73.0454 34.673 71.8651 33.5111 71.8651 32.0778C71.8651 30.6446 73.0454 29.4827 74.5014 29.4827C75.9573 29.4827 77.1377 30.6446 77.1377 32.0778C77.1377 33.5111 75.9573 34.673 74.5014 34.673Z" fill="white"/>
<path d="M75.9883 32.0778C75.9883 30.6446 75.5462 29.4827 74.5166 29.4827C73.487 29.4827 73.0449 30.6446 73.0449 32.0778C73.0449 33.5111 73.487 34.673 74.5166 34.673C75.5462 34.673 75.9883 33.5111 75.9883 32.0778Z" fill="white"/>
<path d="M74.4998 48.5038L55.3926 36.5243L74.4998 64L93.607 36.5243L74.4998 48.5038ZM74.4998 57.8827L70.4481 50.9744C71.7683 51.179 72.5236 51.3771 74.4997 51.3771C76.5177 51.3771 77.2313 51.179 78.5515 50.9744L74.4998 57.8827Z" fill="white"/>
<path d="M74.4998 0L55.3926 32.6539L74.4998 44.6333L93.607 32.6539L74.4998 0ZM80.891 19.4154C80.4051 20.9298 80.4778 22.3026 81.0535 22.4816C79.5151 22.0032 78.6619 20.3877 79.1479 18.8734C79.6338 17.359 81.2749 16.519 82.8133 16.9974C82.2376 16.8185 81.3771 17.9011 80.8911 19.4155L80.891 19.4154ZM74.4998 6.74203L79.0873 14.5639C77.5926 14.3323 76.7847 14.108 74.4998 14.108C72.2624 14.108 71.407 14.3323 69.9123 14.5639L74.4998 6.74203ZM77.351 18.6157C77.351 20.1542 76.084 21.4015 74.5211 21.4015C72.9582 21.4015 71.6912 20.1542 71.6912 18.6157C71.6912 17.0771 72.9582 15.8298 74.5211 15.8298C76.084 15.8298 77.351 17.077 77.351 18.6157ZM69.8519 18.8733C70.3378 20.3877 69.4846 22.0031 67.9463 22.4815C68.522 22.3025 68.5946 20.9297 68.1087 19.4153C67.6228 17.9009 66.7623 16.8183 66.1865 16.9972C67.7249 16.5189 69.366 17.3589 69.852 18.8732L69.8519 18.8733ZM58.6654 32.1734C61.8971 26.8906 67.779 23.3566 74.4998 23.3566C81.2207 23.3566 87.1026 26.8905 90.3342 32.1734L74.4998 42.101L58.6654 32.1734Z" fill="white"/>
</svg>
