<svg width="20" height="20" viewBox="0 0 20 20" fill="none" xmlns="http://www.w3.org/2000/svg">
<path d="M16.3311 3.1582H20L19.2305 5.75977H18.5801V16.2871C18.7368 16.2872 18.8872 16.3492 18.998 16.46C19.1089 16.5708 19.1718 16.7212 19.1719 16.8779V17.5879H19.29C19.4469 17.5879 19.5971 17.6508 19.708 17.7617C19.8189 17.8726 19.8818 18.0229 19.8818 18.1797V18.8887H13.2549V18.1797C13.2549 18.0229 13.3169 17.8726 13.4277 17.7617C13.5386 17.6509 13.6889 17.588 13.8457 17.5879H13.9648V16.8779C13.965 16.7212 14.0268 16.5708 14.1377 16.46C14.2203 16.3775 14.3248 16.3219 14.4375 16.2988V10.4912H14.4189C14.2097 8.17039 12.2583 6.35174 9.88184 6.35156C7.50518 6.35156 5.55302 8.17026 5.34375 10.4912H5.3252V16.2871H5.44336C5.60027 16.2871 5.75134 16.3491 5.8623 16.46C5.97317 16.5708 6.03504 16.7212 6.03516 16.8779V17.5879H6.1543C6.31106 17.588 6.46141 17.6509 6.57227 17.7617C6.68308 17.8726 6.74512 18.023 6.74512 18.1797V18.8887H0.118164V18.1797C0.118164 18.0229 0.181064 17.8726 0.291992 17.7617C0.402937 17.6508 0.553063 17.5879 0.709961 17.5879H0.828125V16.8779C0.82824 16.7212 0.891087 16.5708 1.00195 16.46C1.11285 16.3492 1.26317 16.2872 1.41992 16.2871V5.75977H0.769531L0 3.1582H3.43164V0.555664H16.3311V3.1582Z" fill="currentColor"/>
</svg>
