<svg width="20" height="20" viewBox="0 0 20 20" fill="none" xmlns="http://www.w3.org/2000/svg">
<g clip-path="url(#clip0_153_557)">
<path d="M5.85842 0.0701817C4.79442 0.120382 4.06782 0.290182 3.43262 0.539782C2.77522 0.795982 2.21802 1.13978 1.66362 1.69618C1.10922 2.25258 0.767816 2.81018 0.513416 3.46858C0.267216 4.10518 0.100416 4.83238 0.0534162 5.89698C0.00641622 6.96158 -0.00398378 7.30378 0.00121621 10.0194C0.00641621 12.735 0.0184162 13.0754 0.0700162 14.1422C0.120816 15.206 0.290016 15.9324 0.539616 16.5678C0.796216 17.2252 1.13962 17.7822 1.69622 18.3368C2.25282 18.8914 2.81002 19.232 3.47002 19.4868C4.10602 19.7326 4.83342 19.9002 5.89782 19.9468C6.96222 19.9934 7.30482 20.0042 10.0196 19.999C12.7344 19.9938 13.0762 19.9818 14.1428 19.9312C15.2094 19.8806 15.932 19.7102 16.5676 19.4618C17.225 19.2046 17.7824 18.8618 18.3366 18.305C18.8908 17.7482 19.232 17.1902 19.4862 16.5314C19.7326 15.8954 19.9 15.168 19.9462 14.1044C19.9928 13.037 20.0038 12.6962 19.9986 9.98098C19.9934 7.26578 19.9812 6.92538 19.9306 5.85898C19.88 4.79258 19.7106 4.06838 19.4612 3.43258C19.2042 2.77518 18.8612 2.21858 18.3048 1.66358C17.7484 1.10858 17.19 0.767582 16.5314 0.513982C15.895 0.267782 15.168 0.0999817 14.1036 0.0539818C13.0392 0.00798175 12.6966 -0.00381825 9.98082 0.00138175C7.26502 0.00658175 6.92502 0.0181818 5.85842 0.0701817ZM5.97522 18.1478C5.00022 18.1054 4.47082 17.9434 4.11802 17.8078C3.65082 17.6278 3.31802 17.4102 2.96642 17.062C2.61482 16.7138 2.39882 16.3798 2.21642 15.9136C2.07942 15.5608 1.91442 15.032 1.86882 14.057C1.81922 13.0032 1.80882 12.6868 1.80302 10.017C1.79722 7.34718 1.80742 7.03118 1.85362 5.97698C1.89522 5.00278 2.05822 4.47278 2.19362 4.12018C2.37362 3.65238 2.59042 3.32018 2.93942 2.96878C3.28842 2.61738 3.62142 2.40098 4.08802 2.21858C4.44042 2.08098 4.96922 1.91738 5.94382 1.87098C6.99842 1.82098 7.31442 1.81098 9.98382 1.80518C12.6532 1.79938 12.97 1.80938 14.025 1.85578C14.9992 1.89818 15.5294 2.05958 15.8816 2.19578C16.349 2.37578 16.6816 2.59198 17.033 2.94158C17.3844 3.29118 17.601 3.62298 17.7834 4.09058C17.9212 4.44198 18.0848 4.97058 18.1308 5.94578C18.181 7.00038 18.1924 7.31658 18.1972 9.98578C18.202 12.655 18.1926 12.972 18.1464 14.0258C18.1038 15.0008 17.9422 15.5304 17.8064 15.8836C17.6264 16.3506 17.4094 16.6836 17.0602 17.0348C16.711 17.386 16.3784 17.6024 15.9116 17.7848C15.5596 17.9222 15.0302 18.0862 14.0564 18.1326C13.0018 18.1822 12.6858 18.1926 10.0154 18.1984C7.34502 18.2042 7.03002 18.1934 5.97542 18.1478M14.1274 4.65558C14.1278 4.89294 14.1986 5.12484 14.3308 5.32197C14.463 5.5191 14.6507 5.67259 14.8701 5.76304C15.0896 5.85348 15.3309 5.87682 15.5636 5.8301C15.7963 5.78338 16.01 5.66869 16.1775 5.50055C16.345 5.33241 16.4589 5.11836 16.5048 4.88548C16.5507 4.6526 16.5264 4.41135 16.4352 4.19224C16.3439 3.97312 16.1898 3.78599 15.9921 3.65451C15.7945 3.52303 15.5624 3.45311 15.325 3.45358C15.0068 3.45422 14.7019 3.5812 14.4773 3.80661C14.2527 4.03202 14.1269 4.33739 14.1274 4.65558ZM4.86542 10.0102C4.87102 12.8462 7.17422 15.14 10.0096 15.1346C12.845 15.1292 15.1404 12.8262 15.135 9.99018C15.1296 7.15418 12.8258 4.85978 9.99002 4.86538C7.15422 4.87098 4.86002 7.17458 4.86542 10.0102ZM6.66662 10.0066C6.66531 9.3473 6.85954 8.70244 7.22473 8.15354C7.58992 7.60464 8.10968 7.17636 8.71828 6.92286C9.32688 6.66936 9.99698 6.60202 10.6438 6.72936C11.2907 6.8567 11.8853 7.173 12.3524 7.63826C12.8195 8.10352 13.1382 8.69684 13.2681 9.3432C13.398 9.98956 13.3333 10.6599 13.0822 11.2695C12.8311 11.8791 12.4049 12.4006 11.8574 12.7679C11.31 13.1353 10.6659 13.3321 10.0066 13.3334C9.56885 13.3343 9.1352 13.249 8.73041 13.0823C8.32563 12.9156 7.95765 12.6708 7.64749 12.3618C7.33734 12.0529 7.09107 11.6859 6.92277 11.2818C6.75447 10.8777 6.66743 10.4443 6.66662 10.0066Z" fill="currentColor"/>
</g>
<defs>
<clipPath id="clip0_153_557">
<rect width="20" height="20" fill="white"/>
</clipPath>
</defs>
</svg>
