<svg width="20" height="20" viewBox="0 0 20 20" fill="none" xmlns="http://www.w3.org/2000/svg">
<g clip-path="url(#clip0_153_558)">
<path d="M17.0189 16.9353H14.0593V12.3097C14.0593 11.2067 14.0396 9.78682 12.5201 9.78682C10.9787 9.78682 10.7428 10.9886 10.7428 12.2294V16.935H7.78326V7.42298H10.6244V8.7229H10.6642C10.9485 8.23771 11.3594 7.83858 11.853 7.568C12.3467 7.29742 12.9046 7.16554 13.4674 7.18639C16.4671 7.18639 17.0201 9.15548 17.0201 11.7172L17.0189 16.9353ZM4.44392 6.12276C4.10424 6.12283 3.77217 6.02236 3.4897 5.83407C3.20723 5.64578 2.98707 5.37812 2.85702 5.06494C2.72697 4.75177 2.69289 4.40714 2.7591 4.07464C2.82531 3.74213 2.98883 3.43669 3.22898 3.19694C3.46913 2.95718 3.77512 2.79388 4.10826 2.72768C4.4414 2.66149 4.78673 2.69537 5.10057 2.82504C5.41442 2.95472 5.68269 3.17436 5.87146 3.4562C6.06022 3.73804 6.16102 4.06942 6.16108 4.40842C6.16112 4.63351 6.11673 4.8564 6.03045 5.06438C5.94418 5.27235 5.81772 5.46133 5.65827 5.62052C5.49882 5.77971 5.30949 5.906 5.10114 5.99217C4.89278 6.07835 4.66946 6.12272 4.44392 6.12276ZM5.92369 16.9353H2.96107V7.42298H5.92369V16.9353ZM18.4943 -0.0482024H1.47391C1.0876 -0.0525533 0.715337 0.0963401 0.438964 0.365759C0.162591 0.635179 0.00471477 1.00308 0 1.38862V18.4456C0.0045534 18.8314 0.162337 19.1995 0.438701 19.4692C0.715064 19.7389 1.08741 19.8881 1.47391 19.884H18.4943C18.8816 19.8888 19.255 19.7401 19.5324 19.4704C19.8099 19.2007 19.9687 18.8321 19.9741 18.4456V1.38739C19.9686 1.00109 19.8096 0.632765 19.5322 0.363352C19.2547 0.0939395 18.8814 -0.0545285 18.4943 -0.0494336" fill="currentColor"/>
</g>
<defs>
<clipPath id="clip0_153_558">
<rect width="20" height="20" fill="white"/>
</clipPath>
</defs>
</svg>
