<svg width="159" height="93" viewBox="0 0 159 93" fill="none" xmlns="http://www.w3.org/2000/svg">
<rect width="16.6152" height="16.6152" transform="matrix(0.866041 -0.499972 0.866041 0.499972 0.367188 42.5088)" fill="#38B795"/>
<rect width="16.6152" height="16.6152" transform="matrix(0.866041 -0.499972 0.866041 0.499972 101.094 34.2017)" fill="#38B795"/>
<rect width="16.6152" height="16.6152" transform="matrix(0.866041 -0.499972 0.866041 0.499972 57.9297 9.28027)" fill="#38B795"/>
<rect width="16.6152" height="16.6152" transform="matrix(0.866041 -0.499972 0.866041 0.499972 29.1484 42.5088)" fill="#38B795"/>
<rect width="16.6152" height="16.6152" transform="matrix(0.866041 -0.499972 0.866041 0.499972 57.9297 59.123)" fill="#38B795"/>
<rect width="16.6152" height="16.6152" transform="matrix(0.866041 -0.499972 0.866041 0.499972 72.3203 67.4302)" fill="#38B795"/>
<rect width="16.6152" height="16.6152" transform="matrix(0.866041 -0.499972 0.866041 0.499972 115.484 59.123)" fill="#38B795"/>
<rect width="16.6152" height="16.6152" transform="matrix(0.866041 -0.499972 0.866041 0.499972 57.9297 75.7373)" fill="#38B795"/>
<rect width="16.6152" height="16.6152" transform="matrix(0.866041 -0.499972 0.866041 0.499972 14.7578 34.2017)" fill="#359E89"/>
<rect width="16.6152" height="16.6152" transform="matrix(0.866041 -0.499972 0.866041 0.499972 43.5391 34.2017)" fill="#359E89"/>
<rect width="16.6152" height="16.6152" transform="matrix(0.866041 -0.499972 0.866041 0.499972 43.5391 50.8159)" fill="#359E89"/>
<rect width="16.6152" height="16.6152" transform="matrix(0.866041 -0.499972 0.866041 0.499972 29.1484 25.8945)" fill="#349E88"/>
<rect width="16.6152" height="16.6152" transform="matrix(0.866041 -0.499972 0.866041 0.499972 57.9297 42.5088)" fill="#349E88"/>
<rect width="16.6152" height="16.6152" transform="matrix(0.866041 -0.499972 0.866041 0.499972 57.9297 25.8945)" fill="#349E88"/>
<rect width="16.6152" height="16.6152" transform="matrix(0.866041 -0.499972 0.866041 0.499972 86.7031 25.8945)" fill="#349E88"/>
<rect width="16.6152" height="16.6152" transform="matrix(0.866041 -0.499972 0.866041 0.499972 86.7031 42.5088)" fill="#349E88"/>
<rect width="16.6152" height="16.6152" transform="matrix(0.866041 -0.499972 0.866041 0.499972 86.7031 59.123)" fill="#349E88"/>
<rect width="16.6152" height="16.6152" transform="matrix(0.866041 -0.499972 0.866041 0.499972 129.875 50.8159)" fill="#349E88"/>
<rect width="16.6152" height="16.6152" transform="matrix(0.866041 -0.499972 0.866041 0.499972 86.7031 75.7373)" fill="#349E88"/>
<rect width="16.6152" height="16.6152" transform="matrix(0.866041 -0.499972 0.866041 0.499972 72.3203 84.0444)" fill="#349E88"/>
<rect width="16.6152" height="16.6152" transform="matrix(0.866041 -0.499972 0.866041 0.499972 101.094 50.8159)" fill="#349E88"/>
<rect width="16.6152" height="16.6152" transform="matrix(0.866041 -0.499972 0.866041 0.499972 115.484 42.5088)" fill="#349E88"/>
<rect width="16.6152" height="16.6152" transform="matrix(0.866041 -0.499972 0.866041 0.499972 43.5391 17.5874)" fill="#37AC87"/>
<rect width="16.6152" height="16.6152" transform="matrix(0.866041 -0.499972 0.866041 0.499972 72.3203 34.2017)" fill="#37AC87"/>
<rect width="16.6152" height="16.6152" transform="matrix(0.866041 -0.499972 0.866041 0.499972 29.1484 59.123)" fill="#37AC87"/>
<rect width="16.6152" height="16.6152" transform="matrix(0.866041 -0.499972 0.866041 0.499972 72.3203 17.5874)" fill="#37AC87"/>
<rect width="16.6152" height="16.6152" transform="matrix(0.866041 -0.499972 0.866041 0.499972 72.3203 50.8159)" fill="#37AC87"/>
<rect width="16.6152" height="16.6152" transform="matrix(0.866041 -0.499972 0.866041 0.499972 101.094 67.4302)" fill="#37AC87"/>
<rect width="16.6152" height="16.6152" transform="matrix(0.866041 -0.499972 0.866041 0.499972 14.7578 50.8159)" fill="#37AC87"/>
<rect width="16.6152" height="16.6152" transform="matrix(0.866041 -0.499972 0.866041 0.499972 43.5391 67.4302)" fill="#37AC87"/>
</svg>
