<svg width="96" height="37" viewBox="0 0 96 37" fill="none" xmlns="http://www.w3.org/2000/svg">
<path d="M11.5459 8.4807C11.7502 7.28834 13.4626 7.28833 13.6669 8.48069L15.5373 19.3995C15.5806 19.6524 15.7129 19.8814 15.9102 20.0454L24.431 27.1246C25.3614 27.8977 24.5052 29.3807 23.3705 28.9614L12.9793 25.1219C12.7387 25.0329 12.4741 25.0329 12.2335 25.1219L1.84232 28.9614C0.707579 29.3807 -0.148657 27.8977 0.781831 27.1246L9.30258 20.0454C9.49992 19.8814 9.63218 19.6524 9.6755 19.3995L11.5459 8.4807Z" fill="#27252A"/>
<path d="M47.7877 6.46474C47.9856 5.26332 49.713 5.26333 49.9109 6.46475L51.3106 14.9623C51.3856 15.4174 51.7423 15.7741 52.1974 15.8491L60.6949 17.2488C61.8964 17.4467 61.8964 19.1741 60.6949 19.372L52.1974 20.7717C51.7423 20.8467 51.3856 21.2034 51.3106 21.6585L49.9109 30.1561C49.713 31.3575 47.9855 31.3575 47.7877 30.156L46.388 21.6585C46.313 21.2034 45.9563 20.8467 45.5012 20.7717L37.0036 19.372C35.8022 19.1741 35.8022 17.4467 37.0036 17.2488L45.5012 15.8491C45.9563 15.7741 46.313 15.4174 46.388 14.9623L47.7877 6.46474Z" fill="#27252A"/>
<path d="M83.7259 7.27537C83.9236 7.19347 84.1457 7.19347 84.3435 7.27537L91.6192 10.2891C91.8169 10.371 91.974 10.5281 92.0559 10.7258L95.0696 18.0015C95.1515 18.1992 95.1515 18.4214 95.0696 18.6191L92.0559 25.8948C91.974 26.0925 91.8169 26.2496 91.6192 26.3315L84.3435 29.3452C84.1457 29.4271 83.9236 29.4271 83.7259 29.3452L76.4502 26.3315C76.2524 26.2496 76.0954 26.0925 76.0135 25.8948L72.9998 18.6191C72.9179 18.4214 72.9179 18.1992 72.9998 18.0015L76.0135 10.7258C76.0954 10.5281 76.2524 10.371 76.4502 10.2891L83.7259 7.27537Z" fill="#27252A"/>
</svg>
