<svg xmlns="http://www.w3.org/2000/svg" width="208" height="225" viewBox="0 0 208 225" fill="none">
  <path d="M115.701 19.3048C115.872 18.3634 116.882 11.8503 112.759 8.38754C109.553 5.69524 106.833 5.20867 104.002 0C101.17 5.20923 98.4503 5.69524 95.2442 8.38754C91.0726 11.891 92.1561 18.5204 92.3086 19.3399C95.9354 17.8601 99.8972 17.0379 104.049 17.0379C108.167 17.0379 112.098 17.8479 115.701 19.3054V19.3048Z" fill="currentColor"/>
  <path d="M92.3086 77.1387C92.1561 77.9582 91.0726 84.5876 95.2442 88.091C98.4503 90.7833 101.17 91.2699 104.002 96.4786C106.833 91.2693 109.553 90.7833 112.759 88.091C116.882 84.6282 115.872 78.1152 115.701 77.1737C112.098 78.6312 108.167 79.4413 104.049 79.4413C99.8967 79.4413 95.9349 78.6184 92.3086 77.1387Z" fill="currentColor"/>
  <path d="M143.836 39.4781C140.405 35.3901 133.98 36.346 132.949 36.5308C134.419 40.1489 135.236 44.0994 135.236 48.2392C135.236 52.379 134.42 56.3295 132.949 59.9476C133.98 60.1319 140.405 61.0883 143.836 57.0003C146.528 53.793 147.013 51.0718 152.221 48.2398C147.013 45.4072 146.528 42.6859 143.836 39.4792V39.4781Z" fill="currentColor"/>
  <path d="M75.1368 36.5471C74.4734 36.4201 67.7129 35.2466 64.1618 39.4788C61.4705 42.686 60.9846 45.4073 55.7773 48.2393C60.9846 51.0719 61.4705 53.7932 64.1618 56.9999C67.7129 61.2315 74.4729 60.0585 75.1368 59.9315C73.6709 56.3179 72.8562 52.373 72.8562 48.2393C72.8562 44.1057 73.6709 40.1607 75.1368 36.5471Z" fill="currentColor"/>
  <path d="M132.751 36.0365C133.624 35.4275 138.824 31.5622 138.361 26.2539C137.997 22.0823 136.418 19.8143 138.097 14.1279C132.413 15.8087 130.147 14.2281 125.976 13.864C120.627 13.3975 116.745 18.6864 116.184 19.4964C123.617 22.6496 129.583 28.6082 132.75 36.036L132.751 36.0365Z" fill="currentColor"/>
  <path d="M75.3205 60.3918C74.7251 60.7971 69.1599 64.7409 69.6385 70.2241C70.0025 74.3956 71.5819 76.6637 69.9023 82.35C75.5865 80.6693 77.8532 82.2498 82.0238 82.6139C87.4425 83.0865 91.3587 77.6485 91.839 76.9493C84.4223 73.781 78.4726 67.8196 75.3211 60.3924L75.3205 60.3918Z" fill="currentColor"/>
  <path d="M116.184 76.9813C116.745 77.7908 120.627 83.0802 125.976 82.6136C130.146 82.2496 132.413 80.6696 138.097 82.3498C136.418 76.6634 137.997 74.3959 138.361 70.2238C138.824 64.9155 133.624 61.0508 132.751 60.4412C129.583 67.8695 123.618 73.828 116.184 76.9807L116.184 76.9813Z" fill="currentColor"/>
  <path d="M91.8389 19.529C91.3592 18.8297 87.443 13.3911 82.0237 13.8643C77.8537 14.2284 75.5865 15.8084 69.9022 14.1282C71.5818 19.8146 70.0024 22.0821 69.6385 26.2541C69.1604 31.7373 74.725 35.6811 75.3205 36.0864C78.472 28.6592 84.4217 22.6978 91.8384 19.5295L91.8389 19.529Z" fill="currentColor"/>
  <path d="M104.045 23.345C90.3233 23.345 79.1602 34.5122 79.1602 48.2393C79.1602 61.9663 90.3233 73.1336 104.045 73.1336C117.767 73.1336 128.93 61.9663 128.93 48.2393C128.93 34.5122 117.767 23.345 104.045 23.345ZM104.001 62.5937C96.0765 62.5937 89.6521 56.167 89.6521 48.2393C89.6521 40.3116 96.0765 33.8848 104.001 33.8848C111.926 33.8848 118.35 40.3116 118.35 48.2393C118.35 56.167 111.926 62.5937 104.001 62.5937Z" fill="currentColor"/>
  <path d="M112.099 48.2392C112.099 40.3115 109.693 33.8848 104.089 33.8848C98.4845 33.8848 96.0781 40.3115 96.0781 48.2392C96.0781 56.1669 98.4845 62.5937 104.089 62.5937C109.693 62.5937 112.099 56.1669 112.099 48.2392Z" fill="currentColor"/>
  <path d="M104 139.095L0 72.8331L104 224.808L208 72.8331L104 139.095ZM104 184.872L85.7739 153.293C91.7124 154.228 95.1105 155.133 104 155.133C113.078 155.133 116.287 154.228 122.226 153.293L104 184.872Z" fill="currentColor"/>
</svg>
