<svg width="1438" height="1438" viewBox="0 0 1438 1438" fill="none" xmlns="http://www.w3.org/2000/svg">
<g opacity="0.25" clip-path="url(#clip0_4309_18179)">
<path d="M893.439 287.239C895.995 273.203 911.06 176.128 849.578 124.517C801.773 84.3854 761.222 77.1387 719 -0.5C676.779 77.1387 636.228 84.3854 588.423 124.517C526.223 176.731 542.38 275.545 544.653 287.758C598.728 265.705 657.8 253.447 719.702 253.447C781.108 253.447 839.73 265.522 893.439 287.239Z" fill="#DECFFB"/>
<path d="M544.66 1149.24C542.387 1161.46 526.231 1260.27 588.431 1312.48C636.236 1352.61 676.787 1359.86 719.008 1437.5C761.23 1359.86 801.78 1352.61 849.586 1312.48C911.068 1260.87 896.002 1163.8 893.447 1149.76C839.73 1171.48 781.124 1183.55 719.718 1183.55C657.808 1183.55 598.736 1171.29 544.668 1149.24H544.66Z" fill="#DECFFB"/>
<path d="M1312.98 587.922C1261.83 526.989 1166.02 541.246 1150.66 543.992C1172.57 597.915 1184.76 656.796 1184.76 718.5C1184.76 780.203 1172.57 839.084 1150.66 893.007C1166.03 895.753 1261.83 910.01 1312.98 849.077C1353.12 801.272 1360.36 760.721 1438 718.5C1360.36 676.278 1353.12 635.727 1312.98 587.922Z" fill="#DECFFB"/>
<path d="M288.654 544.228C278.761 542.337 177.963 524.845 125.017 587.922C84.8852 635.727 77.6387 676.278 0 718.5C77.6387 760.721 84.8852 801.272 125.017 849.077C177.963 912.154 278.761 894.663 288.654 892.771C266.8 838.909 254.648 780.112 254.648 718.5C254.648 656.888 266.8 598.09 288.654 544.228Z" fill="#DECFFB"/>
<path d="M1147.69 536.624C1160.7 527.547 1238.24 469.94 1231.34 390.821C1225.92 328.645 1202.36 294.844 1227.41 210.089C1142.66 235.139 1108.86 211.584 1046.68 206.153C966.927 199.196 909.038 278.032 900.67 290.1C1011.51 337.096 1100.46 425.91 1147.69 536.624Z" fill="#DECFFB"/>
<path d="M291.384 899.636C282.505 905.677 199.527 964.452 206.659 1046.18C212.082 1108.36 235.638 1142.16 210.587 1226.91C295.343 1201.86 329.143 1225.42 391.32 1230.85C472.116 1237.9 530.509 1156.84 537.664 1146.42C427.08 1099.19 338.373 1010.34 291.376 899.643L291.384 899.636Z" fill="#DECFFB"/>
<path d="M900.678 1146.9C909.046 1158.97 966.936 1237.8 1046.69 1230.85C1108.86 1225.42 1142.66 1201.87 1227.42 1226.91C1202.38 1142.16 1225.92 1108.36 1231.35 1046.18C1238.25 967.061 1160.7 909.453 1147.7 900.376C1100.47 1011.09 1011.51 1099.9 900.678 1146.9Z" fill="#DECFFB"/>
<path d="M537.664 290.589C530.509 280.169 472.116 199.113 391.32 206.161C329.143 211.585 295.343 235.14 210.587 210.097C235.63 294.853 212.082 328.653 206.659 390.829C199.527 472.557 282.505 531.331 291.384 537.373C338.373 426.674 427.088 337.814 537.672 290.596L537.664 290.589Z" fill="#DECFFB"/>
<path d="M719.71 315.027C497.23 315.027 316.23 496.026 316.23 718.499C316.23 940.972 497.23 1121.97 719.71 1121.97C942.191 1121.97 1123.18 940.972 1123.18 718.499C1123.18 496.026 942.184 315.027 719.71 315.027ZM719.001 978.228C575.563 978.228 459.272 861.945 459.272 718.499C459.272 575.053 575.555 458.77 719.001 458.77C862.447 458.77 978.73 575.053 978.73 718.499C978.73 861.945 862.447 978.228 719.001 978.228Z" fill="#DECFFB"/>
<path d="M720.41 978.228C821.843 978.228 904.071 861.943 904.071 718.499C904.071 575.055 821.843 458.771 720.41 458.771C618.976 458.771 536.748 575.055 536.748 718.499C536.748 861.943 618.976 978.228 720.41 978.228Z" fill="#DECFFB"/>
</g>
<defs>
<clipPath id="clip0_4309_18179">
<rect width="1438" height="1438" fill="white"/>
</clipPath>
</defs>
</svg>
