 <svg
      viewBox="0 0 18 20"
      xmlns="http://www.w3.org/2000/svg"
    >
      <path
        fill-rule="evenodd"
        clip-rule="evenodd"
        d="M12.3915 3.97978C13.1293 3.36863 13.9525 3.13611 14.7419 3.19489C15.5839 3.2576 16.3633 3.64948 16.9452 4.2187C17.5272 4.78797 17.927 5.54937 17.991 6.37111C18.0556 7.20034 17.7759 8.06887 17.0387 8.83107C16.9712 8.90127 16.9023 8.97053 16.8319 9.03893C16.4658 9.397 16.0865 9.716 15.7013 10.0001C16.0866 10.2843 16.4659 10.6033 16.8321 10.9615L16.8328 10.9622C16.902 11.0303 16.9702 11.0989 17.0373 11.1679L17.0379 11.1685C17.7755 11.93 18.0555 12.7983 17.9911 13.6275C17.9273 14.4491 17.5277 15.2106 16.9459 15.7801C16.3641 16.3495 15.5849 16.7417 14.7427 16.8047C13.9533 16.8637 13.13 16.6315 12.3918 16.0206C12.3125 16.9627 11.8989 17.696 11.2986 18.2001C10.6584 18.7378 9.82407 19 9.00013 19C8.17627 19 7.34193 18.7378 6.70173 18.2001C6.10134 17.6959 5.68777 16.9625 5.60847 16.0202C4.87073 16.6313 4.04755 16.8639 3.25815 16.8051C2.41604 16.7424 1.63676 16.3505 1.05481 15.7813C0.472811 15.212 0.073 14.4506 0.00899761 13.6289C-0.0555881 12.7997 0.224048 11.9311 0.961353 11.1689C1.02881 11.0987 1.09772 11.0295 1.16809 10.9611C1.5342 10.603 1.91347 10.284 2.29869 9.99987C1.91341 9.71567 1.53409 9.39667 1.16792 9.03847L1.16719 9.0378C1.09797 8.96967 1.0298 8.90113 0.962667 8.83213L0.962127 8.83153C0.224473 8.07 -0.0554403 7.20169 0.00893775 6.37247C0.072724 5.55088 0.472277 4.78938 1.05409 4.21992C1.63587 3.65049 2.41506 3.2583 3.2573 3.19533C4.04668 3.13631 4.86999 3.36855 5.60818 3.9794C5.68755 3.03724 6.10109 2.30397 6.7014 1.79986C7.3416 1.2622 8.17593 1 8.99987 1C9.82373 1 10.6581 1.2622 11.2983 1.79986C11.8987 2.30404 12.3123 3.03744 12.3915 3.97978ZM6.26667 9.2C5.97211 9.2 5.73333 9.4388 5.73333 9.73333V11C5.73333 11.2945 5.97211 11.5333 6.26667 11.5333C6.56122 11.5333 6.8 11.2945 6.8 11V9.73333C6.8 9.4388 6.56122 9.2 6.26667 9.2ZM11.7333 9.2C11.4388 9.2 11.2 9.4388 11.2 9.73333V11C11.2 11.2945 11.4388 11.5333 11.7333 11.5333C12.0279 11.5333 12.2667 11.2945 12.2667 11V9.73333C12.2667 9.4388 12.0279 9.2 11.7333 9.2ZM10.3335 10.6995C10.4357 10.9757 10.2947 11.2826 10.0185 11.3849C9.70053 11.5026 9.35713 11.5667 9 11.5667C8.64287 11.5667 8.29947 11.5026 7.98147 11.3849C7.70527 11.2826 7.56427 10.9757 7.66653 10.6995C7.7688 10.4233 8.07567 10.2823 8.35187 10.3845C8.55307 10.4591 8.77113 10.5 9 10.5C9.22887 10.5 9.44693 10.4591 9.64813 10.3845C9.92433 10.2823 10.2312 10.4233 10.3335 10.6995Z"
      ></path>
    </svg>