<svg width="24" height="25" viewBox="0 0 24 25" fill="none" xmlns="http://www.w3.org/2000/svg">
<path d="M0.522497 10.8098C0.338951 14.7376 1.27909 17.9445 3.32188 20.352C5.93553 23.4322 9.722 24.4199 11.3561 24.7137C11.4197 22.9482 11.2661 18.643 8.6453 15.2712C6.80488 12.9029 4.07508 11.4044 0.522497 10.8098Z" fill="#7958A5"/>
<path d="M15.6942 15.2719C13.0736 18.644 12.9198 22.949 12.9835 24.7145C14.6175 24.4205 18.404 23.433 21.0177 20.3528C23.0605 17.9453 24.0005 14.7382 23.817 10.8105C20.2646 11.4052 17.5348 12.9039 15.6942 15.2721V15.2719Z" fill="#7958A5"/>
<path d="M16.7318 12.0197C16.7344 11.9836 16.7366 11.9471 16.7386 11.9103V11.9097C16.752 11.6514 16.752 10.5422 16.7386 10.2841C16.6345 8.28474 15.3549 5.93551 13.8734 3.21503C13.3363 2.22891 12.7489 1.15023 12.1697 0C11.5909 1.15023 11.0039 2.22852 10.4671 3.21444C8.98584 5.93532 7.70638 8.28494 7.60093 10.2847C7.58745 10.5424 7.58745 11.6516 7.60093 11.9099C7.60291 11.9463 7.60508 11.9822 7.60746 12.0175C10.0828 13.893 11.4407 16.3374 12.1702 18.6636C12.8996 16.3384 14.2571 13.8958 16.732 12.0199L16.7318 12.0197Z" fill="#7958A5"/>
</svg>
