<svg width="161" height="56" viewBox="0 0 161 56" fill="none" xmlns="http://www.w3.org/2000/svg">
<path d="M157.246 8.15621H33.9297L21.2547 0.854118C20.2846 0.295171 19.1782 0 18.0548 0C16.9314 0 15.824 0.295571 14.8541 0.854518L3.20054 7.57007C1.2262 8.70776 0 10.8282 0 13.1031V42.8963C0 45.172 1.2268 47.2924 3.20155 48.4301L14.8627 55.1461C15.8322 55.7046 16.9382 56 18.0614 56C19.1846 56 20.2922 55.7044 21.2626 55.1457L33.9337 47.844H157.246C158.919 47.844 160.276 46.4901 160.276 44.8201V11.1799C160.276 9.50988 158.919 8.15621 157.246 8.15621Z" fill="white"/>
<path d="M54.069 11.2461H57.9695C60.6827 11.2461 62.1239 12.7269 62.1239 15.8585V21.9098C62.1239 25.0412 60.6827 26.5222 57.9695 26.5222H54.069V11.2461ZM56.6973 24.364H57.6089C59.0079 24.364 59.4954 23.8349 59.4954 22.2272V15.5411C59.4954 13.933 59.0081 13.4039 57.6089 13.4039H56.6973V24.364Z" fill="#36364C"/>
<path d="M64.6687 26.5222V11.2461H71.7061V13.5309H67.2969V17.4662H70.6884V19.7514H67.2969V24.2368H72.0028V26.522H64.6685L64.6687 26.5222Z" fill="#36364C"/>
<path d="M80.2912 11.2461H82.8774L79.6766 26.5222H77.0484L73.8476 11.2461H76.4338L78.3414 21.8461H78.3838L80.2914 11.2461H80.2912Z" fill="#36364C"/>
<path d="M90.488 16.345V15.1597C90.488 13.8692 89.8942 13.3192 89.216 13.3192C88.1564 13.3192 87.817 13.8692 87.817 15.0117V22.7559C87.817 23.8983 88.1564 24.4484 89.216 24.4484C90.1701 24.4484 90.488 23.8983 90.488 22.904V21.0631H93.1162V22.8192C93.1162 24.9775 91.8444 26.7336 89.2158 26.7336C86.4601 26.7336 85.1884 24.9775 85.1884 22.8192V14.9485C85.1884 12.7903 86.4601 11.0342 89.2158 11.0342C91.8444 11.0342 93.1162 12.9383 93.1162 15.2237V16.3452L90.488 16.345Z" fill="#36364C"/>
<path d="M95.7883 14.9485C95.7883 12.7903 97.0601 11.0342 99.8157 11.0342C102.571 11.0342 103.843 12.7903 103.843 14.9485V22.8192C103.843 24.9775 102.571 26.7336 99.8157 26.7336C97.0601 26.7336 95.7883 24.9775 95.7883 22.8192V14.9485ZM98.4166 22.7559C98.4166 23.8983 98.7559 24.4484 99.8155 24.4484C100.875 24.4484 101.214 23.8983 101.214 22.7559V15.0117C101.214 13.8692 100.875 13.3192 99.8155 13.3192C98.7557 13.3192 98.4166 13.8692 98.4166 15.0117V22.7559Z" fill="#36364C"/>
<path d="M106.812 26.5222V11.2461H109.25L112.451 19.9844H112.493V11.2461H114.867V26.5222H112.578L109.229 16.98H109.186V26.5222H106.812Z" fill="#36364C"/>
<path d="M118.259 26.5222V11.2461H120.697L123.898 19.9844H123.94V11.2461H126.314V26.5222H124.025L120.676 16.98H120.634V26.5222H118.26H118.259Z" fill="#36364C"/>
<path d="M129.707 26.5222V11.2461H136.744V13.5309H132.336V17.4662H135.727V19.7514H132.336V24.2368H137.041V26.522H129.707L129.707 26.5222Z" fill="#36364C"/>
<path d="M144.842 16.345V15.1597C144.842 13.8692 144.249 13.3192 143.57 13.3192C142.511 13.3192 142.172 13.8692 142.172 15.0117V22.7559C142.172 23.8983 142.511 24.4484 143.57 24.4484C144.524 24.4484 144.842 23.8983 144.842 22.904V21.0631H147.471V22.8192C147.471 24.9775 146.199 26.7336 143.57 26.7336C140.815 26.7336 139.543 24.9775 139.543 22.8192V14.9485C139.543 12.7903 140.815 11.0342 143.57 11.0342C146.199 11.0342 147.471 12.9383 147.471 15.2237V16.3452L144.842 16.345Z" fill="#36364C"/>
<path d="M152.093 13.5309H149.549V11.2461H157.265V13.5309H154.721V26.5222H152.093V13.5309Z" fill="#36364C"/>
<path d="M80.5563 29.5166H54.069V44.7927H80.5563V29.5166Z" fill="#74ACDF"/>
<path d="M59.5145 41.8505H57.9435L59.6845 32.416H61.7005L63.4413 41.8505H61.8705L61.5825 39.7597H59.8021L59.5141 41.8505H59.5145ZM60.0381 38.3484H61.3471L60.7057 34.2975H60.6795L60.0381 38.3484Z" fill="white"/>
<path d="M66.7921 41.8505H65.1688V32.416H67.4467C69.2663 32.416 70.1957 33.187 70.1957 35.1993C70.1957 36.7151 69.6068 37.3291 69.0568 37.5774L70.4313 41.8505H68.7819L67.63 37.9433C67.4204 37.9693 67.0801 37.9825 66.7921 37.9825V41.8505ZM66.7921 36.6497H67.368C68.2451 36.6497 68.5724 36.323 68.5724 35.1993C68.5724 34.0756 68.2451 33.7489 67.368 33.7489H66.7921V36.6497Z" fill="white"/>
<path d="M74.214 37.0677H76.8715V41.8502H76.0861L75.785 41.1446C75.3005 41.7196 74.9079 41.981 74.1485 41.981C72.8657 41.981 71.9754 41.0662 71.9754 39.5636V34.7025C71.9754 33.3697 72.761 32.2852 74.358 32.2852C75.9814 32.2852 76.793 33.4612 76.793 34.8725V35.4735H75.2482C75.2482 34.0623 74.9602 33.6964 74.3186 33.6964C73.926 33.6964 73.5987 33.9315 73.5987 34.7287V39.5766C73.5987 40.1777 73.7948 40.5697 74.3578 40.5697C75.0124 40.5697 75.248 40.2038 75.248 39.2631V38.3483H74.2138V37.0677H74.214Z" fill="white"/>
<path d="M45.6352 18.3837L19.7794 3.48668C18.7324 2.88335 17.4314 2.88335 16.3845 3.48668L4.73212 10.2024C3.68496 10.8059 3.03447 11.9306 3.03447 13.1376V42.9305C3.03447 44.1377 3.68536 45.2626 4.73272 45.8661L16.3923 52.582C16.9158 52.8836 17.5024 53.0344 18.0894 53.0342C18.6763 53.0342 19.2635 52.8832 19.787 52.5816L45.6354 37.6848C46.6828 37.0813 47.3333 35.9566 47.3333 34.7495V21.3192C47.3333 20.1121 46.6826 18.9872 45.6354 18.3837H45.6352Z" fill="#37364C"/>
<path d="M29.5611 45.4548C30.4392 44.9489 30.4392 43.6838 29.5611 43.1779L25.0065 40.553L20.4518 37.9281C19.5738 37.4221 18.4763 38.0546 18.4763 39.0665V49.5662C18.4763 50.5783 19.5738 51.2106 20.4518 50.7047L29.5611 45.4548Z" fill="#FF85A6"/>
<path d="M16.6675 4.66587L6.19927 10.6988C5.51312 11.0944 5.51312 12.0831 6.19927 12.4786L15.9352 18.0896C17.2711 18.8595 18.9168 18.8595 20.2527 18.0896L29.9848 12.4808C30.671 12.0853 30.671 11.0966 29.9848 10.701L19.5126 4.66567C18.6323 4.15832 17.5479 4.15832 16.6677 4.66567L16.6675 4.66587Z" fill="#F6B40E"/>
<path d="M4.28052 27.9497V43.301C4.28052 43.7974 4.54576 44.2559 4.97629 44.5041L16.0553 50.889C16.7913 51.3132 17.7115 50.783 17.7115 49.9345V22.3043C17.7115 20.8726 16.9464 19.5498 15.7043 18.834L5.91486 13.1922C5.18844 12.7737 4.28052 13.2968 4.28052 14.1341V27.9497Z" fill="#74ACDF"/>
<path d="M46.111 33.2105V20.7468C46.111 20.2786 45.8608 19.8461 45.4547 19.6119L34.3296 13.2004C33.5966 12.778 32.6805 13.306 32.6805 14.1509V26.9833C32.6805 27.4515 32.9307 27.884 33.3368 28.1182L44.1421 34.3455C45.0172 34.8499 46.1112 34.2194 46.1112 33.2107L46.111 33.2105Z" fill="white"/>
<path d="M20.421 34.3594L31.1466 28.1781C31.627 27.9011 31.9231 27.3894 31.9231 26.8356V14.4418C31.9231 13.4635 30.8621 12.8519 30.0133 13.3411L20.8561 18.6185C19.3834 19.4672 18.4763 21.0357 18.4763 22.7331V33.2386C18.4763 34.2347 19.5567 34.8576 20.421 34.3594Z" fill="white"/>
<path d="M20.237 36.9317L31.5979 43.4792C32.0284 43.7274 32.5591 43.7274 32.9896 43.4792L44.4539 36.8721C45.0222 36.5446 45.0222 35.7259 44.4539 35.3985L32.9898 28.7916C32.5593 28.5434 32.0286 28.5434 31.5981 28.7916L20.237 35.3391C19.6228 35.6931 19.6228 36.5778 20.237 36.9317Z" fill="white"/>
<path d="M37.1679 30.5912L32.3282 22.2031L27.4884 30.5912L32.3282 33.6705L37.1679 30.5912ZM32.6825 27.7775V24.2205L35.7495 29.5295L32.6825 27.7775ZM36.0332 30.485L32.6825 32.6086V28.5914L36.0332 30.485ZM31.9734 27.7775L28.924 29.5117L31.9734 24.2205V27.7775ZM31.9734 28.5914V32.6086L28.6227 30.485L31.9734 28.5914Z" fill="#37364C"/>
<path d="M32.3279 34.6613L27.4882 31.582L32.3279 38.6429L37.1677 31.582L32.3279 34.6613ZM31.9557 35.263L31.9733 35.2806V36.8911L30.0233 34.0242L31.9557 35.263ZM34.6504 34.0242L32.6825 36.8911V35.2806L32.7002 35.263L34.6502 34.0244L34.6504 34.0242Z" fill="#37364C"/>
</svg>
