<svg width="131" height="226" viewBox="0 0 131 226" fill="none" xmlns="http://www.w3.org/2000/svg">
<g filter="url(#filter0_d_11292_13760)">
<path d="M131 126.694L110.606 139.631C110.139 137.167 108.927 133.419 105.83 129.236L131 113.268L65.5 0L0 113.268L25.1702 129.236C22.0724 133.419 20.8605 137.168 20.3935 139.631L0 126.694L65.5 222M102.115 123.483C92.2628 130.419 80.6754 134.111 67.646 134.476C68.2974 133.047 69.4466 130.913 71.3376 128.482C77.0837 121.101 85.16 116.675 90.9233 114.262C98.2041 111.212 105.129 110.271 110.902 110.271C115.757 110.271 119.798 110.937 122.557 111.574C118.436 113.382 111.378 116.964 102.115 123.483ZM65.5 168.248L29.3484 145.313C33.887 145.266 39.9823 144.658 45.8558 142.36L51.2381 145.775C53.6681 150.535 57.971 155.067 64.1085 159.313L65.5002 160.276L66.892 159.313C73.0293 155.067 77.3321 150.535 79.7621 145.775L85.1442 142.36C91.0179 144.658 97.113 145.267 101.652 145.313L65.5 168.248ZM82.1345 166.806C80.8267 171.411 77.2594 175.776 73.2408 180.691C70.7569 183.729 67.99 187.114 65.5134 190.901C63.0393 187.114 60.2699 183.729 57.786 180.691C53.7406 175.74 50.1489 171.348 48.8655 166.703L65.5817 177.308L82.1345 166.806ZM82.7298 97.1563C79.7262 86.4356 74.3217 76.1354 66.648 66.5035L65.5012 65.0647L64.3544 66.5035C56.6783 76.1354 51.2762 86.4356 48.2702 97.1563C45.3471 94.563 42.1019 92.2565 38.5859 90.2709C43.7757 77.9995 53.4673 62.6537 62.849 47.7964C63.7371 46.3892 64.6228 44.9868 65.5012 43.5942C66.3796 44.9868 67.2653 46.3892 68.1535 47.7988C77.5351 62.6537 87.2267 77.9995 92.4141 90.2709C88.9005 92.2565 85.6554 94.563 82.7298 97.1563ZM93.4974 93.0148C95.7105 98.6656 96.6669 104.134 96.3497 109.301C94.1245 109.916 91.9212 110.679 89.7887 111.571C85.1015 113.535 80.8901 115.922 77.2326 118.688C76.9569 115.747 76.4347 112.804 75.671 109.902C80.0727 102.953 86.0628 97.2778 93.4974 93.0148ZM55.3314 109.902C54.5677 112.804 54.0431 115.747 53.7674 118.688C50.1123 115.922 45.9009 113.535 41.2113 111.571C39.0788 110.679 36.8779 109.919 34.6527 109.301C34.333 104.134 35.2895 98.6656 37.5026 93.0148C44.9372 97.2778 50.9273 102.953 55.3314 109.902ZM50.6882 99.4385C53.3526 89.0994 58.3301 79.1346 65.5012 69.7846C72.6723 79.1346 77.6498 89.0994 80.3118 99.4385C78.2086 101.553 76.2883 103.84 74.5803 106.268C72.7723 100.902 70.1298 95.7199 66.7017 90.8226L65.5012 89.1042L64.2983 90.8226C60.8726 95.7199 58.2301 100.902 56.4197 106.268C54.7117 103.842 52.7939 101.553 50.6882 99.4385ZM65.5012 94.2689C72.194 104.574 74.1045 114.279 74.4632 120.945C69.6126 125.218 66.9213 129.377 65.4988 132.169C64.0787 129.377 61.385 125.216 56.5368 120.945C56.8954 114.279 58.8059 104.574 65.5012 94.2689ZM65.4976 137.392C65.5683 137.392 65.7098 137.395 65.9148 137.395C67.2885 137.395 72.1245 137.332 77.2411 136.517C77.2216 140.775 75.1208 147.233 65.5 154.325C55.8768 147.231 53.7759 140.771 53.754 136.517C58.873 137.332 63.7115 137.395 65.0828 137.395C65.2877 137.395 65.4292 137.392 65.4976 137.392ZM99.8767 93.5106C102.239 88.7445 103.01 84.4548 103.183 81.3268C111.959 96.4345 115.087 102.18 115.617 107.554C114.151 107.43 112.572 107.354 110.9 107.354C106.965 107.354 103.093 107.765 99.3155 108.577C99.4497 104.756 98.952 100.797 97.8296 96.7504L99.8133 93.62L99.8767 93.5106ZM81.7453 63.8398C84.6855 58.5219 85.5931 53.6951 85.781 50.2633C85.8591 50.3994 85.9396 50.5355 86.0177 50.6716C100.301 75.1535 100.575 75.6201 98.1761 88.7518C97.9784 89.8407 97.6783 90.9514 97.2879 92.0548L96.7877 93.4669C96.6096 92.9638 96.4217 92.4607 96.2241 91.9551L96.0679 91.5566L96.1216 91.5274L95.2432 89.4494L95.2408 89.4421L94.987 88.7956L94.9699 88.8053C91.776 81.3292 87.0034 72.8081 81.6697 63.9783L81.7453 63.8398ZM63.6627 18.2009C64.2532 17.1898 64.8656 16.1399 65.5 15.051C66.1344 16.1399 66.7468 17.1874 67.3373 18.2009C82.631 44.4156 82.9238 44.9163 80.3545 58.991C80.2228 59.7031 80.0813 60.4128 79.9275 61.1152C76.9093 56.1863 73.752 51.1893 70.6313 46.2458C70.0627 45.3416 69.4942 44.44 68.9257 43.5407L67.9814 42.0435L65.5 38.1111L63.021 42.0435C62.4354 42.972 61.8474 43.9053 61.2569 44.841L60.3712 46.2433L60.3565 46.2677C57.2407 51.2039 54.0858 56.196 51.0725 61.1177C50.9187 60.4153 50.7748 59.7056 50.6455 58.991C48.0762 44.9163 48.3665 44.4156 63.6627 18.2009ZM44.9823 50.6716C45.0604 50.5355 45.1409 50.3994 45.219 50.2633C45.4069 53.6951 46.3145 58.5219 49.2547 63.8398L49.3328 63.9783C43.999 72.8057 39.224 81.3292 36.03 88.8053L36.013 88.7956L35.7519 89.4591L35.7421 89.4834L34.8759 91.5298L34.9296 91.559L34.7735 91.9551C34.5758 92.4583 34.3879 92.9614 34.2098 93.462L33.7121 92.0548C33.3217 90.9514 33.0216 89.8382 32.8239 88.7518C30.4254 75.6201 30.6987 75.1535 44.9823 50.6716ZM27.8171 81.3268C27.9903 84.4548 28.7614 88.7445 31.1233 93.5106L31.1526 93.5665L33.1704 96.7528C32.048 100.8 31.5503 104.759 31.6869 108.579C27.9074 107.765 24.0327 107.354 20.0946 107.354C18.4257 107.354 16.847 107.43 15.383 107.554C15.9101 102.182 19.0405 96.4369 27.8171 81.3268ZM8.44254 111.574C14.4839 110.176 26.6764 108.65 40.0767 114.262C50.5198 118.634 56.4904 124.406 59.6624 128.482C61.5558 130.913 62.7026 133.047 63.354 134.476C50.327 134.111 38.7396 130.419 28.887 123.483C19.6225 116.964 12.5661 113.382 8.44254 111.574ZM25.2307 140.321C25.4479 139.256 25.8603 137.84 26.6337 136.199C27.9489 133.411 29.8374 130.966 31.9089 128.874C37.1134 131.878 42.7253 134.097 48.7081 135.521C40.4928 140.659 29.8545 140.627 25.2307 140.321ZM49.528 184.475L28.9151 154.486L45.5093 164.735C45.968 169.251 48.2933 173.241 51.3921 177.363C50.1941 179.454 49.3084 181.921 49.528 184.475ZM77.124 190.677C74.745 194.095 71.8415 198.355 69.5284 201.76C67.2177 205.165 65.5 207.717 65.5 207.717C65.5 207.717 58.6315 197.512 53.876 190.677C51.6678 187.503 52.9073 183.303 54.0492 180.747C54.5275 181.337 55.013 181.93 55.5059 182.533C58.4973 186.191 61.5887 189.975 64.2458 194.398L65.5024 196.493L66.759 194.398C69.4161 189.975 72.51 186.191 75.5014 182.531C75.9919 181.93 76.4774 181.337 76.9508 180.751C78.0927 183.308 79.3322 187.506 77.124 190.677ZM81.4745 184.475C81.6916 181.923 80.8084 179.456 79.6103 177.368C82.714 173.241 85.0393 169.251 85.4955 164.732V164.73L102.085 154.486L81.4745 184.475ZM82.2894 135.521C88.2722 134.097 93.8842 131.878 99.0935 128.874C101.163 130.966 103.049 133.411 104.364 136.199C105.14 137.84 105.55 139.259 105.769 140.321C101.141 140.627 90.5024 140.656 82.2894 135.521Z" fill="white"/>
</g>
<defs>
<filter id="filter0_d_11292_13760" x="-4" y="-4" width="139" height="230" filterUnits="userSpaceOnUse" color-interpolation-filters="sRGB">
<feFlood flood-opacity="0" result="BackgroundImageFix"/>
<feColorMatrix in="SourceAlpha" type="matrix" values="0 0 0 0 0 0 0 0 0 0 0 0 0 0 0 0 0 0 127 0" result="hardAlpha"/>
<feOffset/>
<feGaussianBlur stdDeviation="2"/>
<feComposite in2="hardAlpha" operator="out"/>
<feColorMatrix type="matrix" values="0 0 0 0 0.294118 0 0 0 0 0 0 0 0 0 0.52549 0 0 0 0.25 0"/>
<feBlend mode="normal" in2="BackgroundImageFix" result="effect1_dropShadow_11292_13760"/>
<feBlend mode="normal" in="SourceGraphic" in2="effect1_dropShadow_11292_13760" result="shape"/>
</filter>
</defs>
</svg>
