<svg preserveAspectRatio="none" width="100%" height="100%" overflow="visible" style="display: block;" viewBox="0 0 120 120" fill="none" xmlns="http://www.w3.org/2000/svg">
<g id="lottie-placeholder">
<g id="Vector">
<path d="M74.5568 24.0115C74.7701 22.8403 76.0273 14.7395 70.8966 10.4325C66.9073 7.0836 63.5234 6.47886 60.0001 0C56.4767 6.47886 53.0928 7.0836 49.1035 10.4325C43.913 14.7897 45.2612 23.0357 45.4509 24.0548C49.9635 22.2145 54.893 21.1916 60.0586 21.1916C65.1829 21.1916 70.0748 22.1992 74.5568 24.0115Z" fill="url(#paint0_linear_0_45)"/>
<path d="M45.4509 95.9452C45.2612 96.965 43.913 105.21 49.1035 109.567C53.0928 112.916 56.4767 113.521 60.0001 120C63.5234 113.521 66.9073 112.916 70.8966 109.567C76.0273 105.261 74.7701 97.1597 74.5568 95.9885C70.0742 97.8008 65.1835 98.8084 60.0593 98.8084C54.893 98.8084 49.9628 97.7855 45.4509 95.9452Z" fill="url(#paint1_linear_0_45)"/>
<path d="M109.567 49.1036C105.299 44.0188 97.3035 45.2085 96.0215 45.4377C97.8503 49.9375 98.867 54.8511 98.867 60.0002C98.867 65.1493 97.8503 70.0629 96.0215 74.5627C97.3042 74.7918 105.299 75.9815 109.567 70.8967C112.916 66.9074 113.521 63.5235 120 60.0002C113.521 56.4769 112.916 53.0929 109.567 49.1036Z" fill="url(#paint2_linear_0_45)"/>
<path d="M24.0879 45.4573C23.2623 45.2995 14.8508 43.8398 10.4325 49.1035C7.08358 53.0928 6.47887 56.4767 0 60.0001C6.47887 63.5234 7.08358 66.9073 10.4325 70.8966C14.8508 76.1603 23.2623 74.7007 24.0879 74.5428C22.2642 70.0481 21.2502 65.1415 21.2502 60.0001C21.2502 54.8586 22.2642 49.952 24.0879 45.4573Z" fill="url(#paint3_linear_0_45)"/>
<path d="M95.7735 44.8225C96.8595 44.065 103.33 39.2578 102.754 32.6554C102.301 27.4669 100.336 24.6463 102.426 17.5735C95.3534 19.664 92.5328 17.6983 87.3442 17.245C80.689 16.6645 75.8582 23.2433 75.1599 24.2503C84.4091 28.1722 91.832 35.5836 95.7735 44.8225Z" fill="url(#paint4_linear_0_45)"/>
<path d="M24.3157 75.1154C23.5748 75.6196 16.6503 80.5242 17.2455 87.3443C17.6981 92.5328 19.6638 95.3534 17.5734 102.426C24.6461 100.336 27.4667 102.301 32.6553 102.755C39.3977 103.343 44.2705 96.5788 44.8676 95.7093C35.6395 91.7684 28.2369 84.3537 24.3151 75.1161L24.3157 75.1154Z" fill="url(#paint5_linear_0_45)"/>
<path d="M75.1604 95.7497C75.8587 96.7567 80.6895 103.335 87.3447 102.755C92.5333 102.302 95.3539 100.337 102.427 102.427C100.337 95.3537 102.302 92.5331 102.754 87.3446C103.331 80.7422 96.8593 75.935 95.774 75.1775C91.833 84.4164 84.4095 91.8278 75.1604 95.7497Z" fill="url(#paint6_linear_0_45)"/>
<path d="M44.8676 24.2911C44.2705 23.4216 39.3977 16.6575 32.6553 17.2457C27.4667 17.6983 24.6461 19.664 17.5734 17.5742C19.6632 24.6469 17.6981 27.4675 17.2455 32.6561C16.6503 39.4761 23.5748 44.3808 24.3157 44.8849C28.2369 35.6472 35.6401 28.232 44.8683 24.2917L44.8676 24.2911Z" fill="url(#paint7_linear_0_45)"/>
</g>
<path id="Vector_2" d="M60.0587 26.3311C41.4929 26.3311 26.3887 41.4353 26.3887 60.0004C26.3887 78.5655 41.4929 93.6697 60.0587 93.6697C78.6245 93.6697 93.7281 78.5655 93.7281 60.0004C93.7281 41.4353 78.6239 26.3311 60.0587 26.3311Z" fill="url(#paint8_linear_0_45)"/>
<g id="eth-glyph">
<path id="Vector 6" d="M74.1663 60.208L60.2678 69.1631L46.179 60.2051L60.218 35.998L74.1663 60.208Z" stroke="var(--stroke-0, white)" stroke-width="2"/>
<path id="Vector 7" d="M59.6845 74.3132L60.2226 74.655L60.7588 74.3132L71.8838 67.2185L60.2197 84.324L48.5117 67.2127L59.6845 74.3132Z" stroke="var(--stroke-0, white)" stroke-width="2"/>
<path id="Vector 10" d="M60.2246 73.4693C60.2246 77.8952 60.2246 79.5741 60.2246 84" stroke="var(--stroke-0, white)" stroke-width="2"/>
<path id="Vector 8" d="M60.2794 35.7178L60.2794 69.7098" stroke="var(--stroke-0, white)" stroke-width="2"/>
<path id="Vector 9" d="M46.5001 60L60.2831 52.3535L74.0001 60.3284" stroke="var(--stroke-0, white)" stroke-width="2"/>
</g>
</g>
<defs>
<linearGradient id="paint0_linear_0_45" x1="60" y1="120" x2="60" y2="-4.35486e-07" gradientUnits="userSpaceOnUse">
<stop stop-color="#AABBFF"/>
<stop offset="1" stop-color="#660077"/>
</linearGradient>
<linearGradient id="paint1_linear_0_45" x1="60" y1="120" x2="60" y2="-4.35486e-07" gradientUnits="userSpaceOnUse">
<stop stop-color="#AABBFF"/>
<stop offset="1" stop-color="#660077"/>
</linearGradient>
<linearGradient id="paint2_linear_0_45" x1="60" y1="120" x2="60" y2="-4.35486e-07" gradientUnits="userSpaceOnUse">
<stop stop-color="#AABBFF"/>
<stop offset="1" stop-color="#660077"/>
</linearGradient>
<linearGradient id="paint3_linear_0_45" x1="60" y1="120" x2="60" y2="-4.35486e-07" gradientUnits="userSpaceOnUse">
<stop stop-color="#AABBFF"/>
<stop offset="1" stop-color="#660077"/>
</linearGradient>
<linearGradient id="paint4_linear_0_45" x1="60" y1="120" x2="60" y2="-4.35486e-07" gradientUnits="userSpaceOnUse">
<stop stop-color="#AABBFF"/>
<stop offset="1" stop-color="#660077"/>
</linearGradient>
<linearGradient id="paint5_linear_0_45" x1="60" y1="120" x2="60" y2="-4.35486e-07" gradientUnits="userSpaceOnUse">
<stop stop-color="#AABBFF"/>
<stop offset="1" stop-color="#660077"/>
</linearGradient>
<linearGradient id="paint6_linear_0_45" x1="60" y1="120" x2="60" y2="-4.35486e-07" gradientUnits="userSpaceOnUse">
<stop stop-color="#AABBFF"/>
<stop offset="1" stop-color="#660077"/>
</linearGradient>
<linearGradient id="paint7_linear_0_45" x1="60" y1="120" x2="60" y2="-4.35486e-07" gradientUnits="userSpaceOnUse">
<stop stop-color="#AABBFF"/>
<stop offset="1" stop-color="#660077"/>
</linearGradient>
<linearGradient id="paint8_linear_0_45" x1="60.0584" y1="93.6697" x2="60.0584" y2="26.3311" gradientUnits="userSpaceOnUse">
<stop stop-color="#AABBFF"/>
<stop offset="1" stop-color="#660077"/>
</linearGradient>
</defs>
</svg>
