<svg preserveAspectRatio="none" width="100%" height="100%" overflow="visible" style="display: block;" viewBox="0 0 1160 154" fill="none" xmlns="http://www.w3.org/2000/svg">
<g id="Devcon-India-Overlay-Text" style="mix-blend-mode:overlay">
<path d="M0 151.556V14.6667H57.6389C97.8635 14.6667 130.239 45.2222 130.239 83.1111C130.239 121 97.8635 151.556 57.6389 151.556H0ZM37.0361 149.111H57.6389C85.1094 149.111 90.9959 116.6 90.9959 83.1111C90.9959 51.8222 84.1283 17.1111 57.6389 17.1111H37.0361V149.111Z" fill="var(--fill-0, #221144)"/>
<path d="M190.249 154C160.326 154 135.799 130.533 135.799 101.444C135.799 72.6 160.326 49.1333 190.249 49.1333C216.494 49.1333 234.889 63.8 234.889 89.4667H171.118C172.345 120.511 185.835 137.867 204.475 137.867C218.21 137.867 229.984 127.111 235.134 111.711L237.832 112.2C232.682 135.911 216.494 154 190.249 154ZM171.118 87.0222H202.023C202.023 67.2222 198.343 51.8222 188.778 51.8222C179.212 51.8222 171.364 67.2222 171.118 87.0222Z" fill="var(--fill-0, #221144)"/>
<path d="M285.113 154L233.361 51.8222H270.642L300.32 113.422L328.526 51.8222H331.224L285.113 154Z" fill="var(--fill-0, #221144)"/>
<path d="M383.811 154C353.888 154 329.361 130.533 329.361 101.444C329.361 73.0889 353.152 49.8667 382.339 49.1333C405.395 49.1333 423.79 60.8667 423.79 75.7778C423.79 84.3333 418.885 92.8889 407.602 92.8889C398.773 92.8889 391.66 85.8 391.66 80.6667C391.66 80.6667 399.508 78.7111 399.508 67.2222C399.508 57.6889 393.622 51.8222 384.056 51.8222C370.321 51.8222 364.68 66.4889 364.68 87.0222C364.68 120.511 378.66 137.867 398.037 137.867C411.772 137.867 423.545 127.111 428.696 111.711L431.394 112.2C426.243 135.911 410.055 154 383.811 154Z" fill="var(--fill-0, #221144)"/>
<path d="M491.005 154C461.082 154 436.8 130.778 436.8 101.689C436.8 72.8444 461.082 49.6222 491.005 49.6222C520.928 49.6222 545.21 72.8444 545.21 101.689C545.21 130.778 520.928 154 491.005 154ZM491.005 151.556C504.74 151.556 509.401 130.044 509.401 101.689C509.401 73.3333 503.759 51.8222 491.005 51.8222C477.515 51.8222 472.61 73.3333 472.61 101.689C472.61 130.044 477.515 151.556 491.005 151.556Z" fill="var(--fill-0, #221144)"/>
<path d="M556.839 151.556V51.8222H592.648V70.4C600.006 60.8667 613.742 47.9111 630.175 47.9111C647.099 47.9111 658.381 58.4222 658.381 69.4222V151.556H622.572V68.6889C622.572 55.2444 613.496 53.7778 604.421 61.6C602.459 63.3111 595.592 70.4 592.648 74.5556V151.556H556.839Z" fill="var(--fill-0, #221144)"/>
<path d="M719.023 151.556V14.6667H751.644V151.556H719.023Z" fill="var(--fill-0, #221144)"/>
<path d="M769.456 151.556V51.8222H805.265V70.4C812.623 60.8667 826.359 47.9111 842.792 47.9111C859.716 47.9111 870.998 58.4222 870.998 69.4222V151.556H835.188V68.6889C835.188 55.2444 826.113 53.7778 817.038 61.6C815.076 63.3111 808.209 70.4 805.265 74.5556V151.556H769.456Z" fill="var(--fill-0, #221144)"/>
<path d="M923.951 154C901.141 154 882.5 132 882.5 102.911C882.5 73.5778 901.141 49.8667 923.951 49.8667C933.762 49.8667 942.592 54.2667 949.704 61.6V0H985.514V151.556H949.704V143.978C942.592 151.311 933.762 154 923.951 154ZM935.479 149.111C941.365 149.111 946.271 144.467 949.704 136.889V68.6889C946.271 61.1111 941.365 56.4667 935.479 56.4667C922.97 56.4667 918.555 76.5111 918.555 102.911C918.555 129.067 923.706 149.111 935.479 149.111Z" fill="var(--fill-0, #221144)"/>
<path d="M1022.39 38.3778C1011.84 38.3778 1003.26 29.8222 1003.26 19.0667C1003.26 8.55555 1011.84 0 1022.39 0C1033.18 0 1041.76 8.55555 1041.76 19.0667C1041.76 29.8222 1033.18 38.3778 1022.39 38.3778ZM1004.48 151.556V51.8222L1040.29 52.0667V151.556H1004.48Z" fill="var(--fill-0, #221144)"/>
<path d="M1082.74 154C1065.82 154 1053.31 143.733 1053.31 130.533C1053.31 105.356 1080.78 103.644 1114.87 87.5111V69.9111C1114.87 58.4222 1107.76 52.3111 1098.68 52.3111C1089.85 52.3111 1082 56.2222 1082 67.7111C1082 79.2 1089.85 81.1556 1089.85 81.1556C1089.85 85.8 1083.97 92.6444 1076.12 93.3778C1063.36 94.6 1057.72 85.3111 1057.72 76.2667C1057.72 61.3556 1076.12 49.6222 1098.93 49.6222C1114.62 49.6222 1127.62 53.7778 1137.19 61.6C1145.53 68.4444 1150.68 77.9778 1150.68 90.2V130.778C1150.68 135.178 1151.42 139.089 1154.6 139.089C1156.32 139.089 1157.55 137.867 1158.04 130.778L1160 131.022C1160 143.733 1149.7 154 1136.94 154C1125.42 154 1116.34 145.689 1115.12 134.689C1109.47 143.978 1095.98 154 1082.74 154ZM1099.17 140.067C1105.79 140.067 1110.7 137.378 1114.87 132.244V89.7111C1097.95 99.4889 1087.4 108.044 1087.4 125.4C1087.4 132.978 1092.3 140.067 1099.17 140.067Z" fill="var(--fill-0, #221144)"/>
</g>
</svg>
