<svg preserveAspectRatio="none" width="100%" height="100%" overflow="visible" style="display: block;" viewBox="0 0 46.3155 80" fill="none" xmlns="http://www.w3.org/2000/svg">
<g id="Group">
<path id="Vector" d="M46.3155 40.8172L23.1518 0L0 40.8172L23.1637 55.7918L46.3155 40.8172ZM24.8342 27.1467V9.81032L39.4633 35.5885L24.8342 27.1467ZM40.8337 40.3103L24.8342 50.6594V31.0784L40.8337 40.3103ZM21.4686 27.1467L6.85478 35.5798L21.4686 9.81463V27.1467V27.1467ZM21.4686 31.0784V50.6448L5.4767 40.306L21.4686 31.0784Z" fill="var(--fill-0, #F9F8FA)"/>
<path id="Vector_2" d="M23.1501 60.6298L0.0117991 45.6553L23.1509 80L46.3146 45.6553L23.1501 60.6298ZM21.3423 63.5123L21.4677 63.5941V71.4497L12.0839 57.521L21.3423 63.5123ZM34.2365 57.5149L24.8333 71.4566V63.5932L24.9578 63.5123L34.2365 57.5149Z" fill="var(--fill-0, #F9F8FA)"/>
</g>
</svg>
