<svg preserveAspectRatio="none" width="100%" height="100%" overflow="visible" style="display: block;" viewBox="0 0 481.274 284.194" fill="none" xmlns="http://www.w3.org/2000/svg">
<g id="Frame-Lower-left">
<path id="Union" d="M417.387 0.000976562H449.627C456.431 0.000976562 462.732 2.15208 467.893 5.80664L476.994 3.3584C477.018 3.35209 477.042 3.34869 477.066 3.34473C477.077 3.34286 477.088 3.34023 477.099 3.33887C477.122 3.33604 477.145 3.33561 477.168 3.33496C477.189 3.33435 477.21 3.33383 477.231 3.33496C477.247 3.33589 477.264 3.3378 477.28 3.33984C477.302 3.3425 477.324 3.34501 477.346 3.34961C477.368 3.35444 477.39 3.36131 477.412 3.36816C477.429 3.37326 477.445 3.3785 477.461 3.38477C477.482 3.39281 477.502 3.40226 477.522 3.41211C477.536 3.41927 477.551 3.42543 477.566 3.43359C477.569 3.43581 477.573 3.43913 477.576 3.44141C477.598 3.45432 477.618 3.46932 477.638 3.48438C477.649 3.49265 477.661 3.49998 477.671 3.50879C477.691 3.52576 477.709 3.54526 477.728 3.56445C477.739 3.57577 477.751 3.58574 477.761 3.59766C477.772 3.61111 477.782 3.62626 477.792 3.64062C477.807 3.6603 477.822 3.6793 477.834 3.7002C477.836 3.70283 477.838 3.70535 477.839 3.70801C477.846 3.7196 477.851 3.73232 477.857 3.74414C477.867 3.76525 477.877 3.78658 477.886 3.80859C477.894 3.8279 477.9 3.8475 477.905 3.86719C477.911 3.88634 477.918 3.90521 477.922 3.9248C477.927 3.94775 477.929 3.97097 477.932 3.99414C477.934 4.01007 477.936 4.0259 477.937 4.04199C477.938 4.06584 477.938 4.08949 477.937 4.11328C477.936 4.13117 477.936 4.14905 477.934 4.16699C477.931 4.18907 477.926 4.21064 477.922 4.23242C477.919 4.24755 477.918 4.26326 477.914 4.27832L475.466 13.3779C479.121 18.5376 481.273 24.8388 481.274 31.6416V274.636C481.274 274.664 481.272 274.692 481.269 274.719C481.282 274.869 481.251 275.023 481.173 275.158L476.172 283.819C476.038 284.051 475.79 284.194 475.523 284.194H470.522C470.429 284.194 470.339 284.176 470.255 284.144C469.916 284.275 469.524 284.145 469.337 283.82L464.336 275.158C464.202 274.926 464.202 274.64 464.336 274.408C464.343 274.397 464.35 274.386 464.358 274.375L469.121 266.123L464.336 257.834C464.202 257.602 464.202 257.316 464.336 257.084C464.343 257.073 464.35 257.062 464.358 257.051L469.099 248.837L465.946 243.297L464.339 240.512C464.309 240.459 464.285 240.404 464.269 240.348L455.104 224.236L455.062 224.149C455.025 224.06 455.006 223.964 455.006 223.866V122.459C449.715 122.221 445.462 117.989 445.195 112.705L445.182 112.175V74.2285C427.281 68.1229 413.119 53.9391 407.047 36.0225C406.999 36.0323 406.949 36.0371 406.898 36.0371H368.44L367.909 36.0244C362.719 35.7612 358.546 31.6539 358.174 26.4932H130.527C130.496 26.4932 130.466 26.4908 130.437 26.4873C130.434 26.487 130.432 26.4857 130.429 26.4854C130.393 26.4807 130.359 26.4713 130.325 26.4619C130.301 26.4552 130.278 26.4487 130.254 26.4395C130.244 26.4355 130.234 26.4321 130.224 26.4277C130.2 26.417 130.176 26.4051 130.153 26.3916L113.797 16.9482H96.9006C96.8915 16.9484 96.8823 16.9484 96.8732 16.9482H62.2531C62.244 16.9484 62.2349 16.9484 62.2258 16.9482H26.7189C26.5429 16.9482 26.383 16.8848 26.2551 16.7832L18.0734 12.0596L9.81561 16.8271C9.80585 16.8334 9.79739 16.8418 9.78729 16.8477C9.55542 16.9815 9.26924 16.9813 9.03729 16.8477L0.37518 11.8467C0.0641262 11.6671 -0.0697252 11.2984 0.0353358 10.9697C0.0143419 10.9003 0.00312131 10.8275 0.00310922 10.7529V5.75195C0.00312177 5.48402 0.14607 5.23651 0.378109 5.10254L9.03924 0.101562C9.17108 0.0255214 9.32011 -0.00651512 9.46698 0.00390625C9.48759 0.0021952 9.50842 0.00098662 9.52948 0.000976562H278.763C278.769 0.000816469 278.776 2.80382e-10 278.782 0C278.789 3.12386e-06 278.795 0.000807171 278.802 0.000976562H296.087C296.093 0.000817525 296.1 2.79454e-10 296.107 0C296.113 3.64371e-06 296.12 0.00080669 296.126 0.000976562H313.408C313.415 0.000812922 313.421 2.83481e-10 313.428 0C313.434 1.30108e-06 313.441 0.000809035 313.447 0.000976562H382.703C382.71 0.000812922 382.716 2.83481e-10 382.723 0C382.729 1.30108e-06 382.736 0.000809035 382.742 0.000976562H400.025C400.031 0.000816469 400.038 2.80382e-10 400.044 0C400.051 3.12386e-06 400.057 0.000807171 400.064 0.000976562H417.348C417.354 0.000812922 417.361 2.83481e-10 417.367 0C417.374 1.30108e-06 417.38 0.000809035 417.387 0.000976562ZM471.82 282.694H475.09L479.225 275.533H475.955L471.82 282.694ZM470.253 282.408L471.892 279.57C471.872 279.545 471.854 279.518 471.837 279.489L469.554 275.533H466.284L470.253 282.408ZM470.854 274.785L472.754 278.077L474.656 274.782L472.756 271.49L470.854 274.785ZM466.287 274.033H469.557L473.692 266.871H470.422L466.287 274.033ZM473.617 269.997C473.637 270.022 473.656 270.049 473.672 270.077L475.955 274.033H479.225L475.256 267.159L473.617 269.997ZM476.388 266.119L479.774 271.983V260.256L476.388 266.119ZM471.82 265.369H475.09L479.034 258.537H475.765L471.82 265.369ZM470.253 265.083L471.892 262.246C471.872 262.22 471.854 262.194 471.837 262.165L469.554 258.209H466.284L470.253 265.083ZM470.854 257.461L472.753 260.753L474.413 257.877L472.514 254.586L470.854 257.461ZM473.379 253.086L475.472 256.711C475.489 256.71 475.506 256.708 475.523 256.708H478.739L475.014 250.255L473.379 253.086ZM470.563 249.549C470.521 249.587 470.476 249.623 470.425 249.652C470.396 249.669 470.366 249.682 470.336 249.694L466.287 256.709H469.557L473.691 249.549H470.563ZM465.827 239.387H469.989L470.088 239.394C470.317 239.424 470.522 239.559 470.639 239.762L475.631 248.409C475.634 248.413 475.637 248.418 475.64 248.422C475.661 248.459 475.678 248.499 475.693 248.539C475.764 248.596 475.828 248.666 475.877 248.75L479.774 255.499V224.99H475.076C474.809 224.99 474.561 224.847 474.427 224.615L469.44 215.977C469.435 215.969 469.429 215.961 469.424 215.953L465.826 209.723L465.827 239.387ZM467.284 242.614L470.421 248.047H473.691L469.557 240.887H466.302L467.284 242.614ZM456.506 223.667L464.326 237.415V206.986C464.322 206.94 464.322 206.893 464.326 206.847V189.661C464.322 189.615 464.322 189.569 464.326 189.523V172.339C464.322 172.293 464.322 172.248 464.326 172.202V156.206H456.506V223.667ZM475.509 223.49H478.778L474.644 216.328H471.374L475.509 223.49ZM475.943 215.579L479.774 222.214V208.944L475.943 215.579ZM470.506 214.828H473.776L469.641 207.667H466.371L470.506 214.828ZM473.442 211.25L475.075 214.081L478.779 207.667H475.51L473.442 211.25ZM470.939 206.916L472.575 209.75L474.209 206.919L472.573 204.085L470.939 206.916ZM466.371 206.167H469.641L471.707 202.585L470.072 199.754L466.371 206.167ZM475.507 206.167H478.777L474.642 199.005H471.372L475.507 206.167ZM479.774 204.894V199.008H476.375L479.774 204.894ZM465.826 204.11L469.207 198.254L465.826 192.398V204.11ZM476.376 197.508H479.774V191.624L476.376 197.508ZM471.377 197.505H474.647L478.781 190.344H475.512L471.377 197.505ZM470.075 196.759L471.71 193.928L469.642 190.344H466.372L470.075 196.759ZM470.941 189.597L472.575 192.429L474.212 189.595L472.577 186.763L470.941 189.597ZM473.443 185.263L475.51 188.844H478.779L475.077 182.432L473.443 185.263ZM466.376 188.843H469.646L473.779 181.682H470.51L466.376 188.843ZM479.774 187.565V181.685H476.377L479.774 187.565ZM465.826 186.794L469.209 180.935L465.826 175.076V186.794ZM476.374 180.185H479.774V174.298L476.374 180.185ZM470.506 180.182H473.776L469.642 173.021H466.372L470.506 180.182ZM473.442 176.604L475.075 179.435L478.778 173.021H475.509L473.442 176.604ZM470.939 172.271L472.575 175.104L474.209 172.273L472.573 169.439L470.939 172.271ZM466.372 171.521H469.642L471.707 167.939L470.073 165.108L466.372 171.521ZM475.506 171.521H478.776L474.642 164.359H471.372L475.506 171.521ZM479.774 170.248V164.359H476.373L479.774 170.248ZM465.826 169.465L469.206 163.61L465.826 157.757V169.465ZM476.374 162.859H479.774V156.973L476.374 162.859ZM471.374 162.858H474.644L478.778 155.697H475.509L471.374 162.858ZM470.072 162.112L471.707 159.281L469.639 155.697H466.369L470.072 162.112ZM470.939 154.949L472.573 157.781L474.209 154.947L472.574 152.115L470.939 154.949ZM464.326 117.434C462.697 120.17 459.835 122.087 456.506 122.418V154.706H464.326V137.672C464.324 137.64 464.324 137.607 464.326 137.575V117.434ZM466.372 154.197H469.642L473.776 147.036H470.506L466.372 154.197ZM473.441 150.615L475.508 154.197H478.778L475.075 147.784L473.441 150.615ZM465.826 136.874H470.074L470.173 136.881C470.402 136.911 470.607 137.046 470.724 137.249L475.718 145.9C475.72 145.904 475.723 145.907 475.725 145.91L479.774 152.921V125.383H475.079C474.812 125.383 474.564 125.24 474.43 125.008L469.428 116.346L465.826 110.108V136.874ZM465.826 152.143L469.208 146.285L465.826 140.428V152.143ZM470.506 145.535H473.776L469.642 138.374H466.372L470.506 145.535ZM475.512 123.883H478.781L474.647 116.721H471.377L475.512 123.883ZM475.945 115.974L479.774 122.602V109.344L475.945 115.974ZM446.716 112.925C447.097 117.431 450.872 120.969 455.476 120.97C460.08 120.97 463.857 117.431 464.237 112.925H446.716ZM470.51 115.221H473.779L469.646 108.061H466.376L470.51 115.221ZM473.445 111.644L475.079 114.474L478.783 108.061H475.514L473.445 111.644ZM446.682 111.425H464.326V77.4814C458.186 77.4241 452.262 76.4611 446.682 74.7188V111.425ZM470.943 107.31L472.579 110.144L474.214 107.311L472.578 104.477L470.943 107.31ZM455.751 80.5742C457.306 80.5745 458.568 81.8353 458.568 83.3906C458.567 84.5689 457.843 85.5759 456.816 85.9961L461.403 93.9414C461.521 94.1444 461.535 94.3893 461.447 94.6025L461.403 94.6914L456.816 102.636C457.843 103.056 458.567 104.064 458.568 105.242C458.568 106.798 457.306 108.058 455.751 108.059C454.196 108.059 452.935 106.798 452.935 105.242C452.935 104.063 453.66 103.054 454.689 102.635L450.103 94.6914C449.969 94.4595 449.969 94.1733 450.103 93.9414L454.689 85.998C453.66 85.5786 452.935 84.57 452.935 83.3906C452.935 81.8351 454.196 80.5742 455.751 80.5742ZM466.376 106.56H469.646L471.712 102.977L470.078 100.146L466.376 106.56ZM455.751 103.926C455.024 103.926 454.435 104.515 454.435 105.242C454.435 105.969 455.024 106.559 455.751 106.559C456.478 106.558 457.068 105.969 457.068 105.242C457.067 104.515 456.478 103.926 455.751 103.926ZM475.512 106.559H478.781L474.648 99.3984H471.378L475.512 106.559ZM479.774 105.277V99.3965H476.378L479.774 105.277ZM465.826 104.511L469.211 98.6475L465.826 92.7852V104.511ZM451.619 94.3174L455.754 101.479L459.889 94.3174L455.754 87.1553L451.619 94.3174ZM471.38 97.8975H474.65L478.784 90.7363H475.515L471.38 97.8975ZM476.381 97.8965H479.774V92.0215L476.381 97.8965ZM470.078 97.1514L471.713 94.3203L469.645 90.7363H466.375L470.078 97.1514ZM470.945 89.9883L472.579 92.8203L474.215 89.9873L472.58 87.1553L470.945 89.9883ZM466.378 89.2363H469.648L473.782 82.0742H470.513L466.378 89.2363ZM473.445 85.6553L475.513 89.2363H478.782L475.08 82.8242L473.445 85.6553ZM479.774 87.9531V82.0742H476.378L479.774 87.9531ZM465.826 87.1924L469.212 81.3262L465.826 75.4609V87.1924ZM455.751 82.0742C455.024 82.0742 454.435 82.6636 454.435 83.3906C454.435 84.1176 455.024 84.707 455.751 84.707C456.478 84.7068 457.067 84.1175 457.068 83.3906C457.068 82.6637 456.478 82.0745 455.751 82.0742ZM470.51 80.5742H473.779L469.646 73.4141H466.376L470.51 80.5742ZM476.381 80.5742H479.774V74.6982L476.381 80.5742ZM473.445 76.9971L475.08 79.8281L478.783 73.4141H475.514L473.445 76.9971ZM405.333 16.9482C405.623 49.4093 431.87 75.6705 464.326 75.9814V67.4443C436.586 67.1335 414.159 44.694 413.87 16.9482H408.724C408.718 16.9484 408.713 16.9482 408.707 16.9482C408.705 16.9482 408.703 16.9483 408.701 16.9482H405.333ZM470.943 72.6631L472.579 75.4971L474.214 72.665L472.578 69.8301L470.943 72.6631ZM466.376 71.9131H469.646L471.712 68.3301L470.078 65.5L466.376 71.9131ZM475.512 71.9131H478.781L474.648 64.752H471.378L475.512 71.9131ZM479.774 70.6309V64.752H476.379L479.774 70.6309ZM465.826 69.8643L469.21 64.0029L465.826 58.1406V69.8643ZM415.37 16.9482C415.659 43.8656 437.414 65.6337 464.326 65.9443V55.3564C464.326 55.3444 464.326 55.3324 464.326 55.3203V29.751L449.649 32.5C449.643 32.501 449.637 32.5001 449.632 32.501C449.618 32.5033 449.604 32.5044 449.59 32.5059C449.562 32.5088 449.535 32.5108 449.508 32.5107C449.504 32.5107 449.5 32.5108 449.495 32.5107C449.46 32.51 449.425 32.5076 449.391 32.502C449.384 32.5009 449.378 32.4983 449.371 32.4971C449.34 32.4911 449.309 32.4844 449.279 32.4746C449.268 32.471 449.257 32.4661 449.246 32.4619C449.219 32.4517 449.193 32.441 449.167 32.4277C449.165 32.4268 449.163 32.4267 449.161 32.4258C449.154 32.422 449.148 32.4161 449.141 32.4121C449.115 32.3974 449.09 32.382 449.066 32.3643C449.058 32.3583 449.05 32.3519 449.042 32.3457C449.02 32.3275 448.997 32.3089 448.977 32.2881C448.967 32.2777 448.957 32.2668 448.947 32.2559C448.931 32.2374 448.916 32.2184 448.902 32.1982C448.889 32.1809 448.878 32.1628 448.867 32.1445C448.861 32.1338 448.854 32.1234 448.848 32.1123C448.846 32.1097 448.845 32.1071 448.844 32.1045C448.832 32.0808 448.822 32.0561 448.813 32.0312C448.807 32.0175 448.801 32.0041 448.797 31.9902C448.791 31.972 448.787 31.9533 448.782 31.9346C448.778 31.9141 448.773 31.8937 448.77 31.873C448.767 31.8543 448.766 31.8354 448.765 31.8164C448.764 31.8001 448.761 31.7839 448.761 31.7676V31.7451C448.761 31.7262 448.765 31.7075 448.767 31.6885C448.768 31.6728 448.769 31.6571 448.772 31.6416C448.773 31.6361 448.773 31.6305 448.774 31.625L451.522 16.9482H426.062C426.04 16.9492 426.019 16.9492 425.997 16.9482H415.37ZM476.378 63.252H479.774V57.3721L476.378 63.252ZM471.378 63.251H474.648L478.782 56.0898H475.513L471.378 63.251ZM470.077 62.5039L471.711 59.6738L469.644 56.0898H466.374L470.077 62.5039ZM470.942 55.3398L472.577 58.1738L474.213 55.3408L472.577 52.5068L470.942 55.3398ZM473.443 51.0068L475.511 54.5898H478.78L475.077 48.1758L473.443 51.0068ZM450.477 41.5225C450.722 41.4211 451 41.4578 451.209 41.6123L451.294 41.6855L451.562 41.9678C454.242 44.9348 454.153 49.5156 451.294 52.375C448.342 55.3268 443.556 55.3265 440.605 52.375C440.312 52.0822 440.312 51.6074 440.605 51.3145C440.879 51.04 441.314 51.0223 441.609 51.2627L441.665 51.3145L441.737 51.3789C442.118 51.6883 442.864 51.8067 444.01 51.4248C445.185 51.0332 446.562 50.1721 447.826 48.9072C449.091 47.6424 449.952 46.2654 450.344 45.0908C450.751 43.8689 450.589 43.1018 450.234 42.7461C450.093 42.6054 450.014 42.4147 450.014 42.2158C450.014 41.9125 450.197 41.6385 450.477 41.5225ZM466.375 54.5889H469.645L473.778 47.4287H470.508L466.375 54.5889ZM471.541 27.9678C471.539 27.9748 471.535 27.9813 471.532 27.9883C471.524 28.0171 471.514 28.045 471.502 28.0723C471.498 28.0825 471.493 28.0926 471.488 28.1025C471.483 28.1143 471.477 28.1262 471.471 28.1377C471.463 28.1511 471.455 28.1638 471.446 28.1768C471.44 28.1865 471.434 28.1957 471.427 28.2051C471.42 28.2144 471.413 28.2234 471.406 28.2324C471.396 28.2461 471.385 28.2595 471.373 28.2725C471.369 28.2776 471.364 28.2831 471.36 28.2881V28.29C471.348 28.3019 471.335 28.3122 471.323 28.3232C471.313 28.3328 471.303 28.3426 471.292 28.3516C471.289 28.3539 471.286 28.3561 471.283 28.3584C471.269 28.3701 471.253 28.3801 471.237 28.3906C471.226 28.3982 471.216 28.4062 471.204 28.4131C471.197 28.4173 471.19 28.4208 471.183 28.4248C471.171 28.4312 471.16 28.4376 471.149 28.4434C471.133 28.451 471.118 28.4574 471.102 28.4639C471.092 28.4678 471.083 28.473 471.073 28.4766C471.063 28.4805 471.052 28.4839 471.041 28.4873C471.026 28.492 471.011 28.4952 470.995 28.499C470.988 28.5009 470.98 28.5023 470.973 28.5039C470.967 28.5052 470.961 28.5086 470.955 28.5098H470.949C470.945 28.5105 470.942 28.512 470.938 28.5127L465.99 29.4385L470.727 37.6416L475.721 46.293C475.723 46.2964 475.726 46.2993 475.728 46.3027L479.774 53.3105V31.6416C479.773 25.6132 477.999 20.0016 474.95 15.292L471.541 27.9678ZM451.767 45.5654C451.287 47.0043 450.281 48.574 448.887 49.9678C447.493 51.3615 445.923 52.368 444.485 52.8477C444.45 52.8592 444.414 52.8689 444.379 52.8799C446.401 53.4205 448.647 52.9006 450.234 51.3145C451.82 49.7283 452.34 47.4816 451.799 45.46C451.788 45.4949 451.778 45.5306 451.767 45.5654ZM465.826 52.5391L469.21 46.6768L465.826 40.8154V52.5391ZM440.052 33.6035C444.226 33.6037 447.609 36.9881 447.61 41.1621C447.609 45.3363 444.226 48.7205 440.052 48.7207C437.983 48.7207 436.108 47.8884 434.743 46.541C434.731 46.5292 434.717 46.5189 434.705 46.5068C434.687 46.4886 434.669 46.4698 434.653 46.4502C433.318 45.087 432.493 43.2211 432.493 41.1621C432.494 36.988 435.878 33.6035 440.052 33.6035ZM445.867 39.6973C445.388 41.136 444.381 42.7059 442.987 44.0996C441.594 45.4933 440.024 46.4998 438.585 46.9795C438.549 46.9914 438.513 47.0013 438.477 47.0127C438.979 47.1476 439.507 47.2207 440.052 47.2207C443.398 47.2205 446.109 44.5078 446.11 41.1621C446.11 40.6172 446.036 40.0893 445.902 39.5869C445.89 39.6236 445.88 39.6607 445.867 39.6973ZM470.509 45.9277H473.778L469.646 38.7676H466.376L470.509 45.9277ZM440.052 35.1035C436.706 35.1035 433.994 37.8164 433.993 41.1621C433.993 42.8426 434.678 44.3634 435.783 45.4609C436.146 45.805 436.907 45.9577 438.111 45.5566C439.285 45.165 440.662 44.3039 441.927 43.0391C443.192 41.7742 444.053 40.3972 444.445 39.2227C444.852 38.0006 444.689 37.2336 444.333 36.8779C444.33 36.8752 444.328 36.8719 444.325 36.8691C443.23 35.7785 441.72 35.1036 440.052 35.1035ZM428.81 29.8926C431.761 26.9411 436.548 26.9409 439.499 29.8926C439.792 30.1854 439.792 30.6603 439.499 30.9531C439.206 31.2459 438.732 31.2458 438.439 30.9531C438.083 30.5975 437.315 30.4345 436.093 30.8418C434.918 31.2334 433.542 32.0956 432.278 33.3604C431.013 34.6252 430.151 36.0021 429.759 37.1768C429.352 38.3987 429.515 39.1659 429.87 39.5215C430.163 39.8143 430.163 40.2892 429.87 40.582C429.596 40.8566 429.161 40.8733 428.866 40.6328L428.81 40.582L428.541 40.2998C425.861 37.3328 425.95 32.752 428.81 29.8926ZM465.826 37.2666H468.778L465.826 32.1543V37.2666ZM435.723 29.3857C433.702 28.846 431.456 29.3676 429.87 30.9531C428.284 32.539 427.763 34.7852 428.303 36.8066C428.314 36.7719 428.325 36.7368 428.336 36.7021C428.816 35.2632 429.823 33.6936 431.217 32.2998C432.611 30.9059 434.18 29.8986 435.619 29.4189C435.654 29.4075 435.688 29.3966 435.723 29.3857ZM369.19 34.5371H406.566C404.838 28.9729 403.886 23.068 403.832 16.9482H391.401C391.39 16.9485 391.38 16.9485 391.369 16.9482H374.076C374.071 16.9484 374.065 16.9482 374.06 16.9482C374.058 16.9482 374.056 16.9483 374.054 16.9482H369.19V34.5371ZM367.69 16.9814C363.184 17.362 359.645 21.1386 359.645 25.7432C359.645 30.3473 363.184 34.1224 367.69 34.5029V16.9814ZM386.767 19.7695C386.98 19.6818 387.225 19.6963 387.428 19.8135L395.37 24.3994C395.79 23.372 396.799 22.6475 397.978 22.6475C399.533 22.6477 400.794 23.9086 400.794 25.4639C400.794 27.0192 399.533 28.2801 397.978 28.2803C396.799 28.2802 395.789 27.556 395.369 26.5283L387.428 31.1143C387.196 31.2481 386.91 31.2478 386.678 31.1143L378.734 26.5273C378.314 27.5552 377.306 28.2802 376.127 28.2803C374.572 28.2802 373.311 27.0193 373.311 25.4639C373.311 23.9085 374.572 22.6475 376.127 22.6475C377.305 22.6476 378.313 23.3723 378.733 24.3994L386.678 19.8135L386.767 19.7695ZM451.754 30.5781L467.071 27.71L456.883 25.4502L451.754 30.5781ZM379.89 25.4629L387.052 29.5977L394.214 25.4629L387.052 21.3281L379.89 25.4629ZM453.173 16.2744C453.17 16.3061 453.162 16.3368 453.155 16.3672L450.694 29.5186L455.822 24.3896L455.543 23.1309L453.562 14.1992L453.173 16.2744ZM376.127 24.1475C375.4 24.1475 374.811 24.7369 374.811 25.4639C374.811 26.1909 375.4 26.7802 376.127 26.7803C376.854 26.7801 377.444 26.1908 377.444 25.4639C377.443 24.737 376.854 24.1476 376.127 24.1475ZM397.978 24.1475C397.251 24.1475 396.661 24.7369 396.661 25.4639C396.661 26.1909 397.251 26.7802 397.978 26.7803C398.705 26.7801 399.294 26.1908 399.294 25.4639C399.294 24.737 398.705 24.1477 397.978 24.1475ZM458.139 24.1914L463.81 25.4502L469.762 26.7705L466.695 15.6357L458.139 24.1914ZM130.73 24.9932H217.399V16.9482H200.892C200.875 16.9493 200.859 16.9502 200.842 16.9502C200.826 16.9502 200.809 16.9493 200.793 16.9482H183.569C183.536 16.9504 183.503 16.9504 183.471 16.9482H166.246C166.214 16.9504 166.181 16.9504 166.149 16.9482H116.796L130.73 24.9932ZM322.839 24.9932H358.174C358.42 21.5835 360.323 18.6334 363.085 16.9482H322.839V24.9932ZM218.899 24.9727H321.339V16.9482H270.135C270.126 16.9484 270.117 16.9484 270.108 16.9482H235.522C235.5 16.9492 235.479 16.9492 235.457 16.9482H218.899V24.9727ZM472.818 9.51465L467.916 14.416L470.808 24.915L475.736 6.5957L472.818 9.51465ZM457.079 23.1309L465.635 14.5752L454.502 11.5107L457.079 23.1309ZM18.4152 5.52734C18.4264 5.53309 18.4384 5.5376 18.4494 5.54395C18.4508 5.54475 18.4519 5.54606 18.4533 5.54688L27.1105 10.5449C27.3135 10.6623 27.4483 10.8669 27.4787 11.0957L27.4855 11.1943V15.4482H59.4387L53.2033 11.8477C53.1958 11.8433 53.1891 11.8376 53.1818 11.833L44.5412 6.84473C44.3094 6.71069 44.1662 6.46308 44.1662 6.19531V1.50098H11.4416L18.4152 5.52734ZM65.0392 15.4482H76.7668L70.9025 12.0625L65.0392 15.4482ZM82.3596 15.4482H94.0861L88.2228 12.0625L82.3596 15.4482ZM99.6847 15.4482H111.407L105.546 12.0635L99.6847 15.4482ZM117.007 15.4482H128.737L122.871 12.0615L117.007 15.4482ZM116.24 1.50098L123.247 5.5459L131.909 10.5469C132.112 10.6642 132.247 10.8688 132.278 11.0977L132.284 11.1963V15.4482H163.392L157.161 11.8506C157.16 11.8501 157.159 11.8491 157.158 11.8486L148.496 6.84766C148.265 6.71355 148.121 6.46581 148.121 6.19824V1.50098H116.24ZM169.002 15.4482H180.716L174.858 12.0664L169.002 15.4482ZM186.317 15.4482H198.038L192.177 12.0635L186.317 15.4482ZM203.647 15.4482H215.36L209.503 12.0664L203.647 15.4482ZM220.968 15.4482H232.687L226.827 12.0645L220.968 15.4482ZM227.202 5.54883L235.864 10.5498C236.067 10.6671 236.202 10.8719 236.233 11.1006L236.239 11.1992V15.4482H267.32L261.085 11.8477C261.08 11.8445 261.075 11.8402 261.07 11.8369L252.422 6.84473C252.19 6.71069 252.047 6.46308 252.047 6.19531V1.50098H220.192L227.202 5.54883ZM272.921 15.4482H284.646L278.782 12.0635L272.921 15.4482ZM290.238 15.4482H301.97L296.105 12.0605L290.238 15.4482ZM307.568 15.4482H319.289L313.428 12.0635L307.568 15.4482ZM324.887 15.4482H336.617L330.752 12.0615L324.887 15.4482ZM331.125 5.54492C331.126 5.54558 331.128 5.54621 331.129 5.54688L339.791 10.5479C339.994 10.6652 340.129 10.8698 340.159 11.0986L340.166 11.1973V15.4482H371.26L365.025 11.8477C365.023 11.8467 365.021 11.8448 365.02 11.8438L356.362 6.8457C356.13 6.71175 355.987 6.46387 355.987 6.19629V1.50098H324.121L331.125 5.54492ZM376.861 15.4482H388.584L382.722 12.0635L376.861 15.4482ZM394.179 15.4482H405.907L400.043 12.0615L394.179 15.4482ZM411.508 15.4482H423.227L417.367 12.0645L411.508 15.4482ZM428.825 15.4482H440.554L434.69 12.0625L428.825 15.4482ZM444.103 15.4473H449.215L444.103 12.4951V15.4473ZM428.06 1.50098L435.066 5.5459L443.722 10.5439C443.723 10.5449 443.725 10.5459 443.727 10.5469L451.842 15.2314L452.759 10.3369C452.759 10.3343 452.76 10.3317 452.76 10.3291C452.767 10.2909 452.777 10.2535 452.789 10.2168C452.791 10.2115 452.793 10.2064 452.795 10.2012C452.798 10.1933 452.801 10.1855 452.804 10.1777C452.808 10.1677 452.811 10.1573 452.816 10.1475L452.839 10.1006C452.842 10.0956 452.845 10.0909 452.848 10.0859C452.85 10.0821 452.851 10.078 452.854 10.0742C452.865 10.0551 452.878 10.0367 452.891 10.0186C452.897 10.01 452.903 10.0014 452.909 9.99316C452.912 9.98988 452.915 9.98664 452.917 9.9834L452.927 9.97168C452.933 9.96499 452.939 9.95863 452.945 9.95215C452.957 9.93855 452.969 9.92488 452.983 9.91211C452.988 9.90681 452.994 9.90159 453 9.89648C453.011 9.88693 453.022 9.87807 453.033 9.86914C453.047 9.85824 453.061 9.84774 453.075 9.83789C453.081 9.83427 453.087 9.83162 453.092 9.82812C453.105 9.81966 453.118 9.8104 453.131 9.80273C453.147 9.79378 453.163 9.78606 453.18 9.77832C453.183 9.77677 453.186 9.77494 453.19 9.77344C453.224 9.75792 453.259 9.74455 453.295 9.73438C453.298 9.73356 453.301 9.7332 453.304 9.73242L453.312 9.72949C453.314 9.72882 453.317 9.72818 453.32 9.72754L465.98 6.32129C461.269 3.27277 455.657 1.50098 449.627 1.50098H428.06ZM158.286 10.7686L165.446 14.9023V11.6328L158.286 7.49902V10.7686ZM192.931 10.7676L200.092 14.9023V11.6328L192.931 7.49805V10.7676ZM201.593 11.6328V14.9023L208.004 11.1992L205.174 9.56543L201.593 11.6328ZM211.001 11.2002L217.415 14.9023V11.6328L213.832 9.56543L211.001 11.2002ZM107.045 11.1973L113.46 14.9014V11.6318L109.875 9.5625L107.045 11.1973ZM166.947 11.6318V14.9014L173.358 11.1992L170.528 9.56543L166.947 11.6318ZM227.577 10.7666L234.739 14.9014V11.6318L227.577 7.49707V10.7666ZM54.3283 10.7656L61.4894 14.9004V11.6309L54.3283 7.49609V10.7656ZM176.355 11.1982L182.768 14.9004V11.6309L179.186 9.56445L176.355 11.1982ZM262.21 10.7656L269.371 14.9004V11.6309L262.21 7.49609V10.7656ZM384.22 11.1963L390.635 14.9004V11.6309L387.051 9.5625L384.22 11.1963ZM418.864 11.1973L425.278 14.9004V11.6309L421.695 9.56348L418.864 11.1973ZM1.86639 10.9756L8.66229 14.8994V11.6299L4.70623 9.34668C4.70327 9.34497 4.70038 9.34257 4.69745 9.34082L1.86639 10.9756ZM62.9894 11.6299V14.8994L69.4006 11.1963L66.5705 9.5625L62.9894 11.6299ZM72.3996 11.1943L78.8156 14.8994V11.6299L75.2297 9.56055L72.3996 11.1943ZM88.9777 10.7666L96.1359 14.8994V11.6299L88.9777 7.49707V10.7666ZM218.917 11.6299V14.8994L226.077 10.7666V7.49707L218.917 11.6299ZM270.871 11.6299V14.8994L277.282 11.1963L274.452 9.5625L270.871 11.6299ZM280.279 11.1953L286.695 14.8994V11.6299L283.11 9.56055L280.279 11.1953ZM314.926 11.1973L321.34 14.8994V11.6299L317.757 9.5625L314.926 11.1973ZM331.504 10.7646L338.666 14.8994V11.6299L331.504 7.49512V10.7646ZM366.15 10.7656L373.31 14.8994V11.6299L366.15 7.49609V10.7656ZM374.811 11.6299V14.8994L381.221 11.1973L378.391 9.56348L374.811 11.6299ZM400.797 10.7656L407.957 14.8994V11.6299L400.797 7.49609V10.7656ZM409.458 11.6299V14.8994L415.869 11.1973L413.039 9.5625L409.458 11.6299ZM97.6369 11.6289V14.8984L104.047 11.1963L101.217 9.5625L97.6369 11.6289ZM114.96 11.6289V14.8984L122.122 10.7637V7.49414L114.96 11.6289ZM123.622 10.7637L130.784 14.8984V11.6289L123.622 7.49414V10.7637ZM296.86 10.7656L304.019 14.8984V11.6289L296.86 7.49609V10.7656ZM435.441 10.7646L442.602 14.8984V11.6289L435.441 7.49512V10.7646ZM184.27 11.6279V14.8975L191.43 10.7646V7.49512L184.27 11.6279ZM305.521 11.6279V14.8975L311.93 11.1963L309.1 9.5625L305.521 11.6279ZM426.779 11.6279V14.8975L433.941 10.7637V7.49414L426.779 11.6279ZM14.1086 9.34766C14.0938 9.35595 14.0799 9.36579 14.0646 9.37305L10.1623 11.627V14.8965L17.3234 10.7617V7.49219L14.1086 9.34766ZM18.8244 10.7617L25.9855 14.8965V11.627L18.8244 7.49219V10.7617ZM80.3156 11.627V14.8965L87.4758 10.7627V7.49316L80.3156 11.627ZM288.195 11.627V14.8965L295.357 10.7617V7.49219L288.195 11.627ZM322.842 11.627V14.8965L330.002 10.7637V7.49414L322.842 11.627ZM392.135 11.627V14.8965L399.297 10.7617V7.49219L392.135 11.627ZM456.355 10.4639L466.855 13.3555L474.675 5.53613L456.355 10.4639ZM163.362 8.69824L166.195 10.334L169.028 8.69922L166.194 7.06348L163.362 8.69824ZM198.007 8.69727L200.842 10.334L203.674 8.69922L200.838 7.0625L198.007 8.69727ZM215.332 8.69922L218.163 10.334L220.996 8.69824L218.164 7.06348L215.332 8.69922ZM180.686 8.69824L183.516 10.332L186.349 8.69629L183.519 7.0625L180.686 8.69824ZM405.873 8.69531L408.707 10.332L411.539 8.69727L408.705 7.06055L405.873 8.69531ZM59.4045 8.69531L62.2385 10.3311L65.0705 8.69629L62.2365 7.06055L59.4045 8.69531ZM94.0519 8.69531L96.8849 10.3311L99.717 8.69629L96.883 7.06055L94.0519 8.69531ZM111.375 8.69727L114.207 10.3311L117.041 8.69531L114.209 7.06055L111.375 8.69727ZM267.286 8.69531L270.12 10.3311L272.952 8.69629L270.118 7.06055L267.286 8.69531ZM301.935 8.69434L304.769 10.3311L307.6 8.69629L304.766 7.06055L301.935 8.69434ZM319.257 8.69629L322.088 10.3311L324.921 8.69531L322.089 7.06055L319.257 8.69629ZM371.227 8.69531L374.06 10.3311L376.891 8.69727L374.057 7.06152L371.227 8.69531ZM423.195 8.69727L426.026 10.3311L428.86 8.69531L426.028 7.06055L423.195 8.69727ZM388.551 8.69629L391.381 10.3301L394.215 8.69336L391.385 7.05957L388.551 8.69629ZM6.19647 8.47461L9.40936 10.3291L12.2404 8.69434L9.03729 6.8457C9.03424 6.84394 9.03152 6.84165 9.0285 6.83984L6.19647 8.47461ZM76.7297 8.69434L79.5627 10.3291L82.3976 8.69238L79.5646 7.05762L76.7297 8.69434ZM284.61 8.69531L287.442 10.3291L290.276 8.69336L287.444 7.05859L284.61 8.69531ZM166.947 5.7666L174.109 9.90137V6.63184L166.947 2.49707V5.7666ZM149.621 5.76562L156.783 9.90039V6.63086L149.621 2.49609V5.76562ZM201.593 5.7666L208.754 9.90039V6.63086L201.593 2.49707V5.7666ZM210.255 6.62988V9.89941L217.415 5.76562V2.49609L210.255 6.62988ZM374.811 5.76465L381.972 9.89941V6.62988L374.811 2.49512V5.76465ZM62.9904 5.76367L70.1515 9.89844V6.62891L62.9904 2.49414V5.76367ZM97.6369 5.76367L104.798 9.89844V6.62891L97.6369 2.49414V5.76367ZM175.609 6.62891V9.89844L182.768 5.76465V2.49512L175.609 6.62891ZM357.487 5.76367L364.649 9.89844V6.62891L357.487 2.49414V5.76367ZM45.6662 5.7627L52.8283 9.89746V6.62793L45.6662 2.49316V5.7627ZM106.333 6.60742C106.328 6.66042 106.314 6.71058 106.298 6.75977V9.89746L113.459 5.7627V2.49316L106.333 6.60742ZM253.547 5.7627L260.709 9.89746V6.62793L253.547 2.49316V5.7627ZM270.871 5.76367L278.032 9.89746V6.62793L270.871 2.49414V5.76367ZM409.459 5.76465L416.618 9.89746V6.62793L409.459 2.49512V5.76465ZM305.519 5.76367L312.679 9.89648V6.62695L305.519 2.49414V5.76367ZM383.474 6.62695V9.89648L390.635 5.76172V2.49219L383.474 6.62695ZM418.119 6.62695V9.89648L425.278 5.7627V2.49316L418.119 6.62695ZM314.181 6.62598V9.89551L321.34 5.7627V2.49316L314.181 6.62598ZM71.6535 6.625V9.89453L78.8146 5.75977V2.49023L71.6535 6.625ZM279.533 6.625V9.89453L286.694 5.76074V2.49121L279.533 6.625ZM1.50311 6.18457V9.4541L8.66229 5.32031V2.05078L1.50311 6.18457ZM159.031 6.19727L161.862 7.83203L165.446 5.76367V2.49414L159.031 6.19727ZM218.915 5.76562L222.496 7.83203L225.327 6.19727L218.915 2.49609V5.76562ZM193.675 6.19629L196.507 7.83105L200.09 5.76367V2.49414L193.675 6.19629ZM184.27 5.76465L187.849 7.83008L190.68 6.19531L184.27 2.49512V5.76465ZM10.1642 5.75195C10.1642 5.75587 10.1633 5.75977 10.1633 5.76367L13.7404 7.8291L16.5715 6.19434L10.1642 2.49512V5.75195ZM55.0744 6.19531L57.9045 7.8291L61.4894 5.76074V2.49121L55.0744 6.19531ZM89.7199 6.19434L92.5519 7.8291L96.1359 5.76074V2.49121L89.7199 6.19434ZM114.96 5.7627L118.541 7.8291L121.372 6.19434L114.96 2.49316V5.7627ZM262.955 6.19434L265.786 7.8291L269.371 5.76074V2.49121L262.955 6.19434ZM322.84 5.7627L326.421 7.8291L329.252 6.19434L322.84 2.49316V5.7627ZM366.896 6.19531L369.727 7.8291L373.31 5.76172V2.49219L366.896 6.19531ZM401.543 6.19531L404.373 7.8291L407.957 5.76172V2.49219L401.543 6.19531ZM426.779 5.7627L430.36 7.8291L433.191 6.19434L426.779 2.49316V5.7627ZM297.604 6.19434L300.435 7.82812L304.019 5.76074V2.49121L297.604 6.19434ZM392.135 5.76172L395.715 7.82812L398.546 6.19336L392.135 2.49219V5.76172ZM80.3156 5.75977L83.8976 7.82715L86.7287 6.19238L80.3156 2.49023V5.75977ZM288.195 5.76074L291.776 7.82715L294.607 6.19238L288.195 2.49121V5.76074ZM365.397 5.3291L372.028 1.50098H358.766L365.397 5.3291ZM53.5764 5.32812L60.2062 1.50098H46.9474L53.5764 5.32812ZM261.457 5.32812L268.087 1.50098H254.828L261.457 5.32812ZM104.837 4.91895V1.50098H98.9152L104.837 4.91895ZM174.108 4.89941V1.50098H168.221L174.108 4.89941ZM208.755 4.89941V1.50098H202.867L208.755 4.89941ZM70.1535 4.89844V1.50098H64.2687L70.1535 4.89844ZM156.783 4.89844V1.50098H150.898L156.783 4.89844ZM158.283 4.89844L164.168 1.50098H158.283V4.89844ZM210.255 4.89844L216.14 1.50098H210.255V4.89844ZM381.973 4.89844V1.50098H376.087L381.973 4.89844ZM175.608 4.89746L181.49 1.50098H175.608V4.89746ZM278.032 4.89648V1.50098H272.151L278.032 4.89648ZM191.43 4.89648V1.50098H185.547L191.43 4.89648ZM314.178 4.89648L320.059 1.50098H314.178V4.89648ZM88.9728 4.89551L94.8527 1.50098H88.9728V4.89551ZM192.93 4.89551L198.811 1.50098H192.93V4.89551ZM312.678 4.89551V1.50098H306.798L312.678 4.89551ZM416.617 4.89551V1.50098H410.737L416.617 4.89551ZM418.117 4.89551L423.998 1.50098H418.117V4.89551ZM295.357 4.89453V1.50098H289.478L295.357 4.89453ZM383.473 4.89453L389.353 1.50098H383.473V4.89453ZM400.794 4.89453L406.675 1.50098H400.794V4.89453ZM296.857 4.89355L302.735 1.50098H296.857V4.89355ZM279.532 4.89258L285.409 1.50098H279.532V4.89258ZM71.6535 4.89258L77.5285 1.50098H71.6535V4.89258ZM399.294 4.89258V1.50098H393.417L399.294 4.89258ZM87.4728 4.89062V1.50098H81.6008L87.4728 4.89062ZM106.337 4.87305L112.178 1.50098H106.337V4.87305Z" fill="var(--fill-0, #FFAC38)"/>
</g>
</svg>
