<svg preserveAspectRatio="none" width="100%" height="100%" overflow="visible" style="display: block;" viewBox="0 0 481.274 284.194" fill="none" xmlns="http://www.w3.org/2000/svg">
<g id="Frame-Upper-Right">
<path id="Union" d="M417.387 0.000976562H449.627C456.431 0.000976562 462.733 2.15183 467.894 5.80664L476.994 3.3584C477.018 3.35209 477.042 3.34869 477.066 3.34473C477.076 3.34292 477.087 3.34021 477.098 3.33887C477.126 3.33536 477.155 3.3352 477.183 3.33496C477.196 3.33483 477.209 3.33438 477.223 3.33496C477.246 3.33599 477.268 3.33874 477.29 3.3418C477.309 3.3443 477.328 3.3457 477.346 3.34961C477.368 3.35443 477.39 3.36131 477.412 3.36816C477.429 3.37326 477.445 3.3785 477.461 3.38477C477.482 3.39281 477.502 3.40227 477.522 3.41211C477.536 3.41928 477.551 3.42541 477.566 3.43359C477.569 3.43581 477.573 3.43913 477.576 3.44141C477.591 3.45045 477.605 3.46158 477.619 3.47168C477.638 3.48478 477.657 3.49716 477.674 3.51172C477.689 3.52435 477.702 3.53888 477.716 3.55273C477.731 3.56791 477.747 3.58231 477.761 3.59863C477.772 3.61191 477.782 3.62647 477.792 3.64062C477.807 3.6603 477.822 3.6793 477.834 3.7002C477.836 3.70283 477.838 3.70535 477.839 3.70801C477.846 3.71957 477.851 3.73235 477.857 3.74414C477.867 3.76525 477.877 3.78659 477.886 3.80859C477.894 3.8279 477.9 3.8475 477.905 3.86719C477.911 3.88634 477.918 3.90521 477.922 3.9248C477.927 3.94775 477.929 3.97097 477.932 3.99414C477.934 4.01007 477.936 4.0259 477.937 4.04199C477.938 4.06584 477.938 4.08948 477.937 4.11328C477.936 4.13117 477.936 4.14905 477.934 4.16699C477.931 4.18907 477.927 4.21064 477.922 4.23242C477.919 4.24755 477.918 4.26325 477.914 4.27832L475.466 13.3779C479.121 18.5376 481.273 24.8388 481.274 31.6416V274.636C481.274 274.663 481.272 274.69 481.269 274.717C481.282 274.868 481.251 275.022 481.173 275.158L476.172 283.819C476.038 284.051 475.79 284.194 475.523 284.194H470.522C470.429 284.194 470.339 284.176 470.255 284.144C469.916 284.275 469.525 284.145 469.337 283.821L464.336 275.159C464.202 274.927 464.202 274.641 464.336 274.409C464.342 274.399 464.349 274.39 464.355 274.38L469.121 266.123L464.336 257.834C464.202 257.602 464.202 257.316 464.336 257.084C464.343 257.073 464.35 257.062 464.358 257.051L469.099 248.837L465.946 243.297L464.339 240.512C464.309 240.459 464.285 240.404 464.269 240.348L455.104 224.236L455.062 224.149C455.025 224.06 455.006 223.964 455.006 223.866V122.459C449.715 122.221 445.463 117.989 445.195 112.706L445.182 112.176V74.2285C427.281 68.1229 413.119 53.9391 407.047 36.0225C406.999 36.0323 406.949 36.0371 406.898 36.0371H368.44L367.909 36.0244C362.719 35.7612 358.546 31.654 358.174 26.4932H130.527C130.496 26.4932 130.466 26.4908 130.437 26.4873C130.434 26.487 130.432 26.4857 130.429 26.4854C130.393 26.4807 130.359 26.4714 130.325 26.4619C130.302 26.4552 130.278 26.4487 130.254 26.4395C130.244 26.4355 130.234 26.4321 130.224 26.4277C130.2 26.417 130.176 26.4051 130.153 26.3916L113.797 16.9482H96.9006C96.8915 16.9484 96.8824 16.9484 96.8732 16.9482H62.2531C62.244 16.9484 62.2349 16.9484 62.2258 16.9482H26.719C26.5429 16.9482 26.383 16.8848 26.2551 16.7832L18.0734 12.0596L9.81563 16.8271C9.80587 16.8334 9.79742 16.8418 9.78731 16.8477C9.55542 16.9815 9.26928 16.9814 9.03731 16.8477L0.375201 11.8467C0.0641232 11.667 -0.0697497 11.2985 0.0353575 10.9697C0.0143731 10.9003 0.00313454 10.8275 0.00313095 10.7529V5.75195C0.00314349 5.48402 0.146092 5.23651 0.378131 5.10254L9.03926 0.101562C9.16963 0.0263726 9.31684 -0.00544607 9.46212 0.00390625C9.4843 0.00191941 9.5068 0.000988602 9.5295 0.000976562H278.763C278.769 0.000815945 278.776 2.80843e-10 278.782 0C278.789 2.83566e-06 278.795 0.000807499 278.802 0.000976562H296.087C296.093 0.000816998 296.1 2.79917e-10 296.107 0C296.113 3.35553e-06 296.12 0.000807015 296.126 0.000976562H313.408C313.415 0.000812388 313.421 2.83944e-10 313.428 0C313.434 1.01343e-06 313.441 0.000809359 313.447 0.000976562H382.703C382.71 0.000812388 382.716 2.83944e-10 382.723 0C382.729 1.01343e-06 382.736 0.000809359 382.742 0.000976562H400.025C400.031 0.000815945 400.038 2.80843e-10 400.044 0C400.051 2.83566e-06 400.057 0.000807499 400.064 0.000976562H417.348C417.354 0.000812388 417.361 2.83944e-10 417.367 0C417.374 1.01343e-06 417.38 0.000809359 417.387 0.000976562ZM471.821 282.694H475.09L479.225 275.533H475.955L471.821 282.694ZM470.253 282.408L471.892 279.571C471.872 279.546 471.854 279.519 471.837 279.49L469.554 275.534H466.284L470.253 282.408ZM470.853 274.786L472.753 278.078L474.656 274.782L472.756 271.49L470.853 274.786ZM466.287 274.033H469.557L473.692 266.871H470.422L466.287 274.033ZM473.617 269.997C473.637 270.022 473.656 270.049 473.672 270.077L475.955 274.033H479.225L475.256 267.159L473.617 269.997ZM476.388 266.12L479.774 271.983V260.257L476.388 266.12ZM471.821 265.37H475.09L479.035 258.537H475.766L471.821 265.37ZM470.253 265.084L471.892 262.246C471.872 262.221 471.854 262.194 471.837 262.165L469.554 258.209H466.284L470.253 265.084ZM470.854 257.461L472.754 260.753L474.414 257.878L472.514 254.586L470.854 257.461ZM473.379 253.086L475.472 256.711C475.489 256.71 475.506 256.709 475.523 256.709H478.74L475.014 250.255L473.379 253.086ZM470.563 249.549C470.521 249.587 470.476 249.623 470.425 249.652C470.396 249.669 470.366 249.682 470.336 249.694L466.287 256.709H469.557L473.691 249.549H470.563ZM465.827 239.387H469.989L470.088 239.394C470.317 239.424 470.522 239.559 470.639 239.762L475.631 248.409C475.634 248.413 475.637 248.418 475.64 248.422C475.662 248.459 475.678 248.499 475.693 248.539C475.764 248.596 475.828 248.666 475.877 248.75L479.774 255.499V224.99H475.076C474.809 224.99 474.561 224.847 474.427 224.615L469.44 215.977C469.435 215.969 469.429 215.961 469.424 215.953L465.826 209.723L465.827 239.387ZM467.284 242.614L470.421 248.047H473.691L469.557 240.887H466.302L467.284 242.614ZM456.506 223.667L464.326 237.415V206.986C464.322 206.94 464.322 206.893 464.326 206.847V189.661C464.322 189.615 464.322 189.569 464.326 189.523V172.339C464.322 172.293 464.322 172.248 464.326 172.202V156.206H456.506V223.667ZM475.509 223.49H478.779L474.644 216.328H471.374L475.509 223.49ZM475.943 215.579L479.774 222.214V208.944L475.943 215.579ZM470.506 214.828H473.776L469.642 207.668H466.372L470.506 214.828ZM473.442 211.25L475.075 214.081L478.779 207.668H475.509L473.442 211.25ZM470.939 206.917L472.575 209.75L474.209 206.92L472.573 204.086L470.939 206.917ZM466.372 206.167H469.642L471.707 202.586L470.073 199.755L466.372 206.167ZM475.506 206.167H478.776L474.642 199.006H471.372L475.506 206.167ZM479.774 204.895V199.008H476.374L479.774 204.895ZM465.826 204.111L469.207 198.255L465.826 192.398V204.111ZM476.375 197.508H479.774V191.624L476.375 197.508ZM471.377 197.505H474.647L478.781 190.344H475.512L471.377 197.505ZM470.075 196.759L471.71 193.928L469.642 190.344H466.372L470.075 196.759ZM470.941 189.597L472.575 192.429L474.212 189.595L472.577 186.763L470.941 189.597ZM473.443 185.263L475.51 188.844H478.779L475.077 182.432L473.443 185.263ZM466.376 188.843H469.646L473.779 181.683H470.509L466.376 188.843ZM479.774 187.565V181.685H476.377L479.774 187.565ZM465.826 186.794L469.208 180.935L465.826 175.077V186.794ZM476.374 180.185H479.774V174.298L476.374 180.185ZM470.505 180.182H473.775L469.641 173.021H466.371L470.505 180.182ZM473.441 176.604L475.075 179.435L478.779 173.021H475.509L473.441 176.604ZM470.939 172.271L472.575 175.104L474.209 172.273L472.573 169.439L470.939 172.271ZM466.371 171.521H469.641L471.707 167.939L470.073 165.108L466.371 171.521ZM475.506 171.521H478.776L474.642 164.359H471.372L475.506 171.521ZM479.774 170.248V164.359H476.373L479.774 170.248ZM465.826 169.465L469.206 163.61L465.826 157.757V169.465ZM476.374 162.859H479.774V156.973L476.374 162.859ZM471.374 162.858H474.644L478.778 155.698H475.508L471.374 162.858ZM470.072 162.112L471.707 159.281L469.64 155.698H466.37L470.072 162.112ZM470.939 154.95L472.573 157.781L474.209 154.948L472.574 152.116L470.939 154.95ZM464.326 117.434C462.697 120.17 459.836 122.087 456.506 122.418V154.706H464.326V137.672C464.324 137.64 464.324 137.607 464.326 137.575V117.434ZM466.373 154.197H469.643L473.777 147.036H470.507L466.373 154.197ZM473.441 150.616L475.507 154.197H478.777L475.074 147.785L473.441 150.616ZM465.826 136.874H470.074L470.173 136.881C470.402 136.911 470.607 137.046 470.724 137.249L475.725 145.911L479.774 152.922V125.384H475.079C474.812 125.384 474.564 125.24 474.43 125.009L469.428 116.346L465.826 110.108V136.874ZM465.826 152.144L469.208 146.285L465.826 140.428V152.144ZM470.507 145.536H473.777L469.642 138.374H466.372L470.507 145.536ZM475.512 123.884H478.781L474.647 116.722H471.377L475.512 123.884ZM475.946 115.974L479.774 122.603V109.345L475.946 115.974ZM446.716 112.926C447.097 117.431 450.872 120.97 455.476 120.971C460.08 120.971 463.857 117.432 464.238 112.926H446.716ZM470.51 115.221H473.779L469.646 108.061H466.376L470.51 115.221ZM473.446 111.644L475.08 114.475L478.783 108.061H475.514L473.446 111.644ZM446.682 111.426H464.326V77.4814C458.186 77.4241 452.262 76.4611 446.682 74.7188V111.426ZM470.943 107.31L472.579 110.144L474.214 107.312L472.578 104.477L470.943 107.31ZM455.751 80.5742C457.306 80.5744 458.568 81.8353 458.568 83.3906C458.568 84.5689 457.843 85.5759 456.816 85.9961L461.404 93.9414C461.521 94.1444 461.535 94.3893 461.447 94.6025L461.404 94.6914L456.816 102.636C457.843 103.056 458.567 104.064 458.568 105.242C458.568 106.798 457.306 108.058 455.751 108.059C454.196 108.059 452.935 106.798 452.935 105.242C452.935 104.063 453.66 103.054 454.689 102.635L450.103 94.6914C449.969 94.4595 449.969 94.1733 450.103 93.9414L454.689 85.998C453.66 85.5786 452.935 84.57 452.935 83.3906C452.935 81.8351 454.196 80.5742 455.751 80.5742ZM466.376 106.56H469.646L471.712 102.977L470.078 100.146L466.376 106.56ZM475.512 106.56H478.781L474.648 99.3984H471.378L475.512 106.56ZM455.751 103.926C455.024 103.926 454.435 104.515 454.435 105.242C454.435 105.969 455.024 106.559 455.751 106.559C456.478 106.558 457.068 105.969 457.068 105.242C457.067 104.515 456.478 103.926 455.751 103.926ZM479.774 105.277V99.3965H476.378L479.774 105.277ZM465.826 104.511L469.211 98.6475L465.826 92.7852V104.511ZM451.619 94.3174L455.754 101.479L459.889 94.3174L455.754 87.1553L451.619 94.3174ZM471.38 97.8975H474.65L478.783 90.7373H475.514L471.38 97.8975ZM476.381 97.8965H479.774V92.0215L476.381 97.8965ZM470.078 97.1514L471.713 94.3203L469.646 90.7373H466.376L470.078 97.1514ZM470.945 89.9893L472.579 92.8203L474.214 89.9883L472.58 87.1562L470.945 89.9893ZM466.379 89.2363H469.649L473.782 82.0752H470.513L466.379 89.2363ZM473.446 85.6562L475.512 89.2363H478.781L475.08 82.8252L473.446 85.6562ZM479.774 87.9541V82.0752H476.379L479.774 87.9541ZM465.826 87.1934L469.213 81.3271L465.826 75.4609V87.1934ZM455.751 82.0742C455.024 82.0742 454.435 82.6636 454.435 83.3906C454.435 84.1177 455.024 84.707 455.751 84.707C456.478 84.7068 457.068 84.1175 457.068 83.3906C457.068 82.6637 456.478 82.0744 455.751 82.0742ZM476.38 80.5752H479.774V74.6982L476.38 80.5752ZM470.51 80.5742H473.779L469.646 73.4141H466.376L470.51 80.5742ZM473.446 76.9971L475.08 79.8281L478.783 73.4141H475.514L473.446 76.9971ZM405.333 16.9482C405.623 49.4093 431.87 75.6705 464.326 75.9814V67.4443C436.586 67.1335 414.159 44.6941 413.87 16.9482H408.724C408.718 16.9484 408.713 16.9482 408.707 16.9482C408.704 16.9482 408.701 16.9483 408.698 16.9482H405.333ZM470.943 72.6631L472.579 75.4971L474.214 72.665L472.578 69.8301L470.943 72.6631ZM466.376 71.9131H469.646L471.712 68.3301L470.078 65.5L466.376 71.9131ZM475.512 71.9131H478.781L474.648 64.752H471.378L475.512 71.9131ZM479.774 70.6309V64.752H476.379L479.774 70.6309ZM465.826 69.8643L469.21 64.0029L465.826 58.1416V69.8643ZM415.37 16.9482C415.659 43.8656 437.414 65.6337 464.326 65.9443V55.3574C464.326 55.3454 464.326 55.3333 464.326 55.3213V29.752L449.649 32.501C449.641 32.5023 449.633 32.5018 449.626 32.5029C449.62 32.5039 449.613 32.504 449.607 32.5049C449.574 32.5092 449.541 32.5109 449.508 32.5107C449.504 32.5107 449.5 32.5108 449.495 32.5107C449.46 32.51 449.425 32.5076 449.391 32.502C449.384 32.5009 449.378 32.4983 449.371 32.4971C449.34 32.4911 449.309 32.4844 449.279 32.4746C449.268 32.471 449.257 32.4661 449.246 32.4619C449.219 32.4517 449.193 32.441 449.167 32.4277C449.165 32.4268 449.163 32.4267 449.161 32.4258C449.154 32.422 449.148 32.4161 449.141 32.4121C449.115 32.3974 449.089 32.3829 449.066 32.3652C449.055 32.3577 449.046 32.3489 449.036 32.3408C449.017 32.3249 448.998 32.309 448.98 32.291C448.968 32.2789 448.957 32.2658 448.946 32.2529C448.93 32.2353 448.915 32.2174 448.902 32.1982C448.891 32.1831 448.881 32.1673 448.871 32.1514C448.864 32.1387 448.855 32.1265 448.848 32.1133C448.846 32.11 448.845 32.1059 448.843 32.1025C448.832 32.0804 448.823 32.0573 448.814 32.0342C448.808 32.0192 448.802 32.0044 448.797 31.9893C448.792 31.9725 448.788 31.9556 448.783 31.9385C448.778 31.9163 448.772 31.8944 448.769 31.8721C448.766 31.854 448.766 31.8357 448.765 31.8174C448.764 31.8007 448.761 31.7842 448.761 31.7676V31.7461C448.761 31.7275 448.764 31.7091 448.766 31.6904C448.767 31.6741 448.769 31.6578 448.772 31.6416C448.773 31.6361 448.773 31.6305 448.774 31.625L451.522 16.9482H426.062C426.04 16.9492 426.019 16.9492 425.997 16.9482H415.37ZM476.379 63.252H479.774V57.373L476.379 63.252ZM471.379 63.251H474.649L478.783 56.0898H475.514L471.379 63.251ZM470.077 62.5059L471.711 59.6748L469.643 56.0898H466.373L470.077 62.5059ZM470.942 55.3408L472.577 58.1748L474.213 55.3418L472.577 52.5078L470.942 55.3408ZM466.375 54.5898H469.645L473.779 47.4287H470.509L466.375 54.5898ZM473.444 51.0078L475.511 54.5898H478.78L475.078 48.1768L473.444 51.0078ZM450.477 41.5225C450.722 41.4211 451 41.4578 451.209 41.6123L451.294 41.6855L451.562 41.9678C454.242 44.9347 454.153 49.5155 451.294 52.375C448.342 55.3269 443.556 55.3265 440.605 52.375C440.312 52.0822 440.312 51.6074 440.605 51.3145C440.879 51.04 441.314 51.0223 441.609 51.2627L441.665 51.3145L441.737 51.3789C442.118 51.6883 442.864 51.8067 444.01 51.4248C445.185 51.0332 446.562 50.1721 447.826 48.9072C449.091 47.6424 449.952 46.2654 450.344 45.0908C450.751 43.8689 450.589 43.1017 450.234 42.7461C450.093 42.6054 450.014 42.4147 450.014 42.2158C450.014 41.9126 450.197 41.6385 450.477 41.5225ZM471.541 27.9678C471.539 27.9748 471.535 27.9813 471.532 27.9883C471.524 28.0171 471.514 28.045 471.502 28.0723C471.498 28.0825 471.493 28.0926 471.488 28.1025C471.483 28.1143 471.477 28.1262 471.471 28.1377C471.463 28.1511 471.455 28.1638 471.446 28.1768C471.44 28.1865 471.434 28.1957 471.427 28.2051C471.42 28.2144 471.413 28.2234 471.406 28.2324C471.396 28.2461 471.385 28.2595 471.373 28.2725C471.369 28.2776 471.364 28.2831 471.36 28.2881V28.29C471.348 28.3019 471.335 28.3122 471.323 28.3232C471.313 28.3329 471.302 28.3425 471.291 28.3516C471.289 28.3538 471.286 28.3562 471.283 28.3584C471.271 28.3686 471.257 28.3773 471.243 28.3867C471.222 28.4013 471.201 28.4153 471.179 28.4277C471.169 28.4333 471.159 28.4383 471.149 28.4434C471.134 28.4508 471.118 28.4574 471.103 28.4639C471.093 28.4679 471.083 28.4729 471.073 28.4766C471.063 28.4805 471.052 28.4839 471.041 28.4873C471.027 28.4917 471.013 28.4945 470.998 28.498C470.984 28.5016 470.97 28.508 470.955 28.5107L465.99 29.4395L470.727 37.6416L475.721 46.293C475.723 46.2964 475.726 46.2993 475.728 46.3027L479.774 53.3105V31.6416C479.773 25.6132 477.999 20.0016 474.95 15.292L471.541 27.9678ZM451.767 45.5654C451.287 47.0043 450.281 48.574 448.887 49.9678C447.493 51.3615 445.923 52.368 444.485 52.8477C444.45 52.8592 444.414 52.8689 444.379 52.8799C446.401 53.4205 448.648 52.9007 450.234 51.3145C451.82 49.7283 452.34 47.4816 451.799 45.46C451.788 45.4949 451.778 45.5307 451.767 45.5654ZM465.826 52.54L469.21 46.6777L465.826 40.8154V52.54ZM440.052 33.6045C444.226 33.6047 447.61 36.9888 447.61 41.1631C447.609 45.3371 444.226 48.7215 440.052 48.7217C437.983 48.7217 436.108 47.8884 434.743 46.541C434.731 46.5292 434.717 46.5189 434.705 46.5068C434.687 46.4885 434.67 46.4698 434.654 46.4502C433.318 45.0871 432.494 43.2218 432.493 41.1631C432.493 36.9887 435.878 33.6045 440.052 33.6045ZM445.867 39.6973C445.388 41.136 444.381 42.7059 442.988 44.0996C441.594 45.4933 440.024 46.4998 438.585 46.9795C438.549 46.9914 438.513 47.0013 438.477 47.0127C438.979 47.1477 439.507 47.2217 440.052 47.2217C443.398 47.2215 446.109 44.5086 446.11 41.1631C446.11 40.6179 446.037 40.0894 445.902 39.5869C445.89 39.6236 445.88 39.6607 445.867 39.6973ZM470.509 45.9277H473.779L469.646 38.7676H466.376L470.509 45.9277ZM440.052 35.1045C436.706 35.1045 433.993 37.8171 433.993 41.1631C433.994 42.8434 434.678 44.3635 435.783 45.4609C436.146 45.805 436.907 45.9578 438.111 45.5566C439.285 45.165 440.662 44.3039 441.927 43.0391C443.192 41.7742 444.053 40.3972 444.445 39.2227C444.852 38.0006 444.689 37.2336 444.333 36.8779C444.33 36.8752 444.328 36.8719 444.325 36.8691C443.23 35.7785 441.72 35.1046 440.052 35.1045ZM428.81 29.8926C431.761 26.9411 436.548 26.941 439.499 29.8926C439.792 30.1854 439.792 30.6603 439.499 30.9531C439.206 31.2459 438.732 31.2458 438.439 30.9531C438.083 30.5975 437.315 30.4345 436.093 30.8418C434.918 31.2334 433.542 32.0956 432.278 33.3604C431.013 34.6252 430.151 36.0021 429.759 37.1768C429.352 38.3987 429.515 39.1658 429.87 39.5215C430.163 39.8143 430.163 40.2892 429.87 40.582C429.596 40.8566 429.161 40.8734 428.866 40.6328L428.81 40.582L428.541 40.2998C425.861 37.3328 425.95 32.752 428.81 29.8926ZM465.826 37.2666H468.778L465.826 32.1543V37.2666ZM435.723 29.3857C433.702 28.846 431.456 29.3676 429.87 30.9531C428.284 32.5389 427.763 34.7852 428.303 36.8066C428.314 36.7719 428.325 36.7367 428.336 36.7021C428.816 35.2632 429.823 33.6936 431.217 32.2998C432.611 30.906 434.18 29.8986 435.619 29.4189C435.654 29.4075 435.688 29.3966 435.723 29.3857ZM369.19 34.5371H406.566C404.838 28.9729 403.886 23.068 403.832 16.9482H391.401C391.39 16.9485 391.38 16.9485 391.369 16.9482H374.076C374.071 16.9484 374.065 16.9482 374.06 16.9482C374.057 16.9482 374.054 16.9483 374.051 16.9482H369.19V34.5371ZM367.69 16.9814C363.184 17.362 359.645 21.1386 359.645 25.7432C359.645 30.3474 363.184 34.1224 367.69 34.5029V16.9814ZM386.767 19.7695C386.98 19.6818 387.225 19.6963 387.428 19.8135L395.37 24.3994C395.79 23.372 396.799 22.6475 397.978 22.6475C399.533 22.6477 400.794 23.9086 400.794 25.4639C400.794 27.0192 399.533 28.2801 397.978 28.2803C396.799 28.2802 395.789 27.5561 395.369 26.5283L387.428 31.1143C387.196 31.2481 386.91 31.2479 386.678 31.1143L378.734 26.5273C378.314 27.5553 377.306 28.2802 376.127 28.2803C374.572 28.2802 373.311 27.0193 373.311 25.4639C373.311 23.9085 374.572 22.6475 376.127 22.6475C377.305 22.6476 378.313 23.3723 378.733 24.3994L386.678 19.8135L386.767 19.7695ZM451.754 30.5801L467.074 27.7109L456.883 25.4512L451.754 30.5801ZM379.89 25.4629L387.052 29.5977L394.214 25.4629L387.052 21.3281L379.89 25.4629ZM453.173 16.2744C453.17 16.3061 453.162 16.3368 453.155 16.3672L450.694 29.5186L455.822 24.3896L455.543 23.1309L453.562 14.1992L453.173 16.2744ZM376.127 24.1475C375.4 24.1475 374.811 24.7369 374.811 25.4639C374.811 26.1909 375.4 26.7802 376.127 26.7803C376.854 26.7801 377.444 26.1909 377.444 25.4639C377.443 24.737 376.854 24.1476 376.127 24.1475ZM397.978 24.1475C397.251 24.1475 396.661 24.737 396.661 25.4639C396.661 26.1909 397.251 26.7802 397.978 26.7803C398.705 26.7801 399.294 26.1908 399.294 25.4639C399.294 24.737 398.705 24.1477 397.978 24.1475ZM458.139 24.1924L469.762 26.7705L466.696 15.6357L458.139 24.1924ZM130.73 24.9932H217.399V16.9482H200.892C200.875 16.9493 200.859 16.9502 200.842 16.9502C200.826 16.9502 200.809 16.9493 200.793 16.9482H183.569C183.536 16.9504 183.503 16.9504 183.471 16.9482H166.246C166.214 16.9504 166.181 16.9504 166.149 16.9482H116.796L130.73 24.9932ZM322.839 24.9932H358.174C358.42 21.583 360.324 18.6332 363.087 16.9482H322.839V24.9932ZM218.899 24.9727H321.339V16.9482H304.784C304.775 16.9484 304.766 16.9484 304.757 16.9482H270.135C270.126 16.9484 270.117 16.9484 270.108 16.9482H235.522C235.5 16.9492 235.479 16.9492 235.457 16.9482H218.899V24.9727ZM472.818 9.51465L467.916 14.416L470.808 24.915L475.736 6.5957L472.818 9.51465ZM457.079 23.1309L465.635 14.5752L454.502 11.5107L457.079 23.1309ZM18.4045 5.52148C18.4195 5.52884 18.4348 5.53554 18.4494 5.54395C18.4508 5.54475 18.4519 5.54606 18.4533 5.54688L27.1106 10.5449C27.3135 10.6622 27.4483 10.8669 27.4787 11.0957L27.4856 11.1943V15.4482H59.4387L53.2033 11.8477C53.1958 11.8433 53.1891 11.8376 53.1818 11.833L44.5412 6.84473C44.3095 6.71069 44.1662 6.46308 44.1662 6.19531V1.50098H11.4397L18.4045 5.52148ZM65.0393 15.4482H76.7668L70.9025 12.0625L65.0393 15.4482ZM82.3596 15.4482H94.0861L88.2229 12.0625L82.3596 15.4482ZM99.6848 15.4482H111.407L105.546 12.0635L99.6848 15.4482ZM117.007 15.4482H128.738L122.871 12.0615L117.007 15.4482ZM116.24 1.50098L123.247 5.5459L131.909 10.5469C132.112 10.6642 132.247 10.8688 132.278 11.0977L132.284 11.1963V15.4482H163.392L157.166 11.8535C157.164 11.8521 157.161 11.851 157.158 11.8496L148.496 6.84863C148.265 6.71464 148.121 6.46675 148.121 6.19922V1.50098H116.24ZM169.002 15.4482H180.716L174.858 12.0664L169.002 15.4482ZM186.317 15.4482H198.036L192.177 12.0645L186.317 15.4482ZM203.647 15.4482H215.36L209.503 12.0664L203.647 15.4482ZM220.968 15.4482H232.686L226.826 12.0654L220.968 15.4482ZM227.202 5.54883L235.864 10.5508C236.067 10.6681 236.202 10.8728 236.233 11.1016L236.239 11.2002V15.4482H267.321L261.085 11.8477C261.083 11.8466 261.082 11.8448 261.08 11.8438L252.422 6.8457C252.19 6.71174 252.047 6.46387 252.047 6.19629V1.50098H220.192L227.202 5.54883ZM272.922 15.4482H284.646L278.783 12.0635L272.922 15.4482ZM290.238 15.4482H301.97L296.105 12.0605L290.238 15.4482ZM307.57 15.4482H319.289L313.429 12.0645L307.57 15.4482ZM324.887 15.4482H336.617L330.752 12.0615L324.887 15.4482ZM331.125 5.54492C331.126 5.5456 331.128 5.54619 331.129 5.54688L339.791 10.5479C339.994 10.6652 340.129 10.8698 340.159 11.0986L340.166 11.1973V15.4482H371.26L365.025 11.8477C365.023 11.8466 365.021 11.8448 365.02 11.8438L356.362 6.8457C356.13 6.71173 355.987 6.4639 355.987 6.19629V1.50098H324.121L331.125 5.54492ZM376.861 15.4482H388.584L382.722 12.0635L376.861 15.4482ZM394.181 15.4482H405.907L400.044 12.0625L394.181 15.4482ZM411.508 15.4482H423.227L417.367 12.0645L411.508 15.4482ZM428.825 15.4482H440.554L434.69 12.0625L428.825 15.4482ZM444.103 15.4482H449.215L444.103 12.4961V15.4482ZM428.06 1.50098L435.066 5.5459L443.728 10.5479C443.73 10.549 443.732 10.5506 443.734 10.5518L451.842 15.2324L452.759 10.3369C452.759 10.3343 452.76 10.3317 452.76 10.3291C452.767 10.2909 452.777 10.2535 452.789 10.2168C452.791 10.2115 452.793 10.2064 452.795 10.2012C452.798 10.1933 452.801 10.1855 452.804 10.1777C452.808 10.1677 452.811 10.1573 452.816 10.1475L452.839 10.1006C452.842 10.0956 452.845 10.0909 452.848 10.0859C452.85 10.0821 452.851 10.078 452.854 10.0742C452.865 10.0551 452.878 10.0367 452.891 10.0186C452.897 10.0101 452.903 10.0014 452.909 9.99316C452.912 9.98988 452.915 9.98664 452.917 9.9834L452.927 9.97168C452.933 9.96499 452.939 9.95863 452.945 9.95215C452.957 9.93856 452.969 9.92487 452.983 9.91211C452.988 9.9068 452.994 9.9016 453 9.89648C453.011 9.88693 453.022 9.87807 453.033 9.86914C453.047 9.85824 453.061 9.84774 453.075 9.83789C453.081 9.83427 453.087 9.83162 453.092 9.82812C453.105 9.81966 453.118 9.8104 453.131 9.80273C453.145 9.79507 453.159 9.789 453.173 9.78223C453.182 9.77804 453.191 9.77437 453.199 9.77051C453.22 9.76135 453.241 9.75238 453.263 9.74512C453.282 9.73889 453.3 9.73226 453.32 9.72754L465.98 6.32129C461.269 3.2728 455.657 1.50098 449.627 1.50098H428.06ZM158.286 10.7686L165.446 14.9023V11.6328L158.286 7.49902V10.7686ZM192.931 10.7686L200.092 14.9023V11.6328L192.931 7.49805V10.7686ZM201.593 11.6328V14.9023L208.004 11.1992L205.174 9.56543L201.593 11.6328ZM211.001 11.2002L217.415 14.9023V11.6328L213.832 9.56543L211.001 11.2002ZM227.577 10.7676L234.739 14.9023V11.6328L227.577 7.49805V10.7676ZM107.045 11.1973L113.46 14.9014V11.6318L109.875 9.5625L107.045 11.1973ZM166.947 11.6318V14.9014L173.358 11.1992L170.528 9.56543L166.947 11.6318ZM54.3283 10.7656L61.4895 14.9004V11.6309L54.3283 7.49609V10.7656ZM176.355 11.1982L182.768 14.9004V11.6309L179.186 9.56445L176.355 11.1982ZM262.21 10.7656L269.371 14.9004V11.6309L262.21 7.49609V10.7656ZM270.871 11.6309V14.9004L277.283 11.1973L274.453 9.5625L270.871 11.6309ZM384.22 11.1963L390.635 14.9004V11.6309L387.051 9.5625L384.22 11.1963ZM418.864 11.1973L425.279 14.9004V11.6309L421.696 9.56348L418.864 11.1973ZM1.86641 10.9756L8.66231 14.8994V11.6299L4.70626 9.34668C4.70326 9.34495 4.70043 9.34258 4.69747 9.34082L1.86641 10.9756ZM62.9895 11.6299V14.8994L69.4006 11.1963L66.5705 9.5625L62.9895 11.6299ZM72.3996 11.1943L78.8156 14.8994V11.6299L75.2297 9.56055L72.3996 11.1943ZM88.9777 10.7666L96.1359 14.8994V11.6299L88.9777 7.49707V10.7666ZM218.917 11.6299V14.8994L226.077 10.7666V7.49707L218.917 11.6299ZM280.279 11.1953L286.695 14.8994V11.6299L283.111 9.56152L280.279 11.1953ZM314.926 11.1973L321.34 14.8994V11.6299L317.757 9.5625L314.926 11.1973ZM331.504 10.7646L338.666 14.8994V11.6299L331.504 7.49512V10.7646ZM366.15 10.7656L373.31 14.8994V11.6299L366.15 7.49609V10.7656ZM374.811 11.6299V14.8994L381.221 11.1973L378.391 9.56348L374.811 11.6299ZM400.797 10.7656L407.957 14.8994V11.6299L400.797 7.49609V10.7656ZM409.458 11.6299V14.8994L415.868 11.1973L413.038 9.56348L409.458 11.6299ZM97.6369 11.6289V14.8984L104.047 11.1963L101.217 9.5625L97.6369 11.6289ZM114.96 11.6289V14.8984L122.122 10.7637V7.49414L114.96 11.6289ZM123.622 10.7637L130.784 14.8984V11.6289L123.622 7.49414V10.7637ZM296.86 10.7656L304.019 14.8984V11.6289L296.86 7.49609V10.7656ZM305.521 11.6289V14.8984L311.931 11.1973L309.101 9.5625L305.521 11.6289ZM435.441 10.7646L442.602 14.8984V11.6289L435.441 7.49512V10.7646ZM184.27 11.6279V14.8975L191.43 10.7646V7.49512L184.27 11.6279ZM392.135 11.6279V14.8975L399.297 10.7627V7.49316L392.135 11.6279ZM426.779 11.6279V14.8975L433.941 10.7637V7.49414L426.779 11.6279ZM14.1086 9.34766C14.0938 9.35596 14.08 9.36579 14.0647 9.37305L10.1623 11.627V14.8965L17.3234 10.7617V7.49219L14.1086 9.34766ZM18.8244 10.7617L25.9856 14.8965V11.627L18.8244 7.49219V10.7617ZM80.3156 11.627V14.8965L87.4758 10.7627V7.49316L80.3156 11.627ZM288.195 11.627V14.8965L295.357 10.7617V7.49219L288.195 11.627ZM322.842 11.627V14.8965L330.002 10.7637V7.49414L322.842 11.627ZM456.355 10.4639L466.855 13.3555L474.675 5.53613L456.355 10.4639ZM163.363 8.69824L166.196 10.334L169.028 8.69922L166.194 7.06348L163.363 8.69824ZM198.007 8.69727L200.842 10.334L203.674 8.69922L200.839 7.0625L198.007 8.69727ZM215.332 8.69922L218.163 10.334L220.996 8.69824L218.164 7.06348L215.332 8.69922ZM180.686 8.69824L183.516 10.332L186.349 8.69629L183.519 7.0625L180.686 8.69824ZM267.286 8.69531L270.121 10.332L272.953 8.69727L270.118 7.06055L267.286 8.69531ZM59.4045 8.69531L62.2385 10.3311L65.0705 8.69629L62.2365 7.06055L59.4045 8.69531ZM94.052 8.69531L96.885 10.3311L99.717 8.69629L96.883 7.06055L94.052 8.69531ZM111.375 8.69727L114.207 10.3311L117.041 8.69531L114.209 7.06055L111.375 8.69727ZM301.935 8.69434L304.77 10.3311L307.601 8.69727L304.766 7.06055L301.935 8.69434ZM319.257 8.69629L322.088 10.3311L324.921 8.69531L322.089 7.06055L319.257 8.69629ZM371.227 8.69531L374.06 10.3311L376.891 8.69727L374.057 7.06152L371.227 8.69531ZM405.874 8.69531L408.707 10.3311L411.538 8.69727L408.704 7.06152L405.874 8.69531ZM423.196 8.69727L426.026 10.3311L428.86 8.69531L426.029 7.06055L423.196 8.69727ZM388.551 8.69629L391.382 10.3301L394.216 8.69434L391.385 7.05957L388.551 8.69629ZM6.19649 8.47461L9.40938 10.3291L12.2404 8.69531L9.03731 6.84668C9.03396 6.84474 9.03086 6.84183 9.02755 6.83984L6.19649 8.47461ZM76.7297 8.69434L79.5627 10.3291L82.3967 8.69336L79.5637 7.05762L76.7297 8.69434ZM284.611 8.69531L287.442 10.3291L290.276 8.69336L287.445 7.05859L284.611 8.69531ZM149.621 5.7666L156.783 9.90137V6.63184L149.621 2.49707V5.7666ZM166.947 5.7666L174.109 9.90137V6.63184L166.947 2.49707V5.7666ZM201.593 5.7666L208.754 9.90039V6.63086L201.593 2.49707V5.7666ZM210.255 6.62988V9.89941L217.415 5.76562V2.49609L210.255 6.62988ZM374.811 5.76465L381.972 9.89941V6.62988L374.811 2.49512V5.76465ZM62.9904 5.76367L70.1516 9.89844V6.62891L62.9904 2.49414V5.76367ZM97.6369 5.76367L104.798 9.89844V6.62891L97.6369 2.49414V5.76367ZM175.609 6.62891V9.89844L182.768 5.76465V2.49512L175.609 6.62891ZM253.547 5.76367L260.709 9.89844V6.62891L253.547 2.49414V5.76367ZM270.871 5.76367L278.033 9.89844V6.62891L270.871 2.49414V5.76367ZM357.487 5.76367L364.649 9.89844V6.62891L357.487 2.49414V5.76367ZM409.459 5.76562L416.618 9.89844V6.62891L409.459 2.49609V5.76562ZM45.6662 5.7627L52.8283 9.89746V6.62793L45.6662 2.49316V5.7627ZM106.333 6.60742C106.328 6.66074 106.314 6.71128 106.298 6.76074V9.89746L113.459 5.7627V2.49316L106.333 6.60742ZM305.519 5.76367L312.679 9.89648V6.62695L305.519 2.49414V5.76367ZM383.474 6.62695V9.89648L390.635 5.76172V2.49219L383.474 6.62695ZM418.119 6.62695V9.89648L425.279 5.7627V2.49316L418.119 6.62695ZM279.533 6.62598V9.89551L286.695 5.76074V2.49121L279.533 6.62598ZM314.181 6.62598V9.89551L321.34 5.7627V2.49316L314.181 6.62598ZM71.6535 6.625V9.89453L78.8147 5.75977V2.49023L71.6535 6.625ZM1.50313 6.18457V9.4541L8.66231 5.32031V2.05078L1.50313 6.18457ZM159.031 6.19727L161.863 7.83203L165.446 5.76367V2.49414L159.031 6.19727ZM218.915 5.76562L222.496 7.83203L225.327 6.19727L218.915 2.49609V5.76562ZM193.676 6.19629L196.507 7.83105L200.091 5.76367V2.49414L193.676 6.19629ZM184.27 5.76465L187.849 7.83008L190.68 6.19531L184.27 2.49512V5.76465ZM401.544 6.19531L404.374 7.83008L407.957 5.76172V2.49219L401.544 6.19531ZM10.1643 5.75195C10.1643 5.75619 10.1634 5.76042 10.1633 5.76465L13.7395 7.8291L16.5705 6.19434L10.1643 2.49609V5.75195ZM55.0744 6.19531L57.9045 7.8291L61.4895 5.76074V2.49121L55.0744 6.19531ZM89.7199 6.19434L92.552 7.8291L96.1359 5.76074V2.49121L89.7199 6.19434ZM114.96 5.7627L118.541 7.8291L121.372 6.19434L114.96 2.49316V5.7627ZM262.955 6.19434L265.786 7.8291L269.371 5.76074V2.49121L262.955 6.19434ZM322.84 5.7627L326.421 7.8291L329.252 6.19434L322.84 2.49316V5.7627ZM366.896 6.19531L369.727 7.8291L373.31 5.76172V2.49219L366.896 6.19531ZM426.779 5.7627L430.36 7.8291L433.191 6.19434L426.779 2.49316V5.7627ZM297.604 6.19434L300.435 7.82812L304.019 5.76074V2.49121L297.604 6.19434ZM392.135 5.76172L395.716 7.82812L398.547 6.19336L392.135 2.49219V5.76172ZM80.3156 5.76074L83.8967 7.82715L86.7277 6.19238L80.3156 2.49121V5.76074ZM288.195 5.76074L291.776 7.82715L294.607 6.19238L288.195 2.49121V5.76074ZM365.397 5.3291L372.029 1.50098H358.766L365.397 5.3291ZM53.5764 5.32812L60.2063 1.50098H46.9475L53.5764 5.32812ZM261.456 5.32812L268.087 1.50098H254.826L261.456 5.32812ZM104.837 4.91895V1.50098H98.9152L104.837 4.91895ZM156.783 4.89941V1.50098H150.896L156.783 4.89941ZM174.108 4.89941V1.50098H168.221L174.108 4.89941ZM208.755 4.89941V1.50098H202.867L208.755 4.89941ZM70.1535 4.89844V1.50098H64.2688L70.1535 4.89844ZM158.283 4.89844L164.168 1.50098H158.283V4.89844ZM210.255 4.89844L216.14 1.50098H210.255V4.89844ZM381.973 4.89844V1.50098H376.087L381.973 4.89844ZM175.608 4.89746L181.49 1.50098H175.608V4.89746ZM191.43 4.89648V1.50098H185.547L191.43 4.89648ZM192.93 4.89648L198.812 1.50098H192.93V4.89648ZM314.178 4.89648L320.059 1.50098H314.178V4.89648ZM416.617 4.89648V1.50098H410.735L416.617 4.89648ZM278.032 4.89551V1.50098H272.151L278.032 4.89551ZM88.9729 4.89551L94.8527 1.50098H88.9729V4.89551ZM312.678 4.89551V1.50098H306.798L312.678 4.89551ZM400.794 4.89551L406.675 1.50098H400.794V4.89551ZM418.117 4.89551L423.998 1.50098H418.117V4.89551ZM383.473 4.89453L389.353 1.50098H383.473V4.89453ZM279.532 4.89355L285.41 1.50098H279.532V4.89355ZM295.357 4.89355V1.50098H289.479L295.357 4.89355ZM296.857 4.89355L302.735 1.50098H296.857V4.89355ZM399.294 4.89355V1.50098H393.417L399.294 4.89355ZM71.6535 4.89258L77.5285 1.50098H71.6535V4.89258ZM87.4729 4.89062V1.50098H81.6008L87.4729 4.89062ZM106.337 4.87305L112.178 1.50098H106.337V4.87305Z" fill="var(--fill-0, #FFAC38)"/>
</g>
</svg>
