<svg preserveAspectRatio="none" width="100%" height="100%" overflow="visible" style="display: block;" viewBox="0 0 48 48" fill="none" xmlns="http://www.w3.org/2000/svg">
<g id="Group 3486">
<path id="Path 11837" d="M24 0C19.2532 0 14.6131 1.40757 10.6663 4.04472C6.71956 6.68187 3.6434 10.4302 1.8269 14.8156C0.0103996 19.201 -0.464881 24.0266 0.461164 28.6822C1.38721 33.3377 3.673 37.6141 7.02946 40.9705C10.3859 44.327 14.6623 46.6128 19.3178 47.5388C23.9734 48.4649 28.799 47.9896 33.1844 46.1731C37.5698 44.3566 41.3181 41.2804 43.9553 37.3337C46.5924 33.3869 48 28.7467 48 24C47.9997 17.6349 45.4711 11.5305 40.9703 7.0297C36.4694 2.52888 30.3651 0.000255858 24 0Z" fill="var(--fill-0, #0E51A4)"/>
<path id="Path 11838" d="M16.9569 14.4748H16.1561C14.6366 14.4748 13.8079 15.3315 13.8079 17.044V25.3026C13.8079 27.4251 13.0901 28.1757 11.4056 28.1757C10.773 28.1761 10.149 28.0289 9.58322 27.7459C9.01746 27.4628 8.52554 27.0517 8.14652 26.5452C7.58531 26.7473 7.10453 27.1255 6.77604 27.6233C6.44756 28.1212 6.28899 28.712 6.32404 29.3074C6.32404 31.5177 8.39447 32.8704 12.2343 32.8704C16.9019 32.8704 19.3602 30.523 19.3602 25.3855V17.044C19.3602 15.3267 18.5315 14.4748 16.9569 14.4748ZM24.188 18.6456H23.6352C22.2845 18.6456 21.2599 19.2813 21.2599 21.2148V30.0532C21.2599 32.0136 22.2546 32.6224 23.6911 32.6224H24.243C25.5937 32.6224 26.5585 31.9586 26.5585 30.0532V21.2119C26.5633 19.2264 25.6245 18.6456 24.188 18.6456ZM23.8841 12.2384C22.1716 12.2384 21.0949 13.2032 21.0949 14.7247C21.0949 16.2683 22.1996 17.238 23.967 17.238C25.6795 17.238 26.7572 16.2732 26.7572 14.7247C26.7572 13.1762 25.6525 12.2394 23.8841 12.2394V12.2384ZM35.558 18.5095C31.0283 18.5095 28.0172 21.3827 28.0172 25.6634C28.0172 30.0551 30.9174 32.8723 35.475 32.8723C40.0095 32.8723 42.9878 30.0551 42.9878 25.6904C42.9858 21.3807 40.0307 18.5105 35.556 18.5105L35.558 18.5095ZM35.503 28.8125C34.8756 28.8439 34.2532 28.6865 33.7162 28.3604C33.1793 28.0343 32.7525 27.5547 32.4911 26.9835C32.2297 26.4123 32.1456 25.7758 32.2498 25.1563C32.354 24.5368 32.6417 23.9628 33.0756 23.5086C33.5095 23.0543 34.0697 22.7407 34.6837 22.6082C35.2978 22.4757 35.9375 22.5305 36.5201 22.7655C37.1027 23.0005 37.6014 23.4048 37.9517 23.9263C38.302 24.4477 38.4878 25.0622 38.4851 25.6904C38.5055 26.094 38.4433 26.4975 38.3023 26.8761C38.1614 27.2548 37.9447 27.6008 37.6654 27.8929C37.3862 28.1849 37.0503 28.4169 36.6783 28.5747C36.3063 28.7325 35.9061 28.8128 35.502 28.8105L35.503 28.8125Z" fill="var(--fill-0, white)"/>
</g>
</svg>
