<svg preserveAspectRatio="none" width="100%" height="100%" overflow="visible" style="display: block;" viewBox="0 0 28 28" fill="none" xmlns="http://www.w3.org/2000/svg">
<g id="Group 3486">
<path id="Path 11837" d="M14 0C11.2311 0 8.52431 0.82108 6.22203 2.35942C3.91974 3.89776 2.12532 6.08426 1.06569 8.64242C0.0060664 11.2006 -0.271181 14.0155 0.269012 16.7313C0.809205 19.447 2.14258 21.9415 4.10052 23.8995C6.05845 25.8574 8.553 27.1908 11.2687 27.731C13.9845 28.2712 16.7994 27.9939 19.3576 26.9343C21.9157 25.8747 24.1022 24.0803 25.6406 21.778C27.1789 19.4757 28 16.7689 28 14C27.9998 10.287 26.5248 6.72613 23.8993 4.10066C21.2738 1.47518 17.713 0.000149251 14 0Z" fill="var(--fill-0, #0E51A4)"/>
<path id="Path 11838" d="M9.89144 8.44354H9.42431C8.53792 8.44354 8.05449 8.9433 8.05449 9.94225V14.7597C8.05449 15.9979 7.63578 16.4357 6.65314 16.4357C6.28412 16.436 5.92013 16.3501 5.59011 16.185C5.26009 16.0199 4.97314 15.7801 4.75204 15.4846C4.42467 15.6025 4.14421 15.8231 3.95259 16.1135C3.76098 16.4039 3.66848 16.7486 3.68892 17.0959C3.68892 18.3852 4.89668 19.1743 7.13658 19.1743C9.85937 19.1743 11.2934 17.805 11.2934 14.8081V9.94225C11.2934 8.94049 10.8099 8.44354 9.89144 8.44354ZM14.1096 10.8765H13.7871C12.9992 10.8765 12.4015 11.2474 12.4015 12.3752V17.5309C12.4015 18.6745 12.9817 19.0296 13.8197 19.0296H14.1416C14.9295 19.0296 15.4923 18.6424 15.4923 17.5309V12.3735C15.4951 11.2153 14.9476 10.8765 14.1096 10.8765ZM13.9323 7.139C12.9333 7.139 12.3053 7.70179 12.3053 8.58931C12.3053 9.48977 12.9496 10.0554 13.9807 10.0554C14.9796 10.0554 15.6083 9.49259 15.6083 8.58931C15.6083 7.68603 14.9639 7.13956 13.9323 7.13956V7.139ZM20.742 10.7971C18.0997 10.7971 16.3433 12.4731 16.3433 14.9702C16.3433 17.5321 18.035 19.1754 20.6937 19.1754C23.3388 19.1754 25.0761 17.5321 25.0761 14.986C25.075 12.472 23.3511 10.7977 20.7409 10.7977L20.742 10.7971ZM20.71 16.8072C20.344 16.8255 19.9809 16.7337 19.6677 16.5435C19.3545 16.3533 19.1055 16.0735 18.953 15.7403C18.8005 15.4071 18.7515 15.0358 18.8123 14.6744C18.8731 14.313 19.0409 13.9782 19.294 13.7132C19.5471 13.4483 19.8739 13.2653 20.2321 13.188C20.5903 13.1108 20.9634 13.1427 21.3033 13.2798C21.6431 13.4169 21.934 13.6527 22.1384 13.9569C22.3427 14.2611 22.4511 14.6196 22.4496 14.986C22.4614 15.2214 22.4251 15.4568 22.3429 15.6777C22.2607 15.8986 22.1343 16.1004 21.9714 16.2708C21.8085 16.4411 21.6126 16.5765 21.3956 16.6685C21.1786 16.7606 20.9451 16.8074 20.7094 16.8061L20.71 16.8072Z" fill="var(--fill-0, white)"/>
</g>
</svg>
