<svg width="24" height="24" viewBox="0 0 24 24" fill="none" xmlns="http://www.w3.org/2000/svg">
<path d="M20.2296 9.87109H19.1352V20.8439H20.2296V9.87109Z" fill="#1B6FAE"/>
<path d="M19.1352 20.844H18.0336V21.9456H19.1352V20.844Z" fill="#1B6FAE"/>
<path d="M19.1352 8.77686H18.0336V9.87126H19.1352V8.77686Z" fill="#1B6FAE"/>
<path d="M18.0336 7.68237H15.8448V8.77677H18.0336V7.68237Z" fill="#1B6FAE"/>
<path d="M18.0336 21.9456H5.9664V23.04H18.0336V21.9456Z" fill="#1B6FAE"/>
<path d="M11.4528 0V1.0944H10.3584V2.196H9.2568V3.2904H8.1624V4.3848H7.068V5.4864H10.3584V12.0672H13.6488V5.4864H16.9392V4.3848H15.8448V3.2904H14.7432V2.196H13.6488V1.0944H12.5472V0H11.4528Z" fill="#1B6FAE"/>
<path d="M8.1624 7.68237H5.9664V8.77677H8.1624V7.68237Z" fill="#1B6FAE"/>
<path d="M5.9664 20.844H4.872V21.9456H5.9664V20.844Z" fill="#1B6FAE"/>
<path d="M5.9664 8.77686H4.872V9.87126H5.9664V8.77686Z" fill="#1B6FAE"/>
<path d="M4.872 9.87109H3.7704V20.8439H4.872V9.87109Z" fill="#1B6FAE"/>
</svg>
