<svg width="24" height="24" viewBox="0 0 24 24" fill="none" xmlns="http://www.w3.org/2000/svg">
<g clip-path="url(#clip0_1661_28399)">
<path d="M2.8575 0.570029L2.8575 1.71753L21.1425 1.71753L21.1425 0.570028L2.8575 0.570029Z" fill="#1B6FAE"/>
<path d="M21.1425 1.71742L21.1425 2.85742L22.2825 2.85742L22.2825 1.71742L21.1425 1.71742Z" fill="#1B6FAE"/>
<path d="M1.71 1.71742L1.71 2.85742L2.8575 2.85742L2.8575 1.71742L1.71 1.71742Z" fill="#1B6FAE"/>
<path d="M22.2825 2.85734L22.2825 21.1423L23.43 21.1423L23.43 2.85734L22.2825 2.85734Z" fill="#1B6FAE"/>
<path d="M14.28 6.28505L14.28 3.99755L13.14 3.99755L13.14 2.85755L10.8525 2.85755L10.8525 3.99755L9.7125 3.99755L9.7125 6.28505L10.8525 6.28505L10.8525 7.42505L13.14 7.42505L13.14 6.28505L14.28 6.28505Z" fill="#1B6FAE"/>
<path d="M14.28 13.1399L14.28 10.8599L13.14 10.8599L13.14 9.71235L10.8525 9.71235L10.8525 10.8599L9.7125 10.8599L9.7125 13.1399L10.8525 13.1399L10.8525 14.2874L13.14 14.2874L13.14 13.1399L14.28 13.1399Z" fill="#1B6FAE"/>
<path d="M9.7125 20.0023L10.8525 20.0023L10.8525 21.1423L13.14 21.1423L13.14 20.0023L14.28 20.0023L14.28 17.7148L13.14 17.7148L13.14 16.5673L10.8525 16.5673L10.8525 17.7148L9.7125 17.7148L9.7125 20.0023Z" fill="#1B6FAE"/>
<path d="M0.57 2.85734L0.570001 21.1423L1.71 21.1423L1.71 2.85734L0.57 2.85734Z" fill="#1B6FAE"/>
<path d="M21.1425 21.1425L21.1425 22.2825L22.2825 22.2825L22.2825 21.1425L21.1425 21.1425Z" fill="#1B6FAE"/>
<path d="M1.71 21.1425L1.71 22.2825L2.8575 22.2825L2.8575 21.1425L1.71 21.1425Z" fill="#1B6FAE"/>
<path d="M2.8575 22.2824L2.8575 23.4299L21.1425 23.4299L21.1425 22.2824L2.8575 22.2824Z" fill="#1B6FAE"/>
</g>
<defs>
<clipPath id="clip0_1661_28399">
<rect width="24" height="24" fill="white" transform="translate(1.04907e-06 24) rotate(-90)"/>
</clipPath>
</defs>
</svg>
