<svg width="28" height="29" viewBox="0 0 28 29" fill="none" xmlns="http://www.w3.org/2000/svg">
<path d="M24.7772 8.7L11.2126 0.870672C10.8155 0.641446 10.3622 0.520264 9.90178 0.520264C9.44133 0.520264 8.98792 0.641446 8.59074 0.870777L2.47772 4.40019C1.66907 4.86705 1.16669 5.73719 1.16669 6.67101V22.329C1.16669 23.2631 1.66918 24.1333 2.47825 24.6002L8.59526 28.1298C8.99223 28.3589 9.44532 28.48 9.90546 28.48C10.3656 28.48 10.8195 28.3588 11.2168 28.1295L24.7775 20.3003C25.5862 19.8334 26.0887 18.9633 26.0887 18.0294V10.9709C26.0887 10.0371 25.5863 9.16686 24.7774 8.7H24.7772Z" fill="white"/>
<path d="M24.3085 9.44524L10.7451 1.63066C10.196 1.31419 9.51345 1.31419 8.96417 1.63066L2.85163 5.15344C2.30235 5.47001 1.96109 6.06003 1.96109 6.69327V22.3219C1.96109 22.9553 2.30245 23.5454 2.85203 23.862L8.96844 27.3849C9.24308 27.5431 9.55078 27.6222 9.85868 27.6222C10.1667 27.6222 10.4746 27.543 10.7492 27.3847L24.3087 19.5702C24.858 19.2536 25.1993 18.6636 25.1993 18.0303V10.9851C25.1993 10.3518 24.8579 9.76181 24.3086 9.44514L24.3085 9.44524Z" fill="#37364C"/>
<path d="M15.8762 23.646C16.3368 23.3806 16.3368 22.717 15.8762 22.4516L13.4869 21.0746L11.0977 19.6977C10.6371 19.4322 10.0614 19.7641 10.0614 20.2949V25.8028C10.0614 26.3337 10.6371 26.6655 11.0977 26.4001L15.8762 23.6461V23.646Z" fill="#FF85A6"/>
<path d="M9.11242 2.24915L3.62094 5.41393C3.26091 5.62138 3.26091 6.14004 3.62094 6.34748L8.72816 9.29085C9.42896 9.69473 10.2923 9.69473 10.993 9.29085L16.0982 6.34867C16.4583 6.14123 16.4583 5.62257 16.0982 5.41512L10.6048 2.24915C10.143 1.98303 9.57422 1.98303 9.11242 2.24915Z" fill="#F6B40E"/>
<path d="M2.61456 14.4641V22.5171C2.61456 22.7775 2.75367 23.018 2.97956 23.1482L8.79134 26.4977C9.17749 26.7202 9.66014 26.4421 9.66014 25.997V11.5028C9.66014 10.7519 9.2588 10.058 8.60726 9.68243L3.47184 6.72281C3.09076 6.50318 2.61456 6.77772 2.61456 7.21689V14.4641Z" fill="#74ACDF"/>
<path d="M24.5578 17.2228V10.6846C24.5578 10.439 24.4266 10.2122 24.2135 10.0894L18.3775 6.72595C17.9929 6.50433 17.5124 6.78135 17.5124 7.22459V13.9562C17.5124 14.2018 17.6436 14.4286 17.8567 14.5514L23.5249 17.8181C23.984 18.0826 24.5578 17.752 24.5578 17.2228Z" fill="white"/>
<path d="M11.0815 17.8255L16.7079 14.583C16.9599 14.4377 17.1152 14.1693 17.1152 13.8788V7.37712C17.1152 6.86392 16.5587 6.54318 16.1134 6.79979L11.3098 9.56822C10.5374 10.0134 10.0615 10.8362 10.0615 11.7266V17.2376C10.0615 17.7602 10.6281 18.0868 11.0815 17.8255Z" fill="white"/>
<path d="M10.9848 19.1754L16.9446 22.6101C17.1705 22.7402 17.4488 22.7402 17.6747 22.6101L23.6885 19.1442C23.9866 18.9724 23.9866 18.5429 23.6885 18.3711L17.6747 14.9052C17.4488 14.7751 17.1705 14.7751 16.9446 14.9052L10.9848 18.3399C10.6626 18.5255 10.6626 18.9898 10.9848 19.1754Z" fill="white"/>
<path d="M19.8666 15.8492L17.3277 11.449L14.7888 15.8492L17.3277 17.4645L19.8666 15.8492ZM17.5137 14.3732V12.5073L19.1226 15.2923L17.5137 14.3732ZM19.2713 15.7935L17.5137 16.9074V14.8002L19.2713 15.7935ZM17.1416 14.3732L15.5421 15.283L17.1416 12.5073V14.3732ZM17.1416 14.8003V16.9075L15.384 15.7936L17.1416 14.8003Z" fill="#37364C"/>
<path d="M17.3278 17.9839L14.7889 16.3687L17.3278 20.0726L19.8666 16.3687L17.3278 17.9839ZM17.1325 18.2995L17.1418 18.3088V19.1535L16.1188 17.6497L17.1325 18.2995ZM18.546 17.6497L17.5136 19.1535V18.3088L17.523 18.2995L18.546 17.6497Z" fill="#37364C"/>
</svg>
