<svg width="62" height="20" viewBox="0 0 62 20" fill="none" xmlns="http://www.w3.org/2000/svg">
<g clip-path="url(#clip0_1384_15422)">
<path d="M55.825 17.532C52.5891 17.532 49.8873 16.2105 49.5285 13.0539C49.5174 12.9562 49.5858 12.8678 49.6804 12.8553L53.0005 12.4177C53.1045 12.404 53.1967 12.486 53.206 12.5936C53.3391 14.166 54.4195 14.8764 55.9081 14.8764C57.4867 14.8764 58.2896 14.2768 58.2896 13.2203C58.2896 12.278 57.2374 11.9353 55.0496 11.3928C52.3911 10.736 49.9541 9.87936 49.9541 6.93821C49.9541 3.79719 52.6403 2.56934 55.6312 2.56934C58.6227 2.56934 61.1868 3.58825 61.6189 6.7078C61.6322 6.8041 61.5677 6.89391 61.4747 6.91025L58.2648 7.47472C58.16 7.49314 58.0635 7.41263 58.0523 7.30366C57.9039 5.84889 57.0103 5.19638 55.6866 5.19638C54.5512 5.19638 53.6096 5.6247 53.6096 6.62412C53.6096 7.59497 54.6065 7.93763 56.462 8.36595C58.9265 8.93704 62.0005 9.62236 62.0005 13.0204C62.0005 16.447 59.065 17.532 55.825 17.532Z" fill="#0080BC"/>
<path d="M47.3593 3.92802C48.467 5.07021 48.6055 6.61217 48.6055 8.46824V17.2232C48.6055 17.3244 48.5259 17.4064 48.4278 17.4064H44.8787C44.7805 17.4064 44.701 17.3244 44.701 17.2232V8.81087C44.701 7.49736 44.5902 6.81204 43.9809 6.21241C43.4824 5.72698 43.0117 5.6413 42.1809 5.6413C40.99 5.6413 39.6054 6.46938 39.6054 9.41053V17.2232C39.6054 17.3244 39.5258 17.4064 39.4276 17.4064H35.9062C35.8081 17.4064 35.7285 17.3244 35.7285 17.2232V3.11187C35.7285 3.01066 35.8081 2.9286 35.9062 2.9286H39.3999C39.4981 2.9286 39.5777 3.01066 39.5777 3.11187V4.66577C39.5777 4.75355 39.7042 4.78132 39.7438 4.70362C40.523 3.17738 42.0039 2.58594 43.6763 2.58594C45.4487 2.58594 46.4731 3.01428 47.3593 3.92802Z" fill="#0080BC"/>
<path d="M32.6606 4.40513C34.0051 5.81491 34.6824 7.9576 34.7394 10.6711C34.7415 10.7708 34.6648 10.8535 34.5683 10.8567L24.7915 11.1753C24.6927 11.1786 24.615 11.265 24.6219 11.3668C24.7735 13.6392 25.9121 14.7671 27.9337 14.7012C29.6395 14.6456 30.5005 13.8492 30.7685 12.4569C30.7863 12.3647 30.8661 12.2978 30.957 12.3031L34.3621 12.5014C34.4718 12.5078 34.5495 12.6149 34.5226 12.7247C33.7658 15.8094 31.5121 17.4129 28.0203 17.5267C25.8614 17.5971 24.1234 16.9395 22.9249 15.8072C21.5553 14.5091 20.8332 12.6471 20.7597 10.2497C20.6898 7.96647 21.2391 6.00587 22.5544 4.62025C23.7346 3.35332 25.3752 2.64274 27.5342 2.57238C29.7207 2.50111 31.4588 3.15868 32.6606 4.40513ZM27.6189 5.34081C26.4841 5.37781 25.692 5.74645 25.1879 6.47711C24.8494 6.95662 24.652 7.55009 24.5747 8.23657C24.5625 8.34509 24.6481 8.4374 24.7539 8.43394L30.5323 8.2456C30.6371 8.24219 30.7165 8.14617 30.7001 8.0393C30.5788 7.24591 30.3341 6.58209 29.8588 6.09632C29.3153 5.54264 28.6155 5.30834 27.6189 5.34081Z" fill="#0080BC"/>
<path fill-rule="evenodd" clip-rule="evenodd" d="M8.77784 0.3297C8.70674 0.218397 8.83744 0.0880617 8.94348 0.164487L13.3832 3.36383C16.1814 5.38025 17.4698 8.98053 16.5827 12.3734C16.5124 12.6422 16.437 12.8774 16.3662 13.0746C16.3223 13.1968 16.1477 13.1704 16.1389 13.0404C16.064 11.9357 15.2914 10.6727 14.7306 9.756C14.6305 9.59234 14.5371 9.43974 14.4557 9.30104C13.9106 8.3727 9.96483 2.18838 8.77784 0.3297ZM2.89924 9.328L8.21345 0.325768C8.27516 0.221272 8.16412 0.0993832 8.05874 0.155956C7.12971 0.654591 4.62299 2.09731 2.65496 4.12083C0.498233 6.33836 2.2412 8.77138 2.70903 9.34325C2.76074 9.40644 2.85756 9.39859 2.89924 9.328ZM8.08209 19.7628C8.15319 19.8741 8.02249 20.0045 7.91645 19.9281L3.47671 16.7287C0.678515 14.7123 -0.609909 11.112 0.277249 7.71915C0.347522 7.45036 0.422926 7.21508 0.493749 7.01795C0.537663 6.89574 0.712239 6.92213 0.721043 7.0521C0.795891 8.15683 1.56856 9.41985 2.12937 10.3365C2.22948 10.5002 2.32283 10.6528 2.40428 10.7915C2.94934 11.7198 6.8951 17.9041 8.08209 19.7628ZM8.64689 19.7658L13.9611 10.7636C14.0028 10.693 14.0996 10.6851 14.1513 10.7483C14.6192 11.3202 16.3621 13.7532 14.2054 15.9707C12.2374 17.9943 9.73065 19.437 8.80164 19.9356C8.69624 19.9922 8.5852 19.8703 8.64689 19.7658Z" fill="#0080BC"/>
</g>
<defs>
<clipPath id="clip0_1384_15422">
<rect width="62" height="20" fill="white"/>
</clipPath>
</defs>
</svg>
