<svg width="33" height="32" viewBox="0 0 33 32" fill="none" xmlns="http://www.w3.org/2000/svg">
<path d="M29.2048 12.1899H27.6748V19.8099H29.2048V12.1899Z" fill="#1B6FAE"/>
<path d="M27.6753 19.8101H26.1553V21.3301H27.6753V19.8101Z" fill="#1B6FAE"/>
<path d="M27.6753 10.66H26.1553V12.19H27.6753V10.66Z" fill="#1B6FAE"/>
<path d="M26.155 21.33H24.625V22.86H26.155V21.33Z" fill="#1B6FAE"/>
<path d="M26.155 9.14001H24.625V10.66H26.155V9.14001Z" fill="#1B6FAE"/>
<path d="M23.1049 28.95H4.82492V3.05H9.39492V4.57H18.5349V3.05H23.1049V6.09H24.6249V1.52H23.1049V0H4.82492V1.52H3.29492V30.47H4.82492V32H23.1049V30.47H24.6249V25.9H23.1049V28.95ZM13.9649 1.52H17.0149V3.05H13.9649V1.52ZM10.9149 1.52H12.4349V3.05H10.9149V1.52Z" fill="#1B6FAE"/>
<path d="M24.6245 16.76H23.1045V18.28H24.6245V16.76Z" fill="#1B6FAE"/>
<path d="M24.6246 22.86H17.0146V24.38H24.6246V22.86Z" fill="#1B6FAE"/>
<path d="M23.1052 15.24H18.5352V16.76H23.1052V15.24Z" fill="#1B6FAE"/>
<path d="M18.5352 18.28V19.81H20.0552V21.33H21.5852V19.81H23.1052V18.28H18.5352Z" fill="#1B6FAE"/>
<path d="M23.1052 13.71V12.19H21.5852V10.66H20.0552V12.19H18.5352V13.71H23.1052Z" fill="#1B6FAE"/>
<path d="M24.6246 7.62H17.0146V9.14H24.6246V7.62Z" fill="#1B6FAE"/>
<path d="M18.5346 13.71H17.0146V15.24H18.5346V13.71Z" fill="#1B6FAE"/>
<path d="M17.0154 21.33H15.4854V22.86H17.0154V21.33Z" fill="#1B6FAE"/>
<path d="M17.0154 9.14001H15.4854V10.66H17.0154V9.14001Z" fill="#1B6FAE"/>
<path d="M15.4848 19.8101H13.9648V21.3301H15.4848V19.8101Z" fill="#1B6FAE"/>
<path d="M15.4848 10.66H13.9648V12.19H15.4848V10.66Z" fill="#1B6FAE"/>
<path d="M13.9646 12.1899H12.4346V19.8099H13.9646V12.1899Z" fill="#1B6FAE"/>
</svg>
