<svg preserveAspectRatio="none" width="100%" height="100%" overflow="visible" style="display: block;" viewBox="0 0 32 31" fill="none" xmlns="http://www.w3.org/2000/svg">
<g id="Group">
<path id="Vector" d="M19.81 28.95H7.62V30.47H19.81V28.95Z" fill="var(--fill-0, #1B6FAE)"/>
<path id="Vector_2" d="M24.38 27.43H19.81V28.95H24.38V27.43Z" fill="var(--fill-0, #1B6FAE)"/>
<path id="Vector_3" d="M15.24 25.9V24.38H4.57V25.9H6.1V28.95H7.62V25.9H15.24Z" fill="var(--fill-0, #1B6FAE)"/>
<path id="Vector_4" d="M12.19 21.33V19.81H1.53V21.33H3.05V24.38H4.57V21.33H12.19Z" fill="var(--fill-0, #1B6FAE)"/>
<path id="Vector_5" d="M1.53 16.76H0V19.81H1.53V16.76Z" fill="var(--fill-0, #1B6FAE)"/>
<path id="Vector_6" d="M18.29 15.24H16.76V16.76H18.29V15.24Z" fill="var(--fill-0, #1B6FAE)"/>
<path id="Vector_7" d="M10.67 15.24H4.57V16.76H10.67V15.24Z" fill="var(--fill-0, #1B6FAE)"/>
<path id="Vector_8" d="M16.76 12.19H15.24V15.24H16.76V12.19Z" fill="var(--fill-0, #1B6FAE)"/>
<path id="Vector_9" d="M12.19 13.71H10.67V15.24H12.19V13.71Z" fill="var(--fill-0, #1B6FAE)"/>
<path id="Vector_10" d="M4.57 13.71H3.05V15.24H4.57V13.71Z" fill="var(--fill-0, #1B6FAE)"/>
<path id="Vector_11" d="M7.62 13.71V12.19H9.14V10.66H4.57V12.19H6.1V13.71H7.62Z" fill="var(--fill-0, #1B6FAE)"/>
<path id="Vector_12" d="M3.05 12.19H1.53V13.71H3.05V12.19Z" fill="var(--fill-0, #1B6FAE)"/>
<path id="Vector_13" d="M15.24 9.14H13.72V12.19H15.24V9.14Z" fill="var(--fill-0, #1B6FAE)"/>
<path id="Vector_14" d="M1.53 4.57H0V12.19H1.53V4.57Z" fill="var(--fill-0, #1B6FAE)"/>
<path id="Vector_15" d="M27.43 9.135V10.655H25.91V12.185H27.43V25.895H24.38V27.435H27.43V28.955H32V9.135H27.43ZM30.48 25.895H28.95V22.845H30.48V25.895Z" fill="var(--fill-0, #1B6FAE)"/>
<path id="Vector_16" d="M25.91 9.14H24.38V10.66H25.91V9.14Z" fill="var(--fill-0, #1B6FAE)"/>
<path id="Vector_17" d="M10.67 9.14H9.14V10.66H10.67V9.14Z" fill="var(--fill-0, #1B6FAE)"/>
<path id="Vector_18" d="M24.38 7.62H21.34V9.14H24.38V7.62Z" fill="var(--fill-0, #1B6FAE)"/>
<path id="Vector_19" d="M13.72 7.62H12.19V9.14H13.72V7.62Z" fill="var(--fill-0, #1B6FAE)"/>
<path id="Vector_20" d="M9.14 7.62H4.57V9.14H9.14V7.62Z" fill="var(--fill-0, #1B6FAE)"/>
<path id="Vector_21" d="M21.34 6.09H19.81V7.62H21.34V6.09Z" fill="var(--fill-0, #1B6FAE)"/>
<path id="Vector_22" d="M4.57 6.09H3.05V7.62H4.57V6.09Z" fill="var(--fill-0, #1B6FAE)"/>
<path id="Vector_23" d="M19.81 4.57H18.29V6.09H19.81V4.57Z" fill="var(--fill-0, #1B6FAE)"/>
<path id="Vector_24" d="M9.14 6.09V4.57H7.62V3.05H6.1V4.57H4.57V6.09H9.14Z" fill="var(--fill-0, #1B6FAE)"/>
<path id="Vector_25" d="M18.29 3.05H16.76V4.57H18.29V3.05Z" fill="var(--fill-0, #1B6FAE)"/>
<path id="Vector_26" d="M12.19 3.05H10.67V7.62H12.19V3.05Z" fill="var(--fill-0, #1B6FAE)"/>
<path id="Vector_27" d="M3.05 3.05H1.53V4.57H3.05V3.05Z" fill="var(--fill-0, #1B6FAE)"/>
<path id="Vector_28" d="M16.76 1.52H12.19V3.05H16.76V1.52Z" fill="var(--fill-0, #1B6FAE)"/>
<path id="Vector_29" d="M4.57 1.52H3.05V3.05H4.57V1.52Z" fill="var(--fill-0, #1B6FAE)"/>
<path id="Vector_30" d="M10.67 0H4.57V1.52H10.67V0Z" fill="var(--fill-0, #1B6FAE)"/>
</g>
</svg>
