<svg preserveAspectRatio="none" width="100%" height="100%" overflow="visible" style="display: block;" viewBox="0 0 26 32" fill="none" xmlns="http://www.w3.org/2000/svg">
<g id="Group">
<path id="Vector" d="M25.91 12.19H24.38V19.81H25.91V12.19Z" fill="var(--fill-0, #1B6FAE)"/>
<path id="Vector_2" d="M24.38 19.81H22.86V21.33H24.38V19.81Z" fill="var(--fill-0, #1B6FAE)"/>
<path id="Vector_3" d="M24.38 10.66H22.86V12.19H24.38V10.66Z" fill="var(--fill-0, #1B6FAE)"/>
<path id="Vector_4" d="M22.86 21.33H21.33V22.86H22.86V21.33Z" fill="var(--fill-0, #1B6FAE)"/>
<path id="Vector_5" d="M22.86 9.14H21.33V10.66H22.86V9.14Z" fill="var(--fill-0, #1B6FAE)"/>
<path id="Vector_6" d="M19.81 28.95H1.53V3.05H6.1V4.57H15.24V3.05H19.81V6.09H21.33V1.52H19.81V0H1.53V1.52H0V30.47H1.53V32H19.81V30.47H21.33V25.9H19.81V28.95ZM10.67 1.52H13.72V3.05H10.67V1.52ZM7.62 1.52H9.14V3.05H7.62V1.52Z" fill="var(--fill-0, #1B6FAE)"/>
<path id="Vector_7" d="M21.33 16.76H19.81V18.28H21.33V16.76Z" fill="var(--fill-0, #1B6FAE)"/>
<path id="Vector_8" d="M21.33 22.86H13.72V24.38H21.33V22.86Z" fill="var(--fill-0, #1B6FAE)"/>
<path id="Vector_9" d="M19.81 15.24H15.24V16.76H19.81V15.24Z" fill="var(--fill-0, #1B6FAE)"/>
<path id="Vector_10" d="M15.24 18.28V19.81H16.76V21.33H18.29V19.81H19.81V18.28H15.24Z" fill="var(--fill-0, #1B6FAE)"/>
<path id="Vector_11" d="M19.81 13.71V12.19H18.29V10.66H16.76V12.19H15.24V13.71H19.81Z" fill="var(--fill-0, #1B6FAE)"/>
<path id="Vector_12" d="M21.33 7.62H13.72V9.14H21.33V7.62Z" fill="var(--fill-0, #1B6FAE)"/>
<path id="Vector_13" d="M15.24 13.71H13.72V15.24H15.24V13.71Z" fill="var(--fill-0, #1B6FAE)"/>
<path id="Vector_14" d="M13.72 21.33H12.19V22.86H13.72V21.33Z" fill="var(--fill-0, #1B6FAE)"/>
<path id="Vector_15" d="M13.72 9.14H12.19V10.66H13.72V9.14Z" fill="var(--fill-0, #1B6FAE)"/>
<path id="Vector_16" d="M12.19 19.81H10.67V21.33H12.19V19.81Z" fill="var(--fill-0, #1B6FAE)"/>
<path id="Vector_17" d="M12.19 10.66H10.67V12.19H12.19V10.66Z" fill="var(--fill-0, #1B6FAE)"/>
<path id="Vector_18" d="M10.67 12.19H9.14V19.81H10.67V12.19Z" fill="var(--fill-0, #1B6FAE)"/>
</g>
</svg>
