<svg width="33" height="32" viewBox="0 0 33 32" fill="none" xmlns="http://www.w3.org/2000/svg">
<g clip-path="url(#clip0_1549_13566)">
<path d="M20.5601 29.715H8.37012V31.235H20.5601V29.715Z" fill="#1B6FAE"/>
<path d="M25.1296 28.1951H20.5596V29.7151H25.1296V28.1951Z" fill="#1B6FAE"/>
<path d="M15.9903 26.665V25.145H5.32031V26.665H6.85031V29.715H8.37031V26.665H15.9903Z" fill="#1B6FAE"/>
<path d="M12.9403 22.0951V20.5751H2.28027V22.0951H3.80027V25.1451H5.32027V22.0951H12.9403Z" fill="#1B6FAE"/>
<path d="M2.28 17.525H0.75V20.575H2.28V17.525Z" fill="#1B6FAE"/>
<path d="M19.0398 16.005H17.5098V17.525H19.0398V16.005Z" fill="#1B6FAE"/>
<path d="M11.4203 16.005H5.32031V17.525H11.4203V16.005Z" fill="#1B6FAE"/>
<path d="M17.5102 12.955H15.9902V16.005H17.5102V12.955Z" fill="#1B6FAE"/>
<path d="M12.9399 14.475H11.4199V16.005H12.9399V14.475Z" fill="#1B6FAE"/>
<path d="M5.3198 14.475H3.7998V16.005H5.3198V14.475Z" fill="#1B6FAE"/>
<path d="M8.37031 14.475V12.955H9.89031V11.425H5.32031V12.955H6.85031V14.475H8.37031Z" fill="#1B6FAE"/>
<path d="M3.80027 12.955H2.28027V14.475H3.80027V12.955Z" fill="#1B6FAE"/>
<path d="M15.9897 9.90503H14.4697V12.955H15.9897V9.90503Z" fill="#1B6FAE"/>
<path d="M2.28 5.33496H0.75V12.955H2.28V5.33496Z" fill="#1B6FAE"/>
<path d="M28.1799 9.90002V11.42H26.6599V12.95H28.1799V26.66H25.1299V28.2H28.1799V29.72H32.7499V9.90002H28.1799ZM31.2299 26.66H29.6999V23.61H31.2299V26.66Z" fill="#1B6FAE"/>
<path d="M26.6599 9.90503H25.1299V11.425H26.6599V9.90503Z" fill="#1B6FAE"/>
<path d="M11.4196 9.90503H9.88965V11.425H11.4196V9.90503Z" fill="#1B6FAE"/>
<path d="M25.1298 8.38501H22.0898V9.90501H25.1298V8.38501Z" fill="#1B6FAE"/>
<path d="M14.4704 8.38501H12.9404V9.90501H14.4704V8.38501Z" fill="#1B6FAE"/>
<path d="M9.89031 8.38501H5.32031V9.90501H9.89031V8.38501Z" fill="#1B6FAE"/>
<path d="M22.0896 6.85498H20.5596V8.38498H22.0896V6.85498Z" fill="#1B6FAE"/>
<path d="M5.3198 6.85498H3.7998V8.38498H5.3198V6.85498Z" fill="#1B6FAE"/>
<path d="M20.56 5.33496H19.04V6.85496H20.56V5.33496Z" fill="#1B6FAE"/>
<path d="M9.89031 6.85506V5.33506H8.37031V3.81506H6.85031V5.33506H5.32031V6.85506H9.89031Z" fill="#1B6FAE"/>
<path d="M19.0398 3.81506H17.5098V5.33506H19.0398V3.81506Z" fill="#1B6FAE"/>
<path d="M12.9399 3.81506H11.4199V8.38506H12.9399V3.81506Z" fill="#1B6FAE"/>
<path d="M3.80027 3.81506H2.28027V5.33506H3.80027V3.81506Z" fill="#1B6FAE"/>
<path d="M17.5104 2.28503H12.9404V3.81503H17.5104V2.28503Z" fill="#1B6FAE"/>
<path d="M5.3198 2.28503H3.7998V3.81503H5.3198V2.28503Z" fill="#1B6FAE"/>
<path d="M11.4203 0.765015H5.32031V2.28501H11.4203V0.765015Z" fill="#1B6FAE"/>
</g>
<defs>
<clipPath id="clip0_1549_13566">
<rect width="32" height="32" fill="white" transform="translate(0.75)"/>
</clipPath>
</defs>
</svg>
