<svg width="21" height="20" viewBox="0 0 21 20" fill="none" xmlns="http://www.w3.org/2000/svg">
<g clip-path="url(#clip0_1327_55790)">
<path d="M10.7513 1.6665C7.5263 1.6665 4.91797 4.27484 4.91797 7.49984C4.91797 11.8748 10.7513 18.3332 10.7513 18.3332C10.7513 18.3332 16.5846 11.8748 16.5846 7.49984C16.5846 4.27484 13.9763 1.6665 10.7513 1.6665ZM6.58464 7.49984C6.58464 5.19984 8.4513 3.33317 10.7513 3.33317C13.0513 3.33317 14.918 5.19984 14.918 7.49984C14.918 9.89984 12.518 13.4915 10.7513 15.7332C9.01797 13.5082 6.58464 9.87484 6.58464 7.49984Z" fill="#36364C"/>
<path d="M10.7513 9.58317C11.9019 9.58317 12.8346 8.65043 12.8346 7.49984C12.8346 6.34924 11.9019 5.4165 10.7513 5.4165C9.60071 5.4165 8.66797 6.34924 8.66797 7.49984C8.66797 8.65043 9.60071 9.58317 10.7513 9.58317Z" fill="#36364C"/>
</g>
<defs>
<clipPath id="clip0_1327_55790">
<rect width="20" height="20" fill="white" transform="translate(0.75)"/>
</clipPath>
</defs>
</svg>
