<svg preserveAspectRatio="none" width="100%" height="100%" overflow="visible" style="display: block;" viewBox="0 0 20 20" fill="none" xmlns="http://www.w3.org/2000/svg">
<g id="Location on" clip-path="url(#clip0_1594_19450)">
<g id="Vector">
</g>
<path id="Vector_2" d="M10.0013 1.6665C6.7763 1.6665 4.16797 4.27484 4.16797 7.49984C4.16797 11.8748 10.0013 18.3332 10.0013 18.3332C10.0013 18.3332 15.8346 11.8748 15.8346 7.49984C15.8346 4.27484 13.2263 1.6665 10.0013 1.6665ZM5.83464 7.49984C5.83464 5.19984 7.7013 3.33317 10.0013 3.33317C12.3013 3.33317 14.168 5.19984 14.168 7.49984C14.168 9.89984 11.768 13.4915 10.0013 15.7332C8.26797 13.5082 5.83464 9.87484 5.83464 7.49984Z" fill="var(--fill-0, #36364C)"/>
<path id="Vector_3" d="M10.0013 9.58317C11.1519 9.58317 12.0846 8.65043 12.0846 7.49984C12.0846 6.34924 11.1519 5.4165 10.0013 5.4165C8.85071 5.4165 7.91797 6.34924 7.91797 7.49984C7.91797 8.65043 8.85071 9.58317 10.0013 9.58317Z" fill="var(--fill-0, #36364C)"/>
</g>
<defs>
<clipPath id="clip0_1594_19450">
<rect width="20" height="20" fill="white"/>
</clipPath>
</defs>
</svg>
