<svg width="33" height="32" viewBox="0 0 33 32" fill="none" xmlns="http://www.w3.org/2000/svg">
<g clip-path="url(#clip0_1549_13531)">
<path d="M13.542 8.66663V12.6666H9.54199V8.66663H13.542ZM15.542 6.66663H7.54199V14.6666H15.542V6.66663ZM13.542 19.3333V23.3333H9.54199V19.3333H13.542ZM15.542 17.3333H7.54199V25.3333H15.542V17.3333ZM24.2087 8.66663V12.6666H20.2087V8.66663H24.2087ZM26.2087 6.66663H18.2087V14.6666H26.2087V6.66663ZM18.2087 17.3333H20.2087V19.3333H18.2087V17.3333ZM20.2087 19.3333H22.2087V21.3333H20.2087V19.3333ZM22.2087 17.3333H24.2087V19.3333H22.2087V17.3333ZM18.2087 21.3333H20.2087V23.3333H18.2087V21.3333ZM20.2087 23.3333H22.2087V25.3333H20.2087V23.3333ZM22.2087 21.3333H24.2087V23.3333H22.2087V21.3333ZM24.2087 19.3333H26.2087V21.3333H24.2087V19.3333ZM24.2087 23.3333H26.2087V25.3333H24.2087V23.3333ZM30.2087 9.33329H27.542V5.33329H23.542V2.66663H30.2087V9.33329ZM30.2087 29.3333V22.6666H27.542V26.6666H23.542V29.3333H30.2087ZM3.54199 29.3333H10.2087V26.6666H6.20866V22.6666H3.54199V29.3333ZM3.54199 2.66663V9.33329H6.20866V5.33329H10.2087V2.66663H3.54199Z" fill="#1B6FAE"/>
</g>
<defs>
<clipPath id="clip0_1549_13531">
<rect width="32" height="32" fill="white" transform="translate(0.875)"/>
</clipPath>
</defs>
</svg>
