<svg preserveAspectRatio="none" width="100%" height="100%" overflow="visible" style="display: block;" viewBox="0 0 32 32" fill="none" xmlns="http://www.w3.org/2000/svg">
<g id="Qr code scanner" clip-path="url(#clip0_1594_19255)">
<g id="Vector">
</g>
<path id="Vector_2" d="M12.6667 8.66667V12.6667H8.66667V8.66667H12.6667ZM14.6667 6.66667H6.66667V14.6667H14.6667V6.66667ZM12.6667 19.3333V23.3333H8.66667V19.3333H12.6667ZM14.6667 17.3333H6.66667V25.3333H14.6667V17.3333ZM23.3333 8.66667V12.6667H19.3333V8.66667H23.3333ZM25.3333 6.66667H17.3333V14.6667H25.3333V6.66667ZM17.3333 17.3333H19.3333V19.3333H17.3333V17.3333ZM19.3333 19.3333H21.3333V21.3333H19.3333V19.3333ZM21.3333 17.3333H23.3333V19.3333H21.3333V17.3333ZM17.3333 21.3333H19.3333V23.3333H17.3333V21.3333ZM19.3333 23.3333H21.3333V25.3333H19.3333V23.3333ZM21.3333 21.3333H23.3333V23.3333H21.3333V21.3333ZM23.3333 19.3333H25.3333V21.3333H23.3333V19.3333ZM23.3333 23.3333H25.3333V25.3333H23.3333V23.3333ZM29.3333 9.33333H26.6667V5.33333H22.6667V2.66667H29.3333V9.33333ZM29.3333 29.3333V22.6667H26.6667V26.6667H22.6667V29.3333H29.3333ZM2.66667 29.3333H9.33333V26.6667H5.33333V22.6667H2.66667V29.3333ZM2.66667 2.66667V9.33333H5.33333V5.33333H9.33333V2.66667H2.66667Z" fill="var(--fill-0, #1B6FAE)"/>
</g>
<defs>
<clipPath id="clip0_1594_19255">
<rect width="32" height="32" fill="white"/>
</clipPath>
</defs>
</svg>
