<svg width="80" height="80" viewBox="0 0 80 80" fill="none" xmlns="http://www.w3.org/2000/svg">
<g clip-path="url(#clip0_1979_50891)">
<path d="M9.94191 22.3043L11.4328 15.2214L11.8533 14.8446H18.7127L19.7084 15.9799L20.7853 20.0986L22.3717 52.7865L25.985 56.6862L27.2285 57.5111V71.8425L23.6803 75.3125L21.9555 77.2163H8.46058L5.67036 73.8464L3.45247 72.0838V57.5391L7.33268 53.5677L8.56016 52.5791L9.94191 52.2493V43.194H2.80469V36.6817H9.94191V27.4647H2.95911V22.3043H9.94191Z" fill="#F6B40E"/>
<path d="M34.127 42.1419L34.4525 41.6992L34.7592 41.6797H75.9578L76.5763 42.2334V72.0182L73.1779 75.2799L71.2458 77.5065H39.2651L34.6531 72.3763L32.5261 72.383L32.5236 42.1419H34.127Z" fill="#C7C7D0"/>
<path d="M79.9992 41.9H76.1992V72.375H79.9992V41.9Z" fill="#20202B"/>
<path d="M76.2 72.375H72.375V76.2H76.2V72.375Z" fill="#20202B"/>
<path d="M72.3758 38.1V7.625H68.5758V3.8H64.7758V0H45.7258V3.8H41.9008V7.625H38.1008V38.1H34.3008V41.9H76.2008V38.1H72.3758ZM64.7758 38.1H45.7258V11.425H49.5258V7.625H60.9508V11.425H64.7758V38.1Z" fill="#20202B"/>
<path d="M72.3746 76.2H38.0996V80H72.3746V76.2Z" fill="#20202B"/>
<path d="M64.7742 57.15H60.9492V60.95H64.7742V57.15Z" fill="#20202B"/>
<path d="M64.7742 49.525H60.9492V53.325H64.7742V49.525Z" fill="#20202B"/>
<path d="M60.9504 60.95H49.5254V64.75H60.9504V60.95Z" fill="#20202B"/>
<path d="M49.5246 57.15H45.7246V60.95H49.5246V57.15Z" fill="#20202B"/>
<path d="M49.5246 49.525H45.7246V53.325H49.5246V49.525Z" fill="#20202B"/>
<path d="M38.1008 72.375H34.3008V76.2H38.1008V72.375Z" fill="#20202B"/>
<path d="M34.2996 41.9H30.4746V53.325H34.2996V41.9Z" fill="#20202B"/>
<path d="M30.4758 57.15H26.6758V72.375H30.4758V57.15Z" fill="#20202B"/>
<path d="M26.675 72.375H22.875V76.2H26.675V72.375Z" fill="#20202B"/>
<path d="M26.675 53.325H22.875V57.15H26.675V53.325Z" fill="#20202B"/>
<path d="M22.8758 15.225H19.0508V53.325H22.8758V15.225Z" fill="#20202B"/>
<path d="M22.875 76.2H7.625V80H22.875V76.2Z" fill="#20202B"/>
<path d="M19.05 57.15H11.425V60.95H7.625V68.575H11.425V72.375H19.05V68.575H22.875V60.95H19.05V57.15Z" fill="#20202B"/>
<path d="M19.0508 11.425H11.4258V15.225H19.0508V11.425Z" fill="#20202B"/>
<path d="M11.425 41.9H3.825V38.1H11.425V26.675H3.825V22.85H11.425V15.225H7.625V19.05H0V30.475H7.625V34.275H0V45.7H7.625V53.325H11.425V41.9Z" fill="#20202B"/>
<path d="M7.62422 72.375H3.82422V76.2H7.62422V72.375Z" fill="#20202B"/>
<path d="M7.62422 53.325H3.82422V57.15H7.62422V53.325Z" fill="#20202B"/>
<path d="M3.825 57.15H0V72.375H3.825V57.15Z" fill="#20202B"/>
</g>
<defs>
<clipPath id="clip0_1979_50891">
<rect width="80" height="80" fill="white"/>
</clipPath>
</defs>
</svg>
