<svg preserveAspectRatio="none" width="100%" height="100%" overflow="visible" style="display: block;" viewBox="0 0 48 48" fill="none" xmlns="http://www.w3.org/2000/svg">
<g id="no-assets-empty-state-icon">
<path id="Vector 82" d="M11.2406 9.23906L16.0031 6.8625L17.2823 5.98572H27.2706L30.1397 6.8625L36.5237 11.0329L41.1503 16.4166L41.8233 22.2208V29.9391L30.1397 41.3414H16.4834L11.9103 39.3363L9.65286 37.0274L7.09675 34.7783L4.7625 29.9391L4.51406 29.6416V18.4078L6.60938 13.9688L9.02344 11.5453L11.2406 9.23906Z" fill="var(--fill-0, #F6B40E)"/>
<g id="Group">
<path id="Vector" d="M27.4275 9.14253H32.0025V11.4225H34.2825V13.7175H36.5775V18.2925H38.8575V29.7075H36.5775V34.2825H34.2825V36.5775H32.0025V38.8575H27.4275V41.1375H15.9975V43.4325H32.0025V41.1375H36.5775V38.8575H38.8575V36.5775H41.1525V34.2825H43.4325V29.7075H45.7125V18.2925H43.4325V13.7175H41.1525V11.4225H38.8575V9.14253H36.5775V6.86253H32.0025V4.56753H15.9975V6.86253H27.4275V9.14253Z" fill="var(--fill-0, #0073DE)"/>
<path id="Vector_2" d="M36.5775 18.2925H34.2825V29.7075H36.5775V18.2925Z" fill="var(--fill-0, #0073DE)"/>
<path id="Vector_3" d="M34.2825 29.7075H32.0025V32.0025H34.2825V29.7075Z" fill="var(--fill-0, #0073DE)"/>
<path id="Vector_4" d="M34.2825 15.9975H32.0025V18.2925H34.2825V15.9975Z" fill="var(--fill-0, #0073DE)"/>
<path id="Vector_5" d="M32.0025 32.0025H29.7225V34.2825H32.0025V32.0025Z" fill="var(--fill-0, #0073DE)"/>
<path id="Vector_6" d="M32.0025 13.7175H29.7225V15.9975H32.0025V13.7175Z" fill="var(--fill-0, #0073DE)"/>
<path id="Vector_7" d="M29.7225 34.2825H27.4275V36.5775H29.7225V34.2825Z" fill="var(--fill-0, #0073DE)"/>
<path id="Vector_8" d="M29.7225 11.4225H27.4275V13.7175H29.7225V11.4225Z" fill="var(--fill-0, #0073DE)"/>
<path id="Vector_9" d="M27.4275 36.5775H15.9975V38.8575H27.4275V36.5775Z" fill="var(--fill-0, #0073DE)"/>
<path id="Vector_10" d="M27.4275 25.1475H25.1475V29.7075H27.4275V25.1475Z" fill="var(--fill-0, #0073DE)"/>
<path id="Vector_11" d="M27.4275 18.2925H25.1475V20.5725H27.4275V18.2925Z" fill="var(--fill-0, #0073DE)"/>
<path id="Vector_12" d="M27.4275 9.14253H15.9975V11.4225H27.4275V9.14253Z" fill="var(--fill-0, #0073DE)"/>
<path id="Vector_13" d="M20.5725 32.0025V34.2825H22.8525V32.0025H25.1475V29.7075H22.8525V25.1475H25.1475V22.8525H22.8525V18.2925H25.1475V15.9975H22.8525V13.7175H20.5725V15.9975H18.2925V18.2925H20.5725V22.8525H18.2925V25.1475H20.5725V29.7075H18.2925V32.0025H20.5725Z" fill="var(--fill-0, #0073DE)"/>
<path id="Vector_14" d="M18.2925 27.4275H15.9975V29.7075H18.2925V27.4275Z" fill="var(--fill-0, #0073DE)"/>
<path id="Vector_15" d="M18.2925 18.2925H15.9975V22.8525H18.2925V18.2925Z" fill="var(--fill-0, #0073DE)"/>
<path id="Vector_16" d="M15.9975 38.8575H11.4375V41.1375H15.9975V38.8575Z" fill="var(--fill-0, #0073DE)"/>
<path id="Vector_17" d="M15.9975 34.2825H13.7175V36.5775H15.9975V34.2825Z" fill="var(--fill-0, #0073DE)"/>
<path id="Vector_18" d="M15.9975 11.4225H13.7175V13.7175H15.9975V11.4225Z" fill="var(--fill-0, #0073DE)"/>
<path id="Vector_19" d="M15.9975 6.86253H11.4375V9.14253H15.9975V6.86253Z" fill="var(--fill-0, #0073DE)"/>
<path id="Vector_20" d="M13.7175 32.0025H11.4375V34.2825H13.7175V32.0025Z" fill="var(--fill-0, #0073DE)"/>
<path id="Vector_21" d="M13.7175 13.7175H11.4375V15.9975H13.7175V13.7175Z" fill="var(--fill-0, #0073DE)"/>
<path id="Vector_22" d="M11.4375 36.5775H9.1425V38.8575H11.4375V36.5775Z" fill="var(--fill-0, #0073DE)"/>
<path id="Vector_23" d="M11.4375 29.7075H9.1425V32.0025H11.4375V29.7075Z" fill="var(--fill-0, #0073DE)"/>
<path id="Vector_24" d="M11.4375 15.9975H9.1425V18.2925H11.4375V15.9975Z" fill="var(--fill-0, #0073DE)"/>
<path id="Vector_25" d="M11.4375 9.14253H9.1425V11.4225H11.4375V9.14253Z" fill="var(--fill-0, #0073DE)"/>
<path id="Vector_26" d="M9.1425 34.2825H6.8625V36.5775H9.1425V34.2825Z" fill="var(--fill-0, #0073DE)"/>
<path id="Vector_27" d="M9.1425 18.2925H6.8625V29.7075H9.1425V18.2925Z" fill="var(--fill-0, #0073DE)"/>
<path id="Vector_28" d="M9.1425 11.4225H6.8625V13.7175H9.1425V11.4225Z" fill="var(--fill-0, #0073DE)"/>
<path id="Vector_29" d="M6.8625 29.7075H4.5675V34.2825H6.8625V29.7075Z" fill="var(--fill-0, #0073DE)"/>
<path id="Vector_30" d="M6.8625 13.7175H4.5675V18.2925H6.8625V13.7175Z" fill="var(--fill-0, #0073DE)"/>
<path id="Vector_31" d="M4.5675 18.2925H2.2875V29.7075H4.5675V18.2925Z" fill="var(--fill-0, #0073DE)"/>
</g>
</g>
</svg>
