<svg preserveAspectRatio="none" width="100%" height="100%" overflow="visible" style="display: block;" viewBox="0 0 48 48" fill="none" xmlns="http://www.w3.org/2000/svg">
<g id="content-files-folder-open--Streamline-Pixel" clip-path="url(#clip0_1737_31720)">
<path id="Vector 113" d="M2.11768 20.7095L2.40588 20.4705H46.1434V45.1444L45.2295 46.3206H11.7345L9.32031 41.4961L7.29013 37.4831L4.71094 32.1016L4.49219 31.9414L2.69922 27.6875L2.11768 27.3238V20.7095Z" fill="var(--fill-0, #FF85A6)"/>
<path id="Vector 112" d="M10.5 19V1.5L36.4121 1.02508L46.4332 9.12699V34.9247H43.7473L41.2097 29.8607L39.7022 26.062L38.5948 24.8699V23.0874H16.2304L13.9961 20.7109L10.5 19Z" fill="var(--fill-0, white)"/>
<g id="Group">
<path id="Vector" d="M45.708 4.5675H43.428V2.2875H41.148V-0.0075H9.138V18.2925H2.283V20.5725H13.713V18.2925H11.433V2.2875H36.573V11.4225H45.708V34.2825H43.428V38.8575H45.708V45.7125H48.003V6.8625H45.708V4.5675Z" fill="var(--fill-0, #0073DE)"/>
<path id="Vector_2" d="M45.708 45.7125H11.433V47.9925H45.708V45.7125Z" fill="var(--fill-0, #0073DE)"/>
<path id="Vector_3" d="M43.428 29.7075H41.148V34.2825H43.428V29.7075Z" fill="var(--fill-0, #0073DE)"/>
<path id="Vector_4" d="M41.148 25.1475H38.853V29.7075H41.148V25.1475Z" fill="var(--fill-0, #0073DE)"/>
<path id="Vector_5" d="M38.853 22.8525H16.008V25.1475H38.853V22.8525Z" fill="var(--fill-0, #0073DE)"/>
<path id="Vector_6" d="M31.998 11.4225H29.718V13.7175H31.998V11.4225Z" fill="var(--fill-0, #0073DE)"/>
<path id="Vector_7" d="M29.718 15.9975H22.863V18.2925H29.718V15.9975Z" fill="var(--fill-0, #0073DE)"/>
<path id="Vector_8" d="M22.863 11.4225H20.568V13.7175H22.863V11.4225Z" fill="var(--fill-0, #0073DE)"/>
<path id="Vector_9" d="M16.008 20.5725H13.713V22.8525H16.008V20.5725Z" fill="var(--fill-0, #0073DE)"/>
<path id="Vector_10" d="M11.433 41.1375H9.138V45.7125H11.433V41.1375Z" fill="var(--fill-0, #0073DE)"/>
<path id="Vector_11" d="M9.138 36.5775H6.858V41.1375H9.138V36.5775Z" fill="var(--fill-0, #0073DE)"/>
<path id="Vector_12" d="M6.858 32.0025H4.578V36.5775H6.858V32.0025Z" fill="var(--fill-0, #0073DE)"/>
<path id="Vector_13" d="M4.578 27.4275H2.283V32.0025H4.578V27.4275Z" fill="var(--fill-0, #0073DE)"/>
<path id="Vector_14" d="M2.283 20.5725H0.003V27.4275H2.283V20.5725Z" fill="var(--fill-0, #0073DE)"/>
</g>
</g>
<defs>
<clipPath id="clip0_1737_31720">
<rect width="48" height="48" fill="white"/>
</clipPath>
</defs>
</svg>
