<svg width="41" height="40" viewBox="0 0 41 40" fill="none" xmlns="http://www.w3.org/2000/svg">
<path d="M13.6934 3.125H6.19336V36.875H8.06836V38.75H27.4434V36.875H30.5684V2.5H23.0684V5H13.6934V3.125Z" fill="white"/>
<path d="M29.7625 36.1875H6.9125V3.8125H12.625V5.7125H24.05V3.8125H29.7625V7.6125H31.6625V1.9H29.7625V0H6.9125V1.9H5V38.0875H6.9125V40H29.7625V38.0875H31.6625V32.375H29.7625V36.1875ZM18.3375 1.9H22.15V3.8125H18.3375V1.9ZM14.525 1.9H16.425V3.8125H14.525V1.9Z" fill="#1B6FAE"/>
<path d="M31.6631 13.3247H33.5759V15.2375H35.4753V24.7627H33.5759V26.6621H31.6631V28.575H22.1514V26.6621H20.2373V24.7627H18.3379V15.2375H20.2373V13.3247H22.1514V11.4253H31.6631V13.3247Z" fill="#44DDBB"/>
<path d="M31.6617 20.9497H29.7617V22.8497H31.6617V20.9497Z" fill="#1B6FAE"/>
<path d="M29.7633 19.0498H24.0508V20.9498H29.7633V19.0498Z" fill="#1B6FAE"/>
<path d="M24.0508 22.8501V24.7626H25.9508V26.6626H27.8633V24.7626H29.7633V22.8501H24.0508Z" fill="#1B6FAE"/>
<path d="M29.7633 17.1375V15.2375H27.8633V13.325H25.9508V15.2375H24.0508V17.1375H29.7633Z" fill="#1B6FAE"/>
<path d="M24.0494 17.1372H22.1494V19.0497H24.0494V17.1372Z" fill="#1B6FAE"/>
<path d="M37.3871 15.2373H35.4746V24.7623H37.3871V15.2373Z" fill="#1B6FAE"/>
<path d="M35.4752 24.7625H33.5752V26.6625H35.4752V24.7625Z" fill="#1B6FAE"/>
<path d="M35.4752 13.325H33.5752V15.2375H35.4752V13.325Z" fill="#1B6FAE"/>
<path d="M33.5746 26.6624H31.6621V28.5749H33.5746V26.6624Z" fill="#1B6FAE"/>
<path d="M33.5746 11.4248H31.6621V13.3248H33.5746V11.4248Z" fill="#1B6FAE"/>
<path d="M31.6619 28.5747H22.1494V30.4747H31.6619V28.5747Z" fill="#1B6FAE"/>
<path d="M31.6619 9.5249H22.1494V11.4249H31.6619V9.5249Z" fill="#1B6FAE"/>
<path d="M22.1508 26.6624H20.2383V28.5749H22.1508V26.6624Z" fill="#1B6FAE"/>
<path d="M22.1508 11.4248H20.2383V13.3248H22.1508V11.4248Z" fill="#1B6FAE"/>
<path d="M20.2379 24.7625H18.3379V26.6625H20.2379V24.7625Z" fill="#1B6FAE"/>
<path d="M20.2379 13.325H18.3379V15.2375H20.2379V13.325Z" fill="#1B6FAE"/>
<path d="M18.3373 15.2373H16.4248V24.7623H18.3373V15.2373Z" fill="#1B6FAE"/>
</svg>
