<svg width="41" height="40" viewBox="0 0 41 40" fill="none" xmlns="http://www.w3.org/2000/svg">
<g clip-path="url(#clip0_1031_25774)">
<path d="M31.2244 12.3779L33.1336 14.2773L33.6001 14.9951H36.1281L39.528 25.4194V34.9328H32.4048L25.9062 36.6544L25.1495 37.6186H10.6963L10.1511 37.0006V33.335L7.01074 31.7236L6.0485 31.2021L5.83398 27.5439L2.93121 25.8718L2.55273 25.6578V20.0201H7.68011L13.7868 20.3096L15.8882 18.1897L17.8994 16.1962L18.928 15.6136L18.148 12.6385L16.5348 10.9161L15.7656 10.3057V4.9947L16.3097 4.45215H21.3746L23.3185 6.37517L25.1213 8.18342L27.418 10.4801L31.2244 12.3779Z" fill="white"/>
<path d="M3.57551 5.78146L6.50519 2.78143L7.07302 2.052H10.1877L13.998 2.85635H16.2393V4.61904L15.6934 4.9449V10.1613L17.5389 12.1668L18.0022 12.4333V16.0826L15.9805 18.0956L14.4324 19.62L13.7983 20.3346H6.79251L4.79883 18.3544L3.16768 16.5745L2.12305 15.7775V7.18699L3.57551 5.78146Z" fill="#F6B40E"/>
<path d="M25.5129 37.1438H10.2754V39.0438H25.5129V37.1438Z" fill="#1B6FAE"/>
<path d="M31.2242 35.2439H25.5117V37.1439H31.2242V35.2439Z" fill="#1B6FAE"/>
<path d="M19.8004 33.3312V31.4312H6.46289V33.3312H8.37539V37.1437H10.2754V33.3312H19.8004Z" fill="#1B6FAE"/>
<path d="M15.9871 27.6187V25.7188H2.66211V27.6187H4.56211V31.4312H6.46211V27.6187H15.9871Z" fill="#1B6FAE"/>
<path d="M2.6625 21.9062H0.75V25.7188H2.6625V21.9062Z" fill="#1B6FAE"/>
<path d="M23.6117 20.0063H21.6992V21.9063H23.6117V20.0063Z" fill="#1B6FAE"/>
<path d="M14.0879 20.0063H6.46289V21.9063H14.0879V20.0063Z" fill="#1B6FAE"/>
<path d="M21.7008 16.1938H19.8008V20.0063H21.7008V16.1938Z" fill="#1B6FAE"/>
<path d="M15.9879 18.0938H14.0879V20.0062H15.9879V18.0938Z" fill="#1B6FAE"/>
<path d="M6.4625 18.0938H4.5625V20.0062H6.4625V18.0938Z" fill="#1B6FAE"/>
<path d="M10.2754 18.0938V16.1937H12.1754V14.2812H6.46289V16.1937H8.37539V18.0938H10.2754Z" fill="#1B6FAE"/>
<path d="M4.56211 16.1938H2.66211V18.0938H4.56211V16.1938Z" fill="#1B6FAE"/>
<path d="M19.8004 12.3813H17.9004V16.1938H19.8004V12.3813Z" fill="#1B6FAE"/>
<path d="M2.6625 6.6687H0.75V16.1937H2.6625V6.6687Z" fill="#1B6FAE"/>
<path d="M35.0371 12.375V14.275H33.1371V16.1875H35.0371V33.325H31.2246V35.25H35.0371V37.15H40.7496V12.375H35.0371ZM38.8496 33.325H36.9371V29.5125H38.8496V33.325Z" fill="#1B6FAE"/>
<path d="M33.1371 12.3813H31.2246V14.2813H33.1371V12.3813Z" fill="#1B6FAE"/>
<path d="M14.0883 12.3813H12.1758V14.2813H14.0883V12.3813Z" fill="#1B6FAE"/>
<path d="M31.2258 10.4812H27.4258V12.3812H31.2258V10.4812Z" fill="#1B6FAE"/>
<path d="M17.9008 10.4812H15.9883V12.3812H17.9008V10.4812Z" fill="#1B6FAE"/>
<path d="M12.1754 10.4814H6.46289V12.3814H12.1754V10.4814Z" fill="#1B6FAE"/>
<path d="M27.4242 8.56885H25.5117V10.4813H27.4242V8.56885Z" fill="#1B6FAE"/>
<path d="M6.4625 8.56885H4.5625V10.4813H6.4625V8.56885Z" fill="#1B6FAE"/>
<path d="M25.5133 6.6687H23.6133V8.5687H25.5133V6.6687Z" fill="#1B6FAE"/>
<path d="M12.1754 8.5688V6.6688H10.2754V4.7688H8.37539V6.6688H6.46289V8.5688H12.1754Z" fill="#1B6FAE"/>
<path d="M23.6117 4.7688H21.6992V6.6688H23.6117V4.7688Z" fill="#1B6FAE"/>
<path d="M15.9879 4.7688H14.0879V10.4813H15.9879V4.7688Z" fill="#1B6FAE"/>
<path d="M4.56211 4.7688H2.66211V6.6688H4.56211V4.7688Z" fill="#1B6FAE"/>
<path d="M21.7008 2.8562H15.9883V4.7687H21.7008V2.8562Z" fill="#1B6FAE"/>
<path d="M6.4625 2.8562H4.5625V4.7687H6.4625V2.8562Z" fill="#1B6FAE"/>
<path d="M14.0879 0.956299H6.46289V2.8563H14.0879V0.956299Z" fill="#1B6FAE"/>
</g>
<defs>
<clipPath id="clip0_1031_25774">
<rect width="40" height="40" fill="white" transform="translate(0.75)"/>
</clipPath>
</defs>
</svg>
