<svg width="66" height="16" viewBox="0 0 66 16" fill="none" xmlns="http://www.w3.org/2000/svg">
<g clip-path="url(#clip0_1465_52334)">
<path d="M5.12633 0H11.6032C14.6692 0 17.1548 2.49163 17.1548 5.56522C17.1548 8.63884 14.6692 11.1304 11.6032 11.1304H7.90213C6.88012 11.1304 6.0516 11.961 6.0516 12.9855V15.7681H0.5V10.2029H3.2758C4.29782 10.2029 5.12633 9.37237 5.12633 8.34783V0Z" fill="#FF4E00"/>
<path d="M25.1497 15.7526H22.707V1.46851H29.9334C32.8443 1.46851 34.6152 3.40706 34.6152 5.95778C34.6152 8.835 32.6203 10.5899 29.9334 10.5899H25.1497V15.7526ZM25.1497 3.67233V8.38607H29.8112C31.3379 8.38607 32.1318 7.24335 32.1318 5.95778C32.1318 4.611 31.2158 3.67233 29.8112 3.67233H25.1497Z" fill="#161514"/>
<path d="M39.1112 15.9263C36.6278 15.9263 34.9994 14.7224 35.0197 12.7022C35.0401 10.1719 37.5438 9.64135 39.6405 9.39648C41.269 9.21282 42.47 9.15161 42.4903 8.29456C42.47 7.23346 41.6557 6.53967 40.2715 6.53967C38.8466 6.53967 37.8288 7.31509 37.6863 8.4374H35.264C35.4879 6.15196 37.5235 4.5603 40.3122 4.5603C43.2231 4.5603 44.8313 6.15196 44.8313 8.45781V13.3552C44.8313 13.6613 44.9941 13.8245 45.3605 13.8245H45.9508V15.7019H44.8109C43.7117 15.7019 43.0399 15.2529 42.8567 14.4367C42.816 14.3347 42.7753 14.1918 42.7549 14.0694C42.1239 15.2325 40.9433 15.9263 39.1112 15.9263ZM39.5998 14.0286C41.2486 14.0286 42.4903 13.0899 42.4903 11.6411V10.1311C42.0832 10.7637 41.0451 10.9065 39.9051 11.0493C38.5616 11.2126 37.4421 11.3962 37.4421 12.539C37.4421 13.4776 38.1952 14.0286 39.5998 14.0286Z" fill="#161514"/>
<path d="M49.9157 15.7297H47.5137V4.91467H49.4475L49.7325 7.03687C50.4246 5.56766 51.6866 4.79224 53.4779 4.79224H53.8851V7.1389H53.4779C51.2388 7.1389 49.9157 8.34284 49.9157 10.3834V15.7297Z" fill="#161514"/>
<path d="M58.621 15.9263C56.1376 15.9263 54.5091 14.7224 54.5295 12.7022C54.5498 10.1719 57.0536 9.64135 59.1503 9.39648C60.7787 9.21282 61.9797 9.15161 62.0001 8.29456C61.9797 7.23346 61.1655 6.53967 59.7813 6.53967C58.3564 6.53967 57.3386 7.31509 57.1961 8.4374H54.7738C54.9977 6.15196 57.0333 4.5603 59.822 4.5603C62.7329 4.5603 64.341 6.15196 64.341 8.45781V13.3552C64.341 13.6613 64.5039 13.8245 64.8703 13.8245H65.4606V15.7019H64.3207C63.2214 15.7019 62.5497 15.2529 62.3665 14.4367C62.3258 14.3347 62.2851 14.1918 62.2647 14.0694C61.6337 15.2325 60.453 15.9263 58.621 15.9263ZM59.1096 14.0286C60.7584 14.0286 62.0001 13.0899 62.0001 11.6411V10.1311C61.593 10.7637 60.5548 10.9065 59.4149 11.0493C58.0714 11.2126 56.9518 11.3962 56.9518 12.539C56.9518 13.4776 57.705 14.0286 59.1096 14.0286Z" fill="#161514"/>
</g>
<defs>
<clipPath id="clip0_1465_52334">
<rect width="65" height="16" fill="white" transform="translate(0.5)"/>
</clipPath>
</defs>
</svg>
