<svg width="82" height="20" viewBox="0 0 82 20" fill="none" xmlns="http://www.w3.org/2000/svg">
<path d="M75.8455 15.6396V6.55514H73.0254V3.7119H82.0015V6.55514H79.2158V15.6396H75.8455Z" fill="#100F0D"/>
<path d="M67.6798 15.8477C66.7513 15.8477 65.9546 15.6974 65.2897 15.3969C64.6247 15.0965 64.1088 14.6167 63.742 13.958C63.3866 13.2992 63.209 12.4381 63.209 11.3748V3.71191H66.5793V11.4615C66.5793 11.9469 66.6538 12.3399 66.8029 12.6403C66.9633 12.9409 67.25 13.0911 67.6626 13.0911C68.0753 13.0911 68.362 12.9409 68.5224 12.6403C68.6944 12.3399 68.7804 11.9469 68.7804 11.4615V3.71191H72.1507V11.3748C72.1507 12.4381 71.9731 13.2992 71.6176 13.958C71.2622 14.6167 70.752 15.0965 70.0872 15.3969C69.4223 15.6974 68.6199 15.8477 67.6798 15.8477Z" fill="#100F0D"/>
<path d="M52.7772 15.6396V3.7119H55.8724L57.8155 7.54333C57.8729 7.65893 57.9417 7.79761 58.0219 7.95941C58.1137 8.12121 58.1997 8.2888 58.2798 8.46217C58.3716 8.63554 58.4461 8.79733 58.5034 8.94763L58.5893 8.93028C58.5893 8.68758 58.5893 8.44488 58.5893 8.20212C58.5893 7.94784 58.5893 7.72827 58.5893 7.54333V3.7119H61.7533V15.6396H58.6581L56.5603 11.6348C56.4457 11.4037 56.3425 11.1783 56.2507 10.9587C56.1706 10.7275 56.0903 10.5079 56.01 10.2999L55.924 10.3172C55.9355 10.5369 55.9412 10.768 55.9412 11.0107C55.9412 11.2418 55.9412 11.4499 55.9412 11.6348V15.6396H52.7772Z" fill="#100F0D"/>
<path d="M45.9028 11.2707H47.7083L47.2785 8.86095C47.2554 8.74535 47.2269 8.59511 47.1925 8.41017C47.1695 8.22524 47.1351 8.02875 47.0893 7.82074C47.0549 7.60111 47.0205 7.38732 46.9861 7.17925C46.9517 6.95969 46.9173 6.76318 46.883 6.58981H46.7282C46.7052 6.80944 46.6708 7.05793 46.625 7.33528C46.5791 7.60111 46.5332 7.86695 46.4875 8.13277C46.4416 8.39861 46.3957 8.64132 46.3499 8.86095L45.9028 11.2707ZM41.6211 15.6396L44.6475 3.7119H49.0668L52.0932 15.6396H48.5337L48.207 13.906H45.4041L45.0774 15.6396H41.6211Z" fill="#100F0D"/>
<path d="M33.1445 15.6396V3.7119H41.1061V6.48579H36.5149V8.21946H40.3839V10.9587H36.5149V12.8658H41.2093V15.6396H33.1445Z" fill="#100F0D"/>
<path d="M27.0246 9.22503H28.0908C28.3888 9.22503 28.6008 9.09209 28.727 8.82625C28.8531 8.56042 28.9162 8.21946 28.9162 7.80339C28.9162 7.51442 28.8875 7.26593 28.8302 7.05793C28.7843 6.84986 28.6983 6.68806 28.5722 6.57248C28.4576 6.45685 28.2971 6.39911 28.0908 6.39911H27.0246V9.22503ZM23.6543 15.6396V3.7119H28.9849C29.73 3.7119 30.3491 3.87954 30.8421 4.21467C31.3349 4.5498 31.7018 5.0179 31.9426 5.61895C32.1833 6.22 32.3037 6.9192 32.3037 7.7167C32.3037 8.54886 32.1775 9.27702 31.9254 9.90115C31.6731 10.5253 31.2948 11.0107 30.7905 11.3574C30.2975 11.7042 29.6841 11.8775 28.9505 11.8775H27.0246V15.6396H23.6543Z" fill="#100F0D"/>
<path d="M12.9318 19.7026C12.9681 19.6817 13.0056 19.6578 13.0431 19.6314C13.0691 19.613 13.0951 19.5922 13.1217 19.5712C13.1314 19.5639 13.1404 19.5566 13.1501 19.5493C13.6223 19.1548 14.1523 18.3319 14.5298 17.3343C14.5316 17.3293 14.5334 17.3244 14.5352 17.3196C14.5622 17.248 14.5881 17.1758 14.6139 17.1024C15.1725 15.4766 15.3459 13.4017 14.4051 11.7056C13.8133 10.6382 12.9693 9.74391 11.9898 9.11769C11.15 8.5717 10.6387 7.64949 10.6173 6.64266C10.6016 5.47203 10.2876 4.27912 9.69582 3.21171C8.76339 1.53204 6.9006 0.594517 5.2232 0.221109C4.63614 0.090416 4.02565 0.00986671 3.42391 0.0300045C3.00704 0.0442734 2.53746 0.07868 2.16544 0.288855C0.88895 1.00833 -0.989806 5.25278 0.692297 8.28586C1.28407 9.35327 2.12798 10.2475 3.10743 10.8737C3.94727 11.4197 4.4586 12.3419 4.47993 13.3488C4.49569 14.5195 4.80969 15.7123 5.40146 16.7796C7.08351 19.8128 11.6548 20.4216 12.9312 19.7021L12.9318 19.7026Z" fill="#FBC607"/>
<path d="M14.0635 16.3598C13.6812 17.7743 12.996 18.8079 12.5452 19.0621C11.6079 19.5898 7.52392 19.0581 6.05552 16.4203L6.05216 16.414C5.5287 15.4694 5.24637 14.4106 5.23572 13.3516C5.20137 12.0682 4.54852 10.9132 3.4896 10.262C2.61298 9.70565 1.84615 8.8871 1.33039 7.95732C0.470193 6.40608 0.763934 4.60719 1.01562 3.67286C1.39642 2.25912 2.07407 1.23024 2.51833 0.979927C3.13246 0.633726 4.57199 0.779621 5.61452 1.09262C6.53062 1.36774 8.19536 2.05988 9.05178 3.60485C9.57525 4.54944 9.85762 5.60819 9.86832 6.6664C9.8771 7.93691 10.5205 9.09746 11.5895 9.77071C12.4794 10.3356 13.2261 11.1325 13.7488 12.0754C14.6102 13.6289 14.3156 15.4265 14.0635 16.3598ZM14.4291 11.6924C13.8405 10.6308 13.0023 9.73268 12.0051 9.09511C11.1744 8.55506 10.6658 7.63799 10.6448 6.64213C10.6287 5.45189 10.3089 4.26112 9.71987 3.19864C8.57425 1.13489 6.19823 0.41048 5.22978 0.194838C4.56733 0.0474739 3.97685 -0.0154705 3.42394 0.00319862C3.00877 0.0173359 2.53397 0.0504074 2.15343 0.265385C1.47036 0.650394 0.688652 1.97399 0.294775 3.41255C0.00656183 4.46502 -0.327844 6.4993 0.670051 8.29881C1.25867 9.36047 2.0969 10.2586 3.09402 10.896C3.92477 11.4362 4.4333 12.3533 4.45438 13.3491C4.4704 14.5394 4.79018 15.7302 5.37927 16.7924C6.3771 18.592 8.27157 19.37 9.31193 19.6737C10.0557 19.8907 10.828 20 11.4937 20C12.0912 20 12.6027 19.9119 12.9294 19.734L12.9303 19.7346L12.9459 19.7257C12.9841 19.7037 13.0222 19.6792 13.0592 19.6531C13.0814 19.6373 13.1037 19.6199 13.1263 19.6022L13.168 19.5698C13.6597 19.1588 14.1914 18.3058 14.557 17.3393L14.5609 17.3289C14.588 17.2571 14.6139 17.1849 14.6398 17.1109C14.9613 16.1754 15.5841 13.7749 14.4291 11.6924Z" fill="#100F0D"/>
<path d="M3.85264 6.92944C4.68571 6.92684 5.35885 6.24386 5.35622 5.40396C5.35364 4.56406 4.6762 3.88539 3.84319 3.88805C3.01017 3.89059 2.33696 4.57366 2.33961 5.41356C2.34219 6.25333 3.01963 6.93209 3.85264 6.92944Z" fill="white"/>
<path d="M6.49551 5.48632C7.32853 5.48379 8.00169 4.80072 7.9991 3.96095C7.99647 3.12105 7.31902 2.44224 6.48602 2.44491C5.65299 2.44758 4.9798 3.13052 4.98243 3.97042C4.98506 4.81032 5.66245 5.48899 6.49551 5.48632Z" fill="white"/>
<path d="M7.35304 4.83055C7.12384 5.063 6.81862 5.19156 6.49357 5.19249C6.49218 5.19249 6.49099 5.19249 6.48959 5.19249C6.06885 5.19249 5.69718 4.97578 5.47852 4.64705C5.44643 4.5773 5.41016 4.50956 5.36924 4.44434C5.30765 4.29831 5.27323 4.13775 5.27272 3.96945C5.27065 3.29291 5.8149 2.7408 6.48592 2.73867C6.48722 2.73867 6.4885 2.73867 6.4898 2.73867C6.81341 2.73867 7.11789 2.86523 7.34757 3.09527C7.57816 3.32625 7.70574 3.63391 7.70672 3.96171C7.7077 4.28951 7.58209 4.59811 7.35304 4.83055ZM3.85036 6.63612C3.52412 6.64278 3.21932 6.51062 2.98866 6.27951C2.75812 6.04853 2.63054 5.74074 2.62956 5.41307C2.62853 5.08541 2.75419 4.77668 2.98324 4.54423C3.2124 4.31178 3.51767 4.18322 3.84272 4.18216C3.84405 4.18216 3.84535 4.18216 3.8467 4.18216C4.17029 4.18216 4.47468 4.30872 4.70435 4.53876C4.76202 4.59651 4.81322 4.65905 4.8576 4.7256C4.88918 4.79415 4.92493 4.86029 4.96447 4.92404C5.02853 5.0742 5.063 5.23704 5.06346 5.40534C5.06563 6.08187 4.52139 6.63398 3.85036 6.63612ZM7.75828 2.67866C7.41872 2.33832 6.96842 2.15122 6.4899 2.15122C6.48793 2.15122 6.48603 2.15122 6.48411 2.15122C5.5459 2.15415 4.77644 2.88443 4.6977 3.80942C4.43831 3.66846 4.14673 3.59377 3.8409 3.59471C3.36017 3.59617 2.90883 3.78648 2.56994 4.13015C2.23114 4.47408 2.04539 4.93017 2.04688 5.41494C2.04834 5.89957 2.23692 6.35459 2.57795 6.69623C2.91756 7.03646 3.36777 7.22363 3.84627 7.22363C3.84819 7.22363 3.8502 7.22363 3.85217 7.22363C4.79086 7.22062 5.56068 6.48955 5.63864 5.56377C5.89224 5.70166 6.182 5.78008 6.48953 5.78008C6.4915 5.78008 6.49341 5.78008 6.49538 5.78008C6.97612 5.77848 7.4275 5.58831 7.76629 5.24464C8.10514 4.90084 8.29089 4.44461 8.2894 3.95985C8.28789 3.47522 8.09925 3.02019 7.75828 2.67866Z" fill="#100F0D"/>
<path d="M6.35166 2.50886C5.98771 2.99629 5.96745 3.68563 6.34604 4.20133C6.66917 4.64142 7.19765 4.8384 7.69983 4.75611C8.06374 4.26868 8.08399 3.57934 7.70546 3.06364C7.38226 2.62355 6.85379 2.42658 6.35166 2.50886Z" fill="#100F0D"/>
<path d="M3.78714 3.94796C3.43713 4.43059 3.42163 5.10512 3.79293 5.61109C4.09907 6.02811 4.59055 6.22455 5.06736 6.17107C5.41731 5.68844 5.43281 5.0139 5.06157 4.50793C4.75543 4.09092 4.2639 3.89448 3.78714 3.94796Z" fill="#100F0D"/>
<path d="M7.81969 6.69584C7.66128 6.60183 7.45677 6.65517 7.36345 6.81524C7.22307 7.05606 6.87704 7.34169 6.6083 7.43895C6.38183 7.52044 6.11821 7.54325 5.87749 7.50642C5.91649 7.36472 5.86081 7.20876 5.72971 7.12905C5.57217 7.03346 5.36725 7.08446 5.27219 7.24339L4.9014 7.86352C4.80638 8.0224 4.85718 8.22896 5.01481 8.32481C5.0686 8.35747 5.12797 8.37305 5.18656 8.37305C5.29951 8.37305 5.40978 8.31517 5.47234 8.21047L5.52955 8.11477C5.53947 8.11846 5.54872 8.12326 5.55915 8.12608C5.73344 8.17322 5.91795 8.19661 6.10354 8.19661C6.35228 8.19661 6.60288 8.15462 6.83302 8.07169C7.2456 7.92244 7.7207 7.52877 7.93812 7.15583C8.03138 6.99585 7.97837 6.78992 7.81969 6.69584Z" fill="#100F0D"/>
<path d="M10.8111 17.689C10.2893 17.3935 9.79148 17.0272 9.37073 16.6288C9.2271 16.4984 8.99085 16.5148 8.85502 16.6651C8.71793 16.8169 8.72357 17.0661 8.86722 17.1988C9.35998 17.6512 9.91176 18.0498 10.4584 18.3491C10.5057 18.3815 10.5572 18.3977 10.6129 18.3977C10.6747 18.3977 10.7415 18.3777 10.8128 18.3377C10.8673 18.3069 10.9036 18.2545 10.9387 18.2038L10.9482 18.1894C11.0564 17.9778 10.9584 17.7737 10.8111 17.689Z" fill="#100F0D"/>
<path d="M7.82701 15.0121C7.62545 14.648 7.44564 14.2631 7.30272 13.9574C7.2277 13.7606 7.02371 13.6818 6.80711 13.7656C6.61201 13.8409 6.53373 14.0464 6.61697 14.2657C6.76644 14.6458 6.97813 15.0281 7.18651 15.4043C7.29992 15.6093 7.40699 15.8032 7.55441 16.0106C7.62746 16.1027 7.73261 16.1514 7.84189 16.1514C7.9012 16.1514 7.96177 16.1369 8.01897 16.1075L8.06278 16.0828C8.23086 15.9529 8.26967 15.7537 8.16018 15.5577C8.03524 15.3874 7.93118 15.1998 7.82701 15.0121Z" fill="#100F0D"/>
<path d="M6.69965 12.2704C6.58277 11.8372 6.4087 11.4107 6.18243 11.0026C6.08498 10.8262 5.97442 10.6263 5.84141 10.4448C5.7777 10.3612 5.68894 10.3085 5.59128 10.2968C5.49709 10.2854 5.40553 10.312 5.33298 10.3711C5.25 10.4351 5.19787 10.5247 5.18614 10.6232C5.17487 10.7176 5.20127 10.8105 5.25966 10.8836C5.37323 11.0326 5.46479 11.1982 5.55336 11.3582C5.73197 11.6808 5.88446 12.0477 6.00422 12.4387C6.01632 12.5543 6.07604 12.6538 6.16806 12.7116C6.21969 12.7441 6.27699 12.7607 6.33382 12.7607C6.36436 12.7607 6.39485 12.7559 6.42424 12.7462L6.51192 12.7001C6.64368 12.6258 6.72331 12.448 6.69965 12.2704Z" fill="#100F0D"/>
<path d="M12.8946 15.0528C12.8757 14.9533 12.8168 14.865 12.7332 14.8106C12.6497 14.7562 12.5482 14.7395 12.45 14.763C12.3514 14.7821 12.2638 14.8414 12.2097 14.9257C12.1558 15.0098 12.1392 15.1122 12.1628 15.2118C12.2785 15.7821 12.3274 16.4017 12.3042 17.0037C12.3011 17.1031 12.3382 17.199 12.4062 17.2667C12.4685 17.329 12.5514 17.3626 12.6424 17.3593C12.6622 17.3641 12.6804 17.3662 12.6973 17.3662C12.7566 17.3662 12.8006 17.3413 12.8377 17.3201C12.9473 17.2586 13.0239 17.1441 13.0332 17.0271C13.0666 16.3944 13.0188 15.7117 12.8946 15.0528Z" fill="#100F0D"/>
<path d="M9.09275 9.37568C9.31979 9.78514 9.58914 10.1579 9.89187 10.4817C9.95714 10.5583 10.0564 10.5986 10.1595 10.5986C10.2257 10.5986 10.2935 10.582 10.355 10.5473L10.4251 10.508L10.4385 10.4973C10.5722 10.3495 10.5848 10.1273 10.4639 9.97622C10.2308 9.74215 10.0141 9.43793 9.78182 9.01868C9.69367 8.85984 9.60252 8.69555 9.53432 8.51734L9.52693 8.50405C9.38235 8.31396 9.18653 8.24316 9.00341 8.31531L8.92771 8.34496L8.93418 8.35146C8.78123 8.45118 8.74791 8.64188 8.80077 8.79187C8.88152 8.99419 8.98667 9.18414 9.09275 9.37568Z" fill="#100F0D"/>
<path d="M12.5354 13.6709L12.5587 13.6576C12.7169 13.5683 12.7858 13.3611 12.7183 13.1738C12.6382 12.9731 12.5208 12.7613 12.4073 12.5564L12.3995 12.5424C12.1965 12.1763 11.9798 11.8356 11.735 11.4559C11.6738 11.3781 11.5796 11.3271 11.4769 11.3156C11.3902 11.3053 11.3075 11.3259 11.2424 11.3723L11.2272 11.3834C11.0482 11.5217 11.0409 11.7494 11.1303 11.9092C11.3536 12.205 11.5493 12.5566 11.7386 12.8966L11.7531 12.923C11.8528 13.1032 11.9559 13.2896 12.0327 13.4823C12.0871 13.6253 12.2096 13.7061 12.3586 13.7061C12.4145 13.7061 12.4742 13.6946 12.5354 13.6709Z" fill="#100F0D"/>
<path d="M8.90495 13.0509C8.93604 13.0599 8.96824 13.0645 9.00063 13.0645C9.06522 13.0645 9.13095 13.0467 9.19232 13.0122C9.28383 12.9607 9.34863 12.8806 9.37488 12.7869C9.40097 12.6934 9.38728 12.5914 9.33623 12.4999L8.34412 10.7111C8.29281 10.6188 8.21339 10.5534 8.12039 10.527C8.02785 10.501 7.92669 10.5148 7.83589 10.566C7.74476 10.6176 7.68012 10.6975 7.65377 10.791C7.62742 10.8846 7.64095 10.9867 7.69205 11.0784L8.68406 12.867C8.73422 12.959 8.81271 13.0242 8.90495 13.0509Z" fill="#100F0D"/>
<path d="M10.3285 14.288C10.2774 14.1961 10.1981 14.1308 10.1054 14.1043C10.0126 14.0783 9.91124 14.0917 9.82014 14.1432C9.7291 14.1949 9.66452 14.2748 9.63816 14.3681C9.61176 14.4618 9.62536 14.564 9.67645 14.6555L10.6685 16.4441C10.7186 16.536 10.7971 16.6013 10.8893 16.628C10.9205 16.6371 10.9527 16.6416 10.9852 16.6416C11.0497 16.6416 11.1154 16.624 11.1768 16.5895H11.1769C11.2684 16.5377 11.3332 16.4577 11.3593 16.3639C11.3854 16.2703 11.3717 16.1686 11.3206 16.077L10.3285 14.288Z" fill="#100F0D"/>
</svg>
