<?xml version="1.0" encoding="utf-8"?>
<!-- Generator: Adobe Illustrator 26.2.1, SVG Export Plug-In . SVG Version: 6.00 Build 0)  -->
<svg version="1.1" id="Layer_1" xmlns="http://www.w3.org/2000/svg" xmlns:xlink="http://www.w3.org/1999/xlink" x="0px" y="0px"
	 viewBox="0 0 1038 1200" style="enable-background:new 0 0 1038 1200;" xml:space="preserve">
<style type="text/css">
	.st0{fill:#EAC9F8;}
	.st1{fill:#FFFFFF;}
	.st2{fill:#5E58A5;}
</style>
<g id="Capa_4">
	<path class="st0" d="M367.5,926.7c5.3-2.5,11.1-3.6,17-3.3c13.2,0.7,25,9,31,21.8l29.7,63.7l51.4-141.2c-7.9-2-15.4-5.1-22.5-9.2
		l-22.4-12.9c-11.3-6.5-24.1-10-37.2-10h-25.8c-13.4,0-26.7-3-38.8-8.8L302.5,957L367.5,926.7z"/>
	<path class="st0" d="M449.5,1016.1c-0.6,1.7-2.1,2.8-3.9,2.8h-0.2c-1.7,0-3.2-1-3.9-2.5l-32-68.5c-4.9-10.5-14.6-17.4-25.4-18
		c-4.8-0.3-9.6,0.7-13.9,2.7l-69.8,32.5c-2.2,1-4.8,0.1-5.8-2.1c-0.5-1-0.5-2.2-0.1-3.3l49.5-136c-4.7-2.6-9.1-5.7-13.2-9.1
		l-56.1,154.2c-2.6,7,1.1,14.8,8.1,17.4c3.4,1.2,7.1,1.1,10.4-0.4l83.7-39c6.8-3.1,14.8-0.2,18,6.6l39,83.6c3.2,6.8,11.2,9.7,18,6.6
		c3.3-1.5,5.8-4.3,7-7.7L519,870.5c-5.4,0-10.7-0.5-16-1.5L449.5,1016.1z"/>
	<path class="st1" d="M295.7,964.4c1.3,1.2,3.2,1.5,4.8,0.7l69.8-32.5c4.3-2,9.1-3,13.9-2.7c10.7,0.6,20.5,7.5,25.4,18l32,68.5
		c0.7,1.5,2.2,2.5,3.9,2.5h0.2c1.8-0.1,3.3-1.2,3.9-2.8L503,869c-2.2-0.4-4.3-0.9-6.5-1.4l-51.4,141.2l-29.7-63.7
		c-5.9-12.7-17.8-21-31-21.8c-5.9-0.3-11.7,0.8-17,3.3l-64.9,30.2l47.4-130.2c-2-1-4-2-5.9-3l-49.5,136
		C293.9,961.4,294.4,963.2,295.7,964.4z"/>
	<path class="st0" d="M625,943.9c2.2-4.7,5.4-8.9,9.4-12.2c0.5-0.4,1-0.8,1.5-1.2c10.5-7.9,25-9.2,37.7-3.3l63.7,29.6l-47.6-130.5
		c-12.3,6-25.9,9.1-39.6,9.1h-25.8c-13.1,0-25.9,3.5-37.2,10l-22.4,12.9c-6.8,3.9-14.1,7-21.7,9l51.6,141.5L625,943.9z"/>
	<path class="st0" d="M745.4,959.6c0.8,2.3-0.3,4.7-2.6,5.6c-1.1,0.4-2.3,0.3-3.3-0.1l-68.6-31.9c-10.5-4.9-22.4-3.9-31,2.5
		c-0.4,0.3-0.9,0.7-1.3,1c-3.3,2.7-5.9,6.1-7.7,10l-32.5,69.8c-0.7,1.5-2.2,2.5-3.9,2.5h-0.2c-1.8-0.1-3.3-1.2-3.9-2.8l-53.7-147.3
		c-5.3,1-10.6,1.6-16,1.6l60.3,165.4c2.6,7,10.4,10.6,17.4,8c3.3-1.2,6.1-3.7,7.6-7l39-83.7c3.2-6.8,11.2-9.7,18-6.6l83.6,38.9
		c6.8,3.2,14.9,0.2,18-6.6c1.5-3.3,1.7-7,0.4-10.4L708.8,814c-4.1,3.5-8.5,6.6-13.2,9.3L745.4,959.6z"/>
	<path class="st1" d="M594.3,1019h0.2c1.7,0,3.2-1,3.9-2.5l32.5-69.8c1.8-3.9,4.4-7.3,7.7-10c0.4-0.3,0.8-0.7,1.3-1
		c8.6-6.5,20.5-7.4,31-2.5l68.6,31.9c2.2,1,4.8,0.1,5.8-2.1c0.5-1,0.5-2.2,0.1-3.3l-49.7-136.4c-1.9,1.1-3.9,2.1-5.9,3.1l47.6,130.5
		l-63.7-29.6c-12.7-5.9-27.2-4.7-37.7,3.3c-0.5,0.4-1,0.8-1.5,1.2c-4,3.3-7.2,7.5-9.4,12.2l-30.3,64.9l-51.6-141.5
		c-2.1,0.6-4.3,1.1-6.5,1.5l53.7,147.3C591,1017.8,592.6,1018.9,594.3,1019z"/>
	<path class="st1" d="M845.4,555.5c13.2-23,13.2-51.3,0-74.4l-12.9-22.4c-8-13.8-12.2-29.4-12.2-45.4v-25.8
		c0-26.6-14.2-51.1-37.2-64.4l-22.4-12.9c-13.8-8-25.2-19.4-33.2-33.2l-12.9-22.4c-13.3-23-37.8-37.1-64.4-37.2h-25.8
		c-15.9,0-31.6-4.2-45.4-12.2l-22.4-12.9c-23-13.2-51.3-13.2-74.4,0l-22.3,12.9c-13.8,8-29.5,12.2-45.4,12.2h-25.8
		c-26.6,0-51.1,14.2-64.4,37.2L311.4,277c-8,13.8-19.4,25.3-33.2,33.2l-22.4,12.9c-23,13.3-37.1,37.8-37.2,64.4v25.8
		c0,15.9-4.2,31.6-12.2,45.4l-12.9,22.4c-13.2,23-13.2,51.3,0,74.4l12.9,22.4c8,13.8,12.2,29.4,12.2,45.4V649
		c0,26.6,14.2,51.1,37.2,64.4l22.4,12.9c13.8,8,25.3,19.4,33.2,33.2l12.9,22.4c13.3,23,37.8,37.1,64.4,37.2h25.8
		c15.9,0,31.6,4.2,45.4,12.2l22.4,12.9c23,13.2,51.3,13.2,74.4,0l22.3-12.9c13.8-8,29.4-12.2,45.4-12.2h25.8
		c26.6,0,51.1-14.2,64.4-37.2l12.9-22.4c8-13.8,19.4-25.3,33.2-33.2l22.4-12.9c23-13.3,37.2-37.9,37.2-64.4v-25.8
		c0-15.9,4.2-31.6,12.2-45.4L845.4,555.5z M531.8,591.2L571.7,461c0.4-1.2,1-2.4,1.8-3.3c1-0.9,2.3-1.4,3.6-1.3h11
		c1.3-0.1,2.6,0.4,3.6,1.3c0.8,1,1.5,2.1,1.8,3.3l39.8,130.2c0.2,0.7,0.3,1.5,0.3,2.3c0,1.1-0.3,2.1-1,3c-0.6,0.8-1.5,1.3-2.5,1.3
		H622c-1.2,0.1-2.3-0.4-3-1.3c-0.5-0.7-0.9-1.5-1.2-2.3l-7.9-25.4c-0.6-1.8-2.2-3-4.1-3h-46.2c-1.9,0-3.5,1.2-4.1,3l-7.9,25.4
		c-0.2,0.9-0.6,1.6-1.2,2.3c-0.8,0.9-1.9,1.4-3.1,1.3h-8.2c-1,0-1.9-0.5-2.5-1.3c-0.7-0.9-1-1.9-1-3
		C531.7,592.6,531.8,591.9,531.8,591.2L531.8,591.2z M418.3,514.4l34.5-56.2c2.7-4.4,8.4-5.7,12.8-3c1.2,0.8,2.3,1.8,3,3l34.6,56.3
		c3.4,5.6,3.5,12.6,0.3,18.2l-34.3,60c-1.6,2.9-4.7,4.7-8,4.7l0,0c-3.3,0-6.3-1.7-8-4.6l-35.1-60C414.7,527.1,414.8,520,418.3,514.4
		L418.3,514.4z M322.9,542.7c-2,0-3.7,1.6-3.7,3.7v46.4c0,1.3-0.3,2.5-1.1,3.5c-0.7,0.9-1.8,1.4-3,1.4h-8.5c-1.2,0-2.3-0.5-2.9-1.4
		c-0.7-1-1-2.2-1-3.5V469.5c0-7.3,5.9-13.2,13.2-13.2h31.7c8,0,15,1.6,20.8,4.9c5.9,3.3,10.7,8.4,13.7,14.5c3.2,6.4,4.9,14.4,4.9,24
		s-1.6,17.6-4.9,23.9c-3,6.1-7.8,11.1-13.7,14.4c-5.9,3.2-12.9,4.9-20.8,4.9L322.9,542.7z M745.8,523.5c-3,6.1-7.8,11.1-13.7,14.4
		c-5.9,3.2-12.9,4.9-20.8,4.9h-24.6c-2,0-3.7,1.6-3.7,3.7v46.4c0,1.3-0.3,2.5-1.1,3.5c-0.7,0.9-1.8,1.4-3,1.4h-8.5
		c-1.2,0-2.3-0.5-3-1.4c-0.7-1-1.1-2.2-1-3.5V469.5c0-7.3,5.9-13.1,13.1-13.2h31.7c8,0,15,1.6,20.8,4.9c5.9,3.3,10.7,8.4,13.7,14.5
		c3.2,6.4,4.8,14.4,4.8,24S749,517.2,745.8,523.5z"/>
	<path class="st1" d="M686.7,525.3h23.8c7.8,0,13.8-2.2,17.7-6.6s5.9-10.8,5.9-19.2s-1.9-14.7-5.7-19.1s-9.8-6.8-17.8-6.8h-23.7
		c-2.1,0-3.8,1.7-3.8,3.8v43.9C682.9,523.6,684.6,525.3,686.7,525.3z"/>
	<path class="st1" d="M346.6,473.7h-23.8c-2.1,0-3.8,1.7-3.8,3.8v43.9c0,2.1,1.7,3.8,3.8,3.8h23.8c7.8,0,13.8-2.2,17.7-6.6
		s5.9-10.8,5.9-19.1s-1.9-14.7-5.7-19.1S354.7,473.7,346.6,473.7z"/>
	<path class="st1" d="M563.4,547.9h38.5c0.5,0,1-0.2,1.3-0.6c0.3-0.4,0.4-0.9,0.2-1.4l-19.2-63.3c-0.3-0.8-1.2-1.3-2-1
		c-0.5,0.2-0.8,0.5-1,1l-19.3,63.3c-0.2,0.8,0.3,1.7,1.1,1.9C563.1,547.8,563.3,547.8,563.4,547.9L563.4,547.9z"/>
	<path class="st2" d="M859.6,472.9l-12.9-22.4c-6.5-11.3-10-24.1-10-37.2v-25.8c-0.1-32.4-17.3-62.4-45.4-78.6L769,296
		c-11.3-6.5-20.7-15.9-27.2-27.2l-12.9-22.4c-16.3-28-46.2-45.3-78.6-45.4h-25.9c-13.1,0-25.9-3.5-37.2-10l-22.4-12.9
		c-28.1-16.2-62.7-16.2-90.8,0L451.7,191c-11.3,6.5-24.1,10-37.2,10h-25.8c-32.4,0-62.4,17.3-78.6,45.4l-12.9,22.4
		c-6.5,11.3-15.9,20.7-27.2,27.2l-22.4,12.9c-28,16.2-45.3,46.2-45.4,78.6v25.8c0,13.1-3.5,25.9-10,37.2l-12.9,22.4
		c-16.2,28.1-16.2,62.7,0,90.8l12.9,22.3c6.5,11.3,10,24.1,10,37.2V649c0.1,32.4,17.3,62.4,45.4,78.6l22.3,13
		c11.3,6.5,20.7,15.9,27.2,27.2l12.9,22.4c8.1,14,19.8,25.6,33.9,33.6c1.9,1.1,3.9,2.1,5.9,3c12.1,5.8,25.4,8.8,38.8,8.8h25.8
		c13.1,0,25.9,3.5,37.2,10l22.4,12.9c7,4.1,14.6,7.2,22.5,9.2c2.1,0.6,4.3,1,6.5,1.4c5.3,1,10.6,1.5,16,1.5h0.4h1.3
		c5.4-0.1,10.7-0.6,16-1.6c2.2-0.4,4.3-0.9,6.5-1.5c7.6-2,14.9-5.1,21.7-9l22.4-12.9c11.3-6.5,24.1-10,37.2-10h25.8
		c13.7,0,27.2-3.1,39.6-9.1c2-1,4-2,5.9-3.1c13.8-8,25.2-19.4,33.2-33.2l12.9-22.4c6.5-11.3,16-20.7,27.3-27.2l22.4-12.9
		c28.1-16.3,45.3-46.2,45.4-78.7v-25.8c0-13.1,3.5-25.9,10-37.2l12.9-22.4C875.8,535.6,875.8,501,859.6,472.9z M820.3,649
		c0,26.6-14.2,51.1-37.2,64.4l-22.4,12.9c-13.8,8-25.2,19.4-33.2,33.2l-12.9,22.4c-13.3,23-37.8,37.1-64.4,37.2h-25.8
		c-15.9,0-31.6,4.2-45.4,12.2l-22.4,12.9c-23,13.2-51.3,13.2-74.4,0l-22.4-12.9c-13.8-8-29.5-12.2-45.4-12.2h-25.8
		c-26.6,0-51.1-14.2-64.4-37.2l-12.9-22.4c-8-13.8-19.4-25.3-33.2-33.2l-22.4-12.9c-23-13.3-37.1-37.9-37.2-64.4v-25.8
		c0-15.9-4.2-31.6-12.2-45.4l-12.9-22.4c-13.2-23-13.2-51.3,0-74.4l12.9-22.4c8-13.8,12.2-29.4,12.2-45.4v-25.8
		c0-26.6,14.2-51.1,37.2-64.4l22.4-12.9c13.8-8,25.3-19.4,33.2-33.2l12.9-22.4c13.3-23,37.8-37.1,64.4-37.2h25.8
		c15.9,0,31.6-4.2,45.4-12.2l22.4-12.9c23-13.2,51.3-13.2,74.4,0l22.3,12.9c13.8,8,29.5,12.2,45.4,12.2h25.8
		c26.6,0,51.1,14.2,64.4,37.2l12.9,22.4c8,13.8,19.4,25.3,33.2,33.2L783,323c23,13.3,37.1,37.8,37.2,64.4v25.8
		c0,15.9,4.2,31.6,12.2,45.4l12.9,22.4c13.2,23,13.2,51.3,0,74.4l-12.9,22.4c-8,13.8-12.2,29.4-12.2,45.4V649H820.3z"/>
	<path class="st2" d="M368.3,537.9c5.9-3.3,10.7-8.3,13.7-14.4c3.2-6.3,4.9-14.3,4.9-23.9s-1.6-17.6-4.9-24
		c-3-6.1-7.8-11.2-13.7-14.5c-5.9-3.2-12.9-4.9-20.8-4.9h-31.7c-7.3,0-13.2,5.9-13.2,13.2v123.4c0,1.2,0.3,2.5,1,3.5
		c0.7,0.9,1.8,1.5,2.9,1.4h8.5c1.2,0,2.3-0.5,3-1.4c0.8-1,1.1-2.2,1.1-3.5v-46.4c0-2,1.6-3.7,3.7-3.7h24.6
		C355.4,542.7,362.4,541.1,368.3,537.9z M370.3,499.6c0,8.3-2,14.8-5.9,19.2s-9.9,6.6-17.7,6.6h-23.8c-2.1,0-3.8-1.7-3.8-3.8v-43.9
		c0-2.1,1.7-3.8,3.8-3.8h23.8c8,0,14,2.3,17.8,6.8S370.2,491.4,370.3,499.6L370.3,499.6z"/>
	<path class="st2" d="M535.2,597.7h8.2c1.2,0.1,2.3-0.4,3.1-1.3c0.6-0.6,1-1.4,1.2-2.3l7.9-25.4c0.5-1.8,2.2-3,4.1-3h46.1
		c1.9,0,3.5,1.2,4.1,3l7.9,25.4c0.3,0.8,0.7,1.6,1.2,2.3c0.7,0.9,1.8,1.4,3,1.3h8.2c1,0,1.9-0.5,2.5-1.3c0.7-0.9,1-1.9,1-3
		c0-0.8-0.1-1.5-0.3-2.3l-39.7-130.2c-0.4-1.2-1-2.3-1.8-3.3c-1-0.9-2.3-1.4-3.6-1.3h-11c-1.3-0.1-2.6,0.4-3.6,1.3
		c-0.8,1-1.5,2.1-1.8,3.3L532,591.1c-0.1,0.7-0.1,1.5-0.2,2.2c0,1.1,0.3,2.1,1,3C533.3,597.2,534.2,597.7,535.2,597.7z M561.9,545.8
		l19.3-63.3c0.3-0.8,1.2-1.3,2-1c0.5,0.2,0.8,0.5,1,1l19.2,63.3c0.1,0.5,0,1-0.2,1.4c-0.3,0.4-0.8,0.6-1.3,0.6h-38.5
		c-0.9,0-1.6-0.7-1.6-1.6C561.8,546.1,561.9,546,561.9,545.8L561.9,545.8z"/>
	<path class="st2" d="M453.1,592.8c1.7,2.9,4.7,4.6,8,4.6l0,0c3.3,0,6.4-1.8,8-4.7l34.3-60c3.2-5.7,3.1-12.7-0.3-18.2l-34.6-56.3
		c-2.7-4.4-8.4-5.7-12.8-3c-1.2,0.8-2.3,1.8-3,3l-34.5,56.2c-3.5,5.6-3.5,12.7-0.2,18.4L453.1,592.8z M463.1,482.4l25,40.6
		c0.5,0.9,0.5,2,0,2.9l-24.7,43.2c-0.8,1.4-2.5,1.8-3.9,1c-0.4-0.2-0.8-0.6-1-1l-25.3-43.2c-0.5-0.9-0.5-2,0-2.9l25-40.6
		c0.8-1.3,2.6-1.7,3.9-0.9C462.6,481.7,462.9,482,463.1,482.4L463.1,482.4z"/>
	<path class="st1" d="M458.3,482.4l-25,40.6c-0.5,0.9-0.5,2,0,2.9l25.3,43.2c0.8,1.4,2.5,1.8,3.9,1c0.4-0.2,0.8-0.6,1-1l24.7-43.2
		c0.5-0.9,0.5-2,0-2.9l-25-40.6c-0.8-1.3-2.6-1.8-3.9-0.9C458.8,481.7,458.5,482,458.3,482.4z"/>
	<path class="st2" d="M732.1,461.2c-5.9-3.2-12.9-4.9-20.8-4.9h-31.7c-7.3,0-13.2,5.9-13.2,13.2v123.3c-0.1,1.2,0.3,2.5,1,3.5
		c0.7,0.9,1.8,1.5,3,1.4h8.5c1.2,0,2.3-0.5,3-1.4c0.8-1,1.1-2.2,1.1-3.5v-46.4c0-2,1.6-3.7,3.7-3.7h24.6c8,0,15-1.6,20.8-4.9
		c5.9-3.3,10.7-8.3,13.7-14.4c3.2-6.3,4.8-14.3,4.8-23.9s-1.6-17.6-4.8-24C742.8,469.5,738,464.5,732.1,461.2z M682.9,477.6
		c0-2.1,1.7-3.8,3.8-3.8h23.8c8,0,14,2.3,17.8,6.8s5.7,10.9,5.7,19.1s-2,14.8-5.9,19.2s-9.8,6.6-17.7,6.6h-23.7
		c-2.1,0-3.8-1.7-3.8-3.8L682.9,477.6z"/>
</g>
</svg>
