<svg width="40" height="40" viewBox="0 0 40 40" fill="none" xmlns="http://www.w3.org/2000/svg">
<circle cx="20" cy="20" r="19.5" stroke="#0073DE" stroke-dasharray="4 4"/>
<g clip-path="url(#clip0_1458_20319)">
<path d="M20.0013 11.667C16.7763 11.667 14.168 14.2753 14.168 17.5003C14.168 21.8753 20.0013 28.3337 20.0013 28.3337C20.0013 28.3337 25.8346 21.8753 25.8346 17.5003C25.8346 14.2753 23.2263 11.667 20.0013 11.667ZM15.8346 17.5003C15.8346 15.2003 17.7013 13.3337 20.0013 13.3337C22.3013 13.3337 24.168 15.2003 24.168 17.5003C24.168 19.9003 21.768 23.492 20.0013 25.7337C18.268 23.5087 15.8346 19.8753 15.8346 17.5003Z" fill="#0073DE"/>
<path d="M20.0013 19.5837C21.1519 19.5837 22.0846 18.6509 22.0846 17.5003C22.0846 16.3497 21.1519 15.417 20.0013 15.417C18.8507 15.417 17.918 16.3497 17.918 17.5003C17.918 18.6509 18.8507 19.5837 20.0013 19.5837Z" fill="#0073DE"/>
</g>
<defs>
<clipPath id="clip0_1458_20319">
<rect width="20" height="20" fill="white" transform="translate(10 10)"/>
</clipPath>
</defs>
</svg>
