<svg width="113" height="24" viewBox="0 0 113 24" fill="none" xmlns="http://www.w3.org/2000/svg">
<g clip-path="url(#clip0_1523_28591)">
<path d="M111.22 0H1.77953C0.796722 0 0 0.795938 0 1.77778V22.2222C0 23.2041 0.796722 24 1.77953 24H111.22C112.203 24 113 23.2041 113 22.2222V1.77778C113 0.795938 112.203 0 111.22 0Z" fill="#F0F5F9"/>
<path d="M67.3747 11.8766C67.3747 8.01741 64.2432 4.88892 60.3803 4.88892C56.5174 4.88892 53.3859 8.01741 53.3859 11.8766C53.3859 15.7357 56.5174 18.8642 60.3803 18.8642C64.2432 18.8642 67.3747 15.7357 67.3747 11.8766Z" fill="#784FFE"/>
<path fill-rule="evenodd" clip-rule="evenodd" d="M57.7039 10.1398L62.6354 10.1155L61.4547 11.8931L64.241 11.8797L63.0603 13.6275L58.0967 13.6593L59.2961 11.8941L56.5192 11.893L57.7039 10.1398Z" fill="white"/>
<path d="M72.2528 14.6404V13.3535L75.1864 9.74473H72.3227V8.48389H77.0491V9.67518L74.0461 13.3535H77.11V14.6404H72.2528Z" fill="#002239"/>
<path d="M80.4529 12.7536H80.2701C80.1135 12.7536 79.9538 12.7622 79.7914 12.7797C79.6348 12.7912 79.4924 12.8173 79.3647 12.8579C79.2428 12.8985 79.1414 12.9593 79.06 13.0405C78.979 13.1159 78.9385 13.2173 78.9385 13.3449C78.9385 13.426 78.9559 13.4956 78.9906 13.5536C79.0311 13.6115 79.0804 13.6579 79.1387 13.6927C79.1966 13.7275 79.2633 13.7536 79.3389 13.7709C79.4141 13.7825 79.4866 13.7883 79.5565 13.7883C79.8465 13.7883 80.0672 13.7101 80.218 13.5536C80.3746 13.3912 80.4529 13.1738 80.4529 12.9014V12.7536ZM77.833 10.9013C78.0884 10.6579 78.3842 10.4753 78.7205 10.3535C79.0631 10.2318 79.4114 10.1709 79.7651 10.1709C80.1308 10.1709 80.4382 10.2173 80.6878 10.3101C80.9432 10.397 81.1491 10.5361 81.3057 10.7274C81.4623 10.9129 81.5758 11.1506 81.6452 11.4405C81.7208 11.7245 81.7586 12.0637 81.7586 12.4579V14.6405H80.4529V14.1797H80.4267C80.3163 14.3593 80.1482 14.4985 79.9217 14.597C79.7015 14.6956 79.4604 14.7449 79.1992 14.7449C79.0253 14.7449 78.8455 14.7217 78.6596 14.6753C78.4741 14.6289 78.3028 14.5536 78.1462 14.4492C77.9954 14.3449 77.8708 14.2057 77.7721 14.0318C77.6733 13.8579 77.6239 13.6434 77.6239 13.3883C77.6239 13.0753 77.708 12.8231 77.8766 12.6318C78.0505 12.4405 78.2712 12.2927 78.5381 12.1883C78.8108 12.084 79.1125 12.0144 79.443 11.9796C79.774 11.9449 80.0961 11.9274 80.4093 11.9274V11.8579C80.4093 11.6434 80.3341 11.4869 80.1829 11.3883C80.032 11.284 79.8465 11.2318 79.6259 11.2318C79.423 11.2318 79.2255 11.2753 79.0342 11.3622C78.8482 11.4492 78.689 11.5535 78.5555 11.6753L77.833 10.9013Z" fill="#002239"/>
<path d="M87.6462 12.4578C87.6462 12.7593 87.5995 13.0491 87.5069 13.3274C87.4139 13.6057 87.2778 13.852 87.0976 14.0665C86.9237 14.2752 86.7088 14.4433 86.4534 14.5709C86.1981 14.6984 85.908 14.7622 85.5833 14.7622C85.3163 14.7622 85.0636 14.71 84.8261 14.6057C84.5881 14.4955 84.4021 14.3477 84.2686 14.1621H84.2513V16.7274H82.8241V10.31H84.1819V10.8404H84.2081C84.3416 10.6665 84.524 10.5157 84.7562 10.3882C84.9942 10.2549 85.2727 10.1882 85.5917 10.1882C85.9053 10.1882 86.1896 10.2491 86.445 10.3708C86.7003 10.4926 86.9148 10.6578 87.0892 10.8665C87.2689 11.0752 87.4055 11.3187 87.498 11.5969C87.5968 11.8694 87.6462 12.1564 87.6462 12.4578ZM86.2621 12.4578C86.2621 12.3187 86.239 12.1825 86.1923 12.0491C86.1518 11.9158 86.0882 11.7998 86.001 11.7013C85.9196 11.5969 85.8155 11.5129 85.6878 11.4491C85.5601 11.3853 85.412 11.3534 85.2438 11.3534C85.0814 11.3534 84.936 11.3853 84.8087 11.4491C84.681 11.5129 84.5707 11.5969 84.4777 11.7013C84.3905 11.8056 84.3211 11.9245 84.2686 12.0578C84.2224 12.1911 84.1992 12.3274 84.1992 12.4665C84.1992 12.6056 84.2224 12.7419 84.2686 12.8752C84.3211 13.0085 84.3905 13.1274 84.4777 13.2317C84.5707 13.3361 84.681 13.4201 84.8087 13.4839C84.936 13.5477 85.0814 13.5796 85.2438 13.5796C85.412 13.5796 85.5601 13.5477 85.6878 13.4839C85.8155 13.4201 85.9196 13.3361 86.001 13.2317C86.0882 13.1274 86.1518 13.0085 86.1923 12.8752C86.239 12.7361 86.2621 12.5969 86.2621 12.4578Z" fill="#002239"/>
<path d="M93.3669 12.4578C93.3669 12.7593 93.3202 13.0491 93.2276 13.3274C93.1346 13.6057 92.9981 13.852 92.8183 14.0665C92.6444 14.2752 92.4295 14.4433 92.1741 14.5709C91.9188 14.6984 91.6287 14.7622 91.304 14.7622C91.037 14.7622 90.7843 14.71 90.5468 14.6057C90.3088 14.4955 90.1228 14.3477 89.9893 14.1621H89.972V16.7274H88.5448V10.31H89.9026V10.8404H89.9284C90.0618 10.6665 90.2447 10.5157 90.4769 10.3882C90.7149 10.2549 90.9934 10.1882 91.3124 10.1882C91.6261 10.1882 91.9103 10.2491 92.1657 10.3708C92.4211 10.4926 92.6355 10.6578 92.8099 10.8665C92.9896 11.0752 93.1257 11.3187 93.2187 11.5969C93.3175 11.8694 93.3669 12.1564 93.3669 12.4578ZM91.9828 12.4578C91.9828 12.3187 91.9597 12.1825 91.913 12.0491C91.8725 11.9158 91.8089 11.7998 91.7217 11.7013C91.6403 11.5969 91.5357 11.5129 91.4085 11.4491C91.2808 11.3853 91.1327 11.3534 90.9645 11.3534C90.8017 11.3534 90.6567 11.3853 90.529 11.4491C90.4013 11.5129 90.2914 11.5969 90.1984 11.7013C90.1112 11.8056 90.0418 11.9245 89.9893 12.0578C89.9431 12.1911 89.9199 12.3274 89.9199 12.4665C89.9199 12.6056 89.9431 12.7419 89.9893 12.8752C90.0418 13.0085 90.1112 13.1274 90.1984 13.2317C90.2914 13.3361 90.4013 13.4201 90.529 13.4839C90.6567 13.5477 90.8017 13.5796 90.9645 13.5796C91.1327 13.5796 91.2808 13.5477 91.4085 13.4839C91.5357 13.4201 91.6403 13.3361 91.7217 13.2317C91.8089 13.1274 91.8725 13.0085 91.913 12.8752C91.9597 12.7361 91.9828 12.5969 91.9828 12.4578Z" fill="#002239"/>
<path d="M97.2508 11.9796C97.2508 11.7535 97.1782 11.5593 97.0332 11.397C96.894 11.2347 96.6822 11.1535 96.3979 11.1535C96.2587 11.1535 96.131 11.1767 96.0149 11.2231C95.8988 11.2637 95.7973 11.3217 95.7101 11.397C95.6234 11.4724 95.5535 11.5622 95.5015 11.6666C95.449 11.7651 95.4201 11.8695 95.4143 11.9796H97.2508ZM98.5654 12.5275C98.5654 12.5854 98.5654 12.6434 98.5654 12.7014C98.5654 12.7593 98.5623 12.8144 98.5565 12.8666H95.4143C95.4258 12.9883 95.4605 13.0985 95.5188 13.197C95.5824 13.2956 95.6607 13.3825 95.7537 13.4579C95.8525 13.5275 95.9597 13.5825 96.0758 13.6231C96.1977 13.6637 96.3223 13.684 96.45 13.684C96.6764 13.684 96.8677 13.6434 97.0248 13.5622C97.1814 13.4753 97.309 13.3652 97.4074 13.2318L98.3999 13.8579C98.1966 14.1536 97.927 14.3825 97.5902 14.5449C97.2597 14.7014 96.8735 14.7797 96.4326 14.7797C96.1079 14.7797 95.8 14.7304 95.5099 14.6318C95.2199 14.5275 94.9645 14.3797 94.7438 14.1883C94.5294 13.9913 94.3581 13.7507 94.2305 13.4666C94.1086 13.1825 94.0476 12.8579 94.0476 12.4927C94.0476 12.139 94.1086 11.8202 94.2305 11.5361C94.3523 11.2463 94.5178 11.0028 94.7265 10.8057C94.9356 10.6028 95.1821 10.4463 95.4663 10.3361C95.7511 10.226 96.0585 10.1709 96.389 10.1709C96.7084 10.1709 97.0012 10.226 97.2681 10.3361C97.535 10.4405 97.7646 10.5941 97.9559 10.797C98.1476 10.9999 98.2953 11.2463 98.3999 11.5361C98.5102 11.826 98.5654 12.1565 98.5654 12.5275Z" fill="#002239"/>
<path d="M102.262 11.4752C102.198 11.4578 102.134 11.4462 102.071 11.4404C102.012 11.4346 101.954 11.4317 101.896 11.4317C101.705 11.4317 101.543 11.4665 101.409 11.5361C101.281 11.6056 101.177 11.6897 101.095 11.7882C101.02 11.8868 100.965 11.994 100.93 12.11C100.895 12.2259 100.878 12.3274 100.878 12.4143V14.6404H99.4507V10.31H100.826V10.9361H100.843C100.953 10.7157 101.11 10.5361 101.313 10.3969C101.516 10.2578 101.751 10.1882 102.018 10.1882C102.076 10.1882 102.132 10.1911 102.184 10.1969C102.241 10.2027 102.288 10.2114 102.323 10.223L102.262 11.4752Z" fill="#002239"/>
<path d="M9.94983 9.18753H11.5941C11.8836 9.18753 12.1446 9.21361 12.3771 9.26575C12.6096 9.31788 12.809 9.40321 12.975 9.52175C13.1411 9.64028 13.2692 9.79197 13.3594 9.97686C13.4496 10.1617 13.4946 10.3845 13.4946 10.6453C13.4946 10.925 13.4425 11.1597 13.338 11.3493C13.2336 11.5389 13.0913 11.693 12.911 11.8115C12.7354 11.9253 12.5289 12.0083 12.2917 12.0604C12.0544 12.1125 11.8029 12.1386 11.5372 12.1386H10.8467V14.2222H9.94983V9.18753ZM11.4731 11.3849C11.6202 11.3849 11.7602 11.3754 11.8931 11.3564C12.026 11.3327 12.1446 11.2948 12.249 11.2426C12.3534 11.1857 12.4364 11.1099 12.4981 11.0151C12.5598 10.9203 12.5906 10.797 12.5906 10.6453C12.5906 10.4983 12.5598 10.3798 12.4981 10.2897C12.4364 10.1949 12.3534 10.1214 12.249 10.0693C12.1493 10.0172 12.0331 9.98397 11.9002 9.96975C11.7721 9.95077 11.6392 9.9413 11.5016 9.9413H10.8467V11.3849H11.4731ZM13.5866 12.5013C13.5866 12.2311 13.6341 11.9869 13.729 11.7689C13.8286 11.5461 13.9615 11.3564 14.1276 11.2C14.2937 11.0435 14.4906 10.9226 14.7184 10.8373C14.9462 10.752 15.1882 10.7093 15.4444 10.7093C15.7007 10.7093 15.9427 10.752 16.1705 10.8373C16.3983 10.9226 16.5952 11.0435 16.7613 11.2C16.9274 11.3564 17.0579 11.5461 17.1528 11.7689C17.2524 11.9869 17.3023 12.2311 17.3023 12.5013C17.3023 12.7715 17.2524 13.0181 17.1528 13.2409C17.0579 13.4637 16.9274 13.6557 16.7613 13.8169C16.5952 13.9733 16.3983 14.0965 16.1705 14.1866C15.9427 14.2767 15.7007 14.3217 15.4444 14.3217C15.1882 14.3217 14.9462 14.2767 14.7184 14.1866C14.4906 14.0965 14.2937 13.9733 14.1276 13.8169C13.9615 13.6557 13.8286 13.4637 13.729 13.2409C13.6341 13.0181 13.5866 12.7715 13.5866 12.5013ZM14.455 12.5013C14.455 12.6341 14.474 12.7668 14.512 12.8995C14.5547 13.0323 14.6164 13.1508 14.697 13.2551C14.7777 13.3594 14.8797 13.4447 15.0031 13.5111C15.1265 13.5774 15.2736 13.6106 15.4444 13.6106C15.6153 13.6106 15.7624 13.5774 15.8858 13.5111C16.0092 13.4447 16.1112 13.3594 16.1918 13.2551C16.2725 13.1508 16.3318 13.0323 16.3698 12.8995C16.4125 12.7668 16.4338 12.6341 16.4338 12.5013C16.4338 12.3685 16.4125 12.2382 16.3698 12.1102C16.3318 11.9774 16.2725 11.8589 16.1918 11.7546C16.1112 11.6503 16.0092 11.5674 15.8858 11.5057C15.7624 11.4394 15.6153 11.4062 15.4444 11.4062C15.2736 11.4062 15.1265 11.4394 15.0031 11.5057C14.8797 11.5674 14.7777 11.6503 14.697 11.7546C14.6164 11.8589 14.5547 11.9774 14.512 12.1102C14.474 12.2382 14.455 12.3685 14.455 12.5013ZM17.6465 10.8089H18.5718L19.2836 13.2551H19.2979L20.031 10.8089H20.9421L21.6824 13.2551H21.6967L22.4227 10.8089H23.3125L22.1309 14.2222H21.2625L20.4866 11.8329H20.4724L19.7036 14.2222H18.8352L17.6465 10.8089ZM26.2573 12.1742C26.2573 12.0652 26.2407 11.9609 26.2075 11.8613C26.179 11.7617 26.1316 11.6741 26.0651 11.5982C25.9987 11.5223 25.9133 11.4631 25.8088 11.4204C25.7092 11.373 25.5906 11.3493 25.4529 11.3493C25.1967 11.3493 24.9784 11.4275 24.7981 11.584C24.6225 11.7357 24.5252 11.9324 24.5062 12.1742H26.2573ZM27.1115 12.5582C27.1115 12.5961 27.1115 12.6341 27.1115 12.672C27.1115 12.7099 27.1091 12.7478 27.1043 12.7857H24.5062C24.5158 12.909 24.5466 13.0228 24.5988 13.1271C24.6557 13.2266 24.7293 13.3143 24.8194 13.3902C24.9096 13.4613 25.0116 13.5182 25.1255 13.5609C25.2394 13.6035 25.358 13.6249 25.4814 13.6249C25.695 13.6249 25.8753 13.5869 26.0224 13.5111C26.1695 13.4305 26.2905 13.3214 26.3854 13.184L26.9549 13.6391C26.618 14.0942 26.1292 14.3217 25.4885 14.3217C25.2228 14.3217 24.9784 14.2814 24.7554 14.2009C24.5323 14.1155 24.3378 13.997 24.1717 13.8453C24.0104 13.6936 23.8822 13.5087 23.7873 13.2906C23.6972 13.0678 23.6521 12.8165 23.6521 12.5369C23.6521 12.2619 23.6972 12.013 23.7873 11.7902C23.8822 11.5626 24.0104 11.3706 24.1717 11.2142C24.333 11.053 24.5229 10.9297 24.7411 10.8444C24.9642 10.7543 25.2038 10.7093 25.4601 10.7093C25.6974 10.7093 25.9156 10.7496 26.1149 10.8302C26.319 10.9061 26.4946 11.0222 26.6417 11.1786C26.7888 11.3303 26.9027 11.5223 26.9833 11.7546C27.0688 11.9822 27.1115 12.2501 27.1115 12.5582ZM27.9387 10.8089H28.7573V11.3777H28.7715C28.8665 11.1786 28.9993 11.0174 29.1701 10.8942C29.341 10.7709 29.5403 10.7093 29.7681 10.7093C29.8013 10.7093 29.8369 10.7117 29.8748 10.7164C29.9128 10.7164 29.946 10.7212 29.9745 10.7306V11.5129C29.9176 11.4986 29.8677 11.4892 29.825 11.4844C29.7871 11.4797 29.7491 11.4773 29.7111 11.4773C29.5166 11.4773 29.36 11.5129 29.2413 11.584C29.1227 11.6551 29.0302 11.7404 28.9637 11.84C28.8973 11.9395 28.8522 12.0414 28.8285 12.1457C28.8048 12.2501 28.7929 12.333 28.7929 12.3946V14.2222H27.9387V10.8089ZM32.8124 12.1742C32.8124 12.0652 32.7958 11.9609 32.7625 11.8613C32.7341 11.7617 32.6866 11.6741 32.6202 11.5982C32.5537 11.5223 32.4683 11.4631 32.3639 11.4204C32.2643 11.373 32.1456 11.3493 32.008 11.3493C31.7518 11.3493 31.5335 11.4275 31.3531 11.584C31.1775 11.7357 31.0803 11.9324 31.0613 12.1742H32.8124ZM33.6665 12.5582C33.6665 12.5961 33.6665 12.6341 33.6665 12.672C33.6665 12.7099 33.6642 12.7478 33.6594 12.7857H31.0613C31.0708 12.909 31.1016 13.0228 31.1538 13.1271C31.2108 13.2266 31.2843 13.3143 31.3745 13.3902C31.4647 13.4613 31.5667 13.5182 31.6806 13.5609C31.7945 13.6035 31.9131 13.6249 32.0365 13.6249C32.25 13.6249 32.4303 13.5869 32.5775 13.5111C32.7246 13.4305 32.8456 13.3214 32.9405 13.184L33.5099 13.6391C33.173 14.0942 32.6842 14.3217 32.0436 14.3217C31.7779 14.3217 31.5335 14.2814 31.3104 14.2009C31.0874 14.1155 30.8928 13.997 30.7267 13.8453C30.5654 13.6936 30.4373 13.5087 30.3424 13.2906C30.2522 13.0678 30.2071 12.8165 30.2071 12.5369C30.2071 12.2619 30.2522 12.013 30.3424 11.7902C30.4373 11.5626 30.5654 11.3706 30.7267 11.2142C30.8881 11.053 31.0779 10.9297 31.2962 10.8444C31.5192 10.7543 31.7589 10.7093 32.0151 10.7093C32.2524 10.7093 32.4707 10.7496 32.67 10.8302C32.8741 10.9061 33.0496 11.0222 33.1967 11.1786C33.3439 11.3303 33.4577 11.5223 33.5384 11.7546C33.6238 11.9822 33.6665 12.2501 33.6665 12.5582ZM37.9674 14.2222H37.156V13.7102H37.1417C37.0231 13.9093 36.857 14.061 36.6435 14.1653C36.4347 14.2696 36.2092 14.3217 35.9672 14.3217C35.7062 14.3217 35.4713 14.2743 35.2625 14.1795C35.0585 14.08 34.8829 13.9496 34.7358 13.7884C34.5934 13.6225 34.4819 13.4305 34.4012 13.2124C34.3253 12.9896 34.2874 12.7525 34.2874 12.5013C34.2874 12.2501 34.3277 12.0154 34.4084 11.7973C34.489 11.5792 34.6029 11.3896 34.75 11.2284C34.8972 11.0672 35.0727 10.9416 35.2768 10.8515C35.4808 10.7567 35.7039 10.7093 35.9459 10.7093C36.1025 10.7093 36.2425 10.7283 36.3658 10.7662C36.4892 10.7994 36.596 10.8421 36.6862 10.8942C36.7811 10.9463 36.8618 11.0032 36.9282 11.0649C36.9946 11.1265 37.0492 11.1857 37.0919 11.2426H37.1132V8.84619H37.9674V14.2222ZM35.1558 12.5013C35.1558 12.6341 35.1748 12.7668 35.2127 12.8995C35.2554 13.0323 35.3171 13.1508 35.3978 13.2551C35.4784 13.3594 35.5805 13.4447 35.7039 13.5111C35.8272 13.5774 35.972 13.6106 36.1381 13.6106C36.2947 13.6106 36.4347 13.5798 36.558 13.5182C36.6814 13.4518 36.7858 13.3665 36.8712 13.2622C36.9614 13.1579 37.0278 13.0417 37.0705 12.9137C37.118 12.781 37.1417 12.6483 37.1417 12.5155C37.1417 12.3828 37.118 12.2501 37.0705 12.1173C37.0278 11.9845 36.9614 11.8661 36.8712 11.7617C36.7858 11.6574 36.6814 11.5721 36.558 11.5057C36.4347 11.4394 36.2947 11.4062 36.1381 11.4062C35.972 11.4062 35.8272 11.4394 35.7039 11.5057C35.5805 11.5674 35.4784 11.6503 35.3978 11.7546C35.3171 11.8589 35.2554 11.9774 35.2127 12.1102C35.1748 12.2382 35.1558 12.3685 35.1558 12.5013ZM41.6531 8.84619V11.2426H41.6744C41.7172 11.1857 41.7717 11.1265 41.8382 11.0649C41.9046 11.0032 41.9829 10.9463 42.0731 10.8942C42.168 10.8421 42.2771 10.7994 42.4005 10.7662C42.5239 10.7283 42.6639 10.7093 42.8205 10.7093C43.0625 10.7093 43.2855 10.7567 43.4896 10.8515C43.6936 10.9416 43.8692 11.0672 44.0163 11.2284C44.1634 11.3896 44.2773 11.5792 44.358 11.7973C44.4387 12.0154 44.479 12.2501 44.479 12.5013C44.479 12.7525 44.4387 12.9896 44.358 13.2124C44.2821 13.4305 44.1705 13.6225 44.0234 13.7884C43.8811 13.9496 43.7055 14.08 43.4967 14.1795C43.2927 14.2743 43.0601 14.3217 42.7991 14.3217C42.5571 14.3217 42.3293 14.2696 42.1158 14.1653C41.907 14.061 41.7433 13.9093 41.6246 13.7102H41.6104V14.2222H40.7989V8.84619H41.6531ZM43.6106 12.5013C43.6106 12.3685 43.5892 12.2382 43.5465 12.1102C43.5086 11.9774 43.4493 11.8589 43.3686 11.7546C43.2879 11.6503 43.1859 11.5674 43.0625 11.5057C42.9391 11.4394 42.7944 11.4062 42.6283 11.4062C42.4717 11.4062 42.3317 11.4394 42.2083 11.5057C42.0849 11.5721 41.9782 11.6574 41.888 11.7617C41.8026 11.8661 41.7361 11.9845 41.6887 12.1173C41.646 12.2501 41.6246 12.3828 41.6246 12.5155C41.6246 12.6483 41.646 12.781 41.6887 12.9137C41.7361 13.0417 41.8026 13.1579 41.888 13.2622C41.9782 13.3665 42.0849 13.4518 42.2083 13.5182C42.3317 13.5798 42.4717 13.6106 42.6283 13.6106C42.7944 13.6106 42.9391 13.5774 43.0625 13.5111C43.1859 13.4447 43.2879 13.3594 43.3686 13.2551C43.4493 13.1508 43.5086 13.0323 43.5465 12.8995C43.5892 12.7668 43.6106 12.6341 43.6106 12.5013ZM44.7907 10.8089H45.7374L46.6912 13.2906H46.7054L47.5525 10.8089H48.4423L46.8264 14.9546C46.7646 15.1111 46.6983 15.2485 46.6271 15.3671C46.556 15.4903 46.4705 15.5923 46.3709 15.6729C46.2712 15.7582 46.1525 15.8222 46.015 15.8649C45.882 15.9075 45.7205 15.9289 45.531 15.9289C45.4598 15.9289 45.3859 15.9241 45.3103 15.9146C45.2391 15.9099 45.1653 15.8981 45.0896 15.8791L45.1608 15.1395C45.2178 15.1585 45.272 15.1703 45.3245 15.1751C45.3815 15.1845 45.4335 15.1893 45.4811 15.1893C45.571 15.1893 45.6471 15.1774 45.7089 15.1537C45.7703 15.1348 45.8228 15.1016 45.8655 15.0542C45.9082 15.0115 45.946 14.957 45.9794 14.8906C46.0123 14.8243 46.0479 14.7461 46.0862 14.656L46.257 14.2222L44.7907 10.8089Z" fill="#002239"/>
</g>
<defs>
<clipPath id="clip0_1523_28591">
<rect width="113" height="24" fill="white"/>
</clipPath>
</defs>
</svg>
