<svg width="48" height="48" viewBox="0 0 48 48" fill="none" xmlns="http://www.w3.org/2000/svg">
<g clip-path="url(#clip0_2399_12290)">
<path d="M18.2306 2.33198L18.3419 2.22065L18.4828 2.11675L29.2326 2.03809L33.5619 4.23356L38.4389 6.46014L40.9884 8.84765L41.2477 9.30138L43.1383 13.2554L43.6136 14.0008L45.4177 17.9763L46.0011 18.5489L46.1308 28.92L43.6568 33.7922L41.5394 38.3836L39.4868 40.8143L35.1979 43.0073L29.8395 45.5029L29.5587 45.9998L18.5298 45.8378L13.9452 43.5347L9.26611 41.2734L6.93994 38.9531L6.81104 38.7831L4.75439 34.4706L4.5083 34.2187L2.4165 29.83L2.229 29.666L2.18579 18.4742L4.49038 13.8867L6.7228 9.26948L8.98452 6.93158L13.5314 4.66401L18.2306 2.33198Z" fill="#74ACDF"/>
<path d="M48 18.285H45.72V29.715H48V18.285Z" fill="#20202B"/>
<path d="M45.72 29.715H43.425V34.29H45.72V29.715Z" fill="#20202B"/>
<path d="M45.72 13.71H43.425V18.285H45.72V13.71Z" fill="#20202B"/>
<path d="M43.425 34.29H41.145V38.85H43.425V34.29Z" fill="#20202B"/>
<path d="M43.425 9.13501H41.145V13.71H43.425V9.13501Z" fill="#20202B"/>
<path d="M41.1451 38.85H38.8501V41.145H41.1451V38.85Z" fill="#20202B"/>
<path d="M41.1451 6.85498H38.8501V9.13498H41.1451V6.85498Z" fill="#20202B"/>
<path d="M38.85 41.145H34.29V43.425H38.85V41.145Z" fill="#20202B"/>
<path d="M38.85 4.57495H34.29V6.85495H38.85V4.57495Z" fill="#20202B"/>
<path d="M34.2901 43.425H29.7151V45.72H34.2901V43.425Z" fill="#20202B"/>
<path d="M34.2901 2.28003H29.7151V4.57503H34.2901V2.28003Z" fill="#20202B"/>
<path d="M29.7149 45.72H18.2849V48H29.7149V45.72Z" fill="#20202B"/>
<path d="M29.7149 0H18.2849V2.28H29.7149V0Z" fill="#20202B"/>
<path d="M18.285 43.425H13.71V45.72H18.285V43.425Z" fill="#20202B"/>
<path d="M18.285 2.28003H13.71V4.57503H18.285V2.28003Z" fill="#20202B"/>
<path d="M13.71 41.145H9.13501V43.425H13.71V41.145Z" fill="#20202B"/>
<path d="M13.71 4.57495H9.13501V6.85495H13.71V4.57495Z" fill="#20202B"/>
<path d="M9.13498 38.85H6.85498V41.145H9.13498V38.85Z" fill="#20202B"/>
<path d="M9.13498 6.85498H6.85498V9.13498H9.13498V6.85498Z" fill="#20202B"/>
<path d="M6.85495 34.29H4.57495V38.85H6.85495V34.29Z" fill="#20202B"/>
<path d="M6.85495 9.13501H4.57495V13.71H6.85495V9.13501Z" fill="#20202B"/>
<path d="M4.57503 29.715H2.28003V34.29H4.57503V29.715Z" fill="#20202B"/>
<path d="M4.57503 13.71H2.28003V18.285H4.57503V13.71Z" fill="#20202B"/>
<path d="M2.28 18.285H0V29.715H2.28V18.285Z" fill="#20202B"/>
<g clip-path="url(#clip1_2399_12290)">
<path d="M35.53 30.5737H34.2869V34.2869H35.53V30.5737Z" fill="white"/>
<path d="M35.53 13.235H34.2869V16.9562H35.53V13.235Z" fill="white"/>
<path d="M34.2873 12H30.5742V13.235H34.2873V12Z" fill="white"/>
<path d="M34.2873 34.2871H30.5742V35.5221H34.2873V34.2871Z" fill="white"/>
<path d="M31.8088 15.7172H15.7131V31.8128H31.8088V15.7172ZM26.8606 21.9084H28.0956V25.6215H24.3825V24.3865H26.8606V21.9084ZM21.9044 16.9603H25.6175V18.1953H21.9044V16.9603ZM21.9044 19.4303H25.6175V23.1434H24.3825V20.6734H21.9044V19.4303ZM21.9044 21.9084H23.1475V25.6215H21.9044V21.9084ZM20.6694 30.5778H16.9563V26.8647H20.6694V30.5778ZM20.6694 24.3865H18.1913V25.6215H16.9563V21.9084H18.1913V23.1434H20.6694V24.3865ZM20.6694 21.9084H19.4344V19.4303H20.6694V21.9084ZM20.6694 18.1953H18.1913V20.6734H16.9563V16.9562H20.6694V18.1953ZM25.6175 30.5778H24.3825V29.3347H25.6175V30.5778ZM25.6175 28.0997H23.1475V30.5778H21.9044V26.8647H25.6175V28.0997ZM30.5738 30.5778H26.8606V26.8647H30.5738V30.5778ZM30.5738 25.6215H29.3388V21.9084H30.5738V25.6215ZM30.5738 20.6734H26.8606V16.9562H30.5738V20.6734Z" fill="white"/>
<path d="M29.3388 28.0956H28.0957V29.3306H29.3388V28.0956Z" fill="white"/>
<path d="M29.3388 18.1912H28.0957V19.4262H29.3388V18.1912Z" fill="white"/>
<path d="M19.4343 28.0956H18.1912V29.3306H19.4343V28.0956Z" fill="white"/>
<path d="M16.9563 34.2869H13.2432V35.5219H16.9563V34.2869Z" fill="white"/>
<path d="M16.9563 12H13.2432V13.235H16.9563V12Z" fill="white"/>
<path d="M13.2431 30.5737H12V34.2869H13.2431V30.5737Z" fill="white"/>
<path d="M13.2431 13.235H12V16.9562H13.2431V13.235Z" fill="white"/>
</g>
</g>
<defs>
<clipPath id="clip0_2399_12290">
<rect width="48" height="48" fill="white"/>
</clipPath>
<clipPath id="clip1_2399_12290">
<rect width="24" height="24" fill="white" transform="translate(12 12)"/>
</clipPath>
</defs>
</svg>
