<svg width="477" height="477" viewBox="0 0 477 477" fill="none" xmlns="http://www.w3.org/2000/svg">
<path d="M94.8672 24.3148L95.6542 23.2055L97.7462 21.7256L377.06 20.1914L386.686 29.4446V50.2995L438.263 62.0333L460.287 77.0366V181.244L444.019 200.149H404.709L386.686 256.406L360.025 282.209L339.642 306.501L288.848 330.677L283.669 335.087L280.013 402.301L328.407 423.96L337.357 432.425V458.768H138.754V430.488L188.83 407.067L193.202 401.154V334.669L148.284 314.961L126.176 292.897L99.0411 266.041L93.6009 260.421L79.3584 212.164L25.6426 192.223L22.0723 188.868V74.4886L24.8754 69.6564L70.4925 62.0333L94.8672 24.3148Z" fill="#cd7f32"/>
<path d="M476.094 71.5625H452.344V190.469H476.094V71.5625Z" fill="#353548"/>
<path d="M404.687 71.5625H452.343V47.6562H404.687V23.9062H380.937V262.031H404.687V214.375H452.343V190.469H404.687V71.5625Z" fill="#353548"/>
<path d="M380.938 262.031H357.032V285.781H380.938V262.031Z" fill="#353548"/>
<path d="M357.031 285.781H333.281V309.531H357.031V285.781Z" fill="#353548"/>
<path d="M142.812 452.5V428.594H119.062V452.5H95.1558V476.25H380.937V452.5H357.031V428.594H333.281V452.5H142.812Z" fill="#353548"/>
<path d="M333.281 404.844H285.625V428.594H333.281V404.844Z" fill="#353548"/>
<path d="M333.281 309.531H285.625V333.438H333.281V309.531Z" fill="#353548"/>
<path d="M301.626 179.789L238.979 219.742L176.468 179.879L238.966 271.223L301.626 179.789Z" fill="white"/>
<path d="M301.559 167.082L238.976 206.916L176.468 167.088L238.956 58.5151L301.559 167.082Z" fill="white"/>
<path d="M285.625 333.438H261.875V404.844H285.625V333.438Z" fill="#353548"/>
<path d="M214.219 333.438H190.469V404.844H214.219V333.438Z" fill="#353548"/>
<path d="M190.469 404.844H142.813V428.594H190.469V404.844Z" fill="#353548"/>
<path d="M190.469 309.531H142.813V333.438H190.469V309.531Z" fill="#353548"/>
<path d="M142.813 285.781H119.063V309.531H142.813V285.781Z" fill="#353548"/>
<path d="M380.937 0H95.1558V23.9062H380.937V0Z" fill="#353548"/>
<path d="M119.062 262.031H95.1558V285.781H119.062V262.031Z" fill="#353548"/>
<path d="M95.1562 23.9062H71.4062V47.6562H23.75V71.5625H71.4062V190.469H23.75V214.375H71.4062V262.031H95.1562V23.9062Z" fill="#353548"/>
<path d="M23.75 71.5625H0V190.469H23.75V71.5625Z" fill="#353548"/>
</svg>
