<svg width="24" height="23" viewBox="0 0 24 23" fill="none" xmlns="http://www.w3.org/2000/svg">
<path d="M11.7258 0.275617C11.9236 0.193716 12.1457 0.193716 12.3434 0.275617L19.6191 3.2893C19.8169 3.3712 19.9739 3.5283 20.0558 3.72602L23.0695 11.0017C23.1514 11.1994 23.1514 11.4216 23.0695 11.6193L20.0558 18.895C19.9739 19.0927 19.8169 19.2498 19.6191 19.3317L12.3434 22.3454C12.1457 22.4273 11.9236 22.4273 11.7258 22.3454L4.45014 19.3317C4.25242 19.2498 4.09533 19.0927 4.01343 18.895L0.999738 11.6193C0.917837 11.4216 0.917837 11.1994 0.999738 11.0017L4.01343 3.72602C4.09533 3.5283 4.25242 3.3712 4.45014 3.2893L11.7258 0.275617Z" fill="#27252A"/>
</svg>
