<svg width="16" height="17" viewBox="0 0 16 17" fill="none" xmlns="http://www.w3.org/2000/svg">
<path d="M14.25 11.75H15.75V13.25H0.75V11.75H2.25V6.5C2.25 4.9087 2.88214 3.38258 4.00736 2.25736C5.13258 1.13214 6.6587 0.5 8.25 0.5C9.8413 0.5 11.3674 1.13214 12.4926 2.25736C13.6179 3.38258 14.25 4.9087 14.25 6.5V11.75ZM12.75 11.75V6.5C12.75 5.30653 12.2759 4.16193 11.432 3.31802C10.5881 2.47411 9.44347 2 8.25 2C7.05653 2 5.91193 2.47411 5.06802 3.31802C4.22411 4.16193 3.75 5.30653 3.75 6.5V11.75H12.75ZM6 14.75H10.5V16.25H6V14.75Z" fill="#A897FF"/>
</svg>
