<svg width="32" height="32" viewBox="0 0 32 32" fill="none" xmlns="http://www.w3.org/2000/svg">
<path fill-rule="evenodd" clip-rule="evenodd" d="M28.25 5.5H24.75V2H21.25V5.5H17.75V2H14.25V5.5H10.75V2H7.25V5.5H3.75C2.78225 5.5 2 6.28225 2 7.25V28.25C2 29.2178 2.78225 30 3.75 30H28.25C29.2178 30 30 29.2178 30 28.25V7.25C30 6.28225 29.2178 5.5 28.25 5.5ZM26.5 26.5H5.5V10.75H26.5V26.5ZM12.5 14.25H9V17.75H12.5V14.25ZM14.25 14.25H17.75V17.75H14.25V14.25ZM12.5 19.5H9V23H12.5V19.5ZM14.25 19.5H17.75V23H14.25V19.5ZM23 14.25H19.5V17.75H23V14.25ZM19.5 19.5H23V23H19.5V19.5Z" fill="#89BEEB"/>
</svg>
