<svg width="16" height="15" viewBox="0 0 16 15" fill="none" xmlns="http://www.w3.org/2000/svg">
<path fill-rule="evenodd" clip-rule="evenodd" d="M14.3673 5.75026V0.642822H13.0612V5.75026H12.4286C11.8763 5.75026 11.4286 6.19798 11.4286 6.75026V8.72272C11.4286 9.275 11.8763 9.72272 12.4286 9.72272H13.0612V14.3571H14.3673V9.72272H15C15.5523 9.72272 16 9.275 16 8.72272V6.75026C16 6.19798 15.5523 5.75026 15 5.75026H14.3673ZM8.65306 0.642822H7.34694V2.72349H6.71429C6.162 2.72349 5.71429 3.17121 5.71429 3.72349V5.69595C5.71429 6.24823 6.162 6.69595 6.71429 6.69595H7.34694V14.3571H8.65306V6.69595H9.28571C9.838 6.69595 10.2857 6.24823 10.2857 5.69595V3.72349C10.2857 3.17121 9.838 2.72349 9.28571 2.72349H8.65306V0.642822ZM2.93878 8.28899V0.642822H1.63265V8.28899H1C0.447715 8.28899 0 8.7367 0 9.28899V11.2537C0 11.8059 0.447715 12.2537 1 12.2537H1.63265V14.3513L2.93878 14.3571V12.2537H3.57143C4.12371 12.2537 4.57143 11.8059 4.57143 11.2537V9.28899C4.57143 8.7367 4.12371 8.28899 3.57143 8.28899H2.93878Z" fill="#2D3540"/>
</svg>
