<svg width="28" height="28" viewBox="0 0 28 28" fill="none" xmlns="http://www.w3.org/2000/svg">
<path d="M13.987 0.666687C6.62699 0.666687 0.666992 6.64002 0.666992 14C0.666992 21.36 6.62699 27.3334 13.987 27.3334C21.3603 27.3334 27.3337 21.36 27.3337 14C27.3337 6.64002 21.3603 0.666687 13.987 0.666687ZM23.227 8.66669H19.2937C18.867 7.00002 18.2537 5.40002 17.4537 3.92002C19.907 4.76002 21.947 6.46669 23.227 8.66669ZM14.0003 3.38669C15.107 4.98669 15.9737 6.76002 16.547 8.66669H11.4537C12.027 6.76002 12.8937 4.98669 14.0003 3.38669ZM3.68033 16.6667C3.46699 15.8134 3.33366 14.92 3.33366 14C3.33366 13.08 3.46699 12.1867 3.68033 11.3334H8.18699C8.08033 12.2134 8.00033 13.0934 8.00033 14C8.00033 14.9067 8.08033 15.7867 8.18699 16.6667H3.68033ZM4.77366 19.3334H8.70699C9.13366 21 9.74699 22.6 10.547 24.08C8.09366 23.24 6.05366 21.5467 4.77366 19.3334ZM8.70699 8.66669H4.77366C6.05366 6.45335 8.09366 4.76002 10.547 3.92002C9.74699 5.40002 9.13366 7.00002 8.70699 8.66669ZM14.0003 24.6134C12.8937 23.0134 12.027 21.24 11.4537 19.3334H16.547C15.9737 21.24 15.107 23.0134 14.0003 24.6134ZM17.1203 16.6667H10.8803C10.7603 15.7867 10.667 14.9067 10.667 14C10.667 13.0934 10.7603 12.2 10.8803 11.3334H17.1203C17.2403 12.2 17.3337 13.0934 17.3337 14C17.3337 14.9067 17.2403 15.7867 17.1203 16.6667ZM17.4537 24.08C18.2537 22.6 18.867 21 19.2937 19.3334H23.227C21.947 21.5334 19.907 23.24 17.4537 24.08ZM19.8137 16.6667C19.9203 15.7867 20.0003 14.9067 20.0003 14C20.0003 13.0934 19.9203 12.2134 19.8137 11.3334H24.3203C24.5337 12.1867 24.667 13.08 24.667 14C24.667 14.92 24.5337 15.8134 24.3203 16.6667H19.8137Z" fill="#323232"/>
</svg>
