<svg width="32" height="32" viewBox="0 0 32 32" fill="none" xmlns="http://www.w3.org/2000/svg">
<path d="M29.3337 13.3333V8.00001C29.3337 6.53334 28.1337 5.33334 26.667 5.33334H5.33366C3.86699 5.33334 2.68033 6.53334 2.68033 8.00001V13.3333C4.14699 13.3333 5.33366 14.5333 5.33366 16C5.33366 17.4667 4.14699 18.6667 2.66699 18.6667V24C2.66699 25.4667 3.86699 26.6667 5.33366 26.6667H26.667C28.1337 26.6667 29.3337 25.4667 29.3337 24V18.6667C27.867 18.6667 26.667 17.4667 26.667 16C26.667 14.5333 27.867 13.3333 29.3337 13.3333ZM26.667 11.3867C25.0803 12.3067 24.0003 14.04 24.0003 16C24.0003 17.96 25.0803 19.6933 26.667 20.6133V24H5.33366V20.6133C6.92033 19.6933 8.00033 17.96 8.00033 16C8.00033 14.0267 6.93366 12.3067 5.34699 11.3867L5.33366 8.00001H26.667V11.3867ZM12.0937 21.3333L16.0003 18.8267L19.907 21.3333L18.7203 16.8533L22.307 13.92L17.6803 13.64L16.0003 9.33334L14.307 13.6267L9.68033 13.9067L13.267 16.84L12.0937 21.3333Z" fill="white"/>
</svg>
