<svg width="15" height="16" viewBox="0 0 15 16" fill="none" xmlns="http://www.w3.org/2000/svg">
<path d="M0.249939 8.7502H4.74994V7.2502H0.249939V0.384701C0.24995 0.319537 0.266942 0.255501 0.299239 0.198904C0.331536 0.142307 0.378025 0.0951027 0.434121 0.0619442C0.490218 0.0287857 0.553988 0.0108174 0.619144 0.00981042C0.6843 0.00880339 0.748594 0.0247924 0.805689 0.0562015L14.6522 7.6717C14.711 7.70407 14.76 7.75163 14.7942 7.80941C14.8283 7.86719 14.8463 7.93308 14.8463 8.0002C14.8463 8.06732 14.8283 8.13321 14.7942 8.19099C14.76 8.24877 14.711 8.29633 14.6522 8.3287L0.805689 15.9442C0.748594 15.9756 0.6843 15.9916 0.619144 15.9906C0.553988 15.9896 0.490218 15.9716 0.434121 15.9385C0.378025 15.9053 0.331536 15.8581 0.299239 15.8015C0.266942 15.7449 0.24995 15.6809 0.249939 15.6157V8.7502Z" fill="white"/>
</svg>
