<svg width="19" height="17" viewBox="0 0 19 17" fill="none" xmlns="http://www.w3.org/2000/svg">
<path d="M11.6429 2.78571C13.1813 2.78571 14.4286 1.53851 14.4286 0H15.7143C15.7143 1.53851 16.9615 2.78571 18.5 2.78571V4.07143C16.9615 4.07143 15.7143 5.31863 15.7143 6.85714H14.4286C14.4286 5.31863 13.1813 4.07143 11.6429 4.07143V2.78571ZM2.21429 4.28571C2.21429 3.33894 2.9818 2.57143 3.92857 2.57143H9.92857V0.857143H3.92857C2.03502 0.857143 0.5 2.39217 0.5 4.28571V12.8571C0.5 14.7507 2.03502 16.2857 3.92857 16.2857H14.2143C16.1078 16.2857 17.6429 14.7507 17.6429 12.8571V8.57143H15.9286V12.8571C15.9286 13.8039 15.1611 14.5714 14.2143 14.5714H3.92857C2.9818 14.5714 2.21429 13.8039 2.21429 12.8571V4.28571Z" fill="#7D52F4"/>
</svg>
