<svg width="32" height="32" viewBox="0 0 32 32" fill="none" xmlns="http://www.w3.org/2000/svg">
<g filter="url(#filter0_d_434_577)">
<path d="M9.01301 6.45334L6.61301 4.06667L4.73301 5.94667L7.11967 8.33334L9.01301 6.45334ZM5.33301 14H1.33301V16.6667H5.33301V14ZM17.333 0.733337H14.6663V4.66667H17.333V0.733337ZM27.2663 5.94667L25.3863 4.06667L22.9997 6.45334L24.8797 8.33334L27.2663 5.94667ZM22.9863 24.2133L25.373 26.6133L27.253 24.7333L24.853 22.3467L22.9863 24.2133ZM26.6663 14V16.6667H30.6663V14H26.6663ZM15.9997 7.33334C11.5863 7.33334 7.99967 10.92 7.99967 15.3333C7.99967 19.7467 11.5863 23.3333 15.9997 23.3333C20.413 23.3333 23.9997 19.7467 23.9997 15.3333C23.9997 10.92 20.413 7.33334 15.9997 7.33334ZM14.6663 29.9333H17.333V26H14.6663V29.9333ZM4.73301 24.72L6.61301 26.6L8.99967 24.2L7.11967 22.32L4.73301 24.72Z" fill="#323232"/>
</g>
<defs>
<filter id="filter0_d_434_577" x="-2.66699" y="0.733337" width="37.333" height="37.2" filterUnits="userSpaceOnUse" color-interpolation-filters="sRGB">
<feFlood flood-opacity="0" result="BackgroundImageFix"/>
<feColorMatrix in="SourceAlpha" type="matrix" values="0 0 0 0 0 0 0 0 0 0 0 0 0 0 0 0 0 0 127 0" result="hardAlpha"/>
<feOffset dy="4"/>
<feGaussianBlur stdDeviation="2"/>
<feComposite in2="hardAlpha" operator="out"/>
<feColorMatrix type="matrix" values="0 0 0 0 0 0 0 0 0 0 0 0 0 0 0 0 0 0 0.25 0"/>
<feBlend mode="normal" in2="BackgroundImageFix" result="effect1_dropShadow_434_577"/>
<feBlend mode="normal" in="SourceGraphic" in2="effect1_dropShadow_434_577" result="shape"/>
</filter>
</defs>
</svg>
