<svg width="28" height="22" viewBox="0 0 28 22" fill="none" xmlns="http://www.w3.org/2000/svg">
<path d="M27.3332 8.33337V3.00004C27.3332 1.53337 26.1332 0.333374 24.6665 0.333374H3.33317C1.8665 0.333374 0.679837 1.53337 0.679837 3.00004V8.33337C2.1465 8.33337 3.33317 9.53337 3.33317 11C3.33317 12.4667 2.1465 13.6667 0.666504 13.6667V19C0.666504 20.4667 1.8665 21.6667 3.33317 21.6667H24.6665C26.1332 21.6667 27.3332 20.4667 27.3332 19V13.6667C25.8665 13.6667 24.6665 12.4667 24.6665 11C24.6665 9.53337 25.8665 8.33337 27.3332 8.33337ZM24.6665 6.38671C23.0798 7.30671 21.9998 9.04004 21.9998 11C21.9998 12.96 23.0798 14.6934 24.6665 15.6134V19H3.33317V15.6134C4.91984 14.6934 5.99984 12.96 5.99984 11C5.99984 9.02671 4.93317 7.30671 3.3465 6.38671L3.33317 3.00004H24.6665V6.38671ZM10.0932 16.3334L13.9998 13.8267L17.9065 16.3334L16.7198 11.8534L20.3065 8.92004L15.6798 8.64004L13.9998 4.33337L12.3065 8.62671L7.67984 8.90671L11.2665 11.84L10.0932 16.3334Z" fill="#ED8000"/>
</svg>
