<svg width="28" height="22" viewBox="0 0 28 22" fill="none" xmlns="http://www.w3.org/2000/svg">
<path d="M18.7734 17.4L14.0001 14.3334L9.22675 17.4L10.6667 11.9067L6.28008 8.33337L11.9467 7.98671L14.0001 2.73337L16.0534 7.98671L21.7201 8.33337L17.3334 11.9067M24.6667 11C24.6667 9.52004 25.8667 8.33337 27.3334 8.33337V3.00004C27.3334 1.52004 26.1334 0.333374 24.6667 0.333374H3.33341C2.62617 0.333374 1.94789 0.614325 1.4478 1.11442C0.9477 1.61452 0.666748 2.2928 0.666748 3.00004V8.33337C2.14675 8.33337 3.33341 9.53337 3.33341 11C3.33341 11.7073 3.05246 12.3856 2.55237 12.8857C2.05227 13.3858 1.37399 13.6667 0.666748 13.6667V19C0.666748 19.7073 0.9477 20.3856 1.4478 20.8857C1.94789 21.3858 2.62617 21.6667 3.33341 21.6667H24.6667C25.374 21.6667 26.0523 21.3858 26.5524 20.8857C27.0525 20.3856 27.3334 19.7073 27.3334 19V13.6667C26.6262 13.6667 25.9479 13.3858 25.4478 12.8857C24.9477 12.3856 24.6667 11.7073 24.6667 11Z" fill="url(#paint0_linear_941_360)"/>
<defs>
<linearGradient id="paint0_linear_941_360" x1="4.6636" y1="2.66671" x2="20.9611" y2="25.1669" gradientUnits="userSpaceOnUse">
<stop stop-color="#F6B613"/>
<stop offset="0.330638" stop-color="#FF85A6"/>
<stop offset="0.65175" stop-color="#9894FF"/>
<stop offset="1" stop-color="#8855CC"/>
</linearGradient>
</defs>
</svg>
