<svg width="212" height="214" viewBox="0 0 212 214" fill="none" xmlns="http://www.w3.org/2000/svg">
<path d="M194.406 128.662C188.122 125.068 180.862 123.554 173.665 124.338C166.469 125.122 159.704 128.163 154.342 133.026C148.979 137.89 145.293 144.325 143.811 151.411C142.33 158.498 143.129 165.871 146.094 172.475C134.501 181.107 120.438 185.777 105.985 185.795C100.842 185.754 95.7204 185.133 90.7173 183.943C86.5637 193.029 80.2367 200.954 72.2949 207.015C88.0658 213.018 105.153 214.701 121.792 211.892C138.431 209.083 154.019 201.882 166.944 191.035C174.986 193.524 183.663 192.968 191.321 189.473C198.98 185.978 205.085 179.788 208.475 172.082C211.864 164.376 212.301 155.693 209.701 147.686C207.102 139.679 201.648 132.908 194.379 128.662H194.406Z" fill="black"/>
<path d="M139.331 27.1961C137.564 19.5534 133.231 12.7472 127.054 7.91259C120.877 3.07801 113.229 0.507289 105.386 0.629141C97.5424 0.750993 89.9779 3.55806 83.9538 8.5822C77.9297 13.6063 73.8101 20.5439 72.282 28.2378C70.7539 35.9317 71.9097 43.917 75.5567 50.8619C79.2036 57.8068 85.1212 63.2915 92.3226 66.4014C99.524 69.5113 107.574 70.0583 115.13 67.9513C122.686 65.8442 129.291 61.2105 133.844 54.8228C142.693 58.8323 150.595 64.6662 157.032 71.9425C163.469 79.2187 168.296 87.7729 171.196 97.0447C173.227 96.8033 175.269 96.666 177.314 96.6332C185.311 96.6355 193.231 98.1915 200.634 101.215C197.789 84.5905 190.63 69.0044 179.872 56.0149C169.114 43.0255 155.134 33.088 139.331 27.1961V27.1961Z" fill="black"/>
<path d="M64.4076 141.213C61.6693 136.475 57.8326 132.464 53.2206 129.518C48.6085 126.572 43.3561 124.778 37.9058 124.286C37.6046 121.938 37.4352 119.575 37.3982 117.208C37.4408 99.9187 44.0504 83.2918 55.8892 70.6922C50.068 62.5027 46.3553 53.0044 45.0799 43.0381C34.102 52.0312 25.2575 63.3493 19.1848 76.1756C13.112 89.0019 9.96255 103.016 9.9636 117.208C10.0116 122.572 10.5164 127.923 11.4725 133.202C6.72489 137.584 3.31185 143.219 1.62658 149.456C-0.0586842 155.693 0.0523739 162.28 1.94697 168.457C3.84156 174.634 7.4426 180.15 12.3353 184.37C17.2279 188.59 23.2131 191.341 29.6014 192.308C35.9897 193.275 42.5211 192.417 48.4433 189.834C54.3655 187.251 59.4374 183.048 63.0749 177.708C66.7124 172.368 68.7674 166.109 69.0032 159.652C69.239 153.196 67.6459 146.804 64.4076 141.213V141.213Z" fill="black"/>
</svg>
