<svg width="32" height="32" viewBox="0 0 32 32" fill="none" xmlns="http://www.w3.org/2000/svg">
<g clip-path="url(#clip0_2105_51569)">
<path d="M30.2309 -0.771767H1.76969C0.366239 -0.771767 -0.771484 0.365957 -0.771484 1.76941V30.2306C-0.771484 31.634 0.366239 32.7718 1.76969 32.7718H30.2309C31.6343 32.7718 32.772 31.634 32.772 30.2306V1.76941C32.772 0.365957 31.6343 -0.771767 30.2309 -0.771767Z" fill="black"/>
<path fill-rule="evenodd" clip-rule="evenodd" d="M30.2303 -0.263528C31.3531 -0.263528 32.2633 0.646651 32.2633 1.76941V30.2306C32.2633 31.3534 31.3531 32.2635 30.2303 32.2635H1.76914C0.646376 32.2635 -0.263803 31.3534 -0.263803 30.2306V1.76941C-0.263803 0.646651 0.646376 -0.263528 1.76914 -0.263528H30.2303ZM30.2303 -1.28H1.76914C0.0849948 -1.28 -1.28027 0.0852695 -1.28027 1.76941V30.2306C-1.28027 31.9147 0.0849948 33.28 1.76914 33.28H30.2303C31.9145 33.28 33.2797 31.9147 33.2797 30.2306V1.76941C33.2797 0.0852695 31.9145 -1.28 30.2303 -1.28Z" fill="white"/>
<path fill-rule="evenodd" clip-rule="evenodd" d="M15.9996 5.8353C10.7794 5.83523 6.40777 9.78946 5.88574 14.9835H12.9502V13.4588C12.9502 13.1781 13.1778 12.9506 13.4584 12.9506H18.5408C18.8215 12.9506 19.049 13.1781 19.049 13.4588V18.5412C19.049 18.8219 18.8215 19.0494 18.5408 19.0494H13.4584C13.1778 19.0494 12.9502 18.8219 12.9502 18.5412V17.0165H5.88574C6.43391 22.4707 11.2082 26.5078 16.6777 26.1421C22.1472 25.7763 26.3415 21.1394 26.1585 15.6608C25.9756 10.1821 21.4813 5.83537 15.9996 5.8353Z" fill="white"/>
</g>
<defs>
<clipPath id="clip0_2105_51569">
<rect width="32" height="32" rx="4" fill="white"/>
</clipPath>
</defs>
</svg>
