<svg width="165" height="94" viewBox="0 0 165 94" fill="none" xmlns="http://www.w3.org/2000/svg">
<rect x="164.523" y="93.5238" width="23.381" height="23.381" transform="rotate(180 164.523 93.5238)" fill="#F4CF87"/>
<rect x="47.6172" y="23.381" width="23.381" height="23.381" transform="rotate(180 47.6172 23.381)" fill="#F4CF87"/>
<rect x="71" y="70.1428" width="23.381" height="23.381" transform="rotate(180 71 70.1428)" fill="#F4CF87"/>
<rect x="141.141" y="93.5238" width="23.381" height="23.381" transform="rotate(180 141.141 93.5238)" fill="#F4CF87"/>
<rect x="94.375" y="93.5238" width="23.381" height="23.381" transform="rotate(180 94.375 93.5238)" fill="#F4CF87"/>
<rect x="24.2344" y="23.381" width="23.381" height="23.381" transform="rotate(180 24.2344 23.381)" fill="#F4CF87"/>
<rect x="94.375" y="46.7618" width="23.381" height="23.381" transform="rotate(180 94.375 46.7618)" fill="#F4CF87"/>
<rect x="94.375" y="70.1428" width="23.381" height="23.381" transform="rotate(180 94.375 70.1428)" fill="#B19765"/>
<rect x="164.523" y="70.1428" width="23.381" height="23.381" transform="rotate(180 164.523 70.1428)" fill="#ECBC0B"/>
<rect x="117.758" y="70.1428" width="23.381" height="23.381" transform="rotate(180 117.758 70.1428)" fill="#ECBC0B"/>
<rect x="71" y="23.381" width="23.381" height="23.381" transform="rotate(180 71 23.381)" fill="#ECBC0B"/>
<rect x="117.758" y="93.5238" width="23.381" height="23.381" transform="rotate(180 117.758 93.5238)" fill="#ECBC0B"/>
<rect x="24.2344" y="46.7618" width="23.381" height="23.381" transform="rotate(180 24.2344 46.7618)" fill="#ECBC0B"/>
<rect x="47.6172" y="46.7618" width="23.381" height="23.381" transform="rotate(180 47.6172 46.7618)" fill="#ECBC0B"/>
<rect x="24.2344" y="93.5238" width="23.381" height="23.381" transform="rotate(180 24.2344 93.5238)" fill="#ECBC0B"/>
<rect x="47.6172" y="93.5238" width="23.381" height="23.381" transform="rotate(180 47.6172 93.5238)" fill="#ECBC0B"/>
<rect x="117.758" y="46.7618" width="23.381" height="23.381" transform="rotate(180 117.758 46.7618)" fill="#ECBC0B"/>
<rect x="71" y="93.5238" width="23.381" height="23.381" transform="rotate(180 71 93.5238)" fill="#ECBC0B"/>
<rect x="94.375" y="23.381" width="23.381" height="23.381" transform="rotate(180 94.375 23.381)" fill="#ECBC0B"/>
<rect x="164.523" y="46.7618" width="23.381" height="23.381" transform="rotate(180 164.523 46.7618)" fill="#F3A24A"/>
<rect x="141.141" y="46.7618" width="23.381" height="23.381" transform="rotate(180 141.141 46.7618)" fill="#F3A24A"/>
<rect x="141.141" y="70.1428" width="23.381" height="23.381" transform="rotate(180 141.141 70.1428)" fill="#F3A24A"/>
<rect x="24.2344" y="70.1428" width="23.381" height="23.381" transform="rotate(180 24.2344 70.1428)" fill="#F3A24A"/>
<rect x="71" y="46.7618" width="23.381" height="23.381" transform="rotate(180 71 46.7618)" fill="#F3A24A"/>
<rect x="47.6172" y="70.1428" width="23.381" height="23.381" transform="rotate(180 47.6172 70.1428)" fill="#F3A24A"/>
<rect x="164.523" y="23.381" width="23.381" height="23.381" transform="rotate(180 164.523 23.381)" fill="#FFE998"/>
<rect x="141.141" y="23.381" width="23.381" height="23.381" transform="rotate(180 141.141 23.381)" fill="#FFE998"/>
<rect x="117.758" y="23.381" width="23.381" height="23.381" transform="rotate(180 117.758 23.381)" fill="#FFE998"/>
</svg>
