<svg width="160" height="92" viewBox="0 0 160 92" fill="none" xmlns="http://www.w3.org/2000/svg">
<rect width="16.6152" height="16.6152" transform="matrix(0.866041 -0.499972 0.866041 0.499972 0.921875 42.1047)" fill="#38B795"/>
<rect width="16.6152" height="16.6152" transform="matrix(0.866041 -0.499972 0.866041 0.499972 101.648 33.7974)" fill="#38B795"/>
<rect width="16.6152" height="16.6152" transform="matrix(0.866041 -0.499972 0.866041 0.499972 58.4844 8.87598)" fill="#38B795"/>
<rect width="16.6152" height="16.6152" transform="matrix(0.866041 -0.499972 0.866041 0.499972 29.7031 42.1046)" fill="#38B795"/>
<rect width="16.6152" height="16.6152" transform="matrix(0.866041 -0.499972 0.866041 0.499972 58.4844 58.7189)" fill="#38B795"/>
<rect width="16.6152" height="16.6152" transform="matrix(0.866041 -0.499972 0.866041 0.499972 72.875 67.026)" fill="#38B795"/>
<rect width="16.6152" height="16.6152" transform="matrix(0.866041 -0.499972 0.866041 0.499972 116.039 58.7189)" fill="#38B795"/>
<rect width="16.6152" height="16.6152" transform="matrix(0.866041 -0.499972 0.866041 0.499972 58.4844 75.3333)" fill="#38B795"/>
<rect width="16.6152" height="16.6152" transform="matrix(0.866041 -0.499972 0.866041 0.499972 15.3125 33.7975)" fill="#359E89"/>
<rect width="16.6152" height="16.6152" transform="matrix(0.866041 -0.499972 0.866041 0.499972 44.0938 33.7974)" fill="#359E89"/>
<rect width="16.6152" height="16.6152" transform="matrix(0.866041 -0.499972 0.866041 0.499972 44.0938 50.4117)" fill="#359E89"/>
<rect width="16.6152" height="16.6152" transform="matrix(0.866041 -0.499972 0.866041 0.499972 29.7031 25.4902)" fill="#349E88"/>
<rect width="16.6152" height="16.6152" transform="matrix(0.866041 -0.499972 0.866041 0.499972 58.4844 42.1046)" fill="#349E88"/>
<rect width="16.6152" height="16.6152" transform="matrix(0.866041 -0.499972 0.866041 0.499972 58.4844 25.4902)" fill="#349E88"/>
<rect width="16.6152" height="16.6152" transform="matrix(0.866041 -0.499972 0.866041 0.499972 87.2578 25.4902)" fill="#349E88"/>
<rect width="16.6152" height="16.6152" transform="matrix(0.866041 -0.499972 0.866041 0.499972 87.2578 42.1045)" fill="#349E88"/>
<rect width="16.6152" height="16.6152" transform="matrix(0.866041 -0.499972 0.866041 0.499972 87.2578 58.719)" fill="#349E88"/>
<rect width="16.6152" height="16.6152" transform="matrix(0.866041 -0.499972 0.866041 0.499972 130.43 50.4119)" fill="#349E88"/>
<rect width="16.6152" height="16.6152" transform="matrix(0.866041 -0.499972 0.866041 0.499972 87.2578 75.3331)" fill="#349E88"/>
<rect width="16.6152" height="16.6152" transform="matrix(0.866041 -0.499972 0.866041 0.499972 72.875 83.6405)" fill="#349E88"/>
<rect width="16.6152" height="16.6152" transform="matrix(0.866041 -0.499972 0.866041 0.499972 101.648 50.4116)" fill="#349E88"/>
<rect width="16.6152" height="16.6152" transform="matrix(0.866041 -0.499972 0.866041 0.499972 116.039 42.1046)" fill="#349E88"/>
<rect width="16.6152" height="16.6152" transform="matrix(0.866041 -0.499972 0.866041 0.499972 44.0938 17.183)" fill="#37AC87"/>
<rect width="16.6152" height="16.6152" transform="matrix(0.866041 -0.499972 0.866041 0.499972 72.875 33.7974)" fill="#37AC87"/>
<rect width="16.6152" height="16.6152" transform="matrix(0.866041 -0.499972 0.866041 0.499972 29.7031 58.719)" fill="#37AC87"/>
<rect width="16.6152" height="16.6152" transform="matrix(0.866041 -0.499972 0.866041 0.499972 72.875 17.1831)" fill="#37AC87"/>
<rect width="16.6152" height="16.6152" transform="matrix(0.866041 -0.499972 0.866041 0.499972 72.875 50.4117)" fill="#37AC87"/>
<rect width="16.6152" height="16.6152" transform="matrix(0.866041 -0.499972 0.866041 0.499972 101.648 67.0261)" fill="#37AC87"/>
<rect width="16.6152" height="16.6152" transform="matrix(0.866041 -0.499972 0.866041 0.499972 15.3125 50.4117)" fill="#37AC87"/>
<rect width="16.6152" height="16.6152" transform="matrix(0.866041 -0.499972 0.866041 0.499972 44.0938 67.0261)" fill="#37AC87"/>
</svg>
