<svg width="1438" height="923" viewBox="0 0 1438 923" fill="none" xmlns="http://www.w3.org/2000/svg">
<g id="L2">
<path id="Subtract" fill-rule="evenodd" clip-rule="evenodd" d="M392 35.5H746.5V0H1437.5V744C1428.33 794.833 1379.8 896.5 1259 896.5H1150C1130.83 905.333 1073.3 923 996.5 923H746L561.5 896.5H153.5C102.333 886.5 0 840.2 0 735V157.5C6.5 105 46.3 0 153.5 0H342.5L392 35.5ZM820.5 135H392V708H1180V60.5H820.5V135ZM26 171V611H346V171H26Z" fill="#E4E0F8"/>
<rect id="wall" x="0.5" y="648.5" width="299" height="36" fill="#E1E0F5" stroke="#333A7F"/>
<rect id="wall_2" x="26.5" y="611.5" width="319" height="37" fill="#E1E0F5" stroke="#333A7F"/>
<rect id="wall_3" x="346.5" y="158.5" width="30" height="490" fill="#E1E0F5" stroke="#333A7F"/>
<rect id="wall_4" x="0.5" y="158.5" width="25" height="489" fill="#E1E0F5" stroke="#333A7F"/>
<rect id="wall_5" x="1425.5" y="36.5" width="12" height="270" fill="#E1E0F5" stroke="#333A7F"/>
<rect id="wall_6" x="26.5" y="170.5" width="12" height="319" transform="rotate(-90 26.5 170.5)" fill="#E1E0F5" stroke="#333A7F"/>
<rect id="wall_7" x="1196.5" y="47.5" width="11" height="228" transform="rotate(-90 1196.5 47.5)" fill="#E1E0F5" stroke="#333A7F"/>
<rect id="wall_8" x="377" y="110" width="443" height="24" fill="#E1E0F5" stroke="#333A7F"/>
<path id="wall_9" d="M1180 36.5V60.5H819V111H790V36.5H1180Z" fill="#E1E0F5" stroke="#333A7F"/>
<rect id="wall_10" x="300" y="649" width="76" height="59" fill="#E1E0F5" stroke="#333A7F"/>
<rect id="wall_11" x="1196.5" y="279.5" width="228" height="27" fill="#E1E0F5" stroke="#333A7F"/>
<rect id="wall_12" x="901.5" y="708.5" width="278" height="24" fill="#E1E0F5" stroke="#333A7F"/>
<rect id="wall_13" x="682.5" y="708.5" width="134" height="24" fill="#E1E0F5" stroke="#333A7F"/>
<rect id="toilets-5" x="1180.5" y="483.5" width="67" height="70" fill="white" stroke="#333A7F"/>
<rect id="toilets-6" x="614.5" y="708.5" width="67" height="49" fill="white" stroke="#333A7F"/>
<rect id="wall_14" x="1180.5" y="36.5" width="15" height="270" fill="#E1E0F5" stroke="#333A7F"/>
<path id="wall_15" d="M300 684.5V708.242H362.5V732.5H267.5V684.5H300Z" fill="#E1E0F5" stroke="#333A7F"/>
<rect id="wall_16" x="377" y="135" width="14" height="573" fill="#E1E0F5" stroke="#333A7F"/>
<path id="breakout-room-1" d="M1285.5 307.5V482.5H1180.5V307.5H1285.5Z" fill="#FFEFA7" stroke="#333A7F"/>
<path id="breakout-room-1_2" d="M1261.5 554.5V605.5H1180.5V554.5H1261.5Z" fill="#FFEFA7" stroke="#333A7F"/>
<path id="meeting-room-2" d="M1220.5 606.5V656.5H1180.5V606.5H1220.5Z" fill="#00A99D" stroke="#333A7F"/>
<path id="meeting-room-1" d="M1220.5 657.5V708.5H1180.5V657.5H1220.5Z" fill="#00A99D" stroke="#333A7F"/>
<path id="meeting-room-4" d="M1261.5 606.5V656.5H1221.5V606.5H1261.5Z" fill="#00A99D" stroke="#333A7F"/>
<path id="meeting-room-3" d="M1261.5 657.5V708.5H1221.5V657.5H1261.5Z" fill="#00A99D" stroke="#333A7F"/>
<path id="meeting-room-6" d="M1138.5 732.5V775.5H1098.5V732.5H1138.5Z" fill="#00A99D" stroke="#333A7F"/>
<path id="meeting-room-8" d="M1056.5 732.5V775.5H951.5V732.5H1056.5Z" fill="#00A99D" stroke="#333A7F"/>
<path id="meeting-room-5" d="M1179.5 732.5V775.5H1139.5V732.5H1179.5Z" fill="#00A99D" stroke="#333A7F"/>
<path id="meeting-room-7" d="M1097.5 732.5V775.5H1057.5V732.5H1097.5Z" fill="#00A99D" stroke="#333A7F"/>
<path id="meeting-room-11" d="M613.5 708.5V757.5H528.5V708.5H613.5Z" fill="#00A99D" stroke="#333A7F"/>
<path id="meeting-room-9" d="M443.5 708.5V757.5H363.5V708.5H443.5Z" fill="#00A99D" stroke="#333A7F"/>
<path id="meeting-room-10" d="M527.5 708.5V757.5H444.5V708.5H527.5Z" fill="#00A99D" stroke="#333A7F"/>
<path id="meeting-room-9_2" d="M900.5 708.5V742.5H817.5V708.5H900.5Z" fill="#00A99D" stroke="#333A7F"/>
<path id="blue-discussion-corner" d="M1392.5 554V598H1415V682H1354V554H1392.5Z" fill="#3C489D" stroke="#333A7F"/>
<path id="speakers-space" d="M219.5 703.5V828.5H53.5V703.5H219.5Z" fill="#36374A" stroke="#333A7F"/>
<path id="food-area-1" d="M757.5 816.5V875.5H238.5V816.5H757.5Z" fill="#8DC63F" stroke="#333A7F"/>
<path id="food-area-2" d="M1389 696V815H1306V696H1389Z" fill="#8DC63F" stroke="#333A7F"/>
<path id="cowork-space-1" d="M1076.76 840L1114.27 886.887C1101.17 895.577 1058.94 912.5 991 912.5C923.056 912.5 881.148 895.575 868.225 886.888L905.242 840H1076.76Z" fill="#979797" stroke="#333A7F"/>
</g>
</svg>
