<svg width="344" height="80" viewBox="0 0 344 80" fill="none" xmlns="http://www.w3.org/2000/svg">
<path d="M18.3056 24.1452L29.8336 17.5794C29.6218 16.944 29.4705 16.2784 29.4705 15.5522C29.4705 12.7685 31.4977 10.469 34.1604 9.98487V0H36.0968V9.98487C38.7595 10.469 40.7867 12.7685 40.7867 15.5522C40.7867 16.2784 40.6354 16.944 40.3934 17.5794L51.9516 24.1452C52.3752 23.6611 52.8896 23.2375 53.4645 22.8744C55.885 21.4826 58.9108 22.0877 60.6354 24.1452L69.289 19.1528L70.2572 20.8472L61.6036 25.8396C62.5416 28.3812 61.5431 31.2859 59.1226 32.6778C58.5779 32.9803 58.0333 33.1921 57.4584 33.3132V46.6868C58.0333 46.8079 58.5779 47.0197 59.1226 47.3222C61.5431 48.7141 62.5416 51.6188 61.6036 54.1604L70.2572 59.1528L69.289 60.8472L60.6354 55.8548C58.9108 57.9123 55.885 58.5174 53.4645 57.1256C52.8896 56.7625 52.3752 56.3389 51.9516 55.8548C48.1089 58.0333 44.2663 60.2421 40.3934 62.4206C40.6354 63.056 40.7867 63.7216 40.7867 64.4478C40.7867 67.2315 38.7595 69.531 36.0968 70.0151V80H34.1604V70.0151C31.4977 69.531 29.4705 67.2315 29.4705 64.4478C29.4705 63.7216 29.6218 63.056 29.8336 62.4206L18.3056 55.8548C17.882 56.3389 17.3676 56.7625 16.7927 57.1256C14.3722 58.5174 11.3464 57.9123 9.62179 55.8548L0.96823 60.8472L0 59.1528L8.65356 54.1604C7.71558 51.6188 8.71407 48.7141 11.1346 47.3222C11.6793 47.0197 12.2239 46.8079 12.7988 46.6868V33.3132C12.2239 33.1921 11.6793 32.9803 11.1346 32.6778C8.71407 31.2859 7.71558 28.3812 8.65356 25.8396L0 20.8472L0.96823 19.1528L9.62179 24.1452C11.3464 22.0877 14.3722 21.4826 16.7927 22.8744C17.3676 23.2375 17.882 23.6611 18.3056 24.1452ZM50.9834 54.1604C50.4387 52.6475 50.5295 50.8926 51.407 49.41C52.3147 47.8366 53.8578 46.8684 55.5219 46.6263V33.3737C53.8578 33.1316 52.3147 32.1634 51.407 30.59C50.5295 29.1074 50.4387 27.3525 50.9834 25.8396L39.4251 19.2436C38.3661 20.4539 36.8533 21.2103 35.1286 21.2103C33.4039 21.2103 31.8911 20.4539 30.8321 19.2436L19.2738 25.8396C19.8185 27.3525 19.7277 29.1074 18.8502 30.59C17.9425 32.1634 16.3994 33.1316 14.7352 33.3737V46.6263C16.3994 46.8684 17.9425 47.8366 18.8502 49.41C19.7277 50.8926 19.8185 52.6475 19.2738 54.1604L30.8321 60.7564C31.8911 59.5461 33.4039 58.7897 35.1286 58.7897C36.8533 58.7897 38.3661 59.5461 39.4251 60.7564L50.9834 54.1604Z" fill="white"/>
<path d="M301.705 23.0585C302.573 22.8484 304.163 23.0852 305.078 23.2032C311.793 24.1469 314.846 29.9732 315.372 36.2192C315.96 43.1719 315.254 51.0036 308.182 54.4758C306.622 55.2414 305.271 55.3834 303.547 55.502C296.294 55.9883 290.778 50.8158 290.067 43.8092C289.068 33.9604 290.345 24.6223 301.705 23.0585ZM303.97 51.5698C309.704 50.5668 311.046 44.5597 311.01 39.5688C310.96 33.0093 309.126 26.1235 301.173 27.0926C293.611 29.1768 293.543 38.7546 294.952 45.1377C295.941 49.6193 299.461 51.8312 303.97 51.5698Z" fill="white"/>
<path d="M178.016 31.0779C178.102 31.0586 178.19 31.0439 178.277 31.0338C190.747 29.5371 191.782 55.0154 179.49 55.5423C176.876 55.6542 174.523 55.1363 172.483 53.4175C172.311 53.8704 172.363 57.7513 172.361 58.5114L172.365 64.2202C171.165 64.3043 169.303 64.4918 168.172 64.1392C167.571 63.4058 167.76 50.1398 167.787 48.1329C167.857 42.7221 167.6 36.736 167.949 31.3791L172.054 31.4327C172.14 31.9809 172.191 33.0573 172.237 33.6452C174.538 31.6524 175.042 31.4989 178.016 31.0779ZM172.491 37.6707C172.287 42.6155 170.51 54.0563 179.128 51.7629C186.274 48.7351 184.657 33.7552 176.64 34.8705C174.538 35.5456 173.886 35.8903 172.491 37.6707Z" fill="white"/>
<path d="M109.669 23.0556C112.207 22.6436 115.621 23.2951 117.851 24.6244C121.196 26.6183 121.936 29.5541 122.843 33.0804L118.442 33.1155C116.842 30.5903 116.567 27.5393 112.822 26.9389C107.527 26.0898 103.85 29.0677 103.094 34.3318C102.193 40.615 102.181 50.1442 110.08 51.7166C112.897 52.2572 115.793 51.4706 118.081 49.8231C118.186 47.7542 118.145 45.1802 118.171 43.0697L113.452 43.0111L110.803 43.0138C110.867 41.7025 110.887 40.3894 110.864 39.077C114.611 38.9349 118.958 39.0293 122.734 39.0366C122.751 43.0533 122.739 47.07 122.697 51.0864C120.406 53.8429 118.762 54.6039 115.314 55.2728C106.991 56.9838 99.0188 52.4948 98.3311 43.5351C97.576 33.7005 98.0643 24.6627 109.669 23.0556Z" fill="white"/>
<path d="M151.911 31.0819C152.466 30.9461 153.348 31.0458 153.942 31.0758C164.372 31.6009 161.083 43.0789 161.685 50.0262C161.881 52.2944 161.988 53.0655 162.606 55.139L157.74 55.0429L157.377 52.9944C153.037 56.8801 144.425 56.4966 143.009 50.2924C141.109 40.8738 150.732 40.6227 157.167 40.5413C157.149 39.3146 157.235 38.2128 156.663 37.0888C155.03 33.8817 151.59 34.3626 148.906 35.7568C148.177 36.8159 148.017 37.1751 147.537 38.3759C146.267 38.4531 144.407 38.4121 143.093 38.4178C143.883 33.2188 146.92 31.5893 151.911 31.0819ZM148.023 45.5709C146.98 47.6505 146.827 49.2862 148.718 51.0008C151.471 52.3235 155.238 51.725 156.691 48.762C157.329 47.4619 157.063 45.6927 157.101 44.2449L156.883 43.9005L156.658 43.8784C153.229 43.9162 150.85 43.5929 148.023 45.5709Z" fill="white"/>
<path d="M329.526 23.0846C332.874 22.757 336.702 23.225 339.473 25.2134C340.807 26.1714 344.068 31.2752 342.638 32.8312C341.746 33.0669 339.818 32.9416 338.815 32.916C338.245 31.4095 337.688 29.5124 336.498 28.3612C334.224 26.1624 328.824 26.2793 326.648 28.5149C326.067 29.1133 325.112 31.2195 325.348 32.0286C326.965 37.5973 336.222 36.7692 340.045 40.4646C341.772 41.9742 342.836 43.8345 342.989 46.2019C343.443 53.161 338.342 55.1192 332.529 55.519C328.46 55.8209 323.579 54.2269 321.233 50.7293C320.135 49.0896 319.939 47.6127 319.685 45.7179L324.229 45.7008C324.66 47.6657 324.765 48.7971 326.488 50.2005C329.2 52.4092 334.902 52.6647 337.303 49.8468C338.485 48.4601 338.357 47.0531 338.184 45.3482C334.653 40.0125 322.499 41.127 320.974 33.6397C319.687 27.3123 323.901 24.3704 329.526 23.0846Z" fill="white"/>
<path d="M275.263 31.0754C275.482 31.0288 275.597 31.0286 275.812 31.0231C283.973 30.8166 285.912 37.7416 285.798 44.6716C281.948 44.8545 273.736 44.8844 269.947 44.6733C270.168 46.5496 270.531 48.3365 271.818 49.7644C275.62 53.9806 279.587 51.4996 282.873 48.8001C283.534 49.2772 284.736 50.0273 285.079 50.6995C285.128 51.2681 284.921 51.6205 284.587 52.0657C281.405 56.3179 273.766 56.5334 269.724 53.4991C267.299 51.765 265.844 48.867 265.476 45.9595C264.834 40.8582 266.368 34.5681 271.354 32.1249C272.813 31.4108 273.686 31.3009 275.263 31.0754ZM269.966 40.9081C272.373 40.8885 274.777 40.8852 277.183 40.8986L281.191 40.8601C280.524 36.7674 279.166 34.4529 274.68 34.8577C271.7 36.0114 270.792 37.9617 269.966 40.9081Z" fill="white"/>
<path d="M226.399 31.07C226.957 30.903 229.028 31.107 229.615 31.1922C232.74 31.6453 234.977 34.0878 236.048 36.9371C237.08 39.6855 237.047 41.9111 236.977 44.762C232.416 44.4796 226.055 44.7454 221.254 44.6558C221.62 46.6671 221.807 47.751 222.959 49.396C225.365 52.8357 230.361 52.9265 232.919 49.6749C233.158 49.3735 233.653 48.9944 233.97 48.7524C234.504 48.9673 236.174 50.268 236.838 50.7145C233.806 56.1614 226.013 56.9001 221.189 53.6003C214.766 49.2047 215.551 35.6441 222.581 32.1235C223.924 31.4512 224.936 31.2973 226.399 31.07ZM221.327 40.8669L228.265 40.8885C229.541 40.8753 231.499 40.7979 232.725 40.8604C231.939 36.6872 230.626 34.4463 226.04 34.8572C222.656 36.2707 222.496 37.5647 221.327 40.8669Z" fill="white"/>
<path d="M193.173 21.6595C194.671 21.5839 196.136 21.6308 197.634 21.6623C197.77 25.1259 197.68 30.4154 197.485 33.8677C199.325 32.2744 200.862 31.2439 203.482 31.0565C214.876 30.2417 211.128 42.5301 211.919 49.653C212.032 50.6781 212.074 54.2372 211.673 55.0957C210.779 55.3377 208.375 55.2082 207.335 55.1878C207.063 52.2871 207.282 45.5327 207.293 42.351C207.29 40.3778 207.396 39.1113 207.143 37.1204C204.121 33.3231 200.727 34.5006 197.964 37.7024C197.491 39.5516 197.672 42.3666 197.646 44.3406C197.598 47.9384 197.751 51.6285 197.615 55.2229C196.082 55.1912 194.639 55.0921 193.113 54.9862C192.978 47.2157 192.957 39.4437 193.051 31.6724C193.083 28.5599 192.934 24.6587 193.173 21.6595Z" fill="white"/>
<path d="M251.96 31.0698C253.067 30.7464 255.495 31.2691 256.547 31.5999C258.789 32.3056 260.553 36.3231 260.385 38.4798C260.168 41.2372 261.011 53.3791 260.236 55.0331C259.243 55.3926 256.997 55.224 255.84 55.1861C255.933 51.7198 256.349 39.625 255.386 37.2089C255.012 36.2738 254.354 35.4571 253.405 35.0717C251.717 34.3883 250.011 35.0868 248.455 35.7547C246.375 37.1431 246.144 38.81 246.112 41.1444C246.051 45.8066 246.367 50.5389 246.257 55.191C244.808 55.1085 243.114 55.1262 241.642 55.1102C241.751 47.4851 241.45 38.889 241.795 31.3858L245.894 31.406L246.077 33.989C247.893 31.8488 249.366 31.4897 251.96 31.0698Z" fill="white"/>
<path d="M138.416 31.0815C141.504 30.2802 140.72 33.6239 140.569 35.4889C139.941 35.442 139.311 35.4125 138.681 35.4003C132.427 35.3188 133.42 40.5373 133.429 45.0625L133.438 55.2532C131.851 55.1119 130.883 55.0871 129.29 55.1191C128.542 54.2483 128.837 47.8446 128.843 46.3367L128.883 31.3782C130.441 31.4251 131.98 30.9579 133.056 31.7027C133.447 32.2124 133.287 33.0583 133.244 33.7381C135.166 31.7176 135.655 31.3572 138.416 31.0815Z" fill="white"/>
</svg>
