<svg width="292" height="80" viewBox="0 0 292 80" fill="none" xmlns="http://www.w3.org/2000/svg">
<g clip-path="url(#clip0_5914_18)">
<mask id="mask0_5914_18" style="mask-type:luminance" maskUnits="userSpaceOnUse" x="0" y="0" width="292" height="80">
<path d="M292 0H0V80H292V0Z" fill="white"/>
</mask>
<g mask="url(#mask0_5914_18)">
<path d="M25.1105 26.2761C24.9731 24.3625 25.4951 22.6053 26.6151 20.9015C27.3648 19.7687 28.4281 18.5458 29.6013 17.1984C32.6281 13.718 36.3773 9.40987 37.2951 3.70117C39.2909 8.07708 38.3228 12.332 36.1138 16.2448C35.1199 18.0036 34.0196 19.267 32.9691 20.4724C31.7329 21.8905 30.5677 23.2283 29.7306 25.195C29.2701 26.2649 29.0082 27.2894 28.8855 28.2916L25.1105 26.2761Z" fill="white"/>
<path d="M31.5876 29.7381C32.0483 28.0503 32.845 26.4724 33.9035 24.941C34.7794 23.6631 35.6002 22.7159 36.3371 21.8656C38.8161 19.0016 40.3546 17.2235 39.9036 7.62457C40.1929 8.24095 40.4789 8.83472 40.7568 9.40752L40.7586 9.41076C43.176 14.4224 44.8728 17.9367 42.0222 22.7628C40.6131 25.1476 39.5852 26.3335 38.677 27.3824C37.6541 28.5618 36.7815 29.5703 35.6842 31.9164L31.5876 29.7381Z" fill="white"/>
<path d="M42.2032 28.2263C41.0915 29.5413 39.2767 31.3548 39.1942 31.4743L49.4639 25.7413C49.249 23.8309 47.8381 21.5801 46.1043 18.3804C46.4549 22.5982 44.8067 25.146 42.2032 28.2263Z" fill="white"/>
<path d="M49.3881 27.6473C49.1118 28.8702 47.5992 31.4149 46.4873 32.7364C42.9742 36.909 41.145 38.6887 38.1391 44.9669C37.9695 44.2876 37.7918 43.6471 37.6221 43.0356C36.7833 40.0149 36.2678 37.4996 37.2729 35.3308L49.3881 27.6473Z" fill="white"/>
<path d="M35.8218 41.7924C34.9622 39.28 34.3449 37.1792 34.7941 34.5218L31.2034 32.1852C31.0046 36.0949 32.6771 40.6596 37.2957 46.5362C37.05 45.0807 36.3131 43.2284 35.8218 41.7924Z" fill="white"/>
<path d="M28.8099 30.6283C28.8713 31.8997 29.6583 35.2608 30.3628 37.0389C28.3525 34.4782 26.1548 30.5492 25.5261 28.4903L28.8099 30.6283Z" fill="white"/>
<path d="M71.102 49.7369C71.102 43.9202 60.2684 39.0279 45.6275 37.658C44.2312 39.2231 42.835 41.1659 41.5001 44.0299L39.49 47.8427C39.1068 48.5461 38.4007 49.0076 37.6169 49.069C36.8203 49.1303 36.0527 48.7817 35.5775 48.1444L34.2879 46.4146C31.6022 42.9908 29.6371 40.2784 28.0874 37.7403C13.878 39.2167 3.44348 44.0315 3.44348 49.7369C3.44348 56.6155 18.6047 62.1998 37.2807 62.1998C38.1826 62.1998 39.0778 62.187 39.9634 62.1611L42.7041 54.4146L42.7267 54.3596C43.3312 52.851 44.7855 51.8636 46.4031 51.8409H46.4145L70.6108 51.9056C70.8597 51.2972 71.102 50.371 71.102 49.7369Z" fill="white"/>
<path d="M47.4016 62.3678H66.3588L65.5298 64.467H46.6728L42.4744 76.4249V63.7264L45.4106 55.4313C45.5771 55.0117 45.9843 54.7326 46.4417 54.726L69.421 54.7326L68.571 56.8011H49.3875L48.7994 58.547H67.9149L67.0069 60.622H48.0657L47.4016 62.3678Z" fill="white"/>
<path d="M4.60736 55.2352C6.79056 61.3989 12.1331 68.6388 13.2691 69.6972C17.1927 73.3874 29.8346 76.4258 39.7909 76.4258V66.0361C22.5319 66.0361 9.05781 60.4549 4.60736 55.2352Z" fill="white"/>
<path d="M288.2 47.5705C288.2 41.0283 283.637 36.2873 277.081 36.2873C270.442 36.2873 265.784 41.1104 265.784 47.7813C265.784 54.994 270.515 59.0206 278.896 59.0206C281.638 59.0299 284.342 58.3676 286.778 57.0907L285.699 52.8123C283.502 53.9045 281.064 54.5694 278.935 54.5694C274.59 54.5694 271.966 52.6805 271.676 49.4533H288.063C288.115 48.9966 288.2 48.2411 288.2 47.5705ZM271.564 45.8924C271.852 42.9143 273.967 40.7765 277.039 40.7765C280.108 40.7765 282.227 42.9143 282.515 45.8924H271.564Z" fill="white"/>
<path d="M263.304 28.4444H257.745V34.0231H263.304V28.4444Z" fill="white"/>
<path d="M263.304 36.6649H257.745V58.6427H263.304V36.6649Z" fill="white"/>
<path d="M245.091 36.2873C241.813 36.2873 239.241 37.8834 237.581 40.4398V36.6651H232.728V66.7401H238.286V55.6119C239.736 57.8112 242.326 59.0676 245.341 59.0676C250.86 59.0676 255.256 54.2414 255.256 47.6144C255.256 40.9874 250.985 36.2873 245.091 36.2873ZM243.932 54.2825C240.654 54.2825 238.249 51.5561 238.249 47.8224C238.249 43.9218 240.654 41.0695 243.932 41.0695C247.212 41.0695 249.576 43.9218 249.576 47.8224C249.573 51.5561 247.207 54.2825 243.93 54.2825H243.932Z" fill="white"/>
<path d="M220.193 36.2873C213.557 36.2873 208.91 41.1104 208.91 47.7813C208.91 54.994 213.637 59.0206 222.021 59.0206C224.765 59.0295 227.468 58.3675 229.904 57.0907L228.814 52.8123C226.615 53.9045 224.179 54.5694 222.054 54.5694C217.707 54.5694 215.083 52.6805 214.791 49.4533H231.189C231.23 48.9908 231.314 48.2352 231.314 47.5646C231.314 41.0372 226.749 36.2873 220.193 36.2873ZM214.675 45.8924C214.965 42.9143 217.082 40.7765 220.154 40.7765C223.223 40.7765 225.339 42.9143 225.629 45.8924H214.675Z" fill="white"/>
<path d="M200.981 36.2868C199.407 36.2629 197.855 36.6633 196.486 37.4466C195.115 38.2299 194.264 39.368 193.473 40.7438V28.4444H187.911V58.6423H193.473V48.6505C193.473 44.3282 195.465 41.224 198.621 41.224C200.901 41.224 202.271 42.902 202.271 46.299V58.6306H207.829V44.9285C207.827 40.1582 206.291 36.2868 200.981 36.2868Z" fill="white"/>
<path d="M183.262 53.8633C182.103 53.8633 181.188 53.2338 181.188 51.7227V40.9842H185.749V36.6647H181.188V30.7874H175.629V36.6647H167.746L163.789 54.0157L160.487 38.9869H155.852L152.55 54.0361L148.552 36.6793H142.894L148.618 58.6571H155.174L158.129 46.0649L161.15 58.6571H167.456L172.091 40.9988H175.631V52.771C175.631 57.0905 177.787 59.0203 181.688 59.0203C183.695 59.0304 185.667 58.5106 187.412 57.5122L186.289 53.0638C185.625 53.3597 184.423 53.8633 183.262 53.8633Z" fill="white"/>
<path d="M132.521 36.2873C125.881 36.2873 121.11 41.0695 121.11 47.7083C121.11 54.3468 125.881 59.0763 132.521 59.0763C139.117 59.0763 143.888 54.2942 143.888 47.7083C143.888 41.1221 139.117 36.2873 132.521 36.2873ZM132.521 54.2825C129.241 54.2825 126.834 51.5122 126.834 47.6965C126.834 43.8807 129.241 41.0695 132.521 41.0695C135.8 41.0695 138.204 43.8368 138.204 47.6555C138.204 51.4741 135.797 54.2825 132.521 54.2825Z" fill="white"/>
<path d="M113.888 41.362V36.6765H108.787V58.6544H114.346V45.3476C115.505 42.8731 118.37 41.5406 120.902 41.5406V36.413L120.612 36.3719C117.955 36.3719 115.424 38.3428 113.888 41.362Z" fill="white"/>
<path d="M101.4 40.5248C99.7401 37.9653 97.1676 36.2873 93.8219 36.2873C87.9151 36.2873 83.6829 41.0695 83.6829 47.6555C83.6829 53.6939 87.9557 58.35 93.8885 58.35C95.203 58.3662 96.5031 58.0711 97.6849 57.4885C98.8664 56.9058 99.8966 56.0516 100.693 54.9941V57.1758C100.693 61.3284 98.3294 63.5509 94.181 63.5509C91.151 63.5509 88.9117 62.9214 86.2554 61.5801L84.636 65.7326C87.6061 67.2256 90.8786 68.0005 94.1955 67.9963C101.913 67.9963 106.269 64.0956 106.269 57.1758V36.6768H101.4V40.5248ZM95.0501 53.8636C91.7738 53.8636 89.3666 51.1374 89.3666 47.8224C89.3666 43.9218 91.7738 41.0695 95.0501 41.0695C98.3264 41.0695 100.693 43.9218 100.693 47.8224C100.693 51.1374 98.3294 53.8636 95.0501 53.8636Z" fill="white"/>
</g>
</g>
<defs>
<clipPath id="clip0_5914_18">
<rect width="292" height="80" fill="white"/>
</clipPath>
</defs>
</svg>
